<?xml version="1.0" encoding="UTF-8" standalone="no"?>
<!-- Created with Inkscape (http://www.inkscape.org/) -->

<svg
   width="500"
   height="500"
   viewBox="0 0 500 500"
   version="1.1"
   id="svg1"
   inkscape:version="1.3.2 (091e20ef0f, 2023-11-25, custom)"
   sodipodi:docname="icon.svg"
   xml:space="preserve"
   inkscape:export-filename="logo.png"
   inkscape:export-xdpi="96"
   inkscape:export-ydpi="96"
   xmlns:inkscape="http://www.inkscape.org/namespaces/inkscape"
   xmlns:sodipodi="http://sodipodi.sourceforge.net/DTD/sodipodi-0.dtd"
   xmlns:xlink="http://www.w3.org/1999/xlink"
   xmlns="http://www.w3.org/2000/svg"
   xmlns:svg="http://www.w3.org/2000/svg"><sodipodi:namedview
     id="namedview1"
     pagecolor="#505050"
     bordercolor="#eeeeee"
     borderopacity="1"
     inkscape:showpageshadow="0"
     inkscape:pageopacity="0"
     inkscape:pagecheckerboard="0"
     inkscape:deskcolor="#505050"
     inkscape:document-units="px"
     inkscape:zoom="0.5"
     inkscape:cx="113"
     inkscape:cy="423"
     inkscape:window-width="1352"
     inkscape:window-height="734"
     inkscape:window-x="4"
     inkscape:window-y="24"
     inkscape:window-maximized="1"
     inkscape:current-layer="svg1"
     showguides="true"><sodipodi:guide
       position="251.76981,433.43788"
       orientation="-0.99997769,0.0066803918"
       id="guide30"
       inkscape:locked="false" /><sodipodi:guide
       position="66.396728,247.89992"
       orientation="0,-1"
       id="guide53"
       inkscape:locked="false" /></sodipodi:namedview><defs
     id="defs1"><linearGradient
       id="linearGradient6"
       inkscape:collect="always"><stop
         style="stop-color:#fff743;stop-opacity:1;"
         offset="0"
         id="stop6" /><stop
         style="stop-color:#ffa260;stop-opacity:1;"
         offset="1"
         id="stop7" /></linearGradient><linearGradient
       id="linearGradient4"
       inkscape:collect="always"><stop
         style="stop-color:#5769ff;stop-opacity:1;"
         offset="0"
         id="stop4" /><stop
         style="stop-color:#e650f0;stop-opacity:1;"
         offset="1"
         id="stop5" /></linearGradient><inkscape:path-effect
       effect="mirror_symmetry"
       start_point="248.01736,147.15359"
       end_point="248.01736,250.12038"
       center_point="248.01736,198.63699"
       id="path-effect2"
       is_visible="true"
       lpeversion="1.2"
       lpesatellites=""
       mode="free"
       discard_orig_path="false"
       fuse_paths="true"
       oposite_fuse="false"
       split_items="false"
       split_open="false"
       link_styles="false" /><linearGradient
       id="swatch61"
       inkscape:swatch="solid"><stop
         style="stop-color:#5090d0;stop-opacity:1;"
         offset="0"
         id="stop61" /></linearGradient><linearGradient
       id="swatch30"
       inkscape:swatch="solid"><stop
         style="stop-color:#f9f9f9;stop-opacity:1;"
         offset="0"
         id="stop30" /></linearGradient><inkscape:perspective
       sodipodi:type="inkscape:persp3d"
       inkscape:vp_x="44.06818 : 315.96746 : 1"
       inkscape:vp_y="0 : 1000 : 0"
       inkscape:vp_z="480.74134 : 298.68846 : 1"
       inkscape:persp3d-origin="250 : 166.66667 : 1"
       id="perspective17" /><inkscape:perspective
       sodipodi:type="inkscape:persp3d"
       inkscape:vp_x="44.06818 : 315.96746 : 1"
       inkscape:vp_y="0 : 1000 : 0"
       inkscape:vp_z="480.74134 : 298.68846 : 1"
       inkscape:persp3d-origin="250 : 166.66667 : 1"
       id="perspective17-2" /><linearGradient
       inkscape:collect="always"
       xlink:href="#linearGradient4"
       id="linearGradient5"
       x1="45.746094"
       y1="197.55567"
       x2="450.28906"
       y2="197.55567"
       gradientUnits="userSpaceOnUse"
       gradientTransform="matrix(0.92780161,-0.62778792,0.62778792,0.92780161,-122.09805,177.87589)" /><linearGradient
       inkscape:collect="always"
       xlink:href="#linearGradient6"
       id="linearGradient7"
       x1="23.876924"
       y1="252.09133"
       x2="476.55595"
       y2="252.09133"
       gradientUnits="userSpaceOnUse"
       gradientTransform="rotate(-34.083865,259.38509,243.2556)" /></defs><path
     id="path5"
     style="fill:url(#linearGradient7);stroke:none;stroke-width:35.6843;stroke-linejoin:bevel;stroke-opacity:1;paint-order:markers fill stroke"
     d="M 129.40932,70.265137 A 224.32659,226.95838 84.945956 0 0 30.219476,254.27585 L 187.76697,147.67286 c 1.203,-0.81398 2.4989,-1.42752 3.79979,-2.0169 1.0309,-0.98837 2.08233,-1.96319 3.28534,-2.7772 L 337.48196,46.369676 A 224.32659,226.95838 84.945956 0 0 129.40932,70.265137 Z M 202.7899,173.23486 c 0.64306,-0.11162 1.28673,-0.37543 1.78924,-0.71544 l -171.701607,116.18021 7.014926,10.36728 23.95362,-16.20797 a 15.0015,15.0015 0 0 1 20.832078,4.01771 l 29.401593,43.45233 c 1.80986,2.67476 4.77282,3.24621 7.4492,1.43527 l 71.15721,-48.14783 c 2.67638,-1.81096 3.2473,-4.7712 1.43639,-7.44758 L 164.72097,232.7165 a 15.0015,15.0015 0 0 1 4.01607,-20.83097 l 42.85706,-28.99881 c -0.50369,0.34083 -0.98649,0.84061 -1.32791,1.39376 a 15.0015,15.0015 0 0 1 10.19905,-6.90112 c -0.64051,0.11121 -1.2823,0.37244 -1.78599,0.71327 l 42.85705,-28.99881 a 15.0015,15.0015 0 0 1 20.83047,4.0188 l 29.40158,43.45234 c 1.81095,2.67638 4.77122,3.2473 7.44759,1.43638 l 71.1572,-48.14782 c 2.67639,-1.81097 3.24783,-4.77391 1.43793,-7.4487 l -14.1382,-20.89471 a 39.558485,40.022583 84.945956 0 1 -14.93267,46.84049 39.558485,40.022583 84.945956 0 1 -55.58372,-10.43868 39.558485,40.022583 84.945956 0 1 10.67421,-54.96722 39.558485,40.022583 84.945956 0 1 51.27738,5.90759 l -6.69861,-9.899805 a 15.0015,15.0015 0 0 1 4.0161,-20.830982 l 14.59735,-9.877184 A 224.32659,226.95838 84.945956 0 0 369.28456,61.073095 L 211.66427,167.72532 c 0.50248,-0.34001 0.98515,-0.83825 1.32792,-1.39376 a 15.0015,15.0015 0 0 1 -10.20229,6.9033 z m -97.78659,72.75287 a 39.558485,40.022583 84.945956 0 1 55.5799,10.43652 39.558485,40.022583 84.945956 0 1 -10.67203,54.97045 39.558485,40.022583 84.945956 0 1 -55.580466,-10.44083 39.558485,40.022583 84.945956 0 1 10.672596,-54.96614 z m -62.037072,84.38474 a 224.32659,226.95838 84.945956 0 0 25.922368,51.59597 224.32659,226.95838 84.945956 0 0 315.180104,59.19401 224.32659,226.95838 84.945956 0 0 60.52394,-311.70549 224.32659,226.95838 84.945956 0 0 -38.1896,-42.161178 l -10.73933,7.266664 20.99552,31.029084 c 10.83465,16.01242 6.53685,38.2749 -9.47396,49.10848 l -71.1572,48.14782 c -16.01083,10.83358 -38.27436,6.54123 -49.10793,-9.46962 l -20.99551,-31.02907 -30.43216,20.59163 c -1.20294,0.81395 -2.49854,1.42941 -3.79871,2.01854 -1.03038,0.98783 -2.08351,1.96161 -3.28644,2.77554 l -30.43379,20.59273 20.99551,31.02909 c 10.83359,16.01082 6.54012,38.27273 -9.47071,49.10628 l -71.1572,48.14784 c -16.01085,10.83357 -38.27488,6.54392 -49.109557,-9.46854 l -20.995511,-31.02907 -15.354385,10.3894 c -3.054297,2.06665 -6.44459,3.30253 -9.915449,3.86989 z M 136.03774,388.36879 427.24527,192.64665 A 146.52378,176.11199 57.373734 0 1 359.86719,404.44036 146.52378,176.11199 57.373734 0 1 136.03774,388.36879 Z" /><path
     id="rect1"
     style="fill:url(#linearGradient5);stroke-width:48.0682;stroke-linecap:round;stroke-linejoin:round;stroke-miterlimit:10;paint-order:stroke markers fill"
     d="m 20.647953,278.86384 c -4.764301,3.22372 -6.004711,9.65528 -2.780987,14.41958 l 12.190366,18.01603 c 3.223713,4.76429 9.654056,6.00289 14.418342,2.7792 l 27.777878,-18.79561 29.401818,43.45263 c 6.32226,9.34363 18.93529,11.77461 28.27891,5.45235 l 71.15804,-48.14839 c 9.34361,-6.32227 11.77583,-18.93348 5.45355,-28.2771 l -29.4018,-43.45265 42.85646,-28.99841 c 1.2643,-0.85549 2.28082,-1.93676 3.03138,-3.15276 1.40789,-0.24449 2.78965,-0.78598 4.05399,-1.64148 l 42.85646,-28.99842 29.40179,43.45267 c 6.32228,9.34363 18.93349,11.77585 28.27711,5.45357 l 71.15804,-48.14841 c 9.34364,-6.32226 11.77764,-18.93468 5.45539,-28.27831 L 374.83288,90.545639 402.61075,71.750014 c 4.76431,-3.22372 6.00593,-9.653476 2.78224,-14.417759 L 393.2026,39.316222 c -3.22373,-4.764304 -9.65529,-6.004708 -14.41957,-2.780987 L 203.25818,155.30242 c -1.26433,0.85548 -2.28099,1.93659 -3.03141,3.15277 -1.40802,0.2443 -2.78965,0.78599 -4.05397,1.64147 z"
     sodipodi:nodetypes="sssscsssscsssss" /><path
     id="path2"
     style="fill:none;stroke-width:48.0682;stroke-linecap:round;stroke-linejoin:round;stroke-miterlimit:10;paint-order:stroke markers fill"
     d="m 20.647953,278.86384 c -4.764301,3.22372 -6.004711,9.65528 -2.780987,14.41958 l 12.190366,18.01603 c 3.223713,4.76429 9.654056,6.00289 14.418342,2.7792 l 27.777878,-18.79561 29.401818,43.45263 c 6.32226,9.34363 18.93529,11.77461 28.27891,5.45235 l 71.15804,-48.14839 c 9.34361,-6.32227 11.77583,-18.93348 5.45355,-28.2771 l -29.4018,-43.45265 42.85646,-28.99841 c 1.2643,-0.85549 2.28082,-1.93676 3.03138,-3.15276 1.40789,-0.24449 2.78965,-0.78598 4.05399,-1.64148 l 42.85646,-28.99842 29.40179,43.45267 c 6.32228,9.34363 18.93349,11.77585 28.27711,5.45357 l 71.15804,-48.14841 c 9.34364,-6.32226 11.77764,-18.93468 5.45539,-28.27831 L 374.83288,90.545639 402.61075,71.750014 c 4.76431,-3.22372 6.00593,-9.653476 2.78224,-14.417759 L 393.2026,39.316222 c -3.22373,-4.764304 -9.65529,-6.004708 -14.41957,-2.780987 L 203.25818,155.30242 c -1.26433,0.85548 -2.28099,1.93659 -3.03141,3.15277 -1.40802,0.2443 -2.78965,0.78599 -4.05397,1.64147 z"
     sodipodi:nodetypes="sssscsssscsssss" /></svg>
