<?xml version="1.0" encoding="UTF-8" standalone="no"?>
<!-- Uploaded to: SVG Repo, www.svgrepo.com, Generator: SVG Repo Mixer Tools -->

<svg
   fill="#000000"
   version="1.1"
   id="Capa_1"
   width="500"
   height="500"
   viewBox="0 0 51.64125 51.641875"
   xml:space="preserve"
   sodipodi:docname="3d.svg"
   inkscape:version="1.3.2 (091e20ef0f, 2023-11-25, custom)"
   xmlns:inkscape="http://www.inkscape.org/namespaces/inkscape"
   xmlns:sodipodi="http://sodipodi.sourceforge.net/DTD/sodipodi-0.dtd"
   xmlns="http://www.w3.org/2000/svg"
   xmlns:svg="http://www.w3.org/2000/svg"><defs
   id="defs1" /><sodipodi:namedview
   id="namedview1"
   pagecolor="#505050"
   bordercolor="#eeeeee"
   borderopacity="1"
   inkscape:showpageshadow="0"
   inkscape:pageopacity="0"
   inkscape:pagecheckerboard="0"
   inkscape:deskcolor="#505050"
   inkscape:zoom="0.834386"
   inkscape:cx="144.41757"
   inkscape:cy="278.64801"
   inkscape:window-width="1362"
   inkscape:window-height="744"
   inkscape:window-x="0"
   inkscape:window-y="20"
   inkscape:window-maximized="1"
   inkscape:current-layer="Capa_1"
   showgrid="false" />
<path
   id="path2"
   style="color:#000000;fill:#ffb839;fill-opacity:1;stroke-linecap:round;stroke-linejoin:round;-inkscape-stroke:none;paint-order:markers fill stroke"
   d="M 4.2432841,7.8221483 C 3.9708528,7.8226254 3.7504353,8.0439461 3.7510724,8.3163771 V 38.585778 c -4.075e-4,0.185113 0.1028904,0.354861 0.2674888,0.439562 L 27.549908,51.058502 c 0.242636,0.124195 0.540008,0.02796 0.663881,-0.214839 0.122967,-0.242192 0.02691,-0.538221 -0.214838,-0.662065 L 5.3368411,38.591628 23.929119,27.942221 c 0.236546,-0.135731 0.317983,-0.437705 0.181756,-0.673967 -0.06594,-0.113092 -0.17415,-0.195318 -0.300774,-0.228555 -0.125985,-0.03365 -0.260171,-0.01602 -0.373193,0.04902 L 4.7373112,37.797029 V 8.3163771 C 4.73795,8.0432367 4.5164247,7.821621 4.2432841,7.8221483 Z"
   sodipodi:nodetypes="ccccccccccccccc" /><g
   id="g1"
   transform="matrix(0.49490021,0,0,0.4941683,6.3696176,2.6031808)"
   style="display:inline;fill:#ffb839;fill-opacity:1;stroke:none;stroke-opacity:1">
	<path
   d="m 5.206,19.956 0.199,42.771 c 0.003,0.55 0.306,1.054 0.789,1.314 l 34.161,17.887 c 0.223,0.119 0.467,0.179 0.711,0.179 10e-4,0 0.002,0 0.003,0 0.103,0.117 0.218,0.227 0.355,0.309 0.236,0.141 0.502,0.212 0.769,0.212 0.246,0 0.49,-0.061 0.712,-0.181 L 76.634,64.155 c 0.484,-0.263 0.787,-0.77 0.787,-1.319 v -44.5 c 0,-0.013 -0.005,-0.025 -0.005,-0.039 -10e-4,-0.011 0.003,-0.021 0.003,-0.033 C 77.417,18.221 77.4,18.182 77.397,18.14 77.384,18.058 77.375,17.976 77.35,17.897 77.332,17.842 77.309,17.793 77.286,17.74 77.255,17.67 77.224,17.601 77.182,17.537 77.151,17.487 77.114,17.442 77.077,17.396 77.03,17.338 76.981,17.284 76.925,17.233 76.881,17.193 76.834,17.157 76.784,17.122 76.752,17.1 76.725,17.069 76.69,17.049 76.658,17.029 76.621,17.021 76.586,17.004 76.557,16.989 76.534,16.968 76.505,16.955 L 41.747,0.118 C 41.342,-0.053 40.883,-0.037 40.489,0.16 L 6.131,18.071 c -0.504,0.254 -0.822,0.77 -0.825,1.333 0,0.009 0.004,0.017 0.004,0.025 -0.061,0.167 -0.105,0.343 -0.104,0.527 z M 72.456,18.501 42.176,35.431 10.111,19.425 41.218,3.151 Z M 43.692,78.61 V 38.021 L 74.421,20.848 v 41.09 z"
   id="path1"
   style="fill:#ffb839;fill-opacity:1;stroke:none;stroke-opacity:1" />
</g>
<path
   style="fill:none;fill-opacity:1;stroke:#ffb839;stroke-width:0.986153;stroke-linecap:round;stroke-linejoin:round;stroke-opacity:1;paint-order:markers fill stroke"
   d="M 2.6735477,12.009616 4.1998036,8.0799636 5.7384165,11.985282"
   id="path4"
   sodipodi:nodetypes="ccc" /><path
   style="fill:none;fill-opacity:1;stroke:#ffb839;stroke-width:0.986153;stroke-linecap:round;stroke-linejoin:round;stroke-opacity:1;paint-order:markers fill stroke"
   d="m 25.132859,47.282655 2.64005,3.286603 -4.151411,-0.620181"
   id="path4-5"
   sodipodi:nodetypes="ccc" /></svg>
