<?xml version="1.0" encoding="UTF-8" standalone="no"?>
<!-- Created with Inkscape (http://www.inkscape.org/) -->

<svg
   width="500"
   height="500"
   viewBox="0 0 500 500"
   version="1.1"
   id="svg1"
   inkscape:version="1.3.2 (091e20ef0f, 2023-11-25, custom)"
   sodipodi:docname="404.tsx.svg"
   xml:space="preserve"
   xmlns:inkscape="http://www.inkscape.org/namespaces/inkscape"
   xmlns:sodipodi="http://sodipodi.sourceforge.net/DTD/sodipodi-0.dtd"
   xmlns:xlink="http://www.w3.org/1999/xlink"
   xmlns="http://www.w3.org/2000/svg"
   xmlns:svg="http://www.w3.org/2000/svg"><sodipodi:namedview
     id="namedview1"
     pagecolor="#505050"
     bordercolor="#eeeeee"
     borderopacity="1"
     inkscape:showpageshadow="0"
     inkscape:pageopacity="0"
     inkscape:pagecheckerboard="0"
     inkscape:deskcolor="#505050"
     inkscape:document-units="px"
     inkscape:zoom="0.96390292"
     inkscape:cx="273.36778"
     inkscape:cy="261.95584"
     inkscape:window-width="1352"
     inkscape:window-height="734"
     inkscape:window-x="4"
     inkscape:window-y="24"
     inkscape:window-maximized="1"
     inkscape:current-layer="layer1"
     showguides="true"><sodipodi:guide
       position="250.02518,350.60736"
       orientation="-0.99997769,0.0066803918"
       id="guide30"
       inkscape:locked="false" /><sodipodi:guide
       position="66.396728,247.89992"
       orientation="0,-1"
       id="guide53"
       inkscape:locked="false" /></sodipodi:namedview><defs
     id="defs1"><linearGradient
       id="linearGradient4"
       inkscape:collect="always"><stop
         style="stop-color:#73baff;stop-opacity:1;"
         offset="0"
         id="stop5" /><stop
         style="stop-color:#ff327d;stop-opacity:1;"
         offset="0.99839771"
         id="stop4" /></linearGradient><linearGradient
       id="swatch61"
       inkscape:swatch="solid"><stop
         style="stop-color:#5090d0;stop-opacity:1;"
         offset="0"
         id="stop61" /></linearGradient><linearGradient
       id="swatch30"
       inkscape:swatch="solid"><stop
         style="stop-color:#f9f9f9;stop-opacity:1;"
         offset="0"
         id="stop30" /></linearGradient><inkscape:perspective
       sodipodi:type="inkscape:persp3d"
       inkscape:vp_x="44.06818 : 315.96746 : 1"
       inkscape:vp_y="0 : 1000 : 0"
       inkscape:vp_z="480.74134 : 298.68846 : 1"
       inkscape:persp3d-origin="250 : 166.66667 : 1"
       id="perspective17" /><inkscape:perspective
       sodipodi:type="inkscape:persp3d"
       inkscape:vp_x="44.06818 : 315.96746 : 1"
       inkscape:vp_y="0 : 1000 : 0"
       inkscape:vp_z="480.74134 : 298.68846 : 1"
       inkscape:persp3d-origin="250 : 166.66667 : 1"
       id="perspective17-2" /><radialGradient
       inkscape:collect="always"
       xlink:href="#linearGradient4"
       id="radialGradient5"
       cx="314.67819"
       cy="497.52975"
       fx="314.67819"
       fy="497.52975"
       r="158.24245"
       gradientTransform="matrix(2.466315,-2.0290905,1.5892894,1.9317461,-1269.6973,113.4665)"
       gradientUnits="userSpaceOnUse" /><inkscape:perspective
       sodipodi:type="inkscape:persp3d"
       inkscape:vp_x="44.06818 : 315.96746 : 1"
       inkscape:vp_y="0 : 1000 : 0"
       inkscape:vp_z="480.74134 : 298.68846 : 1"
       inkscape:persp3d-origin="250 : 166.66667 : 1"
       id="perspective17-26" /></defs><g
     inkscape:label="Layer 1"
     inkscape:groupmode="layer"
     id="layer1"><path
       id="path3"
       style="color:#000000;fill:#3178c6;stroke-linejoin:round;-inkscape-stroke:none;paint-order:markers fill stroke;fill-opacity:1"
       d="M 324.43931 119.63111 C 319.75066 119.9154 314.88486 121.32518 310.09308 123.46965 C 300.5095 127.75858 290.39531 135.16013 279.75979 145.07185 C 273.31775 151.07549 266.69081 158.11463 260.01519 165.86922 C 253.33916 158.1141 246.71301 151.0746 240.27058 145.0706 C 229.63508 135.15888 219.52089 127.75858 209.9373 123.46965 C 200.35373 119.1807 190.4708 117.83268 182.30632 122.54646 C 174.14181 127.26022 170.37061 136.49159 169.29317 146.93568 C 168.25695 156.97993 169.51564 168.92901 172.51499 182.42688 L 184.30843 182.42688 A 11.164144 11.164144 0 0 1 187.32096 182.88287 C 187.15255 182.1905 186.95352 181.46863 186.79644 180.78731 C 183.75952 167.61458 182.72292 156.38251 183.54596 148.40456 C 184.36901 140.42662 186.78485 136.50518 189.47133 134.95411 C 190.47877 134.37246 191.75582 133.99019 193.34475 133.91256 C 195.99301 133.78317 199.50754 134.49998 204.08294 136.54758 C 211.40356 139.8238 220.61224 146.33821 230.50169 155.55463 C 237.00137 161.61199 243.82442 168.92123 250.75461 177.11198 C 249.503 178.69644 248.25767 180.43212 247.00702 182.06433 C 251.42912 181.11663 256.06363 180.65525 260.8574 180.65525 C 264.94821 180.65525 268.91649 181.00618 272.74303 181.69181 C 271.58616 180.18546 270.4334 178.57747 269.27577 177.11198 C 276.2061 168.92099 283.02898 161.61076 289.52869 155.55338 C 299.41814 146.33695 308.62431 139.82379 315.94495 136.54758 C 320.52033 134.49998 324.03487 133.78442 326.68313 133.91381 C 328.27208 133.99144 329.54911 134.37246 330.55655 134.95411 C 333.24305 136.50516 335.66012 140.42786 336.48317 148.40581 C 337.30621 156.38375 336.27089 167.61458 333.23393 180.78731 C 331.23802 189.44462 328.31925 199.00777 324.69098 209.10477 C 323.82008 208.97762 322.88356 208.89092 322.00487 208.76838 L 329.32812 236.10036 C 330.91271 232.42516 332.52121 228.73647 333.95031 225.14415 C 335.12785 225.35671 336.17749 225.61938 337.3341 225.84059 L 345.93811 212.96698 C 343.63808 212.48112 341.43373 211.95315 339.05715 211.50308 C 342.43492 201.84467 345.21818 192.58607 347.19644 184.0054 C 350.4625 169.83891 351.81468 157.37853 350.73721 146.93443 C 349.65975 136.49034 345.88606 127.25774 337.72157 122.54396 C 333.63932 120.18709 329.12798 119.34682 324.43931 119.63111 z M 192.69441 201.14488 L 175.37054 227.34187 C 178.86806 226.58197 182.35511 225.81636 186.07882 225.14415 C 187.67191 229.14865 189.44467 233.25059 191.23175 237.35744 L 191.39621 237.35744 A 11.164144 11.164144 0 0 1 202.55924 248.52047 L 202.55924 286.82236 C 204.45143 282.36477 206.436 277.85498 208.58428 273.25854 L 208.58428 241.01907 C 205.69339 234.83367 203.01878 228.76018 200.59948 222.8343 C 203.42021 222.44842 206.31067 222.10358 209.22715 221.77406 C 210.00017 216.50643 211.50084 211.48788 213.79702 206.86095 C 207.47594 207.49712 201.2989 208.2347 195.3394 209.10477 C 194.357 206.37087 193.56855 203.79316 192.69441 201.14488 z M 283.32797 208.24885 C 283.35153 208.27161 283.37053 208.29828 283.39401 208.32111 C 283.41416 208.34114 283.43745 208.35709 283.45755 208.37718 L 283.32797 208.24885 z M 393.0994 228.85934 L 395.37686 237.35744 L 404.03195 237.35744 A 11.164144 11.164144 0 0 1 405.66653 237.68262 C 404.15901 236.28062 402.5537 234.93113 400.81385 233.67215 C 398.47744 231.98148 395.87149 230.39064 393.0994 228.85934 z M 415.19497 254.2328 L 415.19497 259.85668 C 415.31244 258.96102 415.4292 258.06487 415.4292 257.13818 C 415.4292 256.14929 415.32512 255.1875 415.19497 254.2328 z M 122.99775 281.72051 L 122.99775 283.13333 C 123.57885 283.49813 124.20346 283.84682 124.80676 284.20354 A 11.164144 11.164144 0 0 1 122.99775 281.72051 z M 387.06813 287.44405 A 11.164144 11.164144 0 0 1 386.99338 287.50386 A 11.164144 11.164144 0 0 1 387.10924 287.59605 L 387.06813 287.44405 z M 313.30743 292.14224 C 313.1406 292.16247 312.96498 292.17825 312.79787 292.19831 C 312.25478 297.41795 310.99362 302.42104 308.98176 307.07279 C 311.98083 306.74146 314.95111 306.39147 317.8748 306.01006 A 11.164144 11.164144 0 0 1 313.30743 297.25033 L 313.30743 292.14224 z M 180.23194 297.89693 L 180.23194 302.6163 C 180.23243 302.6164 180.23268 302.61745 180.23318 302.61755 L 180.23318 297.89943 L 180.23194 297.89693 z M 180.23318 305.05448 C 180.23275 305.05575 180.23237 305.05695 180.23194 305.05822 L 180.23194 311.7797 L 180.23318 311.7797 L 180.23318 305.05448 z M 344.45801 319.78693 L 334.0886 337.74745 C 336.38828 349.04239 337.21395 358.78813 336.48317 365.8718 C 335.66012 373.84975 333.24306 377.77119 330.55655 379.32225 C 327.87004 380.8733 323.26806 381.00496 315.94744 377.72878 C 308.6268 374.45257 299.41813 367.93941 289.52869 358.72297 C 283.02918 352.6658 276.20589 345.35634 269.27577 337.16562 C 269.78173 336.5251 270.28486 335.81181 270.79075 335.1635 C 267.57001 335.63393 264.25622 335.87864 260.8574 335.87864 C 256.77635 335.87864 252.8173 335.52836 248.99917 334.84581 C 249.58533 335.59847 250.16833 336.42343 250.75461 337.16562 C 243.82416 345.3568 237.00148 352.66677 230.50169 358.72422 C 220.61225 367.94066 211.40356 374.45382 204.08294 377.73002 C 196.76231 381.00623 192.15784 380.8733 189.47133 379.32225 C 186.78484 377.77119 184.36776 373.84975 183.54471 365.8718 C 182.73499 358.02287 183.74887 347.00328 186.6731 334.10576 L 172.059 334.10576 C 169.42393 346.66349 168.31596 357.86964 169.29317 367.34193 C 170.37062 377.78602 174.14307 387.01737 182.30756 391.73115 C 190.47205 396.44491 200.35373 395.09688 209.9373 390.80796 C 219.52089 386.51901 229.63507 379.11873 240.27058 369.207 C 246.71301 363.20302 253.33916 356.16351 260.01519 348.40839 C 266.69081 356.16297 273.31775 363.20212 279.75979 369.20575 C 290.39531 379.11749 300.5095 386.51901 310.09308 390.80796 C 319.67666 395.09689 329.55708 396.44617 337.72157 391.73239 C 345.88605 387.01864 349.65975 377.78602 350.73721 367.34193 C 351.81468 356.89783 350.4625 344.43744 347.19644 330.27096 C 346.41579 326.88487 345.47648 323.36694 344.45801 319.78693 z "
       transform="matrix(1.5676751,0,0,1.5676751,-156.45918,-150.05834)" /><path
       style="-inkscape-font-specification:'JetBrains Mono Bold';fill:url(#radialGradient5);stroke-width:22.7872;stroke-linecap:round;stroke-linejoin:round;stroke-miterlimit:10;paint-order:stroke markers fill"
       d="M 108.58687,356.2116 V 315.93267 H 18.86208 V 265.65344 L 93.864226,153.42802 H 132.47646 L 52.196376,274.82038 v 10.55585 H 108.58687 V 239.5416 h 35.001 v 116.67 z m 143.89316,2.77786 q -19.72279,0 -34.16766,-7.50022 -14.44487,-7.50019 -22.50065,-21.11172 -7.778,-13.61152 -7.778,-31.94536 v -87.22473 q 0,-18.33386 7.778,-31.94536 8.05578,-13.61149 22.50065,-21.11171 14.44487,-7.50022 34.16766,-7.50022 19.72277,0 34.16763,7.50022 14.44486,7.50022 22.22286,21.11171 8.05579,13.6115 8.05579,31.94536 v 87.22473 q 0,18.33384 -8.05579,31.94536 -7.778,13.61153 -22.22286,21.11172 -14.44486,7.50022 -34.16763,7.50022 z m 0,-30.00087 q 14.44484,0 23.0562,-8.33357 8.61137,-8.33356 8.61137,-22.22286 v -87.22473 q 0,-13.88927 -8.61137,-22.22285 -8.33358,-8.33357 -23.0562,-8.33357 -14.72266,0 -23.33402,8.33357 -8.33358,8.33358 -8.33358,22.22285 v 87.22473 q 0,13.8893 8.61137,22.22286 8.61136,8.33357 23.05623,8.33357 z m 0,-57.50165 q -8.33358,0 -13.33375,-4.44455 -5.00013,-4.72238 -5.00013,-13.05595 0,-8.33357 5.00013,-12.50036 5.00017,-4.44457 13.33375,-4.44457 8.33357,0 13.33372,4.44457 5.00013,4.16679 5.00013,12.50036 0,8.33357 -5.00013,13.05595 -5.00015,4.44455 -13.33372,4.44455 z m 189.44999,84.72466 v -40.27893 h -89.72481 v -50.27923 l 75.00216,-112.22542 h 38.61221 l -80.28007,121.39236 v 10.55585 h 56.39051 V 239.5416 h 35.001 v 116.67 z"
       id="text4"
       aria-label="404" /></g></svg>
