<?xml version="1.0" encoding="UTF-8" standalone="no"?>
<!-- Created with Inkscape (http://www.inkscape.org/) -->

<svg
   width="500"
   height="500"
   viewBox="0 0 500 500"
   version="1.1"
   id="svg1"
   inkscape:version="1.3.2 (091e20ef0f, 2023-11-25, custom)"
   sodipodi:docname="app.module.ts.svg"
   xml:space="preserve"
   xmlns:inkscape="http://www.inkscape.org/namespaces/inkscape"
   xmlns:sodipodi="http://sodipodi.sourceforge.net/DTD/sodipodi-0.dtd"
   xmlns:xlink="http://www.w3.org/1999/xlink"
   xmlns="http://www.w3.org/2000/svg"
   xmlns:svg="http://www.w3.org/2000/svg"><sodipodi:namedview
     id="namedview1"
     pagecolor="#505050"
     bordercolor="#eeeeee"
     borderopacity="1"
     inkscape:showpageshadow="0"
     inkscape:pageopacity="0"
     inkscape:pagecheckerboard="0"
     inkscape:deskcolor="#505050"
     inkscape:document-units="px"
     inkscape:zoom="0.96390292"
     inkscape:cx="279.59247"
     inkscape:cy="234.98217"
     inkscape:window-width="1352"
     inkscape:window-height="734"
     inkscape:window-x="4"
     inkscape:window-y="24"
     inkscape:window-maximized="1"
     inkscape:current-layer="svg1"
     showguides="true"><sodipodi:guide
       position="250.02518,350.60736"
       orientation="-0.99997769,0.0066803918"
       id="guide30"
       inkscape:locked="false" /><sodipodi:guide
       position="66.396728,247.89992"
       orientation="0,-1"
       id="guide53"
       inkscape:locked="false" /></sodipodi:namedview><defs
     id="defs1"><inkscape:path-effect
       effect="offset"
       id="path-effect3"
       is_visible="true"
       lpeversion="1.2"
       linejoin_type="miter"
       unit="mm"
       offset="1.7"
       miter_limit="4"
       attempt_force_join="false"
       update_on_knot_move="true" /><linearGradient
       id="linearGradient10"
       inkscape:collect="always"><stop
         style="stop-color:#ff5c40;stop-opacity:1;"
         offset="0"
         id="stop10" /><stop
         style="stop-color:#ff40ce;stop-opacity:1;"
         offset="1"
         id="stop11" /></linearGradient><linearGradient
       id="linearGradient5"
       inkscape:collect="always"><stop
         style="stop-color:#b97aff;stop-opacity:1;"
         offset="0.25887725"
         id="stop5" /><stop
         style="stop-color:#71e88f;stop-opacity:1;"
         offset="1"
         id="stop6" /></linearGradient><inkscape:path-effect
       effect="mirror_symmetry"
       start_point="252.07845,72.657992"
       end_point="252.07845,506.25796"
       center_point="252.07845,289.45798"
       id="path-effect2"
       is_visible="true"
       lpeversion="1.2"
       lpesatellites=""
       mode="free"
       discard_orig_path="false"
       fuse_paths="false"
       oposite_fuse="false"
       split_items="false"
       split_open="false"
       link_styles="false" /><inkscape:path-effect
       effect="mirror_symmetry"
       start_point="252.21753,78.082528"
       end_point="252.21753,440.2775"
       center_point="252.21753,259.18001"
       id="path-effect1"
       is_visible="true"
       lpeversion="1.2"
       lpesatellites=""
       mode="free"
       discard_orig_path="false"
       fuse_paths="false"
       oposite_fuse="false"
       split_items="false"
       split_open="false"
       link_styles="false" /><linearGradient
       id="swatch61"
       inkscape:swatch="solid"><stop
         style="stop-color:#5090d0;stop-opacity:1;"
         offset="0"
         id="stop61" /></linearGradient><linearGradient
       id="swatch30"
       inkscape:swatch="solid"><stop
         style="stop-color:#f9f9f9;stop-opacity:1;"
         offset="0"
         id="stop30" /></linearGradient><inkscape:perspective
       sodipodi:type="inkscape:persp3d"
       inkscape:vp_x="111.89907 : 349.33635 : 1"
       inkscape:vp_y="0 : 1000 : 0"
       inkscape:vp_z="435.93424 : 357.38111 : 1"
       inkscape:persp3d-origin="250 : 166.66667 : 1"
       id="perspective17" /><inkscape:perspective
       sodipodi:type="inkscape:persp3d"
       inkscape:vp_x="44.06818 : 315.96746 : 1"
       inkscape:vp_y="0 : 1000 : 0"
       inkscape:vp_z="480.74134 : 298.68846 : 1"
       inkscape:persp3d-origin="250 : 166.66667 : 1"
       id="perspective17-69" /><inkscape:perspective
       sodipodi:type="inkscape:persp3d"
       inkscape:vp_x="44.06818 : 315.96746 : 1"
       inkscape:vp_y="0 : 1000 : 0"
       inkscape:vp_z="480.74134 : 298.68846 : 1"
       inkscape:persp3d-origin="250 : 166.66667 : 1"
       id="perspective17-4" /><inkscape:perspective
       sodipodi:type="inkscape:persp3d"
       inkscape:vp_x="44.06818 : 315.96746 : 1"
       inkscape:vp_y="0 : 1000 : 0"
       inkscape:vp_z="480.74134 : 298.68846 : 1"
       inkscape:persp3d-origin="250 : 166.66667 : 1"
       id="perspective17-6" /><inkscape:perspective
       sodipodi:type="inkscape:persp3d"
       inkscape:vp_x="44.06818 : 315.96746 : 1"
       inkscape:vp_y="0 : 1000 : 0"
       inkscape:vp_z="480.74134 : 298.68846 : 1"
       inkscape:persp3d-origin="250 : 166.66667 : 1"
       id="perspective17-3" /><inkscape:perspective
       sodipodi:type="inkscape:persp3d"
       inkscape:vp_x="44.06818 : 315.96746 : 1"
       inkscape:vp_y="0 : 1000 : 0"
       inkscape:vp_z="480.74134 : 298.68846 : 1"
       inkscape:persp3d-origin="250 : 166.66667 : 1"
       id="perspective17-5" /><inkscape:perspective
       sodipodi:type="inkscape:persp3d"
       inkscape:vp_x="44.06818 : 315.96746 : 1"
       inkscape:vp_y="0 : 1000 : 0"
       inkscape:vp_z="480.74134 : 298.68846 : 1"
       inkscape:persp3d-origin="250 : 166.66667 : 1"
       id="perspective17-2" /><inkscape:perspective
       sodipodi:type="inkscape:persp3d"
       inkscape:vp_x="44.06818 : 315.96746 : 1"
       inkscape:vp_y="0 : 1000 : 0"
       inkscape:vp_z="480.74134 : 298.68846 : 1"
       inkscape:persp3d-origin="250 : 166.66667 : 1"
       id="perspective17-43" /><inkscape:perspective
       sodipodi:type="inkscape:persp3d"
       inkscape:vp_x="44.06818 : 315.96746 : 1"
       inkscape:vp_y="0 : 1000 : 0"
       inkscape:vp_z="480.74134 : 298.68846 : 1"
       inkscape:persp3d-origin="250 : 166.66667 : 1"
       id="perspective17-7" /><inkscape:perspective
       sodipodi:type="inkscape:persp3d"
       inkscape:vp_x="44.06818 : 315.96746 : 1"
       inkscape:vp_y="0 : 1000 : 0"
       inkscape:vp_z="480.74134 : 298.68846 : 1"
       inkscape:persp3d-origin="250 : 166.66667 : 1"
       id="perspective17-4-0" /><inkscape:perspective
       sodipodi:type="inkscape:persp3d"
       inkscape:vp_x="44.06818 : 315.96746 : 1"
       inkscape:vp_y="0 : 1000 : 0"
       inkscape:vp_z="480.74134 : 298.68846 : 1"
       inkscape:persp3d-origin="250 : 166.66667 : 1"
       id="perspective17-26" /><inkscape:perspective
       sodipodi:type="inkscape:persp3d"
       inkscape:vp_x="44.06818 : 315.96746 : 1"
       inkscape:vp_y="0 : 1000 : 0"
       inkscape:vp_z="480.74134 : 298.68846 : 1"
       inkscape:persp3d-origin="250 : 166.66667 : 1"
       id="perspective17-59" /><inkscape:perspective
       sodipodi:type="inkscape:persp3d"
       inkscape:vp_x="44.06818 : 315.96746 : 1"
       inkscape:vp_y="0 : 1000 : 0"
       inkscape:vp_z="480.74134 : 298.68846 : 1"
       inkscape:persp3d-origin="250 : 166.66667 : 1"
       id="perspective17-5-7" /><inkscape:perspective
       sodipodi:type="inkscape:persp3d"
       inkscape:vp_x="44.06818 : 315.96746 : 1"
       inkscape:vp_y="0 : 1000 : 0"
       inkscape:vp_z="480.74134 : 298.68846 : 1"
       inkscape:persp3d-origin="250 : 166.66667 : 1"
       id="perspective17-2-8" /><inkscape:perspective
       sodipodi:type="inkscape:persp3d"
       inkscape:vp_x="44.06818 : 315.96746 : 1"
       inkscape:vp_y="0 : 1000 : 0"
       inkscape:vp_z="480.74134 : 298.68846 : 1"
       inkscape:persp3d-origin="250 : 166.66667 : 1"
       id="perspective17-50" /><inkscape:perspective
       sodipodi:type="inkscape:persp3d"
       inkscape:vp_x="44.06818 : 315.96746 : 1"
       inkscape:vp_y="0 : 1000 : 0"
       inkscape:vp_z="480.74134 : 298.68846 : 1"
       inkscape:persp3d-origin="250 : 166.66667 : 1"
       id="perspective17-7-4" /><inkscape:perspective
       sodipodi:type="inkscape:persp3d"
       inkscape:vp_x="44.06818 : 315.96746 : 1"
       inkscape:vp_y="0 : 1000 : 0"
       inkscape:vp_z="480.74134 : 298.68846 : 1"
       inkscape:persp3d-origin="250 : 166.66667 : 1"
       id="perspective17-29" /><inkscape:perspective
       sodipodi:type="inkscape:persp3d"
       inkscape:vp_x="44.06818 : 315.96746 : 1"
       inkscape:vp_y="0 : 1000 : 0"
       inkscape:vp_z="480.74134 : 298.68846 : 1"
       inkscape:persp3d-origin="250 : 166.66667 : 1"
       id="perspective17-59-8" /><inkscape:perspective
       sodipodi:type="inkscape:persp3d"
       inkscape:vp_x="44.06818 : 315.96746 : 1"
       inkscape:vp_y="0 : 1000 : 0"
       inkscape:vp_z="480.74134 : 298.68846 : 1"
       inkscape:persp3d-origin="250 : 166.66667 : 1"
       id="perspective17-5-71" /><inkscape:perspective
       sodipodi:type="inkscape:persp3d"
       inkscape:vp_x="44.06818 : 315.96746 : 1"
       inkscape:vp_y="0 : 1000 : 0"
       inkscape:vp_z="480.74134 : 298.68846 : 1"
       inkscape:persp3d-origin="250 : 166.66667 : 1"
       id="perspective17-2-7" /><inkscape:perspective
       sodipodi:type="inkscape:persp3d"
       inkscape:vp_x="44.06818 : 315.96746 : 1"
       inkscape:vp_y="0 : 1000 : 0"
       inkscape:vp_z="480.74134 : 298.68846 : 1"
       inkscape:persp3d-origin="250 : 166.66667 : 1"
       id="perspective17-291" /><inkscape:perspective
       sodipodi:type="inkscape:persp3d"
       inkscape:vp_x="44.06818 : 315.96746 : 1"
       inkscape:vp_y="0 : 1000 : 0"
       inkscape:vp_z="480.74134 : 298.68846 : 1"
       inkscape:persp3d-origin="250 : 166.66667 : 1"
       id="perspective17-7-2" /><inkscape:perspective
       sodipodi:type="inkscape:persp3d"
       inkscape:vp_x="44.06818 : 315.96746 : 1"
       inkscape:vp_y="0 : 1000 : 0"
       inkscape:vp_z="480.74134 : 298.68846 : 1"
       inkscape:persp3d-origin="250 : 166.66667 : 1"
       id="perspective17-4-7" /><inkscape:perspective
       sodipodi:type="inkscape:persp3d"
       inkscape:vp_x="44.06818 : 315.96746 : 1"
       inkscape:vp_y="0 : 1000 : 0"
       inkscape:vp_z="480.74134 : 298.68846 : 1"
       inkscape:persp3d-origin="250 : 166.66667 : 1"
       id="perspective17-26-3" /><inkscape:perspective
       sodipodi:type="inkscape:persp3d"
       inkscape:vp_x="44.06818 : 315.96746 : 1"
       inkscape:vp_y="0 : 1000 : 0"
       inkscape:vp_z="480.74134 : 298.68846 : 1"
       inkscape:persp3d-origin="250 : 166.66667 : 1"
       id="perspective17-59-6" /><inkscape:perspective
       sodipodi:type="inkscape:persp3d"
       inkscape:vp_x="44.06818 : 315.96746 : 1"
       inkscape:vp_y="0 : 1000 : 0"
       inkscape:vp_z="480.74134 : 298.68846 : 1"
       inkscape:persp3d-origin="250 : 166.66667 : 1"
       id="perspective17-5-0" /><inkscape:perspective
       sodipodi:type="inkscape:persp3d"
       inkscape:vp_x="44.06818 : 315.96746 : 1"
       inkscape:vp_y="0 : 1000 : 0"
       inkscape:vp_z="480.74134 : 298.68846 : 1"
       inkscape:persp3d-origin="250 : 166.66667 : 1"
       id="perspective17-2-6" /><inkscape:perspective
       sodipodi:type="inkscape:persp3d"
       inkscape:vp_x="44.06818 : 315.96746 : 1"
       inkscape:vp_y="0 : 1000 : 0"
       inkscape:vp_z="480.74134 : 298.68846 : 1"
       inkscape:persp3d-origin="250 : 166.66667 : 1"
       id="perspective17-0" /><inkscape:perspective
       sodipodi:type="inkscape:persp3d"
       inkscape:vp_x="44.06818 : 315.96746 : 1"
       inkscape:vp_y="0 : 1000 : 0"
       inkscape:vp_z="480.74134 : 298.68846 : 1"
       inkscape:persp3d-origin="250 : 166.66667 : 1"
       id="perspective17-7-23" /><inkscape:perspective
       sodipodi:type="inkscape:persp3d"
       inkscape:vp_x="44.06818 : 315.96746 : 1"
       inkscape:vp_y="0 : 1000 : 0"
       inkscape:vp_z="480.74134 : 298.68846 : 1"
       inkscape:persp3d-origin="250 : 166.66667 : 1"
       id="perspective17-29-9" /><inkscape:perspective
       sodipodi:type="inkscape:persp3d"
       inkscape:vp_x="44.06818 : 315.96746 : 1"
       inkscape:vp_y="0 : 1000 : 0"
       inkscape:vp_z="480.74134 : 298.68846 : 1"
       inkscape:persp3d-origin="250 : 166.66667 : 1"
       id="perspective17-59-2" /><inkscape:perspective
       sodipodi:type="inkscape:persp3d"
       inkscape:vp_x="44.06818 : 315.96746 : 1"
       inkscape:vp_y="0 : 1000 : 0"
       inkscape:vp_z="480.74134 : 298.68846 : 1"
       inkscape:persp3d-origin="250 : 166.66667 : 1"
       id="perspective17-5-2" /><inkscape:perspective
       sodipodi:type="inkscape:persp3d"
       inkscape:vp_x="44.06818 : 315.96746 : 1"
       inkscape:vp_y="0 : 1000 : 0"
       inkscape:vp_z="480.74134 : 298.68846 : 1"
       inkscape:persp3d-origin="250 : 166.66667 : 1"
       id="perspective17-2-89" /><inkscape:perspective
       sodipodi:type="inkscape:persp3d"
       inkscape:vp_x="44.06818 : 315.96746 : 1"
       inkscape:vp_y="0 : 1000 : 0"
       inkscape:vp_z="480.74134 : 298.68846 : 1"
       inkscape:persp3d-origin="250 : 166.66667 : 1"
       id="perspective17-1" /><inkscape:perspective
       sodipodi:type="inkscape:persp3d"
       inkscape:vp_x="44.06818 : 315.96746 : 1"
       inkscape:vp_y="0 : 1000 : 0"
       inkscape:vp_z="480.74134 : 298.68846 : 1"
       inkscape:persp3d-origin="250 : 166.66667 : 1"
       id="perspective17-2-9" /><linearGradient
       inkscape:collect="always"
       xlink:href="#linearGradient10"
       id="linearGradient11"
       x1="72.471686"
       y1="250.63808"
       x2="386.15822"
       y2="250.63808"
       gradientUnits="userSpaceOnUse"
       gradientTransform="matrix(0.96033985,0,0,0.96033985,9.0946832,9.9403431)" /><inkscape:path-effect
       effect="mirror_symmetry"
       start_point="252.07845,72.657992"
       end_point="252.07845,506.25796"
       center_point="252.07845,289.45798"
       id="path-effect2-2"
       is_visible="true"
       lpeversion="1.2"
       lpesatellites=""
       mode="free"
       discard_orig_path="false"
       fuse_paths="false"
       oposite_fuse="false"
       split_items="false"
       split_open="false"
       link_styles="false" /><inkscape:path-effect
       effect="mirror_symmetry"
       start_point="252.21753,78.082528"
       end_point="252.21753,440.2775"
       center_point="252.21753,259.18001"
       id="path-effect1-9"
       is_visible="true"
       lpeversion="1.2"
       lpesatellites=""
       mode="free"
       discard_orig_path="false"
       fuse_paths="false"
       oposite_fuse="false"
       split_items="false"
       split_open="false"
       link_styles="false" /><inkscape:perspective
       sodipodi:type="inkscape:persp3d"
       inkscape:vp_x="111.89907 : 349.33635 : 1"
       inkscape:vp_y="0 : 1000 : 0"
       inkscape:vp_z="435.93424 : 357.38111 : 1"
       inkscape:persp3d-origin="250 : 166.66667 : 1"
       id="perspective17-70" /><inkscape:perspective
       sodipodi:type="inkscape:persp3d"
       inkscape:vp_x="44.06818 : 315.96746 : 1"
       inkscape:vp_y="0 : 1000 : 0"
       inkscape:vp_z="480.74134 : 298.68846 : 1"
       inkscape:persp3d-origin="250 : 166.66667 : 1"
       id="perspective17-69-9" /><inkscape:perspective
       sodipodi:type="inkscape:persp3d"
       inkscape:vp_x="44.06818 : 315.96746 : 1"
       inkscape:vp_y="0 : 1000 : 0"
       inkscape:vp_z="480.74134 : 298.68846 : 1"
       inkscape:persp3d-origin="250 : 166.66667 : 1"
       id="perspective17-4-3" /><inkscape:perspective
       sodipodi:type="inkscape:persp3d"
       inkscape:vp_x="44.06818 : 315.96746 : 1"
       inkscape:vp_y="0 : 1000 : 0"
       inkscape:vp_z="480.74134 : 298.68846 : 1"
       inkscape:persp3d-origin="250 : 166.66667 : 1"
       id="perspective17-6-6" /><inkscape:perspective
       sodipodi:type="inkscape:persp3d"
       inkscape:vp_x="44.06818 : 315.96746 : 1"
       inkscape:vp_y="0 : 1000 : 0"
       inkscape:vp_z="480.74134 : 298.68846 : 1"
       inkscape:persp3d-origin="250 : 166.66667 : 1"
       id="perspective17-3-0" /><inkscape:perspective
       sodipodi:type="inkscape:persp3d"
       inkscape:vp_x="44.06818 : 315.96746 : 1"
       inkscape:vp_y="0 : 1000 : 0"
       inkscape:vp_z="480.74134 : 298.68846 : 1"
       inkscape:persp3d-origin="250 : 166.66667 : 1"
       id="perspective17-5-6" /><inkscape:perspective
       sodipodi:type="inkscape:persp3d"
       inkscape:vp_x="44.06818 : 315.96746 : 1"
       inkscape:vp_y="0 : 1000 : 0"
       inkscape:vp_z="480.74134 : 298.68846 : 1"
       inkscape:persp3d-origin="250 : 166.66667 : 1"
       id="perspective17-2-2" /><inkscape:perspective
       sodipodi:type="inkscape:persp3d"
       inkscape:vp_x="44.06818 : 315.96746 : 1"
       inkscape:vp_y="0 : 1000 : 0"
       inkscape:vp_z="480.74134 : 298.68846 : 1"
       inkscape:persp3d-origin="250 : 166.66667 : 1"
       id="perspective17-43-6" /><inkscape:perspective
       sodipodi:type="inkscape:persp3d"
       inkscape:vp_x="44.06818 : 315.96746 : 1"
       inkscape:vp_y="0 : 1000 : 0"
       inkscape:vp_z="480.74134 : 298.68846 : 1"
       inkscape:persp3d-origin="250 : 166.66667 : 1"
       id="perspective17-7-1" /><inkscape:perspective
       sodipodi:type="inkscape:persp3d"
       inkscape:vp_x="44.06818 : 315.96746 : 1"
       inkscape:vp_y="0 : 1000 : 0"
       inkscape:vp_z="480.74134 : 298.68846 : 1"
       inkscape:persp3d-origin="250 : 166.66667 : 1"
       id="perspective17-4-0-8" /><inkscape:perspective
       sodipodi:type="inkscape:persp3d"
       inkscape:vp_x="44.06818 : 315.96746 : 1"
       inkscape:vp_y="0 : 1000 : 0"
       inkscape:vp_z="480.74134 : 298.68846 : 1"
       inkscape:persp3d-origin="250 : 166.66667 : 1"
       id="perspective17-26-7" /><inkscape:perspective
       sodipodi:type="inkscape:persp3d"
       inkscape:vp_x="44.06818 : 315.96746 : 1"
       inkscape:vp_y="0 : 1000 : 0"
       inkscape:vp_z="480.74134 : 298.68846 : 1"
       inkscape:persp3d-origin="250 : 166.66667 : 1"
       id="perspective17-59-9" /><inkscape:perspective
       sodipodi:type="inkscape:persp3d"
       inkscape:vp_x="44.06818 : 315.96746 : 1"
       inkscape:vp_y="0 : 1000 : 0"
       inkscape:vp_z="480.74134 : 298.68846 : 1"
       inkscape:persp3d-origin="250 : 166.66667 : 1"
       id="perspective17-5-7-2" /><inkscape:perspective
       sodipodi:type="inkscape:persp3d"
       inkscape:vp_x="44.06818 : 315.96746 : 1"
       inkscape:vp_y="0 : 1000 : 0"
       inkscape:vp_z="480.74134 : 298.68846 : 1"
       inkscape:persp3d-origin="250 : 166.66667 : 1"
       id="perspective17-2-8-0" /><inkscape:perspective
       sodipodi:type="inkscape:persp3d"
       inkscape:vp_x="44.06818 : 315.96746 : 1"
       inkscape:vp_y="0 : 1000 : 0"
       inkscape:vp_z="480.74134 : 298.68846 : 1"
       inkscape:persp3d-origin="250 : 166.66667 : 1"
       id="perspective17-50-2" /><inkscape:perspective
       sodipodi:type="inkscape:persp3d"
       inkscape:vp_x="44.06818 : 315.96746 : 1"
       inkscape:vp_y="0 : 1000 : 0"
       inkscape:vp_z="480.74134 : 298.68846 : 1"
       inkscape:persp3d-origin="250 : 166.66667 : 1"
       id="perspective17-7-4-3" /><inkscape:perspective
       sodipodi:type="inkscape:persp3d"
       inkscape:vp_x="44.06818 : 315.96746 : 1"
       inkscape:vp_y="0 : 1000 : 0"
       inkscape:vp_z="480.74134 : 298.68846 : 1"
       inkscape:persp3d-origin="250 : 166.66667 : 1"
       id="perspective17-29-7" /><inkscape:perspective
       sodipodi:type="inkscape:persp3d"
       inkscape:vp_x="44.06818 : 315.96746 : 1"
       inkscape:vp_y="0 : 1000 : 0"
       inkscape:vp_z="480.74134 : 298.68846 : 1"
       inkscape:persp3d-origin="250 : 166.66667 : 1"
       id="perspective17-59-8-5" /><inkscape:perspective
       sodipodi:type="inkscape:persp3d"
       inkscape:vp_x="44.06818 : 315.96746 : 1"
       inkscape:vp_y="0 : 1000 : 0"
       inkscape:vp_z="480.74134 : 298.68846 : 1"
       inkscape:persp3d-origin="250 : 166.66667 : 1"
       id="perspective17-5-71-9" /><inkscape:perspective
       sodipodi:type="inkscape:persp3d"
       inkscape:vp_x="44.06818 : 315.96746 : 1"
       inkscape:vp_y="0 : 1000 : 0"
       inkscape:vp_z="480.74134 : 298.68846 : 1"
       inkscape:persp3d-origin="250 : 166.66667 : 1"
       id="perspective17-2-7-2" /><inkscape:perspective
       sodipodi:type="inkscape:persp3d"
       inkscape:vp_x="44.06818 : 315.96746 : 1"
       inkscape:vp_y="0 : 1000 : 0"
       inkscape:vp_z="480.74134 : 298.68846 : 1"
       inkscape:persp3d-origin="250 : 166.66667 : 1"
       id="perspective17-291-2" /><inkscape:perspective
       sodipodi:type="inkscape:persp3d"
       inkscape:vp_x="44.06818 : 315.96746 : 1"
       inkscape:vp_y="0 : 1000 : 0"
       inkscape:vp_z="480.74134 : 298.68846 : 1"
       inkscape:persp3d-origin="250 : 166.66667 : 1"
       id="perspective17-7-2-8" /><inkscape:perspective
       sodipodi:type="inkscape:persp3d"
       inkscape:vp_x="44.06818 : 315.96746 : 1"
       inkscape:vp_y="0 : 1000 : 0"
       inkscape:vp_z="480.74134 : 298.68846 : 1"
       inkscape:persp3d-origin="250 : 166.66667 : 1"
       id="perspective17-4-7-9" /><inkscape:perspective
       sodipodi:type="inkscape:persp3d"
       inkscape:vp_x="44.06818 : 315.96746 : 1"
       inkscape:vp_y="0 : 1000 : 0"
       inkscape:vp_z="480.74134 : 298.68846 : 1"
       inkscape:persp3d-origin="250 : 166.66667 : 1"
       id="perspective17-26-3-7" /><inkscape:perspective
       sodipodi:type="inkscape:persp3d"
       inkscape:vp_x="44.06818 : 315.96746 : 1"
       inkscape:vp_y="0 : 1000 : 0"
       inkscape:vp_z="480.74134 : 298.68846 : 1"
       inkscape:persp3d-origin="250 : 166.66667 : 1"
       id="perspective17-59-6-3" /><inkscape:perspective
       sodipodi:type="inkscape:persp3d"
       inkscape:vp_x="44.06818 : 315.96746 : 1"
       inkscape:vp_y="0 : 1000 : 0"
       inkscape:vp_z="480.74134 : 298.68846 : 1"
       inkscape:persp3d-origin="250 : 166.66667 : 1"
       id="perspective17-5-0-6" /><inkscape:perspective
       sodipodi:type="inkscape:persp3d"
       inkscape:vp_x="44.06818 : 315.96746 : 1"
       inkscape:vp_y="0 : 1000 : 0"
       inkscape:vp_z="480.74134 : 298.68846 : 1"
       inkscape:persp3d-origin="250 : 166.66667 : 1"
       id="perspective17-2-6-1" /><linearGradient
       inkscape:collect="always"
       xlink:href="#linearGradient5"
       id="linearGradient3"
       gradientUnits="userSpaceOnUse"
       gradientTransform="translate(-25.383304,-28.634979)"
       x1="16.344315"
       y1="86.776672"
       x2="552.46075"
       y2="470.89999" /></defs><path
     id="path8"
     style="color:#000000;fill:url(#linearGradient11);stroke:none;stroke-width:9.6034;stroke-linejoin:round;stroke-dasharray:none;stroke-opacity:1;paint-order:markers fill stroke"
     d="m 167.25065,111.21119 c -5.57841,-0.33814 -11.15046,0.64836 -16.33327,3.64065 -10.25722,5.92201 -14.50493,17.11501 -15.66368,28.34691 -1.13649,11.01634 0.30659,23.85929 3.55439,37.94656 1.50967,6.54819 3.59565,13.52711 5.92147,20.65668 -7.33647,1.55003 -14.42212,3.23262 -20.84801,5.19934 -13.82357,4.2309 -25.670777,9.40159 -34.643505,15.89438 -9.148905,6.62029 -16.715915,15.89949 -16.715915,27.74294 0,11.84347 7.568013,21.11962 16.715915,27.73919 8.972282,6.49246 20.819485,11.66521 34.643505,15.89625 6.42528,1.96653 13.51124,3.65059 20.84801,5.20122 -2.32579,7.12898 -4.41176,14.10648 -5.92147,20.65481 -3.24778,14.08727 -4.69087,26.93021 -3.55439,37.94655 1.15874,11.23183 5.40581,22.42639 15.66368,28.34878 10.25783,5.92237 22.07845,4.00487 32.3852,-0.60771 10.10881,-4.52399 20.50755,-12.19595 31.0835,-22.05218 4.91627,-4.58171 9.91808,-9.87786 14.93029,-15.45734 5.01074,5.57842 10.01051,10.874 14.92652,15.45547 10.57568,9.85596 20.97575,17.53158 31.08539,22.05592 10.30713,4.61275 22.12652,6.52761 32.38333,0.60584 10.25683,-5.92178 14.50673,-17.11423 15.66555,-28.34691 1.13658,-11.01706 -0.30855,-23.8615 -3.55627,-37.94842 -1.50948,-6.54739 -3.59429,-13.52564 -5.91959,-20.65481 7.33754,-1.55065 14.42396,-3.23449 20.84988,-5.20122 13.82429,-4.23111 25.66811,-9.40423 34.63976,-15.89625 9.14753,-6.6193 16.71779,-15.89487 16.71779,-27.73919 0,-11.84432 -7.56924,-21.12291 -16.71779,-27.74294 -8.97208,-6.49232 -20.81591,-11.6634 -34.63976,-15.89438 -6.42627,-1.96684 -13.51295,-3.64934 -20.84988,-5.19934 2.32531,-7.12917 4.41011,-14.10742 5.91959,-20.65481 3.24772,-14.08692 4.69284,-26.93138 3.55627,-37.94843 -1.1588,-11.2326 -5.40806,-22.42661 -15.66555,-28.34878 -5.18344,-2.99266 -10.75492,-3.97691 -16.3314,-3.63878 -5.45531,0.33077 -10.9374,1.9576 -16.05193,4.24649 -10.10909,4.52413 -20.50946,12.19788 -31.08539,22.05406 -4.91595,4.58139 -9.91578,9.87705 -14.92652,15.45547 -5.01222,-5.57949 -10.0141,-10.87571 -14.93029,-15.45735 -10.5762,-9.85645 -20.97525,-17.52657 -31.0835,-22.0503 -5.11321,-2.28832 -10.59469,-3.91759 -16.05193,-4.24837 z m -2.24892,26.1655 c 1.36458,-0.0666 3.6639,0.26707 7.58519,2.02197 6.32861,2.83223 14.58681,8.60454 23.91846,17.30112 5.06169,4.71721 10.4108,10.45232 15.86062,16.69153 -5.15123,6.69222 -10.28316,13.76092 -15.35231,21.29629 -9.0619,0.62282 -17.74944,1.53463 -26.1205,2.65031 -2.67862,-7.83957 -4.97103,-15.33998 -6.52543,-22.08219 -2.86563,-12.4297 -3.73695,-22.46869 -3.02544,-29.36539 0.69569,-6.74367 2.51934,-8.22584 2.6897,-8.3242 0.006,-0.003 0.27988,-0.15574 0.96971,-0.18944 z m 128.6274,0 c 0.6896,0.0337 0.96197,0.18605 0.96784,0.18944 0.16948,0.0979 1.99596,1.58325 2.69157,8.32608 0.71152,6.89684 -0.15976,16.93175 -3.02544,29.36163 -1.5546,6.74302 -3.84553,14.24457 -6.52356,22.08407 -8.37214,-1.11577 -17.06134,-2.0275 -26.12424,-2.65031 -5.06951,-7.53556 -10.20104,-14.6045 -15.35231,-21.29629 5.45018,-6.23922 10.80019,-11.97374 15.86249,-16.69153 9.33187,-8.6968 17.58826,-14.469 23.91659,-17.30112 3.92129,-1.7549 6.22228,-2.08865 7.58706,-2.02197 z m -64.31276,82.40167 c 5.96004,0 11.79311,0.17346 17.5806,0.41076 3.09817,4.89243 6.1638,9.85683 9.14385,15.01844 2.98038,5.16218 5.74652,10.30052 8.43486,15.43109 -2.68826,5.13121 -5.45291,10.26945 -8.43298,15.43108 -2.97934,5.16036 -6.04492,10.12396 -9.14386,15.01657 -5.78843,0.23741 -11.62128,0.41077 -17.58247,0.41077 -5.961,0 -11.7941,-0.17337 -17.58248,-0.41077 -3.09956,-4.89328 -6.16542,-9.85637 -9.14574,-15.01844 -2.98014,-5.16177 -5.74675,-10.29872 -8.43485,-15.42921 2.68813,-5.13052 5.45472,-10.26745 8.43485,-15.42921 2.97979,-5.16115 6.04626,-10.12672 9.14574,-15.02032 5.78805,-0.23734 11.62197,-0.41076 17.58248,-0.41076 z m -75.37355,6.91368 c 3.21946,7.80758 6.77654,15.78731 10.76819,23.94661 -3.99141,8.15862 -7.54872,16.13758 -10.76819,23.94473 -8.12798,-1.60015 -15.76784,-3.36564 -22.38418,-5.39067 -12.19734,-3.73315 -21.32502,-7.99783 -26.94203,-12.06239 -5.492178,-3.97423 -5.865198,-6.29626 -5.865198,-6.49167 0,-0.19539 0.373657,-2.51979 5.865198,-6.49355 5.61701,-4.06455 14.74469,-8.32923 26.94203,-12.06239 6.61643,-2.02505 14.25632,-3.79062 22.38418,-5.39067 z m 150.74522,0 c 8.12872,1.60008 15.76925,3.36551 22.38605,5.39067 12.19734,3.73316 21.32503,7.99784 26.94204,12.06239 5.49108,3.97342 5.86331,6.29567 5.86331,6.49355 0,0.19789 -0.3716,2.51778 -5.86331,6.49167 -5.61701,4.06456 -14.74469,8.32924 -26.94204,12.06239 -6.61671,2.02514 -14.25721,3.79047 -22.38605,5.39067 -3.21947,-7.80715 -6.77684,-15.78619 -10.76819,-23.94473 3.99158,-8.15922 7.54873,-16.13903 10.76819,-23.94661 z m -75.37167,0.66399 c -12.41392,0 -23.69714,10.009 -23.69714,23.28262 0,13.27364 11.28323,23.28261 23.69714,23.28261 12.41391,0 23.69714,-10.00898 23.69714,-23.28261 0,-13.27362 -11.28322,-23.28262 -23.69714,-23.28262 z m -58.42505,76.58335 c 8.3726,1.11549 17.06153,2.02586 26.12424,2.64845 5.06951,7.53552 10.20101,14.60447 15.35231,21.29628 -5.45066,6.23977 -10.80168,11.97525 -15.86436,16.69341 -9.33164,8.69657 -17.58764,14.46685 -23.91659,17.29924 -6.2171,2.78235 -8.3084,1.97673 -8.5549,1.8344 -0.16949,-0.0978 -1.99595,-1.58322 -2.69159,-8.32607 -0.71142,-6.89602 0.16158,-16.93329 3.02733,-29.36351 1.55459,-6.74304 3.84545,-14.24298 6.52356,-22.0822 z m 116.84822,0 c 2.678,7.83863 4.96911,15.33792 6.52356,22.08032 2.86563,12.42972 3.73695,22.4687 3.02544,29.36539 -0.69561,6.74284 -2.52205,8.22821 -2.69157,8.32607 -0.16902,0.0976 -2.36481,0.93501 -8.55303,-1.8344 -6.3286,-2.83222 -14.58681,-8.60453 -23.91846,-17.30112 -5.06249,-4.71795 -10.41228,-10.45225 -15.86249,-16.69153 5.15127,-6.69179 10.2828,-13.76074 15.35231,-21.29628 9.06247,-0.62258 17.75172,-1.53299 26.12424,-2.64845 z" /><path
     id="path2-2"
     style="color:#000000;fill:url(#linearGradient3);stroke:none;stroke-linecap:round;stroke-linejoin:round;stroke-miterlimit:10;-inkscape-stroke:none;paint-order:stroke markers fill"
     d="m 224.7793,10.072266 a 17.50175,17.50175 0 0 0 -8.75,2.34375 L 26.320312,121.94336 a 17.5,17.5 0 0 0 -7.365234,9.02734 17.50175,17.50175 0 0 0 -0.02734,0.0566 17.5,17.5 0 0 0 -0.984375,4.93555 17.50175,17.50175 0 0 0 -0.345703,1.74023 V 368.4375 a 17.50175,17.50175 0 0 0 8.75,15.15625 L 215.46289,492.7793 a 17.50175,17.50175 0 0 0 11.23242,1.67578 17.50175,17.50175 0 0 0 11.23242,-1.67578 l 59.36524,-34.27539 v -40.41602 l -50.93945,29.41016 -2.04688,-189.13477 156.48633,-90.34766 v 147.09961 c 6.29781,3.84054 10.61067,10.76709 10.61133,18.51758 a 17.50175,17.50175 0 0 0 0,0.002 v 22.70703 a 17.50175,17.50175 0 0 0 0,0.002 c -5e-5,0.43928 -0.10747,0.85341 -0.13477,1.28711 7.56036,-3.13061 15.81214,-4.87007 24.52344,-5.55078 V 137.70312 A 17.50175,17.50175 0 0 0 421.26758,120.80664 L 233.5293,12.416016 a 17.50175,17.50175 0 0 0 -8.75,-2.34375 z m 0,37.707031 L 381.91406,138.5 327.87305,169.70117 170.8125,78.935547 Z m -88.95899,51.359375 157.0586,90.765628 -66.1836,38.21093 -157.134763,-90.7207 z M 52.597656,168.01562 209.08594,258.36328 207.03906,447.5 52.597656,358.33398 Z m 314.082034,210.01368 -0.28907,0.16601 v 40.41602 l 12.95313,-7.47852 c -0.27571,-2.08228 -0.46094,-4.19611 -0.46094,-6.35937 0,-9.56056 2.77966,-18.83144 7.68555,-26.74414 z"
     transform="translate(0.324112,0.573447)" /><path
     id="path9"
     style="color:#000000;-inkscape-font-specification:'System-ui Bold';fill:#3178c6;stroke-width:0.83734;stroke-linejoin:round;-inkscape-stroke:none;paint-order:markers fill stroke"
     d="m 274.36678,329.44763 a 4.1871039,4.1871039 0 0 0 -4.18668,4.18668 v 22.70786 a 4.1871039,4.1871039 0 0 0 4.18668,4.18668 h 40.42605 v 112.57279 a 4.1871039,4.1871039 0 0 0 4.1867,4.18668 h 25.72358 a 4.1871039,4.1871039 0 0 0 4.18669,-4.18668 V 360.52885 h 40.82834 a 4.1871039,4.1871039 0 0 0 4.18669,-4.18668 v -22.70786 a 4.1871039,4.1871039 0 0 0 -4.18669,-4.18668 z m 170.41445,39.78986 c -14.53903,0 -26.44314,2.92842 -34.9997,8.98339 -8.55657,6.05499 -13.39904,15.46339 -13.39904,26.55273 0,10.14207 4.15174,17.64997 10.11347,22.41349 5.96172,4.76354 13.36736,7.07501 20.41663,8.78552 7.04927,1.71047 13.87279,2.83119 18.40179,4.40745 2.2645,0.78814 3.88538,1.69295 4.70184,2.45968 0.81648,0.76674 1.02705,1.1578 1.02705,2.32722 0,1.62928 -0.48742,2.52831 -2.58396,3.72385 -2.09652,1.19554 -5.86888,2.1375 -10.91319,2.1375 -8.67313,0 -21.3125,-2.53247 -31.02726,-6.34217 a 4.1871039,4.1871039 0 0 0 -5.53263,2.67555 l -5.82866,19.0903 a 4.1871039,4.1871039 0 0 0 2.41388,5.09599 c 11.85189,4.86773 26.52154,7.74863 40.37698,7.74863 14.06842,0 25.65511,-3.00256 33.9743,-9.09949 8.31917,-6.09693 13.01633,-15.46459 13.01633,-26.43664 0,-10.19804 -4.17635,-17.79952 -10.17232,-22.69804 -5.99599,-4.89854 -13.47394,-7.37554 -20.61289,-9.19273 -7.13895,-1.8172 -14.0658,-2.98247 -18.71087,-4.52522 -2.32256,-0.77135 -4.01675,-1.65485 -4.84086,-2.36808 -0.8241,-0.71324 -0.9273,-0.92063 -0.9273,-1.81042 0,-1.43277 0.37354,-2.18557 2.65593,-3.36244 2.28239,-1.17685 6.43802,-2.0966 12.04817,-2.0966 7.48019,0 16.84439,1.53656 25.56495,4.05585 a 4.1871039,4.1871039 0 0 0 5.20392,-2.92741 l 5.22518,-19.29309 a 4.1871039,4.1871039 0 0 0 -2.63957,-5.03875 c -9.62776,-3.4232 -21.4426,-5.26607 -32.95217,-5.26607 z"
     transform="translate(0.324112,0.573447)" /></svg>
