<?xml version="1.0" encoding="UTF-8" standalone="no"?>
<!-- Created with Inkscape (http://www.inkscape.org/) -->

<svg
   width="500"
   height="500"
   viewBox="0 0 500 500"
   version="1.1"
   id="svg1"
   inkscape:version="1.3.2 (091e20ef0f, 2023-11-25, custom)"
   sodipodi:docname="app.ts.svg"
   xml:space="preserve"
   xmlns:inkscape="http://www.inkscape.org/namespaces/inkscape"
   xmlns:sodipodi="http://sodipodi.sourceforge.net/DTD/sodipodi-0.dtd"
   xmlns:xlink="http://www.w3.org/1999/xlink"
   xmlns="http://www.w3.org/2000/svg"
   xmlns:svg="http://www.w3.org/2000/svg"><sodipodi:namedview
     id="namedview1"
     pagecolor="#505050"
     bordercolor="#eeeeee"
     borderopacity="1"
     inkscape:showpageshadow="0"
     inkscape:pageopacity="0"
     inkscape:pagecheckerboard="0"
     inkscape:deskcolor="#505050"
     inkscape:document-units="px"
     inkscape:zoom="0.96390292"
     inkscape:cx="280.1112"
     inkscape:cy="234.98217"
     inkscape:window-width="1352"
     inkscape:window-height="734"
     inkscape:window-x="4"
     inkscape:window-y="24"
     inkscape:window-maximized="1"
     inkscape:current-layer="layer1"
     showguides="true"
     showgrid="false"><sodipodi:guide
       position="250.02518,350.60736"
       orientation="-0.99997769,0.0066803918"
       id="guide30"
       inkscape:locked="false" /><sodipodi:guide
       position="66.396728,247.89992"
       orientation="0,-1"
       id="guide53"
       inkscape:locked="false" /></sodipodi:namedview><defs
     id="defs1"><linearGradient
       id="linearGradient3"
       inkscape:collect="always"><stop
         style="stop-color:#ff4095;stop-opacity:1;"
         offset="0"
         id="stop3" /><stop
         style="stop-color:#5b52dc;stop-opacity:1;"
         offset="1"
         id="stop4" /></linearGradient><linearGradient
       id="swatch61"
       inkscape:swatch="solid"><stop
         style="stop-color:#5090d0;stop-opacity:1;"
         offset="0"
         id="stop61" /></linearGradient><linearGradient
       id="swatch30"
       inkscape:swatch="solid"><stop
         style="stop-color:#f9f9f9;stop-opacity:1;"
         offset="0"
         id="stop30" /></linearGradient><inkscape:perspective
       sodipodi:type="inkscape:persp3d"
       inkscape:vp_x="44.06818 : 315.96746 : 1"
       inkscape:vp_y="0 : 1000 : 0"
       inkscape:vp_z="480.74134 : 298.68846 : 1"
       inkscape:persp3d-origin="250 : 166.66667 : 1"
       id="perspective17" /><inkscape:perspective
       sodipodi:type="inkscape:persp3d"
       inkscape:vp_x="44.06818 : 315.96746 : 1"
       inkscape:vp_y="0 : 1000 : 0"
       inkscape:vp_z="480.74134 : 298.68846 : 1"
       inkscape:persp3d-origin="250 : 166.66667 : 1"
       id="perspective17-9" /><linearGradient
       inkscape:collect="always"
       xlink:href="#linearGradient3"
       id="linearGradient4"
       x1="93.180885"
       y1="105.89321"
       x2="459.93677"
       y2="417.2565"
       gradientUnits="userSpaceOnUse" /><inkscape:perspective
       sodipodi:type="inkscape:persp3d"
       inkscape:vp_x="44.06818 : 315.96746 : 1"
       inkscape:vp_y="0 : 1000 : 0"
       inkscape:vp_z="480.74134 : 298.68846 : 1"
       inkscape:persp3d-origin="250 : 166.66667 : 1"
       id="perspective17-0" /><inkscape:perspective
       sodipodi:type="inkscape:persp3d"
       inkscape:vp_x="44.06818 : 315.96746 : 1"
       inkscape:vp_y="0 : 1000 : 0"
       inkscape:vp_z="480.74134 : 298.68846 : 1"
       inkscape:persp3d-origin="250 : 166.66667 : 1"
       id="perspective17-2" /></defs><g
     inkscape:label="Layer 1"
     inkscape:groupmode="layer"
     id="layer1"><path
       id="path1"
       style="color:#000000;fill:url(#linearGradient4);stroke-linejoin:round;-inkscape-stroke:none;paint-order:markers fill stroke;fill-opacity:1"
       d="M 195.58985 119.63114 C 190.90075 119.34709 186.3896 120.18886 182.30736 122.54575 C 174.14286 127.25953 170.37033 136.49178 169.29287 146.93588 C 168.21541 157.37999 169.56757 169.83809 172.83363 184.00458 C 174.81199 192.58571 177.59552 201.84426 180.97355 211.50322 C 170.92001 213.4072 161.50997 215.62596 153.08959 218.20313 C 139.18803 222.45789 127.72075 227.51642 119.21462 233.67157 C 110.7085 239.82675 104.59956 247.71159 104.59956 257.13916 C 104.59956 266.56671 110.7085 274.44787 119.21462 280.60303 C 127.72075 286.75818 139.18803 291.81918 153.08959 296.07395 C 161.50997 298.65112 170.92001 300.86989 180.97355 302.77385 C 177.59552 312.43282 174.81199 321.69137 172.83363 330.27249 C 169.56758 344.43901 168.21541 356.89709 169.29287 367.34119 C 170.37034 377.7853 174.14286 387.01755 182.30736 391.73132 C 190.47186 396.4451 200.35332 395.09647 209.93691 390.80754 C 219.52051 386.51859 229.63436 379.11903 240.26989 369.20729 C 246.71236 363.20324 253.33908 356.16253 260.01516 348.40732 C 262.72627 351.55663 265.41867 354.49496 268.10445 357.38705 L 268.10445 321.4138 L 263.28051 321.4138 C 262.19208 322.86151 261.10374 324.34111 260.01516 325.74496 C 258.92661 324.34118 257.83829 322.86138 256.7498 321.4138 L 250.97492 321.4138 A 18.662033 18.662033 0 0 1 232.31521 302.75409 L 232.31521 291.59829 A 18.662033 18.662033 0 0 1 233.11179 286.57428 C 231.02749 283.19554 228.95901 279.76748 226.92441 276.24346 C 223.21974 269.82677 219.80271 263.46016 216.53184 257.13916 C 219.80295 250.81764 223.2195 244.45072 226.92441 238.03362 C 230.62924 231.61667 234.43518 225.47606 238.27412 219.48259 C 245.38414 219.15481 252.60544 218.92931 260.01516 218.92931 C 267.42511 218.92931 274.64719 219.15479 281.75744 219.48259 C 285.59593 225.47544 289.40144 231.61606 293.1059 238.03238 C 296.81088 244.44957 300.22734 250.81634 303.49848 257.13792 C 300.79109 262.37006 297.94102 267.64152 294.95347 272.93858 L 327.09697 272.93858 C 324.77006 267.74059 322.29523 262.47413 319.63506 257.13792 C 325.10096 246.17344 329.8394 235.47994 333.95125 225.14386 C 344.51015 227.04994 354.25212 229.30404 362.74788 231.90428 C 375.67428 235.86058 385.91882 240.58011 392.41643 245.28186 C 398.91401 249.98363 401.10099 254.03705 401.10099 257.13916 C 401.10099 260.24126 398.91401 264.29469 392.41643 268.99645 C 385.91882 273.6982 375.67428 278.41526 362.74788 282.37156 C 359.64842 283.32019 356.33253 284.20754 352.92218 285.06387 A 18.662033 18.662033 0 0 1 354.22758 291.59829 L 354.22758 299.51961 C 358.66166 298.44781 362.92145 297.30448 366.94196 296.07395 C 380.84354 291.81918 392.30833 286.75818 400.81447 280.60303 C 409.3206 274.44787 415.42952 266.56671 415.42952 257.13916 C 415.42952 247.71159 409.3206 239.82675 400.81447 233.67157 C 392.30833 227.51642 380.84354 222.45789 366.94196 218.20313 C 358.52125 215.62586 349.11077 213.40725 339.05677 211.50322 C 342.43458 201.84474 345.21719 192.58655 347.19545 184.00582 C 350.46151 169.83931 351.81492 157.37875 350.73745 146.93465 C 349.65999 136.49055 345.88623 127.25829 337.72172 122.54452 C 329.55723 117.83074 319.677 119.1806 310.09341 123.46954 C 300.50982 127.75847 290.39473 135.15929 279.7592 145.07102 C 273.31708 151.07473 266.69085 158.11507 260.01516 165.86976 C 253.33908 158.11454 246.71236 151.07383 240.26989 145.06979 C 229.63437 135.15805 219.52051 127.75847 209.93691 123.46954 C 205.14511 121.32506 200.27893 119.91518 195.58985 119.63114 z M 193.34461 133.91275 C 195.99285 133.78336 199.50759 134.4994 204.08298 136.54701 C 211.40361 139.82323 220.61277 146.33732 230.50223 155.55375 C 237.00201 161.61121 243.82477 168.92112 250.75509 177.11201 C 243.86019 185.84046 236.96793 195.28974 230.20582 205.5048 C 217.9773 206.25339 206.34769 207.4978 195.34038 209.10484 C 191.71216 199.00794 188.79255 189.44482 186.79661 180.78739 C 183.75966 167.61465 182.72303 156.38227 183.54607 148.4043 C 184.36912 140.42635 186.7839 136.50491 189.47039 134.95386 C 190.47783 134.37221 191.75565 133.99038 193.34461 133.91275 z M 326.68324 133.91275 C 328.2722 133.99038 329.55001 134.37344 330.55746 134.95509 C 333.24395 136.50614 335.65997 140.42758 336.48301 148.40554 C 337.30605 156.38349 336.27067 167.61465 333.23371 180.78739 C 331.23777 189.44482 328.3183 199.00769 324.68994 209.10484 C 313.68296 207.49789 302.0526 206.25337 289.82449 205.5048 C 283.06245 195.28975 276.17009 185.84049 269.27523 177.11201 C 276.20555 168.92106 283.02843 161.6111 289.52809 155.55375 C 299.41755 146.33731 308.62423 139.82446 315.94487 136.54825 C 320.52026 134.50062 324.03499 133.78336 326.68324 133.91275 z M 260.01516 188.53088 C 263.99546 193.6638 267.97532 199.09583 271.94408 204.78232 C 267.99657 204.68807 264.04207 204.59954 260.01516 204.59954 C 255.98751 204.59954 252.03323 204.68803 248.085 204.78232 C 252.05369 199.09593 256.03492 193.66375 260.01516 188.53088 z M 299.39085 220.62868 C 306.29993 221.22227 312.99455 221.95528 319.43005 222.83563 C 316.97493 228.84911 314.26126 235.01258 311.32101 241.2928 C 309.42852 237.82633 307.52787 234.35745 305.51401 230.86935 C 303.5004 227.38167 301.44639 224.00045 299.39085 220.62868 z M 220.63823 220.62991 C 218.5827 224.00168 216.52868 227.38292 214.51508 230.87058 C 212.50142 234.35834 210.60162 237.82668 208.70931 241.2928 C 205.76906 235.01257 203.05537 228.84909 200.60026 222.83563 C 207.03537 221.95532 213.72961 221.22351 220.63823 220.62991 z M 186.07907 225.14386 C 190.19098 235.48 194.9293 246.1734 200.39525 257.13792 C 194.92936 268.10225 190.19222 278.796 186.0803 289.13198 C 175.52123 287.2256 165.77955 284.97184 157.28367 282.37156 C 144.35727 278.41526 134.11272 273.6982 127.61513 268.99645 C 121.11753 264.29469 118.92933 260.24126 118.92933 257.13916 C 118.92933 254.03705 121.11753 249.98363 127.61513 245.28186 C 134.11272 240.58011 144.35727 235.86058 157.28367 231.90428 C 165.77923 229.3041 175.52047 227.04992 186.07907 225.14386 z M 260.01516 239.48228 C 250.59701 239.48228 241.9322 247.06611 241.9322 257.13916 C 241.9322 264.28661 246.32727 270.11808 252.22598 272.93858 L 267.80434 272.93858 C 273.70341 270.11808 278.09935 264.28661 278.09935 257.13916 C 278.09935 247.06611 269.43332 239.48228 260.01516 239.48228 z M 208.70931 272.98428 C 210.60162 276.4504 212.50142 279.91875 214.51508 283.40649 C 216.52868 286.89417 218.5827 290.2754 220.63823 293.64716 C 213.72962 293.0534 207.03535 292.32194 200.60026 291.44144 C 203.05543 285.42795 205.76903 279.26451 208.70931 272.98428 z M 195.34038 305.17224 C 206.34772 306.77927 217.97726 308.02368 230.20582 308.77228 C 236.96793 318.98733 243.86019 328.43663 250.75509 337.16506 C 243.82437 345.35657 237.00101 352.66688 230.50099 358.72456 C 220.61154 367.94101 211.40361 374.45387 204.08298 377.73006 C 196.76234 381.00627 192.1569 380.87427 189.47039 379.32322 C 186.78389 377.77216 184.36788 373.8495 183.54483 365.87154 C 182.7218 357.89358 183.75842 346.66367 186.79537 333.49092 C 188.7914 324.83314 191.71181 315.26985 195.34038 305.17224 z M 330.01529 321.4138 C 330.56982 323.29022 331.11437 325.15824 331.60104 326.97256 C 332.6719 325.0199 333.88928 323.15554 335.24183 321.4138 L 330.01529 321.4138 z M 335.87045 369.46417 C 335.8049 369.79144 335.76589 370.18994 335.69384 370.4991 A 18.662033 18.662033 0 0 1 336.26071 369.94829 C 336.12602 369.79498 336.00343 369.62075 335.87045 369.46417 z M 318.28397 378.59457 L 318.28397 393.64311 C 320.74896 394.25153 323.18962 394.59503 325.58409 394.6447 A 18.662033 18.662033 0 0 1 326.3325 389.39222 L 329.09891 379.93208 C 326.69852 380.6891 323.12612 380.40685 318.28397 378.59457 z "
       transform="matrix(1.5814703,0,0,1.5814703,-162.03633,-155.15989)" /><path
       d="m 291.47281,476.03695 h 20.33645 V 323.63604 h 56.84407 V 305.99477 H 234.87375 v 17.64127 h 56.59906 z m 135.73971,2.45018 c 29.15709,0 47.04337,-13.72099 47.04337,-35.52755 0,-43.3681 -70.56506,-27.19695 -70.56506,-53.90386 0,-10.29074 11.02579,-16.90621 28.66706,-16.90621 10.04572,0 21.80656,2.20516 31.85228,5.6354 l 4.65533,-15.92614 c -10.04572,-4.16529 -22.05158,-6.37045 -34.54747,-6.37045 -30.6272,0 -50.2286,13.47596 -50.2286,35.77256 0,42.38804 70.32003,24.74677 70.32003,53.65884 0,10.78077 -9.55568,16.90621 -25.72684,16.90621 -12.49589,0 -29.15709,-3.43024 -41.65298,-8.82063 l -4.65533,15.92614 c 13.47596,6.12544 29.89214,9.55569 44.83821,9.55569 z"
       id="text1-5"
       style="font-size:240px;font-family:System-ui;-inkscape-font-specification:System-ui;fill:#40b2ff;fill-opacity:0.313725;stroke:#3178c6;stroke-width:24.0209;stroke-linejoin:round;paint-order:markers fill stroke"
       aria-label="Ts" /></g></svg>
