<?xml version="1.0" encoding="UTF-8" standalone="no"?>
<!-- Created with Inkscape (http://www.inkscape.org/) -->

<svg
   width="500"
   height="500"
   viewBox="0 0 500 500"
   version="1.1"
   id="svg1"
   inkscape:version="1.3.2 (091e20ef0f, 2023-11-25, custom)"
   sodipodi:docname="apps.py.svg"
   xml:space="preserve"
   xmlns:inkscape="http://www.inkscape.org/namespaces/inkscape"
   xmlns:sodipodi="http://sodipodi.sourceforge.net/DTD/sodipodi-0.dtd"
   xmlns:xlink="http://www.w3.org/1999/xlink"
   xmlns="http://www.w3.org/2000/svg"
   xmlns:svg="http://www.w3.org/2000/svg"><sodipodi:namedview
     id="namedview1"
     pagecolor="#505050"
     bordercolor="#eeeeee"
     borderopacity="1"
     inkscape:showpageshadow="0"
     inkscape:pageopacity="0"
     inkscape:pagecheckerboard="0"
     inkscape:deskcolor="#505050"
     inkscape:document-units="px"
     inkscape:zoom="0.64175296"
     inkscape:cx="234.51392"
     inkscape:cy="151.92762"
     inkscape:window-width="1352"
     inkscape:window-height="734"
     inkscape:window-x="4"
     inkscape:window-y="24"
     inkscape:window-maximized="1"
     inkscape:current-layer="svg1"
     showguides="true"><sodipodi:guide
       position="250.02518,350.60736"
       orientation="-0.99997769,0.0066803918"
       id="guide30"
       inkscape:locked="false" /><sodipodi:guide
       position="66.396728,247.89992"
       orientation="0,-1"
       id="guide53"
       inkscape:locked="false" /></sodipodi:namedview><defs
     id="defs1"><linearGradient
       id="linearGradient13"
       inkscape:collect="always"><stop
         style="stop-color:#ff0243;stop-opacity:1;"
         offset="0"
         id="stop13" /><stop
         style="stop-color:#ff7f02;stop-opacity:1;"
         offset="1"
         id="stop14" /></linearGradient><linearGradient
       id="swatch61"
       inkscape:swatch="solid"><stop
         style="stop-color:#5090d0;stop-opacity:1;"
         offset="0"
         id="stop61" /></linearGradient><linearGradient
       id="swatch30"
       inkscape:swatch="solid"><stop
         style="stop-color:#f9f9f9;stop-opacity:1;"
         offset="0"
         id="stop30" /></linearGradient><inkscape:perspective
       sodipodi:type="inkscape:persp3d"
       inkscape:vp_x="44.06818 : 315.96746 : 1"
       inkscape:vp_y="0 : 1000 : 0"
       inkscape:vp_z="480.74134 : 298.68846 : 1"
       inkscape:persp3d-origin="250 : 166.66667 : 1"
       id="perspective17" /><inkscape:perspective
       sodipodi:type="inkscape:persp3d"
       inkscape:vp_x="44.06818 : 315.96746 : 1"
       inkscape:vp_y="0 : 1000 : 0"
       inkscape:vp_z="480.74134 : 298.68846 : 1"
       inkscape:persp3d-origin="250 : 166.66667 : 1"
       id="perspective17-1" /><inkscape:perspective
       sodipodi:type="inkscape:persp3d"
       inkscape:vp_x="44.06818 : 315.96746 : 1"
       inkscape:vp_y="0 : 1000 : 0"
       inkscape:vp_z="480.74134 : 298.68846 : 1"
       inkscape:persp3d-origin="250 : 166.66667 : 1"
       id="perspective17-4" /><inkscape:perspective
       sodipodi:type="inkscape:persp3d"
       inkscape:vp_x="44.06818 : 315.96746 : 1"
       inkscape:vp_y="0 : 1000 : 0"
       inkscape:vp_z="480.74134 : 298.68846 : 1"
       inkscape:persp3d-origin="250 : 166.66667 : 1"
       id="perspective17-6" /><inkscape:perspective
       sodipodi:type="inkscape:persp3d"
       inkscape:vp_x="44.06818 : 315.96746 : 1"
       inkscape:vp_y="0 : 1000 : 0"
       inkscape:vp_z="480.74134 : 298.68846 : 1"
       inkscape:persp3d-origin="250 : 166.66667 : 1"
       id="perspective17-3" /><inkscape:perspective
       sodipodi:type="inkscape:persp3d"
       inkscape:vp_x="44.06818 : 315.96746 : 1"
       inkscape:vp_y="0 : 1000 : 0"
       inkscape:vp_z="480.74134 : 298.68846 : 1"
       inkscape:persp3d-origin="250 : 166.66667 : 1"
       id="perspective17-5" /><inkscape:perspective
       sodipodi:type="inkscape:persp3d"
       inkscape:vp_x="44.06818 : 315.96746 : 1"
       inkscape:vp_y="0 : 1000 : 0"
       inkscape:vp_z="480.74134 : 298.68846 : 1"
       inkscape:persp3d-origin="250 : 166.66667 : 1"
       id="perspective17-2" /><inkscape:path-effect
       effect="mirror_symmetry"
       start_point="251.8258,19.235391"
       end_point="251.8258,476.11943"
       center_point="251.8258,247.67741"
       id="path-effect4"
       is_visible="true"
       lpeversion="1.2"
       lpesatellites=""
       mode="free"
       discard_orig_path="false"
       fuse_paths="true"
       oposite_fuse="false"
       split_items="false"
       split_open="false"
       link_styles="false" /><inkscape:path-effect
       effect="mirror_symmetry"
       start_point="251.8258,19.235394"
       end_point="251.8258,476.11943"
       center_point="251.8258,247.67741"
       id="path-effect2"
       is_visible="true"
       lpeversion="1.2"
       lpesatellites=""
       mode="free"
       discard_orig_path="false"
       fuse_paths="true"
       oposite_fuse="false"
       split_items="false"
       split_open="false"
       link_styles="false" /><inkscape:perspective
       sodipodi:type="inkscape:persp3d"
       inkscape:vp_x="44.06818 : 315.96746 : 1"
       inkscape:vp_y="0 : 1000 : 0"
       inkscape:vp_z="480.74134 : 298.68846 : 1"
       inkscape:persp3d-origin="250 : 166.66667 : 1"
       id="perspective17-29" /><inkscape:perspective
       sodipodi:type="inkscape:persp3d"
       inkscape:vp_x="44.06818 : 315.96746 : 1"
       inkscape:vp_y="0 : 1000 : 0"
       inkscape:vp_z="480.74134 : 298.68846 : 1"
       inkscape:persp3d-origin="250 : 166.66667 : 1"
       id="perspective17-2-1" /><inkscape:perspective
       sodipodi:type="inkscape:persp3d"
       inkscape:vp_x="44.06818 : 315.96746 : 1"
       inkscape:vp_y="0 : 1000 : 0"
       inkscape:vp_z="480.74134 : 298.68846 : 1"
       inkscape:persp3d-origin="250 : 166.66667 : 1"
       id="perspective17-0" /><inkscape:perspective
       sodipodi:type="inkscape:persp3d"
       inkscape:vp_x="44.06818 : 315.96746 : 1"
       inkscape:vp_y="0 : 1000 : 0"
       inkscape:vp_z="480.74134 : 298.68846 : 1"
       inkscape:persp3d-origin="250 : 166.66667 : 1"
       id="perspective17-1-2" /><inkscape:perspective
       sodipodi:type="inkscape:persp3d"
       inkscape:vp_x="44.06818 : 315.96746 : 1"
       inkscape:vp_y="0 : 1000 : 0"
       inkscape:vp_z="480.74134 : 298.68846 : 1"
       inkscape:persp3d-origin="250 : 166.66667 : 1"
       id="perspective17-2-0" /><inkscape:perspective
       sodipodi:type="inkscape:persp3d"
       inkscape:vp_x="44.06818 : 315.96746 : 1"
       inkscape:vp_y="0 : 1000 : 0"
       inkscape:vp_z="480.74134 : 298.68846 : 1"
       inkscape:persp3d-origin="250 : 166.66667 : 1"
       id="perspective17-6-7" /><inkscape:perspective
       sodipodi:type="inkscape:persp3d"
       inkscape:vp_x="44.06818 : 315.96746 : 1"
       inkscape:vp_y="0 : 1000 : 0"
       inkscape:vp_z="480.74134 : 298.68846 : 1"
       inkscape:persp3d-origin="250 : 166.66667 : 1"
       id="perspective17-2-9" /><inkscape:perspective
       sodipodi:type="inkscape:persp3d"
       inkscape:vp_x="44.06818 : 315.96746 : 1"
       inkscape:vp_y="0 : 1000 : 0"
       inkscape:vp_z="480.74134 : 298.68846 : 1"
       inkscape:persp3d-origin="250 : 166.66667 : 1"
       id="perspective17-0-3" /><inkscape:perspective
       sodipodi:type="inkscape:persp3d"
       inkscape:vp_x="44.06818 : 315.96746 : 1"
       inkscape:vp_y="0 : 1000 : 0"
       inkscape:vp_z="480.74134 : 298.68846 : 1"
       inkscape:persp3d-origin="250 : 166.66667 : 1"
       id="perspective17-61" /><inkscape:perspective
       sodipodi:type="inkscape:persp3d"
       inkscape:vp_x="44.06818 : 315.96746 : 1"
       inkscape:vp_y="0 : 1000 : 0"
       inkscape:vp_z="480.74134 : 298.68846 : 1"
       inkscape:persp3d-origin="250 : 166.66667 : 1"
       id="perspective17-4-8" /><inkscape:perspective
       sodipodi:type="inkscape:persp3d"
       inkscape:vp_x="44.06818 : 315.96746 : 1"
       inkscape:vp_y="0 : 1000 : 0"
       inkscape:vp_z="480.74134 : 298.68846 : 1"
       inkscape:persp3d-origin="250 : 166.66667 : 1"
       id="perspective17-29-7" /><inkscape:perspective
       sodipodi:type="inkscape:persp3d"
       inkscape:vp_x="44.06818 : 315.96746 : 1"
       inkscape:vp_y="0 : 1000 : 0"
       inkscape:vp_z="480.74134 : 298.68846 : 1"
       inkscape:persp3d-origin="250 : 166.66667 : 1"
       id="perspective17-5-9" /><inkscape:perspective
       sodipodi:type="inkscape:persp3d"
       inkscape:vp_x="44.06818 : 315.96746 : 1"
       inkscape:vp_y="0 : 1000 : 0"
       inkscape:vp_z="480.74134 : 298.68846 : 1"
       inkscape:persp3d-origin="250 : 166.66667 : 1"
       id="perspective17-2-2" /><inkscape:perspective
       sodipodi:type="inkscape:persp3d"
       inkscape:vp_x="44.06818 : 315.96746 : 1"
       inkscape:vp_y="0 : 1000 : 0"
       inkscape:vp_z="480.74134 : 298.68846 : 1"
       inkscape:persp3d-origin="250 : 166.66667 : 1"
       id="perspective17-28" /><clipPath
       id="clip0"><rect
         width="24"
         height="24"
         fill="white"
         id="rect1" /></clipPath><inkscape:perspective
       sodipodi:type="inkscape:persp3d"
       inkscape:vp_x="44.06818 : 315.96746 : 1"
       inkscape:vp_y="0 : 1000 : 0"
       inkscape:vp_z="480.74134 : 298.68846 : 1"
       inkscape:persp3d-origin="250 : 166.66667 : 1"
       id="perspective17-3-9" /><inkscape:perspective
       sodipodi:type="inkscape:persp3d"
       inkscape:vp_x="44.06818 : 315.96746 : 1"
       inkscape:vp_y="0 : 1000 : 0"
       inkscape:vp_z="480.74134 : 298.68846 : 1"
       inkscape:persp3d-origin="250 : 166.66667 : 1"
       id="perspective17-38" /><inkscape:perspective
       sodipodi:type="inkscape:persp3d"
       inkscape:vp_x="44.06818 : 315.96746 : 1"
       inkscape:vp_y="0 : 1000 : 0"
       inkscape:vp_z="480.74134 : 298.68846 : 1"
       inkscape:persp3d-origin="250 : 166.66667 : 1"
       id="perspective17-19" /><linearGradient
       inkscape:collect="always"
       xlink:href="#linearGradient13"
       id="linearGradient14"
       x1="64.291199"
       y1="91.429123"
       x2="447.84854"
       y2="406.36765"
       gradientUnits="userSpaceOnUse" /></defs><path
     id="use15"
     style="fill:#d6d85c;fill-opacity:1;stroke:none;stroke-width:48.5153;stroke-linejoin:round;stroke-dasharray:none;stroke-opacity:1;paint-order:markers fill stroke"
     d="m 424.43773,468.94786 c 13.76281,0 24.84273,-10.65862 24.84273,-23.89868 V 410.9038 h -80.16575 v -12.15488 h 80.16575 v -0.0348 h 45.52065 l 0.29219,-0.5483 V 259.84684 l -0.006,-0.29331 h -50.70106 v 39.74275 l -35.93438,39.71195 h -63.13258 l -27.2223,30.99986 v 4.80599 94.08951 l 0.0777,0.0443 z m 9.31737,-14.48356 h -24.85212 v -24.85211 h 24.85212 z"
     sodipodi:nodetypes="sscccccccccccccccccsccccc" /><path
     id="rect14"
     style="fill:#615cd8;fill-opacity:1;stroke:none;stroke-width:48.5153;stroke-linejoin:round;stroke-dasharray:none;stroke-opacity:1;paint-order:markers fill stroke"
     d="m 320.58695,194.43028 c -13.76281,0 -24.84274,10.65862 -24.84274,23.89868 v 34.14537 h 80.16576 v 12.15489 h -80.16576 v 0.0348 h -45.52065 l -0.29219,0.54831 v 138.31894 l 0.006,0.29332 h 50.70134 v -39.74275 l 35.93439,-39.71195 h 63.13258 l 27.2223,-30.99986 v -4.80599 -94.08952 l -0.0777,-0.0443 z m -9.31737,14.48356 h 24.85211 v 24.85211 h -24.85211 z"
     sodipodi:nodetypes="sscccccccccccccccccsccccc" /><path
     id="path11"
     style="color:#000000;fill:url(#linearGradient14);stroke-linejoin:round;-inkscape-stroke:none;paint-order:markers fill stroke;fill-opacity:1"
     d="M 324.43965 119.63095 C 319.75099 119.91524 314.88489 121.32427 310.09308 123.46874 C 300.5095 127.75768 290.39479 135.15964 279.75928 145.07137 C 273.31705 151.07517 266.69098 158.115 260.01516 165.86985 C 253.33914 158.11471 246.71223 151.07411 240.2698 145.07013 C 229.63429 135.15839 219.52084 127.75893 209.93724 123.46998 C 200.35366 119.18105 190.47167 117.83255 182.30718 122.54633 C 174.14269 127.2601 170.37129 136.49077 169.29382 146.93487 C 168.21636 157.37898 169.56679 169.83791 172.83285 184.00441 C 174.81115 192.58532 177.59482 201.84381 180.97273 211.50251 C 170.91924 213.40649 161.51032 215.62623 153.08998 218.20339 C 139.1884 222.45815 127.72078 227.51637 119.21465 233.67154 C 110.70853 239.8267 104.5992 247.71136 104.5992 257.13891 C 104.5992 266.56646 110.70853 274.44862 119.21465 280.6038 C 127.72078 286.75895 139.1884 291.81967 153.08998 296.07444 C 161.51029 298.65159 170.91927 300.8701 180.97273 302.77407 C 177.59482 312.43277 174.81241 321.69126 172.83409 330.27217 C 169.56804 344.43869 168.21636 356.8976 169.29382 367.34171 C 170.37129 377.78581 174.14269 387.01772 182.30718 391.7315 C 190.47168 396.44527 200.35366 395.09678 209.93724 390.80784 C 219.52084 386.5189 229.63428 379.1182 240.2698 369.20645 C 242.60566 367.02957 244.9724 364.67435 247.35035 362.24043 A 15.462125 15.462125 0 0 1 243.45281 352.49224 L 243.44908 352.30551 A 15.462125 15.462125 0 0 1 243.44534 351.9968 L 243.44534 345.39426 C 239.04385 350.24153 234.69235 354.81958 230.50169 358.72506 C 220.61224 367.9415 211.40348 374.45354 204.08284 377.72975 C 196.7622 381.00594 192.15763 380.87417 189.47113 379.32312 C 186.78462 377.77206 184.36758 373.84954 183.54453 365.87158 C 182.7215 357.89363 183.75906 346.66403 186.79601 333.49128 C 188.79197 324.8338 191.71083 315.27006 195.33922 305.17284 C 206.34683 306.77994 217.97776 308.02425 230.20667 308.77286 C 234.57458 315.37116 239.00304 321.53619 243.44534 327.50742 L 243.44534 294.98646 C 241.72232 294.92125 239.98224 294.87358 238.27311 294.79476 C 234.43422 288.80136 230.62886 282.66005 226.92407 276.24319 C 223.21939 269.82648 219.80318 263.45994 216.5323 257.13891 C 219.80331 250.81763 223.21929 244.45151 226.92407 238.03464 C 230.62876 231.61793 234.43432 225.47633 238.27311 219.48306 C 245.3836 219.15524 252.60493 218.92912 260.01516 218.92912 C 265.62246 218.92912 271.09761 219.08382 276.52274 219.28887 C 279.96469 213.20565 285.44727 208.38755 291.94234 205.68048 C 291.22286 205.63274 290.54858 205.54926 289.8249 205.50496 C 283.06277 195.28974 276.17033 185.84042 269.27539 177.11183 C 276.20574 168.92082 283.02894 161.61139 289.52863 155.55401 C 299.41809 146.33757 308.62436 139.82428 315.94499 136.54808 C 320.5204 134.50045 324.03456 133.7834 326.68282 133.91279 C 328.27178 133.99042 329.54927 134.37306 330.5567 134.95471 C 333.24321 136.50575 335.66025 140.42704 336.4833 148.405 C 337.30634 156.38296 336.27126 167.61381 333.23432 180.78654 C 331.63486 187.72416 329.30676 195.3557 326.63178 203.26553 L 341.73147 203.26553 C 343.86813 196.59969 345.79369 190.08918 347.19623 184.00565 C 350.46229 169.83916 351.81522 157.37897 350.73775 146.93487 C 349.66029 136.49077 345.88639 127.25886 337.7219 122.54508 C 333.63964 120.18819 329.12832 119.34666 324.43965 119.63095 z M 193.34501 133.91279 C 195.99327 133.7834 199.50745 134.50045 204.08284 136.54808 C 211.40349 139.82428 220.61223 146.33758 230.50169 155.55401 C 237.00132 161.61133 243.8248 168.92118 250.75494 177.11183 C 243.85998 185.84038 236.96758 195.28977 230.20542 205.50496 C 217.97692 206.25358 206.3465 207.49793 195.33922 209.10499 C 191.71107 199.00822 188.79318 189.44511 186.79725 180.78779 C 183.76032 167.61505 182.72399 156.38172 183.54702 148.40376 C 184.37007 140.42581 186.78463 136.50576 189.47113 134.95471 C 190.47857 134.37306 191.75607 133.99042 193.34501 133.91279 z M 260.01516 188.53182 C 263.99544 193.66474 267.97681 199.09649 271.94553 204.78297 C 267.9976 204.68869 264.04251 204.59998 260.01516 204.59998 C 255.9875 204.59998 252.03303 204.68868 248.08479 204.78297 C 252.05363 199.09632 256.03477 193.66492 260.01516 188.53182 z M 220.63897 220.62954 C 218.58319 224.00169 216.52953 227.38262 214.51569 230.87069 C 212.502 234.35851 210.60094 237.8274 208.7086 241.29358 C 205.76816 235.013 203.05505 228.84915 200.59983 222.83537 C 207.03548 221.95496 213.72971 221.22318 220.63897 220.62954 z M 186.08024 225.14451 C 190.19213 235.4805 194.92854 246.17458 200.39444 257.13891 C 194.92893 268.10254 190.19192 278.79547 186.08024 289.13082 C 175.52131 287.22446 165.77956 284.9717 157.28378 282.37144 C 144.35738 278.41516 134.1123 273.69759 127.61471 268.99584 C 121.11711 264.29408 118.92959 260.24103 118.92959 257.13891 C 118.92959 254.03682 121.11711 249.98251 127.61471 245.28074 C 134.1123 240.57899 144.35738 235.86019 157.28378 231.90389 C 165.77956 229.30364 175.52131 227.0506 186.08024 225.14451 z M 387.17492 225.86775 L 387.17492 241.96454 C 388.81168 242.89551 390.2614 243.83356 391.61146 244.77161 L 411.65433 244.77161 C 409.04723 240.61747 405.27688 236.90064 400.81443 233.67154 C 396.90039 230.83928 392.29107 228.26408 387.17492 225.86775 z M 260.01516 239.48236 C 250.59701 239.48236 241.93164 247.06586 241.93164 257.13891 C 241.93164 259.66608 242.47945 262.03509 243.44534 264.16842 L 243.44534 263.83979 A 15.462125 15.462125 0 0 1 245.2466 256.59741 L 245.43208 256.24762 A 15.462125 15.462125 0 0 1 259.0915 248.02931 L 272.64388 248.02931 L 272.64388 244.59609 C 269.29413 241.4069 264.75256 239.48236 260.01516 239.48236 z M 208.7086 272.98424 C 210.60094 276.45042 212.502 279.91933 214.51569 283.40713 C 216.52925 286.89471 218.58225 290.27536 220.63772 293.64704 C 213.72892 293.05325 207.03509 292.32175 200.59983 291.44121 C 203.05493 285.42789 205.7684 279.2643 208.7086 272.98424 z M 278.14101 367.6442 C 278.67934 368.15774 279.22341 368.70581 279.75928 369.20521 C 282.166 371.44815 284.5376 373.52012 286.89086 375.49903 L 286.89086 367.6442 L 278.14101 367.6442 z "
     transform="matrix(1.5690001,0,0,1.5690001,-156.29194,-148.75176)" /></svg>
