<?xml version="1.0" encoding="UTF-8" standalone="no"?>
<!-- Created with Inkscape (http://www.inkscape.org/) -->

<svg
   width="500"
   height="500"
   viewBox="0 0 500 500"
   version="1.1"
   id="svg1"
   inkscape:version="1.3.2 (091e20ef0f, 2023-11-25, custom)"
   sodipodi:docname="asm.svg"
   xml:space="preserve"
   xmlns:inkscape="http://www.inkscape.org/namespaces/inkscape"
   xmlns:sodipodi="http://sodipodi.sourceforge.net/DTD/sodipodi-0.dtd"
   xmlns:xlink="http://www.w3.org/1999/xlink"
   xmlns="http://www.w3.org/2000/svg"
   xmlns:svg="http://www.w3.org/2000/svg"><sodipodi:namedview
     id="namedview1"
     pagecolor="#505050"
     bordercolor="#eeeeee"
     borderopacity="1"
     inkscape:showpageshadow="0"
     inkscape:pageopacity="0"
     inkscape:pagecheckerboard="0"
     inkscape:deskcolor="#505050"
     inkscape:document-units="px"
     inkscape:zoom="1"
     inkscape:cx="291.5"
     inkscape:cy="301.5"
     inkscape:window-width="1362"
     inkscape:window-height="744"
     inkscape:window-x="0"
     inkscape:window-y="20"
     inkscape:window-maximized="1"
     inkscape:current-layer="svg1"
     showguides="true"><sodipodi:guide
       position="249.31924,284.34741"
       orientation="-0.99997769,0.0066803918"
       id="guide30"
       inkscape:locked="false" /><sodipodi:guide
       position="66.396728,247.89992"
       orientation="0,-1"
       id="guide53"
       inkscape:locked="false" /></sodipodi:namedview><defs
     id="defs1"><linearGradient
       id="linearGradient1"
       inkscape:collect="always"><stop
         style="stop-color:#ff8c40;stop-opacity:1;"
         offset="0"
         id="stop1" /><stop
         style="stop-color:#f1ff54;stop-opacity:1;"
         offset="1"
         id="stop2" /></linearGradient><linearGradient
       id="swatch61"
       inkscape:swatch="solid"><stop
         style="stop-color:#5090d0;stop-opacity:1;"
         offset="0"
         id="stop61" /></linearGradient><linearGradient
       id="swatch30"
       inkscape:swatch="solid"><stop
         style="stop-color:#f9f9f9;stop-opacity:1;"
         offset="0"
         id="stop30" /></linearGradient><inkscape:perspective
       sodipodi:type="inkscape:persp3d"
       inkscape:vp_x="44.06818 : 315.96746 : 1"
       inkscape:vp_y="0 : 1000 : 0"
       inkscape:vp_z="480.74134 : 298.68846 : 1"
       inkscape:persp3d-origin="250 : 166.66667 : 1"
       id="perspective17" /><inkscape:perspective
       sodipodi:type="inkscape:persp3d"
       inkscape:vp_x="44.06818 : 315.96746 : 1"
       inkscape:vp_y="0 : 1000 : 0"
       inkscape:vp_z="480.74134 : 298.68846 : 1"
       inkscape:persp3d-origin="250 : 166.66667 : 1"
       id="perspective17-1" /><inkscape:perspective
       sodipodi:type="inkscape:persp3d"
       inkscape:vp_x="44.06818 : 315.96746 : 1"
       inkscape:vp_y="0 : 1000 : 0"
       inkscape:vp_z="480.74134 : 298.68846 : 1"
       inkscape:persp3d-origin="250 : 166.66667 : 1"
       id="perspective17-6" /><inkscape:perspective
       sodipodi:type="inkscape:persp3d"
       inkscape:vp_x="44.06818 : 315.96746 : 1"
       inkscape:vp_y="0 : 1000 : 0"
       inkscape:vp_z="480.74134 : 298.68846 : 1"
       inkscape:persp3d-origin="250 : 166.66667 : 1"
       id="perspective17-4" /><inkscape:perspective
       sodipodi:type="inkscape:persp3d"
       inkscape:vp_x="44.06818 : 315.96746 : 1"
       inkscape:vp_y="0 : 1000 : 0"
       inkscape:vp_z="480.74134 : 298.68846 : 1"
       inkscape:persp3d-origin="250 : 166.66667 : 1"
       id="perspective17-5" /><linearGradient
       inkscape:collect="always"
       xlink:href="#linearGradient1"
       id="linearGradient2"
       x1="8.0359631"
       y1="204.11765"
       x2="247.44565"
       y2="465.47977"
       gradientUnits="userSpaceOnUse" /></defs><path
     id="path7"
     style="color:#000000;opacity:1;fill:url(#linearGradient2);fill-opacity:1;stroke-width:0.863576;stroke-linejoin:round;-inkscape-stroke:none;paint-order:markers fill stroke"
     d="m 104.51163,232.76032 v 40.83104 c -5.22279,1.64954 -10.25304,3.7422 -15.0738,6.19684 l -28.838776,-28.83875 -43.087817,43.08779 28.545302,28.54529 c -2.580645,4.90102 -4.765632,10.03469 -6.507213,15.36392 H -0.6761795 v 60.93621 H 39.503808 c 1.738538,5.34573 3.926472,10.49347 6.508861,15.40946 L 17.512934,442.79189 60.600735,485.8797 89.3518,457.12863 c 4.84702,2.47405 9.90572,4.58291 15.15983,6.24237 v 40.69443 h 60.9362 v -41.2797 c 5.04634,-1.69678 9.91696,-3.78471 14.57457,-6.23732 l 29.32959,29.32959 43.08781,-43.0878 -29.62477,-29.62476 c 2.32971,-4.57529 4.32228,-9.34356 5.92869,-14.28278 h 41.8852 v -60.93621 h -41.93075 c -1.60887,-4.92298 -3.5992,-9.67675 -5.92698,-14.23722 l 29.67199,-29.67199 -43.08781,-43.08779 -29.42066,29.42068 c -4.63137,-2.4329 -9.47187,-4.50729 -14.48688,-6.1935 v -41.41631 z m 29.61126,89.49838 a 49.866967,46.22301 0 0 1 49.86657,46.22164 49.866967,46.22301 0 0 1 -49.86657,46.22335 49.866967,46.22301 0 0 1 -49.86654,-46.22335 49.866967,46.22301 0 0 1 49.86654,-46.22164 z" /><use
     x="0"
     y="0"
     xlink:href="#path7"
     id="use2"
     transform="translate(141.68909,-232.75453)" /><use
     x="0"
     y="0"
     xlink:href="#use2"
     id="use3"
     transform="matrix(0.85046882,0,0,0.85046882,150.49775,236.27162)" /></svg>
