<?xml version="1.0" encoding="UTF-8" standalone="no"?>
<!-- Created with Inkscape (http://www.inkscape.org/) -->

<svg
   width="500"
   height="500"
   viewBox="0 0 500 500"
   version="1.1"
   id="svg1"
   inkscape:version="1.3.2 (091e20ef0f, 2023-11-25, custom)"
   sodipodi:docname="asm.svg"
   xml:space="preserve"
   xmlns:inkscape="http://www.inkscape.org/namespaces/inkscape"
   xmlns:sodipodi="http://sodipodi.sourceforge.net/DTD/sodipodi-0.dtd"
   xmlns:xlink="http://www.w3.org/1999/xlink"
   xmlns="http://www.w3.org/2000/svg"
   xmlns:svg="http://www.w3.org/2000/svg"><sodipodi:namedview
     id="namedview1"
     pagecolor="#505050"
     bordercolor="#eeeeee"
     borderopacity="1"
     inkscape:showpageshadow="0"
     inkscape:pageopacity="0"
     inkscape:pagecheckerboard="0"
     inkscape:deskcolor="#505050"
     inkscape:document-units="px"
     inkscape:zoom="0.70710678"
     inkscape:cx="424.97118"
     inkscape:cy="287.79246"
     inkscape:window-width="1352"
     inkscape:window-height="734"
     inkscape:window-x="4"
     inkscape:window-y="24"
     inkscape:window-maximized="1"
     inkscape:current-layer="svg1"
     showguides="true"><sodipodi:guide
       position="249.31924,284.34741"
       orientation="-0.99997769,0.0066803918"
       id="guide30"
       inkscape:locked="false" /><sodipodi:guide
       position="66.396728,247.89992"
       orientation="0,-1"
       id="guide53"
       inkscape:locked="false" /></sodipodi:namedview><defs
     id="defs1"><linearGradient
       id="swatch16"
       inkscape:swatch="solid"><stop
         style="stop-color:#ffca44;stop-opacity:1;"
         offset="0"
         id="stop16" /></linearGradient><linearGradient
       id="linearGradient13"
       inkscape:collect="always"><stop
         style="stop-color:#f2d3da;stop-opacity:1;"
         offset="0"
         id="stop13" /><stop
         style="stop-color:#c5b894;stop-opacity:1;"
         offset="1"
         id="stop14" /></linearGradient><linearGradient
       id="linearGradient11"
       inkscape:collect="always"><stop
         style="stop-color:#ffca44;stop-opacity:1;"
         offset="0"
         id="stop11" /><stop
         style="stop-color:#ff6e44;stop-opacity:1;"
         offset="1"
         id="stop12" /></linearGradient><linearGradient
       id="swatch61"
       inkscape:swatch="solid"><stop
         style="stop-color:#5090d0;stop-opacity:1;"
         offset="0"
         id="stop61" /></linearGradient><linearGradient
       id="swatch30"
       inkscape:swatch="solid"><stop
         style="stop-color:#f9f9f9;stop-opacity:1;"
         offset="0"
         id="stop30" /></linearGradient><inkscape:perspective
       sodipodi:type="inkscape:persp3d"
       inkscape:vp_x="44.06818 : 315.96746 : 1"
       inkscape:vp_y="0 : 1000 : 0"
       inkscape:vp_z="480.74134 : 298.68846 : 1"
       inkscape:persp3d-origin="250 : 166.66667 : 1"
       id="perspective17" /><inkscape:perspective
       sodipodi:type="inkscape:persp3d"
       inkscape:vp_x="44.06818 : 315.96746 : 1"
       inkscape:vp_y="0 : 1000 : 0"
       inkscape:vp_z="480.74134 : 298.68846 : 1"
       inkscape:persp3d-origin="250 : 166.66667 : 1"
       id="perspective17-1" /><inkscape:perspective
       sodipodi:type="inkscape:persp3d"
       inkscape:vp_x="44.06818 : 315.96746 : 1"
       inkscape:vp_y="0 : 1000 : 0"
       inkscape:vp_z="480.74134 : 298.68846 : 1"
       inkscape:persp3d-origin="250 : 166.66667 : 1"
       id="perspective17-6" /><inkscape:perspective
       sodipodi:type="inkscape:persp3d"
       inkscape:vp_x="44.06818 : 315.96746 : 1"
       inkscape:vp_y="0 : 1000 : 0"
       inkscape:vp_z="480.74134 : 298.68846 : 1"
       inkscape:persp3d-origin="250 : 166.66667 : 1"
       id="perspective17-4" /><inkscape:perspective
       sodipodi:type="inkscape:persp3d"
       inkscape:vp_x="44.06818 : 315.96746 : 1"
       inkscape:vp_y="0 : 1000 : 0"
       inkscape:vp_z="480.74134 : 298.68846 : 1"
       inkscape:persp3d-origin="250 : 166.66667 : 1"
       id="perspective17-5" /><inkscape:perspective
       sodipodi:type="inkscape:persp3d"
       inkscape:vp_x="44.06818 : 315.96746 : 1"
       inkscape:vp_y="0 : 1000 : 0"
       inkscape:vp_z="480.74134 : 298.68846 : 1"
       inkscape:persp3d-origin="250 : 166.66667 : 1"
       id="perspective17-7" /><linearGradient
       inkscape:collect="always"
       xlink:href="#linearGradient11"
       id="linearGradient12"
       x1="-12.877616"
       y1="37.583527"
       x2="562.60352"
       y2="422.63379"
       gradientUnits="userSpaceOnUse"
       gradientTransform="matrix(1.0687783,0,0,1.0687783,-17.178779,-17.396129)" /><radialGradient
       inkscape:collect="always"
       xlink:href="#linearGradient13"
       id="radialGradient14"
       cx="251.44665"
       cy="251.36158"
       fx="251.44665"
       fy="251.36158"
       r="154.05739"
       gradientUnits="userSpaceOnUse"
       gradientTransform="matrix(0.99369572,0,0,0.99369572,1.7004853,1.4767473)" /><linearGradient
       inkscape:collect="always"
       xlink:href="#swatch16"
       id="linearGradient23"
       gradientUnits="userSpaceOnUse"
       gradientTransform="translate(-23.377078,101.2498)"
       x1="144.48632"
       y1="143.78109"
       x2="402.94491"
       y2="143.78109" /></defs><path
     id="path4"
     style="color:#000000;fill:url(#linearGradient12);stroke-width:1.06878;stroke-linecap:round;stroke-miterlimit:10;-inkscape-stroke:none"
     d="M 146.13137,32.087051 A 19.977658,19.977658 0 0 0 126.15231,52.06402 v 77.25054 H 48.903864 a 19.977658,19.977658 0 0 0 -19.976969,19.97697 19.977658,19.977658 0 0 0 19.976969,19.97696 h 77.248446 v 59.82654 H 48.903864 A 19.977658,19.977658 0 0 0 28.926895,249.072 19.977658,19.977658 0 0 0 48.903864,269.05105 h 77.248446 v 67.54178 H 48.903864 a 19.977658,19.977658 0 0 0 -19.976969,19.97905 19.977658,19.977658 0 0 0 19.976969,19.97698 h 77.248446 v 77.24844 a 19.977658,19.977658 0 0 0 19.97906,19.97698 19.977658,19.977658 0 0 0 19.97697,-19.97698 v -77.24844 h 59.82653 v 77.24844 a 19.977658,19.977658 0 0 0 19.97698,19.97698 19.977658,19.977658 0 0 0 19.97905,-19.97698 v -77.24844 h 67.54178 v 77.24844 a 19.977658,19.977658 0 0 0 19.97696,19.97698 19.977658,19.977658 0 0 0 19.97905,-19.97698 v -77.24844 h 77.24846 a 19.977658,19.977658 0 0 0 19.97697,-19.97698 19.977658,19.977658 0 0 0 -19.97697,-19.97905 h -77.24846 v -67.54178 h 77.24846 A 19.977658,19.977658 0 0 0 470.61412,249.072 19.977658,19.977658 0 0 0 450.63715,229.09503 h -77.24846 v -59.82654 h 77.24846 a 19.977658,19.977658 0 0 0 19.97697,-19.97696 19.977658,19.977658 0 0 0 -19.97697,-19.97697 H 373.38869 V 52.06402 A 19.977658,19.977658 0 0 0 353.40964,32.087051 19.977658,19.977658 0 0 0 333.43268,52.06402 v 77.25054 H 265.8909 V 52.06402 A 19.977658,19.977658 0 0 0 245.91185,32.087051 19.977658,19.977658 0 0 0 225.93487,52.06402 v 77.25054 H 166.10834 V 52.06402 A 19.977658,19.977658 0 0 0 146.13137,32.087051 Z m 19.97697,137.181439 h 59.82653 v 59.82654 h -59.82653 z m 99.78256,0 h 67.54178 v 59.82654 H 265.8909 Z m -99.78256,99.78256 h 59.82653 v 67.54178 h -59.82653 z m 99.78256,0 h 67.54178 v 67.54178 H 265.8909 Z" /><rect
     style="opacity:1;fill:url(#radialGradient14);stroke-width:54.8148;stroke-linecap:round;stroke-miterlimit:10"
     id="rect3"
     width="306.17233"
     height="306.17233"
     x="98.475769"
     y="98.167496"
     ry="35.640194" /></svg>
