<?xml version="1.0" encoding="UTF-8" standalone="no"?>
<!-- Created with Inkscape (http://www.inkscape.org/) -->

<svg
   width="500"
   height="500"
   viewBox="0 0 500 500"
   version="1.1"
   id="svg1"
   inkscape:version="1.3.2 (091e20ef0f, 2023-11-25, custom)"
   sodipodi:docname="audio.svg"
   xml:space="preserve"
   xmlns:inkscape="http://www.inkscape.org/namespaces/inkscape"
   xmlns:sodipodi="http://sodipodi.sourceforge.net/DTD/sodipodi-0.dtd"
   xmlns:xlink="http://www.w3.org/1999/xlink"
   xmlns="http://www.w3.org/2000/svg"
   xmlns:svg="http://www.w3.org/2000/svg"><sodipodi:namedview
     id="namedview1"
     pagecolor="#505050"
     bordercolor="#eeeeee"
     borderopacity="1"
     inkscape:showpageshadow="0"
     inkscape:pageopacity="0"
     inkscape:pagecheckerboard="0"
     inkscape:deskcolor="#505050"
     inkscape:document-units="px"
     inkscape:zoom="0.68158229"
     inkscape:cx="135.71362"
     inkscape:cy="308.84018"
     inkscape:window-width="1362"
     inkscape:window-height="744"
     inkscape:window-x="0"
     inkscape:window-y="20"
     inkscape:window-maximized="0"
     inkscape:current-layer="svg1"
     showguides="true"><sodipodi:guide
       position="249.39593,481.60855"
       orientation="-0.99997769,0.0066803918"
       id="guide30"
       inkscape:locked="false" /><sodipodi:guide
       position="-87.521246,250.03545"
       orientation="0,-1"
       id="guide53"
       inkscape:locked="false" /></sodipodi:namedview><defs
     id="defs1"><linearGradient
       id="linearGradient1"
       inkscape:collect="always"><stop
         style="stop-color:#ff1b1b;stop-opacity:1;"
         offset="0"
         id="stop1" /><stop
         style="stop-color:#fd5662;stop-opacity:1;"
         offset="0.41945991"
         id="stop4" /><stop
         style="stop-color:#e711e9;stop-opacity:1;"
         offset="0.87764716"
         id="stop3" /><stop
         style="stop-color:#3336ff;stop-opacity:1;"
         offset="1"
         id="stop2" /></linearGradient><linearGradient
       id="swatch61"
       inkscape:swatch="solid"><stop
         style="stop-color:#5090d0;stop-opacity:1;"
         offset="0"
         id="stop61" /></linearGradient><linearGradient
       id="swatch30"
       inkscape:swatch="solid"><stop
         style="stop-color:#f9f9f9;stop-opacity:1;"
         offset="0"
         id="stop30" /></linearGradient><inkscape:perspective
       sodipodi:type="inkscape:persp3d"
       inkscape:vp_x="44.06818 : 315.96746 : 1"
       inkscape:vp_y="0 : 1000 : 0"
       inkscape:vp_z="480.74134 : 298.68846 : 1"
       inkscape:persp3d-origin="250 : 166.66667 : 1"
       id="perspective17" /><inkscape:perspective
       sodipodi:type="inkscape:persp3d"
       inkscape:vp_x="44.06818 : 315.96746 : 1"
       inkscape:vp_y="0 : 1000 : 0"
       inkscape:vp_z="480.74134 : 298.68846 : 1"
       inkscape:persp3d-origin="250 : 166.66667 : 1"
       id="perspective17-4" /><inkscape:perspective
       sodipodi:type="inkscape:persp3d"
       inkscape:vp_x="44.06818 : 315.96746 : 1"
       inkscape:vp_y="0 : 1000 : 0"
       inkscape:vp_z="480.74134 : 298.68846 : 1"
       inkscape:persp3d-origin="250 : 166.66667 : 1"
       id="perspective17-1" /><inkscape:perspective
       sodipodi:type="inkscape:persp3d"
       inkscape:vp_x="44.06818 : 315.96746 : 1"
       inkscape:vp_y="0 : 1000 : 0"
       inkscape:vp_z="480.74134 : 298.68846 : 1"
       inkscape:persp3d-origin="250 : 166.66667 : 1"
       id="perspective17-3" /><inkscape:perspective
       sodipodi:type="inkscape:persp3d"
       inkscape:vp_x="44.06818 : 315.96746 : 1"
       inkscape:vp_y="0 : 1000 : 0"
       inkscape:vp_z="480.74134 : 298.68846 : 1"
       inkscape:persp3d-origin="250 : 166.66667 : 1"
       id="perspective17-8" /><linearGradient
       id="paint0_linear"
       x1="6.0002"
       y1="32.9999"
       x2="235"
       y2="344"
       gradientUnits="userSpaceOnUse"
       gradientTransform="matrix(0.07142,0,0,0.07142,1.3398,1.8944)"><stop
         stop-color="#41D1FF"
         id="stop38" /><stop
         stop-color="#41D1FF"
         id="stop9"
         offset="0.43069324"
         style="stop-color:#4ac4fe;stop-opacity:1;" /><stop
         stop-color="#41D1FF"
         id="stop10"
         offset="0.43209678"
         style="stop-color:#b340fe;stop-opacity:1;" /><stop
         offset="1"
         stop-color="#BD34FE"
         id="stop40" /></linearGradient><linearGradient
       id="paint1_linear"
       x1="194.651"
       y1="8.8182"
       x2="236.076"
       y2="292.989"
       gradientUnits="userSpaceOnUse"
       gradientTransform="matrix(1.5133251,0,0,1.5133251,-91.219303,1.6510683)"><stop
         stop-color="#FFEA83"
         id="stop43" /><stop
         stop-color="#FFEA83"
         id="stop11"
         offset="0.31571853"
         style="stop-color:#ffe97d;stop-opacity:1;" /><stop
         offset="0.31571853"
         stop-color="#FFDD35"
         id="stop45" /><stop
         offset="1"
         stop-color="#FFA800"
         id="stop47" /></linearGradient><inkscape:perspective
       sodipodi:type="inkscape:persp3d"
       inkscape:vp_x="44.06818 : 315.96746 : 1"
       inkscape:vp_y="0 : 1000 : 0"
       inkscape:vp_z="480.74134 : 298.68846 : 1"
       inkscape:persp3d-origin="250 : 166.66667 : 1"
       id="perspective17-5" /><linearGradient
       inkscape:collect="always"
       xlink:href="#linearGradient1"
       id="linearGradient2"
       x1="248.29924"
       y1="573.49927"
       x2="248.29924"
       y2="-33.168507"
       gradientUnits="userSpaceOnUse" /></defs><path
     id="path5"
     style="color:#000000;fill:url(#linearGradient2);stroke-linecap:round;stroke-miterlimit:10;-inkscape-stroke:none"
     d="M 246.49414 7.53125 A 16.552999 16.552999 0 0 0 229.94141 24.083984 L 229.94141 478.55078 A 16.552999 16.552999 0 0 0 246.49414 495.10352 A 16.552999 16.552999 0 0 0 263.04688 478.55078 L 263.04688 24.083984 A 16.552999 16.552999 0 0 0 246.49414 7.53125 z M 103.43555 39.957031 A 16.552999 16.552999 0 0 0 86.882812 56.511719 L 86.882812 446.00781 A 16.552999 16.552999 0 0 0 103.43555 462.56055 A 16.552999 16.552999 0 0 0 119.98828 446.00781 L 119.98828 56.511719 A 16.552999 16.552999 0 0 0 103.43555 39.957031 z M 399.89258 64.673828 A 16.552999 16.552999 0 0 0 383.33984 81.228516 L 383.33984 446.00781 A 16.552999 16.552999 0 0 0 399.89258 462.56055 A 16.552999 16.552999 0 0 0 416.44531 446.00781 L 416.44531 81.228516 A 16.552999 16.552999 0 0 0 399.89258 64.673828 z M 178.51953 136.12695 A 16.552999 16.552999 0 0 0 161.9668 152.67969 L 161.9668 335.84766 A 16.552999 16.552999 0 0 0 178.51953 352.40039 A 16.552999 16.552999 0 0 0 195.07227 335.84766 L 195.07227 152.67969 A 16.552999 16.552999 0 0 0 178.51953 136.12695 z M 325.38867 136.12695 A 16.552999 16.552999 0 0 0 308.83594 152.67969 L 308.83594 335.84766 A 16.552999 16.552999 0 0 0 325.38867 352.40039 A 16.552999 16.552999 0 0 0 341.94141 335.84766 L 341.94141 152.67969 A 16.552999 16.552999 0 0 0 325.38867 136.12695 z M 43.275391 195.39844 A 16.552999 16.552999 0 0 0 26.722656 211.95117 L 26.722656 297.71875 A 16.552999 16.552999 0 0 0 43.275391 314.27344 A 16.552999 16.552999 0 0 0 59.830078 297.71875 L 59.830078 211.95117 A 16.552999 16.552999 0 0 0 43.275391 195.39844 z M 465.35742 210.6875 A 16.552999 16.552999 0 0 0 448.80469 227.24023 L 448.80469 271.69336 A 16.552999 16.552999 0 0 0 465.35742 288.24805 A 16.552999 16.552999 0 0 0 481.91016 271.69336 L 481.91016 227.24023 A 16.552999 16.552999 0 0 0 465.35742 210.6875 z " /></svg>
