<?xml version="1.0" encoding="UTF-8" standalone="no"?>
<!-- Created with Inkscape (http://www.inkscape.org/) -->

<svg
   width="500"
   height="500"
   viewBox="0 0 500 500"
   version="1.1"
   id="svg1"
   inkscape:version="1.3.2 (091e20ef0f, 2023-11-25, custom)"
   sodipodi:docname="auth.js.svg"
   xmlns:inkscape="http://www.inkscape.org/namespaces/inkscape"
   xmlns:sodipodi="http://sodipodi.sourceforge.net/DTD/sodipodi-0.dtd"
   xmlns="http://www.w3.org/2000/svg"
   xmlns:svg="http://www.w3.org/2000/svg">
  <sodipodi:namedview
     id="namedview1"
     pagecolor="#505050"
     bordercolor="#eeeeee"
     borderopacity="1"
     inkscape:showpageshadow="0"
     inkscape:pageopacity="0"
     inkscape:pagecheckerboard="0"
     inkscape:deskcolor="#505050"
     inkscape:document-units="px"
     inkscape:zoom="0.96390292"
     inkscape:cx="279.59247"
     inkscape:cy="234.98217"
     inkscape:window-width="1362"
     inkscape:window-height="744"
     inkscape:window-x="0"
     inkscape:window-y="20"
     inkscape:window-maximized="1"
     inkscape:current-layer="layer1"
     showguides="true"
     showgrid="false">
    <sodipodi:guide
       position="250.02518,350.60736"
       orientation="-0.99997769,0.0066803918"
       id="guide30"
       inkscape:locked="false" />
    <sodipodi:guide
       position="66.396728,247.89992"
       orientation="0,-1"
       id="guide53"
       inkscape:locked="false" />
  </sodipodi:namedview>
  <defs
     id="defs1">
    <linearGradient
       id="swatch61"
       inkscape:swatch="solid">
      <stop
         style="stop-color:#5090d0;stop-opacity:1;"
         offset="0"
         id="stop61" />
    </linearGradient>
    <linearGradient
       id="swatch30"
       inkscape:swatch="solid">
      <stop
         style="stop-color:#f9f9f9;stop-opacity:1;"
         offset="0"
         id="stop30" />
    </linearGradient>
    <inkscape:perspective
       sodipodi:type="inkscape:persp3d"
       inkscape:vp_x="44.06818 : 315.96746 : 1"
       inkscape:vp_y="0 : 1000 : 0"
       inkscape:vp_z="480.74134 : 298.68846 : 1"
       inkscape:persp3d-origin="250 : 166.66667 : 1"
       id="perspective17" />
  </defs>
  <g
     inkscape:label="Layer 1"
     inkscape:groupmode="layer"
     id="layer1">
    <path
       sodipodi:type="star"
       style="display:none;fill:#ffc340;fill-opacity:1;stroke:none;stroke-width:45.324;stroke-linecap:round;stroke-linejoin:round;stroke-miterlimit:10;stroke-opacity:1"
       id="path1"
       inkscape:flatsided="false"
       sodipodi:sides="3"
       sodipodi:cx="249.22737"
       sodipodi:cy="254.39948"
       sodipodi:r1="143.30301"
       sodipodi:r2="200.02232"
       sodipodi:arg1="-1.5506052"
       sodipodi:arg2="-0.49590394"
       inkscape:rounded="0"
       inkscape:randomized="0"
       d="M 252.12062,111.12568 425.1548,159.22347 371.85949,328.542 243.68849,454.34509 123.702,323.53074 78.838824,149.62986 Z"
       inkscape:transform-center-x="-4.8016296"
       inkscape:transform-center-y="-22.662468"
       transform="matrix(1.3642706,0,0,1.3020364,-90.954842,-130.39793)" />
    <path
       id="path3"
       style="fill:#ffc340;stroke-width:45.324;stroke-linecap:round;stroke-linejoin:round;stroke-miterlimit:10"
       inkscape:transform-center-x="-4.8016296"
       inkscape:transform-center-y="-22.662468"
       d="M 252.12058 111.12512 L 78.83946 149.63 L 123.70232 323.53127 L 222.48307 431.22615 L 226.85382 419.39673 A 29.322629 30.724179 0 0 1 262.77618 401.76809 L 262.77618 310.96082 A 29.322629 30.724179 0 0 1 292.09587 280.23971 L 307.6691 280.23971 A 29.322629 30.724179 0 0 1 336.98879 310.96082 L 336.98879 326.78789 C 347.6385 321.81263 359.21634 319.95064 371.08439 319.95064 C 372.23926 319.95064 373.38904 319.99105 374.53891 320.02715 L 425.15547 159.22285 L 252.12058 111.12512 z "
       transform="matrix(1.3642706,0,0,1.3020364,-90.954842,-130.39793)" />
    <path
       d="m 281.4348,454.68379 c 30.20401,0 47.35374,-19.19747 47.35374,-53.7529 V 274.4836 h -21.24519 v 128.75099 c 0,20.98922 -9.47075,32.76367 -26.62048,32.76367 -7.67899,0 -17.91763,-2.3037 -25.08469,-5.88722 l -6.14319,15.8699 c 10.23865,6.14319 20.98923,8.70285 31.73981,8.70285 z m 126.44747,0 c 30.45998,0 49.14551,-14.33411 49.14551,-37.1151 0,-45.30601 -73.71826,-28.41224 -73.71826,-56.31256 0,-10.75058 11.51848,-17.66166 29.94804,-17.66166 10.49462,0 22.78099,2.30369 33.2756,5.88722 l 4.86336,-16.6378 c -10.49461,-4.35143 -23.03695,-6.65512 -36.09123,-6.65512 -31.99577,0 -52.47306,14.07814 -52.47306,37.37106 0,44.28215 73.46229,25.85258 73.46229,56.05659 0,11.26251 -9.98268,17.66167 -26.87645,17.66167 -13.05428,0 -30.45998,-3.58353 -43.51425,-9.21478 l -4.86336,16.6378 c 14.07814,6.39915 31.22788,9.98268 46.84181,9.98268 z"
       id="text1"
       style="font-size:240px;font-family:System-ui;-inkscape-font-specification:System-ui;fill:none;fill-opacity:0.313725;stroke:#ffc340;stroke-width:25.0943;stroke-linejoin:round;paint-order:markers fill stroke;stroke-opacity:1"
       aria-label="Js" />
  </g>
</svg>
