<?xml version="1.0" encoding="UTF-8" standalone="no"?>
<!-- Created with Inkscape (http://www.inkscape.org/) -->

<svg
   width="500"
   height="500"
   viewBox="0 0 500 500"
   version="1.1"
   id="svg1"
   inkscape:version="1.3.2 (091e20ef0f, 2023-11-25, custom)"
   sodipodi:docname="auth.ts.svg"
   xml:space="preserve"
   xmlns:inkscape="http://www.inkscape.org/namespaces/inkscape"
   xmlns:sodipodi="http://sodipodi.sourceforge.net/DTD/sodipodi-0.dtd"
   xmlns="http://www.w3.org/2000/svg"
   xmlns:svg="http://www.w3.org/2000/svg"><sodipodi:namedview
     id="namedview1"
     pagecolor="#505050"
     bordercolor="#eeeeee"
     borderopacity="1"
     inkscape:showpageshadow="0"
     inkscape:pageopacity="0"
     inkscape:pagecheckerboard="0"
     inkscape:deskcolor="#505050"
     inkscape:document-units="px"
     inkscape:zoom="0.96390292"
     inkscape:cx="279.59247"
     inkscape:cy="234.98217"
     inkscape:window-width="1362"
     inkscape:window-height="744"
     inkscape:window-x="0"
     inkscape:window-y="20"
     inkscape:window-maximized="1"
     inkscape:current-layer="layer1"
     showguides="false"
     showgrid="false"><sodipodi:guide
       position="250.02518,350.60736"
       orientation="-0.99997769,0.0066803918"
       id="guide30"
       inkscape:locked="false" /><sodipodi:guide
       position="66.396728,247.89992"
       orientation="0,-1"
       id="guide53"
       inkscape:locked="false" /></sodipodi:namedview><defs
     id="defs1"><linearGradient
       id="swatch61"
       inkscape:swatch="solid"><stop
         style="stop-color:#5090d0;stop-opacity:1;"
         offset="0"
         id="stop61" /></linearGradient><linearGradient
       id="swatch30"
       inkscape:swatch="solid"><stop
         style="stop-color:#f9f9f9;stop-opacity:1;"
         offset="0"
         id="stop30" /></linearGradient><inkscape:perspective
       sodipodi:type="inkscape:persp3d"
       inkscape:vp_x="44.06818 : 315.96746 : 1"
       inkscape:vp_y="0 : 1000 : 0"
       inkscape:vp_z="480.74134 : 298.68846 : 1"
       inkscape:persp3d-origin="250 : 166.66667 : 1"
       id="perspective17" /><inkscape:perspective
       sodipodi:type="inkscape:persp3d"
       inkscape:vp_x="44.06818 : 315.96746 : 1"
       inkscape:vp_y="0 : 1000 : 0"
       inkscape:vp_z="480.74134 : 298.68846 : 1"
       inkscape:persp3d-origin="250 : 166.66667 : 1"
       id="perspective17-2" /></defs><g
     inkscape:label="Layer 1"
     inkscape:groupmode="layer"
     id="layer1"><path
       sodipodi:type="star"
       style="display:none;fill:#ffc340;fill-opacity:1;stroke:none;stroke-width:45.324;stroke-linecap:round;stroke-linejoin:round;stroke-miterlimit:10;stroke-opacity:1"
       id="path1"
       inkscape:flatsided="false"
       sodipodi:sides="3"
       sodipodi:cx="249.22737"
       sodipodi:cy="254.39948"
       sodipodi:r1="143.30301"
       sodipodi:r2="200.02232"
       sodipodi:arg1="-1.5506052"
       sodipodi:arg2="-0.49590394"
       inkscape:rounded="0"
       inkscape:randomized="0"
       d="M 252.12062,111.12568 425.1548,159.22347 371.85949,328.542 243.68849,454.34509 123.702,323.53074 78.838824,149.62986 Z"
       inkscape:transform-center-x="-4.8016296"
       inkscape:transform-center-y="-22.662468"
       transform="matrix(1.3642706,0,0,1.3020364,-90.954842,-130.39793)" /><path
       id="path3"
       style="fill:#3178c6;stroke-width:45.324;stroke-linecap:round;stroke-linejoin:round;stroke-miterlimit:10;fill-opacity:1"
       inkscape:transform-center-x="-4.8016296"
       inkscape:transform-center-y="-22.662468"
       d="M 252.12058 111.12512 L 78.83946 149.63 L 123.70232 323.53127 L 237.58529 447.69075 L 237.58529 362.85969 L 225.41933 362.85969 A 29.322629 30.724179 0 0 1 196.09964 332.13858 L 196.09964 318.59009 A 29.322629 30.724179 0 0 1 225.41933 287.86899 L 323.47854 287.86899 A 29.322629 30.724179 0 0 1 352.79824 318.59009 L 352.79824 327.79443 C 358.92746 326.47499 365.22704 325.88036 371.6098 325.88036 C 371.97068 325.88036 372.32883 325.90075 372.68925 325.90436 L 425.15547 159.22285 L 252.12058 111.12512 z "
       transform="matrix(1.3642706,0,0,1.3020364,-90.954842,-130.39793)" /><path
       d="m 273.17644,454.45949 h 20.33645 V 302.05858 h 56.84407 V 284.41731 H 216.57738 v 17.64127 h 56.59906 z m 135.73971,2.45018 c 29.15709,0 47.04337,-13.72099 47.04337,-35.52755 0,-43.3681 -70.56506,-27.19695 -70.56506,-53.90386 0,-10.29074 11.02579,-16.90621 28.66706,-16.90621 10.04572,0 21.80656,2.20516 31.85228,5.6354 l 4.65533,-15.92614 c -10.04572,-4.16529 -22.05158,-6.37045 -34.54747,-6.37045 -30.6272,0 -50.2286,13.47596 -50.2286,35.77256 0,42.38804 70.32003,24.74677 70.32003,53.65884 0,10.78077 -9.55568,16.90621 -25.72684,16.90621 -12.49589,0 -29.15709,-3.43024 -41.65298,-8.82063 l -4.65533,15.92614 c 13.47596,6.12544 29.89214,9.55569 44.83821,9.55569 z"
       id="text1-5"
       style="font-size:240px;font-family:System-ui;-inkscape-font-specification:System-ui;fill:#40b2ff;fill-opacity:0.313725;stroke:#3178c6;stroke-width:24.0209;stroke-linejoin:round;paint-order:markers fill stroke"
       aria-label="Ts" /></g></svg>
