<?xml version="1.0" encoding="UTF-8" standalone="no"?>
<!-- Created with Inkscape (http://www.inkscape.org/) -->

<svg
   width="500"
   height="500"
   viewBox="0 0 500 500"
   version="1.1"
   id="svg1"
   inkscape:version="1.3.2 (091e20ef0f, 2023-11-25, custom)"
   sodipodi:docname="auth.ts.svg"
   xml:space="preserve"
   xmlns:inkscape="http://www.inkscape.org/namespaces/inkscape"
   xmlns:sodipodi="http://sodipodi.sourceforge.net/DTD/sodipodi-0.dtd"
   xmlns:xlink="http://www.w3.org/1999/xlink"
   xmlns="http://www.w3.org/2000/svg"
   xmlns:svg="http://www.w3.org/2000/svg"><sodipodi:namedview
     id="namedview1"
     pagecolor="#505050"
     bordercolor="#eeeeee"
     borderopacity="1"
     inkscape:showpageshadow="0"
     inkscape:pageopacity="0"
     inkscape:pagecheckerboard="0"
     inkscape:deskcolor="#505050"
     inkscape:document-units="px"
     inkscape:zoom="0.96390292"
     inkscape:cx="321.60915"
     inkscape:cy="229.79493"
     inkscape:window-width="1352"
     inkscape:window-height="734"
     inkscape:window-x="4"
     inkscape:window-y="24"
     inkscape:window-maximized="1"
     inkscape:current-layer="svg1"
     showguides="false"
     showgrid="false"><sodipodi:guide
       position="250.02518,350.60736"
       orientation="-0.99997769,0.0066803918"
       id="guide30"
       inkscape:locked="false" /><sodipodi:guide
       position="66.396728,247.89992"
       orientation="0,-1"
       id="guide53"
       inkscape:locked="false" /></sodipodi:namedview><defs
     id="defs1"><linearGradient
       id="swatch61"
       inkscape:swatch="solid"><stop
         style="stop-color:#5090d0;stop-opacity:1;"
         offset="0"
         id="stop61" /></linearGradient><linearGradient
       id="swatch30"
       inkscape:swatch="solid"><stop
         style="stop-color:#f9f9f9;stop-opacity:1;"
         offset="0"
         id="stop30" /></linearGradient><inkscape:perspective
       sodipodi:type="inkscape:persp3d"
       inkscape:vp_x="44.06818 : 315.96746 : 1"
       inkscape:vp_y="0 : 1000 : 0"
       inkscape:vp_z="480.74134 : 298.68846 : 1"
       inkscape:persp3d-origin="250 : 166.66667 : 1"
       id="perspective17" /><inkscape:perspective
       sodipodi:type="inkscape:persp3d"
       inkscape:vp_x="44.06818 : 315.96746 : 1"
       inkscape:vp_y="0 : 1000 : 0"
       inkscape:vp_z="480.74134 : 298.68846 : 1"
       inkscape:persp3d-origin="250 : 166.66667 : 1"
       id="perspective17-2" /><linearGradient
       inkscape:collect="always"
       xlink:href="#linearGradient6"
       id="linearGradient7"
       x1="68.87133"
       y1="304.19348"
       x2="465.80612"
       y2="63.077267"
       gradientUnits="userSpaceOnUse" /><linearGradient
       id="linearGradient6"
       inkscape:collect="always"><stop
         style="stop-color:#00d9f0;stop-opacity:0.79263556;"
         offset="0"
         id="stop6" /><stop
         style="stop-color:#d572ff;stop-opacity:1;"
         offset="0.69805926"
         id="stop7" /></linearGradient></defs><g
     inkscape:label="Layer 1"
     id="layer1-5"
     transform="matrix(1.1809688,0,0,1.1809688,-80.811265,-78.21897)"><path
       id="path2"
       style="fill:#7a36e7;fill-opacity:1;stroke-width:60;stroke-linecap:round;stroke-linejoin:round;stroke-miterlimit:10;paint-order:stroke markers fill"
       inkscape:transform-center-y="-41.162295"
       transform="matrix(0.85051725,0,0,0.85051725,66.7989,58.246707)"
       d="M 245.3998,21.764304 488.41382,79.566632 418.03182,304.67449 246.46653,486.22964 86.708404,312.72312 15.25968,73.365641 Z" /><path
       id="path3-3"
       style="fill:#9c69ec;fill-opacity:1;stroke-width:60;stroke-linecap:round;stroke-linejoin:round;stroke-miterlimit:10;paint-order:stroke markers fill"
       inkscape:transform-center-y="-41.162295"
       d="M 245.39976,21.764527 15.259472,73.364561 86.707262,312.72258 246.46758,486.22913 l 2.33544,-2.47092 V 22.575155 Z"
       transform="matrix(0.85051725,0,0,0.85051725,66.7989,58.246707)" /><path
       id="path5"
       style="opacity:1;mix-blend-mode:normal;fill:url(#linearGradient7);fill-opacity:0.351203;stroke-width:60;stroke-linecap:round;stroke-linejoin:round;stroke-miterlimit:10;paint-order:stroke markers fill"
       inkscape:transform-center-y="-41.162295"
       d="M 245.39976,21.764527 66.70335,61.82976 A 415.43223,415.43223 0 0 0 318.52392,409.97498 L 418.03138,304.67371 488.41364,79.567128 Z"
       transform="matrix(0.85051725,0,0,0.85051725,66.7989,58.246707)" /></g><g
     inkscape:label="Layer 1"
     inkscape:groupmode="layer"
     id="layer1"><path
       d="m 273.17644,454.45949 h 20.33645 V 302.05858 h 56.84407 V 284.41731 H 216.57738 v 17.64127 h 56.59906 z m 135.73971,2.45018 c 29.15709,0 47.04337,-13.72099 47.04337,-35.52755 0,-43.3681 -70.56506,-27.19695 -70.56506,-53.90386 0,-10.29074 11.02579,-16.90621 28.66706,-16.90621 10.04572,0 21.80656,2.20516 31.85228,5.6354 l 4.65533,-15.92614 c -10.04572,-4.16529 -22.05158,-6.37045 -34.54747,-6.37045 -30.6272,0 -50.2286,13.47596 -50.2286,35.77256 0,42.38804 70.32003,24.74677 70.32003,53.65884 0,10.78077 -9.55568,16.90621 -25.72684,16.90621 -12.49589,0 -29.15709,-3.43024 -41.65298,-8.82063 l -4.65533,15.92614 c 13.47596,6.12544 29.89214,9.55569 44.83821,9.55569 z"
       id="text1-5"
       style="font-size:240px;font-family:System-ui;-inkscape-font-specification:System-ui;fill:#40b2ff;fill-opacity:0.313725;stroke:#3178c6;stroke-width:24.0209;stroke-linejoin:round;paint-order:markers fill stroke"
       aria-label="Ts" /></g></svg>
