<?xml version="1.0" encoding="UTF-8" standalone="no"?>
<!-- Created with Inkscape (http://www.inkscape.org/) -->

<svg
   width="500"
   height="500"
   viewBox="0 0 500 500"
   version="1.1"
   id="svg1"
   inkscape:version="1.3.2 (091e20ef0f, 2023-11-25, custom)"
   sodipodi:docname="babel.svg"
   xml:space="preserve"
   xmlns:inkscape="http://www.inkscape.org/namespaces/inkscape"
   xmlns:sodipodi="http://sodipodi.sourceforge.net/DTD/sodipodi-0.dtd"
   xmlns="http://www.w3.org/2000/svg"
   xmlns:svg="http://www.w3.org/2000/svg"><sodipodi:namedview
     id="namedview1"
     pagecolor="#505050"
     bordercolor="#eeeeee"
     borderopacity="1"
     inkscape:showpageshadow="0"
     inkscape:pageopacity="0"
     inkscape:pagecheckerboard="0"
     inkscape:deskcolor="#505050"
     inkscape:document-units="px"
     inkscape:zoom="0.96390292"
     inkscape:cx="100.63254"
     inkscape:cy="284.77972"
     inkscape:window-width="1362"
     inkscape:window-height="744"
     inkscape:window-x="0"
     inkscape:window-y="20"
     inkscape:window-maximized="0"
     inkscape:current-layer="svg1"
     showguides="true"><sodipodi:guide
       position="250.02518,350.60736"
       orientation="-0.99997769,0.0066803918"
       id="guide30"
       inkscape:locked="false" /><sodipodi:guide
       position="66.396728,247.89992"
       orientation="0,-1"
       id="guide53"
       inkscape:locked="false" /></sodipodi:namedview><defs
     id="defs1"><linearGradient
       id="swatch61"
       inkscape:swatch="solid"><stop
         style="stop-color:#5090d0;stop-opacity:1;"
         offset="0"
         id="stop61" /></linearGradient><linearGradient
       id="swatch30"
       inkscape:swatch="solid"><stop
         style="stop-color:#f9f9f9;stop-opacity:1;"
         offset="0"
         id="stop30" /></linearGradient><inkscape:perspective
       sodipodi:type="inkscape:persp3d"
       inkscape:vp_x="44.06818 : 315.96746 : 1"
       inkscape:vp_y="0 : 1000 : 0"
       inkscape:vp_z="480.74134 : 298.68846 : 1"
       inkscape:persp3d-origin="250 : 166.66667 : 1"
       id="perspective17" /><inkscape:perspective
       sodipodi:type="inkscape:persp3d"
       inkscape:vp_x="44.06818 : 315.96746 : 1"
       inkscape:vp_y="0 : 1000 : 0"
       inkscape:vp_z="480.74134 : 298.68846 : 1"
       inkscape:persp3d-origin="250 : 166.66667 : 1"
       id="perspective17-4" /><inkscape:perspective
       sodipodi:type="inkscape:persp3d"
       inkscape:vp_x="44.06818 : 315.96746 : 1"
       inkscape:vp_y="0 : 1000 : 0"
       inkscape:vp_z="480.74134 : 298.68846 : 1"
       inkscape:persp3d-origin="250 : 166.66667 : 1"
       id="perspective17-1" /><inkscape:perspective
       sodipodi:type="inkscape:persp3d"
       inkscape:vp_x="44.06818 : 315.96746 : 1"
       inkscape:vp_y="0 : 1000 : 0"
       inkscape:vp_z="480.74134 : 298.68846 : 1"
       inkscape:persp3d-origin="250 : 166.66667 : 1"
       id="perspective17-3" /><inkscape:perspective
       sodipodi:type="inkscape:persp3d"
       inkscape:vp_x="44.06818 : 315.96746 : 1"
       inkscape:vp_y="0 : 1000 : 0"
       inkscape:vp_z="480.74134 : 298.68846 : 1"
       inkscape:persp3d-origin="250 : 166.66667 : 1"
       id="perspective17-8" /><linearGradient
       id="paint0_linear"
       x1="6.0002"
       y1="32.9999"
       x2="235"
       y2="344"
       gradientUnits="userSpaceOnUse"
       gradientTransform="matrix(0.07142,0,0,0.07142,1.3398,1.8944)"><stop
         stop-color="#41D1FF"
         id="stop38" /><stop
         stop-color="#41D1FF"
         id="stop9"
         offset="0.43069324"
         style="stop-color:#4ac4fe;stop-opacity:1;" /><stop
         stop-color="#41D1FF"
         id="stop10"
         offset="0.43209678"
         style="stop-color:#b340fe;stop-opacity:1;" /><stop
         offset="1"
         stop-color="#BD34FE"
         id="stop40" /></linearGradient><linearGradient
       id="paint1_linear"
       x1="194.651"
       y1="8.8182"
       x2="236.076"
       y2="292.989"
       gradientUnits="userSpaceOnUse"
       gradientTransform="matrix(1.5133251,0,0,1.5133251,-91.219303,1.6510683)"><stop
         stop-color="#FFEA83"
         id="stop43" /><stop
         stop-color="#FFEA83"
         id="stop11"
         offset="0.31571853"
         style="stop-color:#ffe97d;stop-opacity:1;" /><stop
         offset="0.31571853"
         stop-color="#FFDD35"
         id="stop45" /><stop
         offset="1"
         stop-color="#FFA800"
         id="stop47" /></linearGradient><inkscape:perspective
       sodipodi:type="inkscape:persp3d"
       inkscape:vp_x="44.06818 : 315.96746 : 1"
       inkscape:vp_y="0 : 1000 : 0"
       inkscape:vp_z="480.74134 : 298.68846 : 1"
       inkscape:persp3d-origin="250 : 166.66667 : 1"
       id="perspective17-5" /></defs><path
     id="path1"
     style="fill:#fbc02d;stroke-width:16.8438"
     d="M 321.99023 17.697266 A 487.25648 487.25648 0 0 0 197.91992 51.384766 L 197.73438 51.453125 A 439.7739 439.7739 0 0 1 149.79688 81.6875 L 149.79688 84.71875 A 12.83495 12.83495 0 0 0 154.5293 82.867188 C 156.60106 82.867188 157.89844 83.489238 157.89844 85.527344 L 161.26758 83.675781 L 162.95117 83.675781 L 162.95117 85.123047 A 184.72559 184.72559 0 0 1 129.24805 111.33203 L 131.09961 114.21289 L 129.41602 114.21289 L 125.89648 113 C 125.89648 114.04431 124.44665 114.68509 121.16211 114.85352 L 121.16211 116.53711 L 124.85156 120.63086 A 13.154982 13.154982 0 0 1 119.98438 119.56836 A 32.003156 32.003156 0 0 0 98.574219 135.43555 L 100.42773 138.31641 A 43.979074 43.979074 0 0 1 111.10742 129.89453 L 111.51172 134.39062 A 14.334045 14.334045 0 0 0 106.77734 136.24414 L 110.70312 142.00586 A 115.16083 115.16083 0 0 1 135.14258 121.64062 C 139.63984 122.85338 141.88086 124.11739 141.88086 125.73438 L 145.25 125.73438 A 260.96048 260.96048 0 0 1 216.83594 86.994141 L 216.83594 90.109375 C 212.33867 96.695281 209.44122 99.979031 207.82422 100.21484 A 12.481231 12.481231 0 0 0 210.08008 106.16211 A 551.27963 551.27963 0 0 1 178.07812 187.26367 A 2291.4091 2291.4091 0 0 1 54.041016 445.64844 A 12.211731 12.211731 0 0 0 55.892578 450.14453 A 43.06951 43.06951 0 0 0 71.759766 444.19922 L 73.613281 444.19922 L 73.613281 447.31445 L 76.728516 447.31445 L 80.199219 444.92383 C 80.199219 445.96815 81.410409 446.37254 83.566406 446.13672 L 83.566406 449.25195 A 27.657464 27.657464 0 0 1 78.210938 463.45117 A 74.028354 74.028354 0 0 0 67.3125 487.50391 L 67.3125 488.96875 L 70.429688 488.96875 A 197.69529 197.69529 0 0 0 101.06836 444.7207 A 492.07378 492.07378 0 0 0 191.18164 410.74805 A 84.437801 84.437801 0 0 0 206.01953 408.59961 A 16.494649 16.494649 0 0 1 209.27734 393.51367 C 182.98609 402.77172 169.53564 408.71797 169.75781 411.05078 A 495.59414 495.59414 0 0 0 117.89453 433.89062 A 18.966081 18.966081 0 0 1 109.47266 431.63281 A 13.475013 13.475013 0 0 1 116.68164 418.47852 A 26.175214 26.175214 0 0 1 129.83789 420.55078 A 127.05253 127.05253 0 0 1 155.33789 412.31445 L 155.33789 409.19727 L 145.6543 410.00586 A 138.50629 138.50629 0 0 1 173.84961 396.85156 L 178.80273 396.44727 L 178.80273 398.01367 C 170.56614 398.6369 165.83142 401.38234 164.78711 405.62695 A 2.6950026 2.6950026 0 0 0 168.15625 408.28711 A 39.784976 39.784976 0 0 0 177.16797 401.29883 L 177.35352 401.17969 A 527.20989 527.20989 0 0 0 221.62305 380.82617 L 226.85156 375.5957 L 202.96484 375.5957 A 16.494649 16.494649 0 0 1 190.93164 370.20703 A 368.18789 368.18789 0 0 1 130.94922 394.84766 L 129.0957 394.84766 C 130.78008 389.0871 152.3406 344.65282 194.33203 261.07422 L 194.26367 261.25977 A 361.73672 361.73672 0 0 0 206.91211 258.64453 A 16.494649 16.494649 0 0 1 209.96094 239.88477 L 250.02734 199.81836 A 461.31707 461.31707 0 0 0 232.56641 207.44336 A 11.790637 11.790637 0 0 0 225.98047 206.39844 L 225.98047 203.46875 A 38.117444 38.117444 0 0 1 233.99805 180.94727 L 233.7793 180.8457 C 236.89539 164.00198 240.36568 154.3176 244.27344 152.06055 L 278.43359 75.455078 C 278.02934 70.721991 285.17096 67.032662 300.24609 64.556641 L 305.19727 64.152344 L 305.60156 68.650391 C 320.42406 66.393325 329.48721 65.130812 332.95703 64.726562 C 359.90699 62.469498 374.08827 67.842617 375.35156 81.166016 L 378.46875 81.166016 L 377.84375 73.332031 L 381.21289 73.332031 A 20.498864 20.498864 0 0 1 393.96484 89.369141 A 24.01921 24.01921 0 0 1 386.97461 105.4043 C 384.90283 105.4043 383.60472 104.19078 383.45312 100.90625 L 380.08398 100.90625 L 379.27734 110.1875 C 365.49918 130.77054 355.69434 141.2808 349.44531 141.71875 C 343.88689 149.32088 340.39046 153.25149 338.95312 153.50977 A 188.33015 188.33015 0 0 1 315.25391 172.19141 L 373.38477 172.19141 A 16.494649 16.494649 0 0 1 384.89844 176.92383 C 384.89985 176.92302 384.90093 176.92269 384.90234 176.92188 L 425.84961 140.87695 A 106.36839 106.36839 0 0 0 442.28906 84.113281 L 441.42969 77.982422 C 439.74532 59.690119 426.60692 44.866604 401.50977 33.564453 A 154.96265 154.96265 0 0 0 321.99023 17.697266 z M 220.5918 120.49609 L 221.63477 120.5625 L 222.03906 125.06055 C 220.5905 125.06055 218.51925 127.31764 216.09375 131.64648 L 216.09375 128.51367 A 15.277296 15.277296 0 0 0 220.5918 120.49609 z M 122.61133 122.85352 L 122.61133 124.30273 A 14.334045 14.334045 0 0 0 117.87891 126.1543 L 116.19336 126.1543 L 116.19336 123.25781 L 122.61133 122.85352 z M 206.47656 152.56641 L 207.09961 158.73047 L 205.41602 158.73047 L 204.92578 152.59961 L 206.47656 152.56641 z M 202.55078 163.69922 C 202.14653 168.75233 200.86758 171.53152 198.05469 171.7168 L 196.36914 171.7168 A 15.732077 15.732077 0 0 0 199.03125 163.88477 L 202.55078 163.69922 z M 195.81445 179.73438 L 195.81445 181.18359 L 192.93359 186.13477 L 189.81836 186.13477 L 189.81836 184.77148 A 4.0930352 4.0930352 0 0 0 194.31445 179.81836 L 195.79688 179.81836 L 195.81445 179.73438 z M 295.5918 182.5957 A 461.31707 461.31707 0 0 0 269.35742 191.55469 A 16.494649 16.494649 0 0 1 277.48828 195.68164 L 294.38086 212.57422 L 294.38086 188.68555 A 16.494649 16.494649 0 0 1 295.5918 182.5957 z M 185.70703 194.15234 L 188.82422 194.15234 L 188.01562 201.76758 L 186.33203 201.76758 L 185.70703 194.15234 z M 224.86914 217.17773 L 224.86914 220.05859 L 218.46875 220.68164 L 218.46875 217.80273 L 224.86914 217.17773 z M 341.25 296.99023 C 321.26058 296.99039 306.58989 311.34316 306.58789 327.91406 L 306.58789 327.91602 C 306.58828 334.08052 308.62592 339.93361 312.20508 344.85938 C 318.07807 340.75385 323.59678 336.97599 328.13867 334.10742 C 342.0464 323.91505 353.5951 313.83952 363.14648 303.87305 C 357.28607 299.60862 349.75783 296.9903 341.25 296.99023 z M 136.16211 343.40234 C 134.10279 353.70922 131.70449 359.02059 129.63477 359.1875 L 129.63477 357.74023 A 17.534361 17.534361 0 0 1 136.16211 343.40234 z M 126.82227 363.78711 L 126.82227 365.23633 A 2.8802841 2.8802841 0 0 1 123.94141 368.75586 L 123.94141 367.30664 A 3.0655654 3.0655654 0 0 1 126.51953 363.82031 L 126.82227 363.78711 z M 200.27734 382.0625 A 3.0824092 3.0824092 0 0 1 203.73633 384.78906 A 73.034571 73.034571 0 0 0 181.75 394.45898 L 180.06445 394.45898 L 180.06445 391.34375 A 31.228343 31.228343 0 0 0 200.27734 382.0625 z M 128.70898 406.78906 L 128.70898 408.47266 A 12.83495 12.83495 0 0 0 123.97461 410.32617 L 120.87695 410.32617 A 3.5708784 3.5708784 0 0 1 123.75586 407.19336 L 128.70898 406.78906 z " /><path
     id="path7"
     style="color:#000000;fill:#fbc02d;fill-opacity:1;stroke-width:0.88591;stroke-linejoin:round;-inkscape-stroke:none;paint-order:markers fill stroke"
     d="m 310.87359,188.68489 v 41.88692 c -5.35785,1.69219 -10.51818,3.83897 -15.46362,6.35708 l -29.58453,-29.58453 -44.20206,44.20205 29.28349,29.28347 c -2.64739,5.02775 -4.88888,10.29416 -6.67549,15.76122 h -41.26573 v 62.512 h 41.21902 c 1.78351,5.48396 4.02802,10.76483 6.67719,15.80794 l -29.23675,29.23676 44.20205,44.20205 29.49456,-29.49456 c 4.97237,2.53802 10.16189,4.70141 15.55187,6.4038 v 41.74676 h 62.51199 v -42.34717 c 5.17684,-1.74066 10.17339,-3.88259 14.95146,-6.39862 l 30.08804,30.08806 44.20204,-44.20205 -30.39084,-30.39085 c 2.38995,-4.6936 4.43404,-9.58518 6.08198,-14.65212 h 42.96834 v -62.512 h -43.01505 c -1.65048,-5.0503 -3.69228,-9.927 -6.08026,-14.6054 l 30.43931,-30.43929 -44.20205,-44.20205 -30.18149,30.1815 c -4.75111,-2.49581 -9.71679,-4.62383 -14.86148,-6.35365 v -42.48732 z m 30.377,91.81277 a 51.156509,47.418321 0 0 1 51.15609,47.41693 51.156509,47.418321 0 0 1 -51.15609,47.41866 51.156509,47.418321 0 0 1 -51.15608,-47.41866 51.156509,47.418321 0 0 1 51.15608,-47.41693 z" /><path
     d="m 197.73433,51.45285 a 439.7739,439.7739 0 0 1 -47.93736,30.234571 v 3.03188 a 12.83495,12.83495 0 0 0 4.7331,-1.85282 c 2.07178,0 3.36875,0.62321 3.36875,2.66132 l 3.36876,-1.85282 h 1.68437 v 1.44856 a 184.72559,184.72559 0 0 1 -33.70437,26.208899 l 1.85281,2.88028 h -1.68438 l -3.52034,-1.21275 c 0,1.04431 -1.44856,1.68438 -4.7331,1.85281 v 1.68439 l 3.68879,4.09303 a 13.154982,13.154982 0 0 1 -4.86785,-1.06115 32.003156,32.003156 0 0 0 -21.408432,15.86682 l 1.852822,2.88028 a 43.979074,43.979074 0 0 1 10.67894,-8.42187 l 0.40425,4.49728 a 14.334045,14.334045 0 0 0 -4.73309,1.85281 l 3.92459,5.76057 a 115.16083,115.16083 0 0 1 24.44031,-20.36412 c 4.49728,1.21276 6.7375,2.47604 6.7375,4.09303 h 3.36876 a 260.96048,260.96048 0 0 1 71.586,-38.740649 v 3.11609 c -4.49727,6.58592 -7.39441,9.870452 -9.01141,10.106269 a 12.481231,12.481231 0 0 0 2.25707,5.94586 551.27963,551.27963 0 0 1 -32.00316,81.10272 2291.4091,2291.4091 0 0 1 -124.037496,258.38337 12.211731,12.211731 0 0 0 1.852816,4.49728 43.06951,43.06951 0 0 0 15.866824,-5.94584 h 1.852814 v 3.11609 h 3.116097 l 3.469816,-2.39181 c 0,1.04432 1.212752,1.44857 3.368753,1.21275 v 3.11611 a 27.657464,27.657464 0 0 1 -5.356316,14.19928 74.028354,74.028354 0 0 0 -10.897918,24.0529 v 1.46541 h 3.116096 a 197.69529,197.69529 0 0 0 30.638814,-44.24857 492.07378,492.07378 0 0 0 90.11415,-33.97388 84.437801,84.437801 0 0 0 47.5331,-16.27108 v -1.68437 l -7.83235,2.25706 h -1.85282 v -1.68438 a 71.367038,71.367038 0 0 0 31.53154,-10.2747 c 29.83031,-23.02542 52.21568,-39.27966 67.5772,-48.98167 47.16254,-34.5634 69.34578,-67.89723 66.68446,-99.5635 a 186.25837,186.25837 0 0 0 -31.09359,-38.87541 c -0.40425,-4.49729 6.73751,-10.49368 21.17261,-18.74712 l 40.9472,-36.04566 A 106.36839,106.36839 0 0 0 442.28898,84.112911 L 441.42994,77.98179 C 439.74557,59.689451 426.60743,44.866943 401.51022,33.56477 A 154.96265,154.96265 0 0 0 321.99079,17.697944 487.25648,487.25648 0 0 0 197.91962,51.385475 Z m 36.04565,129.39381 c 3.11611,-16.84376 6.58592,-26.52892 10.49368,-28.78599 l 34.15916,-76.60545 c -0.40425,-4.733097 6.7375,-8.421885 21.81267,-10.897912 l 4.95207,-0.40426 0.40425,4.497298 c 14.82252,-2.25707 23.88446,-3.520355 27.35428,-3.924605 26.95002,-2.25707 41.13247,3.116095 42.39576,16.43952 h 3.11609 l -0.62322,-7.832352 h 3.36876 a 20.498864,20.498864 0 0 1 12.75073,16.035262 24.01921,24.01921 0 0 1 -6.99017,16.035269 c -2.07178,0 -3.36874,-1.21275 -3.52034,-4.49728 h -3.36875 l -0.80851,9.2809 c -13.7782,20.58308 -23.58128,31.09359 -29.83031,31.53154 q -8.33766,11.40322 -10.49366,11.79063 a 188.33015,188.33015 0 0 1 -35.37191,26.36049 461.31707,461.31707 0 0 0 -71.01332,27.57325 11.790637,11.790637 0 0 0 -6.58592,-1.04432 v -2.93082 a 38.117444,38.117444 0 0 1 8.01765,-22.5201 z M 122.61114,122.85358 v 1.44856 a 14.334045,14.334045 0 0 0 -4.73311,1.8528 h -1.68437 v -2.89711 z m 99.0245,-2.29076 0.40425,4.49729 c -1.44856,0 -3.52035,2.25706 -5.94585,6.58592 v -3.13295 a 15.277296,15.277296 0 0 0 4.49729,-8.01763 z m -15.1594,32.00317 0.62322,6.16481 h -1.68437 l -0.48847,-6.13114 z m -3.92459,11.13372 c -0.40425,5.05313 -1.68438,7.83235 -4.49729,8.01763 h -1.68437 a 15.732077,15.732077 0 0 0 2.66131,-7.83235 z m -6.73751,16.03526 v 1.44856 l -2.88028,4.95207 h -3.1161 v -1.36434 a 4.0930352,4.0930352 0 0 0 4.49729,-4.95207 h 1.48225 z m -6.99016,14.41826 -0.80851,7.61339 h -1.68437 l -0.62322,-7.61339 z m 36.04566,23.02544 v 2.88028 l -6.40063,0.62322 v -2.88028 z m -30.60513,44.08013 a 361.73672,361.73672 0 0 0 87.41915,-25.90571 l 9.68517,-0.8085 a 56.005524,56.005524 0 0 1 45.05707,11.53798 l 0.62322,6.16482 c -7.39441,21.40843 -15.63101,33.68753 -24.45715,37.66266 l -41.13248,32.71059 a 402.24599,402.24599 0 0 1 -49.55435,30.45353 368.18789,368.18789 0 0 1 -90.95634,41.77254 h -1.85281 c 1.68438,-5.76056 23.24439,-50.19442 65.2359,-133.77318 z m 44.41702,-17.48383 v 1.44857 l -6.58591,0.62322 v -1.44857 z M 136.2209,343.1532 c -2.07178,10.49366 -4.49728,15.86682 -6.58591,16.03525 v -1.44855 a 17.534361,17.534361 0 0 1 6.7375,-14.60355 z m 41.13247,58.02677 a 527.20989,527.20989 0 0 0 98.35075,-51.45771 v 2.88029 c 0,1.21275 -4.49728,5.05313 -13.7782,11.94223 a 250.04571,250.04571 0 0 0 -48.15633,27.35427 c -29.64502,10.27471 -44.24856,16.67533 -44.01275,19.15137 a 495.59414,495.59414 0 0 0 -51.86196,22.84015 18.966081,18.966081 0 0 1 -8.42188,-2.25706 13.475013,13.475013 0 0 1 7.20913,-13.15499 26.175214,26.175214 0 0 1 13.15498,2.07178 127.05253,127.05253 0 0 1 25.50146,-8.2366 v -3.11609 l -9.68516,0.8085 a 138.50629,138.50629 0 0 1 28.19645,-13.15499 l 4.95208,-0.40426 v 1.56648 c -8.23661,0.62323 -12.96971,3.36876 -14.01402,7.61339 a 2.6950026,2.6950026 0 0 0 3.36875,2.66131 39.784976,39.784976 0 0 0 9.01141,-6.99016 z m -50.53129,-37.39316 v 1.44856 a 2.8802841,2.8802841 0 0 1 -2.88029,3.52035 v -1.44856 a 3.0655654,3.0655654 0 0 1 2.5771,-3.48667 z m 76.95916,20.98733 a 73.034571,73.034571 0 0 0 -22.03164,9.68516 h -1.68438 v -3.11608 a 31.228343,31.228343 0 0 0 20.21252,-9.28093 3.0824092,3.0824092 0 0 1 3.52034,2.8466 z m -80.02473,22.41905 4.95207,-0.40425 v 1.68438 a 12.83495,12.83495 0 0 0 -4.7331,1.85281 h -3.09925 a 3.5708784,3.5708784 0 0 1 2.88028,-3.13294 z"
     style="display:none;fill:#fbc02d;stroke-width:16.8438"
     id="path13" /></svg>
