<?xml version="1.0" encoding="UTF-8" standalone="no"?>
<!-- Created with Inkscape (http://www.inkscape.org/) -->

<svg
   width="500"
   height="500"
   viewBox="0 0 500 500"
   version="1.1"
   id="svg1"
   inkscape:version="1.3.2 (091e20ef0f, 2023-11-25, custom)"
   sodipodi:docname="bin.svg"
   xmlns:inkscape="http://www.inkscape.org/namespaces/inkscape"
   xmlns:sodipodi="http://sodipodi.sourceforge.net/DTD/sodipodi-0.dtd"
   xmlns="http://www.w3.org/2000/svg"
   xmlns:svg="http://www.w3.org/2000/svg">
  <sodipodi:namedview
     id="namedview1"
     pagecolor="#505050"
     bordercolor="#eeeeee"
     borderopacity="1"
     inkscape:showpageshadow="0"
     inkscape:pageopacity="0"
     inkscape:pagecheckerboard="0"
     inkscape:deskcolor="#505050"
     inkscape:document-units="px"
     inkscape:zoom="0.96390292"
     inkscape:cx="283.74227"
     inkscape:cy="238.09452"
     inkscape:window-width="1362"
     inkscape:window-height="744"
     inkscape:window-x="0"
     inkscape:window-y="20"
     inkscape:window-maximized="1"
     inkscape:current-layer="layer1"
     showguides="true">
    <sodipodi:guide
       position="250.02518,350.60736"
       orientation="-0.99997769,0.0066803918"
       id="guide30"
       inkscape:locked="false" />
    <sodipodi:guide
       position="66.396728,247.89992"
       orientation="0,-1"
       id="guide53"
       inkscape:locked="false" />
  </sodipodi:namedview>
  <defs
     id="defs1">
    <linearGradient
       id="swatch61"
       inkscape:swatch="solid">
      <stop
         style="stop-color:#5090d0;stop-opacity:1;"
         offset="0"
         id="stop61" />
    </linearGradient>
    <linearGradient
       id="swatch30"
       inkscape:swatch="solid">
      <stop
         style="stop-color:#f9f9f9;stop-opacity:1;"
         offset="0"
         id="stop30" />
    </linearGradient>
    <inkscape:perspective
       sodipodi:type="inkscape:persp3d"
       inkscape:vp_x="44.06818 : 315.96746 : 1"
       inkscape:vp_y="0 : 1000 : 0"
       inkscape:vp_z="480.74134 : 298.68846 : 1"
       inkscape:persp3d-origin="250 : 166.66667 : 1"
       id="perspective17" />
  </defs>
  <g
     inkscape:label="Layer 1"
     inkscape:groupmode="layer"
     id="layer1">
    <path
       id="rect53-0"
       style="fill:#5bcee9;fill-opacity:0.3137255;fill-rule:nonzero;stroke:#5bcee9;stroke-width:22.0622;stroke-linecap:butt;stroke-linejoin:round;stroke-dasharray:none;stroke-opacity:1;paint-order:markers fill stroke"
       d="M 88.179688 23.089844 C 86.530739 23.089844 85.006447 23.681216 83.662109 24.636719 L 35.392578 24.636719 C 29.41966 24.636719 24.611328 30.000382 24.611328 36.662109 L 24.611328 178.59375 C 24.611328 185.25548 29.41966 190.61719 35.392578 190.61719 L 78.783203 190.61719 L 78.783203 434.68945 C 78.783203 441.41005 82.97427 446.82031 88.179688 446.82031 L 429.86328 446.82031 C 435.0687 446.82031 439.25781 441.41005 439.25781 434.68945 L 439.25781 35.220703 C 439.25781 28.500105 435.0687 23.089844 429.86328 23.089844 L 88.179688 23.089844 z " />
    <path
       style="-inkscape-font-specification:'FiraCode Nerd Font Mono Bold';fill:#5bcee9;stroke-width:8.07886;stroke-linejoin:bevel;paint-order:markers fill stroke;stroke:none;fill-opacity:1"
       d="m 167.99746,115.81807 v 21.36675 h 8.89215 v 15.16144 h -8.89215 v 18.61594 h -19.38361 l -0.12794,-18.61594 H 111.7658 v -13.43418 l 24.62934,-58.854527 17.20855,6.333259 -20.98292,50.794008 h 15.92911 l 2.36697,-21.36675 z m 49.64256,-35.760517 q 9.59585,0 16.31294,3.134643 6.78107,3.070671 10.29954,8.252428 3.58245,5.117785 3.58245,11.323096 0,8.44435 -4.98984,13.69008 -4.92586,5.18175 -13.11432,7.54873 9.14804,1.21547 15.03349,6.26929 5.88546,4.98984 5.88546,15.73718 0,7.48476 -4.1582,13.62611 -4.09423,6.14134 -11.77091,9.85173 -7.67668,3.64642 -18.36005,3.64642 -9.91571,0 -17.7843,-3.4545 -7.8686,-3.51848 -13.43419,-9.85174 l 11.38707,-10.6194 q 3.83834,4.41409 8.50832,6.4612 4.73395,1.98314 9.97968,1.98314 6.58915,0 10.74735,-3.32656 4.1582,-3.39053 4.1582,-9.72379 0,-7.03695 -3.96629,-10.10762 -3.90231,-3.13465 -11.0672,-3.13465 h -8.06052 l 2.30301,-13.94596 h 5.75751 q 5.88545,0 9.59584,-2.87875 3.77437,-2.87876 3.77437,-8.70024 0,-4.98984 -3.58245,-7.86859 -3.58245,-2.878754 -9.27599,-2.878754 -5.3097,0 -9.65982,2.047114 -4.28614,2.047113 -8.06051,5.62956 L 187.31715,92.020375 q 6.07737,-5.885453 13.6261,-8.892151 7.54873,-3.070671 16.69677,-3.070671 z m 163.57731,0 q 5.88545,0 10.68338,1.535336 4.86189,1.535335 8.57229,4.1582 l -7.67668,12.282683 q -2.55889,-1.855197 -5.50162,-2.686837 -2.87875,-0.895612 -5.69354,-0.895612 -7.22887,0 -12.15473,6.461207 -4.8619,6.4612 -5.62957,18.67991 3.96629,-4.1582 8.89215,-6.07737 4.98984,-1.98314 9.72379,-1.98314 6.90901,0 12.53858,3.4545 5.62956,3.39054 8.95612,9.97968 3.32656,6.52518 3.32656,15.92911 0,8.89215 -3.83834,16.24897 -3.83834,7.29284 -10.93926,11.64296 -7.03696,4.35011 -16.69678,4.35011 -8.82817,0 -15.09746,-3.32656 -6.26929,-3.39053 -10.23557,-9.21201 -3.96628,-5.88545 -5.82148,-13.49816 -1.8552,-7.67667 -1.8552,-16.24896 0,-14.96952 4.60601,-26.42057 4.66998,-11.45104 13.24227,-17.912244 8.63626,-6.461203 20.59908,-6.461203 z m -4.03026,45.420337 q -7.48476,0 -13.37021,6.78107 0.19192,13.30624 2.81478,19.89539 2.62287,6.52517 9.40393,6.52517 5.69354,0 8.3164,-4.86189 2.68684,-4.8619 2.68684,-11.77091 0,-9.08407 -2.62286,-12.79446 -2.5589,-3.77437 -7.22888,-3.77437 z m 88.15389,-51.561678 q 7.42079,0 13.11432,1.215473 5.69354,1.151502 10.1716,3.070671 l -5.56559,13.178296 q -3.51848,-1.343419 -7.22887,-1.919169 -3.71039,-0.639724 -7.35682,-0.639724 -6.01339,0 -8.63626,2.175059 -2.55889,2.175058 -2.55889,7.228871 v 9.084071 h 22.13442 l -2.23903,14.00993 h -19.89539 v 49.64251 h -20.0873 v -49.64251 h -14.26583 v -14.00993 h 14.26583 v -9.851739 q 0,-6.717092 3.19861,-12.026794 3.19862,-5.309702 9.4679,-8.380372 6.26929,-3.134643 15.4813,-3.134643 z"
       id="text1"
       transform="matrix(0.84582853,0,0,0.84582853,9.4993376,22.329794)"
       aria-label="43 6f" />
    <path
       d="m 153.07461,204.80959 -1.89384,12.2288 h -27.43364 v 16.17882 q 2.7596,-1.29864 5.68152,-1.83974 2.92193,-0.54109 5.41098,-0.54109 5.78974,0 10.5514,2.92192 4.81577,2.92193 7.62947,8.38701 2.86782,5.46509 2.86782,13.04045 0,7.57537 -3.73357,13.58155 -3.67947,6.00618 -10.28086,9.4692 -6.60138,3.40892 -15.42127,3.40892 -8.17057,0 -14.4473,-3.03015 -6.27673,-3.08426 -10.44318,-8.17057 l 9.84797,-8.98222 q 2.70549,3.46303 6.22262,5.30276 3.57124,1.78562 7.46714,1.78562 5.95208,0 9.52332,-3.62535 3.62535,-3.62536 3.62535,-9.46921 0,-6.92605 -2.8137,-9.84797 -2.7596,-2.97604 -7.30482,-2.97604 -2.05617,0 -4.38289,0.5411 -2.32672,0.5411 -4.81577,1.94795 h -11.52537 v -40.31176 z m 38.63441,-1.89384 q 8.11646,0 13.79798,2.65138 5.73563,2.59726 8.71167,6.98015 3.03014,4.32878 3.03014,9.57743 0,7.14248 -4.22056,11.57948 -4.16645,4.38289 -11.09249,6.38495 7.73769,1.02809 12.71579,5.30276 4.97809,4.22056 4.97809,13.31099 0,6.33084 -3.51713,11.52538 -3.46302,5.19454 -9.95619,8.3329 -6.49317,3.08426 -15.5295,3.08426 -8.38701,0 -15.04251,-2.92193 -6.6555,-2.97604 -11.36304,-8.3329 l 9.63153,-8.98222 q 3.24659,3.73357 7.1966,5.46509 4.00412,1.6774 8.44112,1.6774 5.5733,0 9.09043,-2.81371 3.51714,-2.86782 3.51714,-8.22468 0,-5.95207 -3.35481,-8.54934 -3.30069,-2.65138 -9.36098,-2.65138 h -6.81783 l 1.94795,-11.79592 h 4.86988 q 4.97809,0 8.11646,-2.43494 3.19247,-2.43494 3.19247,-7.35892 0,-4.22056 -3.03014,-6.6555 -3.03015,-2.43494 -7.84592,-2.43494 -4.4911,0 -8.17057,1.73151 -3.62535,1.73151 -6.81782,4.76166 l -8.76578,-9.09044 q 5.14042,-4.9781 11.52537,-7.52125 6.38495,-2.59727 14.12265,-2.59727 z m 128.99773,78.62146 -16.23293,-5.03221 27.97474,-58.81729 h -32.95283 v -12.87812 h 50.26795 v 11.57949 z m 92.09482,-76.72762 -1.89384,12.2288 h -27.43364 v 16.17882 q 2.7596,-1.29864 5.68152,-1.83974 2.92193,-0.54109 5.41098,-0.54109 5.78974,0 10.5514,2.92192 4.81576,2.92193 7.62947,8.38701 2.86782,5.46509 2.86782,13.04045 0,7.57537 -3.73357,13.58155 -3.67947,6.00618 -10.28086,9.4692 -6.60138,3.40892 -15.42127,3.40892 -8.17057,0 -14.4473,-3.03015 -6.27673,-3.08426 -10.44319,-8.17057 l 9.84798,-8.98222 q 2.70549,3.46303 6.22262,5.30276 3.57124,1.78562 7.46714,1.78562 5.95208,0 9.52332,-3.62535 3.62535,-3.62536 3.62535,-9.46921 0,-6.92605 -2.81371,-9.84797 -2.75959,-2.97604 -7.30481,-2.97604 -2.05617,0 -4.38289,0.5411 -2.32672,0.5411 -4.81577,1.94795 h -11.52537 v -40.31176 z"
       id="text10"
       style="-inkscape-font-specification:'FiraCode Nerd Font Mono Bold';fill:#5bcee9;stroke-width:8.76448;stroke-linejoin:bevel;paint-order:markers fill stroke;stroke:none;fill-opacity:1"
       aria-label="53 75 " />
    <path
       d="m 136.56653,310.03867 q 4.97809,0 9.03632,1.29864 4.11235,1.29863 7.25071,3.51713 l -6.49317,10.38907 q -2.16439,-1.56918 -4.65344,-2.27261 -2.43494,-0.75753 -4.81576,-0.75753 -6.11441,0 -10.28086,5.46508 -4.11234,5.46508 -4.76165,15.80005 3.3548,-3.51714 7.52125,-5.14043 4.22056,-1.6774 8.22468,-1.6774 5.84385,0 10.60551,2.92192 4.76166,2.86782 7.57537,8.44112 2.8137,5.5192 2.8137,13.47333 0,7.52125 -3.24658,13.74387 -3.24659,6.16852 -9.25277,9.84798 -5.95207,3.67946 -14.12264,3.67946 -7.46715,0 -12.7699,-2.81371 -5.30276,-2.86781 -8.65756,-7.7918 -3.3548,-4.9781 -4.92399,-11.41715 -1.56918,-6.49317 -1.56918,-13.74388 0,-12.66168 3.8959,-22.34732 3.95001,-9.68565 11.20072,-15.15073 7.30482,-5.46509 17.42334,-5.46509 z m -3.40892,38.41792 q -6.33084,0 -11.30893,5.73563 0.16233,11.25483 2.38083,16.82813 2.2185,5.5192 7.95413,5.5192 4.81577,0 7.03426,-4.11234 2.27261,-4.11234 2.27261,-9.95619 0,-7.68359 -2.2185,-10.82195 -2.16439,-3.19248 -6.1144,-3.19248 z m 74.56328,-43.61245 q 6.27673,0 11.0925,1.02808 4.81576,0.97398 8.60344,2.59727 l -4.70754,11.14661 q -2.97604,-1.13631 -6.1144,-1.62329 -3.13837,-0.5411 -6.22262,-0.5411 -5.08632,0 -7.30482,1.83973 -2.16439,1.83973 -2.16439,6.1144 v 7.68358 h 18.72197 l -1.89384,11.85004 h -16.82813 v 41.98916 H 183.9126 v -41.98916 h -12.06647 v -11.85004 h 12.06647 v -8.3329 q 0,-5.68152 2.70549,-10.17263 2.70548,-4.49111 8.00824,-7.08837 5.30275,-2.65138 13.09456,-2.65138 z m 141.44297,7.08837 -1.89384,12.22881 h -27.43364 v 16.17881 q 2.7596,-1.29863 5.68152,-1.83973 2.92193,-0.5411 5.41098,-0.5411 5.78974,0 10.5514,2.92193 4.81576,2.92192 7.62947,8.38701 2.86782,5.46508 2.86782,13.04045 0,7.57536 -3.73358,13.58154 -3.67946,6.00618 -10.28085,9.46921 -6.60139,3.40891 -15.42127,3.40891 -8.17057,0 -14.44731,-3.03014 -6.27673,-3.08426 -10.44318,-8.17058 l 9.84798,-8.98221 q 2.70548,3.46302 6.22262,5.30275 3.57124,1.78562 7.46714,1.78562 5.95207,0 9.52332,-3.62535 3.62535,-3.62535 3.62535,-9.46921 0,-6.92604 -2.81371,-9.84797 -2.75959,-2.97603 -7.30481,-2.97603 -2.05617,0 -4.38289,0.54109 -2.32672,0.5411 -4.81577,1.94795 h -11.52537 v -40.31176 z m 38.6344,-1.89384 q 8.11646,0 13.79798,2.65138 5.73563,2.59727 8.71167,6.98016 3.03015,4.32878 3.03015,9.57742 0,7.14249 -4.22056,11.57949 -4.16645,4.38289 -11.0925,6.38495 7.73769,1.02808 12.71579,5.30275 4.97809,4.22056 4.97809,13.311 0,6.33084 -3.51713,11.52537 -3.46302,5.19454 -9.95619,8.33291 -6.49317,3.08425 -15.5295,3.08425 -8.38701,0 -15.04251,-2.92193 -6.6555,-2.97603 -11.36304,-8.3329 l 9.63153,-8.98221 q 3.24659,3.73357 7.1966,5.46508 4.00412,1.6774 8.44112,1.6774 5.5733,0 9.09043,-2.8137 3.51714,-2.86782 3.51714,-8.22468 0,-5.95208 -3.35481,-8.54934 -3.30069,-2.65138 -9.36098,-2.65138 h -6.81783 l 1.94795,-11.79593 h 4.86988 q 4.97809,0 8.11646,-2.43493 3.19247,-2.43494 3.19247,-7.35893 0,-4.22056 -3.03014,-6.6555 -3.03015,-2.43494 -7.84591,-2.43494 -4.49111,0 -8.17058,1.73152 -3.62535,1.73151 -6.81782,4.76165 l -8.76578,-9.09043 q 5.14042,-4.9781 11.52537,-7.52126 6.38495,-2.59727 14.12265,-2.59727 z"
       id="text11"
       style="-inkscape-font-specification:'FiraCode Nerd Font Mono Bold';fill:#5bcee9;stroke-width:8.76448;stroke-linejoin:bevel;paint-order:markers fill stroke;stroke:none;fill-opacity:1"
       aria-label="6f 53" />
  </g>
</svg>
