<?xml version="1.0" encoding="UTF-8" standalone="no"?>
<!-- Created with Inkscape (http://www.inkscape.org/) -->

<svg
   width="500"
   height="500"
   viewBox="0 0 500 500"
   version="1.1"
   id="svg1"
   inkscape:version="1.3.2 (091e20ef0f, 2023-11-25, custom)"
   sodipodi:docname="bin.svg"
   xmlns:inkscape="http://www.inkscape.org/namespaces/inkscape"
   xmlns:sodipodi="http://sodipodi.sourceforge.net/DTD/sodipodi-0.dtd"
   xmlns="http://www.w3.org/2000/svg"
   xmlns:svg="http://www.w3.org/2000/svg">
  <sodipodi:namedview
     id="namedview1"
     pagecolor="#505050"
     bordercolor="#eeeeee"
     borderopacity="1"
     inkscape:showpageshadow="0"
     inkscape:pageopacity="0"
     inkscape:pagecheckerboard="0"
     inkscape:deskcolor="#505050"
     inkscape:document-units="px"
     inkscape:zoom="0.96390292"
     inkscape:cx="320.05298"
     inkscape:cy="198.67146"
     inkscape:window-width="1362"
     inkscape:window-height="744"
     inkscape:window-x="0"
     inkscape:window-y="20"
     inkscape:window-maximized="1"
     inkscape:current-layer="layer1"
     showguides="true">
    <sodipodi:guide
       position="250.02518,350.60736"
       orientation="-0.99997769,0.0066803918"
       id="guide30"
       inkscape:locked="false" />
    <sodipodi:guide
       position="66.396728,247.89992"
       orientation="0,-1"
       id="guide53"
       inkscape:locked="false" />
  </sodipodi:namedview>
  <defs
     id="defs1">
    <linearGradient
       id="swatch61"
       inkscape:swatch="solid">
      <stop
         style="stop-color:#5090d0;stop-opacity:1;"
         offset="0"
         id="stop61" />
    </linearGradient>
    <linearGradient
       id="swatch30"
       inkscape:swatch="solid">
      <stop
         style="stop-color:#f9f9f9;stop-opacity:1;"
         offset="0"
         id="stop30" />
    </linearGradient>
    <inkscape:perspective
       sodipodi:type="inkscape:persp3d"
       inkscape:vp_x="44.06818 : 315.96746 : 1"
       inkscape:vp_y="0 : 1000 : 0"
       inkscape:vp_z="480.74134 : 298.68846 : 1"
       inkscape:persp3d-origin="250 : 166.66667 : 1"
       id="perspective17" />
  </defs>
  <g
     inkscape:label="Layer 1"
     inkscape:groupmode="layer"
     id="layer1">
    <path
       id="rect53-0"
       style="fill:#ff4545;fill-opacity:0.15951209;fill-rule:nonzero;stroke:#ff4545;stroke-width:22.0622;stroke-linecap:butt;stroke-linejoin:round;stroke-dasharray:none;stroke-opacity:1;paint-order:markers fill stroke"
       d="M 88.179688 23.089844 C 86.530739 23.089844 85.006447 23.681216 83.662109 24.636719 L 35.392578 24.636719 C 29.41966 24.636719 24.611328 30.000382 24.611328 36.662109 L 24.611328 178.59375 C 24.611328 185.25548 29.41966 190.61719 35.392578 190.61719 L 78.783203 190.61719 L 78.783203 434.68945 C 78.783203 441.41005 82.97427 446.82031 88.179688 446.82031 L 429.86328 446.82031 C 435.0687 446.82031 439.25781 441.41005 439.25781 434.68945 L 439.25781 35.220703 C 439.25781 28.500105 435.0687 23.089844 429.86328 23.089844 L 88.179688 23.089844 z " />
    <path
       style="-inkscape-font-specification:'FiraCode Nerd Font Mono Bold';fill:#ff4545;stroke-width:33.106;stroke-linecap:round;stroke-miterlimit:10"
       d="m 194.23063,63.177199 q 28.82739,0 43.47357,22.317982 14.76241,22.201739 14.76241,61.955649 0,39.87015 -14.76241,62.42061 -14.64618,22.43422 -43.47357,22.43422 -29.05988,0 -43.70605,-22.43422 -14.52994,-22.55046 -14.52994,-62.42061 0,-39.75391 14.52994,-61.955649 14.64617,-22.317982 43.70605,-22.317982 z m 0,26.618843 q -12.32139,0 -18.01713,13.251298 -5.69573,13.13507 -5.69573,44.40349 0,10.22908 0.34872,18.2496 0.34872,7.90429 1.04615,14.06498 l 39.28895,-82.181322 q -2.78975,-4.4171 -6.97437,-6.044453 -4.06838,-1.743593 -9.99659,-1.743593 z M 217.711,147.45083 q 0,-13.36754 -0.58119,-22.55046 l -37.0804,76.60182 q 2.55727,2.44103 6.04445,3.37095 3.60343,0.92991 8.13677,0.92991 8.253,0 13.36754,-5.57949 5.23077,-5.5795 7.6718,-18.36584 2.44103,-12.90258 2.44103,-34.40689 z m 174.35934,53.12145 v 27.78124 H 287.33856 v -27.78124 h 38.82399 V 103.39606 L 293.03429,124.08669 277.4582,98.862723 329.41725,67.245581 h 32.54706 V 200.57228 Z"
       id="text1"
       aria-label="01" />
    <path
       style="-inkscape-font-specification:'FiraCode Nerd Font Mono Bold';fill:#ff4545;stroke-width:33.106;stroke-linecap:round;stroke-miterlimit:10"
       d="m 252.58285,383.12443 v 27.78124 H 147.85107 v -27.78124 h 38.82399 v -97.17621 l -33.12826,20.69063 -15.57609,-25.22397 51.95905,-31.61714 h 32.54706 v 133.32669 z m 81.13526,-137.39508 q 28.8274,0 43.47357,22.31799 14.76242,22.20174 14.76242,61.95564 0,39.87015 -14.76242,62.42061 -14.64617,22.43422 -43.47357,22.43422 -29.05987,0 -43.70605,-22.43422 -14.52993,-22.55046 -14.52993,-62.42061 0,-39.7539 14.52993,-61.95564 14.64618,-22.31799 43.70605,-22.31799 z m 0,26.61885 q -12.32138,0 -18.01712,13.2513 -5.69573,13.13506 -5.69573,44.40348 0,10.22908 0.34872,18.2496 0.34871,7.90429 1.04615,14.06498 l 39.28895,-82.18132 q -2.78975,-4.4171 -6.97437,-6.04445 -4.06838,-1.74359 -9.9966,-1.74359 z m 23.48038,57.65478 q 0,-13.36754 -0.5812,-22.55046 l -37.08039,76.60183 q 2.55726,2.44103 6.04445,3.37094 3.60342,0.92992 8.13676,0.92992 8.25301,0 13.36754,-5.5795 5.23078,-5.57949 7.67181,-18.36584 2.44103,-12.90258 2.44103,-34.40689 z"
       id="text2"
       aria-label="10" />
  </g>
</svg>
