<?xml version="1.0" encoding="UTF-8" standalone="no"?>
<!-- Created with Inkscape (http://www.inkscape.org/) -->

<svg
   width="500"
   height="500"
   viewBox="0 0 500 500"
   version="1.1"
   id="svg1"
   inkscape:version="1.3.2 (091e20ef0f, 2023-11-25, custom)"
   sodipodi:docname="blade.php.svg"
   xml:space="preserve"
   xmlns:inkscape="http://www.inkscape.org/namespaces/inkscape"
   xmlns:sodipodi="http://sodipodi.sourceforge.net/DTD/sodipodi-0.dtd"
   xmlns:xlink="http://www.w3.org/1999/xlink"
   xmlns="http://www.w3.org/2000/svg"
   xmlns:svg="http://www.w3.org/2000/svg"><sodipodi:namedview
     id="namedview1"
     pagecolor="#505050"
     bordercolor="#eeeeee"
     borderopacity="1"
     inkscape:showpageshadow="0"
     inkscape:pageopacity="0"
     inkscape:pagecheckerboard="0"
     inkscape:deskcolor="#505050"
     inkscape:document-units="px"
     inkscape:zoom="0.96390292"
     inkscape:cx="234.46345"
     inkscape:cy="260.91839"
     inkscape:window-width="1352"
     inkscape:window-height="734"
     inkscape:window-x="4"
     inkscape:window-y="24"
     inkscape:window-maximized="1"
     inkscape:current-layer="svg1"
     showguides="true"><sodipodi:guide
       position="250.02518,350.60736"
       orientation="-0.99997769,0.0066803918"
       id="guide30"
       inkscape:locked="false" /><sodipodi:guide
       position="66.396728,247.89992"
       orientation="0,-1"
       id="guide53"
       inkscape:locked="false" /></sodipodi:namedview><defs
     id="defs1"><linearGradient
       id="linearGradient1"
       inkscape:collect="always"><stop
         style="stop-color:#f37167;stop-opacity:1;"
         offset="0.00184614"
         id="stop1" /><stop
         style="stop-color:#f9c0dc;stop-opacity:1;"
         offset="1"
         id="stop2" /></linearGradient><linearGradient
       id="swatch61"
       inkscape:swatch="solid"><stop
         style="stop-color:#5090d0;stop-opacity:1;"
         offset="0"
         id="stop61" /></linearGradient><linearGradient
       id="swatch30"
       inkscape:swatch="solid"><stop
         style="stop-color:#f9f9f9;stop-opacity:1;"
         offset="0"
         id="stop30" /></linearGradient><inkscape:perspective
       sodipodi:type="inkscape:persp3d"
       inkscape:vp_x="44.06818 : 315.96746 : 1"
       inkscape:vp_y="0 : 1000 : 0"
       inkscape:vp_z="480.74134 : 298.68846 : 1"
       inkscape:persp3d-origin="250 : 166.66667 : 1"
       id="perspective17" /><inkscape:perspective
       sodipodi:type="inkscape:persp3d"
       inkscape:vp_x="44.06818 : 315.96746 : 1"
       inkscape:vp_y="0 : 1000 : 0"
       inkscape:vp_z="480.74134 : 298.68846 : 1"
       inkscape:persp3d-origin="250 : 166.66667 : 1"
       id="perspective17-9" /><inkscape:perspective
       sodipodi:type="inkscape:persp3d"
       inkscape:vp_x="44.06818 : 315.96746 : 1"
       inkscape:vp_y="0 : 1000 : 0"
       inkscape:vp_z="480.74134 : 298.68846 : 1"
       inkscape:persp3d-origin="250 : 166.66667 : 1"
       id="perspective17-2" /><inkscape:perspective
       sodipodi:type="inkscape:persp3d"
       inkscape:vp_x="44.06818 : 315.96746 : 1"
       inkscape:vp_y="0 : 1000 : 0"
       inkscape:vp_z="480.74134 : 298.68846 : 1"
       inkscape:persp3d-origin="250 : 166.66667 : 1"
       id="perspective17-4" /><inkscape:perspective
       sodipodi:type="inkscape:persp3d"
       inkscape:vp_x="44.06818 : 315.96746 : 1"
       inkscape:vp_y="0 : 1000 : 0"
       inkscape:vp_z="480.74134 : 298.68846 : 1"
       inkscape:persp3d-origin="250 : 166.66667 : 1"
       id="perspective17-29" /><inkscape:perspective
       sodipodi:type="inkscape:persp3d"
       inkscape:vp_x="44.06818 : 315.96746 : 1"
       inkscape:vp_y="0 : 1000 : 0"
       inkscape:vp_z="480.74134 : 298.68846 : 1"
       inkscape:persp3d-origin="250 : 166.66667 : 1"
       id="perspective17-2-1" /><inkscape:perspective
       sodipodi:type="inkscape:persp3d"
       inkscape:vp_x="44.06818 : 315.96746 : 1"
       inkscape:vp_y="0 : 1000 : 0"
       inkscape:vp_z="480.74134 : 298.68846 : 1"
       inkscape:persp3d-origin="250 : 166.66667 : 1"
       id="perspective17-4-27" /><inkscape:perspective
       sodipodi:type="inkscape:persp3d"
       inkscape:vp_x="44.06818 : 315.96746 : 1"
       inkscape:vp_y="0 : 1000 : 0"
       inkscape:vp_z="480.74134 : 298.68846 : 1"
       inkscape:persp3d-origin="250 : 166.66667 : 1"
       id="perspective17-1" /><inkscape:perspective
       sodipodi:type="inkscape:persp3d"
       inkscape:vp_x="44.06818 : 315.96746 : 1"
       inkscape:vp_y="0 : 1000 : 0"
       inkscape:vp_z="480.74134 : 298.68846 : 1"
       inkscape:persp3d-origin="250 : 166.66667 : 1"
       id="perspective17-4-7" /><inkscape:perspective
       sodipodi:type="inkscape:persp3d"
       inkscape:vp_x="44.06818 : 315.96746 : 1"
       inkscape:vp_y="0 : 1000 : 0"
       inkscape:vp_z="480.74134 : 298.68846 : 1"
       inkscape:persp3d-origin="250 : 166.66667 : 1"
       id="perspective17-7" /><inkscape:perspective
       sodipodi:type="inkscape:persp3d"
       inkscape:vp_x="44.06818 : 315.96746 : 1"
       inkscape:vp_y="0 : 1000 : 0"
       inkscape:vp_z="480.74134 : 298.68846 : 1"
       inkscape:persp3d-origin="250 : 166.66667 : 1"
       id="perspective17-2-9" /><inkscape:perspective
       sodipodi:type="inkscape:persp3d"
       inkscape:vp_x="44.06818 : 315.96746 : 1"
       inkscape:vp_y="0 : 1000 : 0"
       inkscape:vp_z="480.74134 : 298.68846 : 1"
       inkscape:persp3d-origin="250 : 166.66667 : 1"
       id="perspective17-4-2" /><inkscape:perspective
       sodipodi:type="inkscape:persp3d"
       inkscape:vp_x="44.06818 : 315.96746 : 1"
       inkscape:vp_y="0 : 1000 : 0"
       inkscape:vp_z="480.74134 : 298.68846 : 1"
       inkscape:persp3d-origin="250 : 166.66667 : 1"
       id="perspective17-18" /><inkscape:perspective
       sodipodi:type="inkscape:persp3d"
       inkscape:vp_x="44.06818 : 315.96746 : 1"
       inkscape:vp_y="0 : 1000 : 0"
       inkscape:vp_z="480.74134 : 298.68846 : 1"
       inkscape:persp3d-origin="250 : 166.66667 : 1"
       id="perspective17-2-7" /><inkscape:perspective
       sodipodi:type="inkscape:persp3d"
       inkscape:vp_x="44.06818 : 315.96746 : 1"
       inkscape:vp_y="0 : 1000 : 0"
       inkscape:vp_z="480.74134 : 298.68846 : 1"
       inkscape:persp3d-origin="250 : 166.66667 : 1"
       id="perspective17-4-9" /><inkscape:perspective
       sodipodi:type="inkscape:persp3d"
       inkscape:vp_x="44.06818 : 315.96746 : 1"
       inkscape:vp_y="0 : 1000 : 0"
       inkscape:vp_z="480.74134 : 298.68846 : 1"
       inkscape:persp3d-origin="250 : 166.66667 : 1"
       id="perspective17-6" /><inkscape:perspective
       sodipodi:type="inkscape:persp3d"
       inkscape:vp_x="44.06818 : 315.96746 : 1"
       inkscape:vp_y="0 : 1000 : 0"
       inkscape:vp_z="480.74134 : 298.68846 : 1"
       inkscape:persp3d-origin="250 : 166.66667 : 1"
       id="perspective17-3" /><linearGradient
       inkscape:collect="always"
       xlink:href="#linearGradient1"
       id="linearGradient2"
       x1="70.545082"
       y1="295.54593"
       x2="632.82349"
       y2="506.37042"
       gradientUnits="userSpaceOnUse"
       gradientTransform="translate(4)" /></defs><path
     d="m 483.6058,127.04835 a 8.1707181,8.1707181 0 0 1 0.32683,1.96098 v 98.22837 a 6.9777933,6.9777933 0 0 1 -3.66049,6.20975 l -84.86107,47.39016 v 94.09399 a 6.9777933,6.9777933 0 0 1 -3.66049,6.20975 l -177.19019,99.11081 a 12.010956,12.010956 0 0 1 -1.34,0.49024 c -0.16341,0 -0.32683,0.16341 -0.49024,0.16341 a 7.6314507,7.6314507 0 0 1 -3.84024,0 c -0.16341,0 -0.32683,-0.16341 -0.49024,-0.16341 -0.16341,0 -0.83341,-0.32683 -1.16024,-0.49024 L 30.196311,381.20671 A 7.1575491,7.1575491 0 0 1 26.372415,374.9316 V 80.311847 a 8.1707181,8.1707181 0 0 1 0.326829,-1.960973 c 0,-0.163414 0.179756,-0.326828 0.34317,-0.653657 0.163414,-0.326829 0.326829,-0.817072 0.490243,-1.143901 0.163414,-0.326828 0.34317,-0.49024 0.506584,-0.653655 A 1.6341436,1.6341436 0 0 1 28.70924,75.08259 c 0.163415,-0.163415 0.490243,-0.326829 0.653658,-0.490243 0.163414,-0.163415 0.506584,-0.326829 0.669999,-0.490244 L 118.55446,24.571208 a 7.3209634,7.3209634 0 0 1 7.32096,0 l 88.50522,49.530895 a 2.7126784,2.7126784 0 0 1 0.83341,0.653658 c 0.17975,0.163414 0.50658,0.326829 0.67,0.490243 a 2.9578,2.9578 0 0 1 0.67,0.817072 2.2551182,2.2551182 0 0 1 0.49024,0.653655 6.405843,6.405843 0 0 1 0.50658,1.1439 c 0,0.163415 0.16342,0.326829 0.32683,0.653658 a 8.5629126,8.5629126 0 0 1 0.34317,1.797558 V 264.3491 l 73.69988,-41.39286 v -93.94691 a 5.4090154,5.4090154 0 0 1 0.34317,-1.79756 c 0,-0.16342 0.16342,-0.32683 0.32683,-0.65366 0.16341,-0.32683 0.32683,-0.81707 0.49024,-1.1439 0.16342,-0.32683 0.34317,-0.49024 0.50659,-0.65366 a 1.6341436,1.6341436 0 0 1 0.67,-0.81707 c 0.16341,-0.16341 0.49024,-0.32683 0.65365,-0.49024 0.16342,-0.16342 0.50659,-0.49024 0.83342,-0.65366 l 88.50522,-49.514548 a 7.3209634,7.3209634 0 0 1 7.32096,0 l 88.52156,49.514548 a 3.1538972,3.1538972 0 0 1 0.83341,0.65366 c 0.16342,0.16341 0.49025,0.32683 0.65366,0.49024 a 2.6799955,2.6799955 0 0 1 0.67,0.81707 2.2714596,2.2714596 0 0 1 0.50658,0.65366 7.9746209,7.9746209 0 0 1 0.49025,1.1439 c 0.17975,0.16342 0.35951,0.32683 0.35951,0.49024 z m -14.47851,96.10399 v -81.70718 l -30.95069,17.30558 -42.76553,24.03825 v 81.70718 z m -88.52156,147.75927 v -81.70718 l -42.11189,23.35191 -120.27297,66.6894 v 82.54059 c 0,-0.16341 162.38486,-90.87472 162.38486,-90.87472 z M 41.177756,92.731338 V 370.91161 l 162.401194,90.87472 v -82.54059 l -84.86108,-46.58943 c -0.32682,-0.32683 -0.66999,-0.49025 -0.83341,-0.81708 -0.16341,-0.32683 -0.50658,-0.32683 -0.67,-0.49024 -0.16341,-0.16341 -0.32683,-0.49024 -0.65366,-0.81707 -0.32682,-0.32683 -0.34317,-0.49024 -0.50658,-0.65366 a 2.7617027,2.7617027 0 0 1 -0.32683,-0.81707 c -0.17975,-0.32683 -0.34317,-0.49024 -0.34317,-0.81707 a 2.0753624,2.0753624 0 0 1 -0.16341,-0.98049 c 0,-0.32683 -0.16342,-0.49024 -0.16342,-0.81707 V 133.91176 L 72.128436,110.05326 Z M 122.37836,38.951674 48.49872,80.311847 122.21494,121.49227 195.91481,80.148432 Z m 38.27163,257.541036 42.7492,-23.8585 V 92.731338 l -30.93434,17.321922 -42.76553,23.8585 v 179.95189 z m 227.2767,-208.827217 -73.69988,41.343837 73.69988,41.19676 73.71622,-41.36018 c 0.16341,0.16342 -73.71622,-41.180417 -73.71622,-41.180417 z m -7.32096,94.960087 -42.76554,-24.03825 -30.93434,-17.33827 v 81.70718 l 42.74919,23.8585 30.95069,17.33826 z m -169.70582,184.1353 108.14762,-59.98941 54.07382,-30.06824 -73.71622,-41.19676 -84.84474,47.39016 -77.37669,43.30481 z"
     style="fill:url(#linearGradient2);stroke-width:16.3414"
     id="path1" /></svg>
