<?xml version="1.0" encoding="UTF-8" standalone="no"?>
<!-- Uploaded to: SVG Repo, www.svgrepo.com, Generator: SVG Repo Mixer Tools -->

<svg
   fill="#000000"
   version="1.1"
   id="Capa_1"
   width="500"
   height="500"
   viewBox="0 0 51.64125 51.641875"
   xml:space="preserve"
   sodipodi:docname="compress.svg"
   inkscape:version="1.3.2 (091e20ef0f, 2023-11-25, custom)"
   xmlns:inkscape="http://www.inkscape.org/namespaces/inkscape"
   xmlns:sodipodi="http://sodipodi.sourceforge.net/DTD/sodipodi-0.dtd"
   xmlns="http://www.w3.org/2000/svg"
   xmlns:svg="http://www.w3.org/2000/svg"><defs
   id="defs1" /><sodipodi:namedview
   id="namedview1"
   pagecolor="#505050"
   bordercolor="#eeeeee"
   borderopacity="1"
   inkscape:showpageshadow="0"
   inkscape:pageopacity="0"
   inkscape:pagecheckerboard="0"
   inkscape:deskcolor="#505050"
   inkscape:zoom="0.834386"
   inkscape:cx="271.4571"
   inkscape:cy="306.21319"
   inkscape:window-width="1362"
   inkscape:window-height="744"
   inkscape:window-x="0"
   inkscape:window-y="20"
   inkscape:window-maximized="1"
   inkscape:current-layer="Capa_1" />

<path
   id="path1-2"
   style="fill:#ff7e7e;fill-opacity:1;stroke:none;stroke-width:0.642978;stroke-opacity:1"
   d="m 10.630298,25.007417 -7.0285947,3.658599 c -0.3243006,0.163196 -0.5289919,0.494554 -0.5309223,0.856283 0,0.0057 0.00272,0.01091 0.00272,0.01611 -0.039251,0.1073 0.038809,0.285649 -0.066932,0.338519 l 0.127966,7.694063 c 0.00193,0.353376 0.1969915,0.677206 0.5077795,0.844257 l 21.9808645,11.49243 c 0.143491,0.07646 0.300635,0.115033 0.457636,0.115033 h 0.0018 c 0.06628,0.07518 0.140324,0.145843 0.228478,0.198528 0.151855,0.0906 0.323045,0.136134 0.494847,0.136134 0.15829,0 0.315244,-0.03907 0.458091,-0.116168 L 48.9672,38.488533 c 0.311431,-0.168978 0.506417,-0.4947 0.506417,-0.847434 v -8.804915 c 0,-0.0083 -0.0034,-0.01619 -0.0034,-0.02518 -6.44e-4,-0.0071 0.002,-0.01339 0.002,-0.0211 -0.0012,-0.02762 -0.01236,-0.05266 -0.0143,-0.07964 -0.0083,-0.05268 -0.01409,-0.105343 -0.03018,-0.156101 -0.01158,-0.03534 -0.0265,-0.06691 -0.04129,-0.100968 -0.01995,-0.04498 -0.03968,-0.08934 -0.06671,-0.130462 -0.01994,-0.03212 -0.04381,-0.06097 -0.06761,-0.09053 -0.03024,-0.03726 -0.06175,-0.07206 -0.09779,-0.104826 -0.02831,-0.0257 -0.05859,-0.04875 -0.09075,-0.07124 -0.02059,-0.01414 -0.03805,-0.03412 -0.06058,-0.04697 -0.02059,-0.01286 -0.0444,-0.01789 -0.06693,-0.02882 -0.01866,-0.0097 -0.0333,-0.02319 -0.05196,-0.03154 l -4.86537,-2.353302 -2.234865,1.141028 4.494915,2.205598 L 26.795083,39.819684 6.1626251,29.535901 12.607205,26.169309 Z m 36.912941,5.442634 v 6.614067 L 27.770467,47.775817 v -6.291884 z" /><path
   d="m 3.0064976,15.187046 0.1280473,7.693964 c 0.00193,0.353376 0.196897,0.677197 0.5076852,0.844248 L 25.623264,35.2177 c 0.143491,0.07646 0.300494,0.115007 0.457497,0.115007 h 0.0019 c 0.06628,0.07518 0.140272,0.145849 0.228426,0.198534 0.151855,0.0906 0.323014,0.13621 0.494816,0.13621 0.15829,0 0.315292,-0.0392 0.458139,-0.116293 L 48.967135,23.798504 c 0.311432,-0.168978 0.506398,-0.494727 0.506398,-0.847461 v -8.804852 c 0,-0.0083 -0.0033,-0.01606 -0.0033,-0.02506 -6.44e-4,-0.0071 0.0019,-0.0135 0.0019,-0.0212 -0.0012,-0.02762 -0.01223,-0.05268 -0.01416,-0.07967 -0.0083,-0.05268 -0.01416,-0.105366 -0.03024,-0.156128 -0.01158,-0.03534 -0.02639,-0.06682 -0.04118,-0.100878 -0.01995,-0.04498 -0.0399,-0.0893 -0.06692,-0.130428 -0.01994,-0.03212 -0.04375,-0.06104 -0.06756,-0.0906 -0.03024,-0.03726 -0.06177,-0.07196 -0.09781,-0.104725 -0.02831,-0.0257 -0.05855,-0.04883 -0.09072,-0.07132 -0.02059,-0.01414 -0.03796,-0.03406 -0.06049,-0.0469 -0.02059,-0.01286 -0.04439,-0.018 -0.06692,-0.02892 -0.01866,-0.0097 -0.03346,-0.02314 -0.05212,-0.03148 L 26.518953,2.4410797 c -0.2606,-0.1098648 -0.555945,-0.099585 -0.809465,0.026983 L 3.6016926,13.975929 c -0.3243009,0.163195 -0.5289192,0.494726 -0.5308496,0.856455 0,0.0057 0.00258,0.01091 0.00258,0.01606 -0.039251,0.1073 0.038823,0.285728 -0.066919,0.338599 z M 46.278783,14.252204 26.794995,25.129771 6.1626398,14.845877 26.178565,4.3897895 Z M 27.770471,33.085876 v -6.292024 l 19.7727,-11.033695 v 6.613919 z"
   id="path5"
   style="fill:#ff7e7e;fill-opacity:1;stroke:none;stroke-width:0.642978;stroke-opacity:1"
   sodipodi:nodetypes="ccccsccsccsscccccccccccccccccsccccccccccc" /><path
   style="fill:#ff7e7e;fill-opacity:1;stroke:none;stroke-width:4.47757;stroke-linecap:round;stroke-miterlimit:10"
   d="M 12.913976,10.295484 33.73465,22.316306 v 22.679811 l 8.211292,-4.740793 V 16.773972 L 20.544043,6.1293406 Z"
   id="path6"
   sodipodi:nodetypes="ccccccc" /></svg>
