<?xml version="1.0" encoding="UTF-8" standalone="no"?>
<!-- Created with Inkscape (http://www.inkscape.org/) -->

<svg
   width="500"
   height="500"
   viewBox="0 0 500 500"
   version="1.1"
   id="svg1"
   inkscape:version="1.3.2 (091e20ef0f, 2023-11-25, custom)"
   sodipodi:docname="config.svg"
   xmlns:inkscape="http://www.inkscape.org/namespaces/inkscape"
   xmlns:sodipodi="http://sodipodi.sourceforge.net/DTD/sodipodi-0.dtd"
   xmlns="http://www.w3.org/2000/svg"
   xmlns:svg="http://www.w3.org/2000/svg">
  <sodipodi:namedview
     id="namedview1"
     pagecolor="#505050"
     bordercolor="#eeeeee"
     borderopacity="1"
     inkscape:showpageshadow="0"
     inkscape:pageopacity="0"
     inkscape:pagecheckerboard="0"
     inkscape:deskcolor="#505050"
     inkscape:document-units="px"
     inkscape:zoom="1"
     inkscape:cx="209.5"
     inkscape:cy="257.5"
     inkscape:window-width="1362"
     inkscape:window-height="744"
     inkscape:window-x="0"
     inkscape:window-y="20"
     inkscape:window-maximized="1"
     inkscape:current-layer="layer1"
     showguides="true">
    <sodipodi:guide
       position="250.02518,350.60736"
       orientation="-0.99997769,0.0066803918"
       id="guide30"
       inkscape:locked="false" />
    <sodipodi:guide
       position="66.396728,247.89992"
       orientation="0,-1"
       id="guide53"
       inkscape:locked="false" />
  </sodipodi:namedview>
  <defs
     id="defs1">
    <linearGradient
       id="swatch61"
       inkscape:swatch="solid">
      <stop
         style="stop-color:#5090d0;stop-opacity:1;"
         offset="0"
         id="stop61" />
    </linearGradient>
    <linearGradient
       id="swatch30"
       inkscape:swatch="solid">
      <stop
         style="stop-color:#f9f9f9;stop-opacity:1;"
         offset="0"
         id="stop30" />
    </linearGradient>
    <inkscape:perspective
       sodipodi:type="inkscape:persp3d"
       inkscape:vp_x="44.06818 : 315.96746 : 1"
       inkscape:vp_y="0 : 1000 : 0"
       inkscape:vp_z="480.74134 : 298.68846 : 1"
       inkscape:persp3d-origin="250 : 166.66667 : 1"
       id="perspective17" />
  </defs>
  <g
     inkscape:label="Layer 1"
     inkscape:groupmode="layer"
     id="layer1"
     style="display:inline">
    <rect
       style="fill:#4784d4;fill-opacity:0.26544964;stroke:none;stroke-width:10.457;stroke-linejoin:round;stroke-dasharray:none;stroke-opacity:1;paint-order:markers fill stroke"
       id="rect6"
       width="449.74054"
       height="449.74054"
       x="27.580505"
       y="25.790558"
       rx="144.23386"
       ry="115.36938" />
  </g>
  <g
     inkscape:groupmode="layer"
     id="layer4"
     inkscape:label="Layer 2">
    <path
       id="path7"
       style="color:#000000;fill:#4783d4;fill-opacity:1;stroke-width:1.08444;stroke-linejoin:round;-inkscape-stroke:none;paint-order:markers fill stroke"
       d="m 214.65663,79.918866 v 51.273814 c -6.55856,2.07142 -12.87532,4.69929 -18.92903,7.78172 l -36.21446,-36.21444 -54.10778,54.10776 35.84593,35.84592 c -3.24066,6.15447 -5.98447,12.60111 -8.17147,19.29333 H 82.566405 v 76.521 h 50.456255 c 2.18318,6.71293 4.93069,13.17724 8.17354,19.35052 l -35.78871,35.78875 54.10776,54.10777 36.10431,-36.10432 c 6.08669,3.1068 12.43919,5.75501 19.03707,7.83889 v 51.10227 h 76.52098 v -51.83723 c 6.33698,-2.13074 12.45328,-4.75267 18.30211,-7.83255 l 36.8308,36.83081 54.10777,-54.10776 -37.20147,-37.20147 c 2.92554,-5.74544 5.42772,-11.73323 7.44497,-17.93568 h 52.59759 v -76.521 H 370.6046 c -2.02035,-6.18207 -4.51972,-12.15165 -7.44284,-17.87848 l 37.26078,-37.26077 -54.10778,-54.10776 -36.94517,36.94519 c -5.81586,-3.05512 -11.89435,-5.66004 -18.19198,-7.77751 V 79.918866 Z m 37.18451,112.388104 a 62.620737,58.044817 0 0 1 62.62023,58.04311 62.620737,58.044817 0 0 1 -62.62023,58.04523 62.620737,58.044817 0 0 1 -62.62021,-58.04523 62.620737,58.044817 0 0 1 62.62021,-58.04311 z" />
  </g>
</svg>
