<?xml version="1.0" encoding="UTF-8" standalone="no"?>
<!-- Created with Inkscape (http://www.inkscape.org/) -->

<svg
   width="500"
   height="500"
   viewBox="0 0 500 500"
   version="1.1"
   id="svg1"
   inkscape:version="1.3.2 (091e20ef0f, 2023-11-25, custom)"
   sodipodi:docname="config.json.svg"
   xml:space="preserve"
   xmlns:inkscape="http://www.inkscape.org/namespaces/inkscape"
   xmlns:sodipodi="http://sodipodi.sourceforge.net/DTD/sodipodi-0.dtd"
   xmlns="http://www.w3.org/2000/svg"
   xmlns:svg="http://www.w3.org/2000/svg"><sodipodi:namedview
     id="namedview1"
     pagecolor="#505050"
     bordercolor="#eeeeee"
     borderopacity="1"
     inkscape:showpageshadow="0"
     inkscape:pageopacity="0"
     inkscape:pagecheckerboard="0"
     inkscape:deskcolor="#505050"
     inkscape:document-units="px"
     inkscape:zoom="0.96390292"
     inkscape:cx="289.96696"
     inkscape:cy="250.5439"
     inkscape:window-width="1362"
     inkscape:window-height="744"
     inkscape:window-x="0"
     inkscape:window-y="20"
     inkscape:window-maximized="1"
     inkscape:current-layer="layer1"
     showguides="true"><sodipodi:guide
       position="250.02518,350.60736"
       orientation="-0.99997769,0.0066803918"
       id="guide30"
       inkscape:locked="false" /><sodipodi:guide
       position="66.396728,247.89992"
       orientation="0,-1"
       id="guide53"
       inkscape:locked="false" /></sodipodi:namedview><defs
     id="defs1"><linearGradient
       id="swatch61"
       inkscape:swatch="solid"><stop
         style="stop-color:#5090d0;stop-opacity:1;"
         offset="0"
         id="stop61" /></linearGradient><linearGradient
       id="swatch30"
       inkscape:swatch="solid"><stop
         style="stop-color:#f9f9f9;stop-opacity:1;"
         offset="0"
         id="stop30" /></linearGradient><inkscape:perspective
       sodipodi:type="inkscape:persp3d"
       inkscape:vp_x="44.06818 : 315.96746 : 1"
       inkscape:vp_y="0 : 1000 : 0"
       inkscape:vp_z="480.74134 : 298.68846 : 1"
       inkscape:persp3d-origin="250 : 166.66667 : 1"
       id="perspective17" /><inkscape:perspective
       sodipodi:type="inkscape:persp3d"
       inkscape:vp_x="44.06818 : 315.96746 : 1"
       inkscape:vp_y="0 : 1000 : 0"
       inkscape:vp_z="480.74134 : 298.68846 : 1"
       inkscape:persp3d-origin="250 : 166.66667 : 1"
       id="perspective17-8" /></defs><g
     inkscape:label="Layer 1"
     inkscape:groupmode="layer"
     id="layer1"><path
       id="rect53-0"
       style="color:#000000;fill:#f38311;stroke-linejoin:round;-inkscape-stroke:none;paint-order:markers fill stroke"
       d="m 90.912109,21.160156 c -2.564694,0 -4.862035,0.661524 -6.974609,1.546875 H 38.125 c -12.57681,0 -21.8125,11.086898 -21.8125,23.056641 V 187.69531 c 0,11.96975 9.238095,23.05469 21.8125,23.05469 h 32.359375 v 233.04102 c 0,5.65332 1.687621,10.9925 5.056641,15.34179 3.369018,4.34931 8.946674,7.82032 15.371093,7.82031 H 248.81641 l -22.0625,-22.0625 H 92.808594 c -0.123642,-0.31953 -0.261719,-0.45836 -0.261719,-1.0996 V 199.71875 c -5.26e-4,-6.09217 -4.939077,-11.03072 -11.03125,-11.03125 H 38.482422 C 38.464697,188.60559 38.375,188.3642 38.375,187.69531 V 45.763672 c 0,-0.670187 0.09161,-0.912241 0.109375,-0.994141 h 47.910156 c 1.714347,-0.130835 3.374385,-0.660549 4.847657,-1.546875 H 430.69727 c 0.12357,0.319804 0.26171,0.458354 0.26171,1.09961 V 201.82422 c 2.83786,0.50918 5.46887,1.82537 7.57813,3.79101 l 14.48437,14.48438 V 44.322266 c 0,-5.652267 -1.68635,-10.990153 -5.05468,-15.339844 -3.36836,-4.349691 -8.94666,-7.822266 -15.3711,-7.822266 z M 171.38086,157.16016 c -12.39022,0 -21.8302,2.74886 -28.32031,8.24609 -6.34262,5.49723 -9.51368,13.30907 -9.51367,23.43555 v 37.32226 c -10e-6,5.35257 -1.18098,9.47587 -3.54102,12.36914 -2.21254,2.89329 -5.23525,4.91886 -9.07031,6.07618 -3.83507,1.01264 -8.18712,1.59166 -13.05469,1.73632 v 13.23633 c 4.86757,0.14466 9.21962,0.79581 13.05469,1.95313 3.83506,1.15731 6.85777,3.18289 9.07031,6.07617 2.36004,2.74862 3.54101,6.8719 3.54102,12.36914 v 37.10547 c -10e-6,9.83715 3.17105,17.64899 9.51367,23.43554 6.49011,5.78657 15.93009,8.67969 28.32031,8.67969 h 17.86133 v -11.5 h -5.47071 c -6.3426,0 -10.5463,-1.88131 -12.61132,-5.64258 -2.06504,-3.61659 -3.09766,-8.82384 -3.09766,-15.62304 v -37.10743 c 0,-6.50987 -1.99203,-11.86137 -5.97461,-16.05664 -3.83507,-4.33991 -9.95564,-7.52354 -18.36328,-9.54882 v -1.73633 c 8.55515,-2.0253 14.74892,-5.13482 18.58398,-9.33008 3.83507,-4.19526 5.75391,-9.54677 5.75391,-16.05664 v -36.89063 c 0,-6.7992 1.03262,-12.00645 3.09766,-15.62304 2.06502,-3.6166 6.26872,-5.42578 12.61132,-5.42578 h 8.62891 v -11.5 z m 164.39258,0 v 11.5 h 8.6289 c 6.34262,0 10.54629,1.80918 12.61133,5.42578 1.17327,2.05479 1.97378,4.68171 2.48047,7.76367 h 21.67383 c 5.78101,0.0533 11.01691,3.42391 13.45898,8.66406 v -1.67187 c 0,-10.12648 -3.24621,-17.93832 -9.73633,-23.43555 -6.3426,-5.49723 -15.7094,-8.24609 -28.0996,-8.24609 z m 24.33789,151.81445 v 7.46094 c 0,6.7992 -1.03262,12.00645 -3.09766,15.62304 -2.06504,3.76127 -6.26871,5.64258 -12.61133,5.64258 h -8.6289 v 11.5 h 21.01758 c 12.3902,0 21.757,-2.89312 28.0996,-8.67969 0.32932,-0.29361 0.61318,-0.61587 0.92579,-0.91992 -0.81012,-14.01224 -10.98102,-26.19059 -25.70508,-30.62695 z"
       sodipodi:nodetypes="scsssscssccccscccssccccscccssssscscccccsccscsccscsscccsssssccsccsscccscsccscsccsccc" /><path
       id="path7"
       style="color:#000000;fill:#f38311;fill-opacity:1;stroke-width:0.919726;stroke-linejoin:round;-inkscape-stroke:none;paint-order:markers fill stroke"
       d="m 316.2698,196.85042 v 43.48575 c -5.56237,1.75679 -10.91967,3.9855 -16.05387,6.59974 l -30.71377,-30.71377 -45.88925,45.88924 30.40124,30.4012 c -2.74844,5.21967 -5.07549,10.6871 -6.93029,16.36284 H 204.243 v 64.89808 h 42.79236 c 1.85159,5.69328 4.18177,11.17571 6.93206,16.41133 l -30.35271,30.35272 45.88924,45.88923 30.62035,-30.62036 c 5.16217,2.63491 10.54978,4.88087 16.1455,6.64824 v 43.34023 h 64.89805 v -43.96356 c 5.37445,-1.8071 10.56173,-4.03079 15.52217,-6.64285 l 31.2365,31.23651 45.88924,-45.88923 -31.55087,-31.55087 c 2.48117,-4.87276 4.60329,-9.95104 6.31413,-15.21139 h 44.60844 v -64.89808 h -44.65694 c -1.71348,-5.24307 -3.83321,-10.30592 -6.31234,-15.16289 l 31.60117,-31.60115 -45.88923,-45.88924 -31.33351,31.33352 c -4.93246,-2.59107 -10.08769,-4.80033 -15.42876,-6.59616 v -44.10908 z m 31.53648,95.31727 a 53.109151,49.228277 0 0 1 53.10871,49.22683 53.109151,49.228277 0 0 1 -53.10871,49.22863 53.109151,49.228277 0 0 1 -53.10871,-49.22863 53.109151,49.228277 0 0 1 53.10871,-49.22683 z" /><g
       id="path2" /></g></svg>
