<?xml version="1.0" encoding="UTF-8" standalone="no"?>
<!-- Created with Inkscape (http://www.inkscape.org/) -->

<svg
   width="500"
   height="500"
   viewBox="0 0 500 500"
   version="1.1"
   id="svg1"
   inkscape:version="1.3.2 (091e20ef0f, 2023-11-25, custom)"
   sodipodi:docname="config.json.svg"
   xml:space="preserve"
   xmlns:inkscape="http://www.inkscape.org/namespaces/inkscape"
   xmlns:sodipodi="http://sodipodi.sourceforge.net/DTD/sodipodi-0.dtd"
   xmlns:xlink="http://www.w3.org/1999/xlink"
   xmlns="http://www.w3.org/2000/svg"
   xmlns:svg="http://www.w3.org/2000/svg"><sodipodi:namedview
     id="namedview1"
     pagecolor="#505050"
     bordercolor="#eeeeee"
     borderopacity="1"
     inkscape:showpageshadow="0"
     inkscape:pageopacity="0"
     inkscape:pagecheckerboard="0"
     inkscape:deskcolor="#505050"
     inkscape:document-units="px"
     inkscape:zoom="0.48195146"
     inkscape:cx="64.32183"
     inkscape:cy="94.407848"
     inkscape:window-width="1362"
     inkscape:window-height="744"
     inkscape:window-x="0"
     inkscape:window-y="20"
     inkscape:window-maximized="1"
     inkscape:current-layer="svg1"
     showguides="true"><sodipodi:guide
       position="250.02518,350.60736"
       orientation="-0.99997769,0.0066803918"
       id="guide30"
       inkscape:locked="false" /><sodipodi:guide
       position="447.5221,247.89992"
       orientation="0,-1"
       id="guide53"
       inkscape:locked="false" /></sodipodi:namedview><defs
     id="defs1"><linearGradient
       id="linearGradient17"
       inkscape:collect="always"><stop
         style="stop-color:#ff9934;stop-opacity:0.97312492;"
         offset="0"
         id="stop17" /><stop
         style="stop-color:#f3115e;stop-opacity:1;"
         offset="0.79984069"
         id="stop16" /></linearGradient><linearGradient
       id="linearGradient14"
       inkscape:collect="always"><stop
         style="stop-color:#8d11f3;stop-opacity:1;"
         offset="0.20015931"
         id="stop14" /><stop
         style="stop-color:#ff8834;stop-opacity:0.97312492;"
         offset="1"
         id="stop13" /></linearGradient><linearGradient
       id="linearGradient4"
       x1="-683.873"
       y1="-565.884"
       x2="-664.125"
       y2="-585.635"
       gradientTransform="matrix(0.999, 0, 0, -0.999, 688.969, -558.754)"
       gradientUnits="userSpaceOnUse"><stop
         offset="0"
         id="stop3"
         style="stop-color:#df6c00;stop-opacity:1;" /><stop
         offset="1"
         stop-color="#ffffff"
         id="stop4"
         style="stop-color:#959595;stop-opacity:1;" /></linearGradient><linearGradient
       id="swatch61"
       inkscape:swatch="solid"><stop
         style="stop-color:#5090d0;stop-opacity:1;"
         offset="0"
         id="stop61" /></linearGradient><linearGradient
       id="swatch30"
       inkscape:swatch="solid"><stop
         style="stop-color:#f9f9f9;stop-opacity:1;"
         offset="0"
         id="stop30" /></linearGradient><inkscape:perspective
       sodipodi:type="inkscape:persp3d"
       inkscape:vp_x="44.06818 : 315.96746 : 1"
       inkscape:vp_y="0 : 1000 : 0"
       inkscape:vp_z="480.74134 : 298.68846 : 1"
       inkscape:persp3d-origin="250 : 166.66667 : 1"
       id="perspective17" /><linearGradient
       id="a"
       x1="-683.873"
       y1="-565.884"
       x2="-664.125"
       y2="-585.635"
       gradientTransform="matrix(0.999, 0, 0, -0.999, 688.969, -558.754)"
       gradientUnits="userSpaceOnUse"><stop
         offset="0"
         id="stop1" /><stop
         offset="1"
         stop-color="#ffffff"
         id="stop2" /></linearGradient><linearGradient
       id="b"
       x1="-663.231"
       y1="-584.741"
       x2="-682.979"
       y2="-564.99"
       xlink:href="#linearGradient4" /><linearGradient
       inkscape:collect="always"
       xlink:href="#linearGradient14"
       id="linearGradient7"
       x1="10.269234"
       y1="6.7126727"
       x2="24.669367"
       y2="23.302303"
       gradientUnits="userSpaceOnUse" /><linearGradient
       inkscape:collect="always"
       xlink:href="#linearGradient17"
       id="linearGradient9"
       x1="2"
       y1="16.008499"
       x2="25.209816"
       y2="18.863724"
       gradientUnits="userSpaceOnUse" /><inkscape:perspective
       sodipodi:type="inkscape:persp3d"
       inkscape:vp_x="44.06818 : 315.96746 : 1"
       inkscape:vp_y="0 : 1000 : 0"
       inkscape:vp_z="480.74134 : 298.68846 : 1"
       inkscape:persp3d-origin="250 : 166.66667 : 1"
       id="perspective17-0" /><inkscape:perspective
       sodipodi:type="inkscape:persp3d"
       inkscape:vp_x="44.06818 : 315.96746 : 1"
       inkscape:vp_y="0 : 1000 : 0"
       inkscape:vp_z="480.74134 : 298.68846 : 1"
       inkscape:persp3d-origin="250 : 166.66667 : 1"
       id="perspective17-8" /><linearGradient
       inkscape:collect="always"
       xlink:href="#linearGradient14"
       id="linearGradient22"
       x1="499.6615"
       y1="279.3765"
       x2="247.31035"
       y2="425.0715"
       gradientUnits="userSpaceOnUse" /></defs><path
     id="path14"
     style="opacity:1;fill:url(#linearGradient9);fill-opacity:1;stroke:none;stroke-opacity:1"
     d="M 15.971058,2.0169854 C 8.2739336,2.0958004 2.0590164,8.3267293 2.0000065,16.024031 c 0,8.703868 7.3161317,13.650016 13.3701255,13.960076 l -0.05759,-0.05771 c -2.23421,-0.345921 -8.4506766,-2.319646 -8.4515504,-11.961396 0,-6.756986 5.0150694,-10.131029 9.1080614,-8.7200318 l -0.009,0.00543 c 6.37e-4,2.169e-4 0.0013,3.73e-4 0.0019,5.901e-4 1.448435,0.6702328 2.629073,1.8085521 3.351707,3.2315691 H 25.022 v 2.29041 l 0.189294,-0.189294 c 0.0067,-0.160503 0.01275,-0.32141 0.01275,-0.485627 0,-8.3132358 -4.94066,-11.2475821 -7.710189,-11.930004 -0.543057,-0.098311 -1.062922,-0.1510576 -1.542793,-0.1510576 z"
     transform="matrix(16.549986,0,0,16.549986,-12.385236,-13.556862)"
     sodipodi:nodetypes="ccccccccccccscc" /><path
     id="path15"
     style="display:inline;opacity:1;fill:url(#linearGradient7);fill-opacity:1"
     d="m 16.413373,2.0012896 c -0.148564,-0.00478 -0.277746,9.459e-4 -0.38437,0.015696 0.305624,0 0.616159,0.015821 0.928767,0.040243 -0.200076,-0.031052 -0.38491,-0.050803 -0.544397,-0.055939 z m 0.544397,0.055939 c 2.59554,0.4028232 8.26627,3.1322326 8.26627,12.0408189 0,0.164249 -0.0061,0.325094 -0.01275,0.485627 l 1.430208,-1.430208 3.320787,3.320905 c 0.01532,-0.159879 0.02791,-0.320007 0.03777,-0.480316 0,-8.5476867 -7.055153,-13.4691048 -13.042284,-13.9368269 z m -2.95223,6.8714654 c -3.574273,0.042258 -7.1445494,3.3350955 -7.1445494,9.0363085 8.708e-4,9.609709 6.1977504,11.607544 8.4539114,11.963756 l -2.724347,-2.724346 1.619502,-1.61962 H 11.91953 v -6.333441 h 0.581217 C 12.046623,18.243109 11.834069,17.142797 11.879995,16.037957 11.753169,13.15742 13.364161,10.481143 15.969052,9.2449702 15.329521,9.0245017 14.667442,8.9208679 14.00554,8.9286935 Z m 15.572025,10.2453585 -0.0773,0.0773 h 0.06007 c 0.0058,-0.02575 0.01156,-0.05152 0.01723,-0.0773 z"
     transform="matrix(16.549986,0,0,16.549986,-12.385236,-13.556862)"
     sodipodi:nodetypes="sccscscccccscccccccccscccc" /><path
     id="path7"
     style="color:#000000;fill:url(#linearGradient22);fill-opacity:1;stroke-width:0.919726;stroke-linejoin:round;-inkscape-stroke:none;paint-order:markers fill stroke"
     d="m 316.8702,212.98851 v 43.48575 c -5.56237,1.75679 -10.91967,3.9855 -16.05387,6.59974 l -30.71377,-30.71377 -45.88925,45.88924 30.40124,30.4012 c -2.74844,5.21967 -5.07549,10.6871 -6.93029,16.36284 H 204.8434 v 64.89808 h 42.79236 c 1.85159,5.69328 4.18177,11.17571 6.93206,16.41133 l -30.35271,30.35272 45.88924,45.88923 30.62035,-30.62036 c 5.16217,2.63491 10.54978,4.88087 16.1455,6.64824 v 43.34023 h 64.89805 v -43.96356 c 5.37445,-1.8071 10.56173,-4.03079 15.52217,-6.64285 l 31.2365,31.23651 45.88924,-45.88923 -31.55087,-31.55087 c 2.48117,-4.87276 4.60329,-9.95104 6.31413,-15.21139 h 44.60844 v -64.89808 h -44.65694 c -1.71348,-5.24307 -3.83321,-10.30592 -6.31234,-15.16289 l 31.60117,-31.60115 -45.88923,-45.88924 -31.33351,31.33352 c -4.93246,-2.59107 -10.08769,-4.80033 -15.42876,-6.59616 v -44.10908 z m 31.53648,95.31727 a 53.109151,49.228277 0 0 1 53.10871,49.22683 53.109151,49.228277 0 0 1 -53.10871,49.22863 53.109151,49.228277 0 0 1 -53.10871,-49.22863 53.109151,49.228277 0 0 1 53.10871,-49.22683 z" /></svg>
