<?xml version="1.0" encoding="UTF-8" standalone="no"?>
<!-- Created with Inkscape (http://www.inkscape.org/) -->

<svg
   width="500"
   height="500"
   viewBox="0 0 500 500"
   version="1.1"
   id="svg1"
   inkscape:version="1.3.2 (091e20ef0f, 2023-11-25, custom)"
   sodipodi:docname="config.svg"
   xmlns:inkscape="http://www.inkscape.org/namespaces/inkscape"
   xmlns:sodipodi="http://sodipodi.sourceforge.net/DTD/sodipodi-0.dtd"
   xmlns:xlink="http://www.w3.org/1999/xlink"
   xmlns="http://www.w3.org/2000/svg"
   xmlns:svg="http://www.w3.org/2000/svg">
  <sodipodi:namedview
     id="namedview1"
     pagecolor="#505050"
     bordercolor="#eeeeee"
     borderopacity="1"
     inkscape:showpageshadow="0"
     inkscape:pageopacity="0"
     inkscape:pagecheckerboard="0"
     inkscape:deskcolor="#505050"
     inkscape:document-units="px"
     inkscape:zoom="1"
     inkscape:cx="209.5"
     inkscape:cy="257.5"
     inkscape:window-width="1352"
     inkscape:window-height="734"
     inkscape:window-x="4"
     inkscape:window-y="24"
     inkscape:window-maximized="1"
     inkscape:current-layer="layer4"
     showguides="true">
    <sodipodi:guide
       position="250.02518,350.60736"
       orientation="-0.99997769,0.0066803918"
       id="guide30"
       inkscape:locked="false" />
    <sodipodi:guide
       position="66.396728,247.89992"
       orientation="0,-1"
       id="guide53"
       inkscape:locked="false" />
  </sodipodi:namedview>
  <defs
     id="defs1">
    <linearGradient
       id="linearGradient1"
       inkscape:collect="always">
      <stop
         style="stop-color:#739bd4;stop-opacity:1;"
         offset="0"
         id="stop1" />
      <stop
         style="stop-color:#70d489;stop-opacity:1;"
         offset="1"
         id="stop2" />
    </linearGradient>
    <linearGradient
       id="swatch61"
       inkscape:swatch="solid">
      <stop
         style="stop-color:#5090d0;stop-opacity:1;"
         offset="0"
         id="stop61" />
    </linearGradient>
    <linearGradient
       id="swatch30"
       inkscape:swatch="solid">
      <stop
         style="stop-color:#f9f9f9;stop-opacity:1;"
         offset="0"
         id="stop30" />
    </linearGradient>
    <inkscape:perspective
       sodipodi:type="inkscape:persp3d"
       inkscape:vp_x="44.06818 : 315.96746 : 1"
       inkscape:vp_y="0 : 1000 : 0"
       inkscape:vp_z="480.74134 : 298.68846 : 1"
       inkscape:persp3d-origin="250 : 166.66667 : 1"
       id="perspective17" />
    <linearGradient
       inkscape:collect="always"
       xlink:href="#linearGradient1"
       id="linearGradient2"
       x1="113.35135"
       y1="110.53959"
       x2="423.27097"
       y2="420.30679"
       gradientUnits="userSpaceOnUse"
       gradientTransform="matrix(0.91136462,0,0,0.91136462,22.417031,22.182366)" />
  </defs>
  <g
     inkscape:groupmode="layer"
     id="layer4"
     inkscape:label="Layer 2"
     transform="matrix(1.3357286,0,0,1.3357286,-84.910086,-84.021232)">
    <path
       id="path7"
       style="color:#000000;fill:url(#linearGradient2);stroke-width:0.98832;stroke-linejoin:round;-inkscape-stroke:none;paint-order:markers fill stroke"
       d="m 218.04749,95.017593 v 46.729137 c -5.97724,1.88782 -11.73411,4.28277 -17.25125,7.09199 l -33.00458,-33.00456 -49.31191,49.3119 32.66871,32.6687 c -2.95342,5.60896 -5.45404,11.4842 -7.44719,17.58326 H 97.665131 v 69.73853 h 45.984049 c 1.98967,6.11793 4.49365,12.00927 7.44907,17.63538 l -32.61656,32.6166 49.3119,49.31191 32.90419,-32.9042 c 5.54719,2.83142 11.33663,5.24491 17.34971,7.14408 v 46.5728 H 287.786 v -47.24261 c 5.7753,-1.94188 11.34948,-4.33142 16.6799,-7.13831 l 33.56629,33.56629 49.3119,-49.31189 -33.9041,-33.90411 c 2.66623,-5.23619 4.94663,-10.69325 6.78508,-16.34594 h 47.93558 v -69.73853 h -47.9877 c -1.84128,-5.63412 -4.11911,-11.07459 -6.78314,-16.29382 l 33.95816,-33.95814 -49.31192,-49.3119 -33.67052,33.67054 c -5.30037,-2.78433 -10.84009,-5.15836 -16.57953,-7.08815 V 95.017593 Z m 33.88865,102.426537 a 57.070324,52.899992 0 0 1 57.06986,52.89844 57.070324,52.899992 0 0 1 -57.06986,52.90037 57.070324,52.899992 0 0 1 -57.06985,-52.90037 57.070324,52.899992 0 0 1 57.06985,-52.89844 z" />
  </g>
</svg>
