<?xml version="1.0" encoding="UTF-8" standalone="no"?>
<!-- Created with Inkscape (http://www.inkscape.org/) -->

<svg
   width="500"
   height="500"
   viewBox="0 0 500 500"
   version="1.1"
   id="svg1"
   inkscape:version="1.3.2 (091e20ef0f, 2023-11-25, custom)"
   sodipodi:docname="config.ts.svg"
   xml:space="preserve"
   xmlns:inkscape="http://www.inkscape.org/namespaces/inkscape"
   xmlns:sodipodi="http://sodipodi.sourceforge.net/DTD/sodipodi-0.dtd"
   xmlns="http://www.w3.org/2000/svg"
   xmlns:svg="http://www.w3.org/2000/svg"><sodipodi:namedview
     id="namedview1"
     pagecolor="#505050"
     bordercolor="#eeeeee"
     borderopacity="1"
     inkscape:showpageshadow="0"
     inkscape:pageopacity="0"
     inkscape:pagecheckerboard="0"
     inkscape:deskcolor="#505050"
     inkscape:document-units="px"
     inkscape:zoom="0.96390292"
     inkscape:cx="278.55502"
     inkscape:cy="234.98217"
     inkscape:window-width="1362"
     inkscape:window-height="744"
     inkscape:window-x="0"
     inkscape:window-y="20"
     inkscape:window-maximized="1"
     inkscape:current-layer="layer1"
     showguides="true"><sodipodi:guide
       position="250.02518,350.60736"
       orientation="-0.99997769,0.0066803918"
       id="guide30"
       inkscape:locked="false" /><sodipodi:guide
       position="66.396728,247.89992"
       orientation="0,-1"
       id="guide53"
       inkscape:locked="false" /></sodipodi:namedview><defs
     id="defs1"><linearGradient
       id="swatch61"
       inkscape:swatch="solid"><stop
         style="stop-color:#5090d0;stop-opacity:1;"
         offset="0"
         id="stop61" /></linearGradient><linearGradient
       id="swatch30"
       inkscape:swatch="solid"><stop
         style="stop-color:#f9f9f9;stop-opacity:1;"
         offset="0"
         id="stop30" /></linearGradient><inkscape:perspective
       sodipodi:type="inkscape:persp3d"
       inkscape:vp_x="44.06818 : 315.96746 : 1"
       inkscape:vp_y="0 : 1000 : 0"
       inkscape:vp_z="480.74134 : 298.68846 : 1"
       inkscape:persp3d-origin="250 : 166.66667 : 1"
       id="perspective17" /><inkscape:perspective
       sodipodi:type="inkscape:persp3d"
       inkscape:vp_x="44.06818 : 315.96746 : 1"
       inkscape:vp_y="0 : 1000 : 0"
       inkscape:vp_z="480.74134 : 298.68846 : 1"
       inkscape:persp3d-origin="250 : 166.66667 : 1"
       id="perspective17-2" /><inkscape:perspective
       sodipodi:type="inkscape:persp3d"
       inkscape:vp_x="44.06818 : 315.96746 : 1"
       inkscape:vp_y="0 : 1000 : 0"
       inkscape:vp_z="480.74134 : 298.68846 : 1"
       inkscape:persp3d-origin="250 : 166.66667 : 1"
       id="perspective17-7" /></defs><g
     inkscape:label="Layer 1"
     inkscape:groupmode="layer"
     id="layer1"><path
       id="rect53-0"
       style="fill:none;fill-opacity:0.3137255;fill-rule:nonzero;stroke:#3178c6;stroke-width:22.0622;stroke-linecap:butt;stroke-linejoin:round;stroke-dasharray:none;stroke-opacity:1;paint-order:markers fill stroke"
       d="M 88.179688 23.089844 C 86.530739 23.089844 85.006447 23.681216 83.662109 24.636719 L 35.392578 24.636719 C 29.41966 24.636719 24.611328 30.000382 24.611328 36.662109 L 24.611328 178.59375 C 24.611328 185.25548 29.41966 190.61719 35.392578 190.61719 L 78.783203 190.61719 L 78.783203 434.68945 C 78.783203 441.41005 82.97427 446.82031 88.179688 446.82031 L 429.86328 446.82031 C 435.0687 446.82031 439.25781 441.41005 439.25781 434.68945 L 439.25781 35.220703 C 439.25781 28.500105 435.0687 23.089844 429.86328 23.089844 L 88.179688 23.089844 z " /><path
       id="path7"
       style="color:#000000;fill:#3178c6;fill-opacity:1;stroke-width:0.797249;stroke-linejoin:round;-inkscape-stroke:none;paint-order:markers fill stroke"
       d="m 232.99268,126.88164 v 37.69492 c -4.82165,1.52284 -9.46554,3.45477 -13.91604,5.72088 l -26.62374,-26.62374 -39.77836,39.77835 26.35282,26.3528 c -2.38244,4.52458 -4.3996,9.26394 -6.00741,14.18386 h -37.1359 v 56.25586 h 37.09387 c 1.60501,4.93513 3.62489,9.68749 6.00894,14.2259 l -26.31076,26.31077 39.77835,39.77835 26.54277,-26.54277 c 4.47474,2.28402 9.1449,4.2309 13.99546,5.76291 v 37.56879 h 56.25584 v -38.10911 c 4.65875,-1.56646 9.15526,-3.49402 13.45514,-5.75825 l 27.07686,27.07687 39.77835,-39.77835 -27.34936,-27.34936 c 2.15076,-4.22387 3.99028,-8.6259 5.4733,-13.18575 h 38.66811 v -56.25586 h -38.71015 c -1.4853,-4.54487 -3.32276,-8.93352 -5.47175,-13.1437 l 27.39297,-27.39296 -39.77835,-39.77835 -27.16095,27.16096 c -4.27563,-2.24603 -8.74435,-4.16109 -13.37417,-5.71778 v -38.23524 z m 27.33689,82.62424 a 46.036817,42.672743 0 0 1 46.03644,42.67149 46.036817,42.672743 0 0 1 -46.03644,42.67305 46.036817,42.672743 0 0 1 -46.03643,-42.67305 46.036817,42.672743 0 0 1 46.03643,-42.67149 z" /></g></svg>
