<?xml version="1.0" encoding="UTF-8" standalone="no"?>
<!-- Created with Inkscape (http://www.inkscape.org/) -->

<svg
   width="500"
   height="500"
   viewBox="0 0 500 500"
   version="1.1"
   id="svg1"
   inkscape:version="1.3.2 (091e20ef0f, 2023-11-25, custom)"
   sodipodi:docname="config.js.svg"
   xml:space="preserve"
   xmlns:inkscape="http://www.inkscape.org/namespaces/inkscape"
   xmlns:sodipodi="http://sodipodi.sourceforge.net/DTD/sodipodi-0.dtd"
   xmlns:xlink="http://www.w3.org/1999/xlink"
   xmlns="http://www.w3.org/2000/svg"
   xmlns:svg="http://www.w3.org/2000/svg"><sodipodi:namedview
     id="namedview1"
     pagecolor="#505050"
     bordercolor="#eeeeee"
     borderopacity="1"
     inkscape:showpageshadow="0"
     inkscape:pageopacity="0"
     inkscape:pagecheckerboard="0"
     inkscape:deskcolor="#505050"
     inkscape:document-units="px"
     inkscape:zoom="0.68158229"
     inkscape:cx="334.51573"
     inkscape:cy="238.41582"
     inkscape:window-width="1352"
     inkscape:window-height="734"
     inkscape:window-x="4"
     inkscape:window-y="24"
     inkscape:window-maximized="1"
     inkscape:current-layer="svg1"
     showguides="true"><sodipodi:guide
       position="250.02518,350.60736"
       orientation="-0.99997769,0.0066803918"
       id="guide30"
       inkscape:locked="false" /><sodipodi:guide
       position="66.396728,247.89992"
       orientation="0,-1"
       id="guide53"
       inkscape:locked="false" /></sodipodi:namedview><defs
     id="defs1"><linearGradient
       id="swatch61"
       inkscape:swatch="solid"><stop
         style="stop-color:#5090d0;stop-opacity:1;"
         offset="0"
         id="stop61" /></linearGradient><linearGradient
       id="swatch30"
       inkscape:swatch="solid"><stop
         style="stop-color:#f9f9f9;stop-opacity:1;"
         offset="0"
         id="stop30" /></linearGradient><inkscape:perspective
       sodipodi:type="inkscape:persp3d"
       inkscape:vp_x="44.06818 : 315.96746 : 1"
       inkscape:vp_y="0 : 1000 : 0"
       inkscape:vp_z="480.74134 : 298.68846 : 1"
       inkscape:persp3d-origin="250 : 166.66667 : 1"
       id="perspective17" /><inkscape:perspective
       sodipodi:type="inkscape:persp3d"
       inkscape:vp_x="44.06818 : 315.96746 : 1"
       inkscape:vp_y="0 : 1000 : 0"
       inkscape:vp_z="480.74134 : 298.68846 : 1"
       inkscape:persp3d-origin="250 : 166.66667 : 1"
       id="perspective17-2" /><inkscape:perspective
       sodipodi:type="inkscape:persp3d"
       inkscape:vp_x="44.06818 : 315.96746 : 1"
       inkscape:vp_y="0 : 1000 : 0"
       inkscape:vp_z="480.74134 : 298.68846 : 1"
       inkscape:persp3d-origin="250 : 166.66667 : 1"
       id="perspective17-7" /><inkscape:perspective
       sodipodi:type="inkscape:persp3d"
       inkscape:vp_x="44.06818 : 315.96746 : 1"
       inkscape:vp_y="0 : 1000 : 0"
       inkscape:vp_z="480.74134 : 298.68846 : 1"
       inkscape:persp3d-origin="250 : 166.66667 : 1"
       id="perspective17-3" /><inkscape:perspective
       sodipodi:type="inkscape:persp3d"
       inkscape:vp_x="44.06818 : 315.96746 : 1"
       inkscape:vp_y="0 : 1000 : 0"
       inkscape:vp_z="480.74134 : 298.68846 : 1"
       inkscape:persp3d-origin="250 : 166.66667 : 1"
       id="perspective17-2-6" /><inkscape:perspective
       sodipodi:type="inkscape:persp3d"
       inkscape:vp_x="44.06818 : 315.96746 : 1"
       inkscape:vp_y="0 : 1000 : 0"
       inkscape:vp_z="480.74134 : 298.68846 : 1"
       inkscape:persp3d-origin="250 : 166.66667 : 1"
       id="perspective17-5" /><inkscape:perspective
       sodipodi:type="inkscape:persp3d"
       inkscape:vp_x="44.06818 : 315.96746 : 1"
       inkscape:vp_y="0 : 1000 : 0"
       inkscape:vp_z="480.74134 : 298.68846 : 1"
       inkscape:persp3d-origin="250 : 166.66667 : 1"
       id="perspective17-2-5" /><inkscape:perspective
       sodipodi:type="inkscape:persp3d"
       inkscape:vp_x="44.06818 : 315.96746 : 1"
       inkscape:vp_y="0 : 1000 : 0"
       inkscape:vp_z="480.74134 : 298.68846 : 1"
       inkscape:persp3d-origin="250 : 166.66667 : 1"
       id="perspective17-29" /><inkscape:perspective
       sodipodi:type="inkscape:persp3d"
       inkscape:vp_x="44.06818 : 315.96746 : 1"
       inkscape:vp_y="0 : 1000 : 0"
       inkscape:vp_z="480.74134 : 298.68846 : 1"
       inkscape:persp3d-origin="250 : 166.66667 : 1"
       id="perspective17-2-1" /><linearGradient
       id="linearGradient4"
       x1="-683.873"
       y1="-565.884"
       x2="-664.125"
       y2="-585.635"
       gradientTransform="matrix(0.999, 0, 0, -0.999, 688.969, -558.754)"
       gradientUnits="userSpaceOnUse"><stop
         offset="0"
         id="stop3"
         style="stop-color:#df6c00;stop-opacity:1;" /><stop
         offset="1"
         stop-color="#ffffff"
         id="stop4"
         style="stop-color:#959595;stop-opacity:1;" /></linearGradient><inkscape:perspective
       sodipodi:type="inkscape:persp3d"
       inkscape:vp_x="44.06818 : 315.96746 : 1"
       inkscape:vp_y="0 : 1000 : 0"
       inkscape:vp_z="480.74134 : 298.68846 : 1"
       inkscape:persp3d-origin="250 : 166.66667 : 1"
       id="perspective17-6" /><linearGradient
       id="a"
       x1="-683.873"
       y1="-565.884"
       x2="-664.125"
       y2="-585.635"
       gradientTransform="matrix(0.999, 0, 0, -0.999, 688.969, -558.754)"
       gradientUnits="userSpaceOnUse"><stop
         offset="0"
         id="stop1" /><stop
         offset="1"
         stop-color="#ffffff"
         id="stop2" /></linearGradient><linearGradient
       id="b"
       x1="-663.231"
       y1="-584.741"
       x2="-682.979"
       y2="-564.99"
       xlink:href="#linearGradient4" /><inkscape:perspective
       sodipodi:type="inkscape:persp3d"
       inkscape:vp_x="44.06818 : 315.96746 : 1"
       inkscape:vp_y="0 : 1000 : 0"
       inkscape:vp_z="480.74134 : 298.68846 : 1"
       inkscape:persp3d-origin="250 : 166.66667 : 1"
       id="perspective17-291" /><inkscape:perspective
       sodipodi:type="inkscape:persp3d"
       inkscape:vp_x="44.06818 : 315.96746 : 1"
       inkscape:vp_y="0 : 1000 : 0"
       inkscape:vp_z="480.74134 : 298.68846 : 1"
       inkscape:persp3d-origin="250 : 166.66667 : 1"
       id="perspective17-62" /></defs><path
     id="path7"
     style="color:#000000;fill:#ffc340;fill-opacity:1;stroke-width:1.19021;stroke-linejoin:round;-inkscape-stroke:none;paint-order:markers fill stroke"
     d="M 182.64062 43.359375 L 182.64062 99.634766 C 175.44239 101.90821 168.5094 104.79075 161.86523 108.17383 L 122.11719 68.427734 L 62.732422 127.8125 L 102.07422 167.1543 C 98.517468 173.90905 95.507739 180.98512 93.107422 188.33008 L 37.666016 188.33008 L 37.666016 272.31445 L 93.042969 272.31445 C 95.439076 279.68211 98.454511 286.77734 102.01367 293.55273 L 62.734375 332.83203 L 122.12109 392.2168 L 161.74609 352.5918 C 168.42644 356.00161 175.39923 358.90817 182.64062 361.19531 L 182.64062 417.28125 L 229.48828 417.28125 C 238.72799 407.01877 252.89568 402.15895 266.625 404.68945 L 266.625 360.38867 C 268.122 359.88532 269.56111 359.25997 271.03516 358.70703 L 271.03516 288.18164 A 10.001 10.001 0 0 0 271.03516 288.17969 C 271.03566 283.1034 272.03422 278.25476 273.78516 273.77344 A 68.728447 63.706214 0 0 1 223.45117 294.11914 A 68.728447 63.706214 0 0 1 154.72266 230.41406 A 68.728447 63.706214 0 0 1 223.45117 166.70898 A 68.728447 63.706214 0 0 1 292.17969 230.41406 A 68.728447 63.706214 0 0 1 285.70508 257.30664 C 292.61887 251.61552 301.4491 248.18251 311.0332 248.18164 A 10.001 10.001 0 0 0 311.03516 248.18164 L 332.28125 248.18164 A 10.001 10.001 0 0 0 332.2832 248.18164 C 348.6258 248.18328 362.77015 258.1633 368.95312 272.31445 L 411.58789 272.31445 L 411.58789 188.33008 L 353.79883 188.33008 C 351.58143 181.54503 348.83715 174.99436 345.62891 168.70898 L 386.52539 127.8125 L 327.13867 68.427734 L 286.58984 108.97656 C 280.20675 105.62346 273.53687 102.76539 266.625 100.44141 L 266.625 43.359375 L 182.64062 43.359375 z " /><path
     d="m 284.92666,468.38234 c 30.20401,0 47.35374,-19.19747 47.35374,-53.7529 V 288.18215 h -21.24519 v 128.75099 c 0,20.98922 -9.47075,32.76367 -26.62048,32.76367 -7.67899,0 -17.91763,-2.3037 -25.08469,-5.88722 l -6.14319,15.8699 c 10.23865,6.14319 20.98923,8.70285 31.73981,8.70285 z m 126.44747,0 c 30.45998,0 49.14551,-14.33411 49.14551,-37.1151 0,-45.30601 -73.71826,-28.41224 -73.71826,-56.31256 0,-10.75058 11.51848,-17.66166 29.94804,-17.66166 10.49462,0 22.78099,2.30369 33.2756,5.88722 l 4.86336,-16.6378 c -10.49461,-4.35143 -23.03695,-6.65512 -36.09123,-6.65512 -31.99577,0 -52.47306,14.07814 -52.47306,37.37106 0,44.28215 73.46229,25.85258 73.46229,56.05659 0,11.26251 -9.98268,17.66167 -26.87645,17.66167 -13.05428,0 -30.45998,-3.58353 -43.51425,-9.21478 l -4.86336,16.6378 c 14.07814,6.39915 31.22788,9.98268 46.84181,9.98268 z"
     id="text1"
     style="font-size:240px;font-family:System-ui;-inkscape-font-specification:System-ui;fill:none;fill-opacity:0.313725;stroke:#ffc340;stroke-width:25.0943;stroke-linejoin:round;stroke-opacity:1;paint-order:markers fill stroke"
     aria-label="Js" /></svg>
