<?xml version="1.0" encoding="UTF-8" standalone="no"?>
<!-- Created with Inkscape (http://www.inkscape.org/) -->

<svg
   width="500"
   height="500"
   viewBox="0 0 500 500"
   version="1.1"
   id="svg1"
   inkscape:version="1.3.2 (091e20ef0f, 2023-11-25, custom)"
   sodipodi:docname="controller.ts.svg"
   xml:space="preserve"
   xmlns:inkscape="http://www.inkscape.org/namespaces/inkscape"
   xmlns:sodipodi="http://sodipodi.sourceforge.net/DTD/sodipodi-0.dtd"
   xmlns="http://www.w3.org/2000/svg"
   xmlns:svg="http://www.w3.org/2000/svg"><sodipodi:namedview
     id="namedview1"
     pagecolor="#505050"
     bordercolor="#eeeeee"
     borderopacity="1"
     inkscape:showpageshadow="0"
     inkscape:pageopacity="0"
     inkscape:pagecheckerboard="0"
     inkscape:deskcolor="#505050"
     inkscape:document-units="px"
     inkscape:zoom="0.48195146"
     inkscape:cx="207.48977"
     inkscape:cy="241.72559"
     inkscape:window-width="1362"
     inkscape:window-height="744"
     inkscape:window-x="0"
     inkscape:window-y="20"
     inkscape:window-maximized="0"
     inkscape:current-layer="layer1"
     showguides="true"><sodipodi:guide
       position="250.02518,350.60736"
       orientation="-0.99997769,0.0066803918"
       id="guide30"
       inkscape:locked="false" /><sodipodi:guide
       position="66.396728,247.89992"
       orientation="0,-1"
       id="guide53"
       inkscape:locked="false" /></sodipodi:namedview><defs
     id="defs1"><inkscape:path-effect
       effect="mirror_symmetry"
       start_point="248.12166,112.56742"
       end_point="248.12166,312.24894"
       center_point="248.12166,212.40818"
       id="path-effect3"
       is_visible="true"
       lpeversion="1.2"
       lpesatellites=""
       mode="free"
       discard_orig_path="false"
       fuse_paths="true"
       oposite_fuse="false"
       split_items="false"
       split_open="false"
       link_styles="false" /><linearGradient
       id="swatch61"
       inkscape:swatch="solid"><stop
         style="stop-color:#5090d0;stop-opacity:1;"
         offset="0"
         id="stop61" /></linearGradient><linearGradient
       id="swatch30"
       inkscape:swatch="solid"><stop
         style="stop-color:#f9f9f9;stop-opacity:1;"
         offset="0"
         id="stop30" /></linearGradient><inkscape:perspective
       sodipodi:type="inkscape:persp3d"
       inkscape:vp_x="44.06818 : 315.96746 : 1"
       inkscape:vp_y="0 : 1000 : 0"
       inkscape:vp_z="480.74134 : 298.68846 : 1"
       inkscape:persp3d-origin="250 : 166.66667 : 1"
       id="perspective17" /><inkscape:perspective
       sodipodi:type="inkscape:persp3d"
       inkscape:vp_x="44.06818 : 315.96746 : 1"
       inkscape:vp_y="0 : 1000 : 0"
       inkscape:vp_z="480.74134 : 298.68846 : 1"
       inkscape:persp3d-origin="250 : 166.66667 : 1"
       id="perspective17-4" /><inkscape:perspective
       sodipodi:type="inkscape:persp3d"
       inkscape:vp_x="44.06818 : 315.96746 : 1"
       inkscape:vp_y="0 : 1000 : 0"
       inkscape:vp_z="480.74134 : 298.68846 : 1"
       inkscape:persp3d-origin="250 : 166.66667 : 1"
       id="perspective17-6" /><inkscape:perspective
       sodipodi:type="inkscape:persp3d"
       inkscape:vp_x="44.06818 : 315.96746 : 1"
       inkscape:vp_y="0 : 1000 : 0"
       inkscape:vp_z="480.74134 : 298.68846 : 1"
       inkscape:persp3d-origin="250 : 166.66667 : 1"
       id="perspective17-3" /><inkscape:perspective
       sodipodi:type="inkscape:persp3d"
       inkscape:vp_x="44.06818 : 315.96746 : 1"
       inkscape:vp_y="0 : 1000 : 0"
       inkscape:vp_z="480.74134 : 298.68846 : 1"
       inkscape:persp3d-origin="250 : 166.66667 : 1"
       id="perspective17-5" /><inkscape:perspective
       sodipodi:type="inkscape:persp3d"
       inkscape:vp_x="44.06818 : 315.96746 : 1"
       inkscape:vp_y="0 : 1000 : 0"
       inkscape:vp_z="480.74134 : 298.68846 : 1"
       inkscape:persp3d-origin="250 : 166.66667 : 1"
       id="perspective17-2" /><inkscape:perspective
       sodipodi:type="inkscape:persp3d"
       inkscape:vp_x="44.06818 : 315.96746 : 1"
       inkscape:vp_y="0 : 1000 : 0"
       inkscape:vp_z="480.74134 : 298.68846 : 1"
       inkscape:persp3d-origin="250 : 166.66667 : 1"
       id="perspective17-26" /><inkscape:perspective
       sodipodi:type="inkscape:persp3d"
       inkscape:vp_x="44.06818 : 315.96746 : 1"
       inkscape:vp_y="0 : 1000 : 0"
       inkscape:vp_z="480.74134 : 298.68846 : 1"
       inkscape:persp3d-origin="250 : 166.66667 : 1"
       id="perspective17-59" /><inkscape:perspective
       sodipodi:type="inkscape:persp3d"
       inkscape:vp_x="44.06818 : 315.96746 : 1"
       inkscape:vp_y="0 : 1000 : 0"
       inkscape:vp_z="480.74134 : 298.68846 : 1"
       inkscape:persp3d-origin="250 : 166.66667 : 1"
       id="perspective17-2-2" /></defs><g
     inkscape:label="Layer 1"
     inkscape:groupmode="layer"
     id="layer1"><path
       id="path3"
       style="opacity:1;fill:#3178c6;fill-opacity:1;stroke-width:63.5543;stroke-linecap:round;stroke-miterlimit:10;stroke-opacity:0.393229"
       d="m 249.34784,91.754104 c -62.48019,2.351615 -117.63862,17.543256 -163.317202,22.450066 -18.741767,0 -44.80332,153.87143 -44.80332,259.07684 0,32.79567 58.760577,41.75468 92.613032,41.75468 32.09798,0 63.42093,-65.37902 91.02914,-65.37902 h 24.47835 24.48083 c 27.60821,0 58.92867,65.37902 91.02665,65.37902 33.85243,0 92.61552,-8.95901 92.61552,-41.75468 0,-105.20541 -26.06155,-259.07684 -44.80331,-259.07684 -45.6786,-4.90681 -100.83951,-20.098451 -163.31969,-22.450066 z m -99.18446,81.578516 c 10.53003,0 19.0663,8.53626 19.0663,19.06629 v 23.28422 h 23.28421 c 10.53003,0 19.06629,8.53627 19.06629,19.06629 0,10.53003 -8.53626,19.06629 -19.06629,19.06629 h -23.28421 v 23.28423 c 0,10.53001 -8.53627,19.06628 -19.0663,19.06628 -10.53002,0 -19.06629,-8.53627 -19.06629,-19.06628 v -23.28423 h -23.28422 c -10.530022,0 -19.06629,-8.53626 -19.06629,-19.06629 0,-10.53002 8.536268,-19.06629 19.06629,-19.06629 h 23.28422 v -23.28422 c 0,-10.53003 8.53627,-19.06629 19.06629,-19.06629 z m 230.04428,14.50082 c 13.94583,-9e-4 25.25141,11.30459 25.25043,25.25041 -4e-4,13.94487 -11.30556,25.24892 -25.25043,25.24795 -13.94389,-3.9e-4 -25.24755,-11.30405 -25.24795,-25.24795 -9e-4,-13.94485 11.30309,-25.25002 25.24795,-25.25041 z m -55.55541,47.98598 c 13.94486,3.9e-4 25.24892,11.30557 25.24795,25.25042 -3.9e-4,13.94389 -11.30406,25.24755 -25.24795,25.24795 -13.94389,-4e-4 -25.24755,-11.30406 -25.24794,-25.24795 -9e-4,-13.94485 11.30309,-25.25001 25.24794,-25.25042 z"
       sodipodi:nodetypes="ccssscsssccsscssscssscssscsscccccccccc" /></g></svg>
