<?xml version="1.0" encoding="UTF-8" standalone="no"?>
<!-- Created with Inkscape (http://www.inkscape.org/) -->

<svg
   width="500"
   height="500"
   viewBox="0 0 500 500"
   version="1.1"
   id="svg1"
   inkscape:version="1.3.2 (091e20ef0f, 2023-11-25, custom)"
   sodipodi:docname="copy.svg"
   xmlns:inkscape="http://www.inkscape.org/namespaces/inkscape"
   xmlns:sodipodi="http://sodipodi.sourceforge.net/DTD/sodipodi-0.dtd"
   xmlns="http://www.w3.org/2000/svg"
   xmlns:svg="http://www.w3.org/2000/svg">
  <sodipodi:namedview
     id="namedview1"
     pagecolor="#505050"
     bordercolor="#eeeeee"
     borderopacity="1"
     inkscape:showpageshadow="0"
     inkscape:pageopacity="0"
     inkscape:pagecheckerboard="0"
     inkscape:deskcolor="#505050"
     inkscape:document-units="px"
     inkscape:zoom="0.96390292"
     inkscape:cx="279.59247"
     inkscape:cy="234.98217"
     inkscape:window-width="1362"
     inkscape:window-height="744"
     inkscape:window-x="0"
     inkscape:window-y="20"
     inkscape:window-maximized="1"
     inkscape:current-layer="layer1"
     showguides="true">
    <sodipodi:guide
       position="250.02518,350.60736"
       orientation="-0.99997769,0.0066803918"
       id="guide30"
       inkscape:locked="false" />
    <sodipodi:guide
       position="66.396728,247.89992"
       orientation="0,-1"
       id="guide53"
       inkscape:locked="false" />
  </sodipodi:namedview>
  <defs
     id="defs1">
    <linearGradient
       id="swatch5"
       inkscape:swatch="solid">
      <stop
         style="stop-color:#a19e9f;stop-opacity:0.31372501;"
         offset="0"
         id="stop5" />
    </linearGradient>
    <linearGradient
       id="swatch61"
       inkscape:swatch="solid">
      <stop
         style="stop-color:#5090d0;stop-opacity:1;"
         offset="0"
         id="stop61" />
    </linearGradient>
    <linearGradient
       id="swatch30"
       inkscape:swatch="solid">
      <stop
         style="stop-color:#f9f9f9;stop-opacity:1;"
         offset="0"
         id="stop30" />
    </linearGradient>
    <inkscape:perspective
       sodipodi:type="inkscape:persp3d"
       inkscape:vp_x="44.06818 : 315.96746 : 1"
       inkscape:vp_y="0 : 1000 : 0"
       inkscape:vp_z="480.74134 : 298.68846 : 1"
       inkscape:persp3d-origin="250 : 166.66667 : 1"
       id="perspective17" />
  </defs>
  <g
     inkscape:label="Layer 1"
     inkscape:groupmode="layer"
     id="layer1">
    <path
       id="rect53-0-4"
       style="fill:#949494;fill-opacity:1;fill-rule:nonzero;stroke:#ffffff;stroke-width:17.528;stroke-linecap:butt;stroke-linejoin:round;stroke-dasharray:none;stroke-opacity:1;paint-order:markers fill stroke"
       d="m 178.51148,123.43038 c -1.30706,0 -2.51531,0.47092 -3.58091,1.23181 h -38.26144 c -4.73451,0 -8.54589,4.27118 -8.54589,9.57604 v 113.02283 c 0,5.30486 3.81138,9.57449 8.54589,9.57449 h 34.39411 v 194.35932 c 0,5.35174 3.3221,9.66003 7.44824,9.66003 h 270.83971 c 4.12614,0 7.44669,-4.30829 7.44669,-9.66003 V 133.09041 c 0,-5.35174 -3.32055,-9.66003 -7.44669,-9.66003 z" />
    <path
       id="rect53-0-4-5"
       style="fill:#949494;fill-opacity:1;fill-rule:nonzero;stroke:#ffffff;stroke-width:17.528;stroke-linecap:butt;stroke-linejoin:round;stroke-dasharray:none;stroke-opacity:1;paint-order:markers fill stroke"
       d="m 138.12718,88.151367 c -1.30706,0 -2.51531,0.47092 -3.58091,1.231813 H 96.284827 c -4.73451,0 -8.54589,4.27118 -8.54589,9.57604 v 113.02283 c 0,5.30486 3.81138,9.57449 8.54589,9.57449 h 34.394113 v 194.35932 c 0,5.35174 3.3221,9.66003 7.44824,9.66003 h 270.83971 c 4.12614,0 7.44669,-4.30829 7.44669,-9.66003 V 97.8114 c 0,-5.35174 -3.32055,-9.660033 -7.44669,-9.660033 z" />
    <path
       id="rect53-0-4-5-7"
       style="fill:#949494;fill-opacity:1;fill-rule:nonzero;stroke:#ffffff;stroke-width:17.528;stroke-linecap:butt;stroke-linejoin:round;stroke-dasharray:none;stroke-opacity:1;paint-order:markers fill stroke"
       d="m 92.872887,48.530155 c -1.30706,0 -2.51531,0.47092 -3.58091,1.23181 H 51.030535 c -4.73451,0 -8.54589,4.27118 -8.54589,9.57604 V 172.36083 c 0,5.30486 3.81138,9.57449 8.54589,9.57449 h 34.39411 v 194.35932 c 0,5.35174 3.322102,9.66003 7.448242,9.66003 H 363.7126 c 4.12614,0 7.44669,-4.30829 7.44669,-9.66003 V 58.190185 c 0,-5.35174 -3.32055,-9.66003 -7.44669,-9.66003 z" />
  </g>
</svg>
