<?xml version="1.0" encoding="UTF-8" standalone="no"?>
<!-- Created with Inkscape (http://www.inkscape.org/) -->

<svg
   width="500"
   height="500"
   viewBox="0 0 500 500"
   version="1.1"
   id="svg1"
   inkscape:version="1.3.2 (091e20ef0f, 2023-11-25, custom)"
   sodipodi:docname="cs.svg"
   xml:space="preserve"
   xmlns:inkscape="http://www.inkscape.org/namespaces/inkscape"
   xmlns:sodipodi="http://sodipodi.sourceforge.net/DTD/sodipodi-0.dtd"
   xmlns="http://www.w3.org/2000/svg"
   xmlns:svg="http://www.w3.org/2000/svg"><sodipodi:namedview
     id="namedview1"
     pagecolor="#505050"
     bordercolor="#eeeeee"
     borderopacity="1"
     inkscape:showpageshadow="0"
     inkscape:pageopacity="0"
     inkscape:pagecheckerboard="0"
     inkscape:deskcolor="#505050"
     inkscape:document-units="px"
     inkscape:zoom="1"
     inkscape:cx="201"
     inkscape:cy="253.5"
     inkscape:window-width="1362"
     inkscape:window-height="744"
     inkscape:window-x="0"
     inkscape:window-y="20"
     inkscape:window-maximized="0"
     inkscape:current-layer="svg1"
     showguides="true"><sodipodi:guide
       position="250.02518,350.60736"
       orientation="-0.99997769,0.0066803918"
       id="guide30"
       inkscape:locked="false" /><sodipodi:guide
       position="66.396728,247.89992"
       orientation="0,-1"
       id="guide53"
       inkscape:locked="false" /><sodipodi:guide
       position="221.35979,127.71308"
       orientation="0,-1"
       id="guide5"
       inkscape:locked="false" /><sodipodi:guide
       position="96.959247,117.65127"
       orientation="1,0"
       id="guide6"
       inkscape:locked="false" /><sodipodi:guide
       position="400.64293,118.56598"
       orientation="1,0"
       id="guide7"
       inkscape:locked="false" /></sodipodi:namedview><defs
     id="defs1"><linearGradient
       id="swatch61"
       inkscape:swatch="solid"><stop
         style="stop-color:#5090d0;stop-opacity:1;"
         offset="0"
         id="stop61" /></linearGradient><linearGradient
       id="swatch30"
       inkscape:swatch="solid"><stop
         style="stop-color:#f9f9f9;stop-opacity:1;"
         offset="0"
         id="stop30" /></linearGradient><inkscape:perspective
       sodipodi:type="inkscape:persp3d"
       inkscape:vp_x="44.06818 : 315.96746 : 1"
       inkscape:vp_y="0 : 1000 : 0"
       inkscape:vp_z="480.74134 : 298.68846 : 1"
       inkscape:persp3d-origin="250 : 166.66667 : 1"
       id="perspective17" /><inkscape:perspective
       sodipodi:type="inkscape:persp3d"
       inkscape:vp_x="44.06818 : 315.96746 : 1"
       inkscape:vp_y="0 : 1000 : 0"
       inkscape:vp_z="480.74134 : 298.68846 : 1"
       inkscape:persp3d-origin="250 : 166.66667 : 1"
       id="perspective17-2" /><inkscape:perspective
       sodipodi:type="inkscape:persp3d"
       inkscape:vp_x="44.06818 : 315.96746 : 1"
       inkscape:vp_y="0 : 1000 : 0"
       inkscape:vp_z="480.74134 : 298.68846 : 1"
       inkscape:persp3d-origin="250 : 166.66667 : 1"
       id="perspective17-0" /><inkscape:perspective
       sodipodi:type="inkscape:persp3d"
       inkscape:vp_x="44.06818 : 315.96746 : 1"
       inkscape:vp_y="0 : 1000 : 0"
       inkscape:vp_z="480.74134 : 298.68846 : 1"
       inkscape:persp3d-origin="250 : 166.66667 : 1"
       id="perspective17-3" /><inkscape:perspective
       sodipodi:type="inkscape:persp3d"
       inkscape:vp_x="44.06818 : 315.96746 : 1"
       inkscape:vp_y="0 : 1000 : 0"
       inkscape:vp_z="480.74134 : 298.68846 : 1"
       inkscape:persp3d-origin="250 : 166.66667 : 1"
       id="perspective17-1" /><radialGradient
       id="a"
       cx="767.179"
       cy="5169.543"
       r="14.989"
       gradientTransform="matrix(0.955,0,0,0.962,-718.112,-4953.917)"
       gradientUnits="userSpaceOnUse"><stop
         offset="0"
         stop-color="#36bac0"
         id="stop1" /><stop
         offset="1"
         stop-color="#2d9094"
         id="stop2" /></radialGradient><inkscape:perspective
       sodipodi:type="inkscape:persp3d"
       inkscape:vp_x="44.06818 : 315.96746 : 1"
       inkscape:vp_y="0 : 1000 : 0"
       inkscape:vp_z="480.74134 : 298.68846 : 1"
       inkscape:persp3d-origin="250 : 166.66667 : 1"
       id="perspective17-6" /></defs><path
     id="rect53-0"
     style="fill:none;fill-opacity:0.313725;fill-rule:nonzero;stroke:#038ff5;stroke-width:22.0622;stroke-linecap:butt;stroke-linejoin:round;stroke-dasharray:none;stroke-opacity:1;paint-order:markers fill stroke"
     d="m 101.93622,37.567782 c -1.64895,0 -3.173239,0.591372 -4.517579,1.546875 H 49.14911 c -5.972918,0 -10.78125,5.363663 -10.78125,12.02539 V 193.07168 c 0,6.66173 4.808332,12.02344 10.78125,12.02344 h 43.390621 v 244.07226 c 0,6.7206 4.19107,12.13086 9.396489,12.13086 h 341.68359 c 5.20542,0 9.39453,-5.41026 9.39453,-12.13086 V 49.698641 c 0,-6.720598 -4.18911,-12.130859 -9.39453,-12.130859 z" /><path
     id="path3"
     style="font-weight:bold;font-size:333.333px;line-height:0;font-family:'FiraCode Nerd Font Mono';-inkscape-font-specification:'FiraCode Nerd Font Mono Bold';letter-spacing:0px;word-spacing:0px;fill:#038ff5;stroke-width:15.6675;stroke-linecap:round;stroke-miterlimit:10"
     d="m 217.67674,145.38013 c -17.01771,0 -32.36156,3.95173 -46.03152,11.85613 -13.66996,7.8114 -24.50453,19.24919 -32.50193,34.31405 -7.90439,15.06486 -11.85612,33.38391 -11.85612,54.95828 0,22.13233 3.81313,40.77901 11.43855,55.93686 7.71842,15.06486 18.31829,26.50265 31.80226,34.31406 13.57698,7.71841 29.10826,11.57721 46.59094,11.57721 14.97186,0 27.75787,-2.55784 38.35906,-7.67246 10.6012,-5.11461 19.52841,-11.25087 26.78186,-18.41134 l -20.78446,-26.50453 c -5.3936,4.27768 -11.29834,8.23099 -17.71486,11.85771 -6.41651,3.62672 -14.46013,5.43957 -24.1314,5.43957 -13.20501,0 -24.03799,-5.25427 -32.50035,-15.76248 -8.36936,-10.60118 -12.55419,-27.52636 -12.55419,-50.7746 0,-15.8088 1.99869,-28.64048 5.9974,-38.49773 3.9987,-9.95025 9.34589,-17.20481 16.04138,-21.76146 6.69549,-4.64964 14.08863,-6.97438 22.17903,-6.97438 7.53243,0 14.50661,1.30256 20.92311,3.90636 6.41652,2.51081 12.2756,5.95065 17.5762,10.32131 l 22.45795,-27.06077 c -8.0904,-6.6955 -17.01761,-11.85684 -26.78187,-15.48356 -9.67126,-3.71972 -21.43509,-5.57823 -35.29104,-5.57823 z m 104.78458,43.54682 -4.01792,31.6923 h -17.07256 v 23.32336 h 13.94875 l -5.80294,44.19069 h -16.40476 v 23.21022 h 13.27935 l -4.01632,32.25011 h 29.12472 l 4.24104,-32.25011 h 21.20205 l -4.24104,32.25011 h 29.1263 l 4.24104,-32.25011 H 403.1416 V 288.1333 h -13.94876 l 5.57982,-44.19069 h 16.6279 v -23.32336 h -13.50409 l 4.24104,-31.6923 h -29.12472 l -4.24104,31.6923 h -21.3136 l 4.35101,-31.6923 z m 21.98299,55.01566 h 21.20204 l -5.80134,44.19069 h -21.20365 z" /></svg>
