<?xml version="1.0" encoding="UTF-8" standalone="no"?>
<!-- Created with Inkscape (http://www.inkscape.org/) -->

<svg
   width="500"
   height="500"
   viewBox="0 0 500 500"
   version="1.1"
   id="svg1"
   inkscape:version="1.3.2 (091e20ef0f, 2023-11-25, custom)"
   sodipodi:docname="css.map.svg"
   xml:space="preserve"
   xmlns:inkscape="http://www.inkscape.org/namespaces/inkscape"
   xmlns:sodipodi="http://sodipodi.sourceforge.net/DTD/sodipodi-0.dtd"
   xmlns="http://www.w3.org/2000/svg"
   xmlns:svg="http://www.w3.org/2000/svg"><sodipodi:namedview
     id="namedview1"
     pagecolor="#505050"
     bordercolor="#eeeeee"
     borderopacity="1"
     inkscape:showpageshadow="0"
     inkscape:pageopacity="0"
     inkscape:pagecheckerboard="0"
     inkscape:deskcolor="#505050"
     inkscape:document-units="px"
     inkscape:zoom="0.35355339"
     inkscape:cx="251.73001"
     inkscape:cy="275.77164"
     inkscape:window-width="652"
     inkscape:window-height="744"
     inkscape:window-x="710"
     inkscape:window-y="20"
     inkscape:window-maximized="1"
     inkscape:current-layer="layer1"
     showguides="true"><sodipodi:guide
       position="250.02518,350.60736"
       orientation="-0.99997769,0.0066803918"
       id="guide30"
       inkscape:locked="false" /><sodipodi:guide
       position="66.396728,247.89992"
       orientation="0,-1"
       id="guide53"
       inkscape:locked="false" /><sodipodi:guide
       position="221.35979,127.71308"
       orientation="0,-1"
       id="guide5"
       inkscape:locked="false" /><sodipodi:guide
       position="96.959247,117.65127"
       orientation="1,0"
       id="guide6"
       inkscape:locked="false" /><sodipodi:guide
       position="400.64293,118.56598"
       orientation="1,0"
       id="guide7"
       inkscape:locked="false" /></sodipodi:namedview><defs
     id="defs1"><linearGradient
       id="swatch61"
       inkscape:swatch="solid"><stop
         style="stop-color:#5090d0;stop-opacity:1;"
         offset="0"
         id="stop61" /></linearGradient><linearGradient
       id="swatch30"
       inkscape:swatch="solid"><stop
         style="stop-color:#f9f9f9;stop-opacity:1;"
         offset="0"
         id="stop30" /></linearGradient><inkscape:perspective
       sodipodi:type="inkscape:persp3d"
       inkscape:vp_x="44.06818 : 315.96746 : 1"
       inkscape:vp_y="0 : 1000 : 0"
       inkscape:vp_z="480.74134 : 298.68846 : 1"
       inkscape:persp3d-origin="250 : 166.66667 : 1"
       id="perspective17" /><inkscape:perspective
       sodipodi:type="inkscape:persp3d"
       inkscape:vp_x="44.06818 : 315.96746 : 1"
       inkscape:vp_y="0 : 1000 : 0"
       inkscape:vp_z="480.74134 : 298.68846 : 1"
       inkscape:persp3d-origin="250 : 166.66667 : 1"
       id="perspective17-2" /><inkscape:perspective
       sodipodi:type="inkscape:persp3d"
       inkscape:vp_x="44.06818 : 315.96746 : 1"
       inkscape:vp_y="0 : 1000 : 0"
       inkscape:vp_z="480.74134 : 298.68846 : 1"
       inkscape:persp3d-origin="250 : 166.66667 : 1"
       id="perspective17-0" /></defs><g
     inkscape:label="Layer 1"
     inkscape:groupmode="layer"
     id="layer1"><path
       id="rect1"
       style="fill:#40aefc;fill-opacity:1;stroke:none;stroke-width:37.5739;stroke-linejoin:bevel;stroke-opacity:1;paint-order:markers fill stroke"
       d="m 162.41069,124.8029 c -21.13439,0 -38.14926,17.01489 -38.14926,38.14928 V 438.7858 c 0,21.13438 17.01487,38.14779 38.14926,38.14779 h 274.08263 c 21.13438,0 38.14926,-17.01341 38.14926,-38.14779 V 162.95218 c 0,-21.13439 -17.01488,-38.14928 -38.14926,-38.14928 z m -5.17228,26.44998 H 449.4842 l -9.42723,61.26603 -122.55408,43.76041 h 113.12684 l -18.85447,166.29245 -113.12684,35.00833 -113.1283,-35.00833 -9.42724,-87.52226 h 56.56342 l 9.42724,43.7604 56.56488,17.50415 56.56342,-17.50415 9.42724,-70.01665 h -188.5462 l -9.42723,-61.26602 150.83724,-43.7604 H 166.66565 Z" /><path
       id="path2"
       style="fill:#40aefc;fill-opacity:1;stroke:none;stroke-width:37.5739;stroke-linejoin:bevel;stroke-opacity:1;paint-order:markers fill stroke"
       d="m 114.95748,78.211252 c -21.13437,0 -38.149265,17.014898 -38.149265,38.149258 v 275.83364 c 0,17.89015 12.20958,32.78434 28.771935,36.94866 -1.1173,-3.59665 -1.71872,-7.42471 -1.71872,-11.3984 V 141.91078 c 0,-21.13437 17.0149,-38.14926 38.14927,-38.14926 h 274.08262 c 3.24345,0 6.37161,0.44426 9.37439,1.19913 -4.82567,-15.531733 -19.2676,-26.749398 -36.4276,-26.749398 z" /><path
       id="path3"
       style="fill:#40aefc;fill-opacity:1;stroke:none;stroke-width:37.5739;stroke-linejoin:bevel;stroke-opacity:1;paint-order:markers fill stroke"
       d="m 68.365826,31.6196 c -21.134366,0 -38.149268,17.014901 -38.149268,38.149263 V 345.60248 c 0,17.89016 12.209583,32.78436 28.771935,36.94868 -1.117296,-3.59664 -1.718714,-7.42471 -1.718714,-11.39842 V 95.31913 c 0,-21.134368 17.014899,-38.149269 38.149261,-38.149269 h 274.08263 c 3.24345,0 6.37161,0.444264 9.3744,1.199135 C 374.05038,42.837263 359.60846,31.6196 342.44845,31.6196 Z" /></g></svg>
