<?xml version="1.0" encoding="UTF-8" standalone="no"?>
<!-- Created with Inkscape (http://www.inkscape.org/) -->

<svg
   width="500"
   height="500"
   viewBox="0 0 500 500"
   version="1.1"
   id="svg1"
   inkscape:version="1.3.2 (091e20ef0f, 2023-11-25, custom)"
   sodipodi:docname="d.ts.svg"
   xmlns:inkscape="http://www.inkscape.org/namespaces/inkscape"
   xmlns:sodipodi="http://sodipodi.sourceforge.net/DTD/sodipodi-0.dtd"
   xmlns="http://www.w3.org/2000/svg"
   xmlns:svg="http://www.w3.org/2000/svg">
  <sodipodi:namedview
     id="namedview1"
     pagecolor="#505050"
     bordercolor="#eeeeee"
     borderopacity="1"
     inkscape:showpageshadow="0"
     inkscape:pageopacity="0"
     inkscape:pagecheckerboard="0"
     inkscape:deskcolor="#505050"
     inkscape:document-units="px"
     inkscape:zoom="0.96390292"
     inkscape:cx="278.55502"
     inkscape:cy="234.98217"
     inkscape:window-width="1362"
     inkscape:window-height="744"
     inkscape:window-x="0"
     inkscape:window-y="20"
     inkscape:window-maximized="1"
     inkscape:current-layer="layer1"
     showguides="true">
    <sodipodi:guide
       position="250.02518,350.60736"
       orientation="-0.99997769,0.0066803918"
       id="guide30"
       inkscape:locked="false" />
    <sodipodi:guide
       position="66.396728,247.89992"
       orientation="0,-1"
       id="guide53"
       inkscape:locked="false" />
  </sodipodi:namedview>
  <defs
     id="defs1">
    <linearGradient
       id="swatch61"
       inkscape:swatch="solid">
      <stop
         style="stop-color:#5090d0;stop-opacity:1;"
         offset="0"
         id="stop61" />
    </linearGradient>
    <linearGradient
       id="swatch30"
       inkscape:swatch="solid">
      <stop
         style="stop-color:#f9f9f9;stop-opacity:1;"
         offset="0"
         id="stop30" />
    </linearGradient>
    <inkscape:perspective
       sodipodi:type="inkscape:persp3d"
       inkscape:vp_x="44.06818 : 315.96746 : 1"
       inkscape:vp_y="0 : 1000 : 0"
       inkscape:vp_z="480.74134 : 298.68846 : 1"
       inkscape:persp3d-origin="250 : 166.66667 : 1"
       id="perspective17" />
  </defs>
  <g
     inkscape:label="Layer 1"
     inkscape:groupmode="layer"
     id="layer1"
     style="opacity:0.46850358">
    <g
       id="rect53-0">
      <path
         id="path1"
         style="color:#000000;fill:#3178c6;stroke-linejoin:round;-inkscape-stroke:none;paint-order:markers fill stroke"
         d="M 88.179688 12.058594 C 85.61425 12.058594 83.316145 12.719679 81.203125 13.605469 L 35.392578 13.605469 C 22.815768 13.605469 13.580078 24.692366 13.580078 36.662109 L 13.580078 178.59375 C 13.580078 190.5635 22.818173 201.64844 35.392578 201.64844 L 67.751953 201.64844 L 67.751953 434.68945 C 67.751953 440.3428 69.439574 445.68194 72.808594 450.03125 C 76.177612 454.38056 81.755267 457.85156 88.179688 457.85156 L 429.86328 457.85156 C 436.28769 457.85156 441.86603 454.37898 445.23438 450.0293 C 448.60272 445.6796 450.28906 440.34173 450.28906 434.68945 L 450.28906 35.220703 C 450.28906 29.568439 448.60272 24.23055 445.23438 19.880859 C 441.86603 15.53117 436.28769 12.058594 429.86328 12.058594 L 88.179688 12.058594 z M 122.07031 154.10156 L 253.11133 154.10156 A 11.765676 11.765676 0 0 1 264.875 165.86719 L 264.875 183.14648 A 11.765676 11.765676 0 0 1 253.11133 194.91211 L 209.19531 194.91211 L 209.19531 332.42578 A 11.765676 11.765676 0 0 1 197.43164 344.19141 L 177.51172 344.19141 A 11.765676 11.765676 0 0 1 165.74609 332.42578 L 165.74609 194.91211 L 122.07031 194.91211 A 11.765676 11.765676 0 0 1 110.30664 183.14648 L 110.30664 165.86719 A 11.765676 11.765676 0 0 1 122.07031 154.10156 z M 317.43164 202.58203 C 331.05567 202.58203 344.23098 204.93122 355.77734 209.71875 A 11.765676 11.765676 0 0 1 362.5625 223.88672 L 358.00195 239.48828 A 11.765676 11.765676 0 0 1 342.91016 247.32031 C 334.26832 244.36946 323.63006 242.43164 315.51172 242.43164 C 308.34231 242.43164 303.23842 243.95369 300.98828 245.28711 C 298.73814 246.62053 299.19531 246.38817 299.19531 247.22656 C 299.19531 247.48399 299.16427 247.45191 299.14258 247.44531 C 299.15985 247.43655 299.187 247.44103 299.24219 247.50391 C 299.48467 247.78019 300.67031 248.75753 302.97852 249.77539 C 307.59491 251.8111 315.97192 253.71905 325.0293 256.14062 C 334.08668 258.56222 344.08381 261.52778 352.84375 268.14844 C 361.60369 274.76908 368.31445 286.21702 368.31445 300.02734 C 368.31445 313.92382 361.96337 326.74528 351.33008 334.81055 C 340.69679 342.87579 326.59608 346.5918 310.4707 346.5918 C 294.03073 346.5918 276.65389 342.98045 261.68359 336.17578 A 11.765676 11.765676 0 0 1 255.25977 322.16602 L 259.81836 306.56641 A 11.765676 11.765676 0 0 1 275.77148 299.06445 C 286.18598 303.55699 301.82317 306.74219 311.91016 306.74219 C 318.34471 306.74219 322.48451 305.33797 324.01953 304.33594 C 325.55456 303.33391 325.3457 303.75137 325.3457 301.94727 C 325.3457 300.79174 325.33519 301.06637 325.01953 300.67773 C 324.70388 300.2891 323.60097 299.32421 321.37695 298.28711 C 316.92895 296.21291 308.70353 294.30615 299.75195 292.01367 C 290.80038 289.72119 280.89408 287.0144 272.10742 280.67188 C 263.32076 274.32935 256.4668 263.01949 256.4668 249.38672 C 256.4668 235.01928 263.56009 221.99014 274.80078 214.0625 C 286.04147 206.13486 300.70624 202.58203 317.43164 202.58203 z " />
    </g>
    <g
       id="text1-5" />
  </g>
</svg>
