<?xml version="1.0" encoding="UTF-8" standalone="no"?>
<!-- Created with Inkscape (http://www.inkscape.org/) -->

<svg
   width="500"
   height="500"
   viewBox="0 0 500 500"
   version="1.1"
   id="svg1"
   inkscape:version="1.3.2 (091e20ef0f, 2023-11-25, custom)"
   sodipodi:docname="d.ts.svg"
   xml:space="preserve"
   xmlns:inkscape="http://www.inkscape.org/namespaces/inkscape"
   xmlns:sodipodi="http://sodipodi.sourceforge.net/DTD/sodipodi-0.dtd"
   xmlns="http://www.w3.org/2000/svg"
   xmlns:svg="http://www.w3.org/2000/svg"><sodipodi:namedview
     id="namedview1"
     pagecolor="#505050"
     bordercolor="#eeeeee"
     borderopacity="1"
     inkscape:showpageshadow="0"
     inkscape:pageopacity="0"
     inkscape:pagecheckerboard="0"
     inkscape:deskcolor="#505050"
     inkscape:document-units="px"
     inkscape:zoom="0.96390292"
     inkscape:cx="264.54946"
     inkscape:cy="217.34554"
     inkscape:window-width="1352"
     inkscape:window-height="734"
     inkscape:window-x="4"
     inkscape:window-y="24"
     inkscape:window-maximized="1"
     inkscape:current-layer="svg1"
     showguides="true"><sodipodi:guide
       position="250.02518,350.60736"
       orientation="-0.99997769,0.0066803918"
       id="guide30"
       inkscape:locked="false" /><sodipodi:guide
       position="66.396728,247.89992"
       orientation="0,-1"
       id="guide53"
       inkscape:locked="false" /></sodipodi:namedview><defs
     id="defs1"><linearGradient
       id="swatch61"
       inkscape:swatch="solid"><stop
         style="stop-color:#5090d0;stop-opacity:1;"
         offset="0"
         id="stop61" /></linearGradient><linearGradient
       id="swatch30"
       inkscape:swatch="solid"><stop
         style="stop-color:#f9f9f9;stop-opacity:1;"
         offset="0"
         id="stop30" /></linearGradient><inkscape:perspective
       sodipodi:type="inkscape:persp3d"
       inkscape:vp_x="44.06818 : 315.96746 : 1"
       inkscape:vp_y="0 : 1000 : 0"
       inkscape:vp_z="480.74134 : 298.68846 : 1"
       inkscape:persp3d-origin="250 : 166.66667 : 1"
       id="perspective17" /><inkscape:perspective
       sodipodi:type="inkscape:persp3d"
       inkscape:vp_x="44.06818 : 315.96746 : 1"
       inkscape:vp_y="0 : 1000 : 0"
       inkscape:vp_z="480.74134 : 298.68846 : 1"
       inkscape:persp3d-origin="250 : 166.66667 : 1"
       id="perspective17-6" /><inkscape:perspective
       sodipodi:type="inkscape:persp3d"
       inkscape:vp_x="44.06818 : 315.96746 : 1"
       inkscape:vp_y="0 : 1000 : 0"
       inkscape:vp_z="480.74134 : 298.68846 : 1"
       inkscape:persp3d-origin="250 : 166.66667 : 1"
       id="perspective17-26" /><inkscape:perspective
       sodipodi:type="inkscape:persp3d"
       inkscape:vp_x="44.06818 : 315.96746 : 1"
       inkscape:vp_y="0 : 1000 : 0"
       inkscape:vp_z="480.74134 : 298.68846 : 1"
       inkscape:persp3d-origin="250 : 166.66667 : 1"
       id="perspective17-2" /></defs><path
     id="rect1"
     style="opacity:1;fill:#3178c6;fill-opacity:0.55571288;stroke:none;stroke-width:35.642;stroke-linecap:round;stroke-linejoin:round;stroke-miterlimit:10;stroke-dasharray:none;stroke-opacity:1;paint-order:stroke markers fill"
     d="M 18.210938 22.25 L 18.210938 478.57812 L 480.80664 478.57812 L 480.80664 22.25 L 18.210938 22.25 z M 161.5332 220.58984 L 321.84961 220.58984 A 14.39424 14.39424 0 0 1 336.24219 234.98242 L 336.24219 256.12305 A 14.39424 14.39424 0 0 1 321.84961 270.51562 L 268.12305 270.51562 L 268.12305 438.75391 A 14.39424 14.39424 0 0 1 253.72852 453.14648 L 229.35938 453.14648 A 14.39424 14.39424 0 0 1 214.9668 438.75391 L 214.9668 270.51562 L 161.5332 270.51562 A 14.39424 14.39424 0 0 1 147.14062 256.12305 L 147.14062 234.98242 A 14.39424 14.39424 0 0 1 161.5332 220.58984 z M 400.53906 279.90039 C 417.20679 279.90039 433.32528 282.77572 447.45117 288.63281 A 14.39424 14.39424 0 0 1 455.75391 305.96484 L 450.17383 325.05078 A 14.39424 14.39424 0 0 1 431.70898 334.63281 C 421.13652 331.02272 408.12149 328.65234 398.18945 328.65234 C 389.41835 328.65234 383.1747 330.5152 380.42188 332.14648 C 377.66905 333.77779 378.22852 333.49385 378.22852 334.51953 C 378.22852 334.83431 378.19232 334.79534 378.16602 334.78711 C 378.18744 334.77708 378.22044 334.78146 378.28711 334.85742 C 378.58377 335.19543 380.03159 336.39147 382.85547 337.63672 C 388.5032 340.12722 398.75314 342.46318 409.83398 345.42578 C 420.91485 348.38838 433.1463 352.01549 443.86328 360.11523 C 454.58026 368.215 462.79102 382.21958 462.79102 399.11523 C 462.79102 416.1163 455.02057 431.80283 442.01172 441.66992 C 429.00286 451.53701 411.75133 456.08203 392.02344 456.08203 C 371.91064 456.08203 350.65069 451.66671 332.33594 443.3418 A 14.39424 14.39424 0 0 1 324.47656 426.20117 L 330.05469 407.11523 A 14.39424 14.39424 0 0 1 349.57031 397.9375 C 362.31148 403.43367 381.44461 407.33008 393.78516 407.33008 C 401.65724 407.33008 406.72167 405.6126 408.59961 404.38672 C 410.47755 403.16084 410.22266 403.67203 410.22266 401.46484 C 410.22266 400.05119 410.20844 400.38561 409.82227 399.91016 C 409.43609 399.4347 408.0861 398.25707 405.36523 396.98828 C 399.92351 394.4507 389.86158 392.11714 378.91016 389.3125 C 367.95874 386.50786 355.83952 383.19504 345.08984 375.43555 C 334.34017 367.67604 325.95312 353.84053 325.95312 337.16211 C 325.95312 319.5849 334.63282 303.64405 348.38477 293.94531 C 362.13669 284.24658 380.07707 279.90039 400.53906 279.90039 z " /></svg>
