<?xml version="1.0" encoding="UTF-8" standalone="no"?>
<!-- Created with Inkscape (http://www.inkscape.org/) -->

<svg
   width="500"
   height="500"
   viewBox="0 0 500 500"
   version="1.1"
   id="svg1"
   inkscape:version="1.3.2 (091e20ef0f, 2023-11-25, custom)"
   sodipodi:docname="d.ts.svg"
   xmlns:inkscape="http://www.inkscape.org/namespaces/inkscape"
   xmlns:sodipodi="http://sodipodi.sourceforge.net/DTD/sodipodi-0.dtd"
   xmlns="http://www.w3.org/2000/svg"
   xmlns:svg="http://www.w3.org/2000/svg">
  <sodipodi:namedview
     id="namedview1"
     pagecolor="#505050"
     bordercolor="#eeeeee"
     borderopacity="1"
     inkscape:showpageshadow="0"
     inkscape:pageopacity="0"
     inkscape:pagecheckerboard="0"
     inkscape:deskcolor="#505050"
     inkscape:document-units="px"
     inkscape:zoom="0.96390292"
     inkscape:cx="279.07375"
     inkscape:cy="234.98217"
     inkscape:window-width="1362"
     inkscape:window-height="744"
     inkscape:window-x="0"
     inkscape:window-y="20"
     inkscape:window-maximized="1"
     inkscape:current-layer="layer1"
     showguides="true">
    <sodipodi:guide
       position="250.02518,350.60736"
       orientation="-0.99997769,0.0066803918"
       id="guide30"
       inkscape:locked="false" />
    <sodipodi:guide
       position="66.396728,247.89992"
       orientation="0,-1"
       id="guide53"
       inkscape:locked="false" />
  </sodipodi:namedview>
  <defs
     id="defs1">
    <linearGradient
       id="swatch61"
       inkscape:swatch="solid">
      <stop
         style="stop-color:#5090d0;stop-opacity:1;"
         offset="0"
         id="stop61" />
    </linearGradient>
    <linearGradient
       id="swatch30"
       inkscape:swatch="solid">
      <stop
         style="stop-color:#f9f9f9;stop-opacity:1;"
         offset="0"
         id="stop30" />
    </linearGradient>
    <inkscape:perspective
       sodipodi:type="inkscape:persp3d"
       inkscape:vp_x="44.06818 : 315.96746 : 1"
       inkscape:vp_y="0 : 1000 : 0"
       inkscape:vp_z="480.74134 : 298.68846 : 1"
       inkscape:persp3d-origin="250 : 166.66667 : 1"
       id="perspective17" />
  </defs>
  <g
     inkscape:label="Layer 1"
     inkscape:groupmode="layer"
     id="layer1">
    <path
       id="path1"
       style="fill:#3178c6;fill-opacity:0.55330622;stroke:none;stroke-width:33.2;stroke-linejoin:bevel;stroke-dasharray:none;stroke-opacity:1;paint-order:markers fill stroke"
       d="M 250.51028 -9.3464861 L 65.206202 67.407481 L -11.549481 252.71209 L 65.20629 438.01692 L 250.5109 514.7726 L 435.81392 438.01608 L 512.5696 252.71147 L 435.81489 67.409197 L 250.51028 -9.3464861 z M 169.58403 112.45604 L 290.65014 162.60327 A 11.765676 11.765676 0 0 1 297.01585 177.97505 L 290.40334 193.93904 A 11.765676 11.765676 0 0 1 275.03262 200.3073 L 234.45951 183.50137 L 181.83531 310.54743 A 11.765676 11.765676 0 0 1 166.46458 316.91569 L 148.06097 309.29267 A 11.765676 11.765676 0 0 1 141.69346 293.92014 L 194.31767 166.87407 L 153.96651 150.16007 A 11.765676 11.765676 0 0 1 147.6008 134.78829 L 154.2133 118.8243 A 11.765676 11.765676 0 0 1 169.58403 112.45604 z M 331.52169 232.0077 C 344.10865 237.22139 355.38205 244.43373 364.21739 253.27543 A 11.765676 11.765676 0 0 1 365.06421 268.9615 L 354.88036 281.63022 A 11.765676 11.765676 0 0 1 337.94017 283.09069 C 331.0854 277.05737 321.9985 271.19597 314.49813 268.08922 C 307.87445 265.3456 302.57661 264.79862 299.98748 265.16945 C 297.39834 265.54027 297.90963 265.50056 297.58879 266.27513 C 297.49028 266.51296 297.47388 266.47144 297.45636 266.45705 C 297.47567 266.45556 297.49904 266.47009 297.52597 266.5493 C 297.64426 266.89734 298.36564 268.25402 300.10862 270.07771 C 303.59459 273.72507 310.60379 278.69353 318.04502 284.39689 C 325.48624 290.10026 333.58752 296.66582 339.14703 306.13479 C 344.70655 315.60375 346.52555 328.74836 341.24057 341.50744 C 335.92262 354.34611 325.14842 363.76114 312.2381 367.14329 C 299.32778 370.52542 284.87837 368.56245 269.98047 362.39154 C 254.79191 356.10023 240.11981 346.11396 228.89309 334.09838 A 11.765676 11.765676 0 0 1 228.31955 318.69675 L 238.50086 306.02909 A 11.765676 11.765676 0 0 1 256.1105 305.20318 C 264.01302 313.3392 277.24097 322.26603 286.56013 326.12616 C 292.50489 328.58855 296.86694 328.87546 298.66857 328.53713 C 300.47021 328.1988 300.1175 328.50457 300.8079 326.83779 C 301.2501 325.77022 301.13529 326.01993 300.99238 325.54007 C 300.84948 325.06023 300.19978 323.74672 298.54193 321.93747 C 295.22627 318.31898 288.35667 313.40963 280.96378 307.86604 C 273.5709 302.32245 265.45452 296.03072 259.76388 286.80848 C 254.07324 277.58624 252.0691 264.51439 257.28614 251.91936 C 262.78432 238.64558 274.3237 229.32271 287.74252 226.30015 C 301.16134 223.27759 316.06943 225.60717 331.52169 232.0077 z "
       transform="rotate(-22.5,250.51025,252.71259)" />
    <g
       id="text1-5" />
  </g>
</svg>
