<?xml version="1.0" encoding="UTF-8" standalone="no"?>
<!-- Created with Inkscape (http://www.inkscape.org/) -->

<svg
   width="500"
   height="500"
   viewBox="0 0 500 500"
   version="1.1"
   id="svg1"
   inkscape:version="1.3.2 (091e20ef0f, 2023-11-25, custom)"
   sodipodi:docname="db.js.svg"
   xml:space="preserve"
   xmlns:inkscape="http://www.inkscape.org/namespaces/inkscape"
   xmlns:sodipodi="http://sodipodi.sourceforge.net/DTD/sodipodi-0.dtd"
   xmlns="http://www.w3.org/2000/svg"
   xmlns:svg="http://www.w3.org/2000/svg"><sodipodi:namedview
     id="namedview1"
     pagecolor="#505050"
     bordercolor="#eeeeee"
     borderopacity="1"
     inkscape:showpageshadow="0"
     inkscape:pageopacity="0"
     inkscape:pagecheckerboard="0"
     inkscape:deskcolor="#505050"
     inkscape:document-units="px"
     inkscape:zoom="0.96390292"
     inkscape:cx="276.48013"
     inkscape:cy="239.13197"
     inkscape:window-width="1352"
     inkscape:window-height="734"
     inkscape:window-x="4"
     inkscape:window-y="24"
     inkscape:window-maximized="1"
     inkscape:current-layer="svg1"
     showguides="true"><sodipodi:guide
       position="247.40575,249.42881"
       orientation="-0.99997769,0.0066803918"
       id="guide30"
       inkscape:locked="false" /><sodipodi:guide
       position="212.40183,247.89992"
       orientation="0,-1"
       id="guide53"
       inkscape:locked="false" /></sodipodi:namedview><defs
     id="defs1"><linearGradient
       id="swatch61"
       inkscape:swatch="solid"><stop
         style="stop-color:#5090d0;stop-opacity:1;"
         offset="0"
         id="stop61" /></linearGradient><linearGradient
       id="swatch30"
       inkscape:swatch="solid"><stop
         style="stop-color:#f9f9f9;stop-opacity:1;"
         offset="0"
         id="stop30" /></linearGradient><inkscape:perspective
       sodipodi:type="inkscape:persp3d"
       inkscape:vp_x="44.06818 : 315.96746 : 1"
       inkscape:vp_y="0 : 1000 : 0"
       inkscape:vp_z="480.74134 : 298.68846 : 1"
       inkscape:persp3d-origin="250 : 166.66667 : 1"
       id="perspective17" /><inkscape:perspective
       sodipodi:type="inkscape:persp3d"
       inkscape:vp_x="44.06818 : 315.96746 : 1"
       inkscape:vp_y="0 : 1000 : 0"
       inkscape:vp_z="480.74134 : 298.68846 : 1"
       inkscape:persp3d-origin="250 : 166.66667 : 1"
       id="perspective17-8" /><inkscape:perspective
       sodipodi:type="inkscape:persp3d"
       inkscape:vp_x="44.06818 : 315.96746 : 1"
       inkscape:vp_y="0 : 1000 : 0"
       inkscape:vp_z="480.74134 : 298.68846 : 1"
       inkscape:persp3d-origin="250 : 166.66667 : 1"
       id="perspective17-28" /><inkscape:perspective
       sodipodi:type="inkscape:persp3d"
       inkscape:vp_x="44.06818 : 315.96746 : 1"
       inkscape:vp_y="0 : 1000 : 0"
       inkscape:vp_z="480.74134 : 298.68846 : 1"
       inkscape:persp3d-origin="250 : 166.66667 : 1"
       id="perspective17-2" /><inkscape:perspective
       sodipodi:type="inkscape:persp3d"
       inkscape:vp_x="44.06818 : 315.96746 : 1"
       inkscape:vp_y="0 : 1000 : 0"
       inkscape:vp_z="480.74134 : 298.68846 : 1"
       inkscape:persp3d-origin="250 : 166.66667 : 1"
       id="perspective17-4" /></defs><path
     d="m 290.00162,459.41337 c 28.32,0 44.4,-18 44.4,-50.4 v -118.56 h -19.92 v 120.72 c 0,19.68 -8.88,30.72 -24.96,30.72 -7.2,0 -16.8,-2.16 -23.52,-5.52 l -5.76,14.88 c 9.6,5.76 19.68,8.16 29.76,8.16 z m 118.56017,0 c 28.56,0 46.08,-13.44 46.08,-34.8 0,-42.48 -69.12,-26.64 -69.12,-52.8 0,-10.08 10.8,-16.56 28.08,-16.56 9.84,0 21.36,2.16 31.2,5.52 l 4.56,-15.6 c -9.84,-4.08 -21.6,-6.24 -33.84,-6.24 -30,0 -49.2,13.2 -49.2,35.04 0,41.52 68.88,24.24 68.88,52.56 0,10.56 -9.36,16.56 -25.2,16.56 -12.24,0 -28.56,-3.36 -40.8,-8.64 l -4.56,15.6 c 13.2,6 29.28,9.36 43.92,9.36 z"
     id="text1"
     style="font-size:240px;font-family:System-ui;-inkscape-font-specification:System-ui;fill:#ff9340;fill-opacity:0.313725;stroke:#ffc340;stroke-width:23.529;stroke-linejoin:round;paint-order:markers fill stroke"
     aria-label="Js" /><path
     id="path2-0"
     style="color:#000000;fill:#ffc340;stroke-width:0.858436;stroke-linecap:round;stroke-miterlimit:10;-inkscape-stroke:none;fill-opacity:1"
     d="M 251.21549 -5.3400281 C 212.01463 -5.3400281 176.55089 -1.5395112 150.09796 4.8894985 C 136.87151 8.1040033 125.91703 11.890059 117.38409 16.793101 C 108.87344 21.683336 101.03337 28.63922 100.99245 39.29848 L 100.98824 39.29848 L 100.98824 138.60943 L 101.05765 138.60943 C 101.72359 148.51179 109.23781 155.09636 117.38409 159.77724 C 125.91702 164.68026 136.87152 168.46425 150.09796 171.67873 C 176.55086 178.10776 212.01467 181.90826 251.21549 181.90826 C 290.41632 181.90826 325.88012 178.10776 352.33301 171.67873 C 365.55946 168.46425 376.51183 164.68026 385.04479 159.77724 C 393.19106 155.09636 400.7074 148.51179 401.37333 138.60943 L 401.44063 138.60943 L 401.44063 39.29848 L 401.43853 39.29848 C 401.39693 28.63922 393.55544 21.683336 385.04479 16.793101 C 376.51182 11.890059 365.55948 8.1040033 352.33301 4.8894985 C 325.88009 -1.5395112 290.41636 -5.3400281 251.21549 -5.3400281 z M 251.21549 16.353551 C 288.99178 16.353551 323.2173 20.137922 347.20984 25.968969 C 359.20611 28.884493 368.66388 32.398943 374.2369 35.601213 C 377.43983 37.44162 378.69734 38.761742 379.25913 39.380501 C 378.69716 39.999445 377.43923 41.321828 374.2369 43.161893 C 368.66388 46.364173 359.20611 49.878612 347.20984 52.794136 C 323.2173 58.625176 288.99178 62.409555 251.21549 62.409555 C 213.43921 62.409555 179.21155 58.625176 155.21904 52.794136 C 143.22278 49.878612 133.76501 46.364173 128.19197 43.161893 C 124.98962 41.321828 123.73172 39.999445 123.16974 39.380501 C 123.73154 38.761742 124.98903 37.44162 128.19197 35.601213 C 133.76501 32.398943 143.22278 28.884493 155.21904 25.968969 C 179.21155 20.137922 213.43921 16.353551 251.21549 16.353551 z M 398.41426 180.08066 C 395.36315 185.14388 390.35891 189.02871 385.04689 192.081 C 376.51395 196.98404 365.55945 200.77012 352.33301 203.98461 C 325.88015 210.41362 290.41628 214.21203 251.21549 214.21203 C 212.01471 214.21203 176.55083 210.41362 150.09796 203.98461 C 136.87153 200.77012 125.91911 196.98404 117.38619 192.081 C 112.07478 189.02907 107.07003 185.14513 104.01883 180.08276 C 102.15143 183.1477 101.00795 186.65186 100.99245 190.69085 L 100.99035 190.69085 L 100.99035 289.9997 L 101.05765 289.9997 C 101.72359 299.90204 109.23992 306.48662 117.38619 311.1675 C 125.91911 316.07052 136.87153 319.85662 150.09796 323.0711 C 176.55083 329.50012 212.01471 333.29853 251.21549 333.29853 C 264.71287 333.29853 277.72067 332.8181 290.11671 331.96515 L 290.11671 294.1912 A 30.545728 30.545728 0 0 1 320.66018 263.64983 L 342.1098 263.64983 A 30.545728 30.545728 0 0 1 372.65116 294.1912 L 372.65116 316.86903 C 377.19047 315.13392 381.38682 313.27057 385.04689 311.1675 C 393.19315 306.48662 400.7074 299.90204 401.37333 289.9997 L 401.44273 289.9997 L 401.44273 190.69085 L 401.43853 190.69085 C 401.42303 186.65123 400.28216 183.14593 398.41426 180.08066 z M 103.28484 331.29637 C 101.89204 334.01576 101.00562 337.02704 100.99245 340.45962 L 100.99035 340.45962 L 100.99035 439.77057 L 101.05765 439.77057 C 101.72359 449.67292 109.23992 456.25749 117.38619 460.93837 C 125.91911 465.84139 136.87153 469.62537 150.09796 472.83987 C 173.1298 478.43744 202.99915 482.03499 236.2119 482.87381 A 30.545728 30.545728 0 0 1 233.77019 456.31363 L 239.97226 440.29214 A 30.545728 30.545728 0 0 1 282.11648 423.99935 C 283.13265 424.50743 286.79381 425.37574 289.92323 426.01202 C 289.98632 425.28325 290.11671 425.17764 290.11671 424.18232 L 290.11671 365.44246 C 277.72067 366.29541 264.71287 366.77583 251.21549 366.77583 C 212.01471 366.77583 176.55083 362.97742 150.09796 356.54841 C 136.87153 353.33392 125.91911 349.54783 117.38619 344.6448 C 111.6148 341.32856 106.2114 337.02642 103.28484 331.29637 z "
     transform="matrix(0.92868422,0,0,0.92868422,16.690374,17.242403)" /></svg>
