<?xml version="1.0" encoding="UTF-8" standalone="no"?>
<!-- Created with Inkscape (http://www.inkscape.org/) -->

<svg
   width="500"
   height="500"
   viewBox="0 0 500 500"
   version="1.1"
   id="svg1"
   inkscape:version="1.3.2 (091e20ef0f, 2023-11-25, custom)"
   sodipodi:docname="db.svg"
   xml:space="preserve"
   xmlns:inkscape="http://www.inkscape.org/namespaces/inkscape"
   xmlns:sodipodi="http://sodipodi.sourceforge.net/DTD/sodipodi-0.dtd"
   xmlns:xlink="http://www.w3.org/1999/xlink"
   xmlns="http://www.w3.org/2000/svg"
   xmlns:svg="http://www.w3.org/2000/svg"><sodipodi:namedview
     id="namedview1"
     pagecolor="#505050"
     bordercolor="#eeeeee"
     borderopacity="1"
     inkscape:showpageshadow="0"
     inkscape:pageopacity="0"
     inkscape:pagecheckerboard="0"
     inkscape:deskcolor="#505050"
     inkscape:document-units="px"
     inkscape:zoom="0.68158229"
     inkscape:cx="152.58612"
     inkscape:cy="245.75169"
     inkscape:window-width="1352"
     inkscape:window-height="734"
     inkscape:window-x="4"
     inkscape:window-y="24"
     inkscape:window-maximized="1"
     inkscape:current-layer="svg1"
     showguides="true"><sodipodi:guide
       position="247.40575,249.42881"
       orientation="-0.99997769,0.0066803918"
       id="guide30"
       inkscape:locked="false" /><sodipodi:guide
       position="212.40183,247.89992"
       orientation="0,-1"
       id="guide53"
       inkscape:locked="false" /></sodipodi:namedview><defs
     id="defs1"><linearGradient
       id="linearGradient9"
       inkscape:collect="always"><stop
         style="stop-color:#ffff52;stop-opacity:1;"
         offset="0"
         id="stop8" /><stop
         style="stop-color:#ffa269;stop-opacity:1;"
         offset="1"
         id="stop9" /></linearGradient><linearGradient
       id="swatch61"
       inkscape:swatch="solid"><stop
         style="stop-color:#5090d0;stop-opacity:1;"
         offset="0"
         id="stop61" /></linearGradient><linearGradient
       id="swatch30"
       inkscape:swatch="solid"><stop
         style="stop-color:#f9f9f9;stop-opacity:1;"
         offset="0"
         id="stop30" /></linearGradient><inkscape:perspective
       sodipodi:type="inkscape:persp3d"
       inkscape:vp_x="44.06818 : 315.96746 : 1"
       inkscape:vp_y="0 : 1000 : 0"
       inkscape:vp_z="480.74134 : 298.68846 : 1"
       inkscape:persp3d-origin="250 : 166.66667 : 1"
       id="perspective17" /><inkscape:perspective
       sodipodi:type="inkscape:persp3d"
       inkscape:vp_x="44.06818 : 315.96746 : 1"
       inkscape:vp_y="0 : 1000 : 0"
       inkscape:vp_z="480.74134 : 298.68846 : 1"
       inkscape:persp3d-origin="250 : 166.66667 : 1"
       id="perspective17-2" /><inkscape:perspective
       sodipodi:type="inkscape:persp3d"
       inkscape:vp_x="44.06818 : 315.96746 : 1"
       inkscape:vp_y="0 : 1000 : 0"
       inkscape:vp_z="480.74134 : 298.68846 : 1"
       inkscape:persp3d-origin="250 : 166.66667 : 1"
       id="perspective17-4" /><inkscape:perspective
       sodipodi:type="inkscape:persp3d"
       inkscape:vp_x="44.06818 : 315.96746 : 1"
       inkscape:vp_y="0 : 1000 : 0"
       inkscape:vp_z="480.74134 : 298.68846 : 1"
       inkscape:persp3d-origin="250 : 166.66667 : 1"
       id="perspective17-29" /><inkscape:perspective
       sodipodi:type="inkscape:persp3d"
       inkscape:vp_x="44.06818 : 315.96746 : 1"
       inkscape:vp_y="0 : 1000 : 0"
       inkscape:vp_z="480.74134 : 298.68846 : 1"
       inkscape:persp3d-origin="250 : 166.66667 : 1"
       id="perspective17-2-1" /><inkscape:perspective
       sodipodi:type="inkscape:persp3d"
       inkscape:vp_x="44.06818 : 315.96746 : 1"
       inkscape:vp_y="0 : 1000 : 0"
       inkscape:vp_z="480.74134 : 298.68846 : 1"
       inkscape:persp3d-origin="250 : 166.66667 : 1"
       id="perspective17-4-27" /><inkscape:perspective
       sodipodi:type="inkscape:persp3d"
       inkscape:vp_x="44.06818 : 315.96746 : 1"
       inkscape:vp_y="0 : 1000 : 0"
       inkscape:vp_z="480.74134 : 298.68846 : 1"
       inkscape:persp3d-origin="250 : 166.66667 : 1"
       id="perspective17-1" /><inkscape:perspective
       sodipodi:type="inkscape:persp3d"
       inkscape:vp_x="44.06818 : 315.96746 : 1"
       inkscape:vp_y="0 : 1000 : 0"
       inkscape:vp_z="480.74134 : 298.68846 : 1"
       inkscape:persp3d-origin="250 : 166.66667 : 1"
       id="perspective17-4-7" /><inkscape:perspective
       sodipodi:type="inkscape:persp3d"
       inkscape:vp_x="44.06818 : 315.96746 : 1"
       inkscape:vp_y="0 : 1000 : 0"
       inkscape:vp_z="480.74134 : 298.68846 : 1"
       inkscape:persp3d-origin="250 : 166.66667 : 1"
       id="perspective17-7" /><inkscape:perspective
       sodipodi:type="inkscape:persp3d"
       inkscape:vp_x="44.06818 : 315.96746 : 1"
       inkscape:vp_y="0 : 1000 : 0"
       inkscape:vp_z="480.74134 : 298.68846 : 1"
       inkscape:persp3d-origin="250 : 166.66667 : 1"
       id="perspective17-2-9" /><inkscape:perspective
       sodipodi:type="inkscape:persp3d"
       inkscape:vp_x="44.06818 : 315.96746 : 1"
       inkscape:vp_y="0 : 1000 : 0"
       inkscape:vp_z="480.74134 : 298.68846 : 1"
       inkscape:persp3d-origin="250 : 166.66667 : 1"
       id="perspective17-4-2" /><inkscape:perspective
       sodipodi:type="inkscape:persp3d"
       inkscape:vp_x="44.06818 : 315.96746 : 1"
       inkscape:vp_y="0 : 1000 : 0"
       inkscape:vp_z="480.74134 : 298.68846 : 1"
       inkscape:persp3d-origin="250 : 166.66667 : 1"
       id="perspective17-18" /><inkscape:perspective
       sodipodi:type="inkscape:persp3d"
       inkscape:vp_x="44.06818 : 315.96746 : 1"
       inkscape:vp_y="0 : 1000 : 0"
       inkscape:vp_z="480.74134 : 298.68846 : 1"
       inkscape:persp3d-origin="250 : 166.66667 : 1"
       id="perspective17-2-7" /><inkscape:perspective
       sodipodi:type="inkscape:persp3d"
       inkscape:vp_x="44.06818 : 315.96746 : 1"
       inkscape:vp_y="0 : 1000 : 0"
       inkscape:vp_z="480.74134 : 298.68846 : 1"
       inkscape:persp3d-origin="250 : 166.66667 : 1"
       id="perspective17-4-9" /><linearGradient
       inkscape:collect="always"
       xlink:href="#linearGradient9"
       id="linearGradient11-3"
       x1="100.98894"
       y1="114.12765"
       x2="401.4415"
       y2="114.12765"
       gradientUnits="userSpaceOnUse"
       gradientTransform="translate(0,-25.843018)" /><linearGradient
       inkscape:collect="always"
       xlink:href="#linearGradient9"
       id="linearGradient13-6"
       x1="100.98894"
       y1="250.44289"
       x2="401.4415"
       y2="250.44289"
       gradientUnits="userSpaceOnUse"
       gradientTransform="translate(0,-10.767923)" /><linearGradient
       inkscape:collect="always"
       xlink:href="#linearGradient9"
       id="linearGradient1"
       gradientUnits="userSpaceOnUse"
       x1="100.98894"
       y1="389.44528"
       x2="401.4415"
       y2="389.44528" /></defs><g
     inkscape:label="Layer 1"
     id="layer1-2"
     transform="matrix(0.92868422,0,0,0.92868422,22.338351,28.971448)"><path
       id="path2-0"
       style="color:#000000;fill:url(#linearGradient11-3);stroke-width:0.858436;stroke-linecap:round;stroke-miterlimit:10;-inkscape-stroke:none"
       d="m 251.21484,-5.3393628 c -39.20094,0 -74.66472,3.8001093 -101.11769,10.229132 -13.22649,3.2145112 -24.17982,6.9993598 -32.71278,11.9024118 -8.51067,4.890245 -16.35151,11.847832 -16.39243,22.507114 h -0.003 v 99.310345 h 0.0687 c 0.66594,9.90238 8.18075,16.48661 16.32705,21.16749 8.53295,4.90304 19.4863,8.68791 32.71278,11.90241 26.45294,6.42903 61.91679,10.22914 101.11769,10.22914 39.20091,0 74.66475,-3.80011 101.1177,-10.22914 13.22647,-3.2145 24.17982,-6.99937 32.71278,-11.90241 8.14629,-4.68088 15.66112,-11.26511 16.32705,-21.16749 h 0.0688 V 39.299295 h -0.003 C 401.39689,28.640013 393.55599,21.682426 385.04532,16.792181 376.51235,11.889129 365.55903,8.1042804 352.33254,4.8897692 325.87956,-1.5392535 290.41579,-5.3393628 251.21484,-5.3393628 Z m 0,21.6922668 c 37.77637,0 72.00302,3.784428 95.9956,9.615487 11.99629,2.91553 21.45427,6.429977 27.02731,9.632253 3.20293,1.840411 4.45972,3.162045 5.02151,3.780806 -0.56197,0.618944 -1.81918,1.940737 -5.02151,3.780806 -5.57304,3.202286 -15.03102,6.716726 -27.02731,9.632256 -23.99258,5.83105 -58.21923,9.61549 -95.9956,9.61549 -37.77636,0 -72.00301,-3.78444 -95.99558,-9.61549 -11.99628,-2.91553 -21.45427,-6.42997 -27.02731,-9.632256 -3.20235,-1.840069 -4.45954,-3.161862 -5.02152,-3.780806 0.5618,-0.618761 1.81858,-1.940395 5.02152,-3.780806 5.57304,-3.202276 15.03103,-6.716723 27.02731,-9.632253 23.99257,-5.831059 58.21922,-9.615487 95.99558,-9.615487 z" /><path
       id="path5-6"
       style="color:#000000;fill:url(#linearGradient13-6);stroke-width:0.858436;stroke-linecap:round;stroke-miterlimit:10;-inkscape-stroke:none"
       d="m 398.4134,180.08015 c -3.05111,5.06324 -8.05532,8.94803 -13.36736,12.00034 -8.53296,4.90304 -19.48742,8.68911 -32.71388,11.9036 -26.45292,6.42903 -61.91665,10.22743 -101.11752,10.22743 -39.20086,0 -74.66462,-3.7984 -101.11753,-10.22743 -13.22647,-3.21449 -24.17883,-7.00056 -32.71177,-11.9036 -5.31143,-3.05195 -10.31615,-6.93587 -13.36737,-11.99824 -1.8674,3.06494 -3.01087,6.5691 -3.02637,10.60809 h -0.002 v 99.30885 h 0.0673 c 0.66594,9.90236 8.18226,16.48692 16.32855,21.1678 8.53294,4.90302 19.4853,8.6891 32.71177,11.9036 26.45291,6.42902 61.91667,10.22742 101.11753,10.22742 39.20087,0 74.6646,-3.7984 101.11752,-10.22742 13.22646,-3.2145 24.18092,-7.00058 32.71388,-11.9036 8.14628,-4.68088 15.66051,-11.26544 16.32644,-21.1678 h 0.0694 v -99.30885 h -0.004 c -0.0155,-4.03962 -1.15635,-7.54492 -3.02427,-10.61019 z" /><path
       id="path7-2"
       style="color:#000000;fill:url(#linearGradient1);stroke-width:0.858436;stroke-linecap:round;stroke-miterlimit:10;-inkscape-stroke:none"
       d="m 103.28399,331.29583 c -1.3928,2.71941 -2.27922,5.73067 -2.29239,9.16325 h -0.002 v 99.31095 h 0.0673 c 0.66594,9.90237 8.18226,16.48693 16.32855,21.16781 8.53294,4.90302 19.4853,8.687 32.71177,11.9015 26.45291,6.42902 61.91667,10.22952 101.11753,10.22952 39.20087,0 74.6646,-3.8005 101.11752,-10.22952 13.22646,-3.2145 24.18092,-6.99848 32.71388,-11.9015 8.14628,-4.68088 15.66051,-11.26544 16.32644,-21.16781 h 0.0694 v -99.31095 h -0.004 c -0.0132,-3.43243 -0.89759,-6.44392 -2.29028,-9.16325 -2.92649,5.73037 -8.32975,10.03206 -14.10135,13.34844 -8.53296,4.90303 -19.48742,8.68911 -32.71388,11.9036 -26.45292,6.42903 -61.91665,10.22743 -101.11752,10.22743 -39.20086,0 -74.66462,-3.7984 -101.11753,-10.22743 -13.22647,-3.21449 -24.17883,-7.00057 -32.71177,-11.9036 -5.77141,-3.31626 -11.17479,-7.61837 -14.10135,-13.34844 z" /></g></svg>
