<?xml version="1.0" encoding="UTF-8" standalone="no"?>
<!-- Created with Inkscape (http://www.inkscape.org/) -->

<svg
   width="500"
   height="500"
   viewBox="0 0 500 500"
   version="1.1"
   id="svg1"
   inkscape:version="1.3.2 (091e20ef0f, 2023-11-25, custom)"
   sodipodi:docname="db.svg"
   xml:space="preserve"
   xmlns:inkscape="http://www.inkscape.org/namespaces/inkscape"
   xmlns:sodipodi="http://sodipodi.sourceforge.net/DTD/sodipodi-0.dtd"
   xmlns="http://www.w3.org/2000/svg"
   xmlns:svg="http://www.w3.org/2000/svg"><sodipodi:namedview
     id="namedview1"
     pagecolor="#505050"
     bordercolor="#eeeeee"
     borderopacity="1"
     inkscape:showpageshadow="0"
     inkscape:pageopacity="0"
     inkscape:pagecheckerboard="0"
     inkscape:deskcolor="#505050"
     inkscape:document-units="px"
     inkscape:zoom="0.96390292"
     inkscape:cx="278.55502"
     inkscape:cy="234.98217"
     inkscape:window-width="1362"
     inkscape:window-height="744"
     inkscape:window-x="0"
     inkscape:window-y="20"
     inkscape:window-maximized="1"
     inkscape:current-layer="layer1"
     showguides="true"><sodipodi:guide
       position="247.40575,249.42881"
       orientation="-0.99997769,0.0066803918"
       id="guide30"
       inkscape:locked="false" /><sodipodi:guide
       position="212.40183,247.89992"
       orientation="0,-1"
       id="guide53"
       inkscape:locked="false" /></sodipodi:namedview><defs
     id="defs1"><linearGradient
       id="swatch61"
       inkscape:swatch="solid"><stop
         style="stop-color:#5090d0;stop-opacity:1;"
         offset="0"
         id="stop61" /></linearGradient><linearGradient
       id="swatch30"
       inkscape:swatch="solid"><stop
         style="stop-color:#f9f9f9;stop-opacity:1;"
         offset="0"
         id="stop30" /></linearGradient><inkscape:perspective
       sodipodi:type="inkscape:persp3d"
       inkscape:vp_x="44.06818 : 315.96746 : 1"
       inkscape:vp_y="0 : 1000 : 0"
       inkscape:vp_z="480.74134 : 298.68846 : 1"
       inkscape:persp3d-origin="250 : 166.66667 : 1"
       id="perspective17" /></defs><g
     inkscape:label="Layer 1"
     inkscape:groupmode="layer"
     id="layer1"><path
       d="m 5.206,19.956 0.199,42.771 c 0.003,0.55 0.306,1.054 0.789,1.314 l 34.161,17.887 c 0.223,0.119 0.467,0.179 0.711,0.179 10e-4,0 0.002,0 0.003,0 0.103,0.117 0.218,0.227 0.355,0.309 0.236,0.141 0.502,0.212 0.769,0.212 0.246,0 0.49,-0.061 0.712,-0.181 L 76.634,64.155 c 0.484,-0.263 0.787,-0.77 0.787,-1.319 v -44.5 c 0,-0.013 -0.005,-0.025 -0.005,-0.039 -10e-4,-0.011 0.003,-0.021 0.003,-0.033 C 77.417,18.221 77.4,18.182 77.397,18.14 77.384,18.058 77.375,17.976 77.35,17.897 77.332,17.842 77.309,17.793 77.286,17.74 77.255,17.67 77.224,17.601 77.182,17.537 77.151,17.487 77.114,17.442 77.077,17.396 77.03,17.338 76.981,17.284 76.925,17.233 76.881,17.193 76.834,17.157 76.784,17.122 76.752,17.1 76.725,17.069 76.69,17.049 76.658,17.029 76.621,17.021 76.586,17.004 76.557,16.989 76.534,16.968 76.505,16.955 L 41.747,0.118 C 41.342,-0.053 40.883,-0.037 40.489,0.16 L 6.131,18.071 c -0.504,0.254 -0.822,0.77 -0.825,1.333 0,0.009 0.004,0.017 0.004,0.025 -0.061,0.167 -0.105,0.343 -0.104,0.527 z M 72.456,18.501 42.176,35.431 10.111,19.425 41.218,3.151 Z M 43.692,78.61 V 38.021 L 74.421,20.848 v 41.09 z"
       id="path1-8-5"
       style="fill:#f0ff7d;fill-opacity:1;stroke:none;stroke-opacity:1"
       transform="matrix(5.1960469,0,0,2.3794941,34.307584,5.8886479)" /><path
       id="path3"
       style="fill:#f0ff7d;fill-opacity:1;stroke:none;stroke-opacity:1"
       d="M 59.459083 9.4154018 L 56.285095 11.272907 L 72.456118 19.219219 L 42.176187 36.149354 L 10.111171 20.143457 L 26.926087 11.34678 L 23.761873 9.5976228 L 6.1309067 18.789112 C 5.6269072 19.043112 5.3088353 19.559116 5.3058353 20.122116 C 5.3058353 20.131116 5.3099701 20.13874 5.3099701 20.14674 C 5.2489701 20.31374 5.2048494 20.489704 5.2058494 20.673704 L 5.4050694 63.444744 C 5.4080694 63.994743 5.7110561 64.498869 6.1940556 64.758869 L 40.355016 82.646074 C 40.578016 82.765074 40.821818 82.825012 41.065818 82.825012 L 41.068825 82.825012 C 41.171825 82.942012 41.287038 83.052459 41.424038 83.134459 C 41.660038 83.275459 41.926102 83.34623 42.193102 83.34623 C 42.439102 83.34623 42.683032 83.284829 42.905032 83.16483 L 76.634098 64.872962 C 77.118098 64.609962 77.420829 64.102911 77.420829 63.553912 L 77.420829 19.054235 C 77.420829 19.041235 77.415943 19.028836 77.415943 19.014836 C 77.414943 19.003836 77.41895 18.994003 77.41895 18.982003 C 77.41695 18.939003 77.400148 18.90006 77.397148 18.85806 C 77.384148 18.77606 77.375163 18.694099 77.350163 18.615099 C 77.332163 18.560099 77.308886 18.511323 77.285886 18.458323 C 77.254886 18.388323 77.224141 18.318761 77.182141 18.254761 C 77.151141 18.204761 77.113893 18.160402 77.076893 18.114402 C 77.029893 18.056402 76.981035 18.002059 76.925035 17.951059 C 76.881035 17.911059 76.834077 17.875249 76.784077 17.840249 C 76.752077 17.818249 76.725105 17.787197 76.690105 17.767197 C 76.658105 17.747197 76.620985 17.739052 76.585985 17.722052 C 76.556985 17.707052 76.534169 17.685803 76.505169 17.672803 L 59.459083 9.4154018 z M 74.420877 21.56593 L 74.420877 62.65594 L 43.692138 79.328339 L 43.692138 38.739026 L 74.420877 21.56593 z "
       transform="matrix(5.1960469,0,0,2.3794941,34.307584,151.91056)" /><path
       id="path4"
       style="fill:#f0ff7d;fill-opacity:1;stroke:none;stroke-opacity:1"
       d="M 20.669077 10.492645 L 6.1309067 18.071232 C 5.6269072 18.325232 5.3088353 18.841237 5.3058353 19.404236 C 5.3058353 19.413236 5.3099701 19.42086 5.3099701 19.42886 C 5.2489701 19.59586 5.2048494 19.771824 5.2058494 19.955824 L 5.4050694 62.726864 C 5.4080694 63.276863 5.7110561 63.780989 6.1940556 64.040989 L 40.355016 81.928195 C 40.578016 82.047194 40.821818 82.107132 41.065818 82.107132 L 41.068825 82.107132 C 41.171825 82.224132 41.287038 82.333759 41.424038 82.415759 C 41.660038 82.556759 41.926102 82.62835 42.193102 82.62835 C 42.439102 82.62835 42.683032 82.56695 42.905032 82.44695 L 76.634098 64.155082 C 77.118098 63.892083 77.420829 63.385032 77.420829 62.836032 L 77.420829 18.336355 C 77.420829 18.323355 77.415943 18.310956 77.415943 18.296956 C 77.414943 18.285956 77.41895 18.276124 77.41895 18.264124 C 77.41695 18.221124 77.400148 18.18218 77.397148 18.140181 C 77.384148 18.058181 77.375163 17.976219 77.350163 17.897219 C 77.332163 17.842219 77.308886 17.792623 77.285886 17.739623 C 77.254886 17.669623 77.224141 17.600881 77.182141 17.536881 C 77.151141 17.486881 77.113893 17.441701 77.076893 17.395701 C 77.029893 17.337701 76.981035 17.28418 76.925035 17.23318 C 76.881035 17.19318 76.834077 17.15737 76.784077 17.12237 C 76.752077 17.10037 76.725105 17.069317 76.690105 17.049317 C 76.658105 17.029317 76.620985 17.021172 76.585985 17.004172 C 76.556985 16.989172 76.534169 16.967923 76.505169 16.954923 L 63.990397 10.893203 L 60.78709 12.767124 L 72.456118 18.501339 L 42.176187 35.430653 L 10.111171 19.424756 L 23.711128 12.30993 L 20.669077 10.492645 z M 74.420877 20.84805 L 74.420877 61.93806 L 43.692138 78.609639 L 43.692138 38.021146 L 74.420877 20.84805 z "
       transform="matrix(5.1960469,0,0,2.3794941,34.307584,290.46836)" /></g></svg>
