<?xml version="1.0" encoding="UTF-8" standalone="no"?>
<!-- Created with Inkscape (http://www.inkscape.org/) -->

<svg
   width="500"
   height="500"
   viewBox="0 0 500 500"
   version="1.1"
   id="svg1"
   inkscape:version="1.3.2 (091e20ef0f, 2023-11-25, custom)"
   sodipodi:docname="db.svg"
   xml:space="preserve"
   xmlns:inkscape="http://www.inkscape.org/namespaces/inkscape"
   xmlns:sodipodi="http://sodipodi.sourceforge.net/DTD/sodipodi-0.dtd"
   xmlns="http://www.w3.org/2000/svg"
   xmlns:svg="http://www.w3.org/2000/svg"><sodipodi:namedview
     id="namedview1"
     pagecolor="#505050"
     bordercolor="#eeeeee"
     borderopacity="1"
     inkscape:showpageshadow="0"
     inkscape:pageopacity="0"
     inkscape:pagecheckerboard="0"
     inkscape:deskcolor="#505050"
     inkscape:document-units="px"
     inkscape:zoom="0.68158229"
     inkscape:cx="135.71362"
     inkscape:cy="204.67081"
     inkscape:window-width="1362"
     inkscape:window-height="744"
     inkscape:window-x="0"
     inkscape:window-y="20"
     inkscape:window-maximized="1"
     inkscape:current-layer="layer1"
     showguides="true"><sodipodi:guide
       position="247.40575,249.42881"
       orientation="-0.99997769,0.0066803918"
       id="guide30"
       inkscape:locked="false" /><sodipodi:guide
       position="212.40183,247.89992"
       orientation="0,-1"
       id="guide53"
       inkscape:locked="false" /></sodipodi:namedview><defs
     id="defs1"><linearGradient
       id="swatch61"
       inkscape:swatch="solid"><stop
         style="stop-color:#5090d0;stop-opacity:1;"
         offset="0"
         id="stop61" /></linearGradient><linearGradient
       id="swatch30"
       inkscape:swatch="solid"><stop
         style="stop-color:#f9f9f9;stop-opacity:1;"
         offset="0"
         id="stop30" /></linearGradient><inkscape:perspective
       sodipodi:type="inkscape:persp3d"
       inkscape:vp_x="44.06818 : 315.96746 : 1"
       inkscape:vp_y="0 : 1000 : 0"
       inkscape:vp_z="480.74134 : 298.68846 : 1"
       inkscape:persp3d-origin="250 : 166.66667 : 1"
       id="perspective17" /><inkscape:perspective
       sodipodi:type="inkscape:persp3d"
       inkscape:vp_x="44.06818 : 315.96746 : 1"
       inkscape:vp_y="0 : 1000 : 0"
       inkscape:vp_z="480.74134 : 298.68846 : 1"
       inkscape:persp3d-origin="250 : 166.66667 : 1"
       id="perspective17-2" /><inkscape:perspective
       sodipodi:type="inkscape:persp3d"
       inkscape:vp_x="44.06818 : 315.96746 : 1"
       inkscape:vp_y="0 : 1000 : 0"
       inkscape:vp_z="480.74134 : 298.68846 : 1"
       inkscape:persp3d-origin="250 : 166.66667 : 1"
       id="perspective17-4" /></defs><g
     inkscape:label="Layer 1"
     inkscape:groupmode="layer"
     id="layer1"><path
       id="path1"
       style="opacity:1;fill:#ffff90;fill-opacity:1;stroke:none;stroke-width:4.57379;stroke-opacity:1"
       d="M 133.30918,300.37384 89.033204,323.4213 c -2.306893,1.16089 -3.762953,3.5196 -3.776685,6.09273 0,0.0411 0.01937,0.078 0.01937,0.11459 -0.279207,0.76326 -0.480698,1.56709 -0.476121,2.40804 l 0.910278,72.06851 c 0.01373,2.51372 1.401288,4.81727 3.61206,6.00558 l 156.359594,81.7507 c 1.02071,0.54387 2.13854,0.81828 3.25537,0.81828 h 0.0129 c 0.47145,0.53473 0.9982,1.03745 1.62527,1.41222 1.08021,0.64443 2.29796,0.96838 3.52006,0.96838 1.12599,0 2.24247,-0.27952 3.25861,-0.82796 L 411.738,410.63044 c 2.21535,-1.20201 3.60238,-3.51902 3.60238,-6.02817 v -79.97049 c 0,-0.0594 -0.0226,-0.11355 -0.0226,-0.17754 -0.005,-0.0503 0.0129,-0.0952 0.0129,-0.15009 -0.009,-0.19653 -0.0863,-0.37617 -0.10006,-0.56812 -0.0595,-0.37478 -0.10184,-0.74935 -0.21627,-1.11041 -0.0824,-0.25137 -0.18686,-0.47437 -0.29213,-0.7166 -0.14189,-0.31993 -0.28388,-0.63553 -0.47612,-0.92803 -0.1419,-0.22852 -0.31161,-0.43374 -0.48096,-0.64398 -0.21513,-0.26508 -0.4393,-0.51256 -0.69562,-0.74565 -0.2014,-0.18282 -0.41673,-0.34683 -0.64559,-0.50679 -0.14647,-0.10055 -0.26912,-0.24268 -0.42932,-0.33409 -0.14647,-0.0914 -0.31592,-0.12889 -0.47612,-0.20659 -0.13274,-0.0686 -0.23848,-0.16331 -0.37121,-0.22272 l -31.84197,-15.4021 -14.92275,8.61536 28.23152,13.85269 -138.59626,77.37684 -146.76778,-73.15471 40.65585,-21.23819 z m 268.29957,35.73971 v 64.3844 L 260.95629,476.6966 v -62.09579 z" /><path
       id="path4"
       style="fill:#ffff90;fill-opacity:1;stroke:none;stroke-width:4.57379;stroke-opacity:1"
       d="m 375.13806,188.98101 -14.89531,8.60083 32.37136,15.88306 -138.59627,77.37685 -146.76778,-73.15309 32.95238,-17.21458 -15.3101,-7.63892 -35.859136,18.66554 c -2.306893,1.16088 -3.762953,3.51798 -3.776685,6.09112 0,0.0411 0.01937,0.078 0.01937,0.11459 -0.279207,0.76325 -0.480698,1.5687 -0.476121,2.40965 l 0.910278,72.06689 c 0.01373,2.51373 1.401288,4.81728 3.61206,6.00558 l 156.359594,81.7507 c 1.02071,0.54388 2.13854,0.81828 3.25537,0.81828 h 0.0129 c 0.47145,0.53474 0.9982,1.03745 1.62527,1.41222 1.08021,0.64443 2.29796,0.97 3.52006,0.97 1.12599,0 2.24247,-0.27952 3.25861,-0.82797 L 411.738,298.70984 c 2.21535,-1.20201 3.60238,-3.51902 3.60238,-6.02817 v -79.97049 c 0,-0.0594 -0.0226,-0.11355 -0.0226,-0.17754 -0.005,-0.0503 0.0129,-0.0969 0.0129,-0.15171 -0.009,-0.19653 -0.0863,-0.37455 -0.10006,-0.5665 -0.0595,-0.37478 -0.10184,-0.74935 -0.21627,-1.11041 -0.0824,-0.25138 -0.18686,-0.47599 -0.29213,-0.71822 -0.14189,-0.31993 -0.28388,-0.63552 -0.47612,-0.92803 -0.14189,-0.22852 -0.31161,-0.43374 -0.48096,-0.64398 -0.21513,-0.26508 -0.4393,-0.51094 -0.69562,-0.74403 -0.2014,-0.18282 -0.41673,-0.34844 -0.64559,-0.5084 -0.14647,-0.10055 -0.26912,-0.24107 -0.42932,-0.33248 -0.14647,-0.0914 -0.31591,-0.12889 -0.47612,-0.20659 -0.13273,-0.0686 -0.23847,-0.16492 -0.37121,-0.22434 z m 26.47069,35.21032 v 64.38602 L 260.95629,364.77439 V 302.6802 Z" /><path
       d="m 84.799454,102.52258 0.910857,72.06812 c 0.01373,2.51373 1.400615,4.81721 3.61139,6.00551 l 156.360809,81.75081 c 1.0207,0.54388 2.13753,0.81811 3.25437,0.81811 h 0.0137 c 0.47145,0.53473 0.99782,1.03748 1.62489,1.41225 1.08022,0.64443 2.29774,0.96893 3.51985,0.96893 1.12598,0 2.24281,-0.2788 3.25895,-0.82725 l 154.38346,-83.60182 c 2.21535,-1.20202 3.60224,-3.51921 3.60224,-6.02836 V 95.11852 c 0,-0.0594 -0.0229,-0.11426 -0.0229,-0.17824 -0.005,-0.0503 0.0137,-0.096 0.0137,-0.15083 -0.009,-0.196523 -0.087,-0.374768 -0.1007,-0.566725 -0.0595,-0.374774 -0.10069,-0.749547 -0.21512,-1.110608 -0.0824,-0.251373 -0.18767,-0.475322 -0.29294,-0.717554 -0.14189,-0.319928 -0.28379,-0.635286 -0.47603,-0.927792 -0.14189,-0.22852 -0.31125,-0.434188 -0.4806,-0.644427 -0.21513,-0.265083 -0.43941,-0.511885 -0.69573,-0.744976 -0.2014,-0.182816 -0.41652,-0.34735 -0.64538,-0.507314 -0.14647,-0.100549 -0.27006,-0.242232 -0.43026,-0.33364 -0.14647,-0.09141 -0.31582,-0.127971 -0.47602,-0.205668 -0.13274,-0.06856 -0.23802,-0.164535 -0.37075,-0.22395 L 252.05393,11.854909 c -1.85376,-0.781539 -3.95468,-0.708412 -5.75808,0.191957 L 89.033339,93.907367 c -2.306896,1.160883 -3.762436,3.519213 -3.776168,6.092343 0,0.0411 0.01831,0.0777 0.01831,0.11426 -0.279208,0.76326 -0.480603,1.56765 -0.476027,2.40861 z M 392.61433,95.87264 254.01754,173.24958 107.25049,100.09569 249.63261,25.716944 Z m -131.6578,151.30978 v -62.0955 l 140.65195,-78.48754 v 64.38527 z"
       id="path6"
       style="opacity:1;fill:#ffff90;fill-opacity:1;stroke:none;stroke-width:4.57379;stroke-opacity:1"
       sodipodi:nodetypes="ccccsccsccsscccccccccccccccccccccccccccc" /></g></svg>
