<?xml version="1.0" encoding="UTF-8" standalone="no"?>
<!-- Created with Inkscape (http://www.inkscape.org/) -->

<svg
   width="500"
   height="500"
   viewBox="0 0 500 500"
   version="1.1"
   id="svg1"
   inkscape:version="1.3.2 (091e20ef0f, 2023-11-25, custom)"
   sodipodi:docname="db.ts.svg"
   xml:space="preserve"
   xmlns:inkscape="http://www.inkscape.org/namespaces/inkscape"
   xmlns:sodipodi="http://sodipodi.sourceforge.net/DTD/sodipodi-0.dtd"
   xmlns="http://www.w3.org/2000/svg"
   xmlns:svg="http://www.w3.org/2000/svg"><sodipodi:namedview
     id="namedview1"
     pagecolor="#505050"
     bordercolor="#eeeeee"
     borderopacity="1"
     inkscape:showpageshadow="0"
     inkscape:pageopacity="0"
     inkscape:pagecheckerboard="0"
     inkscape:deskcolor="#505050"
     inkscape:document-units="px"
     inkscape:zoom="0.96390292"
     inkscape:cx="279.07375"
     inkscape:cy="234.98217"
     inkscape:window-width="1362"
     inkscape:window-height="744"
     inkscape:window-x="0"
     inkscape:window-y="20"
     inkscape:window-maximized="1"
     inkscape:current-layer="layer1"
     showguides="true"><sodipodi:guide
       position="247.40575,249.42881"
       orientation="-0.99997769,0.0066803918"
       id="guide30"
       inkscape:locked="false" /><sodipodi:guide
       position="212.40183,247.89992"
       orientation="0,-1"
       id="guide53"
       inkscape:locked="false" /></sodipodi:namedview><defs
     id="defs1"><linearGradient
       id="swatch61"
       inkscape:swatch="solid"><stop
         style="stop-color:#5090d0;stop-opacity:1;"
         offset="0"
         id="stop61" /></linearGradient><linearGradient
       id="swatch30"
       inkscape:swatch="solid"><stop
         style="stop-color:#f9f9f9;stop-opacity:1;"
         offset="0"
         id="stop30" /></linearGradient><inkscape:perspective
       sodipodi:type="inkscape:persp3d"
       inkscape:vp_x="44.06818 : 315.96746 : 1"
       inkscape:vp_y="0 : 1000 : 0"
       inkscape:vp_z="480.74134 : 298.68846 : 1"
       inkscape:persp3d-origin="250 : 166.66667 : 1"
       id="perspective17" /><inkscape:perspective
       sodipodi:type="inkscape:persp3d"
       inkscape:vp_x="44.06818 : 315.96746 : 1"
       inkscape:vp_y="0 : 1000 : 0"
       inkscape:vp_z="480.74134 : 298.68846 : 1"
       inkscape:persp3d-origin="250 : 166.66667 : 1"
       id="perspective17-8" /><inkscape:perspective
       sodipodi:type="inkscape:persp3d"
       inkscape:vp_x="44.06818 : 315.96746 : 1"
       inkscape:vp_y="0 : 1000 : 0"
       inkscape:vp_z="480.74134 : 298.68846 : 1"
       inkscape:persp3d-origin="250 : 166.66667 : 1"
       id="perspective17-7" /></defs><g
     inkscape:label="Layer 1"
     inkscape:groupmode="layer"
     id="layer1"><path
       id="path1-8-5"
       style="fill:#3178c6;fill-opacity:1;stroke:none;stroke-opacity:1"
       d="M 41.113931 0.0008308909 C 40.899308 0.0080808765 40.685832 0.061569238 40.488832 0.16006905 L 6.1309067 18.071078 C 5.6269077 18.325078 5.3088353 18.841084 5.3058353 19.404082 C 5.3058353 19.413082 5.3099701 19.420707 5.3099701 19.428707 C 5.2489701 19.595705 5.2048494 19.77167 5.2058494 19.95567 L 5.4050694 62.72671 C 5.4080694 63.276708 5.7110566 63.780835 6.1940556 64.040835 L 21.584361 72.099599 L 6.1309067 80.155901 C 5.6269082 80.409899 5.3088353 80.925905 5.3058353 81.488905 C 5.3058353 81.497905 5.3099701 81.505529 5.3099701 81.513529 C 5.2489701 81.680529 5.2048494 81.856494 5.2058494 82.040492 L 5.4050694 124.81153 C 5.4080694 125.36153 5.7110571 125.86566 6.1940556 126.12566 L 17.208664 131.89353 L 6.1309067 137.66796 C 5.6269082 137.92196 5.3088353 138.43797 5.3058353 139.00097 C 5.3058353 139.00997 5.3099701 139.01759 5.3099701 139.02559 C 5.2489701 139.19259 5.2048494 139.36855 5.2058494 139.55255 L 5.4050694 182.32359 C 5.4080694 182.87359 5.7110571 183.37772 6.1940556 183.63772 L 40.355016 201.52492 C 40.578016 201.64392 40.821818 201.70386 41.065818 201.70386 L 41.068825 201.70386 C 41.171825 201.82086 41.287038 201.93049 41.424038 202.01249 C 41.660038 202.15349 41.926102 202.22508 42.193102 202.22508 C 42.439102 202.22508 42.683032 202.16368 42.905032 202.04368 L 43.444429 201.75147 A 6.7365635 14.71048 0 0 1 40.111817 189.07234 L 40.111817 153.99726 L 10.111171 139.02149 L 20.471361 133.60164 L 40.111817 143.88564 L 40.111817 141.04562 L 36.178163 141.04562 A 6.7365635 14.71048 0 0 1 29.442273 126.33661 L 29.442273 119.07403 A 6.7365635 14.71048 0 0 1 36.178163 104.36503 L 43.692138 104.36503 L 43.692138 100.10581 L 74.420877 82.932719 L 74.420877 124.02273 L 73.020323 124.7828 C 73.272132 124.76782 73.522628 124.7393 73.775856 124.7393 C 74.988365 124.7393 76.189594 124.91293 77.372716 125.27037 C 77.400309 125.15662 77.420829 125.04056 77.420829 124.9207 L 77.420829 80.421024 C 77.420829 80.408024 77.415943 80.395625 77.415943 80.381625 C 77.414943 80.370625 77.41895 80.360792 77.41895 80.348792 C 77.41695 80.305792 77.400148 80.266849 77.397148 80.224849 C 77.384148 80.142849 77.375163 80.060888 77.350163 79.981888 C 77.332163 79.926888 77.308886 79.878112 77.285886 79.825112 C 77.254886 79.755112 77.224141 79.68555 77.182141 79.62155 C 77.151141 79.57155 77.113893 79.527191 77.076893 79.481191 C 77.029893 79.423191 76.981035 79.368848 76.925035 79.317848 C 76.881035 79.277848 76.834077 79.242038 76.784077 79.207038 C 76.752077 79.185038 76.725105 79.153986 76.690105 79.133986 C 76.658105 79.113986 76.620985 79.105841 76.585985 79.088841 C 76.556985 79.073841 76.534169 79.052592 76.505169 79.039592 L 62.076006 72.05035 L 76.634098 64.154929 C 77.118098 63.891929 77.420829 63.384878 77.420829 62.835878 L 77.420829 18.336202 C 77.420829 18.323202 77.415943 18.310802 77.415943 18.296802 C 77.414943 18.285802 77.41895 18.27597 77.41895 18.26397 C 77.41695 18.22097 77.400148 18.182027 77.397148 18.140027 C 77.384148 18.058027 77.375163 17.976065 77.350163 17.897065 C 77.332163 17.842065 77.308886 17.79329 77.285886 17.74029 C 77.254886 17.67029 77.224141 17.600727 77.182141 17.536727 C 77.151141 17.486729 77.113893 17.442368 77.076893 17.396368 C 77.029893 17.338368 76.981035 17.284026 76.925035 17.233026 C 76.881035 17.193026 76.834077 17.157216 76.784077 17.122216 C 76.752077 17.100216 76.725105 17.069163 76.690105 17.049163 C 76.658105 17.029163 76.620985 17.021018 76.585985 17.004018 C 76.556985 16.989018 76.534169 16.967769 76.505169 16.954769 L 41.746925 0.11820747 C 41.544425 0.032707638 41.328556 -0.0064190945 41.113931 0.0008308909 z M 41.218052 3.1511197 L 72.456118 18.501185 L 42.176187 35.43132 L 10.111171 19.424603 L 41.218052 3.1511197 z M 74.420877 20.847896 L 74.420877 61.937907 L 43.692138 78.610306 L 43.692138 38.020992 L 74.420877 20.847896 z M 24.840668 73.804432 L 40.355016 81.928041 C 40.578016 82.047041 40.821818 82.106978 41.065818 82.106978 L 41.068825 82.106978 C 41.171825 82.223978 41.287038 82.333605 41.424038 82.415605 C 41.660038 82.556605 41.926102 82.628196 42.193102 82.628196 C 42.439102 82.628196 42.683032 82.566796 42.905032 82.446796 L 58.752791 73.85204 L 72.456118 80.586008 L 42.176187 97.516143 L 10.111171 81.510246 L 24.840668 73.804432 z M 58.171671 146.0846 L 57.417266 146.5065 L 57.417266 149.94736 L 57.757443 149.75693 C 57.857469 148.51726 57.995165 147.28938 58.171671 146.0846 z M 57.639039 190.63927 L 57.306755 190.81985 A 6.7365635 14.71048 0 0 1 56.881627 194.46427 L 58.276919 193.70748 A 6.7365635 14.71048 0 0 1 57.639039 190.63927 z "
       transform="matrix(5.1960469,0,0,2.3794941,34.307584,5.8886479)" /><path
       d="m 277.73075,455.78528 h 19.92 v -149.28 h 55.68 v -17.28 h -131.04 v 17.28 h 55.44 z m 132.95999,2.4 c 28.56,0 46.08,-13.44 46.08,-34.8 0,-42.48 -69.12,-26.64 -69.12,-52.8 0,-10.08 10.8,-16.56 28.08,-16.56 9.84,0 21.36,2.16 31.2,5.52 l 4.56,-15.6 c -9.84,-4.08 -21.6,-6.24 -33.84,-6.24 -30,0 -49.2,13.2 -49.2,35.04 0,41.52 68.88,24.24 68.88,52.56 0,10.56 -9.36,16.56 -25.2,16.56 -12.24,0 -28.56,-3.36 -40.8,-8.64 l -4.56,15.6 c 13.2,6 29.28,9.36 43.92,9.36 z"
       id="text1-5"
       style="font-size:240px;font-family:System-ui;-inkscape-font-specification:System-ui;fill:#40b2ff;fill-opacity:0.313725;stroke:#3178c6;stroke-width:23.529;stroke-linejoin:round;paint-order:markers fill stroke"
       aria-label="Ts" /><g
       id="path9" /></g></svg>
