<?xml version="1.0" encoding="UTF-8" standalone="no"?>
<!-- Created with Inkscape (http://www.inkscape.org/) -->

<svg
   width="500"
   height="500"
   viewBox="0 0 500 500"
   version="1.1"
   id="svg1"
   inkscape:version="1.3.2 (091e20ef0f, 2023-11-25, custom)"
   sodipodi:docname="db.ts.svg"
   xml:space="preserve"
   xmlns:inkscape="http://www.inkscape.org/namespaces/inkscape"
   xmlns:sodipodi="http://sodipodi.sourceforge.net/DTD/sodipodi-0.dtd"
   xmlns="http://www.w3.org/2000/svg"
   xmlns:svg="http://www.w3.org/2000/svg"><sodipodi:namedview
     id="namedview1"
     pagecolor="#505050"
     bordercolor="#eeeeee"
     borderopacity="1"
     inkscape:showpageshadow="0"
     inkscape:pageopacity="0"
     inkscape:pagecheckerboard="0"
     inkscape:deskcolor="#505050"
     inkscape:document-units="px"
     inkscape:zoom="0.96390292"
     inkscape:cx="276.48013"
     inkscape:cy="239.13197"
     inkscape:window-width="1352"
     inkscape:window-height="734"
     inkscape:window-x="4"
     inkscape:window-y="24"
     inkscape:window-maximized="1"
     inkscape:current-layer="layer1"
     showguides="true"><sodipodi:guide
       position="247.40575,249.42881"
       orientation="-0.99997769,0.0066803918"
       id="guide30"
       inkscape:locked="false" /><sodipodi:guide
       position="212.40183,247.89992"
       orientation="0,-1"
       id="guide53"
       inkscape:locked="false" /></sodipodi:namedview><defs
     id="defs1"><linearGradient
       id="swatch61"
       inkscape:swatch="solid"><stop
         style="stop-color:#5090d0;stop-opacity:1;"
         offset="0"
         id="stop61" /></linearGradient><linearGradient
       id="swatch30"
       inkscape:swatch="solid"><stop
         style="stop-color:#f9f9f9;stop-opacity:1;"
         offset="0"
         id="stop30" /></linearGradient><inkscape:perspective
       sodipodi:type="inkscape:persp3d"
       inkscape:vp_x="44.06818 : 315.96746 : 1"
       inkscape:vp_y="0 : 1000 : 0"
       inkscape:vp_z="480.74134 : 298.68846 : 1"
       inkscape:persp3d-origin="250 : 166.66667 : 1"
       id="perspective17" /><inkscape:perspective
       sodipodi:type="inkscape:persp3d"
       inkscape:vp_x="44.06818 : 315.96746 : 1"
       inkscape:vp_y="0 : 1000 : 0"
       inkscape:vp_z="480.74134 : 298.68846 : 1"
       inkscape:persp3d-origin="250 : 166.66667 : 1"
       id="perspective17-8" /><inkscape:perspective
       sodipodi:type="inkscape:persp3d"
       inkscape:vp_x="44.06818 : 315.96746 : 1"
       inkscape:vp_y="0 : 1000 : 0"
       inkscape:vp_z="480.74134 : 298.68846 : 1"
       inkscape:persp3d-origin="250 : 166.66667 : 1"
       id="perspective17-28" /><inkscape:perspective
       sodipodi:type="inkscape:persp3d"
       inkscape:vp_x="44.06818 : 315.96746 : 1"
       inkscape:vp_y="0 : 1000 : 0"
       inkscape:vp_z="480.74134 : 298.68846 : 1"
       inkscape:persp3d-origin="250 : 166.66667 : 1"
       id="perspective17-2" /><inkscape:perspective
       sodipodi:type="inkscape:persp3d"
       inkscape:vp_x="44.06818 : 315.96746 : 1"
       inkscape:vp_y="0 : 1000 : 0"
       inkscape:vp_z="480.74134 : 298.68846 : 1"
       inkscape:persp3d-origin="250 : 166.66667 : 1"
       id="perspective17-4" /><inkscape:perspective
       sodipodi:type="inkscape:persp3d"
       inkscape:vp_x="44.06818 : 315.96746 : 1"
       inkscape:vp_y="0 : 1000 : 0"
       inkscape:vp_z="480.74134 : 298.68846 : 1"
       inkscape:persp3d-origin="250 : 166.66667 : 1"
       id="perspective17-9" /><inkscape:perspective
       sodipodi:type="inkscape:persp3d"
       inkscape:vp_x="44.06818 : 315.96746 : 1"
       inkscape:vp_y="0 : 1000 : 0"
       inkscape:vp_z="480.74134 : 298.68846 : 1"
       inkscape:persp3d-origin="250 : 166.66667 : 1"
       id="perspective17-8-4" /><inkscape:perspective
       sodipodi:type="inkscape:persp3d"
       inkscape:vp_x="44.06818 : 315.96746 : 1"
       inkscape:vp_y="0 : 1000 : 0"
       inkscape:vp_z="480.74134 : 298.68846 : 1"
       inkscape:persp3d-origin="250 : 166.66667 : 1"
       id="perspective17-7" /><inkscape:perspective
       sodipodi:type="inkscape:persp3d"
       inkscape:vp_x="44.06818 : 315.96746 : 1"
       inkscape:vp_y="0 : 1000 : 0"
       inkscape:vp_z="480.74134 : 298.68846 : 1"
       inkscape:persp3d-origin="250 : 166.66667 : 1"
       id="perspective17-5" /><inkscape:perspective
       sodipodi:type="inkscape:persp3d"
       inkscape:vp_x="44.06818 : 315.96746 : 1"
       inkscape:vp_y="0 : 1000 : 0"
       inkscape:vp_z="480.74134 : 298.68846 : 1"
       inkscape:persp3d-origin="250 : 166.66667 : 1"
       id="perspective17-2-92" /><inkscape:perspective
       sodipodi:type="inkscape:persp3d"
       inkscape:vp_x="44.06818 : 315.96746 : 1"
       inkscape:vp_y="0 : 1000 : 0"
       inkscape:vp_z="480.74134 : 298.68846 : 1"
       inkscape:persp3d-origin="250 : 166.66667 : 1"
       id="perspective17-4-28" /><inkscape:perspective
       sodipodi:type="inkscape:persp3d"
       inkscape:vp_x="44.06818 : 315.96746 : 1"
       inkscape:vp_y="0 : 1000 : 0"
       inkscape:vp_z="480.74134 : 298.68846 : 1"
       inkscape:persp3d-origin="250 : 166.66667 : 1"
       id="perspective17-29" /><inkscape:perspective
       sodipodi:type="inkscape:persp3d"
       inkscape:vp_x="44.06818 : 315.96746 : 1"
       inkscape:vp_y="0 : 1000 : 0"
       inkscape:vp_z="480.74134 : 298.68846 : 1"
       inkscape:persp3d-origin="250 : 166.66667 : 1"
       id="perspective17-2-1" /><inkscape:perspective
       sodipodi:type="inkscape:persp3d"
       inkscape:vp_x="44.06818 : 315.96746 : 1"
       inkscape:vp_y="0 : 1000 : 0"
       inkscape:vp_z="480.74134 : 298.68846 : 1"
       inkscape:persp3d-origin="250 : 166.66667 : 1"
       id="perspective17-4-27" /><inkscape:perspective
       sodipodi:type="inkscape:persp3d"
       inkscape:vp_x="44.06818 : 315.96746 : 1"
       inkscape:vp_y="0 : 1000 : 0"
       inkscape:vp_z="480.74134 : 298.68846 : 1"
       inkscape:persp3d-origin="250 : 166.66667 : 1"
       id="perspective17-1" /><inkscape:perspective
       sodipodi:type="inkscape:persp3d"
       inkscape:vp_x="44.06818 : 315.96746 : 1"
       inkscape:vp_y="0 : 1000 : 0"
       inkscape:vp_z="480.74134 : 298.68846 : 1"
       inkscape:persp3d-origin="250 : 166.66667 : 1"
       id="perspective17-4-7" /><inkscape:perspective
       sodipodi:type="inkscape:persp3d"
       inkscape:vp_x="44.06818 : 315.96746 : 1"
       inkscape:vp_y="0 : 1000 : 0"
       inkscape:vp_z="480.74134 : 298.68846 : 1"
       inkscape:persp3d-origin="250 : 166.66667 : 1"
       id="perspective17-7-9" /><inkscape:perspective
       sodipodi:type="inkscape:persp3d"
       inkscape:vp_x="44.06818 : 315.96746 : 1"
       inkscape:vp_y="0 : 1000 : 0"
       inkscape:vp_z="480.74134 : 298.68846 : 1"
       inkscape:persp3d-origin="250 : 166.66667 : 1"
       id="perspective17-2-9" /><inkscape:perspective
       sodipodi:type="inkscape:persp3d"
       inkscape:vp_x="44.06818 : 315.96746 : 1"
       inkscape:vp_y="0 : 1000 : 0"
       inkscape:vp_z="480.74134 : 298.68846 : 1"
       inkscape:persp3d-origin="250 : 166.66667 : 1"
       id="perspective17-4-2" /><inkscape:perspective
       sodipodi:type="inkscape:persp3d"
       inkscape:vp_x="44.06818 : 315.96746 : 1"
       inkscape:vp_y="0 : 1000 : 0"
       inkscape:vp_z="480.74134 : 298.68846 : 1"
       inkscape:persp3d-origin="250 : 166.66667 : 1"
       id="perspective17-18" /><inkscape:perspective
       sodipodi:type="inkscape:persp3d"
       inkscape:vp_x="44.06818 : 315.96746 : 1"
       inkscape:vp_y="0 : 1000 : 0"
       inkscape:vp_z="480.74134 : 298.68846 : 1"
       inkscape:persp3d-origin="250 : 166.66667 : 1"
       id="perspective17-2-7" /><inkscape:perspective
       sodipodi:type="inkscape:persp3d"
       inkscape:vp_x="44.06818 : 315.96746 : 1"
       inkscape:vp_y="0 : 1000 : 0"
       inkscape:vp_z="480.74134 : 298.68846 : 1"
       inkscape:persp3d-origin="250 : 166.66667 : 1"
       id="perspective17-4-9" /></defs><g
     inkscape:label="Layer 1"
     inkscape:groupmode="layer"
     id="layer1"><path
       d="m 285.86643,458.3126 h 19.92 v -149.28 h 55.68 v -17.28 h -131.04 v 17.28 h 55.44 z m 132.95999,2.4 c 28.56,0 46.08,-13.44 46.08,-34.8 0,-42.48 -69.12,-26.64 -69.12,-52.8 0,-10.08 10.8,-16.56 28.08,-16.56 9.84,0 21.36,2.16 31.2,5.52 l 4.56,-15.6 c -9.84,-4.08 -21.6,-6.24 -33.84,-6.24 -30,0 -49.2,13.2 -49.2,35.04 0,41.52 68.88,24.24 68.88,52.56 0,10.56 -9.36,16.56 -25.2,16.56 -12.24,0 -28.56,-3.36 -40.8,-8.64 l -4.56,15.6 c 13.2,6 29.28,9.36 43.92,9.36 z"
       id="text1-5"
       style="font-size:240px;font-family:System-ui;-inkscape-font-specification:System-ui;fill:#40b2ff;fill-opacity:0.313725;stroke:#3178c6;stroke-width:23.529;stroke-linejoin:round;paint-order:markers fill stroke"
       aria-label="Ts" /><path
       id="path2-0"
       style="color:#000000;fill:#3178c6;stroke-width:0.858436;stroke-linecap:round;stroke-miterlimit:10;-inkscape-stroke:none;fill-opacity:1"
       d="M 251.21571 -5.3388077 C 212.01485 -5.3388077 176.5511 -1.5382908 150.09819 4.8907189 C 136.87172 8.1052237 125.91725 11.889176 117.38431 16.792218 C 108.87366 21.682453 101.03359 28.64044 100.99267 39.2997 L 100.98847 39.2997 L 100.98847 138.61065 L 101.05787 138.61065 C 101.72381 148.51301 109.23803 155.09549 117.38431 159.77635 C 125.91724 164.67939 136.87173 168.46547 150.09819 171.67995 C 176.55107 178.10898 212.01489 181.90948 251.21571 181.90948 C 290.41654 181.90948 325.88033 178.10898 352.33324 171.67995 C 365.55967 168.46547 376.51207 164.67939 385.04501 159.77635 C 393.19128 155.09549 400.70764 148.51301 401.37355 138.61065 L 401.44085 138.61065 L 401.44085 39.2997 L 401.43875 39.2997 C 401.39715 28.64044 393.55566 21.682453 385.04501 16.792218 C 376.51206 11.889176 365.55969 8.1052237 352.33324 4.8907189 C 325.8803 -1.5382908 290.41658 -5.3388077 251.21571 -5.3388077 z M 251.21571 16.352668 C 288.992 16.352668 323.21754 20.137038 347.21006 25.968087 C 359.20633 28.883611 368.66409 32.39806 374.23713 35.60033 C 377.44004 37.440737 378.69756 38.762961 379.25935 39.381722 C 378.69738 40.000664 377.43944 41.323048 374.23713 43.163113 C 368.66409 46.365393 359.20633 49.879833 347.21006 52.795357 C 323.21754 58.626395 288.992 62.410775 251.21571 62.410775 C 213.43943 62.410775 179.21179 58.626395 155.21926 52.795357 C 143.223 49.879833 133.76523 46.365393 128.19219 43.163113 C 124.98986 41.323048 123.73195 40.000664 123.16997 39.381722 C 123.73177 38.762961 124.98927 37.440737 128.19219 35.60033 C 133.76523 32.39806 143.223 28.883611 155.21926 25.968087 C 179.21179 20.137038 213.43943 16.352668 251.21571 16.352668 z M 398.41238 180.07978 C 395.36127 185.143 390.35703 189.02781 385.04501 192.08012 C 376.51207 196.98316 365.55757 200.76925 352.33113 203.98372 C 325.87827 210.41275 290.4144 214.21115 251.21361 214.21115 C 212.01283 214.21115 176.54895 210.41275 150.09608 203.98372 C 136.86965 200.76925 125.91723 196.98316 117.38431 192.08012 C 112.0729 189.02817 107.06815 185.14423 104.01695 180.08188 C 102.14955 183.14682 101.00607 186.65098 100.99057 190.68997 L 100.99057 289.99882 L 101.05787 289.99882 C 101.72381 299.90116 109.24013 306.48574 117.38642 311.16662 C 125.91934 316.06962 136.87174 319.85572 150.09819 323.07022 C 176.55104 329.49922 212.01493 333.29764 251.21571 333.29764 C 256.11013 333.29764 260.94691 333.23713 265.71455 333.12098 L 265.71455 330.46475 L 233.27408 330.46475 A 27.261185 27.261185 0 0 1 206.01567 303.20635 L 206.01567 284.59803 A 27.261185 27.261185 0 0 1 233.27408 257.33962 L 374.37804 257.33962 A 27.261185 27.261185 0 0 1 401.44296 283.37823 L 401.44296 190.68997 L 401.43875 190.68997 C 401.42325 186.65035 400.2824 183.14503 398.41448 180.07978 L 398.41238 180.07978 z M 103.28296 331.29548 C 101.89016 334.01489 101.00374 337.02617 100.99057 340.45873 L 100.99057 439.76969 L 101.05787 439.76969 C 101.72381 449.67204 109.24013 456.25661 117.38642 460.93749 C 125.91934 465.84049 136.87174 469.62449 150.09819 472.83899 C 176.55104 479.26799 212.01493 483.06851 251.21571 483.06851 C 258.83445 483.06851 266.25724 482.88223 273.55495 482.60373 A 27.261185 27.261185 0 0 1 265.71455 463.94914 L 265.71455 366.59829 C 260.94691 366.71444 256.11013 366.77495 251.21571 366.77495 C 212.01493 366.77495 176.55104 362.97655 150.09819 356.54752 C 136.87174 353.33305 125.91934 349.54695 117.38642 344.64392 C 111.61501 341.32766 106.21162 337.02555 103.28506 331.29548 L 103.28296 331.29548 z M 368.01823 352.01532 C 363.18722 353.65019 358.01446 355.16679 352.33324 356.54752 C 348.93149 357.37427 345.36954 358.15523 341.68099 358.89249 L 341.68099 463.94914 A 27.261185 27.261185 0 0 1 338.62937 475.73918 C 343.39441 474.8364 348.02371 473.88636 352.33324 472.83899 C 356.87442 471.73532 361.04496 470.53019 365.04443 469.27001 A 27.261185 27.261185 0 0 1 362.68685 448.80675 L 367.59551 432.00921 A 27.261185 27.261185 0 0 1 381.20894 415.71642 C 371.19233 406.02315 363.3998 390.60266 363.3998 374.53332 C 363.3998 366.77759 365.10664 359.13752 368.01823 352.01532 z "
       transform="matrix(0.92868422,0,0,0.92868422,13.787823,27.450254)" /></g></svg>
