<?xml version="1.0" encoding="UTF-8" standalone="no"?>
<!-- Created with Inkscape (http://www.inkscape.org/) -->

<svg
   width="500"
   height="500"
   viewBox="0 0 500 500"
   version="1.1"
   id="svg1"
   inkscape:version="1.3.2 (091e20ef0f, 2023-11-25, custom)"
   sodipodi:docname="db.ts.svg"
   xml:space="preserve"
   xmlns:inkscape="http://www.inkscape.org/namespaces/inkscape"
   xmlns:sodipodi="http://sodipodi.sourceforge.net/DTD/sodipodi-0.dtd"
   xmlns="http://www.w3.org/2000/svg"
   xmlns:svg="http://www.w3.org/2000/svg"><sodipodi:namedview
     id="namedview1"
     pagecolor="#505050"
     bordercolor="#eeeeee"
     borderopacity="1"
     inkscape:showpageshadow="0"
     inkscape:pageopacity="0"
     inkscape:pagecheckerboard="0"
     inkscape:deskcolor="#505050"
     inkscape:document-units="px"
     inkscape:zoom="0.96390292"
     inkscape:cx="275.44268"
     inkscape:cy="239.13197"
     inkscape:window-width="1362"
     inkscape:window-height="744"
     inkscape:window-x="0"
     inkscape:window-y="20"
     inkscape:window-maximized="1"
     inkscape:current-layer="layer1"
     showguides="true"><sodipodi:guide
       position="247.40575,249.42881"
       orientation="-0.99997769,0.0066803918"
       id="guide30"
       inkscape:locked="false" /><sodipodi:guide
       position="212.40183,247.89992"
       orientation="0,-1"
       id="guide53"
       inkscape:locked="false" /></sodipodi:namedview><defs
     id="defs1"><linearGradient
       id="swatch61"
       inkscape:swatch="solid"><stop
         style="stop-color:#5090d0;stop-opacity:1;"
         offset="0"
         id="stop61" /></linearGradient><linearGradient
       id="swatch30"
       inkscape:swatch="solid"><stop
         style="stop-color:#f9f9f9;stop-opacity:1;"
         offset="0"
         id="stop30" /></linearGradient><inkscape:perspective
       sodipodi:type="inkscape:persp3d"
       inkscape:vp_x="44.06818 : 315.96746 : 1"
       inkscape:vp_y="0 : 1000 : 0"
       inkscape:vp_z="480.74134 : 298.68846 : 1"
       inkscape:persp3d-origin="250 : 166.66667 : 1"
       id="perspective17" /><inkscape:perspective
       sodipodi:type="inkscape:persp3d"
       inkscape:vp_x="44.06818 : 315.96746 : 1"
       inkscape:vp_y="0 : 1000 : 0"
       inkscape:vp_z="480.74134 : 298.68846 : 1"
       inkscape:persp3d-origin="250 : 166.66667 : 1"
       id="perspective17-8" /><inkscape:perspective
       sodipodi:type="inkscape:persp3d"
       inkscape:vp_x="44.06818 : 315.96746 : 1"
       inkscape:vp_y="0 : 1000 : 0"
       inkscape:vp_z="480.74134 : 298.68846 : 1"
       inkscape:persp3d-origin="250 : 166.66667 : 1"
       id="perspective17-28" /><inkscape:perspective
       sodipodi:type="inkscape:persp3d"
       inkscape:vp_x="44.06818 : 315.96746 : 1"
       inkscape:vp_y="0 : 1000 : 0"
       inkscape:vp_z="480.74134 : 298.68846 : 1"
       inkscape:persp3d-origin="250 : 166.66667 : 1"
       id="perspective17-2" /><inkscape:perspective
       sodipodi:type="inkscape:persp3d"
       inkscape:vp_x="44.06818 : 315.96746 : 1"
       inkscape:vp_y="0 : 1000 : 0"
       inkscape:vp_z="480.74134 : 298.68846 : 1"
       inkscape:persp3d-origin="250 : 166.66667 : 1"
       id="perspective17-4" /><inkscape:perspective
       sodipodi:type="inkscape:persp3d"
       inkscape:vp_x="44.06818 : 315.96746 : 1"
       inkscape:vp_y="0 : 1000 : 0"
       inkscape:vp_z="480.74134 : 298.68846 : 1"
       inkscape:persp3d-origin="250 : 166.66667 : 1"
       id="perspective17-9" /><inkscape:perspective
       sodipodi:type="inkscape:persp3d"
       inkscape:vp_x="44.06818 : 315.96746 : 1"
       inkscape:vp_y="0 : 1000 : 0"
       inkscape:vp_z="480.74134 : 298.68846 : 1"
       inkscape:persp3d-origin="250 : 166.66667 : 1"
       id="perspective17-8-4" /><inkscape:perspective
       sodipodi:type="inkscape:persp3d"
       inkscape:vp_x="44.06818 : 315.96746 : 1"
       inkscape:vp_y="0 : 1000 : 0"
       inkscape:vp_z="480.74134 : 298.68846 : 1"
       inkscape:persp3d-origin="250 : 166.66667 : 1"
       id="perspective17-7" /></defs><g
     inkscape:label="Layer 1"
     inkscape:groupmode="layer"
     id="layer1"><path
       id="path1"
       style="opacity:1;fill:#3178c6;fill-opacity:1;stroke:none;stroke-width:4.574;stroke-opacity:1;stroke-dasharray:none"
       d="M 249.15552 11.319629 C 248.17314 11.352764 247.19784 11.596008 246.29614 12.046191 L 89.032472 93.907519 C 86.72558 95.0684 85.270813 97.426192 85.257081 99.999316 C 85.257081 100.04042 85.274659 100.07799 85.274659 100.11455 C 84.995451 100.87781 84.795474 101.68179 84.80005 102.52275 L 85.710206 174.59111 C 85.723936 177.10484 87.110763 179.40867 89.321534 180.59697 L 118.7981 196.00713 L 89.032472 211.50127 C 86.725583 212.66215 85.270813 215.01799 85.257081 217.59111 C 85.257081 217.63221 85.276612 217.66976 85.276612 217.70635 C 84.997407 218.4696 84.795473 219.27555 84.80005 220.1165 L 85.710206 292.18291 C 85.723936 294.69664 87.110766 297.00047 89.321534 298.18877 L 113.3606 310.75713 L 89.032472 323.42119 C 86.725583 324.58208 85.270813 326.94181 85.257081 329.51494 C 85.257081 329.55604 85.276612 329.59163 85.276612 329.62822 C 84.997407 330.39148 84.795473 331.19548 84.80005 332.03643 L 85.710206 404.10478 C 85.723936 406.6185 87.110766 408.92235 89.321534 410.11064 L 245.68091 491.86064 C 246.70162 492.40451 247.81994 492.679 248.93677 492.679 L 248.95044 492.679 C 249.42189 493.21373 249.94837 493.71634 250.57544 494.09111 C 251.65565 494.73554 252.87287 495.05986 254.09497 495.05986 C 255.22096 495.05986 256.3386 494.78018 257.35474 494.23174 L 275.76685 484.26103 A 25.0025 25.0025 0 0 1 266.71021 473.57939 L 260.9563 476.69658 L 260.9563 414.60088 L 264.24341 412.76689 L 264.24341 397.054 L 254.01685 402.76299 L 107.24927 329.60869 L 128.34302 318.58916 L 245.68091 379.93877 C 246.70162 380.48265 247.81994 380.75713 248.93677 380.75713 L 248.95044 380.75713 C 249.42189 381.29187 249.94837 381.79447 250.57544 382.16924 C 251.65565 382.81367 252.87287 383.13994 254.09497 383.13994 C 255.22096 383.13994 256.3386 382.86027 257.35474 382.31182 L 264.24341 378.58135 L 264.24341 362.99346 L 260.9563 364.77471 L 260.9563 339.13799 L 233.802 339.13799 A 25.0025 25.0025 0 0 1 208.802 314.13799 L 208.802 296.85674 A 25.0025 25.0025 0 0 1 222.27466 275.01885 L 107.24927 217.68877 L 133.7688 203.83525 L 245.68286 262.34697 C 246.70356 262.89085 247.81993 263.16533 248.93677 263.16533 L 248.95044 263.16533 C 249.42189 263.70006 249.94837 264.20267 250.57544 264.57744 C 251.65566 265.22187 252.87286 265.54619 254.09497 265.54619 C 255.22095 265.54619 256.3386 265.26847 257.35474 264.72002 L 371.30786 203.01103 L 392.6145 213.46416 L 288.02271 271.85674 L 316.19263 271.85674 L 401.60864 224.19072 L 401.60864 288.57744 L 389.56567 295.10283 A 25.0025 25.0025 0 0 1 389.84302 296.85674 L 389.84302 314.13799 A 25.0025 25.0025 0 0 1 387.80786 323.02861 L 392.6145 325.38799 L 382.03442 331.29424 A 25.0025 25.0025 0 0 1 378.84302 334.28643 C 378.86402 334.27153 378.88247 334.2525 378.90357 334.2376 C 389.31937 326.89171 401.3771 322.89303 414.38403 321.25322 C 414.33513 321.16429 414.30155 321.06723 414.24536 320.98174 C 414.10346 320.75322 413.93424 320.54745 413.76489 320.33721 C 413.54976 320.07213 413.3259 319.8242 413.06958 319.59111 C 412.86818 319.40829 412.65196 319.24521 412.4231 319.08525 C 412.27663 318.9847 412.15556 318.84268 411.99536 318.75127 C 411.84889 318.65987 411.679 318.62194 411.5188 318.54424 C 411.38606 318.47564 411.28044 318.38099 411.14771 318.32158 L 392.3313 309.22002 L 411.73755 298.71025 C 413.9529 297.50824 415.34107 295.19009 415.34107 292.68096 L 415.34107 212.71025 C 415.34107 212.65085 415.31763 212.59846 415.31763 212.53447 C 415.31263 212.48417 415.3313 212.43694 415.3313 212.38213 C 415.3223 212.1856 415.2435 212.00767 415.22974 211.81572 C 415.17024 211.44094 415.12932 211.06545 415.01489 210.70439 C 414.93249 210.45301 414.82719 210.22983 414.72192 209.9876 C 414.58003 209.66767 414.4376 209.35042 414.24536 209.05791 C 414.10347 208.82939 413.93424 208.62557 413.76489 208.41533 C 413.54976 208.15025 413.3259 207.90428 413.06958 207.67119 C 412.86818 207.48837 412.65196 207.32139 412.4231 207.16143 C 412.27663 207.06088 412.15556 206.9208 411.99536 206.82939 C 411.84889 206.73799 411.67901 206.70006 411.5188 206.62236 C 411.38607 206.55376 411.28045 206.45913 411.14771 206.39971 L 386.7981 194.62236 L 411.73755 181.1165 C 413.9529 179.91448 415.33911 177.59831 415.33911 175.08916 L 415.33911 95.118457 C 415.33911 95.059057 415.31763 95.004702 415.31763 94.940722 C 415.31263 94.890424 415.3313 94.845162 415.3313 94.790332 C 415.3223 94.593809 415.24344 94.413929 415.22974 94.221972 C 415.17024 93.8472 415.12932 93.473658 415.01489 93.112597 C 414.93249 92.861226 414.82719 92.636079 414.72192 92.393847 C 414.58003 92.073921 414.4376 91.758619 414.24536 91.466113 C 414.10347 91.237593 413.93424 91.031821 413.76489 90.821582 C 413.54976 90.556499 413.3259 90.310532 413.06958 90.077441 C 412.86818 89.894625 412.65391 89.729593 412.42505 89.569629 C 412.27858 89.46908 412.15361 89.327052 411.99341 89.235644 C 411.84694 89.144234 411.679 89.108263 411.5188 89.030566 C 411.38606 88.962006 411.28044 88.865372 411.14771 88.805957 L 252.05396 11.854785 C 251.12708 11.464016 250.13789 11.286493 249.15552 11.319629 z M 249.63208 25.716113 L 392.6145 95.872363 L 254.01685 173.24932 L 107.25122 100.09502 L 249.63208 25.716113 z M 401.60864 106.59893 L 401.60864 170.98369 L 260.9563 247.18291 L 260.9563 185.08721 L 401.60864 106.59893 z M 376.79614 335.93291 A 25.0025 25.0025 0 0 1 369.01489 338.56377 L 334.16333 358.01885 L 334.16333 373.74932 L 359.11255 359.82549 C 362.9076 350.41699 369.06692 342.01315 376.79614 335.93291 z M 334.16333 339.13799 L 334.16333 340.71807 L 337.0813 339.13799 L 334.16333 339.13799 z M 370.45239 417.37627 L 334.16333 437.03643 L 334.16333 452.63799 L 356.96216 440.29228 L 358.84692 433.84307 A 25.0025 25.0025 0 0 1 372.31958 419.27471 C 371.67866 418.68801 371.07394 418.01224 370.45239 417.37627 z "
       transform="translate(-3.3762217,-5.104785)" /><path
       d="m 285.86643,458.3126 h 19.92 v -149.28 h 55.68 v -17.28 h -131.04 v 17.28 h 55.44 z m 132.95999,2.4 c 28.56,0 46.08,-13.44 46.08,-34.8 0,-42.48 -69.12,-26.64 -69.12,-52.8 0,-10.08 10.8,-16.56 28.08,-16.56 9.84,0 21.36,2.16 31.2,5.52 l 4.56,-15.6 c -9.84,-4.08 -21.6,-6.24 -33.84,-6.24 -30,0 -49.2,13.2 -49.2,35.04 0,41.52 68.88,24.24 68.88,52.56 0,10.56 -9.36,16.56 -25.2,16.56 -12.24,0 -28.56,-3.36 -40.8,-8.64 l -4.56,15.6 c 13.2,6 29.28,9.36 43.92,9.36 z"
       id="text1-5"
       style="font-size:240px;font-family:System-ui;-inkscape-font-specification:System-ui;fill:#40b2ff;fill-opacity:0.313725;stroke:#3178c6;stroke-width:23.529;stroke-linejoin:round;paint-order:markers fill stroke"
       aria-label="Ts" /></g></svg>
