<?xml version="1.0" encoding="UTF-8" standalone="no"?>
<!-- Created with Inkscape (http://www.inkscape.org/) -->

<svg
   width="500"
   height="500"
   viewBox="0 0 500 500"
   version="1.1"
   id="svg1"
   inkscape:version="1.3.2 (091e20ef0f, 2023-11-25, custom)"
   sodipodi:docname="debug.svg"
   xml:space="preserve"
   xmlns:inkscape="http://www.inkscape.org/namespaces/inkscape"
   xmlns:sodipodi="http://sodipodi.sourceforge.net/DTD/sodipodi-0.dtd"
   xmlns="http://www.w3.org/2000/svg"
   xmlns:svg="http://www.w3.org/2000/svg"><sodipodi:namedview
     id="namedview1"
     pagecolor="#505050"
     bordercolor="#eeeeee"
     borderopacity="1"
     inkscape:showpageshadow="0"
     inkscape:pageopacity="0"
     inkscape:pagecheckerboard="0"
     inkscape:deskcolor="#505050"
     inkscape:document-units="px"
     inkscape:zoom="0.70710678"
     inkscape:cx="-16.970563"
     inkscape:cy="300.52038"
     inkscape:window-width="1362"
     inkscape:window-height="744"
     inkscape:window-x="0"
     inkscape:window-y="20"
     inkscape:window-maximized="0"
     inkscape:current-layer="layer1"
     showguides="true"><sodipodi:guide
       position="250.02518,350.60736"
       orientation="-0.99997769,0.0066803918"
       id="guide30"
       inkscape:locked="false" /><sodipodi:guide
       position="66.396728,247.89992"
       orientation="0,-1"
       id="guide53"
       inkscape:locked="false" /></sodipodi:namedview><defs
     id="defs1"><linearGradient
       id="swatch13"
       inkscape:swatch="solid"><stop
         style="stop-color:#ff405c;stop-opacity:1;"
         offset="0"
         id="stop13" /></linearGradient><linearGradient
       id="swatch61"
       inkscape:swatch="solid"><stop
         style="stop-color:#5090d0;stop-opacity:1;"
         offset="0"
         id="stop61" /></linearGradient><linearGradient
       id="swatch30"
       inkscape:swatch="solid"><stop
         style="stop-color:#f9f9f9;stop-opacity:1;"
         offset="0"
         id="stop30" /></linearGradient><inkscape:perspective
       sodipodi:type="inkscape:persp3d"
       inkscape:vp_x="44.06818 : 315.96746 : 1"
       inkscape:vp_y="0 : 1000 : 0"
       inkscape:vp_z="480.74134 : 298.68846 : 1"
       inkscape:persp3d-origin="250 : 166.66667 : 1"
       id="perspective17" /><inkscape:perspective
       sodipodi:type="inkscape:persp3d"
       inkscape:vp_x="44.06818 : 315.96746 : 1"
       inkscape:vp_y="0 : 1000 : 0"
       inkscape:vp_z="480.74134 : 298.68846 : 1"
       inkscape:persp3d-origin="250 : 166.66667 : 1"
       id="perspective17-9" /><inkscape:perspective
       sodipodi:type="inkscape:persp3d"
       inkscape:vp_x="44.06818 : 315.96746 : 1"
       inkscape:vp_y="0 : 1000 : 0"
       inkscape:vp_z="480.74134 : 298.68846 : 1"
       inkscape:persp3d-origin="250 : 166.66667 : 1"
       id="perspective17-1" /><inkscape:perspective
       sodipodi:type="inkscape:persp3d"
       inkscape:vp_x="44.06818 : 315.96746 : 1"
       inkscape:vp_y="0 : 1000 : 0"
       inkscape:vp_z="480.74134 : 298.68846 : 1"
       inkscape:persp3d-origin="250 : 166.66667 : 1"
       id="perspective17-8" /></defs><g
     inkscape:label="Layer 1"
     inkscape:groupmode="layer"
     id="layer1"><path
       id="rect53-0"
       style="display:inline;opacity:0.29443409;fill:#ff2b2b;fill-opacity:0.3137255;fill-rule:nonzero;stroke:#ff2b2b;stroke-width:22.0622;stroke-linecap:butt;stroke-linejoin:round;stroke-dasharray:none;stroke-opacity:1;paint-order:markers fill stroke"
       d="m 462.68749,104.21979 c 0,-1.64895 -0.59137,-3.17324 -1.54688,-4.517583 v -48.26953 c 0,-5.97292 -5.36366,-10.78125 -12.02538,-10.78125 H 307.18359 c -6.66173,0 -12.02344,4.80833 -12.02344,10.78125 v 43.39063 H 51.087889 c -6.7206,0 -12.13086,4.19106 -12.13086,9.396483 v 341.68359 c 0,5.20542 5.41026,9.39453 12.13086,9.39453 H 450.55663 c 6.7206,0 12.13086,-4.18911 12.13086,-9.39453 z"
       transform="translate(6.1505861,-0.71032545)" /><path
       style="display:inline;fill:none;stroke:#ff2b2b;stroke-width:50;stroke-linecap:round;stroke-linejoin:bevel;stroke-opacity:1;paint-order:markers fill stroke"
       d="M 43.979119,450.13181 V 98.591456"
       id="path1"
       transform="translate(6.1505861,-0.71032545)" /><path
       id="path8"
       style="color:#000000;fill:#ff2b2b;fill-opacity:1;stroke-width:1.22077;stroke-linecap:round;stroke-miterlimit:10;-inkscape-stroke:none"
       d="m 306.37832,32.752677 a 86.692653,56.607804 0 0 0 -86.69149,56.606151 86.692653,56.607804 0 0 0 7.10528,22.159862 l 31.11776,10e-6 48.39932,27.94185 44.77039,-25.84605 33.24217,2e-5 A 86.692653,56.607804 0 0 0 393.07223,89.358828 86.692653,56.607804 0 0 0 306.37832,32.752677 Z M 225.52604,133.66904 a 124.13478,177.74688 0 0 0 -14.42515,20.49084 l -10.29786,-5.94651 -20.18328,-11.65216 H 135.6324 a 23.526715,23.526715 0 0 0 -23.52847,23.52609 23.526715,23.526715 0 0 0 23.52847,23.52609 l 32.37906,-1e-5 24.25568,14.0055 a 124.13478,177.74688 0 0 0 -9.26546,48.41838 l -32.97037,1e-5 a 23.408669,23.408669 0 0 0 -23.40926,23.40925 23.408669,23.408669 0 0 0 23.40926,23.40688 h 33.10151 a 124.13478,177.74688 0 0 0 16.71169,66.75143 l -58.72342,58.7258 a 23.526715,23.526715 0 0 0 0,33.2708 23.526715,23.526715 0 0 0 33.27082,0 l 49.85375,-49.85374 a 124.13478,177.74688 0 0 0 81.78695,44.12422 124.13478,177.74688 0 0 0 81.5509,-43.80234 l 48.19425,48.19425 a 23.526715,23.526715 0 0 0 33.27082,0 23.526715,23.526715 0 0 0 0,-33.27079 l -56.83266,-56.83266 a 124.13478,177.74688 0 0 0 16.726,-67.30697 h 32.45775 a 23.408669,23.408669 0 0 0 23.40927,-23.40689 23.408669,23.408669 0 0 0 -23.40925,-23.40924 h -32.29802 a 124.13478,177.74688 0 0 0 -12.27449,-57.17123 l 3.06148,-1.76679 h 54.82505 a 23.526715,23.526715 0 0 0 23.52848,-23.52607 23.526715,23.526715 0 0 0 -23.52846,-23.5261 h -67.43336 l -11.15384,6.44005 a 124.13478,177.74688 0 0 0 -7.66321,-10.72942 11.074842,11.074842 0 0 1 -0.12398,0.007 h -31.32519 l -50.70496,29.27228 -54.33389,-31.36811 z" /></g></svg>
