<?xml version="1.0" encoding="UTF-8" standalone="no"?>
<!-- Created with Inkscape (http://www.inkscape.org/) -->

<svg
   width="500"
   height="500"
   viewBox="0 0 500 500"
   version="1.1"
   id="svg1"
   inkscape:version="1.3.2 (091e20ef0f, 2023-11-25, custom)"
   sodipodi:docname="deno.svg.2024_01_28_11_58_24.0.svg"
   xml:space="preserve"
   xmlns:inkscape="http://www.inkscape.org/namespaces/inkscape"
   xmlns:sodipodi="http://sodipodi.sourceforge.net/DTD/sodipodi-0.dtd"
   xmlns="http://www.w3.org/2000/svg"
   xmlns:svg="http://www.w3.org/2000/svg"><sodipodi:namedview
     id="namedview1"
     pagecolor="#505050"
     bordercolor="#eeeeee"
     borderopacity="1"
     inkscape:showpageshadow="0"
     inkscape:pageopacity="0"
     inkscape:pagecheckerboard="0"
     inkscape:deskcolor="#505050"
     inkscape:document-units="px"
     inkscape:zoom="0.70710678"
     inkscape:cx="152.73506"
     inkscape:cy="256.67976"
     inkscape:window-width="1362"
     inkscape:window-height="744"
     inkscape:window-x="0"
     inkscape:window-y="20"
     inkscape:window-maximized="1"
     inkscape:current-layer="layer1"
     showguides="true"><sodipodi:guide
       position="248.81537,223.20239"
       orientation="-0.99997769,0.0066803918"
       id="guide30"
       inkscape:locked="false" /><sodipodi:guide
       position="96.959247,117.65127"
       orientation="1,0"
       id="guide6"
       inkscape:locked="false" /><sodipodi:guide
       position="400.64293,118.56598"
       orientation="1,0"
       id="guide7"
       inkscape:locked="false" /></sodipodi:namedview><defs
     id="defs1"><inkscape:path-effect
       effect="tiling"
       id="path-effect3"
       is_visible="true"
       lpeversion="1"
       unit="px"
       seed="1;2840577889"
       lpesatellites=""
       num_rows="8"
       num_cols="15"
       gapx="1.7893533"
       gapy="8"
       offset="0"
       offset_type="false"
       scale="-301"
       rotate="19"
       mirrorrowsx="false"
       mirrorrowsy="false"
       mirrorcolsx="false"
       mirrorcolsy="false"
       mirrortrans="false"
       shrink_interp="false"
       split_items="false"
       link_styles="false"
       interpolate_scalex="false"
       interpolate_scaley="false"
       interpolate_rotatex="false"
       interpolate_rotatey="false"
       random_scale="true"
       random_rotate="true"
       random_gap_y="true"
       random_gap_x="true"
       transformorigin="" /><linearGradient
       id="swatch61"
       inkscape:swatch="solid"><stop
         style="stop-color:#5090d0;stop-opacity:1;"
         offset="0"
         id="stop61" /></linearGradient><linearGradient
       id="swatch30"
       inkscape:swatch="solid"><stop
         style="stop-color:#f9f9f9;stop-opacity:1;"
         offset="0"
         id="stop30" /></linearGradient><inkscape:perspective
       sodipodi:type="inkscape:persp3d"
       inkscape:vp_x="44.06818 : 315.96746 : 1"
       inkscape:vp_y="0 : 1000 : 0"
       inkscape:vp_z="480.74134 : 298.68846 : 1"
       inkscape:persp3d-origin="250 : 166.66667 : 1"
       id="perspective17" /><inkscape:perspective
       sodipodi:type="inkscape:persp3d"
       inkscape:vp_x="44.06818 : 315.96746 : 1"
       inkscape:vp_y="0 : 1000 : 0"
       inkscape:vp_z="480.74134 : 298.68846 : 1"
       inkscape:persp3d-origin="250 : 166.66667 : 1"
       id="perspective17-2" /><inkscape:perspective
       sodipodi:type="inkscape:persp3d"
       inkscape:vp_x="44.06818 : 315.96746 : 1"
       inkscape:vp_y="0 : 1000 : 0"
       inkscape:vp_z="480.74134 : 298.68846 : 1"
       inkscape:persp3d-origin="250 : 166.66667 : 1"
       id="perspective17-0" /><inkscape:perspective
       sodipodi:type="inkscape:persp3d"
       inkscape:vp_x="44.06818 : 315.96746 : 1"
       inkscape:vp_y="0 : 1000 : 0"
       inkscape:vp_z="480.74134 : 298.68846 : 1"
       inkscape:persp3d-origin="250 : 166.66667 : 1"
       id="perspective17-7" /><inkscape:perspective
       sodipodi:type="inkscape:persp3d"
       inkscape:vp_x="44.06818 : 315.96746 : 1"
       inkscape:vp_y="0 : 1000 : 0"
       inkscape:vp_z="480.74134 : 298.68846 : 1"
       inkscape:persp3d-origin="250 : 166.66667 : 1"
       id="perspective17-1" /><inkscape:perspective
       sodipodi:type="inkscape:persp3d"
       inkscape:vp_x="44.06818 : 315.96746 : 1"
       inkscape:vp_y="0 : 1000 : 0"
       inkscape:vp_z="480.74134 : 298.68846 : 1"
       inkscape:persp3d-origin="250 : 166.66667 : 1"
       id="perspective17-2-2" /><inkscape:perspective
       sodipodi:type="inkscape:persp3d"
       inkscape:vp_x="44.06818 : 315.96746 : 1"
       inkscape:vp_y="0 : 1000 : 0"
       inkscape:vp_z="480.74134 : 298.68846 : 1"
       inkscape:persp3d-origin="250 : 166.66667 : 1"
       id="perspective17-0-9" /><inkscape:perspective
       sodipodi:type="inkscape:persp3d"
       inkscape:vp_x="44.06818 : 315.96746 : 1"
       inkscape:vp_y="0 : 1000 : 0"
       inkscape:vp_z="480.74134 : 298.68846 : 1"
       inkscape:persp3d-origin="250 : 166.66667 : 1"
       id="perspective17-12" /><inkscape:perspective
       sodipodi:type="inkscape:persp3d"
       inkscape:vp_x="44.06818 : 315.96746 : 1"
       inkscape:vp_y="0 : 1000 : 0"
       inkscape:vp_z="480.74134 : 298.68846 : 1"
       inkscape:persp3d-origin="250 : 166.66667 : 1"
       id="perspective17-5" /><inkscape:perspective
       sodipodi:type="inkscape:persp3d"
       inkscape:vp_x="44.06818 : 315.96746 : 1"
       inkscape:vp_y="0 : 1000 : 0"
       inkscape:vp_z="480.74134 : 298.68846 : 1"
       inkscape:persp3d-origin="250 : 166.66667 : 1"
       id="perspective17-2-9" /></defs><g
     inkscape:label="Layer 1"
     inkscape:groupmode="layer"
     id="layer1"><circle
       style="opacity:1;fill:#212121;fill-opacity:1;stroke-width:28.1776;stroke-linecap:round;stroke-miterlimit:10"
       id="path2"
       cx="249.81793"
       cy="252.08684"
       r="227.50185" /><path
       id="path1"
       style="display:inline;opacity:1;fill:#ffffff;fill-opacity:1;stroke-width:24.9832;stroke-linecap:round;stroke-miterlimit:10"
       d="M 258.96094 50.611328 L 277.07031 83.945312 L 285.32227 79.460938 L 270.0918 51.419922 C 266.39005 51.04766 262.67761 50.778299 258.96094 50.611328 z M 233.11133 51.580078 C 229.07 51.752197 225.03537 52.044205 221.01172 52.458984 L 247.14062 80.060547 L 253.96094 73.603516 L 233.11133 51.580078 z M 300.90625 57.005859 L 307.20117 67.650391 L 315.28711 62.873047 L 314.17383 60.988281 C 309.79841 59.509227 305.37285 58.181121 300.90625 57.005859 z M 199.31836 57.179688 C 196.2478 57.918125 193.19461 58.729535 190.16211 59.611328 L 199.29688 81.746094 L 207.97656 78.160156 L 199.31836 57.179688 z M 227.20312 66.107422 L 219.69922 71.757812 L 242.50391 102.05078 C 246.13367 101.58106 249.77046 101.19659 253.41406 100.92773 L 227.20312 66.107422 z M 349.9375 77.056641 L 342.77539 81.03125 L 374.24609 137.73242 C 376.04298 139.50837 377.78666 141.36658 379.45117 143.35352 C 387.41768 152.8632 392.84915 164.03676 396.62109 176.83008 L 404.31836 172.55664 L 351.94141 78.191406 C 351.27522 77.809079 350.60803 77.431334 349.9375 77.056641 z M 175.04297 77.203125 L 166.7207 81.558594 L 185.73242 117.89258 C 188.61336 116.62786 191.51666 115.4203 194.44727 114.28711 L 175.04297 77.203125 z M 146.04883 79.519531 C 143.34048 81.100113 140.66882 82.744088 138.03711 84.449219 L 146.58789 96.847656 L 139.83594 100.06445 L 155.95312 133.90625 C 158.5992 132.19289 161.27649 130.53171 163.99414 128.94141 L 153.43164 106.76562 L 156.61523 111.38281 L 164.34766 106.04883 L 146.04883 79.519531 z M 222.03906 99.707031 L 213.7168 104.0625 L 215.47656 107.42578 C 218.59414 106.58516 221.72684 105.82175 224.875 105.12891 L 222.03906 99.707031 z M 329.34766 103.4707 L 321.61719 108.80664 L 321.83008 109.11523 L 324.96289 110.00586 L 324.96484 110.00586 C 329.15759 111.50852 333.15758 113.12359 337.13672 114.76367 L 329.34766 103.4707 z M 387.77344 105.01758 L 387.27734 105.39648 L 424.13281 153.43945 L 425.21289 152.60938 C 415.1989 134.95181 402.57714 118.90713 387.77344 105.01758 z M 121.13281 122.54102 L 113.9082 128.54102 L 117.74805 133.16211 L 124.97266 127.16211 L 121.13281 122.54102 z M 89.912109 129.97852 C 87.379374 133.15731 84.943498 136.41228 82.607422 139.73828 L 88.212891 149.05859 L 93.330078 160.39844 L 94.671875 159.79297 L 106.51172 179.4707 C 108.5296 176.804 110.62112 174.20403 112.77539 171.66016 L 96.554688 144.70312 L 89.912109 129.97852 z M 421.81445 154.46094 L 414.08203 159.79492 L 446.2168 206.38086 C 443.79577 195.92401 440.54388 185.67763 436.49219 175.73828 L 421.81445 154.46094 z M 82.826172 183.83398 L 75.632812 189.87305 L 85.521484 201.6543 L 92.714844 195.61523 L 82.826172 183.83398 z M 413.57227 186.91797 L 405.23242 191.24023 L 407.99609 196.57422 L 416.33594 192.25195 L 413.57227 186.91797 z M 54.302734 204.37695 C 52.745972 210.24594 51.45479 216.18251 50.433594 222.16797 L 59.796875 249.6875 L 64.755859 248 L 73.474609 259.15625 C 74.019851 254.913 74.73559 250.73632 75.597656 246.61914 L 66.658203 235.18359 L 65.177734 236.33984 L 54.302734 204.37695 z M 404.41602 239.23047 C 404.5376 243.17458 404.65573 247.13899 404.71094 251.35742 L 409.57031 248.71875 L 404.41602 239.23047 z M 404.79492 254.8125 C 404.83916 259.89219 404.7746 265.58748 404.73828 271.08594 L 419.64844 292.34766 L 415.49805 295.04688 L 436.48438 327.31641 C 437.951 323.70722 439.31319 320.05524 440.56836 316.36719 L 427.10742 295.67188 L 431.35938 292.68945 L 404.79492 254.8125 z M 447.63672 260.4707 L 439.29688 264.79492 L 444.76953 275.34961 L 450.05273 272.60938 C 450.24503 270.42171 450.40072 268.23184 450.52148 266.03906 L 447.63672 260.4707 z M 123.71484 261.39648 C 122.93979 266.04995 122.45072 270.82225 122.26562 275.71484 L 126.75781 282.13672 C 126.06938 277.79493 125.72924 273.34191 125.80664 268.8418 C 125.83074 267.43904 125.93716 266.06342 126.00781 264.67578 L 123.71484 261.39648 z M 404.0293 311.35742 C 403.83686 318.38955 403.55279 327.03242 403.30664 334.66406 L 415.92188 365.91602 C 418.09148 362.76065 420.16977 359.5433 422.15625 356.26953 L 404.0293 311.35742 z M 84.205078 327.12109 L 76.035156 331.75391 L 83.578125 345.06055 L 91.748047 340.42969 L 84.205078 327.12109 z M 226.47461 330.01172 C 223.69996 331.53184 220.90699 333.02059 218.02539 334.4707 L 230.75781 350.54492 C 231.20572 346.24809 231.73762 341.02752 232.14648 337.17188 L 226.47461 330.01172 z M 201.85352 341.86328 C 198.79142 343.14017 195.73306 344.40518 192.59961 345.55078 L 205.0957 359.82422 L 212.16406 353.63672 L 201.85352 341.86328 z M 170.64844 352.24805 C 167.22207 353.07677 163.76183 353.76083 160.2832 354.34961 L 171.48047 368.26172 L 178.79688 362.37305 L 170.64844 352.24805 z M 204.31055 362.42578 L 196.4375 367.54688 L 224.52148 410.72656 C 225.02621 405.79962 225.56407 400.65569 226.05469 395.85938 L 204.31055 362.42578 z M 96.408203 365.00391 L 88.621094 370.25586 L 99.310547 386.10156 C 108.15587 395.86392 117.93629 404.73662 128.51172 412.5918 L 96.408203 365.00391 z M 192.96094 399.3125 L 185.28516 404.72656 L 191.1543 413.04688 L 198.82812 407.63477 L 192.96094 399.3125 z M 160.00781 407.90625 L 152.06836 412.92383 L 153.91211 415.8418 L 161.85156 410.82422 L 160.00781 407.90625 z " /><path
       id="path3"
       style="display:inline;opacity:1;fill:#ffffff;fill-opacity:1;stroke-width:35.2571;stroke-linecap:round;stroke-miterlimit:10"
       d="M 264.43359 125.39648 C 184.09292 126.98619 98.675709 187.81455 97.130859 277.62695 C 95.265311 386.08651 246.89788 299.39906 261.06836 271.77734 C 265.94027 260.88895 267.83725 249.93247 267.10938 239.84961 C 266.77593 235.21456 270.26356 231.18718 274.89844 230.85156 C 279.53445 230.51661 283.56283 234.00271 283.89844 238.63867 C 285.42227 259.74724 261.48242 298.81377 261.48242 302.31445 C 260.17496 305.29024 252.47597 384.18088 244.78125 457.95703 A 206.22978 206.22978 0 0 0 249.81836 458.31641 A 206.22978 206.22978 0 0 0 375.54102 414.92773 C 383.12559 185.23696 388.44136 159.31166 316.5293 133.53906 C 302.45365 128.49445 287.46701 125.8604 272.18945 125.42773 C 269.61138 125.35453 267.02522 125.34714 264.43359 125.39844 L 264.43359 125.39648 z M 191.58984 176.24414 C 214.78683 176.24438 233.59157 195.04911 233.5918 218.24609 C 233.5928 241.44409 214.78785 260.24976 191.58984 260.25 C 168.39186 260.24976 149.58669 241.44409 149.58789 218.24609 C 149.58813 195.04911 168.39288 176.24438 191.58984 176.24414 z " /></g></svg>
