<?xml version="1.0" encoding="UTF-8" standalone="no"?>
<!-- Created with Inkscape (http://www.inkscape.org/) -->

<svg
   width="500"
   height="500"
   viewBox="0 0 500 500"
   version="1.1"
   id="svg1"
   inkscape:version="1.3.2 (091e20ef0f, 2023-11-25, custom)"
   sodipodi:docname="doc.svg"
   xml:space="preserve"
   xmlns:inkscape="http://www.inkscape.org/namespaces/inkscape"
   xmlns:sodipodi="http://sodipodi.sourceforge.net/DTD/sodipodi-0.dtd"
   xmlns:xlink="http://www.w3.org/1999/xlink"
   xmlns="http://www.w3.org/2000/svg"
   xmlns:svg="http://www.w3.org/2000/svg"><sodipodi:namedview
     id="namedview1"
     pagecolor="#505050"
     bordercolor="#eeeeee"
     borderopacity="1"
     inkscape:showpageshadow="0"
     inkscape:pageopacity="0"
     inkscape:pagecheckerboard="0"
     inkscape:deskcolor="#505050"
     inkscape:document-units="px"
     inkscape:zoom="0.68158229"
     inkscape:cx="247.21886"
     inkscape:cy="207.60516"
     inkscape:window-width="1362"
     inkscape:window-height="744"
     inkscape:window-x="0"
     inkscape:window-y="20"
     inkscape:window-maximized="0"
     inkscape:current-layer="layer1"
     showguides="true"><sodipodi:guide
       position="250.02518,350.60736"
       orientation="-0.99997769,0.0066803918"
       id="guide30"
       inkscape:locked="false" /><sodipodi:guide
       position="66.396728,247.89992"
       orientation="0,-1"
       id="guide53"
       inkscape:locked="false" /></sodipodi:namedview><defs
     id="defs1"><linearGradient
       id="linearGradient8"
       inkscape:collect="always"><stop
         style="stop-color:#10089d;stop-opacity:1;"
         offset="0"
         id="stop7" /><stop
         style="stop-color:#ffffff;stop-opacity:1;"
         offset="0.69017166"
         id="stop8" /></linearGradient><linearGradient
       id="linearGradient3"
       inkscape:collect="always"><stop
         style="stop-color:#4b46f5;stop-opacity:1;"
         offset="0"
         id="stop3" /><stop
         style="stop-color:#9646f5;stop-opacity:1;"
         offset="1"
         id="stop4" /></linearGradient><linearGradient
       id="swatch13"
       inkscape:swatch="solid"><stop
         style="stop-color:#ff405c;stop-opacity:1;"
         offset="0"
         id="stop13" /></linearGradient><linearGradient
       id="swatch61"
       inkscape:swatch="solid"><stop
         style="stop-color:#5090d0;stop-opacity:1;"
         offset="0"
         id="stop61" /></linearGradient><linearGradient
       id="swatch30"
       inkscape:swatch="solid"><stop
         style="stop-color:#f9f9f9;stop-opacity:1;"
         offset="0"
         id="stop30" /></linearGradient><inkscape:perspective
       sodipodi:type="inkscape:persp3d"
       inkscape:vp_x="44.06818 : 315.96746 : 1"
       inkscape:vp_y="0 : 1000 : 0"
       inkscape:vp_z="480.74134 : 298.68846 : 1"
       inkscape:persp3d-origin="250 : 166.66667 : 1"
       id="perspective17" /><inkscape:perspective
       sodipodi:type="inkscape:persp3d"
       inkscape:vp_x="44.06818 : 315.96746 : 1"
       inkscape:vp_y="0 : 1000 : 0"
       inkscape:vp_z="480.74134 : 298.68846 : 1"
       inkscape:persp3d-origin="250 : 166.66667 : 1"
       id="perspective17-9" /><inkscape:perspective
       sodipodi:type="inkscape:persp3d"
       inkscape:vp_x="44.06818 : 315.96746 : 1"
       inkscape:vp_y="0 : 1000 : 0"
       inkscape:vp_z="480.74134 : 298.68846 : 1"
       inkscape:persp3d-origin="250 : 166.66667 : 1"
       id="perspective17-1" /><inkscape:perspective
       sodipodi:type="inkscape:persp3d"
       inkscape:vp_x="44.06818 : 315.96746 : 1"
       inkscape:vp_y="0 : 1000 : 0"
       inkscape:vp_z="480.74134 : 298.68846 : 1"
       inkscape:persp3d-origin="250 : 166.66667 : 1"
       id="perspective17-29" /><inkscape:perspective
       sodipodi:type="inkscape:persp3d"
       inkscape:vp_x="44.06818 : 315.96746 : 1"
       inkscape:vp_y="0 : 1000 : 0"
       inkscape:vp_z="480.74134 : 298.68846 : 1"
       inkscape:persp3d-origin="250 : 166.66667 : 1"
       id="perspective17-2" /><linearGradient
       inkscape:collect="always"
       xlink:href="#linearGradient3"
       id="linearGradient4"
       x1="60.065147"
       y1="31.122087"
       x2="492.18085"
       y2="468.59317"
       gradientUnits="userSpaceOnUse" /><linearGradient
       inkscape:collect="always"
       xlink:href="#linearGradient8"
       id="linearGradient7"
       x1="208.2726"
       y1="196.63075"
       x2="47.200329"
       y2="43.619961"
       gradientUnits="userSpaceOnUse" /></defs><g
     inkscape:label="Layer 1"
     inkscape:groupmode="layer"
     id="layer1"
     style="opacity:1"><path
       id="path4"
       style="opacity:1;color:#000000;fill:url(#linearGradient4);stroke-linejoin:bevel;stroke-miterlimit:10;-inkscape-stroke:none"
       d="M 36.769531 24.484375 L 25.816406 37.242188 C 26.19893 39.743076 26.784298 52.8162 26.919922 68.564453 C 27.055545 84.312706 26.965072 103.73817 26.783203 122.86719 C 26.419463 161.12522 25.689453 197.26728 25.689453 203.09375 L 36.769531 214.17383 L 79.861328 214.17383 L 79.861328 459.29688 L 90.941406 470.37695 L 451.41797 470.37695 L 462.49805 459.29688 L 462.49805 35.566406 L 451.41797 24.486328 L 36.769531 24.484375 z M 140.78711 238.75195 L 227.49805 238.75195 L 227.49805 263.64648 L 209.39648 263.64648 C 207.18697 263.64648 205.68729 263.80577 204.64062 263.96289 C 204.78562 264.78232 204.90854 265.77618 205.39844 267.41211 L 205.40039 267.41797 L 237.09375 366.01758 L 261.22266 286.14648 L 255.01172 267.51758 C 254.20713 265.1038 254.19849 265.22542 253.34961 264.80664 C 252.50245 264.38871 249.61881 263.7733 244.26172 263.64648 L 232.06836 263.64648 L 232.06836 238.75195 L 320.62109 238.75195 L 320.62109 263.64648 L 310.14648 263.64648 C 305.07044 263.64648 302.1504 263.72357 300.47266 263.88086 C 298.97214 264.02153 298.55678 264.177 297.62891 264.50977 C 297.56279 264.60387 297.51719 264.62346 297.49609 264.53906 C 297.48869 264.54206 297.48161 264.53997 297.47461 264.54297 C 297.46931 265.254 297.42723 264.99929 297.52734 265.41406 C 297.6342 265.85674 298.05099 267.17946 298.96094 269.7793 L 298.99414 269.87305 L 329.1582 365.61328 L 354.96289 278.30664 L 355.0293 278.125 C 355.72732 276.20545 356.23047 272.85582 356.23047 271.06055 C 356.23047 268.12763 355.80258 267.4225 353.66211 266.12695 C 351.52164 264.83141 346.88768 263.64648 339.87109 263.64648 L 331.50391 263.64648 L 331.50391 238.75195 L 408.48047 238.75195 L 408.48047 263.64648 L 401.33789 263.64648 C 394.72548 263.88417 391.59574 265.05365 388.81055 267.90625 C 386.01785 270.76651 383.29148 276.39805 380.63867 286.125 L 380.61914 286.19922 L 332.95898 445.1543 L 312.96484 445.1543 L 275.16797 329.19141 L 240.63477 445.1543 L 220.13086 445.1543 L 161.90625 269.67188 L 161.90625 269.66992 C 160.39132 265.25192 159.61127 264.3284 159.54297 264.2832 C 159.47469 264.23804 157.51028 263.64648 152.04883 263.64648 L 140.78711 263.64648 L 140.78711 238.75195 z M 297.4707 264.48438 C 297.4707 264.51151 297.47274 264.48692 297.47266 264.51172 L 297.48047 264.50781 C 297.47947 264.48469 297.4707 264.51766 297.4707 264.48438 z " /><path
       id="path2"
       style="color:#000000;opacity:0.51398563;mix-blend-mode:multiply;fill:url(#linearGradient7);fill-opacity:1;stroke:none;stroke-linejoin:bevel;stroke-miterlimit:10;stroke-opacity:1;-inkscape-stroke:none"
       d="M 36.769531,24.484375 25.689453,35.566406 V 203.09375 l 11.080078,11.08008 162.728519,0.002 11.08203,-11.08203 V 35.566406 L 199.49805,24.486328 Z" /><g
       id="text1"
       style="opacity:0.62917" /></g></svg>
