<?xml version="1.0" encoding="UTF-8" standalone="no"?>
<!-- Created with Inkscape (http://www.inkscape.org/) -->

<svg
   width="500"
   height="500"
   viewBox="0 0 500 500"
   version="1.1"
   id="svg1"
   inkscape:version="1.3.2 (091e20ef0f, 2023-11-25, custom)"
   sodipodi:docname="doc.svg"
   xml:space="preserve"
   xmlns:inkscape="http://www.inkscape.org/namespaces/inkscape"
   xmlns:sodipodi="http://sodipodi.sourceforge.net/DTD/sodipodi-0.dtd"
   xmlns="http://www.w3.org/2000/svg"
   xmlns:svg="http://www.w3.org/2000/svg"><sodipodi:namedview
     id="namedview1"
     pagecolor="#505050"
     bordercolor="#eeeeee"
     borderopacity="1"
     inkscape:showpageshadow="0"
     inkscape:pageopacity="0"
     inkscape:pagecheckerboard="0"
     inkscape:deskcolor="#505050"
     inkscape:document-units="px"
     inkscape:zoom="0.96390292"
     inkscape:cx="239.13197"
     inkscape:cy="247.43156"
     inkscape:window-width="1362"
     inkscape:window-height="744"
     inkscape:window-x="0"
     inkscape:window-y="20"
     inkscape:window-maximized="0"
     inkscape:current-layer="layer1"
     showguides="true"><sodipodi:guide
       position="250.02518,350.60736"
       orientation="-0.99997769,0.0066803918"
       id="guide30"
       inkscape:locked="false" /><sodipodi:guide
       position="66.396728,247.89992"
       orientation="0,-1"
       id="guide53"
       inkscape:locked="false" /></sodipodi:namedview><defs
     id="defs1"><linearGradient
       id="swatch13"
       inkscape:swatch="solid"><stop
         style="stop-color:#ff405c;stop-opacity:1;"
         offset="0"
         id="stop13" /></linearGradient><linearGradient
       id="swatch61"
       inkscape:swatch="solid"><stop
         style="stop-color:#5090d0;stop-opacity:1;"
         offset="0"
         id="stop61" /></linearGradient><linearGradient
       id="swatch30"
       inkscape:swatch="solid"><stop
         style="stop-color:#f9f9f9;stop-opacity:1;"
         offset="0"
         id="stop30" /></linearGradient><inkscape:perspective
       sodipodi:type="inkscape:persp3d"
       inkscape:vp_x="44.06818 : 315.96746 : 1"
       inkscape:vp_y="0 : 1000 : 0"
       inkscape:vp_z="480.74134 : 298.68846 : 1"
       inkscape:persp3d-origin="250 : 166.66667 : 1"
       id="perspective17" /><inkscape:perspective
       sodipodi:type="inkscape:persp3d"
       inkscape:vp_x="44.06818 : 315.96746 : 1"
       inkscape:vp_y="0 : 1000 : 0"
       inkscape:vp_z="480.74134 : 298.68846 : 1"
       inkscape:persp3d-origin="250 : 166.66667 : 1"
       id="perspective17-9" /><inkscape:perspective
       sodipodi:type="inkscape:persp3d"
       inkscape:vp_x="44.06818 : 315.96746 : 1"
       inkscape:vp_y="0 : 1000 : 0"
       inkscape:vp_z="480.74134 : 298.68846 : 1"
       inkscape:persp3d-origin="250 : 166.66667 : 1"
       id="perspective17-1" /></defs><g
     inkscape:label="Layer 1"
     inkscape:groupmode="layer"
     id="layer1"><path
       id="rect53-0"
       style="fill:#4b46f5;fill-opacity:0.1254902;fill-rule:nonzero;stroke:#4b46f5;stroke-width:22.0622;stroke-linecap:butt;stroke-linejoin:round;stroke-dasharray:none;stroke-opacity:1;paint-order:markers fill stroke"
       d="m 103.49596,41.001947 c -1.64895,0 -3.17324,0.59137 -4.517582,1.54687 h -48.26953 c -5.972918,0 -10.78125,5.36367 -10.78125,12.02539 V 196.50585 c 0,6.66173 4.808332,12.02344 10.78125,12.02344 h 43.39062 v 244.07226 c 0,6.7206 4.19107,12.13086 9.396492,12.13086 h 341.68359 c 5.20542,0 9.39453,-5.41026 9.39453,-12.13086 V 53.132807 c 0,-6.7206 -4.18911,-12.13086 -9.39453,-12.13086 z" /><path
       style="font-weight:bold;font-size:168.173px;line-height:0;font-family:'FiraCode Nerd Font Mono';-inkscape-font-specification:'FiraCode Nerd Font Mono Bold';letter-spacing:0px;word-spacing:0px;fill:#4b46f5;stroke-width:30.3847;stroke-linecap:round;stroke-miterlimit:10"
       d="m 190.49783,167.70503 27.25265,2.84601 V 298.535 h -24.14792 l -1.37988,-10.09038 q -3.79467,5.34704 -10.09038,9.22796 -6.29571,3.79467 -15.26494,3.79467 -11.38401,0 -18.88712,-6.12322 -7.41686,-6.12322 -11.12529,-17.07603 -3.62219,-11.03905 -3.62219,-25.78653 0,-14.14378 4.39837,-25.09658 4.39838,-10.95281 12.59142,-17.16227 8.19304,-6.29571 19.49082,-6.29571 12.33269,0 20.78446,8.45177 z m -13.45384,56.14391 q -7.07189,0 -11.38402,6.72692 -4.31213,6.64068 -4.31213,22.0781 0,11.29777 1.81109,17.59348 1.8111,6.20947 5.00207,8.7105 3.19098,2.50104 7.33062,2.50104 4.57086,0 8.27929,-2.84601 3.79467,-2.846 6.72692,-7.76183 v -39.4991 q -2.84601,-3.53594 -6.03698,-5.51952 -3.19098,-1.98358 -7.41686,-1.98358 z m 104.52606,-19.92203 q 14.14378,0 24.06167,6.03698 9.9179,6.03698 15.1787,16.98978 5.26079,10.86657 5.26079,25.5278 0,22.94053 -11.72899,35.96315 -11.72899,13.02263 -32.77217,13.02263 -21.04319,0 -32.77218,-12.85014 -11.72899,-12.85014 -11.72899,-35.96315 0,-14.575 5.2608,-25.5278 5.34704,-10.95281 15.26493,-17.07603 10.00414,-6.12322 23.97544,-6.12322 z m 0,20.09452 q -8.36553,0 -12.41893,6.8994 -3.96716,6.81316 -3.96716,21.73313 0,15.17869 3.96716,21.99185 4.0534,6.81317 12.41893,6.81317 8.36553,0 12.33269,-6.81317 4.0534,-6.81316 4.0534,-22.16434 0,-14.83372 -4.0534,-21.64688 -3.96716,-6.81316 -12.33269,-6.81316 z m 112.37413,55.97142 q 5.60577,0 10.5216,-2.15606 5.00206,-2.24231 9.91789,-5.69201 l 12.1602,17.24851 q -6.03698,5.17456 -14.74748,8.62426 -8.62425,3.4497 -19.31833,3.4497 -14.74748,0 -25.35532,-6.03698 -10.60783,-6.12322 -16.29984,-16.90354 -5.69201,-10.86657 -5.69201,-25.18283 0,-14.31627 5.77825,-25.44156 5.8645,-11.21153 16.55857,-17.59348 10.78033,-6.38195 25.5278,-6.38195 10.43535,0 18.54216,2.93225 8.19304,2.846 15.0062,8.53801 l -11.81523,16.38609 q -4.6571,-3.27722 -9.83165,-5.08831 -5.17456,-1.8111 -10.78032,-1.8111 -9.22796,0 -14.91997,6.55444 -5.60576,6.46819 -5.60576,21.90561 0,10.09038 2.67352,15.95487 2.67352,5.77826 7.24437,8.27929 4.6571,2.41479 10.43535,2.41479 z"
       id="text6"
       aria-label="doc" /></g></svg>
