<?xml version="1.0" encoding="UTF-8" standalone="no"?>
<!-- Created with Inkscape (http://www.inkscape.org/) -->

<svg
   width="500"
   height="500"
   viewBox="0 0 500 500"
   version="1.1"
   id="svg1"
   inkscape:version="1.3.2 (091e20ef0f, 2023-11-25, custom)"
   sodipodi:docname="docker.svg"
   xml:space="preserve"
   xmlns:inkscape="http://www.inkscape.org/namespaces/inkscape"
   xmlns:sodipodi="http://sodipodi.sourceforge.net/DTD/sodipodi-0.dtd"
   xmlns:xlink="http://www.w3.org/1999/xlink"
   xmlns="http://www.w3.org/2000/svg"
   xmlns:svg="http://www.w3.org/2000/svg"><sodipodi:namedview
     id="namedview1"
     pagecolor="#505050"
     bordercolor="#eeeeee"
     borderopacity="1"
     inkscape:showpageshadow="0"
     inkscape:pageopacity="0"
     inkscape:pagecheckerboard="0"
     inkscape:deskcolor="#505050"
     inkscape:document-units="px"
     inkscape:zoom="0.70710678"
     inkscape:cx="252.43712"
     inkscape:cy="324.56201"
     inkscape:window-width="1362"
     inkscape:window-height="744"
     inkscape:window-x="0"
     inkscape:window-y="20"
     inkscape:window-maximized="1"
     inkscape:current-layer="layer1"
     showguides="true"><sodipodi:guide
       position="250.02518,350.60736"
       orientation="-0.99997769,0.0066803918"
       id="guide30"
       inkscape:locked="false" /><sodipodi:guide
       position="66.396728,247.89992"
       orientation="0,-1"
       id="guide53"
       inkscape:locked="false" /><sodipodi:guide
       position="221.35979,127.71308"
       orientation="0,-1"
       id="guide5"
       inkscape:locked="false" /><sodipodi:guide
       position="96.959247,117.65127"
       orientation="1,0"
       id="guide6"
       inkscape:locked="false" /><sodipodi:guide
       position="400.64293,118.56598"
       orientation="1,0"
       id="guide7"
       inkscape:locked="false" /></sodipodi:namedview><defs
     id="defs1"><linearGradient
       id="swatch61"
       inkscape:swatch="solid"><stop
         style="stop-color:#5090d0;stop-opacity:1;"
         offset="0"
         id="stop61" /></linearGradient><linearGradient
       id="swatch30"
       inkscape:swatch="solid"><stop
         style="stop-color:#f9f9f9;stop-opacity:1;"
         offset="0"
         id="stop30" /></linearGradient><inkscape:perspective
       sodipodi:type="inkscape:persp3d"
       inkscape:vp_x="44.06818 : 315.96746 : 1"
       inkscape:vp_y="0 : 1000 : 0"
       inkscape:vp_z="480.74134 : 298.68846 : 1"
       inkscape:persp3d-origin="250 : 166.66667 : 1"
       id="perspective17" /><inkscape:perspective
       sodipodi:type="inkscape:persp3d"
       inkscape:vp_x="44.06818 : 315.96746 : 1"
       inkscape:vp_y="0 : 1000 : 0"
       inkscape:vp_z="480.74134 : 298.68846 : 1"
       inkscape:persp3d-origin="250 : 166.66667 : 1"
       id="perspective17-2" /><inkscape:perspective
       sodipodi:type="inkscape:persp3d"
       inkscape:vp_x="44.06818 : 315.96746 : 1"
       inkscape:vp_y="0 : 1000 : 0"
       inkscape:vp_z="480.74134 : 298.68846 : 1"
       inkscape:persp3d-origin="250 : 166.66667 : 1"
       id="perspective17-0" /></defs><g
     inkscape:label="Layer 1"
     inkscape:groupmode="layer"
     id="layer1"><path
       id="path1"
       style="fill:#40aefc;fill-opacity:1;stroke:none;stroke-width:50;stroke-linejoin:bevel;stroke-opacity:1;paint-order:markers fill stroke"
       d="M 432.02539 140.74219 C 412.4686 149.64029 394.78324 163.65748 389.06445 181.91406 C 383.34568 200.17063 381.78512 214.82218 388.84766 237.04883 L 379.11133 251.70898 L 20.296875 251.70898 C -2.7226936 324.81397 23.653853 390.3575 78.507812 421.29883 C 103.70115 413.61368 129.59227 403.61038 142.19727 392.29102 C 171.10313 366.33333 190.49609 325.72852 190.49609 325.72852 C 190.49609 325.72852 212.04166 387.98588 151.55469 440.08203 C 175.24416 440.39549 201.07303 436.06199 228.36523 426.11328 C 372.07557 373.72718 411.56836 270.73047 411.56836 270.73047 C 438.88633 300.73176 475.10421 284.03493 496.60352 252.60156 C 473.80775 244.10114 459.05628 211.93687 425.91016 231.67969 C 448.36878 206.70911 447.22611 201.49542 448.34766 188.06055 C 449.46922 174.62565 443.03942 159.69732 432.02539 140.74219 z M 91.246094 270.05078 A 50.138462 50.138462 0 0 1 141.38477 320.18945 A 50.138462 50.138462 0 0 1 91.246094 370.32617 A 50.138462 50.138462 0 0 1 41.107422 320.18945 A 50.138462 50.138462 0 0 1 91.246094 270.05078 z " /><rect
       style="fill:#40aefc;fill-opacity:1;stroke:none;stroke-width:50;stroke-linejoin:bevel;stroke-opacity:1;paint-order:markers fill stroke"
       id="rect2"
       width="48.820251"
       height="48.820251"
       x="69.415558"
       y="188.56326" /><use
       x="0"
       y="0"
       xlink:href="#rect2"
       id="use2"
       transform="translate(59.857483)" /><use
       x="0"
       y="0"
       xlink:href="#use2"
       id="use3"
       transform="translate(60.350861)" /><use
       x="0"
       y="0"
       xlink:href="#use3"
       id="use4"
       transform="translate(58.948242)" /><use
       x="0"
       y="0"
       xlink:href="#use4"
       id="use5"
       transform="translate(60.874146)" /><use
       x="0"
       y="0"
       xlink:href="#use2"
       id="use6"
       transform="translate(0,-64.529816)" /><use
       x="0"
       y="0"
       xlink:href="#use3"
       id="use7"
       transform="translate(0,-64.529816)" /><use
       x="0"
       y="0"
       xlink:href="#use4"
       id="use8"
       transform="translate(0,-64.529816)" /><use
       x="0"
       y="0"
       xlink:href="#use8"
       id="use9"
       transform="translate(0,-65.562302)" /></g></svg>
