<?xml version="1.0" encoding="UTF-8" standalone="no"?>
<!-- Created with Inkscape (http://www.inkscape.org/) -->

<svg
   width="500"
   height="500"
   viewBox="0 0 500 500"
   version="1.1"
   id="svg1"
   inkscape:version="1.3.2 (091e20ef0f, 2023-11-25, custom)"
   sodipodi:docname="docker.1.svg"
   xml:space="preserve"
   xmlns:inkscape="http://www.inkscape.org/namespaces/inkscape"
   xmlns:sodipodi="http://sodipodi.sourceforge.net/DTD/sodipodi-0.dtd"
   xmlns="http://www.w3.org/2000/svg"
   xmlns:svg="http://www.w3.org/2000/svg"><sodipodi:namedview
     id="namedview1"
     pagecolor="#505050"
     bordercolor="#eeeeee"
     borderopacity="1"
     inkscape:showpageshadow="0"
     inkscape:pageopacity="0"
     inkscape:pagecheckerboard="0"
     inkscape:deskcolor="#505050"
     inkscape:document-units="px"
     inkscape:zoom="1"
     inkscape:cx="250.5"
     inkscape:cy="257.5"
     inkscape:window-width="1362"
     inkscape:window-height="744"
     inkscape:window-x="0"
     inkscape:window-y="20"
     inkscape:window-maximized="1"
     inkscape:current-layer="layer1"
     showguides="true"><sodipodi:guide
       position="250.02518,350.60736"
       orientation="-0.99997769,0.0066803918"
       id="guide30"
       inkscape:locked="false" /><sodipodi:guide
       position="66.396728,247.89992"
       orientation="0,-1"
       id="guide53"
       inkscape:locked="false" /><sodipodi:guide
       position="221.35979,127.71308"
       orientation="0,-1"
       id="guide5"
       inkscape:locked="false" /><sodipodi:guide
       position="96.959247,117.65127"
       orientation="1,0"
       id="guide6"
       inkscape:locked="false" /><sodipodi:guide
       position="400.64293,118.56598"
       orientation="1,0"
       id="guide7"
       inkscape:locked="false" /></sodipodi:namedview><defs
     id="defs1"><linearGradient
       id="swatch61"
       inkscape:swatch="solid"><stop
         style="stop-color:#5090d0;stop-opacity:1;"
         offset="0"
         id="stop61" /></linearGradient><linearGradient
       id="swatch30"
       inkscape:swatch="solid"><stop
         style="stop-color:#f9f9f9;stop-opacity:1;"
         offset="0"
         id="stop30" /></linearGradient><inkscape:perspective
       sodipodi:type="inkscape:persp3d"
       inkscape:vp_x="44.06818 : 315.96746 : 1"
       inkscape:vp_y="0 : 1000 : 0"
       inkscape:vp_z="480.74134 : 298.68846 : 1"
       inkscape:persp3d-origin="250 : 166.66667 : 1"
       id="perspective17" /><inkscape:perspective
       sodipodi:type="inkscape:persp3d"
       inkscape:vp_x="44.06818 : 315.96746 : 1"
       inkscape:vp_y="0 : 1000 : 0"
       inkscape:vp_z="480.74134 : 298.68846 : 1"
       inkscape:persp3d-origin="250 : 166.66667 : 1"
       id="perspective17-2" /><inkscape:perspective
       sodipodi:type="inkscape:persp3d"
       inkscape:vp_x="44.06818 : 315.96746 : 1"
       inkscape:vp_y="0 : 1000 : 0"
       inkscape:vp_z="480.74134 : 298.68846 : 1"
       inkscape:persp3d-origin="250 : 166.66667 : 1"
       id="perspective17-0" /></defs><g
     inkscape:label="Layer 1"
     inkscape:groupmode="layer"
     id="layer1"><path
       id="path1"
       style="fill:#40aefc;fill-opacity:1;stroke:none;stroke-width:50;stroke-linejoin:bevel;stroke-opacity:1;paint-order:markers fill stroke"
       d="m 185.86323,58.470703 v 48.820317 h 48.82031 V 58.470703 Z m -61.0481,65.562497 v 48.82032 h 48.82031 V 124.0332 Z m 60.34961,0 v 48.82032 h 48.82031 V 124.0332 Z m 58.94922,0 v 48.82032 h 48.82031 V 124.0332 Z M 476.612,172.16211 c -1.35853,0.0457 -2.61875,0.667 -3.65429,2.00391 L 393.3581,251.70898 H 15.838562 c 0,0 -54.149375,210.97568 138.246858,194.74958 191.79291,-16.17522 234.66064,-144.12692 250.05979,-162.83747 l 70.10742,41.69922 c 10.51246,6.66698 20.26395,-9.79441 17.90429,-23.88476 l -2.30468,-109.04102 c 0.40612,-9.83752 -7.35325,-20.43045 -13.24024,-20.23242 z M 64.957703,188.5625 v 48.82031 H 113.77802 V 188.5625 Z m 59.857427,0 v 48.82031 h 48.82031 V 188.5625 Z m 60.34961,0 v 48.82031 h 48.82031 V 188.5625 Z m 58.94922,0 v 48.82031 h 48.82031 V 188.5625 Z m 60.87304,0 v 48.82031 h 48.82031 V 188.5625 Z M 86.787781,270.05078 c 27.690849,-1.2e-4 50.138789,22.44783 50.138679,50.13867 -9.6e-4,27.69009 -22.44859,50.13684 -50.138679,50.13672 -27.690083,1.2e-4 -50.13771,-22.44663 -50.138672,-50.13672 -1.15e-4,-27.69084 22.447828,-50.13879 50.138672,-50.13867 z"
       sodipodi:nodetypes="ccccccccccccccccccccscccsccccscccccccccccccccccccccccccccccc" /></g></svg>
