<?xml version="1.0" encoding="UTF-8" standalone="no"?>
<!-- Created with Inkscape (http://www.inkscape.org/) -->

<svg
   width="500"
   height="500"
   viewBox="0 0 500 500"
   version="1.1"
   id="svg1"
   inkscape:version="1.3.2 (091e20ef0f, 2023-11-25, custom)"
   sodipodi:docname="dto.ts.svg"
   xml:space="preserve"
   xmlns:inkscape="http://www.inkscape.org/namespaces/inkscape"
   xmlns:sodipodi="http://sodipodi.sourceforge.net/DTD/sodipodi-0.dtd"
   xmlns:xlink="http://www.w3.org/1999/xlink"
   xmlns="http://www.w3.org/2000/svg"
   xmlns:svg="http://www.w3.org/2000/svg"><sodipodi:namedview
     id="namedview1"
     pagecolor="#505050"
     bordercolor="#eeeeee"
     borderopacity="1"
     inkscape:showpageshadow="0"
     inkscape:pageopacity="0"
     inkscape:pagecheckerboard="0"
     inkscape:deskcolor="#505050"
     inkscape:document-units="px"
     inkscape:zoom="0.68158229"
     inkscape:cx="316.90964"
     inkscape:cy="278.02952"
     inkscape:window-width="1352"
     inkscape:window-height="734"
     inkscape:window-x="4"
     inkscape:window-y="24"
     inkscape:window-maximized="0"
     inkscape:current-layer="layer2"
     showguides="true"><sodipodi:guide
       position="250.02518,350.60736"
       orientation="-0.99997769,0.0066803918"
       id="guide30"
       inkscape:locked="false" /><sodipodi:guide
       position="66.396728,247.89992"
       orientation="0,-1"
       id="guide53"
       inkscape:locked="false" /></sodipodi:namedview><defs
     id="defs1"><linearGradient
       id="linearGradient9"
       inkscape:collect="always"><stop
         style="stop-color:#4de34f;stop-opacity:1;"
         offset="0"
         id="stop9" /><stop
         style="stop-color:#e0e259;stop-opacity:1;"
         offset="1"
         id="stop10" /></linearGradient><inkscape:path-effect
       effect="mirror_symmetry"
       start_point="341.76098,28.008646"
       end_point="341.76098,211.38431"
       center_point="341.76098,119.69648"
       id="path-effect3"
       is_visible="true"
       lpeversion="1.2"
       lpesatellites=""
       mode="free"
       discard_orig_path="false"
       fuse_paths="true"
       oposite_fuse="false"
       split_items="false"
       split_open="false"
       link_styles="false" /><inkscape:path-effect
       effect="mirror_symmetry"
       start_point="216.08168,129.12039"
       end_point="216.08168,402.6937"
       center_point="216.08168,265.90704"
       id="path-effect2"
       is_visible="true"
       lpeversion="1.2"
       lpesatellites=""
       mode="free"
       discard_orig_path="false"
       fuse_paths="true"
       oposite_fuse="false"
       split_items="false"
       split_open="false"
       link_styles="false" /><linearGradient
       id="swatch61"
       inkscape:swatch="solid"><stop
         style="stop-color:#5090d0;stop-opacity:1;"
         offset="0"
         id="stop61" /></linearGradient><linearGradient
       id="swatch30"
       inkscape:swatch="solid"><stop
         style="stop-color:#f9f9f9;stop-opacity:1;"
         offset="0"
         id="stop30" /></linearGradient><inkscape:perspective
       sodipodi:type="inkscape:persp3d"
       inkscape:vp_x="44.06818 : 315.96746 : 1"
       inkscape:vp_y="0 : 1000 : 0"
       inkscape:vp_z="480.74134 : 298.68846 : 1"
       inkscape:persp3d-origin="250 : 166.66667 : 1"
       id="perspective17" /><inkscape:perspective
       sodipodi:type="inkscape:persp3d"
       inkscape:vp_x="44.06818 : 315.96746 : 1"
       inkscape:vp_y="0 : 1000 : 0"
       inkscape:vp_z="480.74134 : 298.68846 : 1"
       inkscape:persp3d-origin="250 : 166.66667 : 1"
       id="perspective17-7" /><inkscape:perspective
       sodipodi:type="inkscape:persp3d"
       inkscape:vp_x="44.06818 : 315.96746 : 1"
       inkscape:vp_y="0 : 1000 : 0"
       inkscape:vp_z="480.74134 : 298.68846 : 1"
       inkscape:persp3d-origin="250 : 166.66667 : 1"
       id="perspective17-5" /><inkscape:perspective
       sodipodi:type="inkscape:persp3d"
       inkscape:vp_x="44.06818 : 315.96746 : 1"
       inkscape:vp_y="0 : 1000 : 0"
       inkscape:vp_z="480.74134 : 298.68846 : 1"
       inkscape:persp3d-origin="250 : 166.66667 : 1"
       id="perspective17-2" /><inkscape:perspective
       sodipodi:type="inkscape:persp3d"
       inkscape:vp_x="44.06818 : 315.96746 : 1"
       inkscape:vp_y="0 : 1000 : 0"
       inkscape:vp_z="480.74134 : 298.68846 : 1"
       inkscape:persp3d-origin="250 : 166.66667 : 1"
       id="perspective17-26" /><inkscape:perspective
       sodipodi:type="inkscape:persp3d"
       inkscape:vp_x="44.06818 : 315.96746 : 1"
       inkscape:vp_y="0 : 1000 : 0"
       inkscape:vp_z="480.74134 : 298.68846 : 1"
       inkscape:persp3d-origin="250 : 166.66667 : 1"
       id="perspective17-2-6" /><linearGradient
       inkscape:collect="always"
       xlink:href="#linearGradient9"
       id="linearGradient10"
       x1="-0.73571676"
       y1="29.752665"
       x2="611.74097"
       y2="466.27353"
       gradientUnits="userSpaceOnUse"
       gradientTransform="matrix(0.95401592,0,0,0.95401592,-47.605999,10.729022)" /><inkscape:perspective
       sodipodi:type="inkscape:persp3d"
       inkscape:vp_x="44.06818 : 315.96746 : 1"
       inkscape:vp_y="0 : 1000 : 0"
       inkscape:vp_z="480.74134 : 298.68846 : 1"
       inkscape:persp3d-origin="250 : 166.66667 : 1"
       id="perspective17-72" /><inkscape:perspective
       sodipodi:type="inkscape:persp3d"
       inkscape:vp_x="44.06818 : 315.96746 : 1"
       inkscape:vp_y="0 : 1000 : 0"
       inkscape:vp_z="480.74134 : 298.68846 : 1"
       inkscape:persp3d-origin="250 : 166.66667 : 1"
       id="perspective17-69" /><inkscape:perspective
       sodipodi:type="inkscape:persp3d"
       inkscape:vp_x="44.06818 : 315.96746 : 1"
       inkscape:vp_y="0 : 1000 : 0"
       inkscape:vp_z="480.74134 : 298.68846 : 1"
       inkscape:persp3d-origin="250 : 166.66667 : 1"
       id="perspective17-4" /><inkscape:perspective
       sodipodi:type="inkscape:persp3d"
       inkscape:vp_x="44.06818 : 315.96746 : 1"
       inkscape:vp_y="0 : 1000 : 0"
       inkscape:vp_z="480.74134 : 298.68846 : 1"
       inkscape:persp3d-origin="250 : 166.66667 : 1"
       id="perspective17-6" /><inkscape:perspective
       sodipodi:type="inkscape:persp3d"
       inkscape:vp_x="44.06818 : 315.96746 : 1"
       inkscape:vp_y="0 : 1000 : 0"
       inkscape:vp_z="480.74134 : 298.68846 : 1"
       inkscape:persp3d-origin="250 : 166.66667 : 1"
       id="perspective17-3" /><inkscape:perspective
       sodipodi:type="inkscape:persp3d"
       inkscape:vp_x="44.06818 : 315.96746 : 1"
       inkscape:vp_y="0 : 1000 : 0"
       inkscape:vp_z="480.74134 : 298.68846 : 1"
       inkscape:persp3d-origin="250 : 166.66667 : 1"
       id="perspective17-5-72" /><inkscape:perspective
       sodipodi:type="inkscape:persp3d"
       inkscape:vp_x="44.06818 : 315.96746 : 1"
       inkscape:vp_y="0 : 1000 : 0"
       inkscape:vp_z="480.74134 : 298.68846 : 1"
       inkscape:persp3d-origin="250 : 166.66667 : 1"
       id="perspective17-2-2" /><inkscape:perspective
       sodipodi:type="inkscape:persp3d"
       inkscape:vp_x="44.06818 : 315.96746 : 1"
       inkscape:vp_y="0 : 1000 : 0"
       inkscape:vp_z="480.74134 : 298.68846 : 1"
       inkscape:persp3d-origin="250 : 166.66667 : 1"
       id="perspective17-43" /><inkscape:perspective
       sodipodi:type="inkscape:persp3d"
       inkscape:vp_x="44.06818 : 315.96746 : 1"
       inkscape:vp_y="0 : 1000 : 0"
       inkscape:vp_z="480.74134 : 298.68846 : 1"
       inkscape:persp3d-origin="250 : 166.66667 : 1"
       id="perspective17-7-6" /><inkscape:perspective
       sodipodi:type="inkscape:persp3d"
       inkscape:vp_x="44.06818 : 315.96746 : 1"
       inkscape:vp_y="0 : 1000 : 0"
       inkscape:vp_z="480.74134 : 298.68846 : 1"
       inkscape:persp3d-origin="250 : 166.66667 : 1"
       id="perspective17-4-0" /><inkscape:perspective
       sodipodi:type="inkscape:persp3d"
       inkscape:vp_x="44.06818 : 315.96746 : 1"
       inkscape:vp_y="0 : 1000 : 0"
       inkscape:vp_z="480.74134 : 298.68846 : 1"
       inkscape:persp3d-origin="250 : 166.66667 : 1"
       id="perspective17-26-1" /><inkscape:perspective
       sodipodi:type="inkscape:persp3d"
       inkscape:vp_x="44.06818 : 315.96746 : 1"
       inkscape:vp_y="0 : 1000 : 0"
       inkscape:vp_z="480.74134 : 298.68846 : 1"
       inkscape:persp3d-origin="250 : 166.66667 : 1"
       id="perspective17-59" /><inkscape:perspective
       sodipodi:type="inkscape:persp3d"
       inkscape:vp_x="44.06818 : 315.96746 : 1"
       inkscape:vp_y="0 : 1000 : 0"
       inkscape:vp_z="480.74134 : 298.68846 : 1"
       inkscape:persp3d-origin="250 : 166.66667 : 1"
       id="perspective17-5-7" /><inkscape:perspective
       sodipodi:type="inkscape:persp3d"
       inkscape:vp_x="44.06818 : 315.96746 : 1"
       inkscape:vp_y="0 : 1000 : 0"
       inkscape:vp_z="480.74134 : 298.68846 : 1"
       inkscape:persp3d-origin="250 : 166.66667 : 1"
       id="perspective17-2-8" /><inkscape:perspective
       sodipodi:type="inkscape:persp3d"
       inkscape:vp_x="44.06818 : 315.96746 : 1"
       inkscape:vp_y="0 : 1000 : 0"
       inkscape:vp_z="480.74134 : 298.68846 : 1"
       inkscape:persp3d-origin="250 : 166.66667 : 1"
       id="perspective17-50" /><inkscape:perspective
       sodipodi:type="inkscape:persp3d"
       inkscape:vp_x="44.06818 : 315.96746 : 1"
       inkscape:vp_y="0 : 1000 : 0"
       inkscape:vp_z="480.74134 : 298.68846 : 1"
       inkscape:persp3d-origin="250 : 166.66667 : 1"
       id="perspective17-7-4" /><inkscape:perspective
       sodipodi:type="inkscape:persp3d"
       inkscape:vp_x="44.06818 : 315.96746 : 1"
       inkscape:vp_y="0 : 1000 : 0"
       inkscape:vp_z="480.74134 : 298.68846 : 1"
       inkscape:persp3d-origin="250 : 166.66667 : 1"
       id="perspective17-29" /><inkscape:perspective
       sodipodi:type="inkscape:persp3d"
       inkscape:vp_x="44.06818 : 315.96746 : 1"
       inkscape:vp_y="0 : 1000 : 0"
       inkscape:vp_z="480.74134 : 298.68846 : 1"
       inkscape:persp3d-origin="250 : 166.66667 : 1"
       id="perspective17-59-8" /><inkscape:perspective
       sodipodi:type="inkscape:persp3d"
       inkscape:vp_x="44.06818 : 315.96746 : 1"
       inkscape:vp_y="0 : 1000 : 0"
       inkscape:vp_z="480.74134 : 298.68846 : 1"
       inkscape:persp3d-origin="250 : 166.66667 : 1"
       id="perspective17-5-71" /><inkscape:perspective
       sodipodi:type="inkscape:persp3d"
       inkscape:vp_x="44.06818 : 315.96746 : 1"
       inkscape:vp_y="0 : 1000 : 0"
       inkscape:vp_z="480.74134 : 298.68846 : 1"
       inkscape:persp3d-origin="250 : 166.66667 : 1"
       id="perspective17-2-7" /><inkscape:perspective
       sodipodi:type="inkscape:persp3d"
       inkscape:vp_x="44.06818 : 315.96746 : 1"
       inkscape:vp_y="0 : 1000 : 0"
       inkscape:vp_z="480.74134 : 298.68846 : 1"
       inkscape:persp3d-origin="250 : 166.66667 : 1"
       id="perspective17-0" /><inkscape:perspective
       sodipodi:type="inkscape:persp3d"
       inkscape:vp_x="44.06818 : 315.96746 : 1"
       inkscape:vp_y="0 : 1000 : 0"
       inkscape:vp_z="480.74134 : 298.68846 : 1"
       inkscape:persp3d-origin="250 : 166.66667 : 1"
       id="perspective17-69-9" /><inkscape:perspective
       sodipodi:type="inkscape:persp3d"
       inkscape:vp_x="44.06818 : 315.96746 : 1"
       inkscape:vp_y="0 : 1000 : 0"
       inkscape:vp_z="480.74134 : 298.68846 : 1"
       inkscape:persp3d-origin="250 : 166.66667 : 1"
       id="perspective17-4-1" /><inkscape:perspective
       sodipodi:type="inkscape:persp3d"
       inkscape:vp_x="44.06818 : 315.96746 : 1"
       inkscape:vp_y="0 : 1000 : 0"
       inkscape:vp_z="480.74134 : 298.68846 : 1"
       inkscape:persp3d-origin="250 : 166.66667 : 1"
       id="perspective17-6-7" /><inkscape:perspective
       sodipodi:type="inkscape:persp3d"
       inkscape:vp_x="44.06818 : 315.96746 : 1"
       inkscape:vp_y="0 : 1000 : 0"
       inkscape:vp_z="480.74134 : 298.68846 : 1"
       inkscape:persp3d-origin="250 : 166.66667 : 1"
       id="perspective17-3-7" /><inkscape:perspective
       sodipodi:type="inkscape:persp3d"
       inkscape:vp_x="44.06818 : 315.96746 : 1"
       inkscape:vp_y="0 : 1000 : 0"
       inkscape:vp_z="480.74134 : 298.68846 : 1"
       inkscape:persp3d-origin="250 : 166.66667 : 1"
       id="perspective17-5-1" /><inkscape:perspective
       sodipodi:type="inkscape:persp3d"
       inkscape:vp_x="44.06818 : 315.96746 : 1"
       inkscape:vp_y="0 : 1000 : 0"
       inkscape:vp_z="480.74134 : 298.68846 : 1"
       inkscape:persp3d-origin="250 : 166.66667 : 1"
       id="perspective17-2-1" /><inkscape:perspective
       sodipodi:type="inkscape:persp3d"
       inkscape:vp_x="44.06818 : 315.96746 : 1"
       inkscape:vp_y="0 : 1000 : 0"
       inkscape:vp_z="480.74134 : 298.68846 : 1"
       inkscape:persp3d-origin="250 : 166.66667 : 1"
       id="perspective17-43-5" /><inkscape:perspective
       sodipodi:type="inkscape:persp3d"
       inkscape:vp_x="44.06818 : 315.96746 : 1"
       inkscape:vp_y="0 : 1000 : 0"
       inkscape:vp_z="480.74134 : 298.68846 : 1"
       inkscape:persp3d-origin="250 : 166.66667 : 1"
       id="perspective17-7-9" /><inkscape:perspective
       sodipodi:type="inkscape:persp3d"
       inkscape:vp_x="44.06818 : 315.96746 : 1"
       inkscape:vp_y="0 : 1000 : 0"
       inkscape:vp_z="480.74134 : 298.68846 : 1"
       inkscape:persp3d-origin="250 : 166.66667 : 1"
       id="perspective17-4-0-7" /><inkscape:perspective
       sodipodi:type="inkscape:persp3d"
       inkscape:vp_x="44.06818 : 315.96746 : 1"
       inkscape:vp_y="0 : 1000 : 0"
       inkscape:vp_z="480.74134 : 298.68846 : 1"
       inkscape:persp3d-origin="250 : 166.66667 : 1"
       id="perspective17-26-7" /><inkscape:perspective
       sodipodi:type="inkscape:persp3d"
       inkscape:vp_x="44.06818 : 315.96746 : 1"
       inkscape:vp_y="0 : 1000 : 0"
       inkscape:vp_z="480.74134 : 298.68846 : 1"
       inkscape:persp3d-origin="250 : 166.66667 : 1"
       id="perspective17-59-6" /><inkscape:perspective
       sodipodi:type="inkscape:persp3d"
       inkscape:vp_x="44.06818 : 315.96746 : 1"
       inkscape:vp_y="0 : 1000 : 0"
       inkscape:vp_z="480.74134 : 298.68846 : 1"
       inkscape:persp3d-origin="250 : 166.66667 : 1"
       id="perspective17-5-7-7" /><inkscape:perspective
       sodipodi:type="inkscape:persp3d"
       inkscape:vp_x="44.06818 : 315.96746 : 1"
       inkscape:vp_y="0 : 1000 : 0"
       inkscape:vp_z="480.74134 : 298.68846 : 1"
       inkscape:persp3d-origin="250 : 166.66667 : 1"
       id="perspective17-2-8-3" /></defs><g
     inkscape:groupmode="layer"
     id="layer2"
     inkscape:label="Layer 2"><path
       id="path4"
       style="color:#000000;opacity:1;fill:url(#linearGradient10);stroke:none;stroke-width:0.558488;stroke-linejoin:bevel;stroke-miterlimit:10;-inkscape-stroke:none"
       d="M 32.990234 15.980469 L 26.873047 23.103516 C 27.086683 24.500235 27.41254 31.80246 27.488281 40.597656 C 27.563981 49.392849 27.513759 60.240508 27.412109 70.923828 C 27.208953 92.290455 26.800781 112.47645 26.800781 115.73047 L 32.990234 121.91797 L 57.056641 121.91797 L 57.056641 258.81836 L 63.244141 265.00586 L 180.20312 265.00586 C 180.20383 261.64013 180.25392 257.67257 180.22852 254.72266 C 180.19202 250.49211 180.09318 246.6031 179.98242 243.69141 C 179.87176 240.77965 179.4445 237.26729 179.80273 239.60938 A 16.696948 16.696948 0 0 1 183.64062 226.20898 L 189.75781 219.08398 A 16.696948 16.696948 0 0 1 202.42188 213.26562 L 270.75391 213.26562 L 270.75391 22.167969 L 264.56641 15.980469 L 32.990234 15.980469 z M 202.42188 229.96094 L 196.30469 237.08398 C 196.51835 238.4807 196.84613 245.7829 196.92188 254.57812 C 196.99757 263.37335 196.9473 274.22293 196.8457 284.90625 C 196.64256 306.27291 196.23438 326.45885 196.23438 329.71289 L 202.42188 335.90039 L 223.85742 335.90039 L 223.85742 319.92578 A 17.50175 17.50175 0 0 0 223.85742 319.92383 C 223.8586 307.90928 233.97178 297.79397 245.98633 297.79297 A 17.50175 17.50175 0 0 0 245.98828 297.79297 L 373.61133 297.79297 A 17.50175 17.50175 0 0 0 373.61328 297.79297 C 385.62786 297.79415 395.74314 307.90925 395.74414 319.92383 A 17.50175 17.50175 0 0 0 395.74414 319.92578 L 395.74414 345.04883 A 17.50175 17.50175 0 0 0 395.74414 345.05078 C 395.74399 346.55604 395.58469 348.03148 395.2832 349.46094 C 406.88059 344.01256 420.21697 341.81641 434.53125 341.81641 C 436.41717 341.81641 438.30473 341.85576 440.18945 341.92969 L 440.18945 236.15039 L 434 229.96094 L 202.42188 229.96094 z M 43.814453 285.26172 L 43.814453 348.97266 L 57.691406 348.97266 L 57.691406 446.7832 L 151.35742 446.7832 L 151.35742 458.76367 L 215.06641 458.76367 L 215.06641 395.05664 L 151.35742 395.05664 L 151.35742 413.39258 L 91.082031 413.39258 L 91.082031 348.97266 L 107.52344 348.97266 L 107.52344 285.26172 L 43.814453 285.26172 z M 292.99805 332.79297 A 17.50175 17.50175 0 0 1 308.21484 349.68164 L 308.21484 461.36133 L 310.93945 461.36133 L 310.93945 349.68164 A 17.50175 17.50175 0 0 1 326.15625 332.79297 L 292.99805 332.79297 z M 226.48828 355.33984 L 226.48828 472.79883 L 232.67969 478.98633 L 273.76758 478.98633 C 273.41617 477.44789 273.21498 475.85918 273.21484 474.23047 A 17.50175 17.50175 0 0 0 273.21484 474.22852 L 273.21484 367.18164 L 245.98828 367.18164 A 17.50175 17.50175 0 0 0 245.98633 367.18164 C 237.66102 367.18079 230.25581 362.32015 226.48828 355.33984 z M 345.93945 367.18164 L 345.93945 474.22852 A 17.50175 17.50175 0 0 0 345.93945 474.23047 C 345.93929 475.85918 345.73814 477.44788 345.38672 478.98633 L 364.82812 478.98633 C 361.97394 473.85995 361.09411 467.65153 362.89258 461.76172 L 369.33984 440.64062 C 370.47587 436.92012 372.64433 433.79821 375.3418 431.27539 C 368.14485 422.86842 363.48438 411.38842 363.48438 398.63281 C 363.48437 387.19874 367.14812 376.19942 373.58008 367.18164 L 345.93945 367.18164 z M 403.71094 385.45703 C 400.25544 388.68922 398.48438 392.66416 398.48438 398.63281 C 398.48438 405.07792 400.41199 407.61191 403.09766 409.75781 C 404.36111 410.76734 406.07016 411.68343 407.99023 412.55078 C 407.78135 412.37765 407.60867 412.27686 407.39258 412.08984 C 406.57531 411.38252 404.45366 409.90161 402.4043 405.88867 C 400.35496 401.87574 400.31836 398.02224 400.31836 396.85352 C 400.31836 394.70135 401.10648 389.57104 403.71094 385.45703 z " /><path
       id="path9"
       style="color:#000000;-inkscape-font-specification:'System-ui Bold';display:inline;fill:#3178c6;stroke-width:0.926416;stroke-linejoin:round;-inkscape-stroke:none;paint-order:markers fill stroke"
       d="m 245.98885,315.29335 a 4.6325249,4.6325249 0 0 0 -4.63205,4.63207 v 25.1235 a 4.6325249,4.6325249 0 0 0 4.63205,4.63206 h 44.72654 v 124.54818 a 4.6325249,4.6325249 0 0 0 4.63207,4.63206 h 28.46003 a 4.6325249,4.6325249 0 0 0 4.63207,-4.63206 V 349.68098 h 45.17163 a 4.6325249,4.6325249 0 0 0 4.63207,-4.63206 v -25.1235 a 4.6325249,4.6325249 0 0 0 -4.63207,-4.63207 z m 188.543,44.02269 c -16.08567,0 -29.25613,3.23993 -38.72294,9.93902 -9.46682,6.69912 -14.8244,17.10837 -14.8244,29.37741 0,11.22096 4.59339,19.52754 11.18931,24.79782 6.59593,5.27026 14.78938,7.82764 22.58855,9.72009 7.79915,1.89244 15.34855,3.13238 20.35935,4.87633 2.5054,0.87197 4.2987,1.87304 5.20202,2.72133 0.90334,0.84831 1.13632,1.28097 1.13632,2.57479 0,1.8026 -0.53929,2.79726 -2.85885,4.11999 -2.31956,1.32273 -6.4932,2.36489 -12.07414,2.36489 -9.59576,0 -23.5797,-2.80188 -34.32791,-7.01686 a 4.6325249,4.6325249 0 0 0 -6.12119,2.96018 l -6.44871,21.12112 a 4.6325249,4.6325249 0 0 0 2.67068,5.6381 c 13.11267,5.38555 29.34287,8.57292 44.67225,8.57292 15.565,0 28.38429,-3.32197 37.58846,-10.0675 9.20416,-6.74552 14.40099,-17.10969 14.40099,-29.24894 0,-11.2829 -4.62062,-19.69303 -11.25444,-25.11264 -6.63383,-5.41964 -14.90729,-8.16014 -22.80568,-10.17063 -7.89837,-2.01051 -15.5621,-3.29977 -20.70131,-5.00662 -2.56962,-0.85341 -4.44406,-1.8309 -5.35584,-2.62 -0.91176,-0.7891 -1.02593,-1.01857 -1.02593,-2.003 0,-1.58521 0.41326,-2.41807 2.93846,-3.72014 2.5252,-1.30205 7.12289,-2.31963 13.32984,-2.31963 8.27594,0 18.63629,1.70002 28.28454,4.48729 a 4.6325249,4.6325249 0 0 0 5.7575,-3.23882 l 5.78103,-21.34548 a 4.6325249,4.6325249 0 0 0 -2.92036,-5.57475 c -10.65196,-3.78735 -23.72365,-5.82627 -36.4576,-5.82627 z" /></g></svg>
