<?xml version="1.0" encoding="UTF-8" standalone="no"?>
<!-- Created with Inkscape (http://www.inkscape.org/) -->

<svg
   width="500"
   height="500"
   viewBox="0 0 500 500"
   version="1.1"
   id="svg1"
   inkscape:version="1.3.2 (091e20ef0f, 2023-11-25, custom)"
   sodipodi:docname="dto.js.svg"
   xml:space="preserve"
   xmlns:inkscape="http://www.inkscape.org/namespaces/inkscape"
   xmlns:sodipodi="http://sodipodi.sourceforge.net/DTD/sodipodi-0.dtd"
   xmlns:xlink="http://www.w3.org/1999/xlink"
   xmlns="http://www.w3.org/2000/svg"
   xmlns:svg="http://www.w3.org/2000/svg"><sodipodi:namedview
     id="namedview1"
     pagecolor="#505050"
     bordercolor="#eeeeee"
     borderopacity="1"
     inkscape:showpageshadow="0"
     inkscape:pageopacity="0"
     inkscape:pagecheckerboard="0"
     inkscape:deskcolor="#505050"
     inkscape:document-units="px"
     inkscape:zoom="0.68158229"
     inkscape:cx="316.90964"
     inkscape:cy="278.02952"
     inkscape:window-width="1352"
     inkscape:window-height="734"
     inkscape:window-x="4"
     inkscape:window-y="24"
     inkscape:window-maximized="0"
     inkscape:current-layer="layer2"
     showguides="true"><sodipodi:guide
       position="250.02518,350.60736"
       orientation="-0.99997769,0.0066803918"
       id="guide30"
       inkscape:locked="false" /><sodipodi:guide
       position="66.396728,247.89992"
       orientation="0,-1"
       id="guide53"
       inkscape:locked="false" /></sodipodi:namedview><defs
     id="defs1"><linearGradient
       id="linearGradient9"
       inkscape:collect="always"><stop
         style="stop-color:#4de34f;stop-opacity:1;"
         offset="0"
         id="stop9" /><stop
         style="stop-color:#e0e259;stop-opacity:1;"
         offset="1"
         id="stop10" /></linearGradient><inkscape:path-effect
       effect="mirror_symmetry"
       start_point="341.76098,28.008646"
       end_point="341.76098,211.38431"
       center_point="341.76098,119.69648"
       id="path-effect3"
       is_visible="true"
       lpeversion="1.2"
       lpesatellites=""
       mode="free"
       discard_orig_path="false"
       fuse_paths="true"
       oposite_fuse="false"
       split_items="false"
       split_open="false"
       link_styles="false" /><inkscape:path-effect
       effect="mirror_symmetry"
       start_point="216.08168,129.12039"
       end_point="216.08168,402.6937"
       center_point="216.08168,265.90704"
       id="path-effect2"
       is_visible="true"
       lpeversion="1.2"
       lpesatellites=""
       mode="free"
       discard_orig_path="false"
       fuse_paths="true"
       oposite_fuse="false"
       split_items="false"
       split_open="false"
       link_styles="false" /><linearGradient
       id="swatch61"
       inkscape:swatch="solid"><stop
         style="stop-color:#5090d0;stop-opacity:1;"
         offset="0"
         id="stop61" /></linearGradient><linearGradient
       id="swatch30"
       inkscape:swatch="solid"><stop
         style="stop-color:#f9f9f9;stop-opacity:1;"
         offset="0"
         id="stop30" /></linearGradient><inkscape:perspective
       sodipodi:type="inkscape:persp3d"
       inkscape:vp_x="44.06818 : 315.96746 : 1"
       inkscape:vp_y="0 : 1000 : 0"
       inkscape:vp_z="480.74134 : 298.68846 : 1"
       inkscape:persp3d-origin="250 : 166.66667 : 1"
       id="perspective17" /><inkscape:perspective
       sodipodi:type="inkscape:persp3d"
       inkscape:vp_x="44.06818 : 315.96746 : 1"
       inkscape:vp_y="0 : 1000 : 0"
       inkscape:vp_z="480.74134 : 298.68846 : 1"
       inkscape:persp3d-origin="250 : 166.66667 : 1"
       id="perspective17-7" /><inkscape:perspective
       sodipodi:type="inkscape:persp3d"
       inkscape:vp_x="44.06818 : 315.96746 : 1"
       inkscape:vp_y="0 : 1000 : 0"
       inkscape:vp_z="480.74134 : 298.68846 : 1"
       inkscape:persp3d-origin="250 : 166.66667 : 1"
       id="perspective17-5" /><inkscape:perspective
       sodipodi:type="inkscape:persp3d"
       inkscape:vp_x="44.06818 : 315.96746 : 1"
       inkscape:vp_y="0 : 1000 : 0"
       inkscape:vp_z="480.74134 : 298.68846 : 1"
       inkscape:persp3d-origin="250 : 166.66667 : 1"
       id="perspective17-2" /><inkscape:perspective
       sodipodi:type="inkscape:persp3d"
       inkscape:vp_x="44.06818 : 315.96746 : 1"
       inkscape:vp_y="0 : 1000 : 0"
       inkscape:vp_z="480.74134 : 298.68846 : 1"
       inkscape:persp3d-origin="250 : 166.66667 : 1"
       id="perspective17-26" /><inkscape:perspective
       sodipodi:type="inkscape:persp3d"
       inkscape:vp_x="44.06818 : 315.96746 : 1"
       inkscape:vp_y="0 : 1000 : 0"
       inkscape:vp_z="480.74134 : 298.68846 : 1"
       inkscape:persp3d-origin="250 : 166.66667 : 1"
       id="perspective17-2-6" /><linearGradient
       inkscape:collect="always"
       xlink:href="#linearGradient9"
       id="linearGradient10"
       x1="-0.73571676"
       y1="29.752665"
       x2="611.74097"
       y2="466.27353"
       gradientUnits="userSpaceOnUse"
       gradientTransform="matrix(0.95401592,0,0,0.95401592,-47.605999,10.729022)" /><inkscape:perspective
       sodipodi:type="inkscape:persp3d"
       inkscape:vp_x="44.06818 : 315.96746 : 1"
       inkscape:vp_y="0 : 1000 : 0"
       inkscape:vp_z="480.74134 : 298.68846 : 1"
       inkscape:persp3d-origin="250 : 166.66667 : 1"
       id="perspective17-72" /><inkscape:perspective
       sodipodi:type="inkscape:persp3d"
       inkscape:vp_x="44.06818 : 315.96746 : 1"
       inkscape:vp_y="0 : 1000 : 0"
       inkscape:vp_z="480.74134 : 298.68846 : 1"
       inkscape:persp3d-origin="250 : 166.66667 : 1"
       id="perspective17-69" /><inkscape:perspective
       sodipodi:type="inkscape:persp3d"
       inkscape:vp_x="44.06818 : 315.96746 : 1"
       inkscape:vp_y="0 : 1000 : 0"
       inkscape:vp_z="480.74134 : 298.68846 : 1"
       inkscape:persp3d-origin="250 : 166.66667 : 1"
       id="perspective17-4" /><inkscape:perspective
       sodipodi:type="inkscape:persp3d"
       inkscape:vp_x="44.06818 : 315.96746 : 1"
       inkscape:vp_y="0 : 1000 : 0"
       inkscape:vp_z="480.74134 : 298.68846 : 1"
       inkscape:persp3d-origin="250 : 166.66667 : 1"
       id="perspective17-6" /><inkscape:perspective
       sodipodi:type="inkscape:persp3d"
       inkscape:vp_x="44.06818 : 315.96746 : 1"
       inkscape:vp_y="0 : 1000 : 0"
       inkscape:vp_z="480.74134 : 298.68846 : 1"
       inkscape:persp3d-origin="250 : 166.66667 : 1"
       id="perspective17-3" /><inkscape:perspective
       sodipodi:type="inkscape:persp3d"
       inkscape:vp_x="44.06818 : 315.96746 : 1"
       inkscape:vp_y="0 : 1000 : 0"
       inkscape:vp_z="480.74134 : 298.68846 : 1"
       inkscape:persp3d-origin="250 : 166.66667 : 1"
       id="perspective17-5-72" /><inkscape:perspective
       sodipodi:type="inkscape:persp3d"
       inkscape:vp_x="44.06818 : 315.96746 : 1"
       inkscape:vp_y="0 : 1000 : 0"
       inkscape:vp_z="480.74134 : 298.68846 : 1"
       inkscape:persp3d-origin="250 : 166.66667 : 1"
       id="perspective17-2-2" /><inkscape:perspective
       sodipodi:type="inkscape:persp3d"
       inkscape:vp_x="44.06818 : 315.96746 : 1"
       inkscape:vp_y="0 : 1000 : 0"
       inkscape:vp_z="480.74134 : 298.68846 : 1"
       inkscape:persp3d-origin="250 : 166.66667 : 1"
       id="perspective17-43" /><inkscape:perspective
       sodipodi:type="inkscape:persp3d"
       inkscape:vp_x="44.06818 : 315.96746 : 1"
       inkscape:vp_y="0 : 1000 : 0"
       inkscape:vp_z="480.74134 : 298.68846 : 1"
       inkscape:persp3d-origin="250 : 166.66667 : 1"
       id="perspective17-7-6" /><inkscape:perspective
       sodipodi:type="inkscape:persp3d"
       inkscape:vp_x="44.06818 : 315.96746 : 1"
       inkscape:vp_y="0 : 1000 : 0"
       inkscape:vp_z="480.74134 : 298.68846 : 1"
       inkscape:persp3d-origin="250 : 166.66667 : 1"
       id="perspective17-4-0" /><inkscape:perspective
       sodipodi:type="inkscape:persp3d"
       inkscape:vp_x="44.06818 : 315.96746 : 1"
       inkscape:vp_y="0 : 1000 : 0"
       inkscape:vp_z="480.74134 : 298.68846 : 1"
       inkscape:persp3d-origin="250 : 166.66667 : 1"
       id="perspective17-26-1" /><inkscape:perspective
       sodipodi:type="inkscape:persp3d"
       inkscape:vp_x="44.06818 : 315.96746 : 1"
       inkscape:vp_y="0 : 1000 : 0"
       inkscape:vp_z="480.74134 : 298.68846 : 1"
       inkscape:persp3d-origin="250 : 166.66667 : 1"
       id="perspective17-59" /><inkscape:perspective
       sodipodi:type="inkscape:persp3d"
       inkscape:vp_x="44.06818 : 315.96746 : 1"
       inkscape:vp_y="0 : 1000 : 0"
       inkscape:vp_z="480.74134 : 298.68846 : 1"
       inkscape:persp3d-origin="250 : 166.66667 : 1"
       id="perspective17-5-7" /><inkscape:perspective
       sodipodi:type="inkscape:persp3d"
       inkscape:vp_x="44.06818 : 315.96746 : 1"
       inkscape:vp_y="0 : 1000 : 0"
       inkscape:vp_z="480.74134 : 298.68846 : 1"
       inkscape:persp3d-origin="250 : 166.66667 : 1"
       id="perspective17-2-8" /><inkscape:perspective
       sodipodi:type="inkscape:persp3d"
       inkscape:vp_x="44.06818 : 315.96746 : 1"
       inkscape:vp_y="0 : 1000 : 0"
       inkscape:vp_z="480.74134 : 298.68846 : 1"
       inkscape:persp3d-origin="250 : 166.66667 : 1"
       id="perspective17-50" /><inkscape:perspective
       sodipodi:type="inkscape:persp3d"
       inkscape:vp_x="44.06818 : 315.96746 : 1"
       inkscape:vp_y="0 : 1000 : 0"
       inkscape:vp_z="480.74134 : 298.68846 : 1"
       inkscape:persp3d-origin="250 : 166.66667 : 1"
       id="perspective17-7-4" /><inkscape:perspective
       sodipodi:type="inkscape:persp3d"
       inkscape:vp_x="44.06818 : 315.96746 : 1"
       inkscape:vp_y="0 : 1000 : 0"
       inkscape:vp_z="480.74134 : 298.68846 : 1"
       inkscape:persp3d-origin="250 : 166.66667 : 1"
       id="perspective17-29" /><inkscape:perspective
       sodipodi:type="inkscape:persp3d"
       inkscape:vp_x="44.06818 : 315.96746 : 1"
       inkscape:vp_y="0 : 1000 : 0"
       inkscape:vp_z="480.74134 : 298.68846 : 1"
       inkscape:persp3d-origin="250 : 166.66667 : 1"
       id="perspective17-59-8" /><inkscape:perspective
       sodipodi:type="inkscape:persp3d"
       inkscape:vp_x="44.06818 : 315.96746 : 1"
       inkscape:vp_y="0 : 1000 : 0"
       inkscape:vp_z="480.74134 : 298.68846 : 1"
       inkscape:persp3d-origin="250 : 166.66667 : 1"
       id="perspective17-5-71" /><inkscape:perspective
       sodipodi:type="inkscape:persp3d"
       inkscape:vp_x="44.06818 : 315.96746 : 1"
       inkscape:vp_y="0 : 1000 : 0"
       inkscape:vp_z="480.74134 : 298.68846 : 1"
       inkscape:persp3d-origin="250 : 166.66667 : 1"
       id="perspective17-2-7" /></defs><g
     inkscape:groupmode="layer"
     id="layer2"
     inkscape:label="Layer 2"><path
       id="path4"
       style="color:#000000;opacity:1;fill:url(#linearGradient10);stroke:none;stroke-width:0.558488;stroke-linejoin:bevel;stroke-miterlimit:10;-inkscape-stroke:none"
       d="M 32.990234 15.980469 L 26.873047 23.103516 C 27.086683 24.500235 27.41254 31.80246 27.488281 40.597656 C 27.563981 49.392849 27.513759 60.240508 27.412109 70.923828 C 27.208953 92.290455 26.800781 112.47645 26.800781 115.73047 L 32.990234 121.91797 L 57.056641 121.91797 L 57.056641 258.81836 L 63.244141 265.00586 L 180.20312 265.00586 C 180.20383 261.64013 180.25392 257.67257 180.22852 254.72266 C 180.19202 250.49211 180.09318 246.6031 179.98242 243.69141 C 179.87176 240.77965 179.4445 237.26729 179.80273 239.60938 A 16.696948 16.696948 0 0 1 183.64062 226.20898 L 189.75781 219.08398 A 16.696948 16.696948 0 0 1 202.42188 213.26562 L 270.75391 213.26562 L 270.75391 22.167969 L 264.56641 15.980469 L 32.990234 15.980469 z M 202.42188 229.96094 L 196.30469 237.08398 C 196.51835 238.4807 196.84613 245.7829 196.92188 254.57812 C 196.99757 263.37335 196.9473 274.22293 196.8457 284.90625 C 196.64256 306.27291 196.23438 326.45885 196.23438 329.71289 L 202.42188 335.90039 L 226.48828 335.90039 L 226.48828 472.79883 L 232.67969 478.98633 L 250.125 478.98633 C 245.16281 471.29002 243.8632 461.42343 247.31836 452.49414 A 17.50175 17.50175 0 0 0 247.31836 452.49219 L 253.07812 437.61133 A 17.50175 17.50175 0 0 0 253.08008 437.60938 C 259.20934 421.78127 278.27279 414.41088 293.45508 422 A 17.50175 17.50175 0 0 0 293.45703 422.00195 C 293.47239 422.00963 296.59382 422.73468 299.55078 423.42188 C 299.55478 423.24842 299.58398 423.15955 299.58398 422.97656 L 299.58398 302.25586 A 17.50175 17.50175 0 0 1 299.58398 302.25195 C 299.5867 286.29817 312.89583 272.99227 328.84961 272.99219 L 348.76953 272.99219 A 17.50175 17.50175 0 0 0 348.77148 272.99219 C 364.72348 272.99491 378.0302 286.29995 378.0332 302.25195 A 17.50175 17.50175 0 0 0 378.0332 302.25391 A 17.50175 17.50175 0 0 0 378.0332 302.25586 L 378.0332 335.60352 C 392.96076 325.40012 411.04106 321.47266 429.88867 321.47266 C 433.33986 321.47266 436.77447 321.62649 440.18945 321.89062 L 440.18945 236.15039 L 434 229.96094 L 202.42188 229.96094 z M 43.814453 285.26172 L 43.814453 348.97266 L 57.691406 348.97266 L 57.691406 446.7832 L 151.35742 446.7832 L 151.35742 458.76367 L 215.06641 458.76367 L 215.06641 395.05664 L 151.35742 395.05664 L 151.35742 413.39258 L 91.082031 413.39258 L 91.082031 348.97266 L 107.52344 348.97266 L 107.52344 285.26172 L 43.814453 285.26172 z M 334.58398 307.99219 L 334.58398 422.97656 C 334.58398 433.76501 332.6098 442.22705 326.85547 449.32812 C 324.87701 451.76961 321.15477 455.23896 316.66797 457.13672 C 312.18115 459.03448 307.89553 459.43164 303.88867 459.43164 C 296.32488 459.43164 290.1607 458.39434 283.55664 455.83008 L 281.82617 460.30469 C 289.16097 463.83062 296.77855 465.48047 304.36914 465.48047 C 317.01054 465.48047 326.71669 461.34987 332.89258 454.36523 C 339.29522 447.12415 343.0332 436.04183 343.0332 420.81641 L 343.0332 307.99219 L 334.58398 307.99219 z M 429.88867 356.47266 C 415.64151 356.47266 404.73854 359.53863 397.34375 364.75391 C 390.64954 369.47508 386.42384 377.1698 386.42383 385.77734 C 386.42383 393.54296 390.52424 399.78045 394.80859 402.87305 C 400.44989 406.94512 407.80239 409.21024 416.55273 411.45117 C 424.89758 413.58827 432.36143 414.89819 440.18945 418.36523 L 440.18945 411.5625 C 437.8876 410.82219 435.5025 410.11493 432.96875 409.4375 C 424.29498 407.11848 416.44697 405.7353 408.375 402.17578 C 406.34314 401.27979 404.6282 400.32861 403.15625 399.35742 C 402.17773 398.7118 401.43459 398.21786 400.40234 397.2793 C 401.15467 397.9138 402.10917 398.61994 403.66406 399.41602 C 404.46206 399.82458 405.53162 400.14917 406.70703 400.4043 A 17.50175 17.50175 0 0 1 396.39453 375.35938 C 396.1663 375.78773 395.88754 376.24518 395.72461 376.61328 C 396.3193 374.88113 397.01791 373.20658 397.92383 372.04883 C 402.95667 365.61697 403.33665 367.32552 404.52539 366.62109 C 411.73168 362.35068 418.32254 361.32227 427.96875 361.32227 C 431.98295 361.32227 436.08363 361.67541 440.18945 362.24805 L 440.18945 357.11328 C 436.8324 356.73423 433.41206 356.47266 429.88867 356.47266 z M 410.67578 366.36523 C 409.98424 366.40258 409.14888 366.7483 408.37891 366.91211 C 410.83782 366.61058 413.53369 366.72061 415.85938 367.14453 L 415.83203 366.85352 C 418.78344 367.58829 417.25483 366.00984 410.67578 366.36523 z M 403.91016 368.29297 C 402.52512 368.9544 401.20117 369.71385 400.1582 370.61914 C 398.38714 372.15642 397.3857 373.60076 396.62695 374.92188 A 17.50175 17.50175 0 0 1 403.91016 368.29297 z M 418.87891 399.60352 C 418.64659 399.70758 418.43086 399.83799 418.19531 399.93359 C 418.40823 399.85393 418.69527 399.83454 418.89258 399.74414 L 418.87891 399.60352 z M 426.12695 450.45117 C 426.66137 450.84534 426.71219 450.66521 426.4375 450.53711 C 426.42607 450.53181 426.14285 450.45817 426.12695 450.45117 z M 387.34961 453.76367 L 385.99219 458.4082 C 397.50065 462.8785 410.68453 465.48047 422.92969 465.48047 C 429.48406 465.48047 435.22676 464.73283 440.18945 463.38281 L 440.18945 458.45508 C 435.40727 460.35993 430.81715 460.63281 424.36914 460.63281 C 412.58468 460.63281 399.39432 458.1077 387.34961 453.76367 z " /><path
       id="path13"
       style="color:#000000;-inkscape-font-specification:System-ui;fill:#ffc340;fill-opacity:1;stroke-linejoin:round;-inkscape-stroke:none;paint-order:markers fill stroke"
       d="M 326.78507 295.6496 A 11.765676 11.765676 0 0 0 315.01945 307.41327 L 315.01945 428.13397 C 315.01945 436.20449 313.13928 441.06892 311.19523 443.46795 C 309.25118 445.86699 307.17175 447.08905 301.82414 447.08905 C 296.97704 447.08905 288.0816 445.06934 283.56632 442.8117 A 11.765676 11.765676 0 0 0 267.3339 449.0871 L 261.57414 463.96795 A 11.765676 11.765676 0 0 0 266.49211 478.30194 C 277.97121 485.18941 290.35725 488.13788 302.30461 488.13788 C 318.95705 488.13788 333.94906 482.41275 343.93742 471.11639 C 353.92578 459.82002 358.46867 444.12001 358.46867 425.97381 L 358.46867 307.41327 A 11.765676 11.765676 0 0 0 346.705 295.6496 L 326.78507 295.6496 z M 427.82414 344.13006 C 411.09871 344.13006 396.43398 347.68288 385.19328 355.61053 C 373.95258 363.53818 366.8593 376.56731 366.85929 390.93475 C 366.85929 404.56753 373.7152 415.87738 382.50187 422.21991 C 391.28855 428.56244 401.19482 431.26923 410.1464 433.5617 C 419.09799 435.85418 427.32143 437.76094 431.76945 439.83514 C 433.99346 440.87224 435.09833 441.83713 435.41398 442.22577 C 435.72964 442.61441 435.74015 442.33782 435.74015 443.49335 C 435.74015 445.29746 435.94901 444.87999 434.41398 445.88202 C 432.87896 446.88405 428.73917 448.29022 422.30461 448.29022 C 412.21761 448.29022 396.57849 445.10502 386.16398 440.61249 A 11.765676 11.765676 0 0 0 370.21281 448.11444 L 365.65226 463.71405 A 11.765676 11.765676 0 0 0 372.07609 477.72381 C 387.0464 484.5285 404.42516 488.13788 420.86515 488.13788 C 436.99054 488.13788 451.09123 484.42189 461.72453 476.35663 C 472.35783 468.29137 478.7089 455.46991 478.7089 441.57342 C 478.7089 427.76308 471.99815 416.31712 463.2382 409.69647 C 454.47826 403.07581 444.48114 400.11026 435.42375 397.68866 C 426.36636 395.26707 417.98743 393.35718 413.37101 391.32147 C 411.06281 390.30361 409.87913 389.32823 409.63664 389.05194 C 409.58226 388.98998 409.55644 388.98535 409.53898 388.99335 C 409.56059 388.99873 409.58976 389.02988 409.58976 388.7746 C 409.58976 387.93621 409.13259 388.16855 411.38273 386.83514 C 413.63287 385.50172 418.73479 383.97967 425.90422 383.97967 C 434.02256 383.97967 444.66083 385.91748 453.30265 388.86835 A 11.765676 11.765676 0 0 0 468.3964 381.03436 L 472.95695 365.43475 A 11.765676 11.765676 0 0 0 466.16984 351.26678 C 454.62345 346.47925 441.44816 344.13006 427.82414 344.13006 z "
       transform="translate(2.064535,-5.1574081)" /></g></svg>
