<?xml version="1.0" encoding="UTF-8" standalone="no"?>
<!-- Created with Inkscape (http://www.inkscape.org/) -->

<svg
   width="500"
   height="500"
   viewBox="0 0 500 500"
   version="1.1"
   id="svg1"
   inkscape:version="1.3.2 (091e20ef0f, 2023-11-25, custom)"
   sodipodi:docname="editorconfig.svg"
   xml:space="preserve"
   xmlns:inkscape="http://www.inkscape.org/namespaces/inkscape"
   xmlns:sodipodi="http://sodipodi.sourceforge.net/DTD/sodipodi-0.dtd"
   xmlns="http://www.w3.org/2000/svg"
   xmlns:svg="http://www.w3.org/2000/svg"><sodipodi:namedview
     id="namedview1"
     pagecolor="#505050"
     bordercolor="#eeeeee"
     borderopacity="1"
     inkscape:showpageshadow="0"
     inkscape:pageopacity="0"
     inkscape:pagecheckerboard="0"
     inkscape:deskcolor="#505050"
     inkscape:document-units="px"
     inkscape:zoom="0.68158229"
     inkscape:cx="78.493824"
     inkscape:cy="326.44628"
     inkscape:window-width="1362"
     inkscape:window-height="744"
     inkscape:window-x="0"
     inkscape:window-y="20"
     inkscape:window-maximized="1"
     inkscape:current-layer="svg1"
     showguides="true"><sodipodi:guide
       position="250.02518,350.60736"
       orientation="-0.99997769,0.0066803918"
       id="guide30"
       inkscape:locked="false" /><sodipodi:guide
       position="66.396728,247.89992"
       orientation="0,-1"
       id="guide53"
       inkscape:locked="false" /></sodipodi:namedview><defs
     id="defs1"><linearGradient
       id="swatch61"
       inkscape:swatch="solid"><stop
         style="stop-color:#5090d0;stop-opacity:1;"
         offset="0"
         id="stop61" /></linearGradient><linearGradient
       id="swatch30"
       inkscape:swatch="solid"><stop
         style="stop-color:#f9f9f9;stop-opacity:1;"
         offset="0"
         id="stop30" /></linearGradient><inkscape:perspective
       sodipodi:type="inkscape:persp3d"
       inkscape:vp_x="44.06818 : 315.96746 : 1"
       inkscape:vp_y="0 : 1000 : 0"
       inkscape:vp_z="480.74134 : 298.68846 : 1"
       inkscape:persp3d-origin="250 : 166.66667 : 1"
       id="perspective17" /><inkscape:perspective
       sodipodi:type="inkscape:persp3d"
       inkscape:vp_x="44.06818 : 315.96746 : 1"
       inkscape:vp_y="0 : 1000 : 0"
       inkscape:vp_z="480.74134 : 298.68846 : 1"
       inkscape:persp3d-origin="250 : 166.66667 : 1"
       id="perspective17-2" /><inkscape:perspective
       sodipodi:type="inkscape:persp3d"
       inkscape:vp_x="44.06818 : 315.96746 : 1"
       inkscape:vp_y="0 : 1000 : 0"
       inkscape:vp_z="480.74134 : 298.68846 : 1"
       inkscape:persp3d-origin="250 : 166.66667 : 1"
       id="perspective17-7" /><inkscape:perspective
       sodipodi:type="inkscape:persp3d"
       inkscape:vp_x="44.06818 : 315.96746 : 1"
       inkscape:vp_y="0 : 1000 : 0"
       inkscape:vp_z="480.74134 : 298.68846 : 1"
       inkscape:persp3d-origin="250 : 166.66667 : 1"
       id="perspective17-9" /><inkscape:perspective
       sodipodi:type="inkscape:persp3d"
       inkscape:vp_x="44.06818 : 315.96746 : 1"
       inkscape:vp_y="0 : 1000 : 0"
       inkscape:vp_z="480.74134 : 298.68846 : 1"
       inkscape:persp3d-origin="250 : 166.66667 : 1"
       id="perspective17-2-7" /><inkscape:perspective
       sodipodi:type="inkscape:persp3d"
       inkscape:vp_x="44.06818 : 315.96746 : 1"
       inkscape:vp_y="0 : 1000 : 0"
       inkscape:vp_z="480.74134 : 298.68846 : 1"
       inkscape:persp3d-origin="250 : 166.66667 : 1"
       id="perspective17-7-7" /></defs><g
     id="g11"
     transform="matrix(1.8552376,0,0,1.8552376,14.08948,1.1646616)"><path
       d="m 61.342309,145.02111 c 5.40512,-2.39394 9.87022,-8.3788 7.167659,-12.60809 -7.402664,2.15454 -7.050156,7.10202 -7.167659,12.60809 z"
       fill="#e3e3f8"
       id="path1" /><path
       d="m 118.15853,158.74638 c 5.06435,-1.27677 9.92613,-5.74546 7.19138,-10.37375 -3.9502,2.15455 -6.48237,5.10707 -7.19138,10.37375 z"
       fill="#e3e3f8"
       id="path2" /><path
       d="m 6.5210434,224.81917 c 0,5.02728 1.2767689,10.45354 4.7878836,12.3687 12.927285,7.26162 58.252582,1.59596 73.653608,-1.83536 8.059603,-1.83535 14.603044,-7.82021 22.183855,-11.09193 17.07679,-7.42122 29.44549,-13.40607 43.09096,-23.38083 9.89495,-7.26162 25.61517,-27.68992 27.29093,-39.89903 l -13.48587,-3.03232 c -0.31919,13.72526 -3.43132,16.83739 -15.64042,20.02931 -8.2192,2.23434 -24.25861,2.71313 -32.63741,1.27677 -11.09192,-1.83536 -16.119203,-7.66062 -21.14648,-14.28385 -9.735363,-12.92729 2.154547,-21.94447 -13.246478,-22.82225 -16.199006,19.86972 -44.766711,5.58586 -57.295006,3.59091 -5.34647,7.74041 -17.8747649,58.01319 -17.7166794,69.50411 7.7419224,-2.63333 12.6096034,0.2394 19.5520344,2.95253 24.577802,9.49597 3.112125,17.87476 -6.703036,15.40103 -6.703037,-1.59597 -8.777787,-5.98486 -12.6878916,-8.77779 z"
       fill="#fdfdfd"
       id="path3" /><path
       d="m 38.679661,110.14936 c 9.974757,1.91515 18.832342,6.06465 27.290936,10.29395 13.805064,6.86263 16.278804,5.90506 17.555573,15.48082 0.159596,1.75556 -0.159597,2.71314 4.867681,4.3091 8.458594,2.63333 -4.867681,-2.07475 17.794969,-1.99495 13.48587,0.0798 44.36772,5.50606 54.34248,11.81011 4.14949,2.63333 3.35151,5.98485 17.39597,5.58586 -0.15959,-16.5182 -4.54849,-41.17579 -11.01213,-56.337426 C 159.01513,80.94327 148.56159,78.150338 127.25551,71.287705 114.80701,67.297802 78.259498,62.908909 66.928173,69.931138 56.315032,76.554377 54.32008,84.454385 44.425121,98.339247 c -2.87273,4.069703 -3.910105,7.181823 -5.74546,11.810113 z"
       fill="#fdfdfd"
       id="path4" /><path
       d="m 126.53732,144.06353 c 7.97981,3.27172 -0.39899,24.41821 -11.49092,19.31113 -3.59091,-10.13435 4.94748,-15.87981 7.26163,-20.4283 -4.78789,-0.71818 -18.43336,-2.87273 -22.503056,-1.35657 -5.266672,1.99496 -6.463643,13.24648 -3.750509,18.51315 12.767685,25.05659 69.184915,19.71012 63.200065,0.2394 -2.39395,-7.90001 -4.62829,-9.17678 -12.68789,-11.88991 -6.46365,-2.15455 -12.92729,-4.3889 -20.02932,-4.3889 z"
       fill="#fdfdfd"
       id="path5" /><path
       d="m 26.231164,141.2706 c 6.383844,6.14445 20.827293,7.10203 30.163666,7.58082 1.196971,-12.3687 2.234345,-21.62528 12.129305,-20.90709 4.867681,6.62323 2.314143,14.44344 -2.792932,19.47072 8.697988,-0.0798 13.725266,-6.62324 12.448497,-16.1192 -7.341422,-5.26668 -29.60508,-15.80002 -40.776808,-17.31618 -3.112124,3.35152 -10.772738,21.70507 -11.171728,27.29093 z"
       fill="#fdfdfd"
       id="path6" /><path
       d="m 11.229129,220.27068 c 5.266672,-0.47879 18.991938,3.51111 20.10911,7.97981 -8.538392,1.03737 -19.390928,0.23939 -20.10911,-7.97981 z m -4.7080856,4.54849 c 3.9101046,2.79293 5.9848546,7.18182 12.6878916,8.77779 9.815161,2.47373 31.280838,-5.90506 6.703036,-15.40103 C 18.96954,215.4828 14.101859,212.61007 6.3599366,215.2434 6.2018511,203.75248 18.730146,153.4797 24.076616,145.73929 c 12.528295,1.99495 41.096,16.27881 57.295006,-3.59091 15.401025,0.87778 3.511115,9.89496 13.246478,22.82225 5.027277,6.62323 10.05456,12.44849 21.14648,14.28385 8.3788,1.43636 24.41821,0.95757 32.63741,-1.27677 12.2091,-3.19192 15.32123,-6.30405 15.64042,-20.02931 l 13.48587,3.03232 c -1.67576,12.20911 -17.39598,32.63741 -27.29093,39.89903 -13.64547,9.97476 -26.01417,15.95961 -43.09096,23.38083 -7.580811,3.27172 -14.124252,9.25658 -22.183855,11.09193 -15.401026,3.43132 -60.726323,9.09698 -73.653608,1.83536 -3.5111147,-1.91516 -4.7878836,-7.34142 -4.7878836,-12.3687 z M 118.15853,158.74638 c 0.70901,-5.26668 3.24118,-8.2192 7.19138,-10.37375 2.73475,4.62829 -2.12703,9.09698 -7.19138,10.37375 z m 8.37879,-14.68285 c 7.10203,0 13.56567,2.23435 20.02932,4.3889 8.0596,2.71313 10.29394,3.9899 12.68789,11.88991 5.98485,19.47072 -50.43238,24.81719 -63.200065,-0.2394 -2.713134,-5.26667 -1.516163,-16.51819 3.750509,-18.51315 4.069696,-1.51616 17.715166,0.63839 22.503056,1.35657 -2.31415,4.54849 -10.85254,10.29395 -7.26163,20.4283 11.09193,5.10708 19.47073,-16.03941 11.49092,-19.31113 z m -65.195011,0.95758 c 0.117503,-5.50607 -0.235005,-10.45355 7.167659,-12.60809 2.702561,4.22929 -1.762539,10.21415 -7.167659,12.60809 z M 26.231164,141.2706 c 0.39899,-5.58586 8.059604,-23.93941 11.171728,-27.29093 11.171728,1.51616 33.435386,12.0495 40.776808,17.31618 1.276769,9.49596 -3.750509,16.0394 -12.448497,16.1192 5.107075,-5.02728 7.660613,-12.84749 2.792932,-19.47072 -9.89496,-0.71819 -10.932334,8.53839 -12.129305,20.90709 -9.336373,-0.47879 -23.779822,-1.43637 -30.163666,-7.58082 z m -7.979806,-6.38384 c -2.952528,-8.1394 -2.952528,-20.8273 9.575767,-21.86467 l -6.383845,17.79497 c -1.675759,3.8303 -1.675759,2.95252 -3.191922,4.0697 z m 20.428303,-24.7374 c 1.835355,-4.62829 2.87273,-7.74041 5.74546,-11.810113 9.894959,-13.884862 11.889911,-21.78487 22.503052,-28.408109 11.331325,-7.022229 47.878837,-2.633336 60.327337,1.356567 21.30608,6.862633 31.75962,9.655565 39.65963,28.009119 6.46364,15.161636 10.85254,39.819226 11.01213,56.337426 -14.04446,0.39899 -13.24648,-2.95253 -17.39597,-5.58586 -9.97476,-6.30405 -40.85661,-11.73032 -54.34248,-11.81011 -22.66265,-0.0798 -9.336375,4.62828 -17.794969,1.99495 -5.027278,-1.59596 -4.708085,-2.55354 -4.867681,-4.3091 -1.276769,-9.57576 -3.750509,-8.61819 -17.555573,-15.48082 -8.458594,-4.2293 -17.316179,-8.3788 -27.290936,-10.29395 z m 141.242559,-3.9101 c -1.51616,-5.02728 1.27677,-4.70809 6.14445,-8.139407 2.79294,-1.994952 5.02728,-4.069701 8.4586,-5.984855 12.84749,-7.181825 36.7869,-8.378796 47.00106,0.159597 4.14949,3.431316 10.93233,10.134355 9.89495,18.912135 -2.15454,17.47578 -14.12425,27.05155 -23.93941,35.03135 -9.97476,8.1394 -26.57276,16.5182 -43.72934,10.93234 -1.43636,-3.51112 -0.31919,-25.77478 -1.99495,-33.99398 -1.51616,-7.34142 -0.71818,-8.1394 3.51111,-12.52829 12.4485,-12.927288 39.42024,-22.343458 54.74147,-11.251528 6.46364,4.787888 4.62829,6.623238 7.97981,10.293948 4.1495,-4.46869 -3.59092,-19.470725 -32.15862,-18.513148 -19.39093,0.638384 -27.76972,15.800018 -35.90913,15.081838 z M 63.736251,60.834159 c 0.39899,-11.09193 10.613142,-34.07377 20.827293,-42.053576 12.368699,-9.5757672 25.295986,-18.59294776 44.287926,-7.82021 4.70808,2.633336 4.46869,3.989903 4.94748,10.533344 0.39899,6.304046 -0.1596,8.61819 -1.75556,13.725266 -12.60809,40.69701 -23.14144,17.316178 -63.519255,26.971743 1.516163,-13.246477 13.007083,-25.05659 19.390928,-31.20104 10.932334,-10.613142 18.832347,-17.475775 35.270747,-15.241429 4.54848,7.580815 5.02727,12.368699 -0.47879,21.226283 -7.34142,11.810113 -9.17678,11.09193 -8.05961,19.151534 5.74546,-1.436365 7.50102,-7.022229 10.13436,-12.608093 16.0394,-33.515185 -7.26163,-37.5848856 -21.54548,-31.440435 -9.575767,4.069701 -26.652552,22.902043 -32.238416,34.233367 -1.117172,2.234346 -2.314143,5.107076 -3.351518,7.580815 z m 63.200059,1.67576 c 1.67576,-9.974758 11.57072,-12.448497 11.57072,-43.17075 0,-13.2464775 -16.2788,-25.1363881 -37.58488,-16.2788037 C 82.648391,10.561383 79.855459,16.306843 70.120096,30.989686 60.943319,44.874548 61.262511,60.115977 53.362504,72.963464 c -2.314144,3.670711 -4.388894,4.94748 -6.942431,8.618191 -1.835356,2.713134 -3.191923,6.14445 -5.027278,9.336372 -3.750509,6.144451 -7.580816,10.613143 -10.613142,17.954563 -9.575767,0.2394 -17.635371,0.39899 -18.592947,10.29395 -1.276769,13.56567 5.107075,16.91719 5.107075,22.02426 -0.0798,5.50607 -22.4232541,61.04552 -16.1990056,94.16171 1.7555573,9.09698 7.7404117,9.17678 17.3161786,10.29395 23.061639,2.79293 52.985911,1.83536 73.653608,-6.46364 l 37.505088,-17.95456 c 9.49597,-5.34647 25.45558,-15.48083 32.55761,-22.90205 5.02727,-5.18687 7.66061,-9.57576 11.96971,-15.72021 5.90505,-8.61819 6.06465,-8.4586 7.34142,-20.18891 7.82021,1.43636 22.42325,4.86768 27.29093,9.09698 -0.55858,5.50606 -3.27172,2.87273 -3.27172,7.82021 3.11213,0.0798 8.299,-3.83031 9.57577,-8.13941 -3.27172,-4.78788 -6.70304,-3.9899 -11.41112,-7.82021 3.75051,-2.95252 10.53334,-4.30909 15.72021,-6.46364 11.17173,-4.62829 30.24347,-18.67274 34.95155,-31.44043 3.75051,-10.29395 0.95758,-27.450535 -5.10707,-34.153572 -6.38385,-7.022229 -21.22629,-10.613142 -33.35559,-10.613142 -14.44345,0 -29.36569,10.373748 -41.0162,14.842439 -4.46869,-3.910105 -4.78789,-8.378796 -8.05961,-12.687891 -3.7505,-5.107076 -28.16871,-17.874765 -39.81923,-20.348505 z"
       fill="#020202"
       id="path7" /><path
       d="m 179.92222,106.23926 c 8.13941,0.71818 16.5182,-14.443454 35.90913,-15.081838 28.5677,-0.957577 36.30812,14.044458 32.15862,18.513148 -3.35152,-3.67071 -1.51617,-5.50606 -7.97981,-10.293948 -15.32123,-11.09193 -42.29297,-1.67576 -54.74147,11.251528 -4.22929,4.38889 -5.02727,5.18687 -3.51111,12.52829 1.67576,8.2192 0.55859,30.48286 1.99495,33.99398 17.15658,5.58586 33.75458,-2.79294 43.72934,-10.93234 9.81516,-7.9798 21.78487,-17.55557 23.93941,-35.03135 1.03738,-8.77778 -5.74546,-15.480819 -9.89495,-18.912135 -10.21416,-8.538393 -34.15357,-7.341422 -47.00106,-0.159597 -3.43132,1.915154 -5.66566,3.989903 -8.4586,5.984855 -4.86768,3.431317 -7.66061,3.112127 -6.14445,8.139407 z"
       fill="#fdf2f2"
       id="path8" /><path
       d="m 63.736251,60.834159 3.910105,-6.942431 c 1.037375,-2.473739 2.234346,-5.346469 3.351518,-7.580815 5.585864,-11.331324 22.662649,-30.163666 32.238416,-34.233367 14.28385,-6.1444506 37.58488,-2.07475 21.54548,31.440435 -2.63334,5.585864 -4.3889,11.171728 -10.13436,12.608093 -1.11717,-8.059604 0.71819,-7.341421 8.05961,-19.151534 5.50606,-8.857584 5.02727,-13.645468 0.47879,-21.226283 -16.4384,-2.234346 -24.338413,4.628287 -35.270747,15.241429 -6.383845,6.14445 -17.874765,17.954563 -19.390928,31.20104 40.377815,-9.655565 50.911165,13.725267 63.519255,-26.971743 1.59596,-5.107076 2.15455,-7.42122 1.75556,-13.725266 -0.47879,-6.543441 -0.2394,-7.900008 -4.94748,-10.533344 C 109.85953,0.18763524 96.932243,9.2048158 84.563544,18.780583 74.349393,26.760389 64.135241,49.742229 63.736251,60.834159 Z"
       fill="#fef3f3"
       id="path9" /><path
       d="m 18.251358,134.88676 c 1.516163,-1.11718 1.516163,-0.2394 3.191922,-4.0697 l 6.383845,-17.79497 c -12.528295,1.03737 -12.528295,13.72527 -9.575767,21.86467 z"
       fill="#efefef"
       id="path10" /><path
       d="m 31.338239,228.25049 c -1.117172,-4.4687 -14.842438,-8.4586 -20.10911,-7.97981 0.718182,8.2192 11.570718,9.01718 20.10911,7.97981 z"
       fill="#faf1f1"
       id="path11" /></g><path
     id="path7-6"
     style="color:#000000;fill:#ffffff;fill-opacity:1;stroke:#000000;stroke-width:9.87972;stroke-linejoin:round;stroke-dasharray:none;stroke-opacity:1;paint-order:markers fill stroke"
     d="m 296.62493,177.56674 v 46.5694 c -5.9568,1.88135 -11.694,4.26812 -17.19228,7.06774 l -32.89174,-32.89174 -49.14333,49.14332 32.55704,32.557 c -2.94334,5.58981 -5.4354,11.44495 -7.42174,17.52317 h -45.87876 v 69.50011 h 45.82683 c 1.98289,6.09701 4.47831,11.9682 7.42363,17.57508 l -32.50509,32.5051 49.14333,49.14332 32.79172,-32.7917 c 5.52822,2.82173 11.29787,5.22697 17.29039,7.11966 v 46.41356 h 69.50009 v -47.08109 c 5.75555,-1.93525 11.31067,-4.31661 16.62286,-7.11391 l 33.45155,33.45154 49.14332,-49.14331 -33.78819,-33.7882 c 2.65711,-5.21829 4.9297,-10.65668 6.76188,-16.29005 h 47.77169 v -69.50011 h -47.82364 c -1.83498,-5.61486 -4.10503,-11.03673 -6.75994,-16.23811 l 33.84206,-33.84206 -49.14332,-49.14332 -33.55543,33.55543 c -5.28224,-2.77481 -10.80302,-5.14073 -16.52284,-7.06391 v -47.23692 z m 33.77278,102.07637 a 56.875216,52.719141 0 0 1 56.87475,52.7176 56.875216,52.719141 0 0 1 -56.87475,52.71952 56.875216,52.719141 0 0 1 -56.87473,-52.71952 56.875216,52.719141 0 0 1 56.87473,-52.7176 z" /></svg>
