<?xml version="1.0" encoding="UTF-8" standalone="no"?>
<!-- Created with Inkscape (http://www.inkscape.org/) -->

<svg
   width="500"
   height="500"
   viewBox="0 0 500 500"
   version="1.1"
   id="svg1"
   inkscape:version="1.3.2 (091e20ef0f, 2023-11-25, custom)"
   sodipodi:docname="entity.js.svg"
   xml:space="preserve"
   xmlns:inkscape="http://www.inkscape.org/namespaces/inkscape"
   xmlns:sodipodi="http://sodipodi.sourceforge.net/DTD/sodipodi-0.dtd"
   xmlns:xlink="http://www.w3.org/1999/xlink"
   xmlns="http://www.w3.org/2000/svg"
   xmlns:svg="http://www.w3.org/2000/svg"><sodipodi:namedview
     id="namedview1"
     pagecolor="#505050"
     bordercolor="#eeeeee"
     borderopacity="1"
     inkscape:showpageshadow="0"
     inkscape:pageopacity="0"
     inkscape:pagecheckerboard="0"
     inkscape:deskcolor="#505050"
     inkscape:document-units="px"
     inkscape:zoom="0.96390292"
     inkscape:cx="279.07375"
     inkscape:cy="234.98217"
     inkscape:window-width="1352"
     inkscape:window-height="734"
     inkscape:window-x="4"
     inkscape:window-y="24"
     inkscape:window-maximized="1"
     inkscape:current-layer="svg1"
     showguides="true"><sodipodi:guide
       position="250.02518,350.60736"
       orientation="-0.99997769,0.0066803918"
       id="guide30"
       inkscape:locked="false" /><sodipodi:guide
       position="66.396728,247.89992"
       orientation="0,-1"
       id="guide53"
       inkscape:locked="false" /></sodipodi:namedview><defs
     id="defs1"><linearGradient
       id="swatch61"
       inkscape:swatch="solid"><stop
         style="stop-color:#5090d0;stop-opacity:1;"
         offset="0"
         id="stop61" /></linearGradient><linearGradient
       id="swatch30"
       inkscape:swatch="solid"><stop
         style="stop-color:#f9f9f9;stop-opacity:1;"
         offset="0"
         id="stop30" /></linearGradient><inkscape:perspective
       sodipodi:type="inkscape:persp3d"
       inkscape:vp_x="44.06818 : 315.96746 : 1"
       inkscape:vp_y="0 : 1000 : 0"
       inkscape:vp_z="480.74134 : 298.68846 : 1"
       inkscape:persp3d-origin="250 : 166.66667 : 1"
       id="perspective17" /><linearGradient
       id="linearGradient9"
       inkscape:collect="always"><stop
         style="stop-color:#ff215a;stop-opacity:1;"
         offset="0.00082003"
         id="stop8" /><stop
         style="stop-color:#ff8c62;stop-opacity:1;"
         offset="1"
         id="stop9" /></linearGradient><inkscape:perspective
       sodipodi:type="inkscape:persp3d"
       inkscape:vp_x="44.06818 : 315.96746 : 1"
       inkscape:vp_y="0 : 1000 : 0"
       inkscape:vp_z="480.74134 : 298.68846 : 1"
       inkscape:persp3d-origin="250 : 166.66667 : 1"
       id="perspective17-9" /><inkscape:perspective
       sodipodi:type="inkscape:persp3d"
       inkscape:vp_x="44.06818 : 315.96746 : 1"
       inkscape:vp_y="0 : 1000 : 0"
       inkscape:vp_z="480.74134 : 298.68846 : 1"
       inkscape:persp3d-origin="250 : 166.66667 : 1"
       id="perspective17-2" /><inkscape:perspective
       sodipodi:type="inkscape:persp3d"
       inkscape:vp_x="44.06818 : 315.96746 : 1"
       inkscape:vp_y="0 : 1000 : 0"
       inkscape:vp_z="480.74134 : 298.68846 : 1"
       inkscape:persp3d-origin="250 : 166.66667 : 1"
       id="perspective17-4" /><inkscape:perspective
       sodipodi:type="inkscape:persp3d"
       inkscape:vp_x="44.06818 : 315.96746 : 1"
       inkscape:vp_y="0 : 1000 : 0"
       inkscape:vp_z="480.74134 : 298.68846 : 1"
       inkscape:persp3d-origin="250 : 166.66667 : 1"
       id="perspective17-29" /><inkscape:perspective
       sodipodi:type="inkscape:persp3d"
       inkscape:vp_x="44.06818 : 315.96746 : 1"
       inkscape:vp_y="0 : 1000 : 0"
       inkscape:vp_z="480.74134 : 298.68846 : 1"
       inkscape:persp3d-origin="250 : 166.66667 : 1"
       id="perspective17-2-1" /><inkscape:perspective
       sodipodi:type="inkscape:persp3d"
       inkscape:vp_x="44.06818 : 315.96746 : 1"
       inkscape:vp_y="0 : 1000 : 0"
       inkscape:vp_z="480.74134 : 298.68846 : 1"
       inkscape:persp3d-origin="250 : 166.66667 : 1"
       id="perspective17-4-27" /><inkscape:perspective
       sodipodi:type="inkscape:persp3d"
       inkscape:vp_x="44.06818 : 315.96746 : 1"
       inkscape:vp_y="0 : 1000 : 0"
       inkscape:vp_z="480.74134 : 298.68846 : 1"
       inkscape:persp3d-origin="250 : 166.66667 : 1"
       id="perspective17-1" /><inkscape:perspective
       sodipodi:type="inkscape:persp3d"
       inkscape:vp_x="44.06818 : 315.96746 : 1"
       inkscape:vp_y="0 : 1000 : 0"
       inkscape:vp_z="480.74134 : 298.68846 : 1"
       inkscape:persp3d-origin="250 : 166.66667 : 1"
       id="perspective17-4-7" /><inkscape:perspective
       sodipodi:type="inkscape:persp3d"
       inkscape:vp_x="44.06818 : 315.96746 : 1"
       inkscape:vp_y="0 : 1000 : 0"
       inkscape:vp_z="480.74134 : 298.68846 : 1"
       inkscape:persp3d-origin="250 : 166.66667 : 1"
       id="perspective17-7" /><inkscape:perspective
       sodipodi:type="inkscape:persp3d"
       inkscape:vp_x="44.06818 : 315.96746 : 1"
       inkscape:vp_y="0 : 1000 : 0"
       inkscape:vp_z="480.74134 : 298.68846 : 1"
       inkscape:persp3d-origin="250 : 166.66667 : 1"
       id="perspective17-2-9" /><inkscape:perspective
       sodipodi:type="inkscape:persp3d"
       inkscape:vp_x="44.06818 : 315.96746 : 1"
       inkscape:vp_y="0 : 1000 : 0"
       inkscape:vp_z="480.74134 : 298.68846 : 1"
       inkscape:persp3d-origin="250 : 166.66667 : 1"
       id="perspective17-4-2" /><inkscape:perspective
       sodipodi:type="inkscape:persp3d"
       inkscape:vp_x="44.06818 : 315.96746 : 1"
       inkscape:vp_y="0 : 1000 : 0"
       inkscape:vp_z="480.74134 : 298.68846 : 1"
       inkscape:persp3d-origin="250 : 166.66667 : 1"
       id="perspective17-18" /><inkscape:perspective
       sodipodi:type="inkscape:persp3d"
       inkscape:vp_x="44.06818 : 315.96746 : 1"
       inkscape:vp_y="0 : 1000 : 0"
       inkscape:vp_z="480.74134 : 298.68846 : 1"
       inkscape:persp3d-origin="250 : 166.66667 : 1"
       id="perspective17-2-7" /><inkscape:perspective
       sodipodi:type="inkscape:persp3d"
       inkscape:vp_x="44.06818 : 315.96746 : 1"
       inkscape:vp_y="0 : 1000 : 0"
       inkscape:vp_z="480.74134 : 298.68846 : 1"
       inkscape:persp3d-origin="250 : 166.66667 : 1"
       id="perspective17-4-9" /><linearGradient
       inkscape:collect="always"
       xlink:href="#linearGradient9"
       id="linearGradient11-3"
       x1="100.98894"
       y1="114.12765"
       x2="401.4415"
       y2="114.12765"
       gradientUnits="userSpaceOnUse"
       gradientTransform="translate(0,-25.843018)" /></defs><path
     id="path2-0"
     style="color:#000000;fill:url(#linearGradient11-3);stroke-width:0.858436;stroke-linecap:round;stroke-miterlimit:10;-inkscape-stroke:none"
     d="M 251.21387 -5.3396919 C 212.01301 -5.3396919 176.54927 -1.5391751 150.09634 4.8898348 C 136.86989 8.1043394 125.91751 11.888292 117.38457 16.791334 C 108.87392 21.681569 101.03385 28.639556 100.99293 39.298816 L 100.98873 39.298816 L 100.98873 138.60977 L 101.05813 138.60977 C 101.72407 148.51213 109.23829 155.09671 117.38457 159.77757 C 125.9175 164.68061 136.87199 168.46457 150.09845 171.67907 C 176.55133 178.10808 212.01515 181.9086 251.21597 181.9086 C 290.4168 181.9086 325.88059 178.10808 352.3335 171.67907 C 365.55993 168.46457 376.51233 164.68061 385.04527 159.77757 C 393.19154 155.09671 400.70578 148.51213 401.37171 138.60977 L 401.44111 138.60977 L 401.44111 39.298816 L 401.43901 39.298816 C 401.39741 28.639556 393.55592 21.681569 385.04527 16.791334 C 376.51232 11.888292 365.55995 8.1043394 352.3335 4.8898348 C 325.88056 -1.5391751 290.41474 -5.3396919 251.21387 -5.3396919 z M 251.21387 16.353887 C 288.99016 16.353887 323.2178 20.138257 347.21032 25.969306 C 359.20659 28.88483 368.66435 32.399279 374.23739 35.601549 C 377.4403 37.441956 378.69782 38.762077 379.25961 39.380838 C 378.69764 39.99978 377.4397 41.322164 374.23739 43.162229 C 368.66435 46.364509 359.20659 49.878949 347.21032 52.794473 C 323.2178 58.625511 288.99016 62.409891 251.21387 62.409891 C 213.43759 62.409891 179.21205 58.625511 155.21952 52.794473 C 143.22326 49.878949 133.76549 46.364509 128.19245 43.162229 C 124.99012 41.322164 123.73221 39.99978 123.17023 39.380838 C 123.73203 38.762077 124.98953 37.441956 128.19245 35.601549 C 133.76549 32.399279 143.22326 28.88483 155.21952 25.969306 C 179.21205 20.138257 213.43759 16.353887 251.21387 16.353887 z M 398.41264 180.08099 C 395.36153 185.14423 390.35729 189.02903 385.04527 192.08134 C 376.51233 196.98436 365.55783 200.77047 352.33139 203.98494 C 325.87853 210.41397 290.41466 214.21237 251.21387 214.21237 C 212.01309 214.21237 176.54921 210.41397 150.09634 203.98494 C 136.86991 200.77047 125.91749 196.98436 117.38457 192.08134 C 112.07316 189.02939 107.06841 185.14545 104.01721 180.0831 C 102.14981 183.14802 101.00633 186.65221 100.99083 190.69118 L 100.98873 190.69118 L 100.98873 290.00003 L 101.05603 290.00003 C 101.72197 299.90237 109.2383 306.48696 117.38457 311.16784 C 125.91749 316.07084 136.86991 319.85694 150.09634 323.07144 C 176.54921 329.50044 212.01309 333.29886 251.21387 333.29886 C 275.88063 333.29886 299.05578 331.79068 319.44927 329.07371 L 319.44927 272.26451 C 319.44933 257.99496 331.30456 246.13762 345.5741 246.13547 A 13.46125 13.46125 0 0 0 345.57621 246.13547 L 367.02582 246.13547 A 13.46125 13.46125 0 0 0 367.02793 246.13547 C 381.29748 246.1379 393.1527 257.99496 393.15276 272.26451 L 393.15276 305.41373 C 397.62929 301.40286 400.94112 296.40288 401.37171 290.00003 L 401.44111 290.00003 L 401.44111 190.69118 L 401.43901 190.69118 C 401.42351 186.65158 400.28266 183.14626 398.41474 180.08099 L 398.41264 180.08099 z M 346.36908 273.05528 L 346.36908 324.39009 C 348.36887 323.95418 350.42338 323.53515 352.33139 323.07144 C 357.32879 321.85689 361.89231 320.52475 366.23295 319.11759 L 366.23295 273.05528 L 346.36908 273.05528 z M 103.28322 331.2967 C 101.89042 334.01611 101.004 337.02737 100.99083 340.45995 L 100.98873 340.45995 L 100.98873 439.7709 L 101.05603 439.7709 C 101.72197 449.67327 109.2383 456.25783 117.38457 460.93871 C 125.91749 465.84171 136.86991 469.62571 150.09634 472.84021 C 176.54921 479.26921 212.01309 483.06973 251.21387 483.06973 C 272.44157 483.06973 292.50383 481.9221 310.70244 479.87931 C 298.26428 478.7014 285.57866 474.92858 273.72766 467.81798 C 262.90399 461.32252 258.2492 447.75293 262.80621 435.9811 L 269.00828 419.95961 C 274.49114 405.79449 291.46881 399.22754 305.05559 406.01809 A 13.46125 13.46125 0 0 0 305.05769 406.0202 C 306.45636 406.71953 316.9321 409.13476 318.56807 409.18117 C 318.95736 407.89669 319.44927 405.6923 319.44927 402.25563 L 319.44927 362.55102 C 299.05629 365.26781 275.88188 366.77617 251.21597 366.77617 C 212.01519 366.77617 176.5513 362.97777 150.09845 356.54874 C 136.872 353.33427 125.9196 349.54817 117.38668 344.64514 C 111.61527 341.32888 106.21188 337.02677 103.28532 331.2967 L 103.28322 331.2967 z M 366.23295 352.5949 C 361.89285 354.00181 357.33016 355.33438 352.3335 356.54874 C 350.42484 357.01262 348.36957 357.43135 346.36908 357.86739 L 346.36908 402.25563 C 346.36908 413.03855 344.26477 421.04494 339.24584 427.23847 C 337.42622 429.48398 334.25559 432.43273 330.36441 434.07989 C 326.47324 435.72705 322.60452 436.12622 318.69846 436.12622 C 310.02117 436.12622 301.86859 434.32338 293.81446 430.43941 L 288.16551 445.03289 C 298.14894 450.8774 308.76779 453.40747 319.21583 453.40747 C 334.06203 453.40747 346.13821 448.47123 353.96131 439.62369 C 361.95878 430.57892 366.23295 417.22279 366.23295 399.92959 L 366.23295 352.5949 z M 393.05181 403.01696 C 393.04341 403.35991 393.02936 403.7011 393.01816 404.04327 C 393.29009 403.90939 393.55789 403.77886 393.83417 403.6542 C 393.57985 403.4306 393.30252 403.24611 393.05181 403.01696 z M 401.00787 442.08433 L 400.5515 443.64694 C 400.5947 443.66621 400.64074 443.6824 400.684 443.70162 C 400.82608 443.17967 400.90719 442.62751 401.00787 442.08433 z M 375.96194 455.12781 C 375.3409 455.89702 374.78892 456.70879 374.13013 457.45385 C 368.67804 463.61991 362.17974 468.48137 355.01917 472.12515 C 365.28271 469.50209 374.07716 466.4693 381.37745 462.79996 C 379.12007 460.57478 377.28657 457.97177 375.96194 455.12781 z "
     transform="matrix(0.92868422,0,0,0.92868422,17.773909,31.152247)" /><path
     style="color:#000000;-inkscape-font-specification:System-ui;fill:#ffc340;stroke-linejoin:round;-inkscape-stroke:none;paint-order:markers fill stroke"
     d="M 338.70508,272.23437 A 11.765676,11.765676 0 0 0 326.94141,284 v 120.7207 c 0,8.07054 -1.88212,12.93299 -3.82618,15.33203 -1.94405,2.39905 -4.02347,3.62305 -9.37109,3.62305 -4.84709,0 -13.74253,-2.02165 -18.25781,-4.2793 a 11.765676,11.765676 0 0 0 -16.23242,6.27735 l -5.75977,14.8789 a 11.765676,11.765676 0 0 0 4.91797,14.33594 c 11.47912,6.88747 23.86513,9.83594 35.8125,9.83594 16.65246,0 31.64444,-5.72511 41.63281,-17.02149 9.98837,-11.29637 14.53125,-26.99637 14.53125,-45.14257 V 284 A 11.765676,11.765676 0 0 0 358.625,272.23437 Z m 101.04101,48.48047 c -16.72544,0 -31.39015,3.55282 -42.63086,11.48047 -11.2407,7.92766 -18.33398,20.95676 -18.33398,35.32422 0,13.63279 6.85394,24.94262 15.64062,31.28516 8.78669,6.34253 18.69294,9.04931 27.64454,11.34179 8.95159,2.29249 17.17697,4.19925 21.625,6.27344 2.22401,1.0371 3.32692,2.00199 3.64257,2.39063 0.31566,0.38864 0.32618,0.114 0.32618,1.26953 0,1.80412 0.20885,1.38664 -1.32618,2.38867 -1.53502,1.00203 -5.67479,2.40625 -12.10937,2.40625 -10.08701,0 -25.72416,-3.1852 -36.13867,-7.67773 a 11.765676,11.765676 0 0 0 -15.95313,7.50195 l -4.56054,15.59961 a 11.765676,11.765676 0 0 0 6.42382,14.01172 c 14.97032,6.80469 32.34905,10.41406 48.78907,10.41406 16.12539,0 30.22606,-3.71599 40.85937,-11.78125 10.63331,-8.06527 16.98438,-20.88671 16.98438,-34.7832 0,-13.81036 -6.71075,-25.25825 -15.47071,-31.87891 -8.75995,-6.62066 -18.75705,-9.58426 -27.81445,-12.00586 -9.0574,-2.4216 -17.43632,-4.33148 -22.05273,-6.36719 -2.30821,-1.01785 -3.49189,-1.99519 -3.73438,-2.27148 -0.24249,-0.27629 -0.0469,0.40231 -0.0469,-0.27735 0,-0.83839 -0.45718,-0.60603 1.79296,-1.93945 2.25015,-1.33342 7.35206,-2.85547 14.52149,-2.85547 8.11836,0 18.7566,1.9378 27.39844,4.88867 a 11.765676,11.765676 0 0 0 15.09375,-7.83203 l 4.56054,-15.59961 a 11.765676,11.765676 0 0 0 -6.78515,-14.16992 c -11.54641,-4.78753 -24.72166,-7.13672 -38.34571,-7.13672 z"
     id="path2" /></svg>
