<?xml version="1.0" encoding="UTF-8" standalone="no"?>
<!-- Created with Inkscape (http://www.inkscape.org/) -->

<svg
   width="500"
   height="500"
   viewBox="0 0 500 500"
   version="1.1"
   id="svg1"
   inkscape:version="1.3.2 (091e20ef0f, 2023-11-25, custom)"
   sodipodi:docname="entity.ts.svg"
   xml:space="preserve"
   xmlns:inkscape="http://www.inkscape.org/namespaces/inkscape"
   xmlns:sodipodi="http://sodipodi.sourceforge.net/DTD/sodipodi-0.dtd"
   xmlns:xlink="http://www.w3.org/1999/xlink"
   xmlns="http://www.w3.org/2000/svg"
   xmlns:svg="http://www.w3.org/2000/svg"><sodipodi:namedview
     id="namedview1"
     pagecolor="#505050"
     bordercolor="#eeeeee"
     borderopacity="1"
     inkscape:showpageshadow="0"
     inkscape:pageopacity="0"
     inkscape:pagecheckerboard="0"
     inkscape:deskcolor="#505050"
     inkscape:document-units="px"
     inkscape:zoom="0.96390292"
     inkscape:cx="279.07375"
     inkscape:cy="234.98217"
     inkscape:window-width="1352"
     inkscape:window-height="734"
     inkscape:window-x="4"
     inkscape:window-y="24"
     inkscape:window-maximized="1"
     inkscape:current-layer="svg1"
     showguides="true"><sodipodi:guide
       position="250.02518,350.60736"
       orientation="-0.99997769,0.0066803918"
       id="guide30"
       inkscape:locked="false" /><sodipodi:guide
       position="66.396728,247.89992"
       orientation="0,-1"
       id="guide53"
       inkscape:locked="false" /></sodipodi:namedview><defs
     id="defs1"><linearGradient
       id="swatch61"
       inkscape:swatch="solid"><stop
         style="stop-color:#5090d0;stop-opacity:1;"
         offset="0"
         id="stop61" /></linearGradient><linearGradient
       id="swatch30"
       inkscape:swatch="solid"><stop
         style="stop-color:#f9f9f9;stop-opacity:1;"
         offset="0"
         id="stop30" /></linearGradient><inkscape:perspective
       sodipodi:type="inkscape:persp3d"
       inkscape:vp_x="44.06818 : 315.96746 : 1"
       inkscape:vp_y="0 : 1000 : 0"
       inkscape:vp_z="480.74134 : 298.68846 : 1"
       inkscape:persp3d-origin="250 : 166.66667 : 1"
       id="perspective17" /><linearGradient
       id="linearGradient9"
       inkscape:collect="always"><stop
         style="stop-color:#ff215a;stop-opacity:1;"
         offset="0.00082003"
         id="stop8" /><stop
         style="stop-color:#ff8c62;stop-opacity:1;"
         offset="1"
         id="stop9" /></linearGradient><inkscape:perspective
       sodipodi:type="inkscape:persp3d"
       inkscape:vp_x="44.06818 : 315.96746 : 1"
       inkscape:vp_y="0 : 1000 : 0"
       inkscape:vp_z="480.74134 : 298.68846 : 1"
       inkscape:persp3d-origin="250 : 166.66667 : 1"
       id="perspective17-9" /><inkscape:perspective
       sodipodi:type="inkscape:persp3d"
       inkscape:vp_x="44.06818 : 315.96746 : 1"
       inkscape:vp_y="0 : 1000 : 0"
       inkscape:vp_z="480.74134 : 298.68846 : 1"
       inkscape:persp3d-origin="250 : 166.66667 : 1"
       id="perspective17-2" /><inkscape:perspective
       sodipodi:type="inkscape:persp3d"
       inkscape:vp_x="44.06818 : 315.96746 : 1"
       inkscape:vp_y="0 : 1000 : 0"
       inkscape:vp_z="480.74134 : 298.68846 : 1"
       inkscape:persp3d-origin="250 : 166.66667 : 1"
       id="perspective17-4" /><inkscape:perspective
       sodipodi:type="inkscape:persp3d"
       inkscape:vp_x="44.06818 : 315.96746 : 1"
       inkscape:vp_y="0 : 1000 : 0"
       inkscape:vp_z="480.74134 : 298.68846 : 1"
       inkscape:persp3d-origin="250 : 166.66667 : 1"
       id="perspective17-29" /><inkscape:perspective
       sodipodi:type="inkscape:persp3d"
       inkscape:vp_x="44.06818 : 315.96746 : 1"
       inkscape:vp_y="0 : 1000 : 0"
       inkscape:vp_z="480.74134 : 298.68846 : 1"
       inkscape:persp3d-origin="250 : 166.66667 : 1"
       id="perspective17-2-1" /><inkscape:perspective
       sodipodi:type="inkscape:persp3d"
       inkscape:vp_x="44.06818 : 315.96746 : 1"
       inkscape:vp_y="0 : 1000 : 0"
       inkscape:vp_z="480.74134 : 298.68846 : 1"
       inkscape:persp3d-origin="250 : 166.66667 : 1"
       id="perspective17-4-27" /><inkscape:perspective
       sodipodi:type="inkscape:persp3d"
       inkscape:vp_x="44.06818 : 315.96746 : 1"
       inkscape:vp_y="0 : 1000 : 0"
       inkscape:vp_z="480.74134 : 298.68846 : 1"
       inkscape:persp3d-origin="250 : 166.66667 : 1"
       id="perspective17-1" /><inkscape:perspective
       sodipodi:type="inkscape:persp3d"
       inkscape:vp_x="44.06818 : 315.96746 : 1"
       inkscape:vp_y="0 : 1000 : 0"
       inkscape:vp_z="480.74134 : 298.68846 : 1"
       inkscape:persp3d-origin="250 : 166.66667 : 1"
       id="perspective17-4-7" /><inkscape:perspective
       sodipodi:type="inkscape:persp3d"
       inkscape:vp_x="44.06818 : 315.96746 : 1"
       inkscape:vp_y="0 : 1000 : 0"
       inkscape:vp_z="480.74134 : 298.68846 : 1"
       inkscape:persp3d-origin="250 : 166.66667 : 1"
       id="perspective17-7" /><inkscape:perspective
       sodipodi:type="inkscape:persp3d"
       inkscape:vp_x="44.06818 : 315.96746 : 1"
       inkscape:vp_y="0 : 1000 : 0"
       inkscape:vp_z="480.74134 : 298.68846 : 1"
       inkscape:persp3d-origin="250 : 166.66667 : 1"
       id="perspective17-2-9" /><inkscape:perspective
       sodipodi:type="inkscape:persp3d"
       inkscape:vp_x="44.06818 : 315.96746 : 1"
       inkscape:vp_y="0 : 1000 : 0"
       inkscape:vp_z="480.74134 : 298.68846 : 1"
       inkscape:persp3d-origin="250 : 166.66667 : 1"
       id="perspective17-4-2" /><inkscape:perspective
       sodipodi:type="inkscape:persp3d"
       inkscape:vp_x="44.06818 : 315.96746 : 1"
       inkscape:vp_y="0 : 1000 : 0"
       inkscape:vp_z="480.74134 : 298.68846 : 1"
       inkscape:persp3d-origin="250 : 166.66667 : 1"
       id="perspective17-18" /><inkscape:perspective
       sodipodi:type="inkscape:persp3d"
       inkscape:vp_x="44.06818 : 315.96746 : 1"
       inkscape:vp_y="0 : 1000 : 0"
       inkscape:vp_z="480.74134 : 298.68846 : 1"
       inkscape:persp3d-origin="250 : 166.66667 : 1"
       id="perspective17-2-7" /><inkscape:perspective
       sodipodi:type="inkscape:persp3d"
       inkscape:vp_x="44.06818 : 315.96746 : 1"
       inkscape:vp_y="0 : 1000 : 0"
       inkscape:vp_z="480.74134 : 298.68846 : 1"
       inkscape:persp3d-origin="250 : 166.66667 : 1"
       id="perspective17-4-9" /><linearGradient
       inkscape:collect="always"
       xlink:href="#linearGradient9"
       id="linearGradient11-3"
       x1="100.98894"
       y1="114.12765"
       x2="401.4415"
       y2="114.12765"
       gradientUnits="userSpaceOnUse"
       gradientTransform="translate(0,-25.843018)" /><inkscape:perspective
       sodipodi:type="inkscape:persp3d"
       inkscape:vp_x="44.06818 : 315.96746 : 1"
       inkscape:vp_y="0 : 1000 : 0"
       inkscape:vp_z="480.74134 : 298.68846 : 1"
       inkscape:persp3d-origin="250 : 166.66667 : 1"
       id="perspective17-6" /><inkscape:perspective
       sodipodi:type="inkscape:persp3d"
       inkscape:vp_x="44.06818 : 315.96746 : 1"
       inkscape:vp_y="0 : 1000 : 0"
       inkscape:vp_z="480.74134 : 298.68846 : 1"
       inkscape:persp3d-origin="250 : 166.66667 : 1"
       id="perspective17-3" /></defs><path
     id="path2-0"
     style="color:#000000;fill:url(#linearGradient11-3);stroke-width:0.858436;stroke-linecap:round;stroke-miterlimit:10;-inkscape-stroke:none"
     d="M 251.21387 -5.3396919 C 212.01301 -5.3396919 176.54927 -1.5391751 150.09634 4.8898348 C 136.86989 8.1043394 125.91751 11.888292 117.38457 16.791334 C 108.87392 21.681569 101.03385 28.639556 100.99293 39.298816 L 100.98873 39.298816 L 100.98873 138.60977 L 101.05813 138.60977 C 101.72407 148.51213 109.23829 155.09671 117.38457 159.77757 C 125.9175 164.68061 136.87199 168.46457 150.09845 171.67907 C 176.55133 178.10808 212.01515 181.9086 251.21597 181.9086 C 290.4168 181.9086 325.88059 178.10808 352.3335 171.67907 C 365.55993 168.46457 376.51233 164.68061 385.04527 159.77757 C 393.19154 155.09671 400.70578 148.51213 401.37171 138.60977 L 401.44111 138.60977 L 401.44111 39.298816 L 401.43901 39.298816 C 401.39741 28.639556 393.55592 21.681569 385.04527 16.791334 C 376.51232 11.888292 365.55995 8.1043394 352.3335 4.8898348 C 325.88056 -1.5391751 290.41474 -5.3396919 251.21387 -5.3396919 z M 251.21387 16.353887 C 288.99016 16.353887 323.2178 20.138257 347.21032 25.969306 C 359.20659 28.88483 368.66435 32.399279 374.23739 35.601549 C 377.4403 37.441956 378.69782 38.762077 379.25961 39.380838 C 378.69764 39.99978 377.4397 41.322164 374.23739 43.162229 C 368.66435 46.364509 359.20659 49.878949 347.21032 52.794473 C 323.2178 58.625511 288.99016 62.409891 251.21387 62.409891 C 213.43759 62.409891 179.21205 58.625511 155.21952 52.794473 C 143.22326 49.878949 133.76549 46.364509 128.19245 43.162229 C 124.99012 41.322164 123.73221 39.99978 123.17023 39.380838 C 123.73203 38.762077 124.98953 37.441956 128.19245 35.601549 C 133.76549 32.399279 143.22326 28.88483 155.21952 25.969306 C 179.21205 20.138257 213.43759 16.353887 251.21387 16.353887 z M 398.41264 180.08099 C 395.36153 185.14423 390.35729 189.02903 385.04527 192.08134 C 376.51233 196.98436 365.55783 200.77047 352.33139 203.98494 C 325.87853 210.41397 290.41466 214.21237 251.21387 214.21237 C 212.01309 214.21237 176.54921 210.41397 150.09634 203.98494 C 136.86991 200.77047 125.91749 196.98436 117.38457 192.08134 C 112.07316 189.02939 107.06841 185.14545 104.01721 180.0831 C 102.14981 183.14802 101.00633 186.65221 100.99083 190.69118 L 100.98873 190.69118 L 100.98873 290.00003 L 101.05603 290.00003 C 101.72197 299.90237 109.2383 306.48696 117.38457 311.16784 C 125.91749 316.07084 136.86991 319.85694 150.09634 323.07144 C 176.54921 329.50044 212.01309 333.29886 251.21387 333.29886 C 260.74511 333.29886 270.04334 333.06659 279.05694 332.63428 L 279.05694 320.40259 L 248.18119 320.40259 A 16.153499 16.153499 0 0 0 248.17908 320.40259 C 232.45484 320.40253 219.36232 307.31001 219.36017 291.58578 A 16.153499 16.153499 0 0 0 219.36017 291.58368 L 219.36017 272.97746 C 219.36024 257.25146 232.45307 244.15651 248.17908 244.15644 A 16.153499 16.153499 0 0 0 248.18119 244.15644 L 389.28304 244.15644 A 16.153499 16.153499 0 0 0 389.28514 244.15644 C 393.61459 244.15718 397.72904 245.17787 401.44111 246.94517 L 401.44111 190.69118 L 401.43901 190.69118 C 401.42351 186.65158 400.28266 183.14626 398.41474 180.08099 L 398.41264 180.08099 z M 251.66394 276.46021 L 251.66394 288.09882 L 295.20883 288.09882 A 16.153499 16.153499 0 0 1 303.25112 290.25451 A 16.153499 16.153499 0 0 1 305.84846 276.46021 L 251.66394 276.46021 z M 332.26773 276.46021 A 16.153499 16.153499 0 0 1 334.39607 290.13463 A 16.153499 16.153499 0 0 1 341.99461 288.09882 L 385.79818 288.09882 L 385.79818 276.46021 L 332.26773 276.46021 z M 306.33848 281.51819 L 318.60172 300.97617 L 330.86495 281.51819 L 306.33848 281.51819 z M 303.36889 292.26719 C 303.41014 292.38411 303.45839 292.50024 303.5119 292.6121 A 16.153499 16.153499 0 0 1 303.49087 292.42913 A 16.153499 16.153499 0 0 1 303.36889 292.26719 z M 333.83244 292.26719 A 16.153499 16.153499 0 0 1 333.76093 292.36183 A 16.153499 16.153499 0 0 1 333.68943 292.6121 C 333.74296 292.50024 333.7912 292.38411 333.83244 292.26719 z M 310.33019 300.41253 A 16.153499 16.153499 0 0 1 311.36071 304.25071 L 311.36071 330.03273 C 316.34387 329.46589 321.16984 328.82993 325.84273 328.12731 L 325.84273 304.25071 A 16.153499 16.153499 0 0 1 326.87115 300.41253 A 16.153499 16.153499 0 0 1 310.33019 300.41253 z M 358.14649 320.40259 L 358.14649 321.52355 C 359.51983 321.15054 360.94641 320.79206 362.26438 320.40259 L 358.14649 320.40259 z M 103.28322 331.2967 C 101.89042 334.01611 101.004 337.02737 100.99083 340.45995 L 100.98873 340.45995 L 100.98873 439.7709 L 101.05603 439.7709 C 101.72197 449.67327 109.2383 456.25783 117.38457 460.93871 C 125.91749 465.84171 136.86991 469.62571 150.09634 472.84021 C 176.54921 479.26921 212.01309 483.06973 251.21387 483.06973 C 269.46899 483.06973 286.85709 482.2148 302.95879 480.68481 C 289.51634 478.29725 279.05701 466.37649 279.05694 452.32647 L 279.05694 366.11158 C 270.04399 366.54383 260.74649 366.77617 251.21597 366.77617 C 212.01519 366.77617 176.5513 362.97777 150.09845 356.54874 C 136.872 353.33427 125.9196 349.54817 117.38668 344.64514 C 111.61527 341.32888 106.21188 337.02677 103.28532 331.2967 L 103.28322 331.2967 z M 378.66864 347.88183 C 372.74095 350.59182 365.83994 352.91135 358.14649 355.00085 L 358.14649 452.32647 C 358.14645 460.74658 354.37017 468.38858 348.46798 473.69407 C 349.74311 473.4052 351.0951 473.14067 352.33139 472.84021 C 363.76144 470.0623 373.3827 466.81046 381.32277 462.8273 C 375.6277 455.66644 373.40343 445.95319 376.09233 436.74874 A 16.153499 16.153499 0 0 0 376.09233 436.74663 L 381.00309 419.94909 A 16.153499 16.153499 0 0 0 381.00309 419.94699 C 383.05523 412.92922 387.73566 407.43488 393.56076 403.83717 C 383.5507 393.79336 376.74429 379.48737 376.74429 362.91065 C 376.74429 357.74613 377.45512 352.7251 378.66864 347.88183 z M 325.84273 361.60462 C 321.16982 362.30721 316.34388 362.94321 311.36071 363.51004 L 311.36071 448.84372 L 325.84273 448.84372 L 325.84273 361.60462 z "
     transform="matrix(0.92868422,0,0,0.92868422,17.773909,31.152247)" /><path
     style="color:#000000;-inkscape-font-specification:System-ui;fill:#3178c6;stroke-linejoin:round;-inkscape-stroke:none;paint-order:markers fill stroke"
     d="m 245.88086,269.02344 a 11.765676,11.765676 0 0 0 -11.76563,11.76562 v 17.2793 a 11.765676,11.765676 0 0 0 11.76563,11.76367 h 43.67383 v 137.51563 a 11.765676,11.765676 0 0 0 11.76562,11.76562 h 19.91992 a 11.765676,11.765676 0 0 0 11.76368,-11.76562 V 309.83203 h 43.91601 a 11.765676,11.765676 0 0 0 11.76367,-11.76367 v -17.2793 a 11.765676,11.765676 0 0 0 -11.76367,-11.76562 z m 64.91797,23.52929 h 0.96094 a 11.765676,11.765676 0 0 0 -0.48047,1.16016 11.765676,11.765676 0 0 0 -0.48047,-1.16016 z m 130.4414,24.95118 c -16.72544,0 -31.39015,3.55281 -42.63086,11.48046 -11.2407,7.92766 -18.33398,20.95677 -18.33398,35.32422 0,13.63279 6.85394,24.94262 15.64063,31.28516 8.78668,6.34254 18.69293,9.04932 27.64453,11.3418 8.95159,2.29248 17.17697,4.19924 21.625,6.27343 2.22401,1.0371 3.32692,2.00199 3.64257,2.39063 0.31566,0.38864 0.32813,0.114 0.32813,1.26953 0,1.80412 0.20885,1.38664 -1.32617,2.38867 -1.53503,1.00203 -5.6748,2.40625 -12.10938,2.40625 -10.08701,0 -25.72611,-3.1852 -36.14062,-7.67773 a 11.765676,11.765676 0 0 0 -15.95117,7.50195 l -4.56055,15.59961 a 11.765676,11.765676 0 0 0 6.42383,14.00977 c 14.97031,6.80468 32.34709,10.41601 48.78711,10.41601 16.12539,0 30.22606,-3.71598 40.85937,-11.78125 10.63331,-8.06526 16.98633,-20.8867 16.98633,-34.7832 0,-13.81036 -6.71075,-25.25825 -15.4707,-31.87891 -8.75996,-6.62066 -18.75901,-9.58621 -27.81641,-12.00781 -9.0574,-2.4216 -17.43436,-4.32952 -22.05078,-6.36523 -2.30821,-1.01786 -3.49189,-1.9952 -3.73438,-2.27149 -0.24248,-0.27629 -0.0488,0.40231 -0.0488,-0.27734 0,-0.83839 -0.45718,-0.60604 1.79296,-1.93946 2.25015,-1.33341 7.35401,-2.85546 14.52344,-2.85546 8.11836,0 18.7566,1.9378 27.39844,4.88867 a 11.765676,11.765676 0 0 0 15.09375,-7.83399 l 4.55859,-15.59961 a 11.765676,11.765676 0 0 0 -6.78515,-14.16797 c -11.54641,-4.78753 -24.72166,-7.13671 -38.34571,-7.13671 z"
     id="text1-5"
     transform="translate(3.2514041,3.76975)" /></svg>
