<?xml version="1.0" encoding="UTF-8" standalone="no"?>
<!-- Created with Inkscape (http://www.inkscape.org/) -->

<svg
   width="500"
   height="500"
   viewBox="0 0 500 500"
   version="1.1"
   id="svg1"
   inkscape:version="1.3.2 (091e20ef0f, 2023-11-25, custom)"
   sodipodi:docname="enum.ts.svg"
   xml:space="preserve"
   xmlns:inkscape="http://www.inkscape.org/namespaces/inkscape"
   xmlns:sodipodi="http://sodipodi.sourceforge.net/DTD/sodipodi-0.dtd"
   xmlns:xlink="http://www.w3.org/1999/xlink"
   xmlns="http://www.w3.org/2000/svg"
   xmlns:svg="http://www.w3.org/2000/svg"><sodipodi:namedview
     id="namedview1"
     pagecolor="#505050"
     bordercolor="#eeeeee"
     borderopacity="1"
     inkscape:showpageshadow="0"
     inkscape:pageopacity="0"
     inkscape:pagecheckerboard="0"
     inkscape:deskcolor="#505050"
     inkscape:document-units="px"
     inkscape:zoom="0.96503771"
     inkscape:cx="235.22397"
     inkscape:cy="236.77831"
     inkscape:window-width="1352"
     inkscape:window-height="734"
     inkscape:window-x="4"
     inkscape:window-y="24"
     inkscape:window-maximized="0"
     inkscape:current-layer="svg1"
     showguides="true"><sodipodi:guide
       position="250.02518,350.60736"
       orientation="-0.99997769,0.0066803918"
       id="guide30"
       inkscape:locked="false" /><sodipodi:guide
       position="66.396728,247.89992"
       orientation="0,-1"
       id="guide53"
       inkscape:locked="false" /></sodipodi:namedview><defs
     id="defs1"><linearGradient
       id="linearGradient4"
       inkscape:collect="always"><stop
         style="stop-color:#074b57;stop-opacity:1;"
         offset="0"
         id="stop4" /><stop
         style="stop-color:#2f0757;stop-opacity:1;"
         offset="1"
         id="stop5" /></linearGradient><linearGradient
       id="linearGradient2"
       inkscape:collect="always"><stop
         style="stop-color:#5a9bf3;stop-opacity:1;"
         offset="0.00083241"
         id="stop2" /><stop
         style="stop-color:#d15af3;stop-opacity:1;"
         offset="1"
         id="stop3" /></linearGradient><linearGradient
       id="swatch13"
       inkscape:swatch="solid"><stop
         style="stop-color:#ff405c;stop-opacity:1;"
         offset="0"
         id="stop13" /></linearGradient><linearGradient
       id="swatch61"
       inkscape:swatch="solid"><stop
         style="stop-color:#5090d0;stop-opacity:1;"
         offset="0"
         id="stop61" /></linearGradient><linearGradient
       id="swatch30"
       inkscape:swatch="solid"><stop
         style="stop-color:#f9f9f9;stop-opacity:1;"
         offset="0"
         id="stop30" /></linearGradient><inkscape:perspective
       sodipodi:type="inkscape:persp3d"
       inkscape:vp_x="44.06818 : 315.96746 : 1"
       inkscape:vp_y="0 : 1000 : 0"
       inkscape:vp_z="480.74134 : 298.68846 : 1"
       inkscape:persp3d-origin="250 : 166.66667 : 1"
       id="perspective17" /><inkscape:perspective
       sodipodi:type="inkscape:persp3d"
       inkscape:vp_x="44.06818 : 315.96746 : 1"
       inkscape:vp_y="0 : 1000 : 0"
       inkscape:vp_z="480.74134 : 298.68846 : 1"
       inkscape:persp3d-origin="250 : 166.66667 : 1"
       id="perspective17-9" /><inkscape:perspective
       sodipodi:type="inkscape:persp3d"
       inkscape:vp_x="44.06818 : 315.96746 : 1"
       inkscape:vp_y="0 : 1000 : 0"
       inkscape:vp_z="480.74134 : 298.68846 : 1"
       inkscape:persp3d-origin="250 : 166.66667 : 1"
       id="perspective17-1" /><inkscape:perspective
       sodipodi:type="inkscape:persp3d"
       inkscape:vp_x="44.06818 : 315.96746 : 1"
       inkscape:vp_y="0 : 1000 : 0"
       inkscape:vp_z="480.74134 : 298.68846 : 1"
       inkscape:persp3d-origin="250 : 166.66667 : 1"
       id="perspective17-8" /><inkscape:perspective
       sodipodi:type="inkscape:persp3d"
       inkscape:vp_x="44.06818 : 315.96746 : 1"
       inkscape:vp_y="0 : 1000 : 0"
       inkscape:vp_z="480.74134 : 298.68846 : 1"
       inkscape:persp3d-origin="250 : 166.66667 : 1"
       id="perspective17-7" /><inkscape:perspective
       sodipodi:type="inkscape:persp3d"
       inkscape:vp_x="44.06818 : 315.96746 : 1"
       inkscape:vp_y="0 : 1000 : 0"
       inkscape:vp_z="480.74134 : 298.68846 : 1"
       inkscape:persp3d-origin="250 : 166.66667 : 1"
       id="perspective17-5" /><inkscape:perspective
       sodipodi:type="inkscape:persp3d"
       inkscape:vp_x="44.06818 : 315.96746 : 1"
       inkscape:vp_y="0 : 1000 : 0"
       inkscape:vp_z="480.74134 : 298.68846 : 1"
       inkscape:persp3d-origin="250 : 166.66667 : 1"
       id="perspective17-2" /><inkscape:perspective
       sodipodi:type="inkscape:persp3d"
       inkscape:vp_x="44.06818 : 315.96746 : 1"
       inkscape:vp_y="0 : 1000 : 0"
       inkscape:vp_z="480.74134 : 298.68846 : 1"
       inkscape:persp3d-origin="250 : 166.66667 : 1"
       id="perspective17-29" /><inkscape:perspective
       sodipodi:type="inkscape:persp3d"
       inkscape:vp_x="44.06818 : 315.96746 : 1"
       inkscape:vp_y="0 : 1000 : 0"
       inkscape:vp_z="480.74134 : 298.68846 : 1"
       inkscape:persp3d-origin="250 : 166.66667 : 1"
       id="perspective17-2-1" /><inkscape:path-effect
       effect="mirror_symmetry"
       start_point="341.76098,28.008646"
       end_point="341.76098,211.38431"
       center_point="341.76098,119.69648"
       id="path-effect3"
       is_visible="true"
       lpeversion="1.2"
       lpesatellites=""
       mode="free"
       discard_orig_path="false"
       fuse_paths="true"
       oposite_fuse="false"
       split_items="false"
       split_open="false"
       link_styles="false" /><inkscape:path-effect
       effect="mirror_symmetry"
       start_point="216.08168,129.12039"
       end_point="216.08168,402.6937"
       center_point="216.08168,265.90704"
       id="path-effect2"
       is_visible="true"
       lpeversion="1.2"
       lpesatellites=""
       mode="free"
       discard_orig_path="false"
       fuse_paths="true"
       oposite_fuse="false"
       split_items="false"
       split_open="false"
       link_styles="false" /><inkscape:perspective
       sodipodi:type="inkscape:persp3d"
       inkscape:vp_x="44.06818 : 315.96746 : 1"
       inkscape:vp_y="0 : 1000 : 0"
       inkscape:vp_z="480.74134 : 298.68846 : 1"
       inkscape:persp3d-origin="250 : 166.66667 : 1"
       id="perspective17-18" /><inkscape:perspective
       sodipodi:type="inkscape:persp3d"
       inkscape:vp_x="44.06818 : 315.96746 : 1"
       inkscape:vp_y="0 : 1000 : 0"
       inkscape:vp_z="480.74134 : 298.68846 : 1"
       inkscape:persp3d-origin="250 : 166.66667 : 1"
       id="perspective17-27" /><inkscape:perspective
       sodipodi:type="inkscape:persp3d"
       inkscape:vp_x="44.06818 : 315.96746 : 1"
       inkscape:vp_y="0 : 1000 : 0"
       inkscape:vp_z="480.74134 : 298.68846 : 1"
       inkscape:persp3d-origin="250 : 166.66667 : 1"
       id="perspective17-7-0" /><inkscape:perspective
       sodipodi:type="inkscape:persp3d"
       inkscape:vp_x="44.06818 : 315.96746 : 1"
       inkscape:vp_y="0 : 1000 : 0"
       inkscape:vp_z="480.74134 : 298.68846 : 1"
       inkscape:persp3d-origin="250 : 166.66667 : 1"
       id="perspective17-2-9" /><inkscape:perspective
       sodipodi:type="inkscape:persp3d"
       inkscape:vp_x="44.06818 : 315.96746 : 1"
       inkscape:vp_y="0 : 1000 : 0"
       inkscape:vp_z="480.74134 : 298.68846 : 1"
       inkscape:persp3d-origin="250 : 166.66667 : 1"
       id="perspective17-0" /><inkscape:perspective
       sodipodi:type="inkscape:persp3d"
       inkscape:vp_x="44.06818 : 315.96746 : 1"
       inkscape:vp_y="0 : 1000 : 0"
       inkscape:vp_z="480.74134 : 298.68846 : 1"
       inkscape:persp3d-origin="250 : 166.66667 : 1"
       id="perspective17-97" /><inkscape:perspective
       sodipodi:type="inkscape:persp3d"
       inkscape:vp_x="44.06818 : 315.96746 : 1"
       inkscape:vp_y="0 : 1000 : 0"
       inkscape:vp_z="480.74134 : 298.68846 : 1"
       inkscape:persp3d-origin="250 : 166.66667 : 1"
       id="perspective17-2-3" /><inkscape:perspective
       sodipodi:type="inkscape:persp3d"
       inkscape:vp_x="44.06818 : 315.96746 : 1"
       inkscape:vp_y="0 : 1000 : 0"
       inkscape:vp_z="480.74134 : 298.68846 : 1"
       inkscape:persp3d-origin="250 : 166.66667 : 1"
       id="perspective17-291" /><inkscape:perspective
       sodipodi:type="inkscape:persp3d"
       inkscape:vp_x="44.06818 : 315.96746 : 1"
       inkscape:vp_y="0 : 1000 : 0"
       inkscape:vp_z="480.74134 : 298.68846 : 1"
       inkscape:persp3d-origin="250 : 166.66667 : 1"
       id="perspective17-9-2" /><linearGradient
       inkscape:collect="always"
       xlink:href="#linearGradient2"
       id="linearGradient3"
       x1="9.0546875"
       y1="252.05078"
       x2="497.46289"
       y2="252.05078"
       gradientUnits="userSpaceOnUse" /><linearGradient
       inkscape:collect="always"
       xlink:href="#linearGradient4"
       id="linearGradient5"
       x1="80.744141"
       y1="251.0332"
       x2="432.04688"
       y2="251.0332"
       gradientUnits="userSpaceOnUse" /><inkscape:perspective
       sodipodi:type="inkscape:persp3d"
       inkscape:vp_x="44.06818 : 315.96746 : 1"
       inkscape:vp_y="0 : 1000 : 0"
       inkscape:vp_z="480.74134 : 298.68846 : 1"
       inkscape:persp3d-origin="250 : 166.66667 : 1"
       id="perspective17-4" /><inkscape:perspective
       sodipodi:type="inkscape:persp3d"
       inkscape:vp_x="44.06818 : 315.96746 : 1"
       inkscape:vp_y="0 : 1000 : 0"
       inkscape:vp_z="480.74134 : 298.68846 : 1"
       inkscape:persp3d-origin="250 : 166.66667 : 1"
       id="perspective17-9-7" /><inkscape:perspective
       sodipodi:type="inkscape:persp3d"
       inkscape:vp_x="44.06818 : 315.96746 : 1"
       inkscape:vp_y="0 : 1000 : 0"
       inkscape:vp_z="480.74134 : 298.68846 : 1"
       inkscape:persp3d-origin="250 : 166.66667 : 1"
       id="perspective17-0-4" /><inkscape:perspective
       sodipodi:type="inkscape:persp3d"
       inkscape:vp_x="44.06818 : 315.96746 : 1"
       inkscape:vp_y="0 : 1000 : 0"
       inkscape:vp_z="480.74134 : 298.68846 : 1"
       inkscape:persp3d-origin="250 : 166.66667 : 1"
       id="perspective17-2-5" /></defs><path
     id="path1"
     style="fill:url(#linearGradient3);fill-opacity:1;stroke:none;stroke-width:35;stroke-linejoin:round;stroke-miterlimit:10;paint-order:stroke markers fill"
     d="M 391.45898 11.505859 A 106.00323 106.00323 0 0 0 285.45508 117.50977 A 106.00323 106.00323 0 0 0 391.45898 223.51172 A 106.00323 106.00323 0 0 0 497.46289 117.50977 A 106.00323 106.00323 0 0 0 391.45898 11.505859 z M 161.33203 54.638672 A 106.00323 106.00323 0 0 0 55.328125 160.64258 A 106.00323 106.00323 0 0 0 161.33203 266.64453 A 106.00323 106.00323 0 0 0 267.33398 160.64258 A 106.00323 106.00323 0 0 0 161.33203 54.638672 z M 115.05859 280.58984 A 106.00323 106.00323 0 0 0 9.0546875 386.5918 A 106.00323 106.00323 0 0 0 115.05859 492.5957 A 106.00323 106.00323 0 0 0 221.06055 386.5918 A 106.00323 106.00323 0 0 0 115.05859 280.58984 z " /><path
     id="text2"
     style="font-weight:bold;font-size:160px;line-height:0;font-family:'Nimbus Mono PS';-inkscape-font-specification:'Nimbus Mono PS Bold';letter-spacing:0px;word-spacing:0px;fill:url(#linearGradient5);fill-opacity:1;stroke:none;stroke-width:35;stroke-linejoin:round;stroke-miterlimit:10;paint-order:stroke markers fill"
     d="M 394.92578 64.072266 C 377.1658 64.072266 361.32617 72.391884 361.32617 81.671875 C 361.32617 86.31187 365.16665 89.992187 369.80664 89.992188 C 372.20664 89.992188 374.44672 89.031639 375.88672 87.431641 C 381.00671 82.151646 385.16665 80.552734 393.80664 80.552734 C 404.52663 80.552734 411.24609 84.711647 411.24609 91.431641 C 411.24609 97.671634 404.84616 103.11328 397.32617 103.11328 L 390.92578 103.11328 C 385.80579 103.11328 381.9668 106.63149 381.9668 111.27148 C 381.9668 115.91148 385.16563 118.63313 390.76562 118.95312 C 397.96562 119.27312 399.72578 119.59305 402.92578 120.87305 C 410.28577 123.75304 414.76563 128.87251 414.76562 134.3125 C 414.76562 137.6725 413.00726 141.35164 410.44727 143.43164 C 406.28727 147.11164 400.52647 148.55273 389.64648 148.55273 C 379.40649 148.55273 374.76578 147.75336 370.92578 145.19336 C 368.20578 143.59336 367.40617 143.27148 365.32617 143.27148 C 360.36618 143.27148 356.68555 146.9518 356.68555 151.5918 C 356.68555 159.75179 369.96697 165.0332 390.12695 165.0332 C 404.20694 165.0332 412.68673 162.95187 419.88672 157.67188 C 427.40671 152.23188 432.04688 143.43249 432.04688 134.3125 C 432.04688 124.71251 426.12561 116.71148 414.76562 111.27148 C 424.36562 105.67149 428.52734 99.591632 428.52734 91.431641 C 428.52734 84.711647 425.48718 77.993198 420.36719 73.033203 C 414.12719 67.113209 405.80577 64.072266 394.92578 64.072266 z M 164.54297 104.00391 C 154.78298 104.00391 145.82171 107.20469 139.26172 112.80469 C 133.66172 117.60468 129.3418 125.12415 129.3418 130.24414 C 129.3418 134.56414 133.34243 138.24414 137.98242 138.24414 C 141.66242 138.24414 144.86227 136.32531 145.82227 133.44531 C 147.58226 128.48532 147.74164 128.16445 149.18164 126.56445 C 152.70164 122.72446 157.98266 120.48437 164.22266 120.48438 C 174.30265 120.48438 181.98242 126.08548 181.98242 133.60547 C 181.98242 138.56546 179.42186 141.6054 163.42188 155.52539 C 156.86188 161.28538 145.66154 170.4047 127.10156 184.80469 L 126.14258 185.60547 L 126.14258 202.72461 L 200.0625 202.72461 L 200.0625 188.64453 C 200.0625 184.80454 199.74125 183.36367 198.78125 181.76367 C 197.18125 179.36367 194.46187 177.92383 191.42188 177.92383 C 186.30188 177.92383 183.58141 180.48399 182.94141 186.08398 L 153.02148 186.08398 C 194.62144 152.64402 199.26172 147.36397 199.26172 134.08398 C 199.26172 116.964 184.38295 104.00391 164.54297 104.00391 z M 124.74414 339.27344 L 90.023438 347.75391 C 83.303444 349.3539 81.064453 351.59438 81.064453 356.23438 C 81.064453 361.03437 84.584458 364.87305 89.064453 364.87305 C 90.664452 364.87305 91.143753 364.71406 94.34375 363.91406 L 107.46484 360.55273 L 107.46484 421.51367 L 91.943359 421.51367 C 87.783364 421.51367 86.504295 421.67281 84.904297 422.63281 C 82.344299 424.23281 80.744141 426.95383 80.744141 429.67383 C 80.744141 432.23383 82.183674 434.95453 84.263672 436.39453 C 85.86367 437.51453 88.263363 437.99414 91.943359 437.99414 L 140.26367 437.99414 C 147.62366 437.99414 151.46484 435.11382 151.46484 429.67383 C 151.46484 427.11383 150.18336 424.71328 147.94336 423.11328 C 146.18336 421.83328 144.58367 421.51367 140.26367 421.51367 L 124.74414 421.51367 L 124.74414 339.27344 z " /><path
     d="m 296.26819,469.61975 h 20.33645 V 317.21884 h 56.84407 V 299.57757 H 239.66913 v 17.64127 h 56.59906 z m 135.73971,2.45018 c 29.15709,0 47.04337,-13.72099 47.04337,-35.52755 0,-43.3681 -70.56506,-27.19695 -70.56506,-53.90386 0,-10.29074 11.02579,-16.90621 28.66706,-16.90621 10.04572,0 21.80656,2.20516 31.85228,5.6354 l 4.65533,-15.92614 c -10.04572,-4.16529 -22.05158,-6.37045 -34.54747,-6.37045 -30.6272,0 -50.2286,13.47596 -50.2286,35.77256 0,42.38804 70.32003,24.74677 70.32003,53.65884 0,10.78077 -9.55568,16.90621 -25.72684,16.90621 -12.49589,0 -29.15709,-3.43024 -41.65298,-8.82063 l -4.65533,15.92614 c 13.47596,6.12544 29.89214,9.55569 44.83821,9.55569 z"
     id="text1-5"
     style="font-size:240px;font-family:System-ui;-inkscape-font-specification:System-ui;fill:#40b2ff;fill-opacity:0.313725;stroke:#3178c6;stroke-width:24.0209;stroke-linejoin:round;paint-order:markers fill stroke"
     aria-label="Ts" /></svg>
