<?xml version="1.0" encoding="UTF-8" standalone="no"?>
<!-- Created with Inkscape (http://www.inkscape.org/) -->

<svg
   width="500"
   height="500"
   viewBox="0 0 500 500"
   version="1.1"
   id="svg1"
   inkscape:version="1.3.2 (091e20ef0f, 2023-11-25, custom)"
   sodipodi:docname="error.js.svg"
   xml:space="preserve"
   xmlns:inkscape="http://www.inkscape.org/namespaces/inkscape"
   xmlns:sodipodi="http://sodipodi.sourceforge.net/DTD/sodipodi-0.dtd"
   xmlns:xlink="http://www.w3.org/1999/xlink"
   xmlns="http://www.w3.org/2000/svg"
   xmlns:svg="http://www.w3.org/2000/svg"><sodipodi:namedview
     id="namedview1"
     pagecolor="#505050"
     bordercolor="#eeeeee"
     borderopacity="1"
     inkscape:showpageshadow="0"
     inkscape:pageopacity="0"
     inkscape:pagecheckerboard="0"
     inkscape:deskcolor="#505050"
     inkscape:document-units="px"
     inkscape:zoom="0.96390292"
     inkscape:cx="279.59247"
     inkscape:cy="236.01962"
     inkscape:window-width="1352"
     inkscape:window-height="734"
     inkscape:window-x="4"
     inkscape:window-y="24"
     inkscape:window-maximized="1"
     inkscape:current-layer="svg1"
     showguides="true"
     showgrid="false"><sodipodi:guide
       position="250.02518,350.60736"
       orientation="-0.99997769,0.0066803918"
       id="guide30"
       inkscape:locked="false" /><sodipodi:guide
       position="66.396728,247.89992"
       orientation="0,-1"
       id="guide53"
       inkscape:locked="false" /></sodipodi:namedview><defs
     id="defs1"><linearGradient
       id="linearGradient1"
       inkscape:collect="always"><stop
         style="stop-color:#ff2222;stop-opacity:1;"
         offset="0"
         id="stop1" /><stop
         style="stop-color:#ff2d85;stop-opacity:1;"
         offset="0.99934435"
         id="stop2" /></linearGradient><linearGradient
       id="swatch61"
       inkscape:swatch="solid"><stop
         style="stop-color:#5090d0;stop-opacity:1;"
         offset="0"
         id="stop61" /></linearGradient><linearGradient
       id="swatch30"
       inkscape:swatch="solid"><stop
         style="stop-color:#f9f9f9;stop-opacity:1;"
         offset="0"
         id="stop30" /></linearGradient><inkscape:perspective
       sodipodi:type="inkscape:persp3d"
       inkscape:vp_x="44.06818 : 315.96746 : 1"
       inkscape:vp_y="0 : 1000 : 0"
       inkscape:vp_z="480.74134 : 298.68846 : 1"
       inkscape:persp3d-origin="250 : 166.66667 : 1"
       id="perspective17" /><inkscape:perspective
       sodipodi:type="inkscape:persp3d"
       inkscape:vp_x="44.06818 : 315.96746 : 1"
       inkscape:vp_y="0 : 1000 : 0"
       inkscape:vp_z="480.74134 : 298.68846 : 1"
       inkscape:persp3d-origin="250 : 166.66667 : 1"
       id="perspective17-2" /><inkscape:path-effect
       effect="mirror_symmetry"
       start_point="216.08168,129.12038"
       end_point="216.08168,402.69369"
       center_point="216.08168,265.90704"
       id="path-effect2"
       is_visible="true"
       lpeversion="1.2"
       lpesatellites=""
       mode="free"
       discard_orig_path="false"
       fuse_paths="true"
       oposite_fuse="false"
       split_items="false"
       split_open="false"
       link_styles="false" /><inkscape:perspective
       sodipodi:type="inkscape:persp3d"
       inkscape:vp_x="44.06818 : 315.96746 : 1"
       inkscape:vp_y="0 : 1000 : 0"
       inkscape:vp_z="480.74134 : 298.68846 : 1"
       inkscape:persp3d-origin="250 : 166.66667 : 1"
       id="perspective17-8" /><inkscape:perspective
       sodipodi:type="inkscape:persp3d"
       inkscape:vp_x="44.06818 : 315.96746 : 1"
       inkscape:vp_y="0 : 1000 : 0"
       inkscape:vp_z="480.74134 : 298.68846 : 1"
       inkscape:persp3d-origin="250 : 166.66667 : 1"
       id="perspective17-6" /><inkscape:perspective
       sodipodi:type="inkscape:persp3d"
       inkscape:vp_x="44.06818 : 315.96746 : 1"
       inkscape:vp_y="0 : 1000 : 0"
       inkscape:vp_z="480.74134 : 298.68846 : 1"
       inkscape:persp3d-origin="250 : 166.66667 : 1"
       id="perspective17-5" /><inkscape:perspective
       sodipodi:type="inkscape:persp3d"
       inkscape:vp_x="44.06818 : 315.96746 : 1"
       inkscape:vp_y="0 : 1000 : 0"
       inkscape:vp_z="480.74134 : 298.68846 : 1"
       inkscape:persp3d-origin="250 : 166.66667 : 1"
       id="perspective17-2-1" /><linearGradient
       inkscape:collect="always"
       xlink:href="#linearGradient1"
       id="linearGradient2"
       x1="113.61709"
       y1="56.032257"
       x2="520.53101"
       y2="450.47995"
       gradientUnits="userSpaceOnUse"
       gradientTransform="matrix(1.0938369,0,0,1.0938369,-109.23308,-66.814921)" /><inkscape:path-effect
       effect="mirror_symmetry"
       start_point="250.54403,261.72003"
       end_point="250.54403,442.67653"
       center_point="250.54403,352.19828"
       id="path-effect3"
       is_visible="true"
       lpeversion="1.2"
       lpesatellites=""
       mode="free"
       discard_orig_path="false"
       fuse_paths="true"
       oposite_fuse="false"
       split_items="false"
       split_open="false"
       link_styles="false" /><inkscape:perspective
       sodipodi:type="inkscape:persp3d"
       inkscape:vp_x="44.06818 : 315.96746 : 1"
       inkscape:vp_y="0 : 1000 : 0"
       inkscape:vp_z="480.74134 : 298.68846 : 1"
       inkscape:persp3d-origin="250 : 166.66667 : 1"
       id="perspective17-291" /><inkscape:perspective
       sodipodi:type="inkscape:persp3d"
       inkscape:vp_x="44.06818 : 315.96746 : 1"
       inkscape:vp_y="0 : 1000 : 0"
       inkscape:vp_z="480.74134 : 298.68846 : 1"
       inkscape:persp3d-origin="250 : 166.66667 : 1"
       id="perspective17-7" /><inkscape:perspective
       sodipodi:type="inkscape:persp3d"
       inkscape:vp_x="44.06818 : 315.96746 : 1"
       inkscape:vp_y="0 : 1000 : 0"
       inkscape:vp_z="480.74134 : 298.68846 : 1"
       inkscape:persp3d-origin="250 : 166.66667 : 1"
       id="perspective17-29" /><inkscape:perspective
       sodipodi:type="inkscape:persp3d"
       inkscape:vp_x="44.06818 : 315.96746 : 1"
       inkscape:vp_y="0 : 1000 : 0"
       inkscape:vp_z="480.74134 : 298.68846 : 1"
       inkscape:persp3d-origin="250 : 166.66667 : 1"
       id="perspective17-59" /><inkscape:perspective
       sodipodi:type="inkscape:persp3d"
       inkscape:vp_x="44.06818 : 315.96746 : 1"
       inkscape:vp_y="0 : 1000 : 0"
       inkscape:vp_z="480.74134 : 298.68846 : 1"
       inkscape:persp3d-origin="250 : 166.66667 : 1"
       id="perspective17-5-2" /><inkscape:perspective
       sodipodi:type="inkscape:persp3d"
       inkscape:vp_x="44.06818 : 315.96746 : 1"
       inkscape:vp_y="0 : 1000 : 0"
       inkscape:vp_z="480.74134 : 298.68846 : 1"
       inkscape:persp3d-origin="250 : 166.66667 : 1"
       id="perspective17-2-7" /><inkscape:perspective
       sodipodi:type="inkscape:persp3d"
       inkscape:vp_x="44.06818 : 315.96746 : 1"
       inkscape:vp_y="0 : 1000 : 0"
       inkscape:vp_z="480.74134 : 298.68846 : 1"
       inkscape:persp3d-origin="250 : 166.66667 : 1"
       id="perspective17-6-0" /><inkscape:perspective
       sodipodi:type="inkscape:persp3d"
       inkscape:vp_x="44.06818 : 315.96746 : 1"
       inkscape:vp_y="0 : 1000 : 0"
       inkscape:vp_z="480.74134 : 298.68846 : 1"
       inkscape:persp3d-origin="250 : 166.66667 : 1"
       id="perspective17-2-1-9" /><inkscape:perspective
       sodipodi:type="inkscape:persp3d"
       inkscape:vp_x="44.06818 : 315.96746 : 1"
       inkscape:vp_y="0 : 1000 : 0"
       inkscape:vp_z="480.74134 : 298.68846 : 1"
       inkscape:persp3d-origin="250 : 166.66667 : 1"
       id="perspective17-9" /><inkscape:perspective
       sodipodi:type="inkscape:persp3d"
       inkscape:vp_x="44.06818 : 315.96746 : 1"
       inkscape:vp_y="0 : 1000 : 0"
       inkscape:vp_z="480.74134 : 298.68846 : 1"
       inkscape:persp3d-origin="250 : 166.66667 : 1"
       id="perspective17-7-3" /><inkscape:perspective
       sodipodi:type="inkscape:persp3d"
       inkscape:vp_x="44.06818 : 315.96746 : 1"
       inkscape:vp_y="0 : 1000 : 0"
       inkscape:vp_z="480.74134 : 298.68846 : 1"
       inkscape:persp3d-origin="250 : 166.66667 : 1"
       id="perspective17-4" /><inkscape:perspective
       sodipodi:type="inkscape:persp3d"
       inkscape:vp_x="44.06818 : 315.96746 : 1"
       inkscape:vp_y="0 : 1000 : 0"
       inkscape:vp_z="480.74134 : 298.68846 : 1"
       inkscape:persp3d-origin="250 : 166.66667 : 1"
       id="perspective17-26" /><inkscape:perspective
       sodipodi:type="inkscape:persp3d"
       inkscape:vp_x="44.06818 : 315.96746 : 1"
       inkscape:vp_y="0 : 1000 : 0"
       inkscape:vp_z="480.74134 : 298.68846 : 1"
       inkscape:persp3d-origin="250 : 166.66667 : 1"
       id="perspective17-59-7" /><inkscape:perspective
       sodipodi:type="inkscape:persp3d"
       inkscape:vp_x="44.06818 : 315.96746 : 1"
       inkscape:vp_y="0 : 1000 : 0"
       inkscape:vp_z="480.74134 : 298.68846 : 1"
       inkscape:persp3d-origin="250 : 166.66667 : 1"
       id="perspective17-5-4" /><inkscape:perspective
       sodipodi:type="inkscape:persp3d"
       inkscape:vp_x="44.06818 : 315.96746 : 1"
       inkscape:vp_y="0 : 1000 : 0"
       inkscape:vp_z="480.74134 : 298.68846 : 1"
       inkscape:persp3d-origin="250 : 166.66667 : 1"
       id="perspective17-2-5" /><inkscape:path-effect
       effect="mirror_symmetry"
       start_point="250.54403,261.72003"
       end_point="250.54403,442.67653"
       center_point="250.54403,352.19828"
       id="path-effect3-6"
       is_visible="true"
       lpeversion="1.2"
       lpesatellites=""
       mode="free"
       discard_orig_path="false"
       fuse_paths="true"
       oposite_fuse="false"
       split_items="false"
       split_open="false"
       link_styles="false" /><inkscape:perspective
       sodipodi:type="inkscape:persp3d"
       inkscape:vp_x="44.06818 : 315.96746 : 1"
       inkscape:vp_y="0 : 1000 : 0"
       inkscape:vp_z="480.74134 : 298.68846 : 1"
       inkscape:persp3d-origin="250 : 166.66667 : 1"
       id="perspective17-79" /><inkscape:perspective
       sodipodi:type="inkscape:persp3d"
       inkscape:vp_x="44.06818 : 315.96746 : 1"
       inkscape:vp_y="0 : 1000 : 0"
       inkscape:vp_z="480.74134 : 298.68846 : 1"
       inkscape:persp3d-origin="250 : 166.66667 : 1"
       id="perspective17-7-2" /><inkscape:perspective
       sodipodi:type="inkscape:persp3d"
       inkscape:vp_x="44.06818 : 315.96746 : 1"
       inkscape:vp_y="0 : 1000 : 0"
       inkscape:vp_z="480.74134 : 298.68846 : 1"
       inkscape:persp3d-origin="250 : 166.66667 : 1"
       id="perspective17-29-0" /><inkscape:perspective
       sodipodi:type="inkscape:persp3d"
       inkscape:vp_x="44.06818 : 315.96746 : 1"
       inkscape:vp_y="0 : 1000 : 0"
       inkscape:vp_z="480.74134 : 298.68846 : 1"
       inkscape:persp3d-origin="250 : 166.66667 : 1"
       id="perspective17-59-2" /><inkscape:perspective
       sodipodi:type="inkscape:persp3d"
       inkscape:vp_x="44.06818 : 315.96746 : 1"
       inkscape:vp_y="0 : 1000 : 0"
       inkscape:vp_z="480.74134 : 298.68846 : 1"
       inkscape:persp3d-origin="250 : 166.66667 : 1"
       id="perspective17-5-3" /><inkscape:perspective
       sodipodi:type="inkscape:persp3d"
       inkscape:vp_x="44.06818 : 315.96746 : 1"
       inkscape:vp_y="0 : 1000 : 0"
       inkscape:vp_z="480.74134 : 298.68846 : 1"
       inkscape:persp3d-origin="250 : 166.66667 : 1"
       id="perspective17-2-75" /><inkscape:perspective
       sodipodi:type="inkscape:persp3d"
       inkscape:vp_x="44.06818 : 315.96746 : 1"
       inkscape:vp_y="0 : 1000 : 0"
       inkscape:vp_z="480.74134 : 298.68846 : 1"
       inkscape:persp3d-origin="250 : 166.66667 : 1"
       id="perspective17-6-9" /><inkscape:perspective
       sodipodi:type="inkscape:persp3d"
       inkscape:vp_x="44.06818 : 315.96746 : 1"
       inkscape:vp_y="0 : 1000 : 0"
       inkscape:vp_z="480.74134 : 298.68846 : 1"
       inkscape:persp3d-origin="250 : 166.66667 : 1"
       id="perspective17-2-1-2" /></defs><path
     id="path6"
     style="fill:url(#linearGradient2);fill-opacity:1;stroke:none;stroke-width:87.507;stroke-linecap:round;stroke-linejoin:round;stroke-miterlimit:10;stroke-dasharray:none;stroke-opacity:1"
     d="M 217.29492 10.986328 A 212.47642 212.47642 0 0 0 4.8164062 223.46289 A 212.47642 212.47642 0 0 0 217.29492 435.93945 A 212.47642 212.47642 0 0 0 255.07031 432.49609 L 255.10156 432.41602 A 17.50175 17.50175 0 0 0 255.10156 432.41406 C 261.23084 416.58598 280.29623 409.21556 295.47852 416.80469 C 295.49389 416.81238 298.61538 417.53743 301.57227 418.22461 C 301.57617 418.05177 301.60547 417.96356 301.60547 417.78125 L 301.60547 297.06055 A 17.50175 17.50175 0 0 1 301.60547 297.05664 C 301.60819 281.10286 314.91731 267.79695 330.87109 267.79688 L 350.79102 267.79688 A 17.50175 17.50175 0 0 1 350.79492 267.79688 C 366.74692 267.79959 380.05169 281.10465 380.05469 297.05664 A 17.50175 17.50175 0 0 0 380.05469 297.05859 A 17.50175 17.50175 0 0 0 380.05469 297.06055 L 380.05469 330.4082 C 388.22473 324.82328 397.35936 321.17285 407.02734 318.96289 A 212.47642 212.47642 0 0 0 429.76953 223.46289 A 212.47642 212.47642 0 0 0 217.29492 10.986328 z M 174.65625 43.134766 L 262.16406 43.134766 L 253.42383 249.87305 L 184.32617 249.87305 L 174.65625 43.134766 z M 336.60547 302.79688 L 336.60547 399.24023 A 212.47642 212.47642 0 0 0 345.05469 393.19727 L 345.05469 302.79688 L 336.60547 302.79688 z M 186.88281 304.56445 L 251.11133 304.56445 L 247.92578 379.88672 L 190.40625 379.88672 L 186.88281 304.56445 z " /><path
     id="path3"
     style="color:#000000;-inkscape-font-specification:System-ui;fill:#ffc340;fill-opacity:1;stroke-linejoin:round;-inkscape-stroke:none;paint-order:markers fill stroke"
     d="m 330.87198,285.29597 a 11.765676,11.765676 0 0 0 -11.76562,11.76367 v 120.7207 c 0,8.07054 -1.88017,12.933 -3.82422,15.33203 -1.94405,2.39905 -4.02348,3.62305 -9.37109,3.62305 -4.8471,0 -13.74253,-2.0197 -18.25782,-4.27734 a 11.765676,11.765676 0 0 0 -16.23242,6.27539 l -5.75976,14.8789 a 11.765676,11.765676 0 0 0 4.91796,14.33594 c 11.47912,6.88746 23.86516,9.83594 35.8125,9.83594 16.65246,0 31.64445,-5.72512 41.63282,-17.02149 9.98836,-11.29635 14.53125,-26.99639 14.53125,-45.14257 V 297.05964 a 11.765676,11.765676 0 0 0 -11.76367,-11.76367 z m 101.03907,48.47851 c -16.72544,0 -31.38821,3.55283 -42.62891,11.48047 -11.2407,7.92765 -18.33398,20.95678 -18.33398,35.32422 0,13.63278 6.85395,24.94262 15.64062,31.28516 8.78667,6.34252 18.69295,9.04932 27.64453,11.34179 8.95158,2.29249 17.17502,4.20121 21.62305,6.2754 2.22401,1.03709 3.32887,2.00003 3.64453,2.38867 0.31566,0.38864 0.32617,0.114 0.32617,1.26953 0,1.80412 0.20885,1.38664 -1.32617,2.38867 -1.53502,1.00203 -5.6748,2.40625 -12.10938,2.40625 -10.08698,0 -25.72612,-3.18521 -36.14062,-7.67773 a 11.765676,11.765676 0 0 0 -15.95117,7.50195 l -4.56055,15.59961 a 11.765676,11.765676 0 0 0 6.42383,14.01172 c 14.97029,6.80468 32.34907,10.41406 48.78906,10.41406 16.12539,0 30.22608,-3.716 40.85938,-11.78125 10.6333,-8.06526 16.98437,-20.88673 16.98437,-34.7832 0,-13.81035 -6.71076,-25.2563 -15.4707,-31.87696 -8.75995,-6.62065 -18.75706,-9.58621 -27.81445,-12.00781 -9.0574,-2.4216 -17.43632,-4.33148 -22.05274,-6.36719 -2.30821,-1.01785 -3.49189,-1.99519 -3.73437,-2.27148 -0.0552,-0.0629 -0.0823,-0.0674 -0.0996,-0.0586 0.0217,0.007 0.0527,0.0387 0.0527,-0.21874 0,-0.83839 -0.45717,-0.60409 1.79297,-1.9375 2.25014,-1.33341 7.35206,-2.85743 14.52148,-2.85743 8.11836,0 18.75661,1.93781 27.39844,4.88867 a 11.765676,11.765676 0 0 0 15.09375,-7.83203 l 4.56055,-15.59961 a 11.765676,11.765676 0 0 0 -6.78516,-14.16796 c -11.54639,-4.78754 -24.72363,-7.13868 -38.34765,-7.13868 z" /></svg>
