<?xml version="1.0" encoding="UTF-8" standalone="no"?>
<!-- Created with Inkscape (http://www.inkscape.org/) -->

<svg
   width="500"
   height="500"
   viewBox="0 0 500 500"
   version="1.1"
   id="svg1"
   inkscape:version="1.3.2 (091e20ef0f, 2023-11-25, custom)"
   sodipodi:docname="flp.svg"
   xml:space="preserve"
   xmlns:inkscape="http://www.inkscape.org/namespaces/inkscape"
   xmlns:sodipodi="http://sodipodi.sourceforge.net/DTD/sodipodi-0.dtd"
   xmlns="http://www.w3.org/2000/svg"
   xmlns:svg="http://www.w3.org/2000/svg"><sodipodi:namedview
     id="namedview1"
     pagecolor="#505050"
     bordercolor="#eeeeee"
     borderopacity="1"
     inkscape:showpageshadow="0"
     inkscape:pageopacity="0"
     inkscape:pagecheckerboard="0"
     inkscape:deskcolor="#505050"
     inkscape:document-units="px"
     inkscape:zoom="0.96503771"
     inkscape:cx="161.65171"
     inkscape:cy="259.57535"
     inkscape:window-width="1362"
     inkscape:window-height="744"
     inkscape:window-x="0"
     inkscape:window-y="20"
     inkscape:window-maximized="0"
     inkscape:current-layer="layer6"
     showguides="true"><sodipodi:guide
       position="250.02518,350.60736"
       orientation="-0.99997769,0.0066803918"
       id="guide30"
       inkscape:locked="false" /><sodipodi:guide
       position="66.396728,247.89992"
       orientation="0,-1"
       id="guide53"
       inkscape:locked="false" /></sodipodi:namedview><defs
     id="defs1"><linearGradient
       id="swatch13"
       inkscape:swatch="solid"><stop
         style="stop-color:#ff405c;stop-opacity:1;"
         offset="0"
         id="stop13" /></linearGradient><linearGradient
       id="swatch61"
       inkscape:swatch="solid"><stop
         style="stop-color:#5090d0;stop-opacity:1;"
         offset="0"
         id="stop61" /></linearGradient><linearGradient
       id="swatch30"
       inkscape:swatch="solid"><stop
         style="stop-color:#f9f9f9;stop-opacity:1;"
         offset="0"
         id="stop30" /></linearGradient><inkscape:perspective
       sodipodi:type="inkscape:persp3d"
       inkscape:vp_x="44.06818 : 315.96746 : 1"
       inkscape:vp_y="0 : 1000 : 0"
       inkscape:vp_z="480.74134 : 298.68846 : 1"
       inkscape:persp3d-origin="250 : 166.66667 : 1"
       id="perspective17" /><inkscape:perspective
       sodipodi:type="inkscape:persp3d"
       inkscape:vp_x="44.06818 : 315.96746 : 1"
       inkscape:vp_y="0 : 1000 : 0"
       inkscape:vp_z="480.74134 : 298.68846 : 1"
       inkscape:persp3d-origin="250 : 166.66667 : 1"
       id="perspective17-9" /><inkscape:perspective
       sodipodi:type="inkscape:persp3d"
       inkscape:vp_x="44.06818 : 315.96746 : 1"
       inkscape:vp_y="0 : 1000 : 0"
       inkscape:vp_z="480.74134 : 298.68846 : 1"
       inkscape:persp3d-origin="250 : 166.66667 : 1"
       id="perspective17-1" /><inkscape:perspective
       sodipodi:type="inkscape:persp3d"
       inkscape:vp_x="44.06818 : 315.96746 : 1"
       inkscape:vp_y="0 : 1000 : 0"
       inkscape:vp_z="480.74134 : 298.68846 : 1"
       inkscape:persp3d-origin="250 : 166.66667 : 1"
       id="perspective17-8" /></defs><g
     inkscape:groupmode="layer"
     id="layer6"
     inkscape:label="Layer 2"
     transform="matrix(0.76931271,0.79719868,-0.81063916,0.75655744,253.7402,-108.2977)"><path
       id="path26"
       style="opacity:1;fill:#f65f00;fill-opacity:1;stroke-width:22.244;stroke-linecap:round;stroke-miterlimit:10"
       d="m 394.44431,174.38127 c 0,123.17204 -61.2518,321.59825 -160.55407,321.59824 C 134.58797,495.9795 73.336183,297.5533 73.336182,174.38127 73.336181,96.422304 145.21868,49.93413 233.89024,49.934128 c 88.67156,-8e-6 160.55407,41.642753 160.55407,124.447142 z"
       sodipodi:nodetypes="szsss" /><path
       id="path28"
       style="opacity:1;fill:#ff800f;fill-opacity:1;stroke-width:22.244;stroke-linecap:round;stroke-miterlimit:10"
       d="m 233.89062,49.933594 c -19.71973,0 -38.60161,2.31287 -56.05468,6.746094 -31.37435,21.407942 -51.01367,53.520172 -51.01367,94.242192 0,123.1719 61.25251,321.59764 160.55468,321.59765 1.18154,0 2.35272,-0.0536 3.52344,-0.10937 65.18222,-56.13406 103.54297,-200.58657 103.54297,-298.0293 0,-82.804307 -71.88126,-124.447274 -160.55274,-124.447266 z" /><g
       inkscape:groupmode="layer"
       id="layer5"
       inkscape:label="Layer 1"
       transform="translate(-7.9928264,10.107422)"><path
         id="path29"
         style="opacity:1;fill:#00bf57;fill-opacity:1;stroke-width:22.244;stroke-linecap:round;stroke-miterlimit:10"
         d="m 317.61363,45.721894 c 0,59.208326 -33.43611,202.779706 -74.68163,202.779706 -41.24552,0 -74.68162,-143.57138 -74.68162,-202.779706 0,-59.208327 33.4361,-11.63262 74.68162,-11.632624 41.24553,-4e-6 74.68163,-47.575708 74.68163,11.632624 z"
         sodipodi:nodetypes="sssss" /><path
         id="path31"
         style="opacity:1;fill:#0fff7c;fill-opacity:1;stroke-width:22.244;stroke-linecap:round;stroke-miterlimit:10"
         d="m 203.8298,39.823424 c -8.05249,0.310177 -12.75391,7.496118 -12.75391,29.699218 0,43.754688 18.2697,133.526088 44.44727,177.435548 2.43748,1.00465 4.9076,1.54297 7.4082,1.54297 41.24548,0 74.68164,-143.57103 74.68164,-202.779299 0,-1.353228 -0.0357,-2.590475 -0.0703,-3.833984 -13.42963,4.721942 -31.65976,16.003904 -51.78516,16.003906 -25.77842,2e-6 -48.50692,-18.585322 -61.92773,-18.068359 z" /></g><g
       inkscape:groupmode="layer"
       id="g35"
       inkscape:label="Layer 1"
       transform="rotate(36.699162,165.09598,-68.977501)"><path
         id="path34"
         style="opacity:1;fill:#00bf57;fill-opacity:1;stroke-width:22.244;stroke-linecap:round;stroke-miterlimit:10"
         d="m 317.61363,45.721894 c 0,410.363596 -232.384504,0.64529 -74.68163,-11.632624 41.12109,-3.201472 74.68163,-47.575708 74.68163,11.632624 z"
         sodipodi:nodetypes="sss" /><path
         id="path35"
         style="opacity:1;fill:#0fff7c;fill-opacity:1;stroke-width:22.244;stroke-linecap:round;stroke-miterlimit:10"
         d="m 235.52316,246.95819 c 2.43748,1.00465 4.9076,1.54297 7.4082,1.54297 41.24548,0 74.68164,-143.57103 74.68164,-202.779299 0,-1.353228 -0.0357,-2.590475 -0.0703,-3.833984 -13.42963,4.721942 -31.65976,16.003904 -51.78516,16.003906 -114.65655,-3.576766 -90.21028,88.464657 -30.23438,189.066407 z"
         sodipodi:nodetypes="csscsc" /></g><g
       inkscape:groupmode="layer"
       id="g33"
       inkscape:label="Layer 1"
       transform="rotate(-33.300838,326.73147,-30.312938)"><path
         id="path32"
         style="opacity:1;fill:#00bf57;fill-opacity:1;stroke-width:22.244;stroke-linecap:round;stroke-miterlimit:10"
         d="M 309.6292,72.481713 C 301.33107,160.49435 273.07226,233.19793 242.932,248.5016 206.15557,267.17477 168.25038,104.93022 168.25038,45.721894 c 0,-59.208327 33.4361,-11.63262 74.68162,-11.632624 41.24553,-4e-6 72.25491,-20.554469 66.6972,38.392443 z"
         sodipodi:nodetypes="sssss" /><path
         id="path33"
         style="opacity:1;fill:#0fff7c;fill-opacity:1;stroke-width:22.244;stroke-linecap:round;stroke-miterlimit:10"
         d="m 203.8298,39.823424 c -8.05249,0.310177 -12.75391,7.496118 -12.75391,29.699218 0,43.754688 18.2697,133.526088 44.44727,177.435548 2.43748,1.00465 4.9076,1.54297 7.4082,1.54297 140.65412,-288.270295 -20.48269,-180.159738 6.20997,-214.800351 -25.77842,2e-6 -31.89071,5.605652 -45.31152,6.122615 z"
         sodipodi:nodetypes="sscccss" /></g></g></svg>
