<?xml version="1.0" encoding="UTF-8" standalone="no"?>
<!-- Created with Inkscape (http://www.inkscape.org/) -->

<svg
   width="500"
   height="500"
   viewBox="0 0 500 500"
   version="1.1"
   id="svg1"
   inkscape:version="1.3.2 (091e20ef0f, 2023-11-25, custom)"
   sodipodi:docname="folder.windows.svg"
   xml:space="preserve"
   xmlns:inkscape="http://www.inkscape.org/namespaces/inkscape"
   xmlns:sodipodi="http://sodipodi.sourceforge.net/DTD/sodipodi-0.dtd"
   xmlns:xlink="http://www.w3.org/1999/xlink"
   xmlns="http://www.w3.org/2000/svg"
   xmlns:svg="http://www.w3.org/2000/svg"><sodipodi:namedview
     id="namedview1"
     pagecolor="#505050"
     bordercolor="#eeeeee"
     borderopacity="1"
     inkscape:showpageshadow="0"
     inkscape:pageopacity="0"
     inkscape:pagecheckerboard="0"
     inkscape:deskcolor="#505050"
     inkscape:document-units="px"
     inkscape:zoom="0.68158229"
     inkscape:cx="294.16844"
     inkscape:cy="247.21886"
     inkscape:window-width="1362"
     inkscape:window-height="744"
     inkscape:window-x="0"
     inkscape:window-y="20"
     inkscape:window-maximized="0"
     inkscape:current-layer="layer1"
     showguides="true"><sodipodi:guide
       position="250.02518,350.60736"
       orientation="-0.99997769,0.0066803918"
       id="guide30"
       inkscape:locked="false" /><sodipodi:guide
       position="66.396728,247.89992"
       orientation="0,-1"
       id="guide53"
       inkscape:locked="false" /></sodipodi:namedview><defs
     id="defs1"><linearGradient
       id="linearGradient11"
       inkscape:collect="always"><stop
         style="stop-color:#00c3c0;stop-opacity:1;"
         offset="0"
         id="stop11" /><stop
         style="stop-color:#e85bff;stop-opacity:1;"
         offset="1"
         id="stop12" /></linearGradient><inkscape:path-effect
       effect="offset"
       id="path-effect7"
       is_visible="true"
       lpeversion="1.2"
       linejoin_type="miter"
       unit="mm"
       offset="-6.5"
       miter_limit="4"
       attempt_force_join="false"
       update_on_knot_move="true" /><inkscape:path-effect
       effect="offset"
       id="path-effect5"
       is_visible="true"
       lpeversion="1.2"
       linejoin_type="miter"
       unit="mm"
       offset="-6.5"
       miter_limit="4"
       attempt_force_join="false"
       update_on_knot_move="true" /><inkscape:path-effect
       effect="offset"
       id="path-effect2"
       is_visible="true"
       lpeversion="1.2"
       linejoin_type="miter"
       unit="mm"
       offset="-6.5"
       miter_limit="4"
       attempt_force_join="false"
       update_on_knot_move="true" /><linearGradient
       id="swatch61"
       inkscape:swatch="solid"><stop
         style="stop-color:#5090d0;stop-opacity:1;"
         offset="0"
         id="stop61" /></linearGradient><linearGradient
       id="swatch30"
       inkscape:swatch="solid"><stop
         style="stop-color:#f9f9f9;stop-opacity:1;"
         offset="0"
         id="stop30" /></linearGradient><inkscape:perspective
       sodipodi:type="inkscape:persp3d"
       inkscape:vp_x="44.06818 : 315.96746 : 1"
       inkscape:vp_y="0 : 1000 : 0"
       inkscape:vp_z="480.74134 : 298.68846 : 1"
       inkscape:persp3d-origin="250 : 166.66667 : 1"
       id="perspective17" /><inkscape:perspective
       sodipodi:type="inkscape:persp3d"
       inkscape:vp_x="44.06818 : 315.96746 : 1"
       inkscape:vp_y="0 : 1000 : 0"
       inkscape:vp_z="480.74134 : 298.68846 : 1"
       inkscape:persp3d-origin="250 : 166.66667 : 1"
       id="perspective17-7" /><inkscape:perspective
       sodipodi:type="inkscape:persp3d"
       inkscape:vp_x="44.06818 : 315.96746 : 1"
       inkscape:vp_y="0 : 1000 : 0"
       inkscape:vp_z="480.74134 : 298.68846 : 1"
       inkscape:persp3d-origin="250 : 166.66667 : 1"
       id="perspective17-9" /><inkscape:perspective
       sodipodi:type="inkscape:persp3d"
       inkscape:vp_x="44.06818 : 315.96746 : 1"
       inkscape:vp_y="0 : 1000 : 0"
       inkscape:vp_z="480.74134 : 298.68846 : 1"
       inkscape:persp3d-origin="250 : 166.66667 : 1"
       id="perspective17-5" /><inkscape:perspective
       sodipodi:type="inkscape:persp3d"
       inkscape:vp_x="44.06818 : 315.96746 : 1"
       inkscape:vp_y="0 : 1000 : 0"
       inkscape:vp_z="480.74134 : 298.68846 : 1"
       inkscape:persp3d-origin="250 : 166.66667 : 1"
       id="perspective17-2" /><linearGradient
       inkscape:collect="always"
       xlink:href="#linearGradient11"
       id="linearGradient12"
       x1="-257.29453"
       y1="-129.79237"
       x2="634.55933"
       y2="448.46967"
       gradientUnits="userSpaceOnUse" /></defs><g
     inkscape:label="Layer 1"
     inkscape:groupmode="layer"
     id="layer1"
     style="opacity:1"><path
       id="path8"
       style="opacity:0.12197399;color:#000000;fill:#bf6ef4;stroke-linejoin:bevel;stroke-miterlimit:10;-inkscape-stroke:none;fill-opacity:1"
       d="M 296.32857 31.342287 L 285.24654 42.424318 L 285.24654 85.514162 L 40.125445 85.514162 L 29.043414 96.596193 L 29.043414 457.0708 L 40.125445 468.15088 L 463.85591 468.15088 L 474.93599 457.0708 L 474.93599 42.424318 L 462.18013 31.46924 C 459.67924 31.851764 446.60614 32.437132 430.85787 32.572756 C 415.1096 32.708379 395.68417 32.617906 376.55513 32.436037 C 338.29705 32.072298 302.15506 31.342287 296.32857 31.342287 z "
       transform="translate(3.4722108,-0.8461934)" /><path
       style="fill:none;stroke:#4da1d5;stroke-width:50;stroke-linecap:round;stroke-linejoin:bevel;stroke-opacity:1;paint-order:markers fill stroke"
       d="M 43.979119,450.13181 V 98.591456"
       id="path1-6"
       transform="translate(4.8298399,1.8196122)" /><path
       id="rect3"
       style="color:#000000;display:none;fill:#e9d667;fill-opacity:1;stroke-width:0.895776;stroke-linecap:round;stroke-miterlimit:10;-inkscape-stroke:none"
       d="m 260.43269,20.509744 c -16.37059,0 -29.76004,13.389467 -29.76004,29.760043 V 152.61567 c 0,8.61287 5.11415,15.10073 10.43263,18.94074 5.31851,3.84002 10.95688,6.32303 15.37865,9.53512 l 91.66131,66.58483 -90.27566,66.60057 c -15.16282,1.32955 -27.19693,14.00586 -27.19693,29.49935 v 102.34587 c 0,16.37058 13.38947,29.7583 29.76004,29.7583 h 194.07716 c 16.37058,0 29.76003,-13.38772 29.76003,-29.7583 V 343.77628 c 0,-8.61288 -5.11415,-15.10075 -10.43264,-18.94075 -5.31849,-3.84002 -10.95687,-6.32478 -15.37863,-9.53688 l -91.6613,-66.58306 90.27739,-66.60056 c 15.16205,-1.33036 27.19518,-14.00644 27.19518,-29.49936 V 50.269787 c 0,-16.370588 -13.38945,-29.760043 -29.76003,-29.760043 z m 0,13.436638 h 194.07716 c 9.1591,0 16.3234,7.164273 16.3234,16.323405 V 152.61567 c 0,9.15912 -7.1643,16.32339 -16.3234,16.32339 h -2.2097 L 358.19121,238.36692 264.3797,170.2215 c -5.90578,-4.29011 -11.78814,-6.94575 -15.40838,-9.5596 -3.62024,-2.61387 -4.86204,-3.89428 -4.86204,-8.04623 V 50.269787 c 0,-9.159132 7.16427,-16.323405 16.32341,-16.323405 z m 96.31862,224.078628 93.81152,68.14543 c 5.90578,4.29011 11.78813,6.94402 15.40838,9.55785 3.62024,2.61386 4.86204,3.89601 4.86204,8.04799 v 102.34587 c 0,9.15911 -7.16429,16.32166 -16.3234,16.32166 H 260.43269 c -9.1591,0 -16.32341,-7.16256 -16.32341,-16.32166 V 343.77628 c 0,-9.15912 7.16431,-16.32343 16.32341,-16.32343 h 2.2097 z m -80.61105,76.10943 c -11.87168,0 -21.63858,9.7669 -21.63858,21.63859 v 74.67829 c 0,11.87169 9.7669,21.63858 21.63858,21.63859 h 161.4968 c 11.87165,0 21.63859,-9.7669 21.63859,-21.63859 v -74.67829 c 0,-11.87169 -9.76694,-21.63859 -21.63859,-21.63859 z" /><path
       id="polygon1"
       style="opacity:1;fill:url(#linearGradient12);fill-opacity:1"
       d="M 512.00079 0.00047261602 L 242.52604 40.421017 L 242.52604 239.8326 L 512.00079 239.8326 L 512.00079 0.00047261602 z M 206.59608 44.911596 L 0.00010508274 75.453936 L 0.00010508274 242.52641 L 206.59608 242.52641 L 206.59608 44.911596 z M 0.00010508274 278.45638 L 0.00010508274 436.5477 L 206.59608 467.08737 L 206.59608 278.45638 L 0.00010508274 278.45638 z M 242.52604 278.45638 L 242.52604 471.57795 L 512.00079 512.00116 L 512.00079 278.45638 L 242.52604 278.45638 z "
       transform="matrix(0.7315664,0,0,0.7315664,108.34172,72.464498)" /><path
       id="path12"
       style="opacity:1;fill:#ffffff;fill-opacity:0.46849623"
       d="M 512.00079 0.00047261602 L 280.12997 34.779762 L 242.52604 68.875586 L 242.52604 239.8326 L 399.35188 239.8326 L 512.00079 137.69997 L 512.00079 0.00047261602 z M 206.59608 101.4523 L 50.995668 242.52641 L 206.59608 242.52641 L 206.59608 101.4523 z M 11.36805 278.45638 L 0.00010508274 288.76175 L 0.00010508274 436.5477 L 156.81527 459.72944 L 206.59608 414.59405 L 206.59608 278.45638 L 11.36805 278.45638 z M 242.52604 278.45638 L 242.52604 382.02001 L 356.75013 278.45638 L 242.52604 278.45638 z "
       transform="matrix(0.7315664,0,0,0.7315664,108.34172,72.464498)" /></g></svg>
