<?xml version="1.0" encoding="UTF-8" standalone="no"?>
<!-- Created with Inkscape (http://www.inkscape.org/) -->

<svg
   width="500"
   height="500"
   viewBox="0 0 500 500"
   version="1.1"
   id="svg1"
   inkscape:version="1.3.2 (091e20ef0f, 2023-11-25, custom)"
   sodipodi:docname="folder.theme.svg"
   xml:space="preserve"
   xmlns:inkscape="http://www.inkscape.org/namespaces/inkscape"
   xmlns:sodipodi="http://sodipodi.sourceforge.net/DTD/sodipodi-0.dtd"
   xmlns:xlink="http://www.w3.org/1999/xlink"
   xmlns="http://www.w3.org/2000/svg"
   xmlns:svg="http://www.w3.org/2000/svg"><sodipodi:namedview
     id="namedview1"
     pagecolor="#505050"
     bordercolor="#eeeeee"
     borderopacity="1"
     inkscape:showpageshadow="0"
     inkscape:pageopacity="0"
     inkscape:pagecheckerboard="0"
     inkscape:deskcolor="#505050"
     inkscape:document-units="px"
     inkscape:zoom="0.96390292"
     inkscape:cx="101.15127"
     inkscape:cy="284.77972"
     inkscape:window-width="1362"
     inkscape:window-height="744"
     inkscape:window-x="0"
     inkscape:window-y="20"
     inkscape:window-maximized="0"
     inkscape:current-layer="layer1"
     showguides="true"><sodipodi:guide
       position="250.02518,350.60736"
       orientation="-0.99997769,0.0066803918"
       id="guide30"
       inkscape:locked="false" /><sodipodi:guide
       position="66.396728,247.89992"
       orientation="0,-1"
       id="guide53"
       inkscape:locked="false" /></sodipodi:namedview><defs
     id="defs1"><linearGradient
       id="linearGradient5"
       inkscape:collect="always"><stop
         style="stop-color:#f32158;stop-opacity:1;"
         offset="0"
         id="stop5" /><stop
         style="stop-color:#f529d0;stop-opacity:1;"
         offset="0.4714545"
         id="stop7" /><stop
         style="stop-color:#6600d9;stop-opacity:1;"
         offset="1"
         id="stop6" /></linearGradient><linearGradient
       id="swatch61"
       inkscape:swatch="solid"><stop
         style="stop-color:#5090d0;stop-opacity:1;"
         offset="0"
         id="stop61" /></linearGradient><linearGradient
       id="swatch30"
       inkscape:swatch="solid"><stop
         style="stop-color:#f9f9f9;stop-opacity:1;"
         offset="0"
         id="stop30" /></linearGradient><inkscape:perspective
       sodipodi:type="inkscape:persp3d"
       inkscape:vp_x="44.06818 : 315.96746 : 1"
       inkscape:vp_y="0 : 1000 : 0"
       inkscape:vp_z="480.74134 : 298.68846 : 1"
       inkscape:persp3d-origin="250 : 166.66667 : 1"
       id="perspective17" /><inkscape:perspective
       sodipodi:type="inkscape:persp3d"
       inkscape:vp_x="44.06818 : 315.96746 : 1"
       inkscape:vp_y="0 : 1000 : 0"
       inkscape:vp_z="480.74134 : 298.68846 : 1"
       inkscape:persp3d-origin="250 : 166.66667 : 1"
       id="perspective17-4" /><inkscape:perspective
       sodipodi:type="inkscape:persp3d"
       inkscape:vp_x="44.06818 : 315.96746 : 1"
       inkscape:vp_y="0 : 1000 : 0"
       inkscape:vp_z="480.74134 : 298.68846 : 1"
       inkscape:persp3d-origin="250 : 166.66667 : 1"
       id="perspective17-1" /><inkscape:perspective
       sodipodi:type="inkscape:persp3d"
       inkscape:vp_x="44.06818 : 315.96746 : 1"
       inkscape:vp_y="0 : 1000 : 0"
       inkscape:vp_z="480.74134 : 298.68846 : 1"
       inkscape:persp3d-origin="250 : 166.66667 : 1"
       id="perspective17-3" /><linearGradient
       inkscape:collect="always"
       xlink:href="#linearGradient5"
       id="linearGradient6"
       x1="1"
       y1="12"
       x2="23.003983"
       y2="12"
       gradientUnits="userSpaceOnUse" /></defs><g
     inkscape:label="Layer 1"
     inkscape:groupmode="layer"
     id="layer1"><path
       id="rect53-0"
       style="display:inline;opacity:0.27676;fill:#f529d0;fill-opacity:0.3137255;fill-rule:nonzero;stroke:#f529d0;stroke-width:22.0622;stroke-linecap:butt;stroke-linejoin:round;stroke-dasharray:none;stroke-opacity:1;paint-order:markers fill stroke"
       d="m 462.68749,104.21979 c 0,-1.64895 -0.59137,-3.17324 -1.54688,-4.517583 v -48.26953 c 0,-5.97292 -5.36366,-10.78125 -12.02538,-10.78125 H 307.18359 c -6.66173,0 -12.02344,4.80833 -12.02344,10.78125 v 43.39063 H 51.087889 c -6.7206,0 -12.13086,4.19106 -12.13086,9.396483 v 341.68359 c 0,5.20542 5.41026,9.39453 12.13086,9.39453 H 450.55663 c 6.7206,0 12.13086,-4.18911 12.13086,-9.39453 z" /><path
       style="display:inline;fill:none;stroke:#f529d0;stroke-width:50;stroke-linecap:round;stroke-linejoin:bevel;stroke-opacity:1;paint-order:markers fill stroke"
       d="M 43.979119,450.13181 V 98.591456"
       id="path1" /><g
       style="fill:url(#linearGradient6);fill-opacity:1"
       id="g5"
       transform="matrix(17.537689,0,0,17.537689,86.234142,39.584227)"><path
         d="M 12.022,23 A 11.053,11.053 0 0 0 22.943,13.5 5.853,5.853 0 0 0 22.366,10 C 20.711,6.854 17.589,7.329 15.31,7.678 14.13,7.856 12.91,8.044 12.445,7.643 A 2.416,2.416 0 0 1 12.02,6 c 0,-2.683 0,-5 -3,-5 C 3.753,1 1,6.534 1,12 A 11.023,11.023 0 0 0 12.022,23 Z M 9.016,3 c 0.909,0 1,0 1,3 a 3.941,3.941 0 0 0 1.122,3.168 c 1.163,1 2.844,0.741 4.469,0.494 2.483,-0.379 4.061,-0.482 4.986,1.276 A 3.844,3.844 0 0 1 20.956,13.231 9.024,9.024 0 0 1 3,12 C 3,8.382 4.6,3 9.016,3 Z M 5,7.5 A 1.5,1.5 0 1 1 6.5,9 1.5,1.5 0 0 1 5,7.5 Z M 4,12 A 1.5,1.5 0 1 1 5.5,13.5 1.5,1.5 0 0 1 4,12 Z m 3.5,3 A 1.5,1.5 0 1 1 6,16.5 1.5,1.5 0 0 1 7.5,15 Z m 8,3 A 3.5,3.5 0 1 0 12,14.5 3.5,3.5 0 0 0 15.5,18 Z m 0,-5 A 1.5,1.5 0 1 1 14,14.5 1.5,1.5 0 0 1 15.5,13 Z"
         id="path1-4"
         style="fill:url(#linearGradient6);fill-opacity:1" /></g></g></svg>
