<?xml version="1.0" encoding="UTF-8" standalone="no"?>
<!-- Created with Inkscape (http://www.inkscape.org/) -->

<svg
   width="500"
   height="500"
   viewBox="0 0 500 500"
   version="1.1"
   id="svg1"
   inkscape:version="1.3.2 (091e20ef0f, 2023-11-25, custom)"
   sodipodi:docname="folder.d.ts.svg"
   xml:space="preserve"
   xmlns:inkscape="http://www.inkscape.org/namespaces/inkscape"
   xmlns:sodipodi="http://sodipodi.sourceforge.net/DTD/sodipodi-0.dtd"
   xmlns="http://www.w3.org/2000/svg"
   xmlns:svg="http://www.w3.org/2000/svg"><sodipodi:namedview
     id="namedview1"
     pagecolor="#505050"
     bordercolor="#eeeeee"
     borderopacity="1"
     inkscape:showpageshadow="0"
     inkscape:pageopacity="0"
     inkscape:pagecheckerboard="0"
     inkscape:deskcolor="#505050"
     inkscape:document-units="px"
     inkscape:zoom="0.96390292"
     inkscape:cx="101.15127"
     inkscape:cy="284.77972"
     inkscape:window-width="1362"
     inkscape:window-height="744"
     inkscape:window-x="0"
     inkscape:window-y="20"
     inkscape:window-maximized="0"
     inkscape:current-layer="layer1"
     showguides="true"><sodipodi:guide
       position="250.02518,350.60736"
       orientation="-0.99997769,0.0066803918"
       id="guide30"
       inkscape:locked="false" /><sodipodi:guide
       position="66.396728,247.89992"
       orientation="0,-1"
       id="guide53"
       inkscape:locked="false" /></sodipodi:namedview><defs
     id="defs1"><linearGradient
       id="swatch61"
       inkscape:swatch="solid"><stop
         style="stop-color:#5090d0;stop-opacity:1;"
         offset="0"
         id="stop61" /></linearGradient><linearGradient
       id="swatch30"
       inkscape:swatch="solid"><stop
         style="stop-color:#f9f9f9;stop-opacity:1;"
         offset="0"
         id="stop30" /></linearGradient><inkscape:perspective
       sodipodi:type="inkscape:persp3d"
       inkscape:vp_x="44.06818 : 315.96746 : 1"
       inkscape:vp_y="0 : 1000 : 0"
       inkscape:vp_z="480.74134 : 298.68846 : 1"
       inkscape:persp3d-origin="250 : 166.66667 : 1"
       id="perspective17" /><inkscape:perspective
       sodipodi:type="inkscape:persp3d"
       inkscape:vp_x="44.06818 : 315.96746 : 1"
       inkscape:vp_y="0 : 1000 : 0"
       inkscape:vp_z="480.74134 : 298.68846 : 1"
       inkscape:persp3d-origin="250 : 166.66667 : 1"
       id="perspective17-4" /><inkscape:perspective
       sodipodi:type="inkscape:persp3d"
       inkscape:vp_x="44.06818 : 315.96746 : 1"
       inkscape:vp_y="0 : 1000 : 0"
       inkscape:vp_z="480.74134 : 298.68846 : 1"
       inkscape:persp3d-origin="250 : 166.66667 : 1"
       id="perspective17-1" /><inkscape:perspective
       sodipodi:type="inkscape:persp3d"
       inkscape:vp_x="44.06818 : 315.96746 : 1"
       inkscape:vp_y="0 : 1000 : 0"
       inkscape:vp_z="480.74134 : 298.68846 : 1"
       inkscape:persp3d-origin="250 : 166.66667 : 1"
       id="perspective17-3" /><inkscape:perspective
       sodipodi:type="inkscape:persp3d"
       inkscape:vp_x="44.06818 : 315.96746 : 1"
       inkscape:vp_y="0 : 1000 : 0"
       inkscape:vp_z="480.74134 : 298.68846 : 1"
       inkscape:persp3d-origin="250 : 166.66667 : 1"
       id="perspective17-8" /></defs><g
     inkscape:label="Layer 1"
     inkscape:groupmode="layer"
     id="layer1"><g
       id="rect53-0"
       style="opacity:0.27676"><path
         style="color:#000000;fill:#3078c7;fill-opacity:0.313725;stroke-linejoin:round;-inkscape-stroke:none;paint-order:markers fill stroke"
         d="m 462.68749,104.21979 c 0,-1.64895 -0.59137,-3.17324 -1.54688,-4.517583 v -48.26953 c 0,-5.97292 -5.36366,-10.78125 -12.02538,-10.78125 H 307.18359 c -6.66173,0 -12.02344,4.80833 -12.02344,10.78125 v 43.39063 H 51.087889 c -6.7206,0 -12.13086,4.19106 -12.13086,9.396483 v 341.68359 c 0,5.20542 5.41026,9.39453 12.13086,9.39453 H 450.55663 c 6.7206,0 12.13086,-4.18911 12.13086,-9.39453 z"
         id="path8" /><path
         id="path9"
         style="color:#000000;fill:#3078c7;stroke-linejoin:round;-inkscape-stroke:none;paint-order:markers fill stroke"
         d="M 307.18359 29.621094 C 295.21385 29.621094 284.12891 38.859174 284.12891 51.433594 L 284.12891 58.546875 L 306.19141 58.546875 L 306.19141 51.791016 C 306.27331 51.773296 306.5147 51.681641 307.18359 51.681641 L 449.11523 51.681641 C 449.78542 51.681641 450.02749 51.775201 450.10938 51.792969 L 450.10938 99.703125 A 11.032203 11.032203 0 0 0 451.65625 104.55078 L 451.65625 133.32031 L 473.71875 155.38281 L 473.71875 104.2207 C 473.71875 101.65541 473.05759 99.35709 472.17188 97.244141 L 472.17188 51.433594 C 472.17188 38.856774 461.08499 29.621094 449.11523 29.621094 L 307.18359 29.621094 z M 51.087891 83.792969 C 45.434552 83.792969 40.095402 85.480588 35.746094 88.849609 C 31.396785 92.218632 27.925781 97.796281 27.925781 104.2207 L 27.925781 445.9043 C 27.925781 452.32872 31.398352 457.90508 35.748047 461.27344 C 40.097742 464.64178 45.435619 466.32813 51.087891 466.32812 L 450.55664 466.32812 C 456.20891 466.32813 461.5468 464.64178 465.89648 461.27344 C 470.24618 457.90508 473.71875 452.32872 473.71875 445.9043 L 473.71875 354.32227 L 451.65625 376.38477 L 451.65625 444.00586 C 451.33643 444.12942 451.19774 444.26758 450.55664 444.26758 L 383.77344 444.26758 L 376.88281 451.1582 L 214.25781 451.1582 L 207.36719 444.26758 L 51.087891 444.26758 C 50.446788 444.26758 50.308104 444.12942 49.988281 444.00586 L 49.988281 106.11719 C 50.307822 105.99353 50.446524 105.85352 51.087891 105.85352 L 166.95117 105.85352 L 189.01172 83.792969 L 51.087891 83.792969 z " /></g><path
       style="display:inline;fill:none;stroke:#3078c7;stroke-width:50;stroke-linecap:round;stroke-linejoin:bevel;stroke-opacity:0.992157;paint-order:markers fill stroke"
       d="M 43.979119,450.13181 V 98.591456"
       id="path1" /><g
       inkscape:label="Layer 1"
       id="layer1-8"
       transform="translate(38.711846,15.589435)" /><g
       inkscape:label="Layer 1"
       id="g7"
       transform="translate(38.711846,15.589435)"><path
         id="path7"
         style="display:inline;fill:#3178c6;fill-opacity:0.58162;stroke:none;stroke-width:26.9188;stroke-linejoin:bevel;stroke-dasharray:none;stroke-opacity:1;paint-order:markers fill stroke"
         d="M 175.5457,42.958329 60.552026,157.95041 V 320.57584 L 175.5457,435.56951 H 338.17112 L 453.16321,320.57584 V 157.95041 L 338.17112,42.958329 Z m -22.8277,116.350811 106.24899,10e-6 a 9.5396941,9.5396941 0 0 1 9.53806,9.53964 v 14.01019 a 9.5396941,9.5396941 0 0 1 -9.53806,9.53965 H 223.35956 V 303.8957 a 9.5396941,9.5396941 0 0 1 -9.53807,9.53965 h -16.15121 a 9.5396941,9.5396941 0 0 1 -9.53965,-9.53965 V 192.39863 H 152.718 a 9.5396941,9.5396941 0 0 1 -9.53808,-9.53965 V 168.8488 a 9.5396941,9.5396941 0 0 1 9.53808,-9.53966 z m 158.40036,39.30832 c 11.04645,0 21.72908,1.90473 31.09096,5.7865 a 9.5396941,9.5396941 0 0 1 5.50145,11.4875 l -3.69772,12.64985 a 9.5396941,9.5396941 0 0 1 -12.23653,6.35027 c -7.00686,-2.39258 -15.63244,-3.96378 -22.21485,-3.96378 -5.81302,0 -9.95128,1.2341 -11.7757,2.31524 -1.82445,1.08115 -1.45376,0.89275 -1.45376,1.57253 1e-5,0.20872 -0.0251,0.1827 -0.0428,0.17736 0.0142,-0.007 0.036,-0.004 0.0807,0.0475 0.19661,0.22401 1.15794,1.01645 3.02945,1.84174 3.74301,1.65055 10.53514,3.19754 17.87893,5.16098 7.34378,1.96344 15.44954,4.36794 22.55216,9.73601 7.10262,5.36806 12.54375,14.65014 12.54375,25.84765 0,11.26735 -5.1495,21.66309 -13.77105,28.20247 -8.62155,6.53935 -20.05451,9.55231 -33.12907,9.55232 -13.32965,-10e-6 -27.41892,-2.92811 -39.55694,-8.44539 A 9.5396941,9.5396941 0 0 1 260.70885,295.577 l 3.69614,-12.64827 a 9.5396941,9.5396941 0 0 1 12.93491,-6.08264 c 8.44415,3.64258 21.12289,6.22516 29.3015,6.22516 5.21718,-1e-5 8.57376,-1.13855 9.81836,-1.95101 1.24461,-0.81245 1.07526,-0.474 1.07527,-1.93674 0,-0.93691 -0.009,-0.71424 -0.26446,-1.02936 -0.25594,-0.31509 -1.15018,-1.09744 -2.95343,-1.93833 -3.60648,-1.68177 -10.2757,-3.22779 -17.5337,-5.08655 -7.258,-1.85875 -15.2901,-4.05345 -22.41439,-9.19601 -7.12429,-5.14257 -12.68153,-14.31268 -12.68153,-25.36623 0,-11.64921 5.75129,-22.21334 14.86533,-28.64112 9.11403,-6.42778 21.00432,-9.30844 34.56541,-9.30845 z" /></g></g></svg>
