<?xml version="1.0" encoding="UTF-8" standalone="no"?>
<!-- Created with Inkscape (http://www.inkscape.org/) -->

<svg
   width="500"
   height="500"
   viewBox="0 0 500 500"
   version="1.1"
   id="svg1"
   inkscape:version="1.3.2 (091e20ef0f, 2023-11-25, custom)"
   sodipodi:docname="folder.js.svg"
   xml:space="preserve"
   xmlns:inkscape="http://www.inkscape.org/namespaces/inkscape"
   xmlns:sodipodi="http://sodipodi.sourceforge.net/DTD/sodipodi-0.dtd"
   xmlns="http://www.w3.org/2000/svg"
   xmlns:svg="http://www.w3.org/2000/svg"><sodipodi:namedview
     id="namedview1"
     pagecolor="#505050"
     bordercolor="#eeeeee"
     borderopacity="1"
     inkscape:showpageshadow="0"
     inkscape:pageopacity="0"
     inkscape:pagecheckerboard="0"
     inkscape:deskcolor="#505050"
     inkscape:document-units="px"
     inkscape:zoom="0.96390292"
     inkscape:cx="280.1112"
     inkscape:cy="233.94472"
     inkscape:window-width="1362"
     inkscape:window-height="744"
     inkscape:window-x="0"
     inkscape:window-y="20"
     inkscape:window-maximized="0"
     inkscape:current-layer="layer1"
     showguides="true"><sodipodi:guide
       position="250.02518,350.60736"
       orientation="-0.99997769,0.0066803918"
       id="guide30"
       inkscape:locked="false" /><sodipodi:guide
       position="66.396728,247.89992"
       orientation="0,-1"
       id="guide53"
       inkscape:locked="false" /></sodipodi:namedview><defs
     id="defs1"><linearGradient
       id="swatch61"
       inkscape:swatch="solid"><stop
         style="stop-color:#5090d0;stop-opacity:1;"
         offset="0"
         id="stop61" /></linearGradient><linearGradient
       id="swatch30"
       inkscape:swatch="solid"><stop
         style="stop-color:#f9f9f9;stop-opacity:1;"
         offset="0"
         id="stop30" /></linearGradient><inkscape:perspective
       sodipodi:type="inkscape:persp3d"
       inkscape:vp_x="44.06818 : 315.96746 : 1"
       inkscape:vp_y="0 : 1000 : 0"
       inkscape:vp_z="480.74134 : 298.68846 : 1"
       inkscape:persp3d-origin="250 : 166.66667 : 1"
       id="perspective17" /><inkscape:perspective
       sodipodi:type="inkscape:persp3d"
       inkscape:vp_x="44.06818 : 315.96746 : 1"
       inkscape:vp_y="0 : 1000 : 0"
       inkscape:vp_z="480.74134 : 298.68846 : 1"
       inkscape:persp3d-origin="250 : 166.66667 : 1"
       id="perspective17-4" /></defs><g
     inkscape:label="Layer 1"
     inkscape:groupmode="layer"
     id="layer1"><path
       id="path3"
       style="color:#000000;fill:#ffc340;stroke-linejoin:round;-inkscape-stroke:none;paint-order:markers fill stroke"
       d="M 307.18359 29.621094 C 295.21392 29.621094 284.12891 38.859246 284.12891 51.433594 L 284.12891 83.792969 L 51.087891 83.792969 C 45.434578 83.792969 40.097332 85.480607 35.748047 88.849609 C 31.398762 92.218613 27.925781 97.796326 27.925781 104.2207 L 27.925781 445.9043 C 27.925781 452.32868 31.398375 457.9051 35.748047 461.27344 C 40.097719 464.64176 45.435645 466.32813 51.087891 466.32812 L 450.55664 466.32812 C 456.20888 466.32813 461.54682 464.64176 465.89648 461.27344 C 470.24616 457.9051 473.71875 452.32868 473.71875 445.9043 L 473.71875 104.2207 C 473.71875 101.6553 473.05766 99.357157 472.17188 97.244141 L 472.17188 51.433594 C 472.17188 38.856846 461.08493 29.621094 449.11523 29.621094 L 307.18359 29.621094 z M 212.83398 171.3418 L 232.75391 171.3418 C 240.11483 171.34305 246.11619 177.34416 246.11719 184.70508 L 246.11719 303.26562 C 246.11719 321.67883 241.50171 337.80165 231.18555 349.46875 C 220.84865 361.1593 205.37262 367.0293 188.35352 367.0293 C 176.14295 367.0293 163.46048 364.00989 151.71875 356.96484 A 1.60016 1.60016 0 0 0 151.7168 356.96484 C 146.14976 353.62399 143.78701 346.73438 146.13086 340.67969 L 151.89062 325.80078 C 154.72623 318.4782 163.30628 315.1609 170.33008 318.67188 C 174.43493 320.72429 183.47041 322.78125 187.87305 322.78125 C 190.42476 322.78125 192.05897 322.48373 193.21094 321.99609 C 194.36291 321.50846 195.12181 320.83613 196.00195 319.75 C 197.5979 317.78053 199.46875 313.24778 199.46875 305.42578 L 199.46875 184.70508 C 199.47001 177.3433 205.47221 171.34183 212.83398 171.3418 z M 313.87305 219.82031 C 327.68109 219.82031 341.061 222.19859 352.83398 227.08008 C 359.12063 229.68792 362.45009 236.64295 360.54102 243.17578 L 355.98047 258.77539 C 353.84907 266.06305 346.01978 270.12492 338.83398 267.67188 C 330.36947 264.78157 319.81687 262.86914 311.95312 262.86914 C 305.01018 262.86914 300.04505 264.43706 298.24805 265.50195 C 297.72918 265.80947 297.8729 265.69706 297.64648 265.85547 C 297.65618 265.86147 297.65116 265.85923 297.66016 265.86523 C 298.19642 266.21948 298.9929 266.67506 300.06641 267.14844 C 304.36686 269.04483 312.79428 271.00457 321.88672 273.43555 C 330.97495 275.86538 341.20812 278.87377 350.25195 285.70898 C 359.40608 292.62756 366.35742 304.53664 366.35742 318.86523 C 366.35742 333.24919 359.7796 346.55057 348.74023 354.92383 C 337.75289 363.25763 323.28522 367.0293 306.91406 367.0293 C 290.23994 367.0293 272.66378 363.38215 257.46289 356.47266 C 251.42059 353.72571 248.30385 346.92552 250.16602 340.55469 L 254.72656 324.95508 C 256.97262 317.27415 265.49709 313.26513 272.8457 316.43359 C 282.97781 320.80433 298.60337 323.98047 308.35352 323.98047 C 314.55527 323.98047 318.58254 322.49026 319.58789 321.83398 C 320.28111 321.38144 320.29752 321.34398 320.19531 321.54688 C 320.19331 321.37129 320.18945 321.16637 320.18945 320.78516 C 320.18945 320.41411 320.20684 320.52653 320.21484 320.51953 C 320.22955 320.53865 319.20438 319.53671 317.14453 318.57617 C 313.04054 316.6624 304.77181 314.70031 295.79883 312.40234 C 286.82888 310.10517 276.68947 307.35672 267.61523 300.80664 C 258.41686 294.16693 251.31055 282.39363 251.31055 268.22461 C 251.31055 253.33058 258.66592 239.81453 270.32227 231.59375 C 281.91447 223.41819 296.92106 219.82031 313.87305 219.82031 z " /></g></svg>
