<?xml version="1.0" encoding="UTF-8" standalone="no"?>
<!-- Created with Inkscape (http://www.inkscape.org/) -->

<svg
   width="500"
   height="500"
   viewBox="0 0 500 500"
   version="1.1"
   id="svg1"
   inkscape:version="1.3.2 (091e20ef0f, 2023-11-25, custom)"
   sodipodi:docname="folder.public.svg"
   xml:space="preserve"
   xmlns:inkscape="http://www.inkscape.org/namespaces/inkscape"
   xmlns:sodipodi="http://sodipodi.sourceforge.net/DTD/sodipodi-0.dtd"
   xmlns:xlink="http://www.w3.org/1999/xlink"
   xmlns="http://www.w3.org/2000/svg"
   xmlns:svg="http://www.w3.org/2000/svg"><sodipodi:namedview
     id="namedview1"
     pagecolor="#505050"
     bordercolor="#eeeeee"
     borderopacity="1"
     inkscape:showpageshadow="0"
     inkscape:pageopacity="0"
     inkscape:pagecheckerboard="0"
     inkscape:deskcolor="#505050"
     inkscape:document-units="px"
     inkscape:zoom="0.68158229"
     inkscape:cx="116.64035"
     inkscape:cy="226.67842"
     inkscape:window-width="1352"
     inkscape:window-height="734"
     inkscape:window-x="4"
     inkscape:window-y="24"
     inkscape:window-maximized="0"
     inkscape:current-layer="layer1"
     showguides="true"><sodipodi:guide
       position="250.02518,350.60736"
       orientation="-0.99997769,0.0066803918"
       id="guide30"
       inkscape:locked="false" /><sodipodi:guide
       position="66.396728,247.89992"
       orientation="0,-1"
       id="guide53"
       inkscape:locked="false" /></sodipodi:namedview><defs
     id="defs1"><linearGradient
       id="linearGradient3"
       inkscape:collect="always"><stop
         style="stop-color:#528bff;stop-opacity:1;"
         offset="0"
         id="stop3" /><stop
         style="stop-color:#bf4aff;stop-opacity:1;"
         offset="0.99927855"
         id="stop4" /></linearGradient><linearGradient
       id="swatch61"
       inkscape:swatch="solid"><stop
         style="stop-color:#5090d0;stop-opacity:1;"
         offset="0"
         id="stop61" /></linearGradient><linearGradient
       id="swatch30"
       inkscape:swatch="solid"><stop
         style="stop-color:#f9f9f9;stop-opacity:1;"
         offset="0"
         id="stop30" /></linearGradient><inkscape:perspective
       sodipodi:type="inkscape:persp3d"
       inkscape:vp_x="44.06818 : 315.96746 : 1"
       inkscape:vp_y="0 : 1000 : 0"
       inkscape:vp_z="480.74134 : 298.68846 : 1"
       inkscape:persp3d-origin="250 : 166.66667 : 1"
       id="perspective17" /><inkscape:perspective
       sodipodi:type="inkscape:persp3d"
       inkscape:vp_x="44.06818 : 315.96746 : 1"
       inkscape:vp_y="0 : 1000 : 0"
       inkscape:vp_z="480.74134 : 298.68846 : 1"
       inkscape:persp3d-origin="250 : 166.66667 : 1"
       id="perspective17-4" /><inkscape:perspective
       sodipodi:type="inkscape:persp3d"
       inkscape:vp_x="44.06818 : 315.96746 : 1"
       inkscape:vp_y="0 : 1000 : 0"
       inkscape:vp_z="480.74134 : 298.68846 : 1"
       inkscape:persp3d-origin="250 : 166.66667 : 1"
       id="perspective17-293" /><inkscape:perspective
       sodipodi:type="inkscape:persp3d"
       inkscape:vp_x="44.06818 : 315.96746 : 1"
       inkscape:vp_y="0 : 1000 : 0"
       inkscape:vp_z="480.74134 : 298.68846 : 1"
       inkscape:persp3d-origin="250 : 166.66667 : 1"
       id="perspective17-5" /><inkscape:perspective
       sodipodi:type="inkscape:persp3d"
       inkscape:vp_x="44.06818 : 315.96746 : 1"
       inkscape:vp_y="0 : 1000 : 0"
       inkscape:vp_z="480.74134 : 298.68846 : 1"
       inkscape:persp3d-origin="250 : 166.66667 : 1"
       id="perspective17-2" /><inkscape:perspective
       sodipodi:type="inkscape:persp3d"
       inkscape:vp_x="44.06818 : 315.96746 : 1"
       inkscape:vp_y="0 : 1000 : 0"
       inkscape:vp_z="480.74134 : 298.68846 : 1"
       inkscape:persp3d-origin="250 : 166.66667 : 1"
       id="perspective17-29" /><inkscape:perspective
       sodipodi:type="inkscape:persp3d"
       inkscape:vp_x="44.06818 : 315.96746 : 1"
       inkscape:vp_y="0 : 1000 : 0"
       inkscape:vp_z="480.74134 : 298.68846 : 1"
       inkscape:persp3d-origin="250 : 166.66667 : 1"
       id="perspective17-2-1" /><linearGradient
       inkscape:collect="always"
       xlink:href="#linearGradient3"
       id="linearGradient4"
       x1="42.642105"
       y1="47.390778"
       x2="577.5387"
       y2="456.62283"
       gradientUnits="userSpaceOnUse" /></defs><g
     inkscape:label="Layer 1"
     inkscape:groupmode="layer"
     id="layer1"><path
       id="path2"
       style="opacity:0.222881;color:#000000;fill:#485dbe;stroke-linejoin:bevel;stroke-miterlimit:10;-inkscape-stroke:none;fill-opacity:1"
       d="M 296.32774 31.341941 L 285.24571 42.423973 L 285.24571 85.513816 L 40.124619 85.513816 L 29.042587 96.595848 L 29.042587 457.07046 L 40.124619 468.15054 L 463.85509 468.15054 L 474.93517 457.07046 L 474.93517 42.423973 L 462.17931 31.468894 C 459.67841 31.851418 446.60531 32.436786 430.85704 32.57241 C 415.10878 32.708033 395.68335 32.61756 376.55431 32.435691 C 338.29622 32.071952 302.15424 31.341941 296.32774 31.341941 z "
       transform="translate(-1.6304781,0.20102743)" /><path
       style="display:inline;fill:none;stroke:#6e61ff;stroke-width:50;stroke-linecap:round;stroke-linejoin:bevel;stroke-opacity:1;paint-order:markers fill stroke"
       d="M 43.979119,450.13181 V 98.591456"
       id="path1" /><path
       d="m 336.7941,162.99388 a 72.746393,72.746393 0 0 1 34.5771,53.78661 58.550569,58.550569 0 1 0 -34.5771,-53.78661 z m -38.41902,121.01987 a 59.549463,59.549463 0 1 0 -59.54945,-59.54946 v 0 a 59.856816,59.856816 0 0 0 59.54945,59.54946 z m 24.97236,3.84191 h -49.94471 a 74.917067,74.917067 0 0 0 -74.91707,74.91706 v 63.39137 0 l 3.84191,1.92095 a 309.38828,309.38828 0 0 0 103.73132,17.28855 185.1412,185.1412 0 0 0 90.28467,-17.28855 l 3.8419,-1.92095 v 0 -61.47042 a 79.681024,79.681024 0 0 0 -76.83802,-76.83801 z m 97.96847,-61.47042 H 371.3712 a 61.950651,61.950651 0 0 1 -23.0514,49.94472 88.767119,88.767119 0 0 1 63.39136,86.44276 v 19.20951 a 187.90737,187.90737 0 0 0 78.75897,-17.28856 l 3.8419,-1.92095 v 0 -61.47041 a 73.380307,73.380307 0 0 0 -72.99612,-74.91707 z m -226.67214,-3.84189 a 58.051123,58.051123 0 0 0 30.7352,-9.60476 71.267262,71.267262 0 0 1 26.8933,-46.10282 v -3.84189 a 59.549465,59.549465 0 0 0 -119.09893,0 62.853498,62.853498 0 0 0 61.47043,59.54947 z m 51.86566,55.70755 a 80.679918,80.679918 0 0 1 -23.05141,-49.9447 h -55.70757 a 74.917067,74.917067 0 0 0 -74.917066,74.91707 v 61.4704 0 l 3.841905,1.92095 a 312.73074,312.73074 0 0 0 84.521821,15.36761 v -19.20951 a 92.397719,92.397719 0 0 1 65.31232,-84.52182 z"
       style="fill:url(#linearGradient4);stroke-width:19.2095"
       id="path2-2" /></g></svg>
