<?xml version="1.0" encoding="UTF-8" standalone="no"?>
<!-- Created with Inkscape (http://www.inkscape.org/) -->

<svg
   width="500"
   height="500"
   viewBox="0 0 500 500"
   version="1.1"
   id="svg1"
   inkscape:version="1.3.2 (091e20ef0f, 2023-11-25, custom)"
   sodipodi:docname="folder.asset.svg"
   xml:space="preserve"
   xmlns:inkscape="http://www.inkscape.org/namespaces/inkscape"
   xmlns:sodipodi="http://sodipodi.sourceforge.net/DTD/sodipodi-0.dtd"
   xmlns="http://www.w3.org/2000/svg"
   xmlns:svg="http://www.w3.org/2000/svg"><sodipodi:namedview
     id="namedview1"
     pagecolor="#505050"
     bordercolor="#eeeeee"
     borderopacity="1"
     inkscape:showpageshadow="0"
     inkscape:pageopacity="0"
     inkscape:pagecheckerboard="0"
     inkscape:deskcolor="#505050"
     inkscape:document-units="px"
     inkscape:zoom="0.96390292"
     inkscape:cx="231.86982"
     inkscape:cy="229.79493"
     inkscape:window-width="1362"
     inkscape:window-height="744"
     inkscape:window-x="0"
     inkscape:window-y="20"
     inkscape:window-maximized="0"
     inkscape:current-layer="layer2"
     showguides="true"><sodipodi:guide
       position="250.02518,350.60736"
       orientation="-0.99997769,0.0066803918"
       id="guide30"
       inkscape:locked="false" /><sodipodi:guide
       position="419.20185,248.30647"
       orientation="0,-1"
       id="guide53"
       inkscape:locked="false" /></sodipodi:namedview><defs
     id="defs1"><inkscape:path-effect
       effect="mirror_symmetry"
       start_point="341.76098,28.008646"
       end_point="341.76098,211.38431"
       center_point="341.76098,119.69648"
       id="path-effect3"
       is_visible="true"
       lpeversion="1.2"
       lpesatellites=""
       mode="free"
       discard_orig_path="false"
       fuse_paths="true"
       oposite_fuse="false"
       split_items="false"
       split_open="false"
       link_styles="false" /><inkscape:path-effect
       effect="mirror_symmetry"
       start_point="216.08168,129.12039"
       end_point="216.08168,402.6937"
       center_point="216.08168,265.90704"
       id="path-effect2"
       is_visible="true"
       lpeversion="1.2"
       lpesatellites=""
       mode="free"
       discard_orig_path="false"
       fuse_paths="true"
       oposite_fuse="false"
       split_items="false"
       split_open="false"
       link_styles="false" /><linearGradient
       id="swatch61"
       inkscape:swatch="solid"><stop
         style="stop-color:#5090d0;stop-opacity:1;"
         offset="0"
         id="stop61" /></linearGradient><linearGradient
       id="swatch30"
       inkscape:swatch="solid"><stop
         style="stop-color:#f9f9f9;stop-opacity:1;"
         offset="0"
         id="stop30" /></linearGradient><inkscape:perspective
       sodipodi:type="inkscape:persp3d"
       inkscape:vp_x="44.06818 : 315.96746 : 1"
       inkscape:vp_y="0 : 1000 : 0"
       inkscape:vp_z="480.74134 : 298.68846 : 1"
       inkscape:persp3d-origin="250 : 166.66667 : 1"
       id="perspective17" /></defs><g
     inkscape:label="Layer 1"
     inkscape:groupmode="layer"
     id="layer1"><path
       id="rect53-0"
       style="display:inline;opacity:0.14380811;fill:#f59d00;fill-opacity:0.3137255;fill-rule:nonzero;stroke:#f59d00;stroke-width:22.0622;stroke-linecap:butt;stroke-linejoin:round;stroke-dasharray:none;stroke-opacity:1;paint-order:markers fill stroke"
       d="m 462.68749,104.21979 c 0,-1.64895 -0.59137,-3.17324 -1.54688,-4.517583 v -48.26953 c 0,-5.97292 -5.36366,-10.78125 -12.02538,-10.78125 H 307.18359 c -6.66173,0 -12.02344,4.80833 -12.02344,10.78125 v 43.39063 H 51.087889 c -6.7206,0 -12.13086,4.19106 -12.13086,9.396483 v 341.68359 c 0,5.20542 5.41026,9.39453 12.13086,9.39453 H 450.55663 c 6.7206,0 12.13086,-4.18911 12.13086,-9.39453 z" /><path
       style="fill:none;stroke:#ff9d00;stroke-width:50;stroke-linecap:round;stroke-linejoin:bevel;paint-order:markers fill stroke;stroke-opacity:1"
       d="M 43.979119,450.13181 V 98.591456"
       id="path1" /></g><g
     inkscape:groupmode="layer"
     id="layer2"
     inkscape:label="Layer 2"><path
       id="path1-7"
       style="fill:#ff9d00;fill-opacity:1;stroke:none;stroke-width:4.03546;stroke-opacity:1"
       d="M 287.98633 275.875 L 118.95117 341.82812 C 116.91582 342.85234 115.63124 344.93286 115.61914 347.20312 C 115.61914 347.23932 115.63672 347.27214 115.63672 347.30469 C 115.39039 347.97813 115.21278 348.6877 115.2168 349.42969 L 116.01953 417.25977 C 116.03213 419.47759 117.25451 421.51013 119.20508 422.55859 L 303.51562 494.6875 C 304.4162 495.1674 305.4013 495.4082 306.38672 495.4082 L 306.40039 495.4082 C 306.81636 495.88 307.28072 496.32363 307.83398 496.6543 C 308.78706 497.22289 309.86119 497.50977 310.93945 497.50977 C 311.93289 497.50977 312.91792 497.2632 313.81445 496.7793 L 496.38086 423.01758 C 498.33548 421.95704 499.55859 419.91304 499.55859 417.69922 L 499.55859 342.89648 C 499.55859 342.84408 499.53906 342.79665 499.53906 342.74023 C 499.53506 342.69593 499.55078 342.65589 499.55078 342.60742 C 499.54378 342.43405 499.47489 342.27681 499.46289 342.10742 C 499.41049 341.77676 499.37463 341.4455 499.27344 341.12695 C 499.20064 340.90516 499.10654 340.70785 499.01367 340.49414 C 498.88846 340.21186 498.76335 339.93384 498.59375 339.67578 C 498.46855 339.47415 498.31936 339.29097 498.16992 339.10547 C 497.98012 338.87159 497.78281 338.65488 497.55664 338.44922 C 497.37895 338.28793 497.18824 338.14308 496.98633 338.00195 C 496.85707 337.91335 496.74875 337.78767 496.60742 337.70703 C 496.47819 337.62633 496.32884 337.59399 496.1875 337.52539 C 496.07038 337.46479 495.97648 337.38053 495.85938 337.32812 L 424.71484 311.45898 L 408.95312 318.24609 L 479.50781 343.5625 L 310.87109 411.83203 L 135.02539 347.28906 L 286.38086 289.5332 L 287.98633 275.875 z M 487.44336 353.02734 L 487.44336 414.07812 L 316.99219 481.30664 L 316.99219 422.27539 L 487.44336 353.02734 z " /><ellipse
       style="opacity:1;fill:none;fill-opacity:1;stroke:#ff9d00;stroke-width:20.4854;stroke-linecap:round;stroke-miterlimit:10;stroke-dasharray:none;stroke-opacity:1"
       id="path8"
       cx="184.11644"
       cy="111.50317"
       rx="81.339401"
       ry="81.374718" /><path
       sodipodi:type="star"
       style="opacity:1;fill:none;fill-opacity:1;stroke:#ff9d00;stroke-width:15;stroke-linecap:round;stroke-miterlimit:10;stroke-dasharray:none;stroke-opacity:1"
       id="path9"
       inkscape:flatsided="false"
       sodipodi:sides="3"
       sodipodi:cx="426.40414"
       sodipodi:cy="223.56927"
       sodipodi:r1="91.326871"
       sodipodi:r2="51.217022"
       sodipodi:arg1="-1.9160325"
       sodipodi:arg2="-0.75462863"
       inkscape:rounded="0"
       inkscape:randomized="0"
       d="m 395.4974,137.63109 68.21968,50.85359 52.56508,51.28766 -78.15034,33.65318 -70.69895,19.87887 9.93066,-84.50677 z"
       inkscape:transform-center-x="12.944341"
       inkscape:transform-center-y="2.2688026"
       transform="matrix(1.3548069,0,0,1.3548069,-219.73589,-37.076229)" /></g></svg>
