<?xml version="1.0" encoding="UTF-8" standalone="no"?>
<!-- Created with Inkscape (http://www.inkscape.org/) -->

<svg
   width="500"
   height="500"
   viewBox="0 0 500 500"
   version="1.1"
   id="svg1"
   inkscape:version="1.3.2 (091e20ef0f, 2023-11-25, custom)"
   sodipodi:docname="folder.app.svg"
   xml:space="preserve"
   xmlns:inkscape="http://www.inkscape.org/namespaces/inkscape"
   xmlns:sodipodi="http://sodipodi.sourceforge.net/DTD/sodipodi-0.dtd"
   xmlns="http://www.w3.org/2000/svg"
   xmlns:svg="http://www.w3.org/2000/svg"><sodipodi:namedview
     id="namedview1"
     pagecolor="#505050"
     bordercolor="#eeeeee"
     borderopacity="1"
     inkscape:showpageshadow="0"
     inkscape:pageopacity="0"
     inkscape:pagecheckerboard="0"
     inkscape:deskcolor="#505050"
     inkscape:document-units="px"
     inkscape:zoom="0.68158229"
     inkscape:cx="234.0143"
     inkscape:cy="198.80211"
     inkscape:window-width="1362"
     inkscape:window-height="744"
     inkscape:window-x="0"
     inkscape:window-y="20"
     inkscape:window-maximized="1"
     inkscape:current-layer="layer1"
     showguides="true"
     showgrid="false"><sodipodi:guide
       position="250.02518,350.60736"
       orientation="-0.99997769,0.0066803918"
       id="guide30"
       inkscape:locked="false" /><sodipodi:guide
       position="727.06956,247.62458"
       orientation="0,-1"
       id="guide53"
       inkscape:locked="false" /></sodipodi:namedview><defs
     id="defs1"><linearGradient
       id="swatch61"
       inkscape:swatch="solid"><stop
         style="stop-color:#5090d0;stop-opacity:1;"
         offset="0"
         id="stop61" /></linearGradient><linearGradient
       id="swatch30"
       inkscape:swatch="solid"><stop
         style="stop-color:#f9f9f9;stop-opacity:1;"
         offset="0"
         id="stop30" /></linearGradient><inkscape:perspective
       sodipodi:type="inkscape:persp3d"
       inkscape:vp_x="44.06818 : 315.96746 : 1"
       inkscape:vp_y="0 : 1000 : 0"
       inkscape:vp_z="480.74134 : 298.68846 : 1"
       inkscape:persp3d-origin="250 : 166.66667 : 1"
       id="perspective17" /><clipPath
       id="clip0"><rect
         width="24"
         height="24"
         fill="white"
         id="rect1" /></clipPath><inkscape:perspective
       sodipodi:type="inkscape:persp3d"
       inkscape:vp_x="44.06818 : 315.96746 : 1"
       inkscape:vp_y="0 : 1000 : 0"
       inkscape:vp_z="480.74134 : 298.68846 : 1"
       inkscape:persp3d-origin="250 : 166.66667 : 1"
       id="perspective17-3" /><inkscape:perspective
       sodipodi:type="inkscape:persp3d"
       inkscape:vp_x="44.06818 : 315.96746 : 1"
       inkscape:vp_y="0 : 1000 : 0"
       inkscape:vp_z="480.74134 : 298.68846 : 1"
       inkscape:persp3d-origin="250 : 166.66667 : 1"
       id="perspective17-38" /></defs><g
     inkscape:label="Layer 1"
     inkscape:groupmode="layer"
     id="layer1"
     style="opacity:1"><g
       inkscape:label="Layer 1"
       id="layer1-9"
       transform="translate(-1.0605819,-3.4343222)"><path
         id="rect53-0"
         style="opacity:0.16428546;fill:#ff2054;fill-opacity:0.47450981;fill-rule:nonzero;stroke:#ff2054;stroke-width:22.0622;stroke-linecap:butt;stroke-linejoin:round;stroke-dasharray:none;stroke-opacity:1;paint-order:markers fill stroke"
         d="m 462.68749,104.21979 c 0,-1.64895 -0.59137,-3.17324 -1.54688,-4.517583 v -48.26953 c 0,-5.97292 -5.36366,-10.78125 -12.02538,-10.78125 H 307.18359 c -6.66173,0 -12.02344,4.80833 -12.02344,10.78125 v 43.39063 H 51.087889 c -6.7206,0 -12.13086,4.19106 -12.13086,9.396483 v 341.68359 c 0,5.20542 5.41026,9.39453 12.13086,9.39453 H 450.55663 c 6.7206,0 12.13086,-4.18911 12.13086,-9.39453 z" /><path
         style="fill:none;stroke:#ff2054;stroke-width:50;stroke-linecap:round;stroke-linejoin:bevel;stroke-opacity:1;paint-order:markers fill stroke;fill-opacity:1"
         d="M 43.979119,450.13181 V 98.591456"
         id="path1" /></g><path
       id="rect1-6"
       style="opacity:1;fill:#ff2054;fill-opacity:1;stroke-width:26.7392;stroke-linejoin:bevel;paint-order:markers fill stroke"
       d="m 185.34086,63.548798 c -40.82952,0 -73.69849,32.868979 -73.69849,73.698502 v 234.38453 c 0,40.82952 32.86897,73.69849 73.69849,73.69849 h 235.4715 c 40.82953,0 73.70008,-32.86897 73.70008,-73.69849 V 137.2473 c 0,-40.829523 -32.87055,-73.698502 -73.70008,-73.698502 z m 41.60376,31.004625 c 5.49046,0.332334 11.18922,1.983144 16.80008,4.494164 11.22167,5.022043 23.06425,13.686993 35.51766,25.292913 7.54346,7.0301 15.30355,15.27331 23.12054,24.3538 7.8165,-9.07983 15.57597,-17.32255 23.11897,-24.35223 12.45343,-11.60591 24.296,-20.27244 35.51767,-25.294483 5.61084,-2.51102 11.31,-4.161309 16.80006,-4.494164 5.4901,-0.332886 10.77108,0.652164 15.55107,3.411914 9.56004,5.519493 13.97957,16.329273 15.2412,28.558543 1.26164,12.22927 -0.32223,26.82011 -4.14653,43.40803 -2.31636,10.04717 -5.57603,20.88792 -9.53105,32.197 11.77226,2.22943 22.79172,4.827 32.65158,7.84473 16.27771,4.98203 29.70259,10.90631 39.66264,18.11356 9.96005,7.20724 17.11309,16.4389 17.11309,27.47787 0,11.03898 -7.15304,20.26904 -17.11309,27.47628 -9.96005,7.20726 -23.38493,13.13155 -39.66264,18.11356 -9.85986,3.01773 -20.87932,5.61687 -32.65158,7.84633 3.95502,11.30905 7.21469,22.14983 9.53105,32.19696 3.8243,16.58796 5.4066,31.17721 4.14495,43.40648 -1.2616,12.22928 -5.67959,23.04063 -15.23962,28.56011 -9.56001,5.51949 -21.12945,3.9398 -32.35113,-1.08225 -11.22168,-5.02201 -23.06426,-13.69013 -35.51767,-25.29606 -7.54314,-7.0298 -15.30232,-15.27219 -23.11897,-24.35222 -7.81714,9.0807 -15.57692,17.32356 -23.12054,24.35379 -12.45341,11.60594 -24.29599,20.27088 -35.51766,25.29292 -11.22169,5.02203 -22.79268,6.60173 -32.35273,1.08225 -9.56002,-5.51949 -13.9764,-16.32926 -15.23804,-28.55854 -1.26161,-12.22927 0.32067,-26.81696 4.14497,-43.40489 2.31646,-10.04763 5.57575,-20.88892 9.53105,-32.19855 -11.77168,-2.22941 -22.79057,-4.82873 -32.65002,-7.84633 -16.27771,-4.98201 -29.70415,-10.9063 -39.6642,-18.11356 -9.96004,-7.20724 -17.11311,-16.4373 -17.11311,-27.47628 0,-11.03897 7.15307,-20.27063 17.11311,-27.47787 9.96005,-7.20725 23.38649,-13.13153 39.6642,-18.11356 9.85945,-3.01761 20.87834,-5.61536 32.65002,-7.84473 -3.9553,-11.30968 -7.21459,-22.15093 -9.53105,-32.19857 -3.8243,-16.58792 -5.40658,-31.17561 -4.14497,-43.40489 1.26164,-12.22928 5.67802,-23.03906 15.23804,-28.558543 4.78002,-2.759739 10.0622,-3.74584 15.55265,-3.413484 z m -2.62853,16.722977 c -1.86057,0.0909 -3.35702,0.53806 -4.53666,1.2191 -3.14569,1.81619 -5.97182,6.40768 -6.93553,15.74928 -0.96373,9.34161 0.24914,22.49382 3.80519,37.91814 2.33705,10.13706 5.75466,21.33554 10.00294,33.1581 12.88915,-1.88181 26.50749,-3.33917 40.82668,-4.21574 7.91755,-11.96048 15.98821,-23.02471 24.06123,-33.24463 -8.11507,-9.59122 -16.1042,-18.15116 -23.71515,-25.24414 -11.57983,-10.79178 -22.36347,-18.41918 -30.93541,-22.25538 -5.35744,-2.39761 -9.47239,-3.23623 -12.57329,-3.08473 z m 156.1305,0 c -3.10092,-0.1515 -7.21585,0.68868 -12.57332,3.08631 -8.57192,3.83618 -19.35399,11.46202 -30.93382,22.2538 -7.61051,7.09257 -15.59883,15.65175 -23.71358,25.24257 8.07321,10.22022 16.1435,21.28534 24.06122,33.2462 14.31862,0.87653 27.9364,2.33405 40.82511,4.21574 4.24847,-11.82291 7.66744,-23.02099 10.00454,-33.1581 3.55603,-15.42432 4.76732,-28.57496 3.80359,-37.91656 -0.96372,-9.34161 -3.79298,-13.93311 -6.93868,-15.74928 -1.17963,-0.68107 -2.67453,-1.12978 -4.53506,-1.22068 z m -78.06526,63.95509 c -4.66053,6.01022 -9.3216,12.37075 -13.96861,19.02905 4.62307,-0.11041 9.25412,-0.21549 13.97018,-0.21549 4.71554,0 9.34606,0.10515 13.96859,0.21549 -4.6472,-6.65862 -9.30943,-13.01863 -13.97016,-19.02905 z m 8.1e-4,35.59316 c -8.67699,0 -17.13365,0.26422 -25.45966,0.64811 -4.49484,7.01753 -8.94964,14.20877 -13.28746,21.7221 -4.33804,7.51372 -8.33893,14.96842 -12.16904,22.37021 3.83005,7.40166 7.82942,14.8565 12.16745,22.37019 4.33797,7.51356 8.79408,14.70438 13.28905,21.72212 8.32601,0.38399 16.78267,0.6481 25.45966,0.6481 8.67645,0 17.13256,-0.26416 25.45807,-0.6481 4.49466,-7.01729 8.94982,-14.20749 13.28747,-21.72054 4.33805,-7.5137 8.33893,-14.96999 12.16904,-22.37177 -3.83035,-7.40231 -7.83068,-14.85752 -12.16904,-22.37178 -4.33772,-7.51317 -8.79436,-14.70326 -13.28904,-21.72053 -8.32501,-0.38377 -16.78061,-0.64811 -25.4565,-0.64811 z m -46.10738,1.98991 c -8.09046,0.69512 -15.92917,1.55199 -23.46504,2.58292 2.87483,7.04157 6.05192,14.25963 9.49487,21.61359 2.21589,-4.05886 4.44227,-8.12106 6.80025,-12.20523 2.35812,-4.08436 4.76269,-8.04265 7.16992,-11.99128 z m 92.21317,0 c 2.40689,3.94807 4.81216,7.90592 7.16992,11.98971 2.35833,4.08476 4.58408,8.14739 6.80026,12.2068 3.44321,-7.35451 6.61982,-14.57149 9.49486,-21.61359 -7.53586,-1.03089 -15.37459,-1.88782 -23.46504,-2.58292 z m -132.67963,5.28698 c -12.36344,2.23186 -23.77038,4.8709 -33.71811,7.91554 -15.13586,4.63253 -27.13078,10.15891 -34.73901,15.66433 -7.60818,5.50541 -10.1697,10.25132 -10.1697,13.88366 0,3.63233 2.56152,8.37824 10.1697,13.88365 7.60823,5.5054 19.60315,11.02865 34.73901,15.66118 9.94769,3.04463 21.35476,5.68336 33.71811,7.91553 4.81459,-12.10214 10.36248,-24.62252 16.76232,-37.46036 -6.40015,-12.83846 -11.94758,-25.36082 -16.76232,-37.46353 z m 173.1461,0 c -4.81475,12.10289 -10.3621,24.62484 -16.76232,37.46353 6.40009,12.83847 11.94764,25.35927 16.76232,37.46193 12.36406,-2.23223 23.77152,-4.87231 33.71968,-7.9171 15.13584,-4.63253 27.13081,-10.15578 34.73901,-15.66118 7.60819,-5.50541 10.16971,-10.25132 10.16971,-13.88365 0,-3.63234 -2.56152,-8.37825 -10.16971,-13.88366 -7.6082,-5.50542 -19.60317,-11.0318 -34.73901,-15.66433 -9.94814,-3.04475 -21.35567,-5.68363 -33.71968,-7.91554 z m -86.57226,16.78907 c 11.02796,0 21.17469,8.87966 21.17469,20.67446 0,11.79481 -10.14673,20.67445 -21.17469,20.67445 -11.02797,0 -21.1747,-8.87964 -21.1747,-20.67445 0,-11.7948 10.14673,-20.67446 21.1747,-20.67446 z m 60.07597,39.22688 c -2.21618,4.05942 -4.44193,8.12204 -6.80026,12.20679 -2.35756,4.08344 -4.76167,8.04198 -7.16835,11.98972 8.08991,-0.69525 15.92811,-1.55188 23.46347,-2.58293 -2.87489,-7.04165 -6.05187,-14.25954 -9.49486,-21.61358 z m -120.15196,8.1e-4 c -3.44277,7.35355 -6.62009,14.57075 -9.49487,21.61199 7.53539,1.03104 15.37359,1.88767 23.46348,2.58294 -2.40705,-3.94836 -4.81199,-7.90724 -7.16992,-11.99129 -2.35763,-4.08356 -4.58311,-8.14545 -6.79869,-12.20364 z m -15.65489,37.69002 c -4.24863,11.82324 -7.66736,23.02231 -10.00453,33.1597 -3.55602,15.42432 -4.77047,28.57338 -3.80675,37.91497 0.96372,9.34162 3.79455,13.93311 6.94024,15.74928 3.14571,1.81616 8.53646,1.97056 17.10839,-1.86562 8.57193,-3.8362 19.35402,-11.46044 30.93384,-22.25223 7.61102,-7.09306 15.6014,-15.65251 23.71672,-25.24414 -8.07339,-10.22031 -16.14331,-21.28517 -24.06123,-33.24621 -14.31919,-0.87657 -27.93753,-2.33394 -40.82668,-4.21575 z m 151.46017,0 c -12.88871,1.8817 -26.5065,3.33921 -40.82511,4.21575 -7.91791,11.96115 -15.98938,23.02418 -24.06279,33.24463 8.11524,9.59151 16.10419,18.15114 23.71515,25.24415 11.57982,10.79178 22.36348,18.41604 30.93539,22.25222 8.57195,3.83621 13.96111,3.68336 17.10681,1.8672 3.14571,-1.81617 5.97497,-6.40766 6.93868,-15.74928 0.96373,-9.34159 -0.24914,-22.49224 -3.80517,-37.91654 -2.33705,-10.13694 -5.75462,-21.33547 -10.00296,-33.15813 z m -89.69947,5.06048 c 4.64704,6.65833 9.30962,13.01882 13.97018,19.02906 4.66038,-6.0101 9.32174,-12.37093 13.96858,-19.02906 -4.62253,0.11041 -9.25305,0.21551 -13.96858,0.21551 -4.71606,0 -9.34712,-0.10516 -13.97018,-0.21551 z" /></g></svg>
