<?xml version="1.0" encoding="UTF-8" standalone="no"?>
<!-- Created with Inkscape (http://www.inkscape.org/) -->

<svg
   width="500"
   height="500"
   viewBox="0 0 500 500"
   version="1.1"
   id="svg1"
   inkscape:version="1.3.2 (091e20ef0f, 2023-11-25, custom)"
   sodipodi:docname="folder.schema.svg"
   xml:space="preserve"
   xmlns:inkscape="http://www.inkscape.org/namespaces/inkscape"
   xmlns:sodipodi="http://sodipodi.sourceforge.net/DTD/sodipodi-0.dtd"
   xmlns:xlink="http://www.w3.org/1999/xlink"
   xmlns="http://www.w3.org/2000/svg"
   xmlns:svg="http://www.w3.org/2000/svg"><sodipodi:namedview
     id="namedview1"
     pagecolor="#505050"
     bordercolor="#eeeeee"
     borderopacity="1"
     inkscape:showpageshadow="0"
     inkscape:pageopacity="0"
     inkscape:pagecheckerboard="0"
     inkscape:deskcolor="#505050"
     inkscape:document-units="px"
     inkscape:zoom="0.78975416"
     inkscape:cx="179.16968"
     inkscape:cy="276.66837"
     inkscape:window-width="1362"
     inkscape:window-height="744"
     inkscape:window-x="0"
     inkscape:window-y="20"
     inkscape:window-maximized="0"
     inkscape:current-layer="layer1"
     showguides="true"><sodipodi:guide
       position="250.02518,350.60736"
       orientation="-0.99997769,0.0066803918"
       id="guide30"
       inkscape:locked="false" /><sodipodi:guide
       position="611.06971,247.35856"
       orientation="0,-1"
       id="guide53"
       inkscape:locked="false" /></sodipodi:namedview><defs
     id="defs1"><linearGradient
       id="linearGradient13"
       inkscape:collect="always"><stop
         style="stop-color:#ff6b2c;stop-opacity:1;"
         offset="0.11832231"
         id="stop13" /><stop
         style="stop-color:#ff2c74;stop-opacity:1;"
         offset="1"
         id="stop14" /></linearGradient><linearGradient
       id="swatch61"
       inkscape:swatch="solid"><stop
         style="stop-color:#5090d0;stop-opacity:1;"
         offset="0"
         id="stop61" /></linearGradient><linearGradient
       id="swatch30"
       inkscape:swatch="solid"><stop
         style="stop-color:#f9f9f9;stop-opacity:1;"
         offset="0"
         id="stop30" /></linearGradient><inkscape:perspective
       sodipodi:type="inkscape:persp3d"
       inkscape:vp_x="44.06818 : 315.96746 : 1"
       inkscape:vp_y="0 : 1000 : 0"
       inkscape:vp_z="480.74134 : 298.68846 : 1"
       inkscape:persp3d-origin="250 : 166.66667 : 1"
       id="perspective17" /><inkscape:perspective
       sodipodi:type="inkscape:persp3d"
       inkscape:vp_x="44.06818 : 315.96746 : 1"
       inkscape:vp_y="0 : 1000 : 0"
       inkscape:vp_z="480.74134 : 298.68846 : 1"
       inkscape:persp3d-origin="250 : 166.66667 : 1"
       id="perspective17-1" /><linearGradient
       inkscape:collect="always"
       xlink:href="#linearGradient13"
       id="linearGradient14"
       x1="-0.51812321"
       y1="-27.303492"
       x2="629.89667"
       y2="592.06134"
       gradientUnits="userSpaceOnUse" /></defs><g
     inkscape:label="Layer 1"
     inkscape:groupmode="layer"
     id="layer1"><path
       id="rect53-0"
       style="fill:#ff435a;fill-opacity:1;fill-rule:nonzero;stroke:#ff435a;stroke-width:22.0622;stroke-linecap:butt;stroke-linejoin:round;stroke-dasharray:none;stroke-opacity:1;paint-order:markers fill stroke;opacity:0.28616265"
       d="m 462.68749,104.21979 c 0,-1.64895 -0.59137,-3.17324 -1.54688,-4.517583 v -48.26953 c 0,-5.97292 -5.36366,-10.78125 -12.02538,-10.78125 H 307.18359 c -6.66173,0 -12.02344,4.80833 -12.02344,10.78125 v 43.39063 H 51.087889 c -6.7206,0 -12.13086,4.19106 -12.13086,9.396483 v 341.68359 c 0,5.20542 5.41026,9.39453 12.13086,9.39453 H 450.55663 c 6.7206,0 12.13086,-4.18911 12.13086,-9.39453 z" /><path
       style="fill:none;stroke:#ff5842;stroke-width:50;stroke-linecap:round;stroke-linejoin:bevel;paint-order:markers fill stroke;stroke-opacity:1"
       d="M 43.979119,450.13181 V 98.591456"
       id="path1" /><g
       inkscape:label="Layer 1"
       id="layer1-5"
       transform="matrix(0.83465203,0,0,0.83465203,82.028731,44.3803)"><path
         id="path8"
         style="color:#000000;fill:url(#linearGradient14);stroke-linejoin:bevel;-inkscape-stroke:none;paint-order:markers fill stroke"
         d="M 404.76797 5.4974407 C 356.35118 5.4974407 316.78454 45.064077 316.78454 93.480869 C 316.78454 116.09553 325.42139 136.77616 339.55554 152.39857 L 273.70194 232.84471 C 249.96091 207.79083 216.42526 192.10449 179.30912 192.10449 C 163.48178 192.10449 148.30511 194.96112 134.2562 200.17063 L 119.10439 140.84576 C 136.88542 131.04856 149.02657 112.10797 149.02657 90.509009 C 149.02657 58.969386 123.14378 33.086595 91.604159 33.086595 C 60.064534 33.086595 34.181745 58.969386 34.181745 90.509009 C 34.181745 121.71276 59.520324 147.36257 90.602619 147.90568 L 107.44628 213.85055 C 72.370652 237.19958 49.176766 277.07955 49.176766 322.23685 C 49.176766 393.9331 107.61285 452.3692 179.30912 452.3692 C 225.7455 452.3692 266.59589 427.83843 289.63298 391.08571 L 373.42304 425.5897 C 372.89687 428.62967 372.60637 431.74673 372.60637 434.92883 C 372.60637 465.23347 397.48941 490.1165 427.79403 490.1165 C 458.09867 490.1165 482.97936 465.23347 482.97936 434.92883 C 482.97936 404.62418 458.09867 379.7435 427.79403 379.7435 C 411.15965 379.7435 396.17059 387.25036 386.02186 399.02549 L 302.32305 364.5566 C 306.91214 351.27587 309.44148 337.04754 309.44148 322.23685 C 309.44148 298.49987 303.00609 276.23605 291.83496 257.04548 L 362.5816 170.62052 C 375.12377 177.52266 389.50415 181.46196 404.76797 181.46196 C 453.18476 181.46196 492.74906 141.89766 492.74906 93.480869 C 492.74906 45.064077 453.18476 5.4974407 404.76797 5.4974407 z " /></g></g></svg>
