<?xml version="1.0" encoding="UTF-8" standalone="no"?>
<!-- Created with Inkscape (http://www.inkscape.org/) -->

<svg
   width="500"
   height="500"
   viewBox="0 0 500 500"
   version="1.1"
   id="svg1"
   inkscape:version="1.3.2 (091e20ef0f, 2023-11-25, custom)"
   sodipodi:docname="folder.controller.svg"
   xml:space="preserve"
   xmlns:inkscape="http://www.inkscape.org/namespaces/inkscape"
   xmlns:sodipodi="http://sodipodi.sourceforge.net/DTD/sodipodi-0.dtd"
   xmlns:xlink="http://www.w3.org/1999/xlink"
   xmlns="http://www.w3.org/2000/svg"
   xmlns:svg="http://www.w3.org/2000/svg"><sodipodi:namedview
     id="namedview1"
     pagecolor="#505050"
     bordercolor="#eeeeee"
     borderopacity="1"
     inkscape:showpageshadow="0"
     inkscape:pageopacity="0"
     inkscape:pagecheckerboard="0"
     inkscape:deskcolor="#505050"
     inkscape:document-units="px"
     inkscape:zoom="0.48195146"
     inkscape:cx="207.48977"
     inkscape:cy="241.72559"
     inkscape:window-width="1362"
     inkscape:window-height="744"
     inkscape:window-x="0"
     inkscape:window-y="20"
     inkscape:window-maximized="0"
     inkscape:current-layer="layer1"
     showguides="true"><sodipodi:guide
       position="250.02518,350.60736"
       orientation="-0.99997769,0.0066803918"
       id="guide30"
       inkscape:locked="false" /><sodipodi:guide
       position="66.396728,247.89992"
       orientation="0,-1"
       id="guide53"
       inkscape:locked="false" /></sodipodi:namedview><defs
     id="defs1"><linearGradient
       id="linearGradient7"
       inkscape:collect="always"><stop
         style="stop-color:#a829ff;stop-opacity:1;"
         offset="0"
         id="stop7" /><stop
         style="stop-color:#ff3737;stop-opacity:1;"
         offset="1"
         id="stop8" /></linearGradient><inkscape:path-effect
       effect="mirror_symmetry"
       start_point="248.12166,112.56742"
       end_point="248.12166,312.24894"
       center_point="248.12166,212.40818"
       id="path-effect3"
       is_visible="true"
       lpeversion="1.2"
       lpesatellites=""
       mode="free"
       discard_orig_path="false"
       fuse_paths="true"
       oposite_fuse="false"
       split_items="false"
       split_open="false"
       link_styles="false" /><linearGradient
       id="swatch61"
       inkscape:swatch="solid"><stop
         style="stop-color:#5090d0;stop-opacity:1;"
         offset="0"
         id="stop61" /></linearGradient><linearGradient
       id="swatch30"
       inkscape:swatch="solid"><stop
         style="stop-color:#f9f9f9;stop-opacity:1;"
         offset="0"
         id="stop30" /></linearGradient><inkscape:perspective
       sodipodi:type="inkscape:persp3d"
       inkscape:vp_x="44.06818 : 315.96746 : 1"
       inkscape:vp_y="0 : 1000 : 0"
       inkscape:vp_z="480.74134 : 298.68846 : 1"
       inkscape:persp3d-origin="250 : 166.66667 : 1"
       id="perspective17" /><inkscape:perspective
       sodipodi:type="inkscape:persp3d"
       inkscape:vp_x="44.06818 : 315.96746 : 1"
       inkscape:vp_y="0 : 1000 : 0"
       inkscape:vp_z="480.74134 : 298.68846 : 1"
       inkscape:persp3d-origin="250 : 166.66667 : 1"
       id="perspective17-4" /><inkscape:perspective
       sodipodi:type="inkscape:persp3d"
       inkscape:vp_x="44.06818 : 315.96746 : 1"
       inkscape:vp_y="0 : 1000 : 0"
       inkscape:vp_z="480.74134 : 298.68846 : 1"
       inkscape:persp3d-origin="250 : 166.66667 : 1"
       id="perspective17-6" /><inkscape:perspective
       sodipodi:type="inkscape:persp3d"
       inkscape:vp_x="44.06818 : 315.96746 : 1"
       inkscape:vp_y="0 : 1000 : 0"
       inkscape:vp_z="480.74134 : 298.68846 : 1"
       inkscape:persp3d-origin="250 : 166.66667 : 1"
       id="perspective17-3" /><inkscape:perspective
       sodipodi:type="inkscape:persp3d"
       inkscape:vp_x="44.06818 : 315.96746 : 1"
       inkscape:vp_y="0 : 1000 : 0"
       inkscape:vp_z="480.74134 : 298.68846 : 1"
       inkscape:persp3d-origin="250 : 166.66667 : 1"
       id="perspective17-5" /><inkscape:perspective
       sodipodi:type="inkscape:persp3d"
       inkscape:vp_x="44.06818 : 315.96746 : 1"
       inkscape:vp_y="0 : 1000 : 0"
       inkscape:vp_z="480.74134 : 298.68846 : 1"
       inkscape:persp3d-origin="250 : 166.66667 : 1"
       id="perspective17-2" /><linearGradient
       inkscape:collect="always"
       xlink:href="#linearGradient7"
       id="linearGradient8"
       x1="130.23183"
       y1="275.22971"
       x2="457.70253"
       y2="275.22971"
       gradientUnits="userSpaceOnUse"
       gradientTransform="matrix(1.1375061,0,0,1.1375061,-37.04039,-41.830999)" /></defs><g
     inkscape:label="Layer 1"
     inkscape:groupmode="layer"
     id="layer1"><path
       id="path2"
       style="opacity:0.23096751;color:#000000;fill:#b82cda;stroke-linejoin:bevel;stroke-miterlimit:10;-inkscape-stroke:none;fill-opacity:1"
       d="M 296.32812 31.341237 L 285.24609 42.423268 L 285.24609 85.513112 L 40.124992 85.513112 L 29.042961 96.595143 L 29.042961 457.06975 L 40.124992 468.14983 L 463.85546 468.14983 L 474.93554 457.06975 L 474.93554 42.423268 L 462.17968 31.46819 C 459.67878 31.850714 446.60569 32.436082 430.85741 32.571706 C 415.10915 32.707328 395.68372 32.616856 376.55468 32.434987 C 338.2966 32.071247 302.15461 31.341237 296.32812 31.341237 z "
       transform="translate(0.09571137,0.91462254)" /><path
       style="fill:none;stroke:#b72bdd;stroke-width:50;stroke-linecap:round;stroke-linejoin:bevel;paint-order:markers fill stroke;stroke-opacity:1"
       d="M 43.979119,450.13181 V 98.591456"
       id="path1" /><path
       id="path3"
       style="opacity:1;fill:url(#linearGradient8);fill-opacity:1;stroke-width:56.8753;stroke-linecap:round;stroke-miterlimit:10;stroke-opacity:0.393229"
       d="m 297.34797,108.74115 c -55.91406,2.10448 -105.27582,15.69961 -146.15398,20.09076 -16.77217,0 -40.09488,137.70088 -40.09488,231.85011 0,29.34913 52.58535,37.36663 82.88021,37.36663 28.72476,0 56.75594,-58.50826 81.46277,-58.50826 h 21.90588 21.9081 c 24.70683,0 52.73579,58.50826 81.46055,58.50826 30.29483,0 82.88243,-8.0175 82.88243,-37.36663 0,-94.14923 -23.32271,-231.85011 -40.09487,-231.85011 -40.87817,-4.39115 -90.24215,-17.98628 -146.15621,-20.09076 z m -88.76103,73.00532 c 9.42341,0 17.06259,7.63918 17.06259,17.06259 v 20.83725 h 20.83725 c 9.42341,0 17.06259,7.63918 17.06259,17.06259 0,9.42341 -7.63918,17.06259 -17.06259,17.06259 h -20.83725 v 20.83725 c 0,9.42341 -7.63918,17.06259 -17.06259,17.06259 -9.42341,0 -17.06259,-7.63918 -17.06259,-17.06259 V 253.77149 H 170.6871 c -9.42341,0 -17.06259,-7.63918 -17.06259,-17.06259 0,-9.42341 7.63918,-17.06259 17.06259,-17.06259 h 20.83725 v -20.83725 c 0,-9.42341 7.63918,-17.06259 17.06259,-17.06259 z m 205.86862,12.97691 c 12.48024,-8.7e-4 22.5977,10.11658 22.59683,22.59682 -3.6e-4,12.47938 -10.11745,22.59547 -22.59683,22.5946 -12.47851,-3.5e-4 -22.59425,-10.11609 -22.59461,-22.5946 -8.7e-4,-12.47937 10.11523,-22.59647 22.59461,-22.59682 z m -49.71702,42.94307 c 12.47938,3.5e-4 22.59548,10.11745 22.59461,22.59682 -3.5e-4,12.47851 -10.1161,22.59426 -22.59461,22.59461 -12.47851,-3.6e-4 -22.59425,-10.1161 -22.5946,-22.59461 -8.7e-4,-12.47937 10.11523,-22.59646 22.5946,-22.59682 z"
       sodipodi:nodetypes="ccssscsssccsscssscssscssscsscccccccccc" /></g></svg>
