<?xml version="1.0" encoding="UTF-8" standalone="no"?>
<!-- Created with Inkscape (http://www.inkscape.org/) -->

<svg
   width="500"
   height="500"
   viewBox="0 0 500 500"
   version="1.1"
   id="svg1"
   inkscape:version="1.3.2 (091e20ef0f, 2023-11-25, custom)"
   sodipodi:docname="folder.mono.svg"
   xml:space="preserve"
   xmlns:inkscape="http://www.inkscape.org/namespaces/inkscape"
   xmlns:sodipodi="http://sodipodi.sourceforge.net/DTD/sodipodi-0.dtd"
   xmlns:xlink="http://www.w3.org/1999/xlink"
   xmlns="http://www.w3.org/2000/svg"
   xmlns:svg="http://www.w3.org/2000/svg"><sodipodi:namedview
     id="namedview1"
     pagecolor="#505050"
     bordercolor="#eeeeee"
     borderopacity="1"
     inkscape:showpageshadow="0"
     inkscape:pageopacity="0"
     inkscape:pagecheckerboard="0"
     inkscape:deskcolor="#505050"
     inkscape:document-units="px"
     inkscape:zoom="1"
     inkscape:cx="241.5"
     inkscape:cy="275.5"
     inkscape:window-width="1362"
     inkscape:window-height="744"
     inkscape:window-x="0"
     inkscape:window-y="20"
     inkscape:window-maximized="0"
     inkscape:current-layer="layer2"
     showguides="true"><sodipodi:guide
       position="250.02518,350.60736"
       orientation="-0.99997769,0.0066803918"
       id="guide30"
       inkscape:locked="false" /><sodipodi:guide
       position="416.24481,247.67962"
       orientation="0,-1"
       id="guide53"
       inkscape:locked="false" /><sodipodi:guide
       position="221.35979,127.71308"
       orientation="0,-1"
       id="guide5"
       inkscape:locked="false" /><sodipodi:guide
       position="96.959247,117.65127"
       orientation="1,0"
       id="guide6"
       inkscape:locked="false" /></sodipodi:namedview><defs
     id="defs1"><linearGradient
       id="linearGradient5"
       inkscape:collect="always"><stop
         style="stop-color:#e4e4e4;stop-opacity:1;"
         offset="0"
         id="stop5" /><stop
         style="stop-color:#8f00e1;stop-opacity:1;"
         offset="1"
         id="stop6" /></linearGradient><linearGradient
       id="swatch61"
       inkscape:swatch="solid"><stop
         style="stop-color:#5090d0;stop-opacity:1;"
         offset="0"
         id="stop61" /></linearGradient><linearGradient
       id="swatch30"
       inkscape:swatch="solid"><stop
         style="stop-color:#f9f9f9;stop-opacity:1;"
         offset="0"
         id="stop30" /></linearGradient><inkscape:perspective
       sodipodi:type="inkscape:persp3d"
       inkscape:vp_x="44.06818 : 315.96746 : 1"
       inkscape:vp_y="0 : 1000 : 0"
       inkscape:vp_z="480.74134 : 298.68846 : 1"
       inkscape:persp3d-origin="250 : 166.66667 : 1"
       id="perspective17" /><inkscape:perspective
       sodipodi:type="inkscape:persp3d"
       inkscape:vp_x="44.06818 : 315.96746 : 1"
       inkscape:vp_y="0 : 1000 : 0"
       inkscape:vp_z="480.74134 : 298.68846 : 1"
       inkscape:persp3d-origin="250 : 166.66667 : 1"
       id="perspective17-2" /><inkscape:perspective
       sodipodi:type="inkscape:persp3d"
       inkscape:vp_x="44.06818 : 315.96746 : 1"
       inkscape:vp_y="0 : 1000 : 0"
       inkscape:vp_z="480.74134 : 298.68846 : 1"
       inkscape:persp3d-origin="250 : 166.66667 : 1"
       id="perspective17-0" /><inkscape:perspective
       sodipodi:type="inkscape:persp3d"
       inkscape:vp_x="44.06818 : 315.96746 : 1"
       inkscape:vp_y="0 : 1000 : 0"
       inkscape:vp_z="480.74134 : 298.68846 : 1"
       inkscape:persp3d-origin="250 : 166.66667 : 1"
       id="perspective17-3" /><inkscape:perspective
       sodipodi:type="inkscape:persp3d"
       inkscape:vp_x="44.06818 : 315.96746 : 1"
       inkscape:vp_y="0 : 1000 : 0"
       inkscape:vp_z="480.74134 : 298.68846 : 1"
       inkscape:persp3d-origin="250 : 166.66667 : 1"
       id="perspective17-1" /><radialGradient
       id="a"
       cx="767.179"
       cy="5169.543"
       r="14.989"
       gradientTransform="matrix(0.955,0,0,0.962,-718.112,-4953.917)"
       gradientUnits="userSpaceOnUse"><stop
         offset="0"
         stop-color="#36bac0"
         id="stop1" /><stop
         offset="1"
         stop-color="#2d9094"
         id="stop2" /></radialGradient><inkscape:perspective
       sodipodi:type="inkscape:persp3d"
       inkscape:vp_x="44.06818 : 315.96746 : 1"
       inkscape:vp_y="0 : 1000 : 0"
       inkscape:vp_z="480.74134 : 298.68846 : 1"
       inkscape:persp3d-origin="250 : 166.66667 : 1"
       id="perspective17-6" /><inkscape:perspective
       sodipodi:type="inkscape:persp3d"
       inkscape:vp_x="44.06818 : 315.96746 : 1"
       inkscape:vp_y="0 : 1000 : 0"
       inkscape:vp_z="480.74134 : 298.68846 : 1"
       inkscape:persp3d-origin="250 : 166.66667 : 1"
       id="perspective17-36" /><inkscape:perspective
       sodipodi:type="inkscape:persp3d"
       inkscape:vp_x="44.06818 : 315.96746 : 1"
       inkscape:vp_y="0 : 1000 : 0"
       inkscape:vp_z="480.74134 : 298.68846 : 1"
       inkscape:persp3d-origin="250 : 166.66667 : 1"
       id="perspective17-7" /><inkscape:perspective
       sodipodi:type="inkscape:persp3d"
       inkscape:vp_x="44.06818 : 315.96746 : 1"
       inkscape:vp_y="0 : 1000 : 0"
       inkscape:vp_z="480.74134 : 298.68846 : 1"
       inkscape:persp3d-origin="250 : 166.66667 : 1"
       id="perspective17-74" /><inkscape:perspective
       sodipodi:type="inkscape:persp3d"
       inkscape:vp_x="44.06818 : 315.96746 : 1"
       inkscape:vp_y="0 : 1000 : 0"
       inkscape:vp_z="480.74134 : 298.68846 : 1"
       inkscape:persp3d-origin="250 : 166.66667 : 1"
       id="perspective17-5" /><inkscape:perspective
       sodipodi:type="inkscape:persp3d"
       inkscape:vp_x="44.06818 : 315.96746 : 1"
       inkscape:vp_y="0 : 1000 : 0"
       inkscape:vp_z="480.74134 : 298.68846 : 1"
       inkscape:persp3d-origin="250 : 166.66667 : 1"
       id="perspective17-2-1" /><linearGradient
       inkscape:collect="always"
       xlink:href="#linearGradient5"
       id="linearGradient6"
       x1="102.87312"
       y1="22.703669"
       x2="736.35504"
       y2="621.30646"
       gradientUnits="userSpaceOnUse"
       gradientTransform="matrix(1.0312061,0,0,1.0312061,-15.38038,-2.272406)" /></defs><g
     inkscape:groupmode="layer"
     id="layer2"
     inkscape:label="Layer 1"
     style="opacity:0.65910453"><g
       inkscape:label="Layer 1"
       id="layer1"
       transform="translate(4.3199381,6.985645)"><path
         id="rect53-0-5"
         style="opacity:0.1237465;fill:#a20ffe;fill-opacity:1;fill-rule:nonzero;stroke:#a20ffe;stroke-width:22.162;stroke-linecap:butt;stroke-linejoin:bevel;stroke-miterlimit:10;stroke-dasharray:none;stroke-opacity:1;paint-order:normal"
         d="m 463.85552,42.423164 c -19.06075,2.91543 -158.1781,0 -167.5275,0 V 96.595326 L 40.124908,96.595166 V 457.07016 c 59.556727,0 399.686272,0 423.730462,0 z"
         sodipodi:nodetypes="ccccccc" /><path
         style="fill:none;stroke:#b43ffe;stroke-width:50;stroke-linecap:round;stroke-linejoin:bevel;stroke-opacity:1;paint-order:markers fill stroke"
         d="M 43.979119,450.13181 V 98.591456"
         id="path1" /></g><path
       fill="#000000"
       fill-opacity="1"
       stroke-width="1.83324"
       stroke-linejoin="round"
       d="m 151.80552,72.819251 h 304.77617 c 20.03824,0 36.28259,16.244336 36.28259,36.282599 v 304.77617 c 0,20.03824 -16.24435,36.28258 -36.28259,36.28258 H 151.80552 c -3.25309,0 -6.40535,-0.42806 -9.40543,-1.23011 l 1.04494,-1.27685 61.7646,-72.01334 15.45972,-18.77238 4.1752,-3.86447 0.55181,-1.65634 c 15.6962,1.28695 29.47576,11.10486 44.17009,16.77049 22.7166,8.75922 44.81173,19.05195 67.18551,28.65263 l 27.02471,11.59616 5.40529,2.31905 5.40532,2.31995 5.4044,2.31906 2.76085,-1.17327 1.13845,-3.17518 2.76085,-4.69309 c 3.76365,-6.39709 6.51626,-13.34323 9.47236,-20.15188 l 2.23747,-5.15325 2.23746,-5.15324 2.23747,-5.15323 0.65539,-2.20906 -1.41526,-1.65632 -4.96899,-2.44922 -4.969,-3.26134 c -7.5447,-4.95158 -14.98399,-10.20015 -21.53324,-16.40841 -9.35686,-8.87105 -16.7714,-19.63493 -24.23543,-30.14855 l -7.86827,-13.4349 c -1.46569,-2.81403 -3.05052,-6.57768 -1.57568,-9.3862 5.83795,0.95788 9.29362,7.48788 12.94085,12.14613 5.39156,6.88933 11.97013,12.77952 18.37457,18.73847 l 13.95921,11.73274 9.93799,7.69503 2.76085,2.69119 2.75995,2.69212 2.20905,0.10353 4.41719,4.31361 3.31268,0.17234 1.65633,-1.20811 c 1.69024,-3.88097 1.36025,-8.35683 2.15038,-12.51462 6.06386,-31.87869 -2.7056,-68.57733 -10.92703,-93.30918 l -1.77183,-4.78567 c -0.5903,-1.59492 -0.52429,-3.62798 -1.77091,-4.78476 -1.31534,-1.22094 -3.42265,-1.08344 -5.13398,-1.62608 l -15.40197,-4.87642 -20.53596,-6.50342 -5.13399,-1.62517 c -1.52526,-0.6068 -3.56382,-0.77271 -4.41719,-2.17421 -0.72963,-1.19895 0.36757,-2.78379 0.55182,-4.17521 9.729,0.80112 19.25084,3.25583 28.84877,5.03774 l 15.50554,3.0826 c 6.82058,1.39693 13.99496,3.40341 20.79721,1.92122 2.57295,-0.56096 2.94875,-4.65001 3.07067,-7.2807 0.66455,-14.33595 -2.73794,-28.74796 -6.79124,-42.51468 -3.3035,-11.22035 -5.89203,-23.3234 -13.05083,-32.57485 -4.03681,-5.2174 -11.86198,-5.93787 -18.19675,-7.77568 -62.39877,-18.10606 -127.24118,-14.46968 -136.74322,-7.58046 l 20.42872,4.1413 c 6.25959,1.14211 14.0362,0.8992 18.21965,5.69314 -4.52293,9.27773 -77.72718,-10.3238 -89.99652,-6.86642 -11.71775,8.53167 -21.94924,26.91907 -17.08121,41.65031 5.38056,13.99586 19.31227,23.99803 32.54093,31.05784 l 24.29319,12.04254 c 4.32736,2.20448 10.05348,3.07069 12.69885,7.14323 0.70947,1.0917 -0.36757,2.57662 -0.55181,3.86538 -14.18286,-1.70949 -26.82762,-9.828 -40.30562,-14.56234 l -4.14037,-1.74249 -4.14128,-1.74342 -76.74585,29.75441 V 109.10185 c 0,-20.038263 16.24433,-36.282599 36.28257,-36.282599 z"
       id="path1-5"
       style="opacity:0.870147;fill:url(#linearGradient6)"
       sodipodi:nodetypes="sssssscccccccccccccccscccccccccccccccccccccccccccccccccccscccccccccccccccss" /></g></svg>
