<?xml version="1.0" encoding="UTF-8" standalone="no"?>
<!-- Created with Inkscape (http://www.inkscape.org/) -->

<svg
   width="500"
   height="500"
   viewBox="0 0 500 500"
   version="1.1"
   id="svg1"
   inkscape:version="1.3.2 (091e20ef0f, 2023-11-25, custom)"
   sodipodi:docname="folder.db.svg"
   xml:space="preserve"
   xmlns:inkscape="http://www.inkscape.org/namespaces/inkscape"
   xmlns:sodipodi="http://sodipodi.sourceforge.net/DTD/sodipodi-0.dtd"
   xmlns="http://www.w3.org/2000/svg"
   xmlns:svg="http://www.w3.org/2000/svg"><sodipodi:namedview
     id="namedview1"
     pagecolor="#505050"
     bordercolor="#eeeeee"
     borderopacity="1"
     inkscape:showpageshadow="0"
     inkscape:pageopacity="0"
     inkscape:pagecheckerboard="0"
     inkscape:deskcolor="#505050"
     inkscape:document-units="px"
     inkscape:zoom="0.96390292"
     inkscape:cx="280.62992"
     inkscape:cy="232.90727"
     inkscape:window-width="1362"
     inkscape:window-height="744"
     inkscape:window-x="0"
     inkscape:window-y="20"
     inkscape:window-maximized="0"
     inkscape:current-layer="layer1"
     showguides="true"><sodipodi:guide
       position="250.02518,350.60736"
       orientation="-0.99997769,0.0066803918"
       id="guide30"
       inkscape:locked="false" /><sodipodi:guide
       position="66.396728,247.89992"
       orientation="0,-1"
       id="guide53"
       inkscape:locked="false" /></sodipodi:namedview><defs
     id="defs1"><linearGradient
       id="swatch61"
       inkscape:swatch="solid"><stop
         style="stop-color:#5090d0;stop-opacity:1;"
         offset="0"
         id="stop61" /></linearGradient><linearGradient
       id="swatch30"
       inkscape:swatch="solid"><stop
         style="stop-color:#f9f9f9;stop-opacity:1;"
         offset="0"
         id="stop30" /></linearGradient><inkscape:perspective
       sodipodi:type="inkscape:persp3d"
       inkscape:vp_x="44.06818 : 315.96746 : 1"
       inkscape:vp_y="0 : 1000 : 0"
       inkscape:vp_z="480.74134 : 298.68846 : 1"
       inkscape:persp3d-origin="250 : 166.66667 : 1"
       id="perspective17" /><inkscape:perspective
       sodipodi:type="inkscape:persp3d"
       inkscape:vp_x="44.06818 : 315.96746 : 1"
       inkscape:vp_y="0 : 1000 : 0"
       inkscape:vp_z="480.74134 : 298.68846 : 1"
       inkscape:persp3d-origin="250 : 166.66667 : 1"
       id="perspective17-4" /></defs><g
     inkscape:label="Layer 1"
     inkscape:groupmode="layer"
     id="layer1"><path
       id="rect53-0"
       style="fill:#f0ff7d;fill-opacity:0.3137255;fill-rule:nonzero;stroke:#f0ff7d;stroke-width:22.0622;stroke-linecap:butt;stroke-linejoin:round;stroke-dasharray:none;stroke-opacity:1;paint-order:markers fill stroke;opacity:0.23238153"
       d="m 462.68749,104.21979 c 0,-1.64895 -0.59137,-3.17324 -1.54688,-4.517583 v -48.26953 c 0,-5.97292 -5.36366,-10.78125 -12.02538,-10.78125 H 307.18359 c -6.66173,0 -12.02344,4.80833 -12.02344,10.78125 v 43.39063 H 51.087889 c -6.7206,0 -12.13086,4.19106 -12.13086,9.396483 v 341.68359 c 0,5.20542 5.41026,9.39453 12.13086,9.39453 H 450.55663 c 6.7206,0 12.13086,-4.18911 12.13086,-9.39453 z" /><path
       style="fill:none;stroke:#f0ff7d;stroke-width:50;stroke-linecap:round;stroke-linejoin:bevel;paint-order:markers fill stroke;stroke-opacity:1"
       d="M 43.979119,450.13181 V 98.591456"
       id="path1" /><g
       inkscape:label="Layer 1"
       id="layer1-8"
       transform="matrix(0.97674616,0,0,0.97674616,63.346642,8.3508455)"><path
         d="m 5.206,19.956 0.199,42.771 c 0.003,0.55 0.306,1.054 0.789,1.314 l 34.161,17.887 c 0.223,0.119 0.467,0.179 0.711,0.179 10e-4,0 0.002,0 0.003,0 0.103,0.117 0.218,0.227 0.355,0.309 0.236,0.141 0.502,0.212 0.769,0.212 0.246,0 0.49,-0.061 0.712,-0.181 L 76.634,64.155 c 0.484,-0.263 0.787,-0.77 0.787,-1.319 v -44.5 c 0,-0.013 -0.005,-0.025 -0.005,-0.039 -10e-4,-0.011 0.003,-0.021 0.003,-0.033 C 77.417,18.221 77.4,18.182 77.397,18.14 77.384,18.058 77.375,17.976 77.35,17.897 77.332,17.842 77.309,17.793 77.286,17.74 77.255,17.67 77.224,17.601 77.182,17.537 77.151,17.487 77.114,17.442 77.077,17.396 77.03,17.338 76.981,17.284 76.925,17.233 76.881,17.193 76.834,17.157 76.784,17.122 76.752,17.1 76.725,17.069 76.69,17.049 76.658,17.029 76.621,17.021 76.586,17.004 76.557,16.989 76.534,16.968 76.505,16.955 L 41.747,0.118 C 41.342,-0.053 40.883,-0.037 40.489,0.16 L 6.131,18.071 c -0.504,0.254 -0.822,0.77 -0.825,1.333 0,0.009 0.004,0.017 0.004,0.025 -0.061,0.167 -0.105,0.343 -0.104,0.527 z M 72.456,18.501 42.176,35.431 10.111,19.425 41.218,3.151 Z M 43.692,78.61 V 38.021 L 74.421,20.848 v 41.09 z"
         id="path1-8-5"
         style="fill:#f0ff7d;fill-opacity:1;stroke:none;stroke-opacity:1"
         transform="matrix(5.1960469,0,0,2.3794941,34.307584,5.8886479)" /><path
         id="path3"
         style="fill:#f0ff7d;fill-opacity:1;stroke:none;stroke-opacity:1"
         d="M 59.459083,9.4154018 56.285095,11.272907 72.456118,19.219219 42.176187,36.149354 10.111171,20.143457 26.926087,11.34678 23.761873,9.5976228 6.1309067,18.789112 c -0.5039995,0.254 -0.8220714,0.770004 -0.8250714,1.333004 0,0.009 0.00413,0.01662 0.00413,0.02462 -0.061,0.167 -0.1051207,0.342964 -0.1041207,0.526964 l 0.19922,42.77104 c 0.003,0.549999 0.3059867,1.054125 0.7889862,1.314125 L 40.355016,82.646074 c 0.223,0.119 0.466802,0.178938 0.710802,0.178938 h 0.003 c 0.103,0.117 0.218213,0.227447 0.355213,0.309447 0.236,0.141 0.502064,0.211771 0.769064,0.211771 0.246,0 0.48993,-0.0614 0.71193,-0.1814 L 76.634098,64.872962 c 0.484,-0.263 0.786731,-0.770051 0.786731,-1.31905 V 19.054235 c 0,-0.013 -0.0049,-0.0254 -0.0049,-0.0394 -0.001,-0.011 0.003,-0.02083 0.003,-0.03283 -0.002,-0.043 -0.0188,-0.08194 -0.0218,-0.123943 -0.013,-0.082 -0.02199,-0.163961 -0.04699,-0.242961 -0.018,-0.055 -0.04128,-0.103776 -0.06428,-0.156776 -0.031,-0.07 -0.06175,-0.139562 -0.103745,-0.203562 -0.031,-0.05 -0.06825,-0.09436 -0.105248,-0.140359 -0.047,-0.058 -0.09586,-0.112343 -0.151858,-0.163343 -0.044,-0.04 -0.09096,-0.07581 -0.140958,-0.11081 -0.032,-0.022 -0.05897,-0.05305 -0.09397,-0.07305 -0.032,-0.02 -0.06912,-0.02814 -0.10412,-0.04514 -0.029,-0.015 -0.05182,-0.03625 -0.08082,-0.04925 z M 74.420877,21.56593 V 62.65594 L 43.692138,79.328339 V 38.739026 Z"
         transform="matrix(5.1960469,0,0,2.3794941,34.307584,151.91056)" /><path
         id="path4"
         style="fill:#f0ff7d;fill-opacity:1;stroke:none;stroke-opacity:1"
         d="M 20.669077,10.492645 6.1309067,18.071232 c -0.5039995,0.254 -0.8220714,0.770005 -0.8250714,1.333004 0,0.009 0.00413,0.01662 0.00413,0.02462 -0.061,0.167 -0.1051207,0.342964 -0.1041207,0.526964 l 0.19922,42.77104 c 0.003,0.549999 0.3059867,1.054125 0.7889862,1.314125 l 34.1609652,17.88721 c 0.223,0.118999 0.466802,0.178937 0.710802,0.178937 h 0.003 c 0.103,0.117 0.218213,0.226627 0.355213,0.308627 0.236,0.141 0.502064,0.212591 0.769064,0.212591 0.246,0 0.48993,-0.0614 0.71193,-0.1814 L 76.634098,64.155082 c 0.484,-0.262999 0.786731,-0.77005 0.786731,-1.31905 V 18.336355 c 0,-0.013 -0.0049,-0.0254 -0.0049,-0.0394 -0.001,-0.011 0.003,-0.02083 0.003,-0.03283 -0.002,-0.043 -0.0188,-0.08194 -0.0218,-0.123943 -0.013,-0.082 -0.02199,-0.163962 -0.04699,-0.242962 -0.018,-0.055 -0.04128,-0.104596 -0.06428,-0.157596 -0.031,-0.07 -0.06175,-0.138742 -0.103745,-0.202742 -0.031,-0.05 -0.06825,-0.09518 -0.105248,-0.14118 -0.047,-0.058 -0.09586,-0.111521 -0.151858,-0.162521 -0.044,-0.04 -0.09096,-0.07581 -0.140958,-0.11081 -0.032,-0.022 -0.05897,-0.05305 -0.09397,-0.07305 -0.032,-0.02 -0.06912,-0.02814 -0.10412,-0.04514 -0.029,-0.015 -0.05182,-0.03625 -0.08082,-0.04925 L 63.990397,10.893203 60.78709,12.767124 72.456118,18.501339 42.176187,35.430653 10.111171,19.424756 23.711128,12.30993 Z m 53.7518,10.355405 V 61.93806 L 43.692138,78.609639 V 38.021146 Z"
         transform="matrix(5.1960469,0,0,2.3794941,34.307584,290.46836)" /></g></g></svg>
