<?xml version="1.0" encoding="UTF-8" standalone="no"?>
<!-- Created with Inkscape (http://www.inkscape.org/) -->

<svg
   width="500"
   height="500"
   viewBox="0 0 500 500"
   version="1.1"
   id="svg1"
   inkscape:version="1.3.2 (091e20ef0f, 2023-11-25, custom)"
   sodipodi:docname="folder.o.svg"
   xml:space="preserve"
   xmlns:inkscape="http://www.inkscape.org/namespaces/inkscape"
   xmlns:sodipodi="http://sodipodi.sourceforge.net/DTD/sodipodi-0.dtd"
   xmlns="http://www.w3.org/2000/svg"
   xmlns:svg="http://www.w3.org/2000/svg"><sodipodi:namedview
     id="namedview1"
     pagecolor="#505050"
     bordercolor="#eeeeee"
     borderopacity="1"
     inkscape:showpageshadow="0"
     inkscape:pageopacity="0"
     inkscape:pagecheckerboard="0"
     inkscape:deskcolor="#505050"
     inkscape:document-units="px"
     inkscape:zoom="0.96390292"
     inkscape:cx="280.62992"
     inkscape:cy="232.90727"
     inkscape:window-width="1362"
     inkscape:window-height="744"
     inkscape:window-x="0"
     inkscape:window-y="20"
     inkscape:window-maximized="0"
     inkscape:current-layer="layer1"
     showguides="true"><sodipodi:guide
       position="250.02518,350.60736"
       orientation="-0.99997769,0.0066803918"
       id="guide30"
       inkscape:locked="false" /><sodipodi:guide
       position="66.396728,247.89992"
       orientation="0,-1"
       id="guide53"
       inkscape:locked="false" /></sodipodi:namedview><defs
     id="defs1"><linearGradient
       id="swatch61"
       inkscape:swatch="solid"><stop
         style="stop-color:#5090d0;stop-opacity:1;"
         offset="0"
         id="stop61" /></linearGradient><linearGradient
       id="swatch30"
       inkscape:swatch="solid"><stop
         style="stop-color:#f9f9f9;stop-opacity:1;"
         offset="0"
         id="stop30" /></linearGradient><inkscape:perspective
       sodipodi:type="inkscape:persp3d"
       inkscape:vp_x="44.06818 : 315.96746 : 1"
       inkscape:vp_y="0 : 1000 : 0"
       inkscape:vp_z="480.74134 : 298.68846 : 1"
       inkscape:persp3d-origin="250 : 166.66667 : 1"
       id="perspective17" /></defs><g
     inkscape:label="Layer 1"
     inkscape:groupmode="layer"
     id="layer1"><path
       id="rect53-0"
       style="fill:none;fill-opacity:1;fill-rule:nonzero;stroke:#b9b9b9;stroke-width:22.0622;stroke-linecap:butt;stroke-linejoin:round;stroke-dasharray:none;stroke-opacity:1;paint-order:markers fill stroke;opacity:0.27296199"
       d="m 462.68749,104.21979 c 0,-1.64895 -0.59137,-3.17324 -1.54688,-4.517583 v -48.26953 c 0,-5.97292 -5.36366,-10.78125 -12.02538,-10.78125 H 307.18359 c -6.66173,0 -12.02344,4.80833 -12.02344,10.78125 v 43.39063 H 51.087889 c -6.7206,0 -12.13086,4.19106 -12.13086,9.396483 v 341.68359 c 0,5.20542 5.41026,9.39453 12.13086,9.39453 H 450.55663 c 6.7206,0 12.13086,-4.18911 12.13086,-9.39453 z" /><g
       style="fill:#b9b9b9;fill-opacity:1"
       id="g2"
       transform="matrix(9.2640369,0,0,9.2640369,64.356027,16.447991)"><g
         id="g1"
         transform="matrix(0.57209015,0,0,0.57124408,2.1855832,2.1688769)"
         style="fill:#b9b9b9;fill-opacity:1;stroke:none;stroke-opacity:1">
	<path
   d="m 5.206,19.956 0.199,42.771 c 0.003,0.55 0.306,1.054 0.789,1.314 l 34.161,17.887 c 0.223,0.119 0.467,0.179 0.711,0.179 10e-4,0 0.002,0 0.003,0 0.103,0.117 0.218,0.227 0.355,0.309 0.236,0.141 0.502,0.212 0.769,0.212 0.246,0 0.49,-0.061 0.712,-0.181 L 76.634,64.155 c 0.484,-0.263 0.787,-0.77 0.787,-1.319 v -44.5 c 0,-0.013 -0.005,-0.025 -0.005,-0.039 -10e-4,-0.011 0.003,-0.021 0.003,-0.033 C 77.417,18.221 77.4,18.182 77.397,18.14 77.384,18.058 77.375,17.976 77.35,17.897 77.332,17.842 77.309,17.793 77.286,17.74 77.255,17.67 77.224,17.601 77.182,17.537 77.151,17.487 77.114,17.442 77.077,17.396 77.03,17.338 76.981,17.284 76.925,17.233 76.881,17.193 76.834,17.157 76.784,17.122 76.752,17.1 76.725,17.069 76.69,17.049 76.658,17.029 76.621,17.021 76.586,17.004 76.557,16.989 76.534,16.968 76.505,16.955 L 41.747,0.118 C 41.342,-0.053 40.883,-0.037 40.489,0.16 L 6.131,18.071 c -0.504,0.254 -0.822,0.77 -0.825,1.333 0,0.009 0.004,0.017 0.004,0.025 -0.061,0.167 -0.105,0.343 -0.104,0.527 z M 72.456,18.501 42.176,35.431 10.111,19.425 41.218,3.151 Z M 43.692,78.61 V 38.021 L 74.421,20.848 v 41.09 z"
   id="path1"
   style="fill:#b9b9b9;fill-opacity:1;stroke:none;stroke-opacity:1" />
</g></g><path
       style="opacity:1;fill:none;stroke:#b9b9b9;stroke-width:50;stroke-linecap:round;stroke-linejoin:bevel;paint-order:markers fill stroke;stroke-opacity:1"
       d="M 42.531225,451.18705 V 92.274631"
       id="path2" /></g></svg>
