<?xml version="1.0" encoding="UTF-8" standalone="no"?>
<!-- Created with Inkscape (http://www.inkscape.org/) -->

<svg
   width="500"
   height="500"
   viewBox="0 0 500 500"
   version="1.1"
   id="svg1"
   inkscape:version="1.3.2 (091e20ef0f, 2023-11-25, custom)"
   sodipodi:docname="folder.mvn.svg"
   xml:space="preserve"
   xmlns:inkscape="http://www.inkscape.org/namespaces/inkscape"
   xmlns:sodipodi="http://sodipodi.sourceforge.net/DTD/sodipodi-0.dtd"
   xmlns:xlink="http://www.w3.org/1999/xlink"
   xmlns="http://www.w3.org/2000/svg"
   xmlns:svg="http://www.w3.org/2000/svg"><sodipodi:namedview
     id="namedview1"
     pagecolor="#505050"
     bordercolor="#eeeeee"
     borderopacity="1"
     inkscape:showpageshadow="0"
     inkscape:pageopacity="0"
     inkscape:pagecheckerboard="0"
     inkscape:deskcolor="#505050"
     inkscape:document-units="px"
     inkscape:zoom="0.96390292"
     inkscape:cx="202.82126"
     inkscape:cy="233.94472"
     inkscape:window-width="1362"
     inkscape:window-height="744"
     inkscape:window-x="0"
     inkscape:window-y="20"
     inkscape:window-maximized="0"
     inkscape:current-layer="layer1"
     showguides="true"><sodipodi:guide
       position="250.02518,350.60736"
       orientation="-0.99997769,0.0066803918"
       id="guide30"
       inkscape:locked="false" /><sodipodi:guide
       position="66.396728,247.89992"
       orientation="0,-1"
       id="guide53"
       inkscape:locked="false" /></sodipodi:namedview><defs
     id="defs1"><linearGradient
       id="swatch61"
       inkscape:swatch="solid"><stop
         style="stop-color:#5090d0;stop-opacity:1;"
         offset="0"
         id="stop61" /></linearGradient><linearGradient
       id="swatch30"
       inkscape:swatch="solid"><stop
         style="stop-color:#f9f9f9;stop-opacity:1;"
         offset="0"
         id="stop30" /></linearGradient><inkscape:perspective
       sodipodi:type="inkscape:persp3d"
       inkscape:vp_x="44.06818 : 315.96746 : 1"
       inkscape:vp_y="0 : 1000 : 0"
       inkscape:vp_z="480.74134 : 298.68846 : 1"
       inkscape:persp3d-origin="250 : 166.66667 : 1"
       id="perspective17" /><inkscape:perspective
       sodipodi:type="inkscape:persp3d"
       inkscape:vp_x="44.06818 : 315.96746 : 1"
       inkscape:vp_y="0 : 1000 : 0"
       inkscape:vp_z="480.74134 : 298.68846 : 1"
       inkscape:persp3d-origin="250 : 166.66667 : 1"
       id="perspective17-5" /><linearGradient
       id="a"
       x1="-7274.8"
       y1="2082.507"
       x2="-7243.872"
       y2="2046.343"
       gradientTransform="matrix(-0.023, -0.116, -0.116, 0.023, 79.68, -889.484)"
       gradientUnits="userSpaceOnUse"><stop
         offset="0"
         stop-color="#f69923"
         id="stop1" /><stop
         offset="0.312"
         stop-color="#f79a23"
         id="stop2" /><stop
         offset="0.838"
         stop-color="#e97826"
         id="stop3" /></linearGradient><linearGradient
       id="b"
       x1="-7503.689"
       y1="2086.595"
       x2="-7283.036"
       y2="2086.595"
       gradientTransform="matrix(-0.023, -0.116, -0.116, 0.023, 79.68, -889.484)"
       gradientUnits="userSpaceOnUse"><stop
         offset="0.323"
         stop-color="#9e2064"
         id="stop4" /><stop
         offset="0.63"
         stop-color="#c92037"
         id="stop5" /><stop
         offset="0.751"
         stop-color="#cd2335"
         id="stop6" /><stop
         offset="1"
         stop-color="#e97826"
         id="stop7" /></linearGradient><linearGradient
       id="c"
       x1="-7477.053"
       y1="2064.42"
       x2="-7345.566"
       y2="2064.42"
       gradientTransform="matrix(-0.023, -0.116, -0.116, 0.023, 79.68, -889.484)"
       gradientUnits="userSpaceOnUse"><stop
         offset="0"
         stop-color="#282662"
         id="stop8" /><stop
         offset="0.095"
         stop-color="#662e8d"
         id="stop9" /><stop
         offset="0.788"
         stop-color="#9f2064"
         id="stop10" /><stop
         offset="0.949"
         stop-color="#cd2032"
         id="stop11" /></linearGradient><linearGradient
       id="d"
       x1="-7491.296"
       y1="2088.633"
       x2="-7270.643"
       y2="2088.633"
       xlink:href="#b" /><linearGradient
       id="e"
       x1="-7475.203"
       y1="2085.61"
       x2="-7359.244"
       y2="2085.61"
       xlink:href="#c" /><linearGradient
       id="f"
       x1="-7491.296"
       y1="2065.799"
       x2="-7270.643"
       y2="2065.799"
       xlink:href="#b" /><linearGradient
       id="g"
       x1="-7504.984"
       y1="2066.905"
       x2="-7284.331"
       y2="2066.905"
       xlink:href="#b" /><linearGradient
       id="h"
       x1="-7491.296"
       y1="2058.959"
       x2="-7270.643"
       y2="2058.959"
       xlink:href="#b" /><linearGradient
       id="i"
       x1="-7491.296"
       y1="2059.762"
       x2="-7270.643"
       y2="2059.762"
       xlink:href="#b" /><linearGradient
       id="j"
       x1="-8307.632"
       y1="2040.008"
       x2="-8276.704"
       y2="2003.844"
       gradientTransform="matrix(0.074,-0.112,-0.112,-0.074,864.083,-775.51)"
       xlink:href="#a" /><linearGradient
       id="k"
       x1="-8536.521"
       y1="2044.096"
       x2="-8315.868"
       y2="2044.096"
       gradientTransform="matrix(0.074,-0.112,-0.112,-0.074,864.083,-775.51)"
       xlink:href="#b" /><linearGradient
       id="l"
       x1="-8509.885"
       y1="2021.921"
       x2="-8378.397"
       y2="2021.921"
       gradientTransform="matrix(0.074,-0.112,-0.112,-0.074,864.083,-775.51)"
       xlink:href="#c" /><linearGradient
       id="m"
       x1="-8524.128"
       y1="2046.134"
       x2="-8303.475"
       y2="2046.134"
       gradientTransform="matrix(0.074,-0.112,-0.112,-0.074,864.083,-775.51)"
       xlink:href="#b" /><linearGradient
       id="n"
       x1="-8508.035"
       y1="2043.111"
       x2="-8392.076"
       y2="2043.111"
       gradientTransform="matrix(0.074,-0.112,-0.112,-0.074,864.083,-775.51)"
       xlink:href="#c" /><linearGradient
       id="o"
       x1="-8524.128"
       y1="2023.3"
       x2="-8303.475"
       y2="2023.3"
       gradientTransform="matrix(0.074,-0.112,-0.112,-0.074,864.083,-775.51)"
       xlink:href="#b" /><linearGradient
       id="p"
       x1="-8537.816"
       y1="2024.407"
       x2="-8317.163"
       y2="2024.407"
       gradientTransform="matrix(0.074,-0.112,-0.112,-0.074,864.083,-775.51)"
       xlink:href="#b" /><linearGradient
       id="q"
       x1="-8524.128"
       y1="2016.46"
       x2="-8303.475"
       y2="2016.46"
       gradientTransform="matrix(0.074,-0.112,-0.112,-0.074,864.083,-775.51)"
       xlink:href="#b" /><linearGradient
       id="r"
       x1="-8524.128"
       y1="2017.263"
       x2="-8303.475"
       y2="2017.263"
       gradientTransform="matrix(0.074,-0.112,-0.112,-0.074,864.083,-775.51)"
       xlink:href="#b" /><linearGradient
       inkscape:collect="always"
       xlink:href="#a"
       id="linearGradient3"
       gradientUnits="userSpaceOnUse"
       gradientTransform="matrix(-0.023,-0.116,-0.116,0.023,79.68,-889.484)"
       x1="-7274.8"
       y1="2082.507"
       x2="-7243.872"
       y2="2046.343" /><linearGradient
       inkscape:collect="always"
       xlink:href="#b"
       id="linearGradient4"
       gradientUnits="userSpaceOnUse"
       gradientTransform="matrix(-0.023,-0.116,-0.116,0.023,79.68,-889.484)"
       x1="-7503.689"
       y1="2086.595"
       x2="-7283.036"
       y2="2086.595" /><linearGradient
       inkscape:collect="always"
       xlink:href="#c"
       id="linearGradient5"
       gradientUnits="userSpaceOnUse"
       gradientTransform="matrix(-0.023,-0.116,-0.116,0.023,79.68,-889.484)"
       x1="-7477.053"
       y1="2064.42"
       x2="-7345.566"
       y2="2064.42" /></defs><g
     inkscape:label="Layer 1"
     inkscape:groupmode="layer"
     id="layer1"><path
       id="rect53-0"
       style="display:inline;opacity:0.194036;fill:#f69923;fill-opacity:0.3137255;fill-rule:nonzero;stroke:#f69923;stroke-width:22.0622;stroke-linecap:butt;stroke-linejoin:round;stroke-dasharray:none;stroke-opacity:1;paint-order:markers fill stroke"
       d="m 462.68749,104.21979 c 0,-1.64895 -0.59137,-3.17324 -1.54688,-4.517583 v -48.26953 c 0,-5.97292 -5.36366,-10.78125 -12.02538,-10.78125 H 307.18359 c -6.66173,0 -12.02344,4.80833 -12.02344,10.78125 v 43.39063 H 51.087889 c -6.7206,0 -12.13086,4.19106 -12.13086,9.396483 v 341.68359 c 0,5.20542 5.41026,9.39453 12.13086,9.39453 H 450.55663 c 6.7206,0 12.13086,-4.18911 12.13086,-9.39453 z" /><path
       style="fill:none;stroke:#f69923;stroke-width:50;stroke-linejoin:bevel;paint-order:markers fill stroke;stroke-dasharray:none;stroke-linecap:round;stroke-opacity:1"
       d="M 38.291862,456.3779 V 99.481558"
       id="path2" /><g
       id="g3"
       transform="matrix(17.011782,0,0,17.011782,32.604281,-19.059632)"><path
         d="m 5.976,2.533 a 9.539,9.539 0 0 0 -0.4,2.655 l 1.427,0.691 a 17.928,17.928 0 0 1 0.1,-2.541 C 7.108,3.28 7.114,3.246 7.114,3.246 7.114,3.277 7.105,3.307 7.103,3.338 A 15.939,15.939 0 0 0 7.1,5.845 27.79,27.79 0 0 0 9.214,3.845 3.041,3.041 0 0 0 7.621,2.144 c 0,0 -1.264,-0.51 -1.645,0.389 z"
         style="fill:url(#linearGradient3)"
         id="path11" /><path
         d="M 9.688,9.722 A 0.018,0.018 0 0 0 9.7,9.709 L 9.62,9.78 c 0,0.007 -0.009,0.013 -0.01,0.019 z"
         style="fill:none"
         id="path12" /><path
         d="m 10.562,12.19 c -0.038,0.046 -0.083,0.091 -0.128,0.136 0.044,-0.044 0.089,-0.09 0.128,-0.136 z"
         style="fill:none"
         id="path13" /><path
         d="M 9.741,19.776 C 9.741,19.755 9.727,19.732 9.723,19.711 9.601,19.266 9.483,18.835 9.368,18.411 9.243,17.937 9.124,17.472 9.009,17.02 8.891,16.547 8.778,16.083 8.673,15.636 8.561,15.164 8.458,14.711 8.362,14.27 8.285,13.911 8.21,13.563 8.141,13.223 8.117,13.108 8.096,12.998 8.075,12.887 8.033,12.665 7.989,12.451 7.949,12.24 7.909,12.029 7.876,11.854 7.84,11.665 7.829,11.601 7.818,11.537 7.806,11.479 L 7.8,11.444 7.731,11.506 7.589,11.436 c 0,0.015 0.005,0.032 0.01,0.047 0.047,0.285 0.1,0.573 0.152,0.863 0.03,0.164 0.063,0.332 0.093,0.5 0.088,0.465 0.181,0.926 0.282,1.393 0.101,0.467 0.2,0.94 0.308,1.4 0.108,0.46 0.214,0.914 0.324,1.368 0.11,0.454 0.222,0.9 0.338,1.346 0.119,0.466 0.24,0.925 0.365,1.374 0.026,0.1 0.055,0.206 0.085,0.3 0.1,0.366 0.2,0.721 0.3,1.073 l 0.229,0.115 0.076,-0.068 A 0.069,0.069 0 0 0 10.142,21.118 C 9.993,20.668 9.865,20.215 9.741,19.776 Z"
         style="fill:none"
         id="path14" /><path
         d="m 10.924,13.495 c -0.067,0.073 -0.136,0.142 -0.206,0.211 v 0 c 0.036,-0.033 0.073,-0.072 0.107,-0.108 a 1.212,1.212 0 0 0 0.099,-0.103 z"
         style="fill:#be202e"
         id="path15" /><path
         d="m 10.924,13.495 c -0.067,0.073 -0.136,0.142 -0.206,0.211 v 0 c 0.036,-0.033 0.073,-0.072 0.107,-0.108 a 1.212,1.212 0 0 0 0.099,-0.103 z"
         style="opacity:0.35;isolation:isolate;fill:#be202e"
         id="path16" /><path
         d="m 10.4,12.356 v 0 c 0.012,-0.009 0.021,-0.021 0.032,-0.03 0.045,-0.045 0.09,-0.09 0.128,-0.136 -0.05,0.055 -0.107,0.108 -0.161,0.166 z"
         style="fill:#be202e"
         id="path17" /><path
         d="m 10.4,12.356 v 0 c 0.012,-0.009 0.021,-0.021 0.032,-0.03 0.045,-0.045 0.09,-0.09 0.128,-0.136 -0.05,0.055 -0.107,0.108 -0.161,0.166 z"
         style="opacity:0.35;isolation:isolate;fill:#be202e"
         id="path18" /><path
         d="M 7.38,10.092 Q 7.28,9.38 7.2,8.692 C 7.145,8.215 7.1,7.747 7.069,7.284 7.069,7.256 7.064,7.228 7.069,7.203 7.032,6.751 7.01,6.31 7,5.878 L 5.575,5.191 c 0,0.086 -0.01,0.175 -0.013,0.269 -0.014,0.341 -0.025,0.7 -0.028,1.085 0,0.43 0,0.878 0.008,1.347 0.01,0.432 0.028,0.882 0.051,1.34 0.023,0.392 0.049,0.788 0.081,1.192 0,0.017 0,0.028 0,0.046 L 7.58,11.435 C 7.517,10.984 7.447,10.536 7.38,10.092 Z"
         style="fill:url(#linearGradient4)"
         id="path19" /><path
         d="m 10.2,21.362 c 0.1,0.356 0.212,0.723 0.328,1.095 0,0 0,0.011 0,0.015 0.016,0.054 0.029,0.105 0.049,0.157 0.076,0.251 0.149,0.474 0.307,0.984 a 1.927,1.927 0 0 1 1.094,0.262 1.563,1.563 0 0 0 -1.041,-0.566 3.349,3.349 0 0 0 1.827,-2.977 c -0.012,-0.106 -0.026,-0.216 -0.047,-0.326 a 1.347,1.347 0 0 1 -0.766,1.152 v 0 0 a 3.766,3.766 0 0 0 0.61,-2.373 c -0.015,-0.193 -0.04,-0.4 -0.075,-0.619 a 3.056,3.056 0 0 1 -1.772,2.462 l -0.578,0.532 c 0.021,0.067 0.039,0.133 0.064,0.202 z"
         style="fill:url(#linearGradient5)"
         id="path20" /><path
         d="M 9.453,19.735 C 9.332,19.283 9.211,18.824 9.088,18.361 8.972,17.917 8.861,17.469 8.75,17.015 8.639,16.561 8.532,16.104 8.426,15.647 8.32,15.19 8.216,14.713 8.118,14.247 8.02,13.781 7.928,13.316 7.836,12.854 7.803,12.686 7.773,12.522 7.743,12.354 7.69,12.068 7.643,11.78 7.591,11.491 c 0,-0.015 -0.005,-0.032 -0.01,-0.047 L 5.686,10.477 a 0.679,0.679 0 0 1 0.007,0.091 c 0.038,0.429 0.075,0.865 0.126,1.3 0.051,0.435 0.106,0.89 0.172,1.341 0.056,0.38 0.116,0.757 0.179,1.138 0.013,0.075 0.028,0.154 0.041,0.228 0.087,0.471 0.181,0.926 0.282,1.351 0.113,0.482 0.235,0.934 0.357,1.356 0.082,0.276 0.163,0.542 0.246,0.794 0.072,0.212 0.15,0.425 0.225,0.635 0.181,0.493 0.382,0.971 0.6,1.438 l 1.915,0.97 c -0.1,-0.352 -0.2,-0.71 -0.3,-1.073 C 9.508,19.941 9.482,19.84 9.453,19.735 Z"
         style="fill:url(#d)"
         id="path21" /><path
         d="m 7.947,20.208 a 14.86,14.86 0 0 0 0.881,1.627 c 0.011,0.016 0.022,0.038 0.033,0.054 a 3.864,3.864 0 0 0 -1.46,-0.113 5.37,5.37 0 0 1 2.353,1.371 2.468,2.468 0 0 1 -1.112,0.558 2.46,2.46 0 0 0 1.22,-0.108 3,3 0 0 0 -0.742,1.447 3.084,3.084 0 0 1 1.205,-1.276 c 0.575,1.906 1.267,3.972 2.034,6.14 a 0.577,0.577 0 0 0 0.09,-0.541 c -0.141,-0.389 -1.054,-2.968 -2.095,-6.468 -0.03,-0.1 -0.056,-0.2 -0.089,-0.3 C 10.256,22.57 10.249,22.545 10.24,22.515 Q 10.08,21.965 9.914,21.383 C 9.89,21.293 9.864,21.209 9.84,21.118 v 0 l -1.915,-0.97 a 0.357,0.357 0 0 0 0.022,0.06 z"
         style="fill:url(#e)"
         id="path22" /><path
         d="m 7.806,11.476 c 0.011,0.064 0.023,0.121 0.034,0.186 0.037,0.19 0.07,0.382 0.109,0.575 0.04,0.211 0.084,0.426 0.126,0.647 0.021,0.111 0.042,0.222 0.066,0.336 0.069,0.34 0.144,0.688 0.221,1.047 0.1,0.441 0.2,0.894 0.311,1.366 0.1,0.446 0.218,0.911 0.336,1.384 0.115,0.451 0.231,0.913 0.359,1.391 0.112,0.423 0.233,0.858 0.355,1.3 0,0.021 0.014,0.044 0.018,0.065 0.123,0.439 0.252,0.892 0.386,1.353 a 0.069,0.069 0 0 0 0.009,0.029 l 0.578,-0.532 c -0.015,0 -0.026,0.013 -0.045,0.021 a 5.547,5.547 0 0 0 1.408,-3.114 7.47,7.47 0 0 0 -0.018,-1.737 11.925,11.925 0 0 0 -0.278,-1.486 c -0.114,-0.458 -0.254,-0.944 -0.425,-1.456 a 2.891,2.891 0 0 1 -0.441,0.637 l -0.1,0.11 c -0.033,0.037 -0.07,0.069 -0.107,0.108 v 0 a 3.377,3.377 0 0 0 0.416,-2.507 3.176,3.176 0 0 1 -0.572,0.991 c -0.038,0.046 -0.083,0.091 -0.128,0.136 -0.012,0.009 -0.021,0.021 -0.036,0.033 v 0 a 3.52,3.52 0 0 0 0.371,-0.814 1.509,1.509 0 0 0 0.043,-0.17 c 0.02,-0.087 0.034,-0.175 0.047,-0.263 0.005,-0.058 0.014,-0.112 0.019,-0.171 a 2.461,2.461 0 0 0 0,-0.413 c 0,-0.046 0,-0.087 -0.011,-0.13 -0.011,-0.064 -0.019,-0.124 -0.031,-0.182 -0.046,-0.267 -0.1,-0.5 -0.149,-0.7 C 10.651,9.416 10.627,9.324 10.601,9.241 10.589,9.208 10.583,9.176 10.571,9.141 10.54,9.05 10.515,8.966 10.487,8.896 A 2.452,2.452 0 0 0 10.382,8.654 v 0 A 0.532,0.532 0 0 1 10.34,8.769 3.749,3.749 0 0 1 9.69,9.703 L 10.223,9.216 9.687,9.7 A 0.018,0.018 0 0 0 9.678,9.713 1.082,1.082 0 0 0 9.6,9.8 C 9.6,9.793 9.609,9.787 9.61,9.781 l -1.82,1.665 c 0.015,0.013 0.017,0.023 0.016,0.03 z"
         style="fill:url(#f)"
         id="path23" /><path
         d="m 7.1,5.845 c 0.022,0.4 0.057,0.848 0.1,1.344 a 0.485,0.485 0 0 0 0.009,0.078 c 0.041,0.433 0.094,0.9 0.162,1.409 0.058,0.439 0.122,0.9 0.2,1.4 0.065,0.433 0.145,0.886 0.227,1.367 l 1.82,-1.667 a 2.987,2.987 0 0 0 0.457,-1.647 c 0,-0.143 -0.011,-0.293 -0.022,-0.447 A 14.324,14.324 0 0 0 9.895,6.25 12.46,12.46 0 0 0 9.624,4.963 6.825,6.825 0 0 0 9.415,4.31 C 9.35,4.147 9.282,3.998 9.215,3.856 A 28.8,28.8 0 0 1 7.1,5.845 Z"
         style="fill:url(#g)"
         id="path24" /><path
         d="m 10.827,13.6 c -0.033,0.037 -0.07,0.069 -0.107,0.108 v 0 A 1.391,1.391 0 0 1 10.827,13.6 Z"
         style="fill:#be202e"
         id="path25" /><path
         d="m 10.827,13.6 c -0.033,0.037 -0.07,0.069 -0.107,0.108 v 0 A 1.391,1.391 0 0 1 10.827,13.6 Z"
         style="opacity:0.35;isolation:isolate;fill:#be202e"
         id="path26" /><path
         d="m 10.827,13.6 c -0.033,0.037 -0.07,0.069 -0.107,0.108 v 0 A 1.391,1.391 0 0 1 10.827,13.6 Z"
         style="fill:url(#h)"
         id="path27" /><path
         d="m 10.4,12.359 c 0.012,-0.009 0.021,-0.021 0.036,-0.033 -0.012,0.009 -0.021,0.021 -0.036,0.033 z"
         style="fill:#be202e"
         id="path28" /><path
         d="m 10.4,12.359 c 0.012,-0.009 0.021,-0.021 0.036,-0.033 -0.012,0.009 -0.021,0.021 -0.036,0.033 z"
         style="opacity:0.35;isolation:isolate;fill:#be202e"
         id="path29" /><path
         d="m 10.4,12.359 c 0.012,-0.009 0.021,-0.021 0.036,-0.033 -0.012,0.009 -0.021,0.021 -0.036,0.033 z"
         style="fill:url(#i)"
         id="path30" /><path
         d="M 24.627,2.891 A 10.789,10.789 0 0 0 22.2,4.713 l 0.6,1.69 A 20.278,20.278 0 0 1 24.9,4.438 C 24.951,4.396 24.982,4.372 24.982,4.372 24.956,4.396 24.926,4.414 24.9,4.438 a 18.028,18.028 0 0 0 -2,2.013 31.432,31.432 0 0 0 3.288,0.072 3.44,3.44 0 0 0 0.071,-2.639 c 0,0 -0.612,-1.414 -1.632,-0.993 z"
         style="fill:url(#j)"
         id="path31" /><path
         d="m 21.9,11.627 a 0.02,0.02 0 0 0 0.017,0 L 21.796,11.62 c -0.006,0 -0.017,0 -0.023,0.008 z"
         style="fill:none"
         id="path32" /><path
         d="m 20.645,14.308 c -0.068,0.007 -0.14,0.007 -0.212,0.008 0.073,-0.001 0.145,-0.001 0.212,-0.008 z"
         style="fill:none"
         id="path33" /><path
         d="m 13.958,19.763 c 0.014,-0.02 0.023,-0.046 0.037,-0.067 0.255,-0.456 0.5,-0.9 0.75,-1.331 0.276,-0.481 0.55,-0.95 0.816,-1.4 0.28,-0.474 0.559,-0.938 0.829,-1.381 0.285,-0.468 0.561,-0.915 0.835,-1.346 0.223,-0.35 0.439,-0.689 0.654,-1.018 0.072,-0.111 0.143,-0.217 0.214,-0.323 0.142,-0.212 0.278,-0.419 0.413,-0.621 0.127,-0.186 0.248,-0.368 0.369,-0.55 0.042,-0.06 0.084,-0.121 0.12,-0.176 l 0.021,-0.03 h -0.1 l -0.058,-0.169 c -0.008,0.015 -0.021,0.03 -0.029,0.046 -0.189,0.266 -0.378,0.538 -0.563,0.815 -0.106,0.156 -0.213,0.318 -0.325,0.479 -0.3,0.444 -0.591,0.889 -0.879,1.346 -0.288,0.457 -0.584,0.918 -0.867,1.375 -0.283,0.457 -0.554,0.905 -0.826,1.359 -0.272,0.454 -0.537,0.9 -0.8,1.352 -0.274,0.47 -0.542,0.935 -0.8,1.4 -0.059,0.1 -0.119,0.21 -0.173,0.313 -0.21,0.374 -0.413,0.738 -0.611,1.1 l 0.093,0.274 0.116,0.006 a 0.078,0.078 0 0 0 0.016,-0.031 c 0.242,-0.504 0.499,-0.971 0.748,-1.422 z"
         style="fill:none"
         id="path34" /><path
         d="m 19.9,15.646 c -0.112,0.006 -0.223,0.006 -0.334,0.006 v 0 c 0.055,0 0.116,0 0.172,0 A 1.371,1.371 0 0 0 19.9,15.646 Z"
         style="fill:#be202e"
         id="path35" /><path
         d="m 19.9,15.646 c -0.112,0.006 -0.223,0.006 -0.334,0.006 v 0 c 0.055,0 0.116,0 0.172,0 A 1.371,1.371 0 0 0 19.9,15.646 Z"
         style="opacity:0.35;isolation:isolate;fill:#be202e"
         id="path36" /><path
         d="m 20.384,14.314 v 0 c 0.016,0 0.033,0 0.05,0 0.072,0 0.144,0 0.212,-0.008 -0.084,0 -0.172,0 -0.261,0.006 z"
         style="fill:#be202e"
         id="path37" /><path
         d="m 20.384,14.314 v 0 c 0.016,0 0.033,0 0.05,0 0.072,0 0.144,0 0.212,-0.008 -0.084,0 -0.172,0 -0.261,0.006 z"
         style="opacity:0.35;isolation:isolate;fill:#be202e"
         id="path38" /><path
         d="m 19.751,10.091 q 0.486,-0.652 0.968,-1.272 c 0.334,-0.428 0.672,-0.838 1.013,-1.237 0.02,-0.025 0.041,-0.049 0.06,-0.069 0.334,-0.389 0.666,-0.761 1,-1.117 l -0.6,-1.685 C 22.121,4.778 22.045,4.845 21.968,4.916 21.685,5.179 21.389,5.463 21.084,5.767 20.74,6.11 20.384,6.474 20.02,6.858 19.685,7.214 19.342,7.59 18.997,7.977 18.704,8.311 18.41,8.65 18.115,9.001 l -0.034,0.039 0.767,2.291 c 0.305,-0.413 0.604,-0.831 0.903,-1.24 z"
         style="fill:url(#k)"
         id="path39" /><path
         d="m 13.063,21.4 c -0.2,0.37 -0.4,0.75 -0.605,1.142 0,0.005 -0.007,0.01 -0.008,0.015 -0.03,0.057 -0.06,0.108 -0.085,0.165 -0.138,0.262 -0.256,0.5 -0.534,1.036 a 2.18,2.18 0 0 1 0.673,1.08 1.768,1.768 0 0 0 -0.388,-1.282 c 1.558,0.3 2.973,0.1 3.836,-0.945 0.075,-0.094 0.15,-0.194 0.221,-0.3 a 1.524,1.524 0 0 1 -1.532,0.318 v 0 A 4.26,4.26 0 0 0 17.017,21.2 c 0.141,-0.168 0.284,-0.352 0.431,-0.558 a 3.456,3.456 0 0 1 -3.383,0.574 L 13.177,21.185 C 13.139,21.261 13.1,21.328 13.063,21.4 Z"
         style="fill:url(#l)"
         id="path40" /><path
         d="m 13.758,19.5 c 0.262,-0.461 0.529,-0.926 0.8,-1.4 0.26,-0.45 0.525,-0.9 0.8,-1.352 0.275,-0.452 0.549,-0.906 0.826,-1.359 0.277,-0.453 0.573,-0.919 0.867,-1.375 0.294,-0.456 0.587,-0.9 0.879,-1.346 0.107,-0.162 0.213,-0.318 0.325,-0.479 0.184,-0.272 0.374,-0.544 0.563,-0.815 0.008,-0.015 0.021,-0.03 0.029,-0.046 L 18.09,9.044 a 0.768,0.768 0 0 1 -0.067,0.079 c -0.31,0.376 -0.626,0.756 -0.934,1.149 -0.308,0.393 -0.622,0.8 -0.927,1.217 -0.257,0.35 -0.508,0.7 -0.76,1.058 -0.049,0.07 -0.1,0.146 -0.148,0.217 -0.3,0.449 -0.591,0.889 -0.847,1.312 -0.292,0.478 -0.554,0.939 -0.789,1.375 -0.153,0.288 -0.3,0.566 -0.433,0.835 -0.111,0.228 -0.217,0.461 -0.323,0.69 -0.246,0.54 -0.464,1.085 -0.661,1.633 l 0.771,2.3 c 0.2,-0.365 0.406,-0.728 0.611,-1.1 0.055,-0.099 0.117,-0.201 0.175,-0.309 z"
         style="fill:url(#m)"
         id="path41" /><path
         d="m 12.17,18.686 a 16.808,16.808 0 0 0 -0.583,2.01 c 0,0.022 -0.013,0.048 -0.016,0.07 a 4.37,4.37 0 0 0 -1.086,-1.251 6.074,6.074 0 0 1 0.805,2.973 2.792,2.792 0 0 1 -1.339,-0.435 2.782,2.782 0 0 0 1.068,0.883 3.4,3.4 0 0 0 -1.747,0.575 3.488,3.488 0 0 1 1.984,-0.069 C 10.2,25.432 9.12,27.645 8.015,30 a 0.652,0.652 0 0 0 0.5,-0.364 c 0.2,-0.426 1.51,-3.226 3.453,-6.872 0.054,-0.1 0.113,-0.205 0.168,-0.314 0.016,-0.031 0.03,-0.057 0.046,-0.087 q 0.308,-0.57 0.637,-1.17 c 0.052,-0.092 0.1,-0.18 0.151,-0.272 v -0.005 l -0.771,-2.3 a 0.4,0.4 0 0 0 -0.029,0.07 z"
         style="fill:url(#n)"
         id="path42" /><path
         d="m 18.994,11.544 c -0.042,0.06 -0.078,0.116 -0.12,0.176 -0.121,0.182 -0.247,0.363 -0.369,0.55 -0.122,0.187 -0.271,0.409 -0.413,0.621 -0.071,0.106 -0.142,0.212 -0.214,0.323 -0.215,0.329 -0.431,0.669 -0.654,1.018 -0.274,0.431 -0.55,0.878 -0.835,1.346 -0.27,0.443 -0.549,0.906 -0.829,1.381 -0.266,0.454 -0.539,0.919 -0.816,1.4 -0.246,0.43 -0.494,0.875 -0.75,1.331 -0.014,0.02 -0.023,0.046 -0.037,0.067 -0.249,0.451 -0.506,0.918 -0.765,1.4 a 0.078,0.078 0 0 0 -0.016,0.031 l 0.888,0.031 C 14.049,21.211 14.032,21.209 14.011,21.2 a 6.274,6.274 0 0 0 3.607,-1.389 8.449,8.449 0 0 0 1.368,-1.411 13.487,13.487 0 0 0 0.956,-1.417 c 0.272,-0.459 0.546,-0.962 0.815,-1.51 a 3.269,3.269 0 0 1 -0.861,0.162 l -0.168,0.009 c -0.056,0 -0.111,0 -0.172,0 v 0 a 3.82,3.82 0 0 0 2.326,-1.688 3.592,3.592 0 0 1 -1.248,0.344 c -0.068,0.007 -0.14,0.007 -0.212,0.008 -0.016,0 -0.033,0 -0.055,0 v 0 a 3.981,3.981 0 0 0 0.945,-0.36 1.707,1.707 0 0 0 0.17,-0.1 c 0.086,-0.054 0.166,-0.114 0.247,-0.174 0.051,-0.042 0.1,-0.08 0.151,-0.122 a 2.784,2.784 0 0 0 0.326,-0.335 c 0.034,-0.039 0.066,-0.073 0.094,-0.114 0.042,-0.06 0.083,-0.115 0.119,-0.171 0.175,-0.251 0.32,-0.48 0.439,-0.684 0.059,-0.1 0.112,-0.194 0.158,-0.282 0.016,-0.036 0.037,-0.067 0.054,-0.1 0.048,-0.1 0.094,-0.186 0.127,-0.264 a 2.773,2.773 0 0 0 0.107,-0.278 v 0 a 0.6,0.6 0 0 1 -0.125,0.059 4.24,4.24 0 0 1 -1.265,0.236 l 0.816,0.031 -0.816,-0.031 a 0.02,0.02 0 0 0 -0.017,0 1.224,1.224 0 0 0 -0.128,0 c 0.006,0 0.017,0 0.023,-0.008 l -2.79,-0.1 c 0.005,0.018 -0.002,0.028 -0.008,0.033 z"
         style="fill:url(#o)"
         id="path43" /><path
         d="M 22.9,6.452 C 22.6,6.791 22.272,7.18 21.914,7.616 a 0.548,0.548 0 0 0 -0.055,0.07 c -0.311,0.381 -0.638,0.8 -0.989,1.263 -0.3,0.4 -0.62,0.824 -0.954,1.29 -0.292,0.4 -0.587,0.829 -0.9,1.281 l 2.79,0.1 a 3.379,3.379 0 0 0 1.677,-0.962 c 0.111,-0.117 0.224,-0.244 0.338,-0.377 A 16.2,16.2 0 0 0 24.828,9 a 14.093,14.093 0 0 0 0.8,-1.251 7.72,7.72 0 0 0 0.351,-0.691 c 0.077,-0.183 0.141,-0.356 0.2,-0.525 A 32.58,32.58 0 0 1 22.9,6.452 Z"
         style="fill:url(#p)"
         id="path44" /><path
         d="m 19.738,15.655 c -0.056,0 -0.111,0 -0.172,0 v 0 a 1.573,1.573 0 0 1 0.172,0 z"
         style="fill:#be202e"
         id="path45" /><path
         d="m 19.738,15.655 c -0.056,0 -0.111,0 -0.172,0 v 0 a 1.573,1.573 0 0 1 0.172,0 z"
         style="opacity:0.35;isolation:isolate;fill:#be202e"
         id="path46" /><path
         d="m 19.738,15.655 c -0.056,0 -0.111,0 -0.172,0 v 0 a 1.573,1.573 0 0 1 0.172,0 z"
         style="fill:url(#q)"
         id="path47" /><path
         d="m 20.378,14.313 c 0.016,0 0.033,0 0.055,0 -0.016,0 -0.033,0 -0.055,0 z"
         style="fill:#be202e"
         id="path48" /><path
         d="m 20.378,14.313 c 0.016,0 0.033,0 0.055,0 -0.016,0 -0.033,0 -0.055,0 z"
         style="opacity:0.35;isolation:isolate;fill:#be202e"
         id="path49" /><path
         d="m 20.378,14.313 c 0.016,0 0.033,0 0.055,0 -0.016,0 -0.033,0 -0.055,0 z"
         style="fill:url(#r)"
         id="path50" /></g></g></svg>
