<?xml version="1.0" encoding="UTF-8" standalone="no"?>
<!-- Created with Inkscape (http://www.inkscape.org/) -->

<svg
   width="500"
   height="500"
   viewBox="0 0 500 500"
   version="1.1"
   id="svg1"
   inkscape:version="1.3.2 (091e20ef0f, 2023-11-25, custom)"
   sodipodi:docname="folder.model.svg"
   xml:space="preserve"
   xmlns:inkscape="http://www.inkscape.org/namespaces/inkscape"
   xmlns:sodipodi="http://sodipodi.sourceforge.net/DTD/sodipodi-0.dtd"
   xmlns:xlink="http://www.w3.org/1999/xlink"
   xmlns="http://www.w3.org/2000/svg"
   xmlns:svg="http://www.w3.org/2000/svg"><sodipodi:namedview
     id="namedview1"
     pagecolor="#505050"
     bordercolor="#eeeeee"
     borderopacity="1"
     inkscape:showpageshadow="0"
     inkscape:pageopacity="0"
     inkscape:pagecheckerboard="0"
     inkscape:deskcolor="#505050"
     inkscape:document-units="px"
     inkscape:zoom="0.96390292"
     inkscape:cx="295.1542"
     inkscape:cy="278.55502"
     inkscape:window-width="1362"
     inkscape:window-height="744"
     inkscape:window-x="0"
     inkscape:window-y="20"
     inkscape:window-maximized="0"
     inkscape:current-layer="layer1"
     showguides="true"><sodipodi:guide
       position="250.02518,350.60736"
       orientation="-0.99997769,0.0066803918"
       id="guide30"
       inkscape:locked="false" /><sodipodi:guide
       position="66.396728,247.89992"
       orientation="0,-1"
       id="guide53"
       inkscape:locked="false" /></sodipodi:namedview><defs
     id="defs1"><linearGradient
       id="linearGradient9"
       inkscape:collect="always"><stop
         style="stop-color:#ff4f20;stop-opacity:1;"
         offset="0"
         id="stop8" /><stop
         style="stop-color:#ff1e5e;stop-opacity:1;"
         offset="1"
         id="stop9" /></linearGradient><linearGradient
       id="swatch61"
       inkscape:swatch="solid"><stop
         style="stop-color:#5090d0;stop-opacity:1;"
         offset="0"
         id="stop61" /></linearGradient><linearGradient
       id="swatch30"
       inkscape:swatch="solid"><stop
         style="stop-color:#f9f9f9;stop-opacity:1;"
         offset="0"
         id="stop30" /></linearGradient><inkscape:perspective
       sodipodi:type="inkscape:persp3d"
       inkscape:vp_x="44.06818 : 315.96746 : 1"
       inkscape:vp_y="0 : 1000 : 0"
       inkscape:vp_z="480.74134 : 298.68846 : 1"
       inkscape:persp3d-origin="250 : 166.66667 : 1"
       id="perspective17" /><inkscape:perspective
       sodipodi:type="inkscape:persp3d"
       inkscape:vp_x="44.06818 : 315.96746 : 1"
       inkscape:vp_y="0 : 1000 : 0"
       inkscape:vp_z="480.74134 : 298.68846 : 1"
       inkscape:persp3d-origin="250 : 166.66667 : 1"
       id="perspective17-4" /><linearGradient
       inkscape:collect="always"
       xlink:href="#linearGradient9"
       id="linearGradient2"
       x1="-3.487365"
       y1="4.639771"
       x2="106.67555"
       y2="93.052696"
       gradientUnits="userSpaceOnUse" /><linearGradient
       inkscape:collect="always"
       xlink:href="#linearGradient9"
       id="linearGradient4"
       x1="-81.643303"
       y1="190.85527"
       x2="263.31433"
       y2="286.33499"
       gradientUnits="userSpaceOnUse" /><inkscape:perspective
       sodipodi:type="inkscape:persp3d"
       inkscape:vp_x="44.06818 : 315.96746 : 1"
       inkscape:vp_y="0 : 1000 : 0"
       inkscape:vp_z="480.74134 : 298.68846 : 1"
       inkscape:persp3d-origin="250 : 166.66667 : 1"
       id="perspective17-29" /><inkscape:perspective
       sodipodi:type="inkscape:persp3d"
       inkscape:vp_x="44.06818 : 315.96746 : 1"
       inkscape:vp_y="0 : 1000 : 0"
       inkscape:vp_z="480.74134 : 298.68846 : 1"
       inkscape:persp3d-origin="250 : 166.66667 : 1"
       id="perspective17-5" /><inkscape:perspective
       sodipodi:type="inkscape:persp3d"
       inkscape:vp_x="44.06818 : 315.96746 : 1"
       inkscape:vp_y="0 : 1000 : 0"
       inkscape:vp_z="480.74134 : 298.68846 : 1"
       inkscape:persp3d-origin="250 : 166.66667 : 1"
       id="perspective17-2" /></defs><g
     inkscape:label="Layer 1"
     inkscape:groupmode="layer"
     id="layer1"><path
       id="path10"
       style="opacity:0.222881;color:#000000;fill:#ff3a3b;stroke-linejoin:bevel;stroke-miterlimit:10;-inkscape-stroke:none;fill-opacity:1"
       d="M 296.32897 31.341395 L 285.24694 42.423426 L 285.24694 85.51327 L 40.125846 85.51327 L 29.043815 96.595301 L 29.043815 457.06991 L 40.125846 468.14999 L 463.85631 468.14999 L 474.93639 457.06991 L 474.93639 42.423426 L 462.18053 31.468348 C 459.67964 31.850872 446.60654 32.43624 430.85827 32.571864 C 415.11 32.707487 395.68457 32.617014 376.55553 32.435145 C 338.29745 32.071405 302.15547 31.341395 296.32897 31.341395 z "
       transform="translate(-1.202018,-0.86092637)" /><path
       style="fill:none;stroke:url(#linearGradient4);stroke-width:50;stroke-linecap:round;stroke-linejoin:bevel;paint-order:markers fill stroke;stroke-opacity:1"
       d="M 43.979119,450.13181 V 98.591456"
       id="path1" /><path
       id="path1-3"
       style="fill:url(#linearGradient2);fill-opacity:1;stroke:none;stroke-opacity:1"
       d="M 41.884258 -5.0571515 C 37.832212 -5.0568946 34.483869 -1.7035652 34.483972 2.3544809 C 34.483964 2.6606816 34.509023 2.9611779 34.546007 3.2582161 L 14.40194 13.759218 C 13.055166 11.856215 10.84419 10.598398 8.3656557 10.59846 C 4.3133692 10.598358 0.96488242 13.951804 0.96498442 18.010093 C 0.9649106 20.947189 2.7228585 23.507781 5.228067 24.702441 L 5.3671643 54.63298 C 2.6959637 55.757125 0.79370857 58.41312 0.79352095 61.471192 C 0.79341898 65.52948 4.141906 68.882927 8.1941922 68.882824 C 9.8394616 68.882866 11.36362 68.323557 12.59984 67.39525 L 34.530209 78.877935 C 34.501162 79.141752 34.483965 79.408913 34.483972 79.679798 C 34.483869 83.737845 37.832212 87.091181 41.884258 87.09143 C 45.936542 87.091533 49.28503 83.738086 49.284929 79.679798 C 49.284935 79.45244 49.2708 79.22813 49.250251 79.005662 L 70.030082 67.736369 C 71.169652 68.457262 72.509605 68.882736 73.94176 68.882824 C 77.994047 68.882927 81.342534 65.52948 81.342432 61.471192 C 81.342295 58.668446 79.744286 56.203312 77.42112 54.945544 L 77.42112 24.536126 C 79.744362 23.278302 81.342503 20.813005 81.342432 18.010093 C 81.342534 13.951804 77.994047 10.598358 73.94176 10.59846 C 71.781651 10.598566 69.827499 11.557211 68.46803 13.06193 L 49.153538 3.7058391 C 49.23621 3.2665504 49.284941 2.8158847 49.284929 2.3544809 C 49.285032 -1.7038064 45.936542 -5.0572536 41.884258 -5.0571515 z M 35.537413 6.1230029 C 36.836045 8.2926752 39.20262 9.7659485 41.884258 9.7661133 C 44.414883 9.7661762 46.670859 8.4582205 48.008393 6.4876612 L 66.895575 15.768505 C 66.667108 16.477422 66.541455 17.230353 66.541474 18.010093 C 66.541445 19.209532 66.839677 20.344294 67.356408 21.352215 L 47.987972 32.181603 C 46.64812 30.226672 44.402873 28.9301 41.884258 28.930163 C 39.347378 28.930286 37.08668 30.244808 35.75049 32.223664 L 14.739473 21.735396 C 15.387142 20.636414 15.766361 19.364587 15.766327 18.010093 C 15.76634 17.509087 15.714288 17.019049 15.617212 16.544514 L 35.537413 6.1230029 z M 69.264854 23.729633 C 70.544486 24.784032 72.176023 25.421617 73.94176 25.421725 C 74.103417 25.421729 74.261839 25.40753 74.421088 25.397029 L 74.421088 54.084642 C 74.261848 54.074141 74.103407 54.059941 73.94176 54.059945 C 69.889957 54.060143 66.541725 57.413388 66.541474 61.471192 C 66.541437 62.968977 67.000197 64.368856 67.779479 65.541473 L 48.339761 76.088396 C 47.354721 74.33362 45.676968 73.014969 43.692138 72.505097 L 43.692138 43.51611 C 46.884447 42.696049 49.284717 39.7754 49.284929 36.341795 C 49.284941 35.873567 49.235532 35.416153 49.150456 34.970757 L 69.264854 23.729633 z "
       transform="matrix(5.0689553,0,0,5.0614588,88.606584,51.192267)" /></g></svg>
