<?xml version="1.0" encoding="UTF-8" standalone="no"?>
<!-- Created with Inkscape (http://www.inkscape.org/) -->

<svg
   width="500"
   height="500"
   viewBox="0 0 500 500"
   version="1.1"
   id="svg1"
   inkscape:version="1.3.2 (091e20ef0f, 2023-11-25, custom)"
   sodipodi:docname="folder.cache.svg"
   xml:space="preserve"
   xmlns:inkscape="http://www.inkscape.org/namespaces/inkscape"
   xmlns:sodipodi="http://sodipodi.sourceforge.net/DTD/sodipodi-0.dtd"
   xmlns:xlink="http://www.w3.org/1999/xlink"
   xmlns="http://www.w3.org/2000/svg"
   xmlns:svg="http://www.w3.org/2000/svg"><sodipodi:namedview
     id="namedview1"
     pagecolor="#505050"
     bordercolor="#eeeeee"
     borderopacity="1"
     inkscape:showpageshadow="0"
     inkscape:pageopacity="0"
     inkscape:pagecheckerboard="0"
     inkscape:deskcolor="#505050"
     inkscape:document-units="px"
     inkscape:zoom="0.96390292"
     inkscape:cx="226.68258"
     inkscape:cy="240.16941"
     inkscape:window-width="1352"
     inkscape:window-height="734"
     inkscape:window-x="4"
     inkscape:window-y="24"
     inkscape:window-maximized="0"
     inkscape:current-layer="layer1"
     showguides="true"><sodipodi:guide
       position="250.02518,350.60736"
       orientation="-0.99997769,0.0066803918"
       id="guide30"
       inkscape:locked="false" /><sodipodi:guide
       position="66.396728,247.89992"
       orientation="0,-1"
       id="guide53"
       inkscape:locked="false" /></sodipodi:namedview><defs
     id="defs1"><linearGradient
       id="linearGradient8"
       inkscape:collect="always"><stop
         style="stop-color:#ffa911;stop-opacity:1;"
         offset="0"
         id="stop8" /><stop
         style="stop-color:#ff3b61;stop-opacity:1;"
         offset="1"
         id="stop9" /></linearGradient><inkscape:path-effect
       effect="mirror_symmetry"
       start_point="251.67188,24.113281"
       end_point="251.67188,445.49096"
       center_point="251.67188,234.80212"
       id="path-effect8"
       is_visible="true"
       lpeversion="1.2"
       lpesatellites=""
       mode="free"
       discard_orig_path="false"
       fuse_paths="true"
       oposite_fuse="false"
       split_items="false"
       split_open="false"
       link_styles="false" /><linearGradient
       id="swatch61"
       inkscape:swatch="solid"><stop
         style="stop-color:#5090d0;stop-opacity:1;"
         offset="0"
         id="stop61" /></linearGradient><linearGradient
       id="swatch30"
       inkscape:swatch="solid"><stop
         style="stop-color:#f9f9f9;stop-opacity:1;"
         offset="0"
         id="stop30" /></linearGradient><inkscape:perspective
       sodipodi:type="inkscape:persp3d"
       inkscape:vp_x="44.06818 : 315.96746 : 1"
       inkscape:vp_y="0 : 1000 : 0"
       inkscape:vp_z="480.74134 : 298.68846 : 1"
       inkscape:persp3d-origin="250 : 166.66667 : 1"
       id="perspective17" /><inkscape:perspective
       sodipodi:type="inkscape:persp3d"
       inkscape:vp_x="44.06818 : 315.96746 : 1"
       inkscape:vp_y="0 : 1000 : 0"
       inkscape:vp_z="480.74134 : 298.68846 : 1"
       inkscape:persp3d-origin="250 : 166.66667 : 1"
       id="perspective17-4" /><inkscape:perspective
       sodipodi:type="inkscape:persp3d"
       inkscape:vp_x="44.06818 : 315.96746 : 1"
       inkscape:vp_y="0 : 1000 : 0"
       inkscape:vp_z="480.74134 : 298.68846 : 1"
       inkscape:persp3d-origin="250 : 166.66667 : 1"
       id="perspective17-1" /><inkscape:perspective
       sodipodi:type="inkscape:persp3d"
       inkscape:vp_x="44.06818 : 315.96746 : 1"
       inkscape:vp_y="0 : 1000 : 0"
       inkscape:vp_z="480.74134 : 298.68846 : 1"
       inkscape:persp3d-origin="250 : 166.66667 : 1"
       id="perspective17-3" /><linearGradient
       inkscape:collect="always"
       xlink:href="#linearGradient8"
       id="linearGradient6"
       x1="-4.6159453"
       y1="74.183525"
       x2="579.86371"
       y2="411.63303"
       gradientUnits="userSpaceOnUse" /><linearGradient
       inkscape:collect="always"
       xlink:href="#linearGradient8"
       id="linearGradient9"
       x1="149.93164"
       y1="166.667"
       x2="353.41211"
       y2="166.667"
       gradientUnits="userSpaceOnUse" /></defs><g
     inkscape:label="Layer 1"
     inkscape:groupmode="layer"
     id="layer1"><path
       id="path4"
       style="opacity:0.27676;color:#000000;fill:url(#linearGradient6);stroke-linejoin:round;-inkscape-stroke:none;paint-order:markers fill stroke"
       d="M 307.18359 29.621094 C 295.21385 29.621094 284.12891 38.859174 284.12891 51.433594 L 284.12891 83.792969 L 51.087891 83.792969 C 45.434552 83.792969 40.095402 85.480588 35.746094 88.849609 C 31.396785 92.218632 27.925781 97.796281 27.925781 104.2207 L 27.925781 445.9043 C 27.925781 452.32872 31.398352 457.90508 35.748047 461.27344 C 40.097742 464.64178 45.435619 466.32813 51.087891 466.32812 L 450.55664 466.32812 C 456.20891 466.32813 461.5468 464.64178 465.89648 461.27344 C 470.24618 457.90508 473.71875 452.32872 473.71875 445.9043 L 473.71875 104.2207 C 473.71875 101.65541 473.05759 99.35709 472.17188 97.244141 L 472.17188 51.433594 C 472.17188 38.856774 461.08499 29.621094 449.11523 29.621094 L 307.18359 29.621094 z " /><path
       style="display:inline;fill:none;stroke:#eea240;stroke-width:50;stroke-linecap:round;stroke-linejoin:bevel;stroke-opacity:1;paint-order:markers fill stroke"
       d="M 43.979119,450.13181 V 98.591456"
       id="path1" /><path
       id="path7"
       style="color:#000000;opacity:1;fill:url(#linearGradient9);stroke:none;stroke-width:0.857844;stroke-linecap:round;stroke-linejoin:round;stroke-miterlimit:10;stroke-opacity:1;-inkscape-stroke:none"
       d="m 251.67187,16.261719 c -13.00114,1.957474 -27.0613,12.523681 -26.93945,25.33789 l 2.0957,220.302731 c -43.44428,11.11429 -76.89648,50.3851 -76.89648,97.38868 v 70.47851 c 0,9.41455 13.85983,16.05245 34.30273,20.1543 0,-2.25784 0.0918,-83.17829 0.0918,-85.16016 0,-1.68435 12.55664,-1.78048 12.55664,0.1836 0,1.38077 0.8125,86.15992 0.8125,87.19726 14.55406,1.95088 27.90079,2.89405 44.69336,2.89063 -2.3e-4,-1.06911 0.11328,-92.12186 0.11328,-93.57032 0.54021,-0.003 6.33662,-0.0396 9.16992,-0.0586 2.83331,0.019 8.62972,0.0555 9.16993,0.0586 0,1.44846 0.11351,92.50121 0.11328,93.57032 16.79257,0.003 30.1393,-0.93975 44.69336,-2.89063 0,-1.03734 0.8125,-85.81649 0.8125,-87.19726 0,-1.96408 12.55664,-1.86795 12.55664,-0.1836 0,1.98187 0.0918,82.90232 0.0918,85.16016 20.44291,-4.10185 34.30274,-10.73975 34.30274,-20.1543 v -70.47851 c 0,-47.00358 -33.4522,-86.27439 -76.89649,-97.38868 L 278.61133,41.599609 C 278.73318,28.7854 264.67302,18.219193 251.67187,16.261719 Z"
       inkscape:path-effect="#path-effect8"
       inkscape:original-d="m 254.97798,15.95209 c -13.79624,0.47439 -30.3769,11.735999 -30.24462,25.647192 l 2.09476,220.303058 c -43.44433,11.1143 -76.89735,50.38506 -76.89735,97.38868 v 70.47851 c 0,9.41456 13.86061,16.05236 34.30354,20.15421 0,-2.25784 0.0912,-83.17909 0.0912,-85.16096 0,-1.68435 12.5567,-1.78043 12.5567,0.18365 0,1.38078 0.81346,86.16133 0.81346,87.19867 14.55407,1.95088 27.90129,2.89349 44.69388,2.89007 -2.3e-4,-1.06911 0.11185,-92.12189 0.11185,-93.57035 0.69089,-0.004 9.98019,-0.0619 10.67125,-0.069 z"
       sodipodi:nodetypes="cscsscssccccc"
       transform="matrix(0.90793046,0.66933764,-0.66933764,0.90793046,250.0948,-148.89776)" /></g></svg>
