<?xml version="1.0" encoding="UTF-8" standalone="no"?>
<!-- Created with Inkscape (http://www.inkscape.org/) -->

<svg
   width="500"
   height="500"
   viewBox="0 0 500 500"
   version="1.1"
   id="svg1"
   inkscape:version="1.3.2 (091e20ef0f, 2023-11-25, custom)"
   sodipodi:docname="folder.shared.svg"
   xml:space="preserve"
   xmlns:inkscape="http://www.inkscape.org/namespaces/inkscape"
   xmlns:sodipodi="http://sodipodi.sourceforge.net/DTD/sodipodi-0.dtd"
   xmlns="http://www.w3.org/2000/svg"
   xmlns:svg="http://www.w3.org/2000/svg"><sodipodi:namedview
     id="namedview1"
     pagecolor="#505050"
     bordercolor="#eeeeee"
     borderopacity="1"
     inkscape:showpageshadow="0"
     inkscape:pageopacity="0"
     inkscape:pagecheckerboard="0"
     inkscape:deskcolor="#505050"
     inkscape:document-units="px"
     inkscape:zoom="0.68158229"
     inkscape:cx="404.20651"
     inkscape:cy="226.67842"
     inkscape:window-width="1352"
     inkscape:window-height="734"
     inkscape:window-x="4"
     inkscape:window-y="24"
     inkscape:window-maximized="1"
     inkscape:current-layer="layer1"
     showguides="false"
     showgrid="false"><sodipodi:guide
       position="250.02518,350.60736"
       orientation="-0.99997769,0.0066803918"
       id="guide30"
       inkscape:locked="false" /><sodipodi:guide
       position="66.396728,247.89992"
       orientation="0,-1"
       id="guide53"
       inkscape:locked="false" /></sodipodi:namedview><defs
     id="defs1"><inkscape:path-effect
       effect="copy_rotate"
       starting_point="411.55479,262.76755"
       origin="281.55315,262.76755"
       id="path-effect1"
       is_visible="true"
       lpeversion="1.2"
       lpesatellites=""
       method="normal"
       num_copies="3"
       starting_angle="0"
       rotation_angle="120"
       gap="-0.01"
       copies_to_360="true"
       mirror_copies="false"
       split_items="false"
       link_styles="false" /><linearGradient
       id="swatch61"
       inkscape:swatch="solid"><stop
         style="stop-color:#5090d0;stop-opacity:1;"
         offset="0"
         id="stop61" /></linearGradient><linearGradient
       id="swatch30"
       inkscape:swatch="solid"><stop
         style="stop-color:#f9f9f9;stop-opacity:1;"
         offset="0"
         id="stop30" /></linearGradient><inkscape:perspective
       sodipodi:type="inkscape:persp3d"
       inkscape:vp_x="44.06818 : 315.96746 : 1"
       inkscape:vp_y="0 : 1000 : 0"
       inkscape:vp_z="480.74134 : 298.68846 : 1"
       inkscape:persp3d-origin="250 : 166.66667 : 1"
       id="perspective17" /><inkscape:perspective
       sodipodi:type="inkscape:persp3d"
       inkscape:vp_x="44.06818 : 315.96746 : 1"
       inkscape:vp_y="0 : 1000 : 0"
       inkscape:vp_z="480.74134 : 298.68846 : 1"
       inkscape:persp3d-origin="250 : 166.66667 : 1"
       id="perspective17-2" /><inkscape:path-effect
       effect="mirror_symmetry"
       start_point="216.08168,129.12038"
       end_point="216.08168,402.69369"
       center_point="216.08168,265.90704"
       id="path-effect2"
       is_visible="true"
       lpeversion="1.2"
       lpesatellites=""
       mode="free"
       discard_orig_path="false"
       fuse_paths="true"
       oposite_fuse="false"
       split_items="false"
       split_open="false"
       link_styles="false" /><inkscape:perspective
       sodipodi:type="inkscape:persp3d"
       inkscape:vp_x="44.06818 : 315.96746 : 1"
       inkscape:vp_y="0 : 1000 : 0"
       inkscape:vp_z="480.74134 : 298.68846 : 1"
       inkscape:persp3d-origin="250 : 166.66667 : 1"
       id="perspective17-8" /><inkscape:perspective
       sodipodi:type="inkscape:persp3d"
       inkscape:vp_x="44.06818 : 315.96746 : 1"
       inkscape:vp_y="0 : 1000 : 0"
       inkscape:vp_z="480.74134 : 298.68846 : 1"
       inkscape:persp3d-origin="250 : 166.66667 : 1"
       id="perspective17-6" /><inkscape:perspective
       sodipodi:type="inkscape:persp3d"
       inkscape:vp_x="44.06818 : 315.96746 : 1"
       inkscape:vp_y="0 : 1000 : 0"
       inkscape:vp_z="480.74134 : 298.68846 : 1"
       inkscape:persp3d-origin="250 : 166.66667 : 1"
       id="perspective17-7" /></defs><g
     inkscape:label="Layer 1"
     inkscape:groupmode="layer"
     id="layer1"><path
       id="path1"
       style="opacity:0.24471454;color:#000000;fill:#53e271;stroke-linejoin:round;-inkscape-stroke:none;paint-order:markers fill stroke"
       d="M 307.1844 29.620129 C 295.21465 29.620129 284.12971 38.858209 284.12971 51.432629 L 284.12971 83.792004 L 51.088697 83.792004 C 45.435358 83.792004 40.096209 85.479623 35.7469 88.848645 C 31.397591 92.217667 27.926587 97.795316 27.926587 104.21974 L 27.926587 445.90333 C 27.926587 452.32776 31.399158 457.90412 35.748853 461.27247 C 40.098548 464.64082 45.436425 466.32717 51.088697 466.32716 L 450.55745 466.32716 C 456.20972 466.32717 461.5476 464.64082 465.89729 461.27247 C 470.24699 457.90412 473.71956 452.32776 473.71956 445.90333 L 473.71956 104.21974 C 473.71956 101.65444 473.0584 99.356125 472.17268 97.243176 L 472.17268 51.432629 C 472.17268 38.85581 461.0858 29.620129 449.11604 29.620129 L 307.1844 29.620129 z "
       transform="translate(-2.0242436,-6.0009883)" /><path
       style="fill:none;stroke:#53e271;stroke-width:50;stroke-linecap:round;stroke-linejoin:bevel;stroke-opacity:1;paint-order:markers fill stroke"
       d="M 43.979119,450.13181 V 98.591456"
       id="path1-7"
       transform="translate(-2.0242436,-6.0009883)" /><path
       id="path11"
       style="fill:#53e271;fill-opacity:1;stroke:none;stroke-width:53.0906;stroke-linecap:butt;stroke-linejoin:round;stroke-miterlimit:10;stroke-dasharray:none;stroke-opacity:1"
       d="M 278.88808,48.508147 C 187.65592,44.214526 146.16257,122.83905 146.16257,122.83905 l 45.21306,18.6822 c 0,0 11.7958,-42.962293 81.92141,-43.728773 70.12561,-0.76648 77.72409,55.584483 77.72409,55.584483 l -36.88858,16.22523 85.29946,51.49562 36.39479,-89.1634 -39.45446,6.32474 c 0,0 -26.2521,-85.457382 -117.48426,-89.751003 z M 97.331597,372.20527 c 41.897693,81.15618 130.735213,77.77821 130.735213,77.77821 l -6.42728,-48.49676 c 0,0 -43.10433,11.26569 -78.83093,-49.08163 -35.7266,-60.34732 9.27553,-95.10328 9.27553,-95.10328 l 32.49575,23.83383 1.94679,-99.61931 -95.415168,13.06289 25.204618,31.00619 c 0,0 -60.882218,65.46368 -18.984523,146.61986 z m 371.108173,-4.61603 c 49.33446,-76.86256 1.9903,-152.10913 1.9903,-152.10913 l -38.78578,29.81457 c 0,0 31.30853,31.69661 -3.09048,92.81041 -34.39901,61.1138 -86.99962,39.51879 -86.99962,39.51879 l 4.39282,-40.05906 -87.24624,48.12368 59.02038,76.10052 14.24984,-37.33093 c 0,0 87.13431,19.9937 136.46878,-56.86885 z"
       sodipodi:nodetypes="zcczcccccz"
       inkscape:path-effect="#path-effect1"
       inkscape:original-d="M 278.88808,48.508147 C 187.65592,44.214526 146.16257,122.83905 146.16257,122.83905 l 45.21306,18.6822 c 0,0 11.7958,-42.962293 81.92141,-43.728773 70.12561,-0.76648 77.72409,55.584483 77.72409,55.584483 l -36.88858,16.22523 85.29946,51.49562 36.39479,-89.1634 -39.45446,6.32474 c 0,0 -26.2521,-85.457382 -117.48426,-89.751003 z" /></g></svg>
