<?xml version="1.0" encoding="UTF-8" standalone="no"?>
<!-- Created with Inkscape (http://www.inkscape.org/) -->

<svg
   width="500"
   height="500"
   viewBox="0 0 500 500"
   version="1.1"
   id="svg1"
   inkscape:version="1.3.2 (091e20ef0f, 2023-11-25, custom)"
   sodipodi:docname="folder.redux.svg"
   xml:space="preserve"
   xmlns:inkscape="http://www.inkscape.org/namespaces/inkscape"
   xmlns:sodipodi="http://sodipodi.sourceforge.net/DTD/sodipodi-0.dtd"
   xmlns:xlink="http://www.w3.org/1999/xlink"
   xmlns="http://www.w3.org/2000/svg"
   xmlns:svg="http://www.w3.org/2000/svg"><sodipodi:namedview
     id="namedview1"
     pagecolor="#505050"
     bordercolor="#eeeeee"
     borderopacity="1"
     inkscape:showpageshadow="0"
     inkscape:pageopacity="0"
     inkscape:pagecheckerboard="0"
     inkscape:deskcolor="#505050"
     inkscape:document-units="px"
     inkscape:zoom="0.96390292"
     inkscape:cx="280.1112"
     inkscape:cy="234.98217"
     inkscape:window-width="1352"
     inkscape:window-height="734"
     inkscape:window-x="4"
     inkscape:window-y="24"
     inkscape:window-maximized="1"
     inkscape:current-layer="svg1"
     showguides="true"
     showgrid="false"><sodipodi:guide
       position="250.02518,350.60736"
       orientation="-0.99997769,0.0066803918"
       id="guide30"
       inkscape:locked="false" /><sodipodi:guide
       position="66.396728,247.89992"
       orientation="0,-1"
       id="guide53"
       inkscape:locked="false" /></sodipodi:namedview><defs
     id="defs1"><linearGradient
       id="linearGradient5"
       inkscape:collect="always"><stop
         style="stop-color:#9c50e0;stop-opacity:1;"
         offset="0"
         id="stop5" /><stop
         style="stop-color:#864abc;stop-opacity:1;"
         offset="1"
         id="stop6" /></linearGradient><linearGradient
       id="linearGradient3"
       inkscape:collect="always"><stop
         style="stop-color:#8b4abc;stop-opacity:1;"
         offset="0"
         id="stop3" /><stop
         style="stop-color:#bb4abc;stop-opacity:1;"
         offset="1"
         id="stop4" /></linearGradient><linearGradient
       id="linearGradient1"
       inkscape:collect="always"><stop
         style="stop-color:#7d37e6;stop-opacity:1;"
         offset="0"
         id="stop1" /><stop
         style="stop-color:#a23bc0;stop-opacity:1;"
         offset="1"
         id="stop2" /></linearGradient><linearGradient
       id="swatch61"
       inkscape:swatch="solid"><stop
         style="stop-color:#5090d0;stop-opacity:1;"
         offset="0"
         id="stop61" /></linearGradient><linearGradient
       id="swatch30"
       inkscape:swatch="solid"><stop
         style="stop-color:#f9f9f9;stop-opacity:1;"
         offset="0"
         id="stop30" /></linearGradient><inkscape:perspective
       sodipodi:type="inkscape:persp3d"
       inkscape:vp_x="44.06818 : 315.96746 : 1"
       inkscape:vp_y="0 : 1000 : 0"
       inkscape:vp_z="480.74134 : 298.68846 : 1"
       inkscape:persp3d-origin="250 : 166.66667 : 1"
       id="perspective17" /><inkscape:perspective
       sodipodi:type="inkscape:persp3d"
       inkscape:vp_x="44.06818 : 315.96746 : 1"
       inkscape:vp_y="0 : 1000 : 0"
       inkscape:vp_z="480.74134 : 298.68846 : 1"
       inkscape:persp3d-origin="250 : 166.66667 : 1"
       id="perspective17-8" /><inkscape:perspective
       sodipodi:type="inkscape:persp3d"
       inkscape:vp_x="44.06818 : 315.96746 : 1"
       inkscape:vp_y="0 : 1000 : 0"
       inkscape:vp_z="480.74134 : 298.68846 : 1"
       inkscape:persp3d-origin="250 : 166.66667 : 1"
       id="perspective17-5" /><inkscape:perspective
       sodipodi:type="inkscape:persp3d"
       inkscape:vp_x="44.06818 : 315.96746 : 1"
       inkscape:vp_y="0 : 1000 : 0"
       inkscape:vp_z="480.74134 : 298.68846 : 1"
       inkscape:persp3d-origin="250 : 166.66667 : 1"
       id="perspective17-2" /><inkscape:perspective
       sodipodi:type="inkscape:persp3d"
       inkscape:vp_x="44.06818 : 315.96746 : 1"
       inkscape:vp_y="0 : 1000 : 0"
       inkscape:vp_z="480.74134 : 298.68846 : 1"
       inkscape:persp3d-origin="250 : 166.66667 : 1"
       id="perspective17-29" /><inkscape:perspective
       sodipodi:type="inkscape:persp3d"
       inkscape:vp_x="44.06818 : 315.96746 : 1"
       inkscape:vp_y="0 : 1000 : 0"
       inkscape:vp_z="480.74134 : 298.68846 : 1"
       inkscape:persp3d-origin="250 : 166.66667 : 1"
       id="perspective17-2-1" /><linearGradient
       inkscape:collect="always"
       xlink:href="#linearGradient1"
       id="linearGradient2"
       x1="1.379305"
       y1="3.4374249"
       x2="39.659168"
       y2="33.052685"
       gradientUnits="userSpaceOnUse" /><linearGradient
       inkscape:collect="always"
       xlink:href="#linearGradient3"
       id="linearGradient4"
       x1="-4.7369084"
       y1="-0.24198614"
       x2="39.273792"
       y2="31.395863"
       gradientUnits="userSpaceOnUse" /><linearGradient
       inkscape:collect="always"
       xlink:href="#linearGradient5"
       id="linearGradient6"
       x1="-62.854015"
       y1="86.813957"
       x2="142.22412"
       y2="465.76407"
       gradientUnits="userSpaceOnUse" /></defs><g
     inkscape:label="Layer 1"
     id="layer1"
     transform="translate(4.2569577,-0.2428526)"><path
       id="rect53-0-5"
       style="opacity:0.30742436;fill:#7548be;fill-opacity:1;fill-rule:nonzero;stroke:#764abc;stroke-width:22.162;stroke-linecap:butt;stroke-linejoin:bevel;stroke-miterlimit:10;stroke-dasharray:none;stroke-opacity:1;paint-order:normal"
       d="m 463.85552,42.423164 c -19.06075,2.91543 -158.1781,0 -167.5275,0 V 96.595326 L 40.124908,96.595166 V 457.07016 c 59.556727,0 399.686272,0 423.730462,0 z"
       sodipodi:nodetypes="ccccccc" /><path
       style="fill:none;stroke:url(#linearGradient6);stroke-width:50;stroke-linecap:round;stroke-linejoin:bevel;stroke-opacity:1;paint-order:markers fill stroke"
       d="M 43.979119,450.13181 V 98.591456"
       id="path1" /></g><g
     style="fill:none;stroke:url(#linearGradient4);stroke-opacity:1;stroke-width:0.99998296;stroke-dasharray:none;paint-order:stroke markers fill"
     id="g1"
     transform="matrix(12.675216,0,0,12.675216,87.191623,64.411623)"><path
       d="m 21.7868,21.556 c 1.1071,-0.1127 1.947,-1.051 1.9088,-2.1771 -0.0381,-1.1259 -0.9926,-2.0267 -2.1379,-2.0267 h -0.0763 c -1.1836,0.0375 -2.0997,1.0134 -2.0615,2.1769 0.0382,0.563 0.2672,1.0509 0.6108,1.3887 -1.298,2.5148 -3.2832,4.3539 -6.2609,5.8928 -2.0234,1.0509 -4.123,1.4263 -6.22265,1.1636 C 5.82918,27.749 4.49301,26.9984 3.65301,25.7596 2.43144,23.9205 2.31695,21.9312 3.34773,19.942 4.07312,18.5157 5.21828,17.4647 5.94367,16.9392 5.79098,16.4513 5.56187,15.6256 5.44738,15.0251 c -5.5355844,3.941 -4.962889,9.2708 -3.28312,11.7855 1.25976,1.8767 3.81761,3.0403 6.64265,3.0403 0.76348,0 1.52699,-0.0752 2.29059,-0.2627 4.8866,-0.9384 8.5897,-3.791 10.6893,-8.0322 z m 6.7191,-4.6542 C 25.6045,13.5613 21.3287,11.7222 16.4421,11.7222 h -0.6107 c -0.3436,-0.6756 -1.069,-1.1261 -1.8707,-1.1261 h -0.0764 c -1.1834,0.0376 -2.0995,1.0134 -2.0614,2.177 0.0382,1.126 0.9925,2.0268 2.1378,2.0268 h 0.0763 c 0.8399,-0.0375 1.5653,-0.563 1.8707,-1.2762 h 0.6871 c 2.9015,0 5.6501,0.8257 8.1317,2.4397 1.9087,1.2386 3.2831,2.8526 4.0466,4.8043 0.649,1.5764 0.6108,3.1153 -0.0764,4.429 -1.0689,1.9892 -2.8631,3.0777 -5.2301,3.0777 -1.5271,0 -2.9777,-0.4504 -3.7413,-0.7882 -0.4199,0.3753 -1.1835,0.9758 -1.718,1.3513 1.6417,0.7506 3.3214,1.1635 4.9248,1.1635 3.6649,0 6.3755,-1.9894 7.4063,-3.9786 1.107,-2.177 1.0306,-5.9303 -1.8325,-9.1206 z M 9.1123,22.1939 c 0.03821,1.126 0.9926,2.0267 2.1379,2.0267 h 0.0764 C 12.51,24.1832 13.4262,23.2073 13.388,22.0438 13.3499,20.9177 12.3954,20.017 11.2502,20.017 h -0.0763 c -0.0764,0 -0.191,0 -0.2672,0.0374 C 9.3414,17.5022 8.69242,14.7248 8.92152,11.7221 9.0741,9.47006 9.83769,7.51828 11.1739,5.9043 c 1.107,-1.38875 3.2449,-2.06434 4.6957,-2.10178 4.0466,-0.07512 5.7644,4.87927 5.879,6.86858 0.4963,0.1126 1.3362,0.3754 1.9089,0.5631 -0.4582,-6.08038 -4.2758,-9.23322 -7.9406,-9.23322 -3.436,0 -6.6046,2.43969 -7.86448,6.04289 C 6.09637,12.8481 7.24164,17.4647 9.37949,21.1055 9.18871,21.3682 9.0741,21.7811 9.1123,22.194 Z"
       fill="#764abc"
       id="path1-3"
       style="fill:url(#linearGradient2);stroke:none;stroke-opacity:1;stroke-width:0.99998296;stroke-dasharray:none;paint-order:stroke markers fill" /></g></svg>
