<?xml version="1.0" encoding="UTF-8" standalone="no"?>
<!-- Created with Inkscape (http://www.inkscape.org/) -->

<svg
   width="500"
   height="500"
   viewBox="0 0 500 500"
   version="1.1"
   id="svg1"
   inkscape:version="1.3.2 (091e20ef0f, 2023-11-25, custom)"
   sodipodi:docname="folder.font.svg"
   xml:space="preserve"
   xmlns:inkscape="http://www.inkscape.org/namespaces/inkscape"
   xmlns:sodipodi="http://sodipodi.sourceforge.net/DTD/sodipodi-0.dtd"
   xmlns="http://www.w3.org/2000/svg"
   xmlns:svg="http://www.w3.org/2000/svg"><sodipodi:namedview
     id="namedview1"
     pagecolor="#505050"
     bordercolor="#eeeeee"
     borderopacity="1"
     inkscape:showpageshadow="0"
     inkscape:pageopacity="0"
     inkscape:pagecheckerboard="0"
     inkscape:deskcolor="#505050"
     inkscape:document-units="px"
     inkscape:zoom="0.96390292"
     inkscape:cx="279.59247"
     inkscape:cy="234.98217"
     inkscape:window-width="1362"
     inkscape:window-height="744"
     inkscape:window-x="0"
     inkscape:window-y="20"
     inkscape:window-maximized="1"
     inkscape:current-layer="layer1"
     showguides="false"
     showgrid="false"><sodipodi:guide
       position="250.02518,350.60736"
       orientation="-0.99997769,0.0066803918"
       id="guide30"
       inkscape:locked="false" /><sodipodi:guide
       position="66.396728,247.89992"
       orientation="0,-1"
       id="guide53"
       inkscape:locked="false" /></sodipodi:namedview><defs
     id="defs1"><linearGradient
       id="swatch61"
       inkscape:swatch="solid"><stop
         style="stop-color:#5090d0;stop-opacity:1;"
         offset="0"
         id="stop61" /></linearGradient><linearGradient
       id="swatch30"
       inkscape:swatch="solid"><stop
         style="stop-color:#f9f9f9;stop-opacity:1;"
         offset="0"
         id="stop30" /></linearGradient><inkscape:perspective
       sodipodi:type="inkscape:persp3d"
       inkscape:vp_x="44.06818 : 315.96746 : 1"
       inkscape:vp_y="0 : 1000 : 0"
       inkscape:vp_z="480.74134 : 298.68846 : 1"
       inkscape:persp3d-origin="250 : 166.66667 : 1"
       id="perspective17" /><inkscape:perspective
       sodipodi:type="inkscape:persp3d"
       inkscape:vp_x="44.06818 : 315.96746 : 1"
       inkscape:vp_y="0 : 1000 : 0"
       inkscape:vp_z="480.74134 : 298.68846 : 1"
       inkscape:persp3d-origin="250 : 166.66667 : 1"
       id="perspective17-2" /><inkscape:path-effect
       effect="mirror_symmetry"
       start_point="216.08168,129.12038"
       end_point="216.08168,402.69369"
       center_point="216.08168,265.90704"
       id="path-effect2"
       is_visible="true"
       lpeversion="1.2"
       lpesatellites=""
       mode="free"
       discard_orig_path="false"
       fuse_paths="true"
       oposite_fuse="false"
       split_items="false"
       split_open="false"
       link_styles="false" /><inkscape:perspective
       sodipodi:type="inkscape:persp3d"
       inkscape:vp_x="44.06818 : 315.96746 : 1"
       inkscape:vp_y="0 : 1000 : 0"
       inkscape:vp_z="480.74134 : 298.68846 : 1"
       inkscape:persp3d-origin="250 : 166.66667 : 1"
       id="perspective17-8" /><inkscape:perspective
       sodipodi:type="inkscape:persp3d"
       inkscape:vp_x="44.06818 : 315.96746 : 1"
       inkscape:vp_y="0 : 1000 : 0"
       inkscape:vp_z="480.74134 : 298.68846 : 1"
       inkscape:persp3d-origin="250 : 166.66667 : 1"
       id="perspective17-6" /><inkscape:perspective
       sodipodi:type="inkscape:persp3d"
       inkscape:vp_x="44.06818 : 315.96746 : 1"
       inkscape:vp_y="0 : 1000 : 0"
       inkscape:vp_z="480.74134 : 298.68846 : 1"
       inkscape:persp3d-origin="250 : 166.66667 : 1"
       id="perspective17-7" /></defs><g
     inkscape:label="Layer 1"
     inkscape:groupmode="layer"
     id="layer1"><path
       id="rect53-0"
       style="display:inline;opacity:0.271066;fill:none;fill-opacity:0.313725;fill-rule:nonzero;stroke:#f6890c;stroke-width:22.0622;stroke-linecap:butt;stroke-linejoin:round;stroke-dasharray:none;stroke-opacity:1;paint-order:markers fill stroke"
       d="m 462.68749,104.21979 c 0,-1.64895 -0.59137,-3.17324 -1.54688,-4.517583 v -48.26953 c 0,-5.97292 -5.36366,-10.78125 -12.02538,-10.78125 H 307.18359 c -6.66173,0 -12.02344,4.80833 -12.02344,10.78125 v 43.39063 H 51.087889 c -6.7206,0 -12.13086,4.19106 -12.13086,9.396483 v 341.68359 c 0,5.20542 5.41026,9.39453 12.13086,9.39453 H 450.55663 c 6.7206,0 12.13086,-4.18911 12.13086,-9.39453 z"
       transform="translate(-2.0242436,-6.0009883)" /><path
       style="fill:none;stroke:#f6890c;stroke-width:50;stroke-linecap:round;stroke-linejoin:bevel;stroke-opacity:1;paint-order:markers fill stroke"
       d="M 43.979119,450.13181 V 98.591456"
       id="path1-7"
       transform="translate(-2.0242436,-6.0009883)" /><path
       id="rect5"
       style="fill:#f6890c;fill-opacity:1;stroke:none;stroke-width:28.7152;stroke-linecap:round;stroke-miterlimit:10;stroke-dasharray:none;stroke-opacity:1"
       d="m 151.2191,76.867479 c -18.8769,0 -34.07361,15.198307 -34.07361,34.075211 v 312.30612 c 0,18.87689 15.19671,34.0736 34.07361,34.0736 h 308.03089 c 18.8769,0 34.0736,-15.19671 34.0736,-34.0736 V 110.94269 c 0,-18.876904 -15.1967,-34.075211 -34.0736,-34.075211 z m 138.10192,45.344951 c 7.59061,0 13.81184,1.43082 18.66485,4.29285 4.85302,2.73759 9.08403,5.53779 12.69268,8.39982 3.73309,2.73759 7.71512,4.10697 11.94595,4.10697 4.1064,0 7.59048,-1.30633 10.45251,-3.91949 2.86203,-2.73759 5.84816,-6.78268 8.95906,-12.13343 l 29.6782,14.55948 c -4.85301,12.44361 -11.44771,22.83442 -19.78493,31.17163 -8.21278,8.33723 -17.85666,12.5052 -28.93148,12.5052 -7.21729,0 -13.2526,-1.36938 -18.10561,-4.10697 -4.72857,-2.86203 -8.95958,-5.66063 -12.69267,-8.39823 -3.73308,-2.86203 -7.65208,-4.29285 -11.75847,-4.29285 -4.60414,0 -8.3372,1.36778 -11.19923,4.10538 -2.73759,2.73759 -5.60084,6.84412 -8.5873,12.31931 l -29.67821,-14.55948 c 4.72858,-11.82143 11.13735,-22.08615 19.2257,-30.79668 8.08835,-8.83496 17.79527,-13.25351 29.11895,-13.25351 z m 53.75599,91.08727 c 16.92332,0 30.23881,5.16388 39.94483,15.49208 9.70601,10.3282 14.55787,24.88859 14.55787,43.67844 V 418.06021 H 338.59668 V 289.45575 c 0,-12.19474 -1.36778,-20.65678 -4.10538,-25.38535 -2.61315,-4.85301 -7.5911,-7.27974 -14.93284,-7.27974 -6.2218,0 -12.19406,1.99022 -17.91812,5.97217 -5.59963,3.98196 -11.20002,9.51931 -16.79964,16.61217 V 418.06021 H 225.85766 V 219.83272 h 51.51742 l 4.10536,22.95931 c 8.83497,-9.9549 18.16842,-17.35958 27.99888,-22.21258 9.83045,-4.85301 21.02964,-7.27975 33.59769,-7.27975 z" /></g></svg>
