<?xml version="1.0" encoding="UTF-8" standalone="no"?>
<!-- Created with Inkscape (http://www.inkscape.org/) -->

<svg
   width="500"
   height="500"
   viewBox="0 0 500 500"
   version="1.1"
   id="svg1"
   inkscape:version="1.3.2 (091e20ef0f, 2023-11-25, custom)"
   sodipodi:docname="folder.vscode.svg"
   xml:space="preserve"
   xmlns:inkscape="http://www.inkscape.org/namespaces/inkscape"
   xmlns:sodipodi="http://sodipodi.sourceforge.net/DTD/sodipodi-0.dtd"
   xmlns:xlink="http://www.w3.org/1999/xlink"
   xmlns="http://www.w3.org/2000/svg"
   xmlns:svg="http://www.w3.org/2000/svg"><sodipodi:namedview
     id="namedview1"
     pagecolor="#505050"
     bordercolor="#eeeeee"
     borderopacity="1"
     inkscape:showpageshadow="0"
     inkscape:pageopacity="0"
     inkscape:pagecheckerboard="0"
     inkscape:deskcolor="#505050"
     inkscape:document-units="px"
     inkscape:zoom="0.96390292"
     inkscape:cx="279.59247"
     inkscape:cy="231.86982"
     inkscape:window-width="1352"
     inkscape:window-height="734"
     inkscape:window-x="4"
     inkscape:window-y="24"
     inkscape:window-maximized="0"
     inkscape:current-layer="layer1"
     showguides="true"><sodipodi:guide
       position="250.02518,350.60736"
       orientation="-0.99997769,0.0066803918"
       id="guide30"
       inkscape:locked="false" /><sodipodi:guide
       position="66.396728,247.89992"
       orientation="0,-1"
       id="guide53"
       inkscape:locked="false" /></sodipodi:namedview><defs
     id="defs1"><linearGradient
       id="linearGradient1"
       inkscape:collect="always"><stop
         style="stop-color:#23a8f2;stop-opacity:1;"
         offset="0"
         id="stop1" /><stop
         style="stop-color:#2338f2;stop-opacity:1;"
         offset="1"
         id="stop2" /></linearGradient><linearGradient
       id="swatch61"
       inkscape:swatch="solid"><stop
         style="stop-color:#5090d0;stop-opacity:1;"
         offset="0"
         id="stop61" /></linearGradient><linearGradient
       id="swatch30"
       inkscape:swatch="solid"><stop
         style="stop-color:#f9f9f9;stop-opacity:1;"
         offset="0"
         id="stop30" /></linearGradient><inkscape:perspective
       sodipodi:type="inkscape:persp3d"
       inkscape:vp_x="44.06818 : 315.96746 : 1"
       inkscape:vp_y="0 : 1000 : 0"
       inkscape:vp_z="480.74134 : 298.68846 : 1"
       inkscape:persp3d-origin="250 : 166.66667 : 1"
       id="perspective17" /><linearGradient
       inkscape:collect="always"
       xlink:href="#linearGradient1"
       id="linearGradient2"
       x1="-7.6419449"
       y1="3.8958092"
       x2="40.157871"
       y2="29.457983"
       gradientUnits="userSpaceOnUse" /><linearGradient
       inkscape:collect="always"
       xlink:href="#linearGradient1"
       id="linearGradient5"
       x1="27.925781"
       y1="247.97461"
       x2="473.71875"
       y2="247.97461"
       gradientUnits="userSpaceOnUse" /></defs><g
     inkscape:label="Layer 1"
     inkscape:groupmode="layer"
     id="layer1"><path
       id="path3"
       style="opacity:0.155677;color:#000000;fill:url(#linearGradient5);stroke-linejoin:round;-inkscape-stroke:none;paint-order:markers fill stroke"
       d="M 307.18359 29.621094 C 295.21385 29.621094 284.12891 38.859174 284.12891 51.433594 L 284.12891 83.792969 L 51.087891 83.792969 C 45.434552 83.792969 40.095402 85.480588 35.746094 88.849609 C 31.396785 92.218632 27.925781 97.796281 27.925781 104.2207 L 27.925781 445.9043 C 27.925781 452.32872 31.398352 457.90508 35.748047 461.27344 C 40.097742 464.64178 45.435619 466.32813 51.087891 466.32812 L 450.55664 466.32812 C 456.20891 466.32813 461.5468 464.64178 465.89648 461.27344 C 470.24618 457.90508 473.71875 452.32872 473.71875 445.9043 L 473.71875 104.2207 C 473.71875 101.65541 473.05759 99.35709 472.17188 97.244141 L 472.17188 51.433594 C 472.17188 38.856774 461.08499 29.621094 449.11523 29.621094 L 307.18359 29.621094 z " /><g
       style="fill:url(#linearGradient2);fill-opacity:1"
       id="g1"
       transform="matrix(12.898898,0,0,12.898898,85.154768,66.649081)"><path
         d="M 30.865,3.448 24.282,0.281 C 23.516,-0.089 22.605,0.067 22.006,0.666 L 9.397,12.171 3.902,8.004 C 3.392,7.613 2.673,7.645 2.199,8.077 l -1.76,1.604 c -0.583,0.526 -0.583,1.443 -0.005,1.969 L 5.2,15.999 0.434,20.348 c -0.578,0.526 -0.578,1.443 0.005,1.969 l 1.76,1.604 c 0.479,0.432 1.193,0.464 1.703,0.073 l 5.495,-4.172 12.615,11.51 c 0.594,0.599 1.505,0.755 2.271,0.385 l 6.589,-3.172 c 0.693,-0.333 1.13,-1.031 1.13,-1.802 V 5.248 c 0,-0.766 -0.443,-1.469 -1.135,-1.802 z M 24.005,23.266 14.432,16 24.005,8.734 Z"
         id="path1"
         style="fill:url(#linearGradient2);fill-opacity:1" /></g><path
       style="fill:none;stroke:#23a8f2;stroke-width:50;stroke-linejoin:bevel;paint-order:markers fill stroke;stroke-dasharray:none;stroke-linecap:round;stroke-opacity:1"
       d="M 38.291862,456.3779 V 99.481558"
       id="path2" /></g></svg>
