<?xml version="1.0" encoding="UTF-8" standalone="no"?>
<!-- Created with Inkscape (http://www.inkscape.org/) -->

<svg
   width="500"
   height="500"
   viewBox="0 0 500 500"
   version="1.1"
   id="svg1"
   inkscape:version="1.3.2 (091e20ef0f, 2023-11-25, custom)"
   sodipodi:docname="folder.migrations.svg"
   xml:space="preserve"
   xmlns:inkscape="http://www.inkscape.org/namespaces/inkscape"
   xmlns:sodipodi="http://sodipodi.sourceforge.net/DTD/sodipodi-0.dtd"
   xmlns:xlink="http://www.w3.org/1999/xlink"
   xmlns="http://www.w3.org/2000/svg"
   xmlns:svg="http://www.w3.org/2000/svg"><sodipodi:namedview
     id="namedview1"
     pagecolor="#505050"
     bordercolor="#eeeeee"
     borderopacity="1"
     inkscape:showpageshadow="0"
     inkscape:pageopacity="0"
     inkscape:pagecheckerboard="0"
     inkscape:deskcolor="#505050"
     inkscape:document-units="px"
     inkscape:zoom="0.77982683"
     inkscape:cx="306.4783"
     inkscape:cy="317.37815"
     inkscape:window-width="1362"
     inkscape:window-height="744"
     inkscape:window-x="0"
     inkscape:window-y="20"
     inkscape:window-maximized="1"
     inkscape:current-layer="svg1"
     showguides="true"><sodipodi:guide
       position="271.7988,443.58608"
       orientation="-0.99997769,0.0066803918"
       id="guide30"
       inkscape:locked="false" /><sodipodi:guide
       position="212.40183,247.89992"
       orientation="0,-1"
       id="guide53"
       inkscape:locked="false" /></sodipodi:namedview><defs
     id="defs1"><linearGradient
       id="linearGradient26"
       inkscape:collect="always"><stop
         style="stop-color:#ffe04e;stop-opacity:1;"
         offset="0"
         id="stop25" /><stop
         style="stop-color:#ff59a2;stop-opacity:1;"
         offset="1"
         id="stop26" /></linearGradient><linearGradient
       id="linearGradient24"
       inkscape:collect="always"><stop
         style="stop-color:#ffdb65;stop-opacity:1;"
         offset="0.00069833"
         id="stop23" /><stop
         style="stop-color:#ff4949;stop-opacity:1;"
         offset="1"
         id="stop24" /></linearGradient><linearGradient
       id="linearGradient20"
       inkscape:collect="always"><stop
         style="stop-color:#ff9b4e;stop-opacity:1;"
         offset="0"
         id="stop19" /><stop
         style="stop-color:#ff4949;stop-opacity:1;"
         offset="1"
         id="stop20" /></linearGradient><linearGradient
       id="swatch61"
       inkscape:swatch="solid"><stop
         style="stop-color:#5090d0;stop-opacity:1;"
         offset="0"
         id="stop61" /></linearGradient><linearGradient
       id="swatch30"
       inkscape:swatch="solid"><stop
         style="stop-color:#f9f9f9;stop-opacity:1;"
         offset="0"
         id="stop30" /></linearGradient><inkscape:perspective
       sodipodi:type="inkscape:persp3d"
       inkscape:vp_x="44.06818 : 315.96746 : 1"
       inkscape:vp_y="0 : 1000 : 0"
       inkscape:vp_z="480.74134 : 298.68846 : 1"
       inkscape:persp3d-origin="250 : 166.66667 : 1"
       id="perspective17" /><inkscape:perspective
       sodipodi:type="inkscape:persp3d"
       inkscape:vp_x="44.06818 : 315.96746 : 1"
       inkscape:vp_y="0 : 1000 : 0"
       inkscape:vp_z="480.74134 : 298.68846 : 1"
       inkscape:persp3d-origin="250 : 166.66667 : 1"
       id="perspective17-2" /><inkscape:perspective
       sodipodi:type="inkscape:persp3d"
       inkscape:vp_x="44.06818 : 315.96746 : 1"
       inkscape:vp_y="0 : 1000 : 0"
       inkscape:vp_z="480.74134 : 298.68846 : 1"
       inkscape:persp3d-origin="250 : 166.66667 : 1"
       id="perspective17-4" /><inkscape:perspective
       sodipodi:type="inkscape:persp3d"
       inkscape:vp_x="44.06818 : 315.96746 : 1"
       inkscape:vp_y="0 : 1000 : 0"
       inkscape:vp_z="480.74134 : 298.68846 : 1"
       inkscape:persp3d-origin="250 : 166.66667 : 1"
       id="perspective17-1" /><inkscape:perspective
       sodipodi:type="inkscape:persp3d"
       inkscape:vp_x="44.06818 : 315.96746 : 1"
       inkscape:vp_y="0 : 1000 : 0"
       inkscape:vp_z="480.74134 : 298.68846 : 1"
       inkscape:persp3d-origin="250 : 166.66667 : 1"
       id="perspective17-4-7" /><inkscape:perspective
       sodipodi:type="inkscape:persp3d"
       inkscape:vp_x="44.06818 : 315.96746 : 1"
       inkscape:vp_y="0 : 1000 : 0"
       inkscape:vp_z="480.74134 : 298.68846 : 1"
       inkscape:persp3d-origin="250 : 166.66667 : 1"
       id="perspective17-7" /><inkscape:perspective
       sodipodi:type="inkscape:persp3d"
       inkscape:vp_x="44.06818 : 315.96746 : 1"
       inkscape:vp_y="0 : 1000 : 0"
       inkscape:vp_z="480.74134 : 298.68846 : 1"
       inkscape:persp3d-origin="250 : 166.66667 : 1"
       id="perspective17-2-9" /><inkscape:perspective
       sodipodi:type="inkscape:persp3d"
       inkscape:vp_x="44.06818 : 315.96746 : 1"
       inkscape:vp_y="0 : 1000 : 0"
       inkscape:vp_z="480.74134 : 298.68846 : 1"
       inkscape:persp3d-origin="250 : 166.66667 : 1"
       id="perspective17-4-2" /><linearGradient
       inkscape:collect="always"
       xlink:href="#linearGradient24"
       id="linearGradient6"
       x1="102.14091"
       y1="83.180321"
       x2="505.32297"
       y2="490.25635"
       gradientUnits="userSpaceOnUse"
       gradientTransform="matrix(0.72584907,0,0,0.72584907,39.554756,131.83672)" /><linearGradient
       inkscape:collect="always"
       xlink:href="#linearGradient26"
       id="linearGradient11"
       gradientUnits="userSpaceOnUse"
       x1="84.79969"
       y1="397.71707"
       x2="415.34039"
       y2="397.71707"
       gradientTransform="matrix(0.72584907,0,0,0.72584907,182.51403,13.537959)" /><linearGradient
       inkscape:collect="always"
       xlink:href="#linearGradient20"
       id="linearGradient17"
       x1="3.0000136"
       y1="12.459122"
       x2="11.926313"
       y2="12.459122"
       gradientUnits="userSpaceOnUse" /></defs><path
     id="path3"
     style="opacity:0.163539;color:#000000;fill:#ffbb4b;stroke-linejoin:round;-inkscape-stroke:none;paint-order:markers fill stroke;fill-opacity:1"
     d="M 307.18281 29.621869 C 295.21306 29.621869 284.12812 38.859949 284.12812 51.434369 L 284.12812 83.793744 L 51.087104 83.793744 C 45.433766 83.793744 40.094616 85.481363 35.745307 88.850385 C 31.395999 92.219407 27.924995 97.797056 27.924995 104.22148 L 27.924995 445.90507 C 27.924995 452.3295 31.397566 457.90586 35.74726 461.27421 C 40.096955 464.64256 45.434833 466.32891 51.087104 466.3289 L 450.55585 466.3289 C 456.20813 466.32891 461.54601 464.64256 465.8957 461.27421 C 470.24539 457.90586 473.71796 452.3295 473.71796 445.90507 L 473.71796 104.22148 C 473.71796 101.65618 473.05681 99.357865 472.17109 97.244916 L 472.17109 51.434369 C 472.17109 38.857549 461.08421 29.621869 449.11445 29.621869 L 307.18281 29.621869 z "
     transform="translate(1.0144583,-1.3191345)" /><path
     style="fill:none;fill-opacity:1;stroke:#eee561;stroke-opacity:1;opacity:1;stroke-width:50;stroke-linecap:round;stroke-linejoin:bevel;paint-order:markers fill stroke"
     d="M 43.979119,450.13181 V 98.591456"
     id="path1-7"
     transform="translate(1.0144583,-1.3191345)" /><g
     inkscape:groupmode="layer"
     id="layer2"
     inkscape:label="Layer 2"><path
       id="path2"
       style="opacity:0.46108035;fill:url(#linearGradient11);stroke:none;stroke-width:3.31988;stroke-opacity:1"
       d="m 363.36328,21.753906 c -0.71305,0.02406 -1.42168,0.200579 -2.07617,0.527344 L 247.13867,81.701172 c -1.67445,0.842624 -2.73027,2.554174 -2.74023,4.421875 0,0.02983 0.0137,0.05553 0.0137,0.08203 -0.20266,0.554011 -0.34902,1.137637 -0.3457,1.748047 l 0.48242,38.154296 103.22461,49.92969 c -1.82499,-0.95411 -1.07958,-0.83442 2.41407,1.30469 3.79312,2.21614 4.42394,2.99633 1.45897,0.96094 0.0516,0.0356 0.10302,0.0714 0.1543,0.10741 0.61505,0.4299 1.57256,1.12219 2.70313,2.14845 l 0.0136,0.0136 c 1.18481,1.07744 2.14909,2.15863 2.83985,3.00977 0.017,0.0215 0.0339,0.0429 0.0508,0.0645 0.0874,0.1085 0.83395,1.0336 1.74608,2.4414 1.22972,1.92899 1.84825,3.36243 1.99415,3.69141 0.0224,0.0514 0.0445,0.10279 0.0664,0.1543 -0.088,-0.20238 0.36332,0.66333 0.95898,2.48047 0.0231,0.0695 0.046,0.13921 0.0684,0.20898 0.96889,3.05717 0.99842,4.51095 0.92968,4.07813 0.1012,0.63846 0.17483,1.28098 0.22071,1.92578 -0.3457,-4.84373 -0.1407,-4.39296 0.10547,0.98242 0.008,0.21541 0.0135,0.43093 0.0156,0.64649 10e-4,-4.68082 0.0152,-5.06067 0.0156,0.5039 1.3e-4,0.002 -1.3e-4,0.004 0,0.006 10e-6,0.0758 0,0.0354 0,0.11328 v 3.95118 c 0.26836,0.27203 0.53142,0.55244 0.86523,0.75195 0.78408,0.46776 1.66764,0.70312 2.55469,0.70312 0.81729,0 1.62767,-0.20347 2.36524,-0.60156 l 82.71288,-44.79095 15.46485,7.58789 -100.59961,56.16406 -3.36328,-1.67578 v 35.95703 c 0,4.92376 -1.34371,9.63455 -3.7168,13.73437 0.53452,0.99766 1.25014,2.27919 1.33594,2.47266 0.0224,0.052 0.0445,0.10409 0.0664,0.15625 -0.088,-0.2024 0.3633,0.6632 0.95898,2.48047 0.0232,0.0695 0.046,0.13921 0.0684,0.20899 0.95917,3.02648 0.99581,4.49052 0.92968,4.07422 0.10037,0.63654 0.17336,1.27711 0.21875,1.91992 -0.34549,-4.81966 -0.13809,-4.36911 0.10743,0.99218 0.009,0.23558 0.0141,0.47129 0.0156,0.70704 10e-4,-4.13117 0.015,-4.43973 0.0156,0.39452 -0.003,-0.0548 -0.006,-0.093 -0.01,-0.15038 7e-4,0.026 10e-4,0.0521 0.002,0.0781 0,0.0927 0.007,0.0308 0.008,0.11914 10e-6,0.0791 0,0.0375 0,0.11914 v 3.95118 c 0.26836,0.27203 0.53142,0.55245 0.86523,0.75195 0.78407,0.46775 1.66764,0.70312 2.55469,0.70312 0.81729,0 1.62767,-0.20152 2.36523,-0.59961 l 86.69922,-46.95117 11.47852,5.63281 -100.59961,56.16406 -3.36328,-1.67577 v 40.07031 c 0,4.10149 -0.95825,8.04276 -2.63672,11.62109 0.0292,0.0691 0.23953,0.43578 0.25586,0.47266 0.0224,0.0513 0.0445,0.10278 0.0664,0.1543 -0.11215,-0.25804 0.34856,0.61441 0.95898,2.47656 0.0232,0.0708 0.046,0.14181 0.0684,0.21289 0.9689,3.05704 0.99835,4.50691 0.92968,4.07422 0.10038,0.63655 0.17336,1.27711 0.21875,1.91992 -0.34549,-4.81965 -0.13809,-4.3691 0.10743,0.99219 0.009,0.23558 0.0142,0.47128 0.0156,0.70702 10e-4,-4.13035 0.015,-4.43689 0.0156,0.39454 -0.003,-0.0553 -0.006,-0.0964 -0.01,-0.1543 7.1e-4,0.0274 10e-4,0.0546 0.002,0.082 0,0.0927 0.007,0.0309 0.008,0.11914 10e-6,0.0791 0,0.0375 0,0.11914 v 3.95117 c 0.26836,0.27204 0.53142,0.55245 0.86523,0.75196 0.78407,0.46776 1.66764,0.70312 2.55469,0.70312 0.8173,0 1.62767,-0.20348 2.36523,-0.60156 l 112.0586,-60.68164 c 1.608,-0.87248 2.61524,-2.55374 2.61524,-4.375 v -58.04688 c 0,-0.0431 -0.0156,-0.0825 -0.0156,-0.1289 -0.004,-0.0365 0.008,-0.0695 0.008,-0.10938 -0.007,-0.14265 -0.0623,-0.27278 -0.0723,-0.41211 -0.0432,-0.27203 -0.0732,-0.54456 -0.15624,-0.80664 -0.0598,-0.18246 -0.13648,-0.3437 -0.21289,-0.51953 -0.10299,-0.23222 -0.20617,-0.46151 -0.34571,-0.67382 -0.103,-0.16587 -0.22473,-0.3142 -0.34765,-0.4668 -0.15616,-0.19241 -0.31981,-0.37183 -0.50586,-0.54102 -0.14619,-0.1327 -0.30264,-0.25303 -0.46876,-0.36914 -0.10631,-0.073 -0.19426,-0.17584 -0.31054,-0.24219 -0.10632,-0.0663 -0.22942,-0.094 -0.3457,-0.15039 -0.0963,-0.0498 -0.17319,-0.11703 -0.26953,-0.16015 l -13.66016,-6.60742 14.08789,-7.62891 c 1.608,-0.87248 2.61524,-2.55374 2.61524,-4.375 v -58.04688 c 0,-0.0431 -0.0156,-0.0825 -0.0156,-0.1289 -0.004,-0.0365 0.008,-0.0696 0.008,-0.10937 -0.007,-0.14266 -0.0623,-0.27279 -0.0723,-0.41212 -0.0432,-0.27203 -0.0732,-0.54261 -0.15625,-0.80468 -0.0598,-0.18247 -0.13648,-0.34567 -0.21289,-0.52149 -0.10299,-0.23222 -0.20617,-0.46151 -0.34571,-0.67383 -0.10299,-0.16587 -0.22473,-0.31419 -0.34765,-0.4668 -0.15615,-0.19239 -0.31981,-0.37182 -0.50586,-0.54101 -0.14619,-0.1327 -0.30264,-0.25303 -0.46875,-0.36914 -0.10632,-0.073 -0.19427,-0.17388 -0.31055,-0.24023 -0.10632,-0.0663 -0.22941,-0.094 -0.3457,-0.1504 -0.0963,-0.0498 -0.17318,-0.12093 -0.26953,-0.16406 l -17.67188,-8.54883 18.09961,-9.80078 c 1.608,-0.87247 2.61524,-2.55373 2.61524,-4.375 V 82.580078 c 0,-0.04312 -0.0176,-0.08247 -0.0176,-0.128906 -0.004,-0.03651 0.0117,-0.07153 0.0117,-0.111328 -0.007,-0.142646 -0.0642,-0.270825 -0.0742,-0.410157 -0.0432,-0.272029 -0.0732,-0.544566 -0.15624,-0.80664 -0.0598,-0.182459 -0.13649,-0.345661 -0.2129,-0.521485 -0.10299,-0.232218 -0.20617,-0.45956 -0.3457,-0.671875 -0.10299,-0.165869 -0.22473,-0.316148 -0.34766,-0.468749 -0.15615,-0.192411 -0.31981,-0.371827 -0.50586,-0.541016 -0.14618,-0.132696 -0.30263,-0.251078 -0.46875,-0.367188 -0.10631,-0.07298 -0.19622,-0.175839 -0.3125,-0.242187 -0.10631,-0.06635 -0.22746,-0.09399 -0.34375,-0.15039 -0.0963,-0.04976 -0.17318,-0.118984 -0.26953,-0.16211 L 365.4668,22.142578 c -0.67278,-0.283639 -1.39047,-0.412723 -2.10352,-0.388672 z m -15.58984,154.283204 -0.59571,-0.27734 c 2.69479,1.20626 1.18506,0.54529 0.87501,0.4414 -0.25488,-0.12421 -0.0768,-0.0597 -0.26954,-0.16016 l -0.008,-0.004 z M 363.70898,32.205078 467.49219,83.126953 366.89258,139.29101 260.36133,86.191408 Z m 110.3125,58.707035 v 46.734377 l -102.09179,55.30859 v -45.07226 z m 0,85.355467 v 46.73437 L 371.92969,278.3086 v -45.07032 z m -110.62109,22.25586 c 0.0739,0.73989 0.11103,1.48299 0.11133,2.22656 0,-0.17501 -3e-5,-0.10663 0,-0.27149 -0.0523,-0.80802 0.008,-0.75052 -0.11133,-1.95507 z m 110.62109,58.98242 v 46.73242 l -102.09179,55.30859 v -45.07226 z m -114.98437,13.71875 c 0.0772,0.11751 0.043,0.0978 0.11523,0.21094 0.10682,0.1646 0.0829,0.0931 0.19727,0.27734 z m 4.47461,14.53907 c 10e-4,0.11327 0.002,0.22655 0.002,0.33984 0,-0.19068 -5e-5,-0.11784 0,-0.29493 -7.3e-4,-0.0175 -7.3e-4,-0.0282 -0.002,-0.0449 z m -4.47461,66.69921 c 0.0793,0.1206 0.0433,0.10082 0.11718,0.2168 0.10528,0.16232 0.0827,0.0901 0.19532,0.27148 z m 4.47461,14.53906 c 10e-4,0.11328 0.002,0.22656 0.002,0.33984 0,-0.19068 -5e-5,-0.11783 0,-0.29492 -7.3e-4,-0.0175 -7.3e-4,-0.0282 -0.002,-0.0449 z"
       sodipodi:nodetypes="scccccccccccccccccccccccccsccscccccscccccccccccccsccscccccscccscccccccccsccsccssccccccccccccccssccccccccccccccsscccccccccccccscccccccccccccccccccccccccccccccccccccccccccccc" /><path
       id="path1"
       style="opacity:1;fill:url(#linearGradient6);fill-opacity:1;stroke:none;stroke-width:3.31988;stroke-opacity:1"
       d="m 220.4043,140.05273 c -0.71306,0.0241 -1.42168,0.20058 -2.07618,0.52735 L 104.17969,200 c -1.67446,0.84262 -2.73027,2.55417 -2.74024,4.42187 0,0.0298 0.0117,0.0555 0.0117,0.082 -0.20266,0.55401 -0.34902,1.13764 -0.3457,1.74804 l 0.66211,52.31055 c 0.01,1.82459 1.0164,3.49685 2.62109,4.35938 l 21.39648,11.18749 -21.60546,11.24415 c -1.67446,0.84262 -2.73222,2.55416 -2.74219,4.42187 0,0.0298 0.0156,0.0574 0.0156,0.084 -0.20267,0.554 -0.34903,1.13764 -0.34571,1.74804 l 0.66016,52.31055 c 0.01,1.82458 1.01641,3.49685 2.62109,4.35937 l 17.44922,9.12305 -17.6582,9.19141 c -1.67446,0.84263 -2.73222,2.55417 -2.74219,4.42187 0,0.0298 0.0156,0.0574 0.0156,0.084 -0.20267,0.554 -0.34903,1.13764 -0.34571,1.74804 l 0.66016,52.31055 c 0.01,1.82458 1.01641,3.49684 2.62109,4.35938 l 113.49414,59.33789 c 0.74089,0.39477 1.55263,0.59374 2.36328,0.59374 h 0.008 c 0.3422,0.38814 0.72453,0.75337 1.17969,1.0254 0.78406,0.46775 1.66957,0.70312 2.55663,0.70312 0.8173,0 1.62767,-0.20348 2.36524,-0.60156 l 112.05859,-60.68164 c 1.60801,-0.87248 2.61523,-2.55374 2.61523,-4.375 V 367.4707 c 0,-0.0431 -0.0156,-0.0825 -0.0156,-0.1289 -0.004,-0.0365 0.008,-0.0695 0.008,-0.10938 -0.007,-0.14265 -0.0623,-0.27278 -0.0723,-0.41211 -0.0432,-0.27203 -0.0732,-0.54456 -0.15625,-0.80664 -0.0598,-0.18245 -0.13648,-0.34371 -0.21289,-0.51953 -0.10299,-0.23222 -0.20617,-0.46152 -0.34571,-0.67383 -0.103,-0.16587 -0.22473,-0.31419 -0.34765,-0.4668 -0.15615,-0.19241 -0.31981,-0.37182 -0.50586,-0.54101 -0.14618,-0.1327 -0.30263,-0.25304 -0.46875,-0.36914 -0.10632,-0.073 -0.19427,-0.17584 -0.31055,-0.24219 -0.10631,-0.0663 -0.22942,-0.094 -0.3457,-0.15039 -0.0963,-0.0498 -0.17319,-0.11704 -0.26953,-0.16016 l -13.66016,-6.60742 14.08789,-7.6289 c 1.60801,-0.87248 2.61523,-2.55374 2.61523,-4.375 v -58.04688 c 0,-0.0431 -0.0156,-0.0825 -0.0156,-0.12891 -0.004,-0.0365 0.008,-0.0696 0.008,-0.10937 -0.007,-0.14265 -0.0623,-0.27278 -0.0723,-0.41211 -0.0432,-0.27203 -0.0732,-0.54261 -0.15625,-0.80469 -0.0598,-0.18246 -0.13648,-0.34566 -0.21289,-0.52148 -0.10299,-0.23222 -0.20617,-0.46151 -0.34571,-0.67383 -0.10299,-0.16587 -0.22473,-0.31419 -0.34765,-0.46679 -0.15615,-0.19241 -0.31981,-0.37183 -0.50586,-0.54102 -0.14618,-0.1327 -0.30263,-0.25303 -0.46875,-0.36914 -0.10632,-0.073 -0.19427,-0.17388 -0.31055,-0.24023 -0.10631,-0.0663 -0.22941,-0.094 -0.3457,-0.15039 -0.0963,-0.0498 -0.17318,-0.12094 -0.26953,-0.16407 l -17.67188,-8.54883 18.09961,-9.80078 c 1.60801,-0.87248 2.61523,-2.55374 2.61523,-4.375 v -58.04687 c 0,-0.0431 -0.0176,-0.0825 -0.0176,-0.12891 -0.004,-0.0365 0.01,-0.0715 0.01,-0.11133 -0.007,-0.14264 -0.0623,-0.27082 -0.0723,-0.41015 -0.0432,-0.27203 -0.0732,-0.54457 -0.15625,-0.80665 -0.0598,-0.18245 -0.13648,-0.34566 -0.21289,-0.52148 -0.10299,-0.23222 -0.20617,-0.45956 -0.34571,-0.67187 -0.10299,-0.16588 -0.22473,-0.31615 -0.34765,-0.46875 -0.15615,-0.19241 -0.31981,-0.37183 -0.50586,-0.54102 -0.14618,-0.1327 -0.30263,-0.25108 -0.46875,-0.36719 -0.10632,-0.073 -0.19622,-0.17584 -0.3125,-0.24218 -0.10632,-0.0663 -0.22942,-0.094 -0.3457,-0.1504 -0.0964,-0.0498 -0.17124,-0.11898 -0.26758,-0.1621 L 222.50782,140.44141 c -0.67278,-0.28364 -1.39047,-0.41273 -2.10352,-0.38868 z m 0.3457,10.45118 103.7832,50.92187 -100.59961,56.16407 -106.53125,-53.09962 z m 110.3125,58.70703 v 46.73437 l -102.0918,55.3086 v -45.07227 z m -21.99414,69.98047 15.46484,7.58788 -100.59961,56.16407 -106.53125,-53.09766 19.25,-10.05469 81.23047,42.47071 c 0.74088,0.39478 1.55262,0.59375 2.36328,0.59375 h 0.01 c 0.3422,0.38813 0.72453,0.75336 1.17969,1.02539 0.78407,0.46776 1.66761,0.70312 2.55468,0.70312 0.81729,0 1.62767,-0.20347 2.36524,-0.60156 z m 21.99414,15.375 v 46.73437 l -102.09375,55.30664 v -45.07031 z m -18.00781,67.82031 11.47851,5.63281 -100.59961,56.16211 -106.53125,-53.09766 15.31055,-7.99804 85.16992,44.52929 c 0.74089,0.39478 1.55263,0.59376 2.36328,0.59376 h 0.008 c 0.3422,0.38814 0.72453,0.75336 1.17969,1.02538 0.78406,0.46776 1.66957,0.70313 2.55663,0.70313 0.8173,0 1.62767,-0.20152 2.36524,-0.59961 z m 18.00781,13.41797 v 46.73242 l -102.09375,55.3086 v -45.07227 z" /><g
       style="fill:url(#linearGradient17);stroke-width:1.00004;stroke-dasharray:none"
       id="g15"
       transform="matrix(6.3983155,8.8288635,8.8288635,-6.3983155,11.262066,90.64248)"><path
         id="path2-8"
         style="color:#000000;fill:#ffe963;fill-opacity:1;stroke-width:1.00004;stroke-linecap:round;stroke-linejoin:round;stroke-dasharray:none"
         d="M 8.4645839,4.5475175 A 1,1 0 0 0 7.5273183,5.0507792 1,1 0 0 0 7.9003847,6.41408 l 0.330293,0.1878515 C 7.037903,6.9139285 5.9373731,7.5372675 5.0507948,8.4238456 3.7383289,9.7363467 3.0000136,11.516897 3.0000136,13.373025 c 0,1.856129 0.7382969,3.636777 2.0507812,4.949239 1.3124681,1.312444 3.0930266,2.050781 4.9491798,2.050781 a 1,1 0 0 0 1.0000194,-1.00002 1,1 0 0 0 -1.0000194,-0.999961 c -1.3264405,0 -2.5971692,-0.526892 -3.5351368,-1.464843 -0.9379509,-0.937934 -1.4648437,-2.20873 -1.4648437,-3.535196 0,-1.326465 0.5268744,-2.597142 1.4648437,-3.5351364 C 7.1429783,9.1597482 7.9954689,8.697895 8.9168105,8.4932792 L 8.6171621,9.0195097 A 1,1 0 0 0 8.9902285,10.38281 1,1 0 0 0 10.355463,10.009744 l 1.439473,-2.5292578 a 1.0001,1.0001 0 0 0 -0.375,-1.3652344 L 8.8906191,4.6757792 A 1,1 0 0 0 8.4645839,4.5475175 Z" /></g></g></svg>
