<?xml version="1.0" encoding="UTF-8" standalone="no"?>
<!-- Created with Inkscape (http://www.inkscape.org/) -->

<svg
   width="500"
   height="500"
   viewBox="0 0 500 500"
   version="1.1"
   id="svg1"
   inkscape:version="1.3.2 (091e20ef0f, 2023-11-25, custom)"
   sodipodi:docname="folder.web.svg"
   xml:space="preserve"
   xmlns:inkscape="http://www.inkscape.org/namespaces/inkscape"
   xmlns:sodipodi="http://sodipodi.sourceforge.net/DTD/sodipodi-0.dtd"
   xmlns="http://www.w3.org/2000/svg"
   xmlns:svg="http://www.w3.org/2000/svg"><sodipodi:namedview
     id="namedview1"
     pagecolor="#505050"
     bordercolor="#eeeeee"
     borderopacity="1"
     inkscape:showpageshadow="0"
     inkscape:pageopacity="0"
     inkscape:pagecheckerboard="0"
     inkscape:deskcolor="#505050"
     inkscape:document-units="px"
     inkscape:zoom="0.68158229"
     inkscape:cx="254.55474"
     inkscape:cy="185.59755"
     inkscape:window-width="1362"
     inkscape:window-height="744"
     inkscape:window-x="0"
     inkscape:window-y="20"
     inkscape:window-maximized="1"
     inkscape:current-layer="svg1"
     showguides="true"><sodipodi:guide
       position="250.02518,350.60736"
       orientation="-0.99997769,0.0066803918"
       id="guide30"
       inkscape:locked="false" /><sodipodi:guide
       position="66.396728,247.89992"
       orientation="0,-1"
       id="guide53"
       inkscape:locked="false" /></sodipodi:namedview><defs
     id="defs1"><inkscape:path-effect
       effect="transform_2pts"
       start="390.39269,41.772151"
       end="167.97988,418.13643"
       id="path-effect3"
       is_visible="true"
       lpeversion="1"
       first_knot="1"
       last_knot="2"
       helper_size="17"
       stretch="1.2"
       offset="0"
       elastic="false"
       from_original_width="false"
       flip_vertical="false"
       flip_horizontal="false"
       lock_length="false"
       lock_angle="false" /><linearGradient
       id="swatch61"
       inkscape:swatch="solid"><stop
         style="stop-color:#5090d0;stop-opacity:1;"
         offset="0"
         id="stop61" /></linearGradient><linearGradient
       id="swatch30"
       inkscape:swatch="solid"><stop
         style="stop-color:#f9f9f9;stop-opacity:1;"
         offset="0"
         id="stop30" /></linearGradient><inkscape:perspective
       sodipodi:type="inkscape:persp3d"
       inkscape:vp_x="44.06818 : 315.96746 : 1"
       inkscape:vp_y="0 : 1000 : 0"
       inkscape:vp_z="480.74134 : 298.68846 : 1"
       inkscape:persp3d-origin="250 : 166.66667 : 1"
       id="perspective17" /><inkscape:perspective
       sodipodi:type="inkscape:persp3d"
       inkscape:vp_x="44.06818 : 315.96746 : 1"
       inkscape:vp_y="0 : 1000 : 0"
       inkscape:vp_z="480.74134 : 298.68846 : 1"
       inkscape:persp3d-origin="250 : 166.66667 : 1"
       id="perspective17-6" /><inkscape:perspective
       sodipodi:type="inkscape:persp3d"
       inkscape:vp_x="44.06818 : 315.96746 : 1"
       inkscape:vp_y="0 : 1000 : 0"
       inkscape:vp_z="480.74134 : 298.68846 : 1"
       inkscape:persp3d-origin="250 : 166.66667 : 1"
       id="perspective17-2" /><inkscape:perspective
       sodipodi:type="inkscape:persp3d"
       inkscape:vp_x="44.06818 : 315.96746 : 1"
       inkscape:vp_y="0 : 1000 : 0"
       inkscape:vp_z="480.74134 : 298.68846 : 1"
       inkscape:persp3d-origin="250 : 166.66667 : 1"
       id="perspective17-5" /><inkscape:path-effect
       effect="transform_2pts"
       start="390.39269,41.772151"
       end="167.97988,418.13643"
       id="path-effect3-3"
       is_visible="true"
       lpeversion="1"
       first_knot="1"
       last_knot="2"
       helper_size="17"
       stretch="1.2"
       offset="0"
       elastic="false"
       from_original_width="false"
       flip_vertical="false"
       flip_horizontal="false"
       lock_length="false"
       lock_angle="false" /><inkscape:perspective
       sodipodi:type="inkscape:persp3d"
       inkscape:vp_x="44.06818 : 315.96746 : 1"
       inkscape:vp_y="0 : 1000 : 0"
       inkscape:vp_z="480.74134 : 298.68846 : 1"
       inkscape:persp3d-origin="250 : 166.66667 : 1"
       id="perspective17-52" /><inkscape:perspective
       sodipodi:type="inkscape:persp3d"
       inkscape:vp_x="44.06818 : 315.96746 : 1"
       inkscape:vp_y="0 : 1000 : 0"
       inkscape:vp_z="480.74134 : 298.68846 : 1"
       inkscape:persp3d-origin="250 : 166.66667 : 1"
       id="perspective17-6-5" /><inkscape:perspective
       sodipodi:type="inkscape:persp3d"
       inkscape:vp_x="44.06818 : 315.96746 : 1"
       inkscape:vp_y="0 : 1000 : 0"
       inkscape:vp_z="480.74134 : 298.68846 : 1"
       inkscape:persp3d-origin="250 : 166.66667 : 1"
       id="perspective17-2-4" /></defs><path
     id="rect53-0"
     style="opacity:0.13431182;fill:#a8bbd2;fill-opacity:1;fill-rule:nonzero;stroke:#a8bbd2;stroke-width:22.0622;stroke-linecap:butt;stroke-linejoin:round;stroke-dasharray:none;stroke-opacity:1;paint-order:markers fill stroke"
     d="m 462.68749,104.21979 c 0,-1.64895 -0.59137,-3.17324 -1.54688,-4.517583 v -48.26953 c 0,-5.97292 -5.36366,-10.78125 -12.02538,-10.78125 H 307.18359 c -6.66173,0 -12.02344,4.80833 -12.02344,10.78125 v 43.39063 H 51.087889 c -6.7206,0 -12.13086,4.19106 -12.13086,9.396483 v 341.68359 c 0,5.20542 5.41026,9.39453 12.13086,9.39453 H 450.55663 c 6.7206,0 12.13086,-4.18911 12.13086,-9.39453 z"
     transform="translate(5.1892367,2.2403222)" /><path
     style="fill:none;stroke:#a8bbd2;stroke-width:50;stroke-linecap:round;stroke-linejoin:bevel;stroke-opacity:1;paint-order:markers fill stroke"
     d="M 43.979119,450.13181 V 98.591456"
     id="path1"
     transform="translate(5.1892367,2.2403222)" /><g
     inkscape:label="Layer 1"
     id="layer1"
     transform="matrix(0.77679258,-0.22111046,0.22111046,0.77679258,51.142294,111.61848)"
     style="opacity:0.801303"><path
       id="path4"
       style="display:none;opacity:0.797329;fill:#a8bcd2;fill-opacity:1;stroke:none;stroke-width:20;stroke-linecap:round;stroke-miterlimit:10;stroke-dasharray:none;stroke-opacity:1"
       d="m 369.52249,56.609323 -49.21484,85.242607 c 24.79861,13.85364 49.64915,25.75286 73.95492,35.43366 16.02593,-17.94657 32.46209,-33.77398 48.9528,-47.60904 A 226.09821,226.09821 0 0 0 369.52249,56.609323 Z M 351.77522,47.348489 A 226.09821,226.09821 0 0 0 257.48994,23.85071 c -3.77476,21.033318 -9.25092,42.980699 -16.74417,65.622831 19.07728,14.778939 39.95352,28.998729 62.24918,42.364859 z M 453.16599,147.43765 c -12.94492,11.08226 -25.93034,23.47447 -38.74171,37.39949 19.94344,7.07922 39.3277,12.58921 57.93538,16.71938 A 226.09821,226.09821 0 0 0 453.16599,147.43765 Z M 237.17732,23.857411 a 226.09821,226.09821 0 0 0 -56.98959,11.025276 c 13.03613,13.8589 27.70615,27.67605 43.85138,41.172181 5.68312,-18.029898 9.9664,-35.454781 13.13821,-52.197457 z M 475.85851,222.62915 c -24.24169,-4.87641 -49.57857,-11.90417 -75.68451,-21.59027 -22.37166,26.37536 -43.9141,56.74877 -63.37449,90.34207 L 450.16595,356.8331 A 226.09821,226.09821 0 0 0 475.85851,222.62915 Z M 160.59391,42.827982 A 226.09821,226.09821 0 0 0 59.074288,131.03622 L 170.89474,195.59579 C 190.09839,162.22202 205.53821,128.65813 217.16168,96.341924 195.83926,79.002112 177.07901,60.994679 160.59391,42.827982 Z M 380.4694,193.27762 c -23.16996,-9.54603 -46.69174,-20.9689 -70.16761,-34.09503 l -50.61914,87.67492 59.79465,34.52246 c 18.77767,-32.42053 39.40229,-62.01381 60.9921,-88.10235 z M 233.76683,109.38173 c -11.76483,31.53615 -26.99029,63.96604 -45.54988,96.21504 l 54.14519,31.26074 50.62402,-87.68338 c -21.03917,-12.59166 -40.87866,-25.9153 -59.21933,-39.7924 z m -184.230774,39.2416 a 226.09821,226.09821 0 0 0 -23.043842,119.5967 c 24.768786,5.14914 50.648206,12.52175 77.290376,22.63696 19.84135,-23.02445 38.98862,-49.35895 56.75018,-78.14968 z m 128.345984,74.10059 c -17.05629,27.72178 -35.36416,53.27744 -54.45656,75.98949 21.45811,9.02214 43.1968,19.65647 64.9015,31.73574 l 44.03516,-76.27113 z m 71.80061,41.4541 -44.0293,76.26098 c 23.38778,13.93518 45.28974,28.78246 65.3406,44.27598 10.16014,-28.10032 23.21968,-56.9594 38.82165,-85.81919 z m 77.48052,44.7334 c -16.20648,30.05996 -29.5429,60.09348 -39.59862,89.03994 22.01512,18.30151 41.2225,37.29511 57.81875,56.40577 a 226.09821,226.09821 0 0 0 94.06547,-80.61759 z m -131.51666,48.85993 -51.93457,89.95332 a 226.09821,226.09821 0 0 0 103.71094,27.05877 c 3.40844,-22.25875 9.00466,-45.76347 16.73314,-70.00217 -20.76331,-16.45113 -43.7752,-32.2571 -68.50951,-47.00992 z m -17.32734,-9.98816 c -23.05967,-12.81328 -46.1508,-23.9235 -68.80579,-33.13738 -17.107326,18.8432 -34.649736,35.4609 -52.210268,49.5871 a 226.09821,226.09821 0 0 0 69.375428,72.99447 z M 89.391102,306.88924 C 68.592159,299.32636 48.376105,293.4677 28.987065,289.09414 a 226.09821,226.09821 0 0 0 18.560429,57.16099 C 61.497124,334.78704 75.53484,321.69705 89.391102,306.88924 Z M 280.87792,418.58762 c -5.84825,19.38735 -10.12986,38.07458 -13.03873,55.8611 a 226.09821,226.09821 0 0 0 58.21384,-11.81371 c -13.29562,-14.78943 -28.28839,-29.58087 -45.17511,-44.04739 z" /><path
       id="path1-7"
       style="opacity:1;fill:#a8bbd2;stroke:none;stroke-width:20;stroke-linecap:round;stroke-miterlimit:10"
       d="m 249.02539,11.027344 a 239.21294,239.21294 0 0 0 -77.9375,13.621094 c -10.01086,40.747252 -17.4779,88.120692 -21.50781,139.607422 32.50714,3.00567 66.65862,4.73239 102.07617,4.73242 30.57529,3e-5 60.64928,-1.39466 89.87891,-3.77539 C 337.33427,111.97432 329.48158,63.096051 318.91797,21.478516 A 239.21294,239.21294 0 0 0 249.02539,11.027344 Z m 109.32813,26.515625 c 8.16508,37.715005 14.19839,79.583441 17.73437,124.285151 31.46168,-3.60931 61.16051,-8.65628 88.73047,-14.76562 A 239.21294,239.21294 0 0 0 358.35352,37.542969 Z M 131.47656,42.570312 A 239.21294,239.21294 0 0 0 34.046875,146.07422 c 24.997163,5.69722 52.047363,10.56039 81.025395,14.2539 3.33087,-42.17157 8.93529,-81.732628 16.40429,-117.757808 z M 21.064453,178.6582 A 239.21294,239.21294 0 0 0 9.8125,250.24023 a 239.21294,239.21294 0 0 0 7.947266,59.38672 c 28.943487,7.38356 61.293482,13.50981 96.283204,18.00782 -1.62955,-24.80244 -2.65042,-50.05289 -2.65039,-75.71875 2e-5,-19.39276 0.64267,-38.25956 1.5625,-56.83399 C 80.090629,190.97664 49.427564,185.3734 21.064453,178.6582 Z m 456.523437,1.08203 c -30.93935,7.12475 -64.19088,12.86453 -99.37305,16.82618 0.92421,18.62069 1.56835,37.53448 1.56836,56.97656 3e-5,25.62315 -1.01502,50.83553 -2.63867,75.59961 36.92937,-4.27683 71.55231,-10.45959 102.85156,-18.16016 a 239.21294,239.21294 0 0 0 8.24219,-60.74219 239.21294,239.21294 0 0 0 -10.65039,-70.5 z m -330.0625,19.18946 c -0.83802,17.37694 -1.43358,34.96317 -1.43359,52.98633 -3e-5,27.05654 1.15868,53.68358 3.0332,79.75 32.64327,3.03223 66.94892,4.77341 102.53125,4.77343 30.77212,3e-5 61.03946,-1.40946 90.44727,-3.81836 1.84284,-25.85343 2.98049,-52.25506 2.98046,-79.07812 0,-18.25794 -0.60674,-36.07085 -1.46484,-53.66406 -29.91966,2.40574 -60.6665,3.80862 -91.96289,3.80859 -36.08457,-3e-5 -70.88936,-1.72904 -104.13086,-4.75781 z M 31.001953,348.46875 A 239.21294,239.21294 0 0 0 130.71484,457.49609 C 124.73885,427.8055 120.08979,396.09583 116.86719,363.04492 86.38551,359.35925 57.728243,354.40156 31.001953,348.46875 Z m 435.525387,1.31836 c -28.94476,6.2277 -59.78448,11.26254 -92.20898,14.78711 -3.31066,33.98618 -8.14208,66.53893 -14.36328,96.95117 A 239.21294,239.21294 0 0 0 466.52734,349.78711 Z m -314.40429,16.96484 c 4.10209,39.10193 10.38618,75.72356 18.31054,108.83594 a 239.21294,239.21294 0 0 0 78.5918,13.86523 239.21294,239.21294 0 0 0 71.48242,-11.21484 c 8.09356,-33.59151 14.47824,-70.85918 18.6211,-110.65039 -28.52849,2.18288 -57.71509,3.55081 -87.47266,3.55078 -34.44358,-3e-5 -67.67339,-1.61355 -99.5332,-4.38672 z" /></g></svg>
