<?xml version="1.0" encoding="UTF-8" standalone="no"?>
<!-- Created with Inkscape (http://www.inkscape.org/) -->

<svg
   width="500"
   height="500"
   viewBox="0 0 500 500"
   version="1.1"
   id="svg1"
   inkscape:version="1.3.2 (091e20ef0f, 2023-11-25, custom)"
   sodipodi:docname="folder.godot.svg"
   xml:space="preserve"
   xmlns:inkscape="http://www.inkscape.org/namespaces/inkscape"
   xmlns:sodipodi="http://sodipodi.sourceforge.net/DTD/sodipodi-0.dtd"
   xmlns:xlink="http://www.w3.org/1999/xlink"
   xmlns="http://www.w3.org/2000/svg"
   xmlns:svg="http://www.w3.org/2000/svg"><sodipodi:namedview
     id="namedview1"
     pagecolor="#505050"
     bordercolor="#eeeeee"
     borderopacity="1"
     inkscape:showpageshadow="0"
     inkscape:pageopacity="0"
     inkscape:pagecheckerboard="0"
     inkscape:deskcolor="#505050"
     inkscape:document-units="px"
     inkscape:zoom="0.96390292"
     inkscape:cx="279.59247"
     inkscape:cy="233.94472"
     inkscape:window-width="1352"
     inkscape:window-height="734"
     inkscape:window-x="4"
     inkscape:window-y="24"
     inkscape:window-maximized="0"
     inkscape:current-layer="layer1"
     showguides="true"><sodipodi:guide
       position="250.02518,350.60736"
       orientation="-0.99997769,0.0066803918"
       id="guide30"
       inkscape:locked="false" /><sodipodi:guide
       position="66.396728,247.89992"
       orientation="0,-1"
       id="guide53"
       inkscape:locked="false" /></sodipodi:namedview><defs
     id="defs1"><linearGradient
       id="swatch61"
       inkscape:swatch="solid"><stop
         style="stop-color:#5090d0;stop-opacity:1;"
         offset="0"
         id="stop61" /></linearGradient><linearGradient
       id="swatch30"
       inkscape:swatch="solid"><stop
         style="stop-color:#f9f9f9;stop-opacity:1;"
         offset="0"
         id="stop30" /></linearGradient><inkscape:perspective
       sodipodi:type="inkscape:persp3d"
       inkscape:vp_x="44.06818 : 315.96746 : 1"
       inkscape:vp_y="0 : 1000 : 0"
       inkscape:vp_z="480.74134 : 298.68846 : 1"
       inkscape:persp3d-origin="250 : 166.66667 : 1"
       id="perspective17" /><inkscape:perspective
       sodipodi:type="inkscape:persp3d"
       inkscape:vp_x="44.06818 : 315.96746 : 1"
       inkscape:vp_y="0 : 1000 : 0"
       inkscape:vp_z="480.74134 : 298.68846 : 1"
       inkscape:persp3d-origin="250 : 166.66667 : 1"
       id="perspective17-5" /><inkscape:perspective
       sodipodi:type="inkscape:persp3d"
       inkscape:vp_x="44.06818 : 315.96746 : 1"
       inkscape:vp_y="0 : 1000 : 0"
       inkscape:vp_z="480.74134 : 298.68846 : 1"
       inkscape:persp3d-origin="250 : 166.66667 : 1"
       id="perspective17-2" /><inkscape:perspective
       sodipodi:type="inkscape:persp3d"
       inkscape:vp_x="44.06818 : 315.96746 : 1"
       inkscape:vp_y="0 : 1000 : 0"
       inkscape:vp_z="480.74134 : 298.68846 : 1"
       inkscape:persp3d-origin="250 : 166.66667 : 1"
       id="perspective17-29" /><inkscape:perspective
       sodipodi:type="inkscape:persp3d"
       inkscape:vp_x="44.06818 : 315.96746 : 1"
       inkscape:vp_y="0 : 1000 : 0"
       inkscape:vp_z="480.74134 : 298.68846 : 1"
       inkscape:persp3d-origin="250 : 166.66667 : 1"
       id="perspective17-2-1" /><linearGradient
       id="linearGradient1"
       inkscape:collect="always"><stop
         style="stop-color:#85c0ea;stop-opacity:1;"
         offset="0"
         id="stop1" /><stop
         style="stop-color:#d887ef;stop-opacity:1;"
         offset="1"
         id="stop2" /></linearGradient><linearGradient
       id="swatch13"
       inkscape:swatch="solid"><stop
         style="stop-color:#ff405c;stop-opacity:1;"
         offset="0"
         id="stop13" /></linearGradient><inkscape:perspective
       sodipodi:type="inkscape:persp3d"
       inkscape:vp_x="44.06818 : 315.96746 : 1"
       inkscape:vp_y="0 : 1000 : 0"
       inkscape:vp_z="480.74134 : 298.68846 : 1"
       inkscape:persp3d-origin="250 : 166.66667 : 1"
       id="perspective17-91" /><inkscape:perspective
       sodipodi:type="inkscape:persp3d"
       inkscape:vp_x="44.06818 : 315.96746 : 1"
       inkscape:vp_y="0 : 1000 : 0"
       inkscape:vp_z="480.74134 : 298.68846 : 1"
       inkscape:persp3d-origin="250 : 166.66667 : 1"
       id="perspective17-9" /><inkscape:perspective
       sodipodi:type="inkscape:persp3d"
       inkscape:vp_x="44.06818 : 315.96746 : 1"
       inkscape:vp_y="0 : 1000 : 0"
       inkscape:vp_z="480.74134 : 298.68846 : 1"
       inkscape:persp3d-origin="250 : 166.66667 : 1"
       id="perspective17-1" /><inkscape:perspective
       sodipodi:type="inkscape:persp3d"
       inkscape:vp_x="44.06818 : 315.96746 : 1"
       inkscape:vp_y="0 : 1000 : 0"
       inkscape:vp_z="480.74134 : 298.68846 : 1"
       inkscape:persp3d-origin="250 : 166.66667 : 1"
       id="perspective17-8" /><inkscape:perspective
       sodipodi:type="inkscape:persp3d"
       inkscape:vp_x="44.06818 : 315.96746 : 1"
       inkscape:vp_y="0 : 1000 : 0"
       inkscape:vp_z="480.74134 : 298.68846 : 1"
       inkscape:persp3d-origin="250 : 166.66667 : 1"
       id="perspective17-7" /><inkscape:perspective
       sodipodi:type="inkscape:persp3d"
       inkscape:vp_x="44.06818 : 315.96746 : 1"
       inkscape:vp_y="0 : 1000 : 0"
       inkscape:vp_z="480.74134 : 298.68846 : 1"
       inkscape:persp3d-origin="250 : 166.66667 : 1"
       id="perspective17-5-2" /><inkscape:perspective
       sodipodi:type="inkscape:persp3d"
       inkscape:vp_x="44.06818 : 315.96746 : 1"
       inkscape:vp_y="0 : 1000 : 0"
       inkscape:vp_z="480.74134 : 298.68846 : 1"
       inkscape:persp3d-origin="250 : 166.66667 : 1"
       id="perspective17-2-7" /><inkscape:perspective
       sodipodi:type="inkscape:persp3d"
       inkscape:vp_x="44.06818 : 315.96746 : 1"
       inkscape:vp_y="0 : 1000 : 0"
       inkscape:vp_z="480.74134 : 298.68846 : 1"
       inkscape:persp3d-origin="250 : 166.66667 : 1"
       id="perspective17-29-0" /><inkscape:perspective
       sodipodi:type="inkscape:persp3d"
       inkscape:vp_x="44.06818 : 315.96746 : 1"
       inkscape:vp_y="0 : 1000 : 0"
       inkscape:vp_z="480.74134 : 298.68846 : 1"
       inkscape:persp3d-origin="250 : 166.66667 : 1"
       id="perspective17-2-1-9" /><linearGradient
       inkscape:collect="always"
       xlink:href="#linearGradient1"
       id="linearGradient2"
       x1="-1.7974885"
       y1="0.3920356"
       x2="35.437225"
       y2="29.081129"
       gradientUnits="userSpaceOnUse"
       gradientTransform="matrix(13.45546,0,0,13.45546,63.85751,41.863684)" /><linearGradient
       inkscape:collect="always"
       xlink:href="#linearGradient1"
       id="linearGradient4"
       x1="-90.394897"
       y1="154.06448"
       x2="200.69014"
       y2="289.88525"
       gradientUnits="userSpaceOnUse" /><linearGradient
       inkscape:collect="always"
       xlink:href="#linearGradient1"
       id="linearGradient6"
       x1="29.042969"
       y1="249.74609"
       x2="474.93555"
       y2="249.74609"
       gradientUnits="userSpaceOnUse" /></defs><g
     inkscape:label="Layer 1"
     inkscape:groupmode="layer"
     id="layer1"><path
       id="path4"
       style="opacity:0.19133443;color:#000000;fill:url(#linearGradient6);stroke-linejoin:bevel;stroke-miterlimit:10;-inkscape-stroke:none"
       d="M 296.32812 31.341797 L 285.24609 42.423828 L 285.24609 85.513672 L 40.125 85.513672 L 29.042969 96.595703 L 29.042969 457.07031 L 40.125 468.15039 L 463.85547 468.15039 L 474.93555 457.07031 L 474.93555 42.423828 L 462.17969 31.46875 C 459.67879 31.851274 446.6057 32.436642 430.85742 32.572266 C 415.10916 32.707888 395.68373 32.617416 376.55469 32.435547 C 338.29661 32.071807 302.15462 31.341797 296.32812 31.341797 z " /><path
       style="fill:none;stroke:url(#linearGradient4);stroke-width:50;stroke-linecap:round;stroke-linejoin:bevel;paint-order:markers fill stroke;stroke-opacity:1"
       d="M 43.979119,450.13181 V 98.591456"
       id="path1" /><path
       id="path1-3"
       style="fill:url(#linearGradient2);stroke-width:13.4555"
       d="m 240.82439,79.539629 a 214.76261,214.76261 0 0 0 -50.19016,17.15447 378.66357,378.66357 0 0 0 3.122,41.322811 206.03002,206.03002 0 0 0 -18.51397,12.02851 175.72832,175.72832 0 0 0 -17.19681,14.14225 330.37192,330.37192 0 0 0 -33.50452,-19.48459 255.92286,255.92286 0 0 0 -33.772667,44.24253 360.4987,360.4987 0 0 0 22.793177,32.87104 l 0.22893,-0.0126 v 90.51412 l 12.20414,4.11771 a 5.0323423,5.0323423 0 0 1 3.445,4.77629 v 22.20202 l 24.96022,8.07231 v -23.46587 a 5.0592532,5.0592532 0 0 1 5.98681,-4.96445 l 42.9097,8.19463 a 5.0323423,5.0323423 0 0 1 4.10359,4.95033 v 24.46316 l 37.33997,5.0993 v -25.43064 a 5.0323423,5.0323423 0 0 1 5.05853,-5.04599 l 31.31083,0.12074 31.29827,-0.12074 a 5.0323423,5.0323423 0 0 1 5.07265,5.04599 v 25.43064 l 37.33841,-5.0993 v -24.4757 a 5.0188868,5.0188868 0 0 1 4.03616,-4.9519 l 42.90969,-8.19463 a 5.0727086,5.0727086 0 0 1 6.00093,4.96602 v 23.42509 l 24.96022,-8.07232 v -22.16118 a 5.0323423,5.0323423 0 0 1 3.43089,-4.77785 l 8.31537,-2.79897 v -91.81875 h 0.22895 a 360.4987,360.4987 0 0 0 22.82138,-32.8585 255.92286,255.92286 0 0 0 -33.76011,-44.24253 329.75297,329.75297 0 0 0 -33.51864,19.48459 175.05554,175.05554 0 0 0 -17.20935,-14.15479 206.74315,206.74315 0 0 0 -18.50143,-12.03007 381.50268,381.50268 0 0 0 3.12201,-41.321256 214.8568,214.8568 0 0 0 -50.2027,-17.141925 355.76238,355.76238 0 0 0 -18.63472,36.328581 127.28865,127.28865 0 0 0 -19.55045,-1.56021 h -0.24305 a 127.24829,127.24829 0 0 0 -19.56455,1.56021 353.54223,353.54223 0 0 0 -18.6347,-36.328581 z M 194.67196,228.38363 a 36.854507,36.854507 0 0 1 36.868,36.84135 36.854507,36.854507 0 1 1 -36.868,-36.84135 z m 173.42634,0 a 36.854507,36.854507 0 1 1 -36.86799,36.84135 36.854507,36.854507 0 0 1 36.86799,-36.84135 z m -87.89077,21.62812 a 11.921538,11.921538 0 0 1 13.03833,10.73174 v 33.93417 a 11.369864,11.369864 0 0 1 -11.88111,10.76467 l 0.0141,0.0141 a 11.356409,11.356409 0 0 1 -11.86857,-10.76465 v -33.94829 a 11.921538,11.921538 0 0 1 10.69725,-10.73174 z M 97.805671,317.53982 a 61.329989,61.329989 0 0 0 -1.668408,13.99329 c 0,58.08716 81.836527,102.93474 182.994587,103.25766 h 0.25559 c 101.14459,-0.32292 182.99458,-45.15704 182.99458,-103.25766 a 61.087791,61.087791 0 0 0 -1.34695,-12.78274 l -18.19095,6.06835 v 22.22867 a 5.0323423,5.0323423 0 0 1 -3.49832,4.80294 l -34.98477,11.31662 a 4.9381541,4.9381541 0 0 1 -4.50658,-0.72757 5.0323423,5.0323423 0 0 1 -2.0855,-4.03617 v -24.22009 l -32.80518,6.24398 v 24.6372 a 5.0457977,5.0457977 0 0 1 -4.37329,4.9911 l -47.43039,6.49956 h -0.6868 a 5.0323423,5.0323423 0 0 1 -5.07265,-5.03187 V 345.379 l -24.47412,0.10661 h -3.59397 L 254.85843,345.379 v 26.14409 a 5.0457977,5.0457977 0 0 1 -5.04599,5.05853 h -0.70092 l -47.43037,-6.49957 a 5.0457977,5.0457977 0 0 1 -4.35918,-4.9911 v -24.73128 l -32.81772,-6.24398 v 24.2201 a 5.0323423,5.0323423 0 0 1 -2.0714,4.03772 4.9785205,4.9785205 0 0 1 -4.52225,0.72602 L 122.9274,351.7829 a 5.0323423,5.0323423 0 0 1 -3.48577,-4.80293 v -22.16125 z" /></g></svg>
