<?xml version="1.0" encoding="UTF-8" standalone="no"?>
<!-- Created with Inkscape (http://www.inkscape.org/) -->

<svg
   width="500"
   height="500"
   viewBox="0 0 500 500"
   version="1.1"
   id="svg1"
   inkscape:version="1.3.2 (091e20ef0f, 2023-11-25, custom)"
   sodipodi:docname="folder.tmp.svg"
   xml:space="preserve"
   xmlns:inkscape="http://www.inkscape.org/namespaces/inkscape"
   xmlns:sodipodi="http://sodipodi.sourceforge.net/DTD/sodipodi-0.dtd"
   xmlns="http://www.w3.org/2000/svg"
   xmlns:svg="http://www.w3.org/2000/svg"><sodipodi:namedview
     id="namedview1"
     pagecolor="#505050"
     bordercolor="#eeeeee"
     borderopacity="1"
     inkscape:showpageshadow="0"
     inkscape:pageopacity="0"
     inkscape:pagecheckerboard="0"
     inkscape:deskcolor="#505050"
     inkscape:document-units="px"
     inkscape:zoom="0.96390292"
     inkscape:cx="187.77825"
     inkscape:cy="269.21798"
     inkscape:window-width="1362"
     inkscape:window-height="744"
     inkscape:window-x="0"
     inkscape:window-y="20"
     inkscape:window-maximized="0"
     inkscape:current-layer="layer1"
     showguides="true"><sodipodi:guide
       position="250.02518,350.60736"
       orientation="-0.99997769,0.0066803918"
       id="guide30"
       inkscape:locked="false" /><sodipodi:guide
       position="66.396728,247.89992"
       orientation="0,-1"
       id="guide53"
       inkscape:locked="false" /></sodipodi:namedview><defs
     id="defs1"><linearGradient
       id="swatch61"
       inkscape:swatch="solid"><stop
         style="stop-color:#5090d0;stop-opacity:1;"
         offset="0"
         id="stop61" /></linearGradient><linearGradient
       id="swatch30"
       inkscape:swatch="solid"><stop
         style="stop-color:#f9f9f9;stop-opacity:1;"
         offset="0"
         id="stop30" /></linearGradient><inkscape:perspective
       sodipodi:type="inkscape:persp3d"
       inkscape:vp_x="44.06818 : 315.96746 : 1"
       inkscape:vp_y="0 : 1000 : 0"
       inkscape:vp_z="480.74134 : 298.68846 : 1"
       inkscape:persp3d-origin="250 : 166.66667 : 1"
       id="perspective17" /><inkscape:perspective
       sodipodi:type="inkscape:persp3d"
       inkscape:vp_x="44.06818 : 315.96746 : 1"
       inkscape:vp_y="0 : 1000 : 0"
       inkscape:vp_z="480.74134 : 298.68846 : 1"
       inkscape:persp3d-origin="250 : 166.66667 : 1"
       id="perspective17-7" /></defs><g
     inkscape:label="Layer 1"
     inkscape:groupmode="layer"
     id="layer1"><g
       inkscape:label="Layer 1"
       id="layer1-7"
       transform="translate(4.8298399,1.8196122)"><path
         id="rect53-0"
         style="opacity:0.1818823;fill:none;fill-opacity:0.3137255;fill-rule:nonzero;stroke:#e9d667;stroke-width:22.0622;stroke-linecap:butt;stroke-linejoin:round;stroke-dasharray:none;stroke-opacity:1;paint-order:markers fill stroke"
         d="m 462.68749,104.21979 c 0,-1.64895 -0.59137,-3.17324 -1.54688,-4.517583 v -48.26953 c 0,-5.97292 -5.36366,-10.78125 -12.02538,-10.78125 H 307.18359 c -6.66173,0 -12.02344,4.80833 -12.02344,10.78125 v 43.39063 H 51.087889 c -6.7206,0 -12.13086,4.19106 -12.13086,9.396483 v 341.68359 c 0,5.20542 5.41026,9.39453 12.13086,9.39453 H 450.55663 c 6.7206,0 12.13086,-4.18911 12.13086,-9.39453 z" /><path
         style="fill:none;stroke:#e9d667;stroke-width:50;stroke-linecap:round;stroke-linejoin:bevel;stroke-opacity:1;paint-order:markers fill stroke"
         d="M 43.979119,450.13181 V 98.591456"
         id="path1-6" /></g><path
       id="rect3"
       style="color:#000000;fill:#e9d667;stroke-width:0.895776;stroke-linecap:round;stroke-miterlimit:10;-inkscape-stroke:none;fill-opacity:1"
       d="m 260.43269,20.509744 c -16.37059,0 -29.76004,13.389467 -29.76004,29.760043 V 152.61567 c 0,8.61287 5.11415,15.10073 10.43263,18.94074 5.31851,3.84002 10.95688,6.32303 15.37865,9.53512 l 91.66131,66.58483 -90.27566,66.60057 c -15.16282,1.32955 -27.19693,14.00586 -27.19693,29.49935 v 102.34587 c 0,16.37058 13.38947,29.7583 29.76004,29.7583 h 194.07716 c 16.37058,0 29.76003,-13.38772 29.76003,-29.7583 V 343.77628 c 0,-8.61288 -5.11415,-15.10075 -10.43264,-18.94075 -5.31849,-3.84002 -10.95687,-6.32478 -15.37863,-9.53688 l -91.6613,-66.58306 90.27739,-66.60056 c 15.16205,-1.33036 27.19518,-14.00644 27.19518,-29.49936 V 50.269787 c 0,-16.370588 -13.38945,-29.760043 -29.76003,-29.760043 z m 0,13.436638 h 194.07716 c 9.1591,0 16.3234,7.164273 16.3234,16.323405 V 152.61567 c 0,9.15912 -7.1643,16.32339 -16.3234,16.32339 h -2.2097 L 358.19121,238.36692 264.3797,170.2215 c -5.90578,-4.29011 -11.78814,-6.94575 -15.40838,-9.5596 -3.62024,-2.61387 -4.86204,-3.89428 -4.86204,-8.04623 V 50.269787 c 0,-9.159132 7.16427,-16.323405 16.32341,-16.323405 z m 96.31862,224.078628 93.81152,68.14543 c 5.90578,4.29011 11.78813,6.94402 15.40838,9.55785 3.62024,2.61386 4.86204,3.89601 4.86204,8.04799 v 102.34587 c 0,9.15911 -7.16429,16.32166 -16.3234,16.32166 H 260.43269 c -9.1591,0 -16.32341,-7.16256 -16.32341,-16.32166 V 343.77628 c 0,-9.15912 7.16431,-16.32343 16.32341,-16.32343 h 2.2097 z m -80.61105,76.10943 c -11.87168,0 -21.63858,9.7669 -21.63858,21.63859 v 74.67829 c 0,11.87169 9.7669,21.63858 21.63858,21.63859 h 161.4968 c 11.87165,0 21.63859,-9.7669 21.63859,-21.63859 v -74.67829 c 0,-11.87169 -9.76694,-21.63859 -21.63859,-21.63859 z" /></g></svg>
