<?xml version="1.0" encoding="UTF-8" standalone="no"?>
<!-- Created with Inkscape (http://www.inkscape.org/) -->

<svg
   width="500"
   height="500"
   viewBox="0 0 500 500"
   version="1.1"
   id="svg1"
   inkscape:version="1.3.2 (091e20ef0f, 2023-11-25, custom)"
   sodipodi:docname="folder.audio.svg"
   xml:space="preserve"
   xmlns:inkscape="http://www.inkscape.org/namespaces/inkscape"
   xmlns:sodipodi="http://sodipodi.sourceforge.net/DTD/sodipodi-0.dtd"
   xmlns:xlink="http://www.w3.org/1999/xlink"
   xmlns="http://www.w3.org/2000/svg"
   xmlns:svg="http://www.w3.org/2000/svg"><sodipodi:namedview
     id="namedview1"
     pagecolor="#505050"
     bordercolor="#eeeeee"
     borderopacity="1"
     inkscape:showpageshadow="0"
     inkscape:pageopacity="0"
     inkscape:pagecheckerboard="0"
     inkscape:deskcolor="#505050"
     inkscape:document-units="px"
     inkscape:zoom="0.68158229"
     inkscape:cx="134.24645"
     inkscape:cy="308.84018"
     inkscape:window-width="1352"
     inkscape:window-height="734"
     inkscape:window-x="4"
     inkscape:window-y="24"
     inkscape:window-maximized="0"
     inkscape:current-layer="svg1"
     showguides="true"><sodipodi:guide
       position="249.39593,481.60855"
       orientation="-0.99997769,0.0066803918"
       id="guide30"
       inkscape:locked="false" /><sodipodi:guide
       position="-87.521246,250.03545"
       orientation="0,-1"
       id="guide53"
       inkscape:locked="false" /></sodipodi:namedview><defs
     id="defs1"><linearGradient
       id="linearGradient1"
       inkscape:collect="always"><stop
         style="stop-color:#ff1b1b;stop-opacity:1;"
         offset="0"
         id="stop1" /><stop
         style="stop-color:#fd5662;stop-opacity:1;"
         offset="0.41945991"
         id="stop4" /><stop
         style="stop-color:#e711e9;stop-opacity:1;"
         offset="0.87764716"
         id="stop3" /><stop
         style="stop-color:#3336ff;stop-opacity:1;"
         offset="1"
         id="stop2" /></linearGradient><linearGradient
       id="swatch61"
       inkscape:swatch="solid"><stop
         style="stop-color:#5090d0;stop-opacity:1;"
         offset="0"
         id="stop61" /></linearGradient><linearGradient
       id="swatch30"
       inkscape:swatch="solid"><stop
         style="stop-color:#f9f9f9;stop-opacity:1;"
         offset="0"
         id="stop30" /></linearGradient><inkscape:perspective
       sodipodi:type="inkscape:persp3d"
       inkscape:vp_x="44.06818 : 315.96746 : 1"
       inkscape:vp_y="0 : 1000 : 0"
       inkscape:vp_z="480.74134 : 298.68846 : 1"
       inkscape:persp3d-origin="250 : 166.66667 : 1"
       id="perspective17" /><inkscape:perspective
       sodipodi:type="inkscape:persp3d"
       inkscape:vp_x="44.06818 : 315.96746 : 1"
       inkscape:vp_y="0 : 1000 : 0"
       inkscape:vp_z="480.74134 : 298.68846 : 1"
       inkscape:persp3d-origin="250 : 166.66667 : 1"
       id="perspective17-4" /><inkscape:perspective
       sodipodi:type="inkscape:persp3d"
       inkscape:vp_x="44.06818 : 315.96746 : 1"
       inkscape:vp_y="0 : 1000 : 0"
       inkscape:vp_z="480.74134 : 298.68846 : 1"
       inkscape:persp3d-origin="250 : 166.66667 : 1"
       id="perspective17-1" /><inkscape:perspective
       sodipodi:type="inkscape:persp3d"
       inkscape:vp_x="44.06818 : 315.96746 : 1"
       inkscape:vp_y="0 : 1000 : 0"
       inkscape:vp_z="480.74134 : 298.68846 : 1"
       inkscape:persp3d-origin="250 : 166.66667 : 1"
       id="perspective17-3" /><inkscape:perspective
       sodipodi:type="inkscape:persp3d"
       inkscape:vp_x="44.06818 : 315.96746 : 1"
       inkscape:vp_y="0 : 1000 : 0"
       inkscape:vp_z="480.74134 : 298.68846 : 1"
       inkscape:persp3d-origin="250 : 166.66667 : 1"
       id="perspective17-8" /><linearGradient
       id="paint0_linear"
       x1="6.0002"
       y1="32.9999"
       x2="235"
       y2="344"
       gradientUnits="userSpaceOnUse"
       gradientTransform="matrix(0.07142,0,0,0.07142,1.3398,1.8944)"><stop
         stop-color="#41D1FF"
         id="stop38" /><stop
         stop-color="#41D1FF"
         id="stop9"
         offset="0.43069324"
         style="stop-color:#4ac4fe;stop-opacity:1;" /><stop
         stop-color="#41D1FF"
         id="stop10"
         offset="0.43209678"
         style="stop-color:#b340fe;stop-opacity:1;" /><stop
         offset="1"
         stop-color="#BD34FE"
         id="stop40" /></linearGradient><linearGradient
       id="paint1_linear"
       x1="194.651"
       y1="8.8182"
       x2="236.076"
       y2="292.989"
       gradientUnits="userSpaceOnUse"
       gradientTransform="matrix(1.5133251,0,0,1.5133251,-91.219303,1.6510683)"><stop
         stop-color="#FFEA83"
         id="stop43" /><stop
         stop-color="#FFEA83"
         id="stop11"
         offset="0.31571853"
         style="stop-color:#ffe97d;stop-opacity:1;" /><stop
         offset="0.31571853"
         stop-color="#FFDD35"
         id="stop45" /><stop
         offset="1"
         stop-color="#FFA800"
         id="stop47" /></linearGradient><inkscape:perspective
       sodipodi:type="inkscape:persp3d"
       inkscape:vp_x="44.06818 : 315.96746 : 1"
       inkscape:vp_y="0 : 1000 : 0"
       inkscape:vp_z="480.74134 : 298.68846 : 1"
       inkscape:persp3d-origin="250 : 166.66667 : 1"
       id="perspective17-5" /><linearGradient
       inkscape:collect="always"
       xlink:href="#linearGradient1"
       id="linearGradient6"
       x1="250.65765"
       y1="-130.59515"
       x2="250.65765"
       y2="764.82269"
       gradientUnits="userSpaceOnUse"
       gradientTransform="matrix(0.82181784,0,0,0.82181784,95.081502,46.601627)" /><inkscape:perspective
       sodipodi:type="inkscape:persp3d"
       inkscape:vp_x="44.06818 : 315.96746 : 1"
       inkscape:vp_y="0 : 1000 : 0"
       inkscape:vp_z="480.74134 : 298.68846 : 1"
       inkscape:persp3d-origin="250 : 166.66667 : 1"
       id="perspective17-32" /><inkscape:perspective
       sodipodi:type="inkscape:persp3d"
       inkscape:vp_x="44.06818 : 315.96746 : 1"
       inkscape:vp_y="0 : 1000 : 0"
       inkscape:vp_z="480.74134 : 298.68846 : 1"
       inkscape:persp3d-origin="250 : 166.66667 : 1"
       id="perspective17-5-0" /><inkscape:perspective
       sodipodi:type="inkscape:persp3d"
       inkscape:vp_x="44.06818 : 315.96746 : 1"
       inkscape:vp_y="0 : 1000 : 0"
       inkscape:vp_z="480.74134 : 298.68846 : 1"
       inkscape:persp3d-origin="250 : 166.66667 : 1"
       id="perspective17-2" /><inkscape:perspective
       sodipodi:type="inkscape:persp3d"
       inkscape:vp_x="44.06818 : 315.96746 : 1"
       inkscape:vp_y="0 : 1000 : 0"
       inkscape:vp_z="480.74134 : 298.68846 : 1"
       inkscape:persp3d-origin="250 : 166.66667 : 1"
       id="perspective17-29" /><inkscape:perspective
       sodipodi:type="inkscape:persp3d"
       inkscape:vp_x="44.06818 : 315.96746 : 1"
       inkscape:vp_y="0 : 1000 : 0"
       inkscape:vp_z="480.74134 : 298.68846 : 1"
       inkscape:persp3d-origin="250 : 166.66667 : 1"
       id="perspective17-2-1" /></defs><g
     inkscape:label="Layer 1"
     id="layer1"
     transform="translate(0.20794619,-3.0019707)"><path
       id="rect53-0-5"
       style="opacity:0.222881;fill:#f94a7a;fill-opacity:1;fill-rule:nonzero;stroke:#f94a7a;stroke-width:22.162;stroke-linecap:butt;stroke-linejoin:bevel;stroke-miterlimit:10;stroke-dasharray:none;stroke-opacity:1;paint-order:normal"
       d="m 463.85552,42.423164 c -19.06075,2.91543 -158.1781,0 -167.5275,0 V 96.595326 L 40.124908,96.595166 V 457.07016 c 59.556727,0 399.686272,0 423.730462,0 z"
       sodipodi:nodetypes="ccccccc" /><path
       style="fill:none;stroke:#fd5662;stroke-width:50;stroke-linecap:round;stroke-linejoin:bevel;stroke-opacity:1;paint-order:markers fill stroke"
       d="M 43.979119,450.13181 V 98.591456"
       id="path1-6" /></g><path
     id="path1"
     style="fill:url(#linearGradient6);stroke:none;stroke-width:16.4363;stroke-linecap:round;stroke-linejoin:round;stroke-miterlimit:10"
     d="M 297.66443,64.497731 A 186.58513,186.58513 0 0 0 111.07877,251.08339 186.58513,186.58513 0 0 0 297.66443,437.66904 186.58513,186.58513 0 0 0 484.25008,251.08339 186.58513,186.58513 0 0 0 297.66443,64.497731 Z m 1.37663,38.916549 a 10.160968,10.160968 0 0 1 10.16175,10.16175 v 278.97155 a 10.160968,10.160968 0 0 1 -10.16175,10.16175 10.160968,10.160968 0 0 1 -10.16022,-10.16175 V 113.57603 a 10.160968,10.160968 0 0 1 10.16022,-10.16175 z m -87.81565,19.90481 a 10.160968,10.160968 0 0 1 10.16175,10.16174 V 372.57172 A 10.160968,10.160968 0 0 1 211.22541,382.73193 10.160968,10.160968 0 0 1 201.0652,372.57172 V 133.48083 a 10.160968,10.160968 0 0 1 10.16021,-10.16174 z m 181.97834,15.17234 a 10.160968,10.160968 0 0 1 10.16175,10.16174 v 223.91855 a 10.160968,10.160968 0 0 1 -10.16175,10.16021 10.160968,10.160968 0 0 1 -10.16021,-10.16021 V 148.65317 a 10.160968,10.160968 0 0 1 10.16021,-10.16174 z m -135.88814,43.86068 a 10.160968,10.160968 0 0 1 10.1602,10.16176 v 112.43592 a 10.160968,10.160968 0 0 1 -10.1602,10.16176 10.160968,10.160968 0 0 1 -10.16021,-10.16176 V 192.51387 a 10.160968,10.160968 0 0 1 10.16021,-10.16176 z m 90.15484,0 a 10.160968,10.160968 0 0 1 10.16021,10.16176 v 112.43592 a 10.160968,10.160968 0 0 1 -10.16021,10.16176 10.160968,10.160968 0 0 1 -10.16021,-10.16176 V 192.51387 a 10.160968,10.160968 0 0 1 10.16021,-10.16176 z m -173.17313,36.38425 a 10.160968,10.160968 0 0 1 10.16175,10.1602 v 52.64891 a 10.160968,10.160968 0 0 1 -10.16175,10.16175 10.160968,10.160968 0 0 1 -10.16175,-10.16175 v -52.64891 a 10.160968,10.160968 0 0 1 10.16175,-10.1602 z m 259.09147,9.38459 a 10.160968,10.160968 0 0 1 10.16175,10.16175 v 27.28702 a 10.160968,10.160968 0 0 1 -10.16175,10.16174 10.160968,10.160968 0 0 1 -10.1602,-10.16174 V 238.2827 a 10.160968,10.160968 0 0 1 10.1602,-10.16175 z" /></svg>
