<?xml version="1.0" encoding="UTF-8" standalone="no"?>
<!-- Created with Inkscape (http://www.inkscape.org/) -->

<svg
   width="500"
   height="500"
   viewBox="0 0 500 500"
   version="1.1"
   id="svg1"
   inkscape:version="1.3.2 (091e20ef0f, 2023-11-25, custom)"
   sodipodi:docname="folder.gradle.svg"
   xml:space="preserve"
   xmlns:inkscape="http://www.inkscape.org/namespaces/inkscape"
   xmlns:sodipodi="http://sodipodi.sourceforge.net/DTD/sodipodi-0.dtd"
   xmlns="http://www.w3.org/2000/svg"
   xmlns:svg="http://www.w3.org/2000/svg"><sodipodi:namedview
     id="namedview1"
     pagecolor="#505050"
     bordercolor="#eeeeee"
     borderopacity="1"
     inkscape:showpageshadow="0"
     inkscape:pageopacity="0"
     inkscape:pagecheckerboard="0"
     inkscape:deskcolor="#505050"
     inkscape:document-units="px"
     inkscape:zoom="0.96390292"
     inkscape:cx="187.25952"
     inkscape:cy="269.21798"
     inkscape:window-width="1362"
     inkscape:window-height="744"
     inkscape:window-x="0"
     inkscape:window-y="20"
     inkscape:window-maximized="0"
     inkscape:current-layer="layer1"
     showguides="true"><sodipodi:guide
       position="250.02518,350.60736"
       orientation="-0.99997769,0.0066803918"
       id="guide30"
       inkscape:locked="false" /><sodipodi:guide
       position="66.396728,247.89992"
       orientation="0,-1"
       id="guide53"
       inkscape:locked="false" /></sodipodi:namedview><defs
     id="defs1"><linearGradient
       id="swatch61"
       inkscape:swatch="solid"><stop
         style="stop-color:#5090d0;stop-opacity:1;"
         offset="0"
         id="stop61" /></linearGradient><linearGradient
       id="swatch30"
       inkscape:swatch="solid"><stop
         style="stop-color:#f9f9f9;stop-opacity:1;"
         offset="0"
         id="stop30" /></linearGradient><inkscape:perspective
       sodipodi:type="inkscape:persp3d"
       inkscape:vp_x="44.06818 : 315.96746 : 1"
       inkscape:vp_y="0 : 1000 : 0"
       inkscape:vp_z="480.74134 : 298.68846 : 1"
       inkscape:persp3d-origin="250 : 166.66667 : 1"
       id="perspective17" /><inkscape:perspective
       sodipodi:type="inkscape:persp3d"
       inkscape:vp_x="44.06818 : 315.96746 : 1"
       inkscape:vp_y="0 : 1000 : 0"
       inkscape:vp_z="480.74134 : 298.68846 : 1"
       inkscape:persp3d-origin="250 : 166.66667 : 1"
       id="perspective17-7" /></defs><g
     inkscape:label="Layer 1"
     inkscape:groupmode="layer"
     id="layer1"><g
       inkscape:label="Layer 1"
       id="layer1-7"
       transform="translate(4.8298399,1.8196122)"><path
         id="rect53-0"
         style="opacity:0.582572;fill:#40a6ff;fill-opacity:0.3137255;fill-rule:nonzero;stroke:#40a6ff;stroke-width:22.0622;stroke-linecap:butt;stroke-linejoin:round;stroke-dasharray:none;stroke-opacity:1;paint-order:markers fill stroke"
         d="m 462.68749,104.21979 c 0,-1.64895 -0.59137,-3.17324 -1.54688,-4.517583 v -48.26953 c 0,-5.97292 -5.36366,-10.78125 -12.02538,-10.78125 H 307.18359 c -6.66173,0 -12.02344,4.80833 -12.02344,10.78125 v 43.39063 H 51.087889 c -6.7206,0 -12.13086,4.19106 -12.13086,9.396483 v 341.68359 c 0,5.20542 5.41026,9.39453 12.13086,9.39453 H 450.55663 c 6.7206,0 12.13086,-4.18911 12.13086,-9.39453 z" /><path
         style="fill:none;stroke:#40a6ff;stroke-width:50;stroke-linecap:round;stroke-linejoin:bevel;stroke-opacity:1;paint-order:markers fill stroke"
         d="M 43.979119,450.13181 V 98.591456"
         id="path1-6" /></g><path
       style="opacity:1;fill:#2485d8;fill-opacity:1;stroke:none;stroke-width:12.5303;stroke-linecap:round;stroke-miterlimit:10;stroke-dasharray:none;stroke-opacity:1"
       d="m 369.9538,405.82177 -17.59178,8.16063 C 308.70548,352.47658 291.59338,342.55611 270.0211,346.6545 l 97.13118,-21.78793 c -26.5202,7.34175 -27.2345,28.99133 2.80152,80.9552 z"
       id="path3"
       sodipodi:nodetypes="ccccc" /><path
       id="path1"
       style="opacity:1;fill:#40a6ff;fill-opacity:1;stroke-width:25.0605;stroke-linecap:round;stroke-miterlimit:10"
       d="m 430.00587,89.191355 c -23.53216,0.764562 -46.95811,7.886966 -54.83772,10.260763 -6.69568,6.991222 5.09205,28.273282 14.00351,22.596842 118.31972,-40.441566 71.74329,99.73713 18.66766,104.64793 -40.55362,3.7522 -79.85492,-21.83709 -141.69768,-71.37338 -42.75624,-34.24789 -96.04507,-15.74606 -111.51417,-8.17402 -15.46909,7.57204 -44.3267,39.22286 -44.42358,90.21768 -0.028,14.73077 5.17711,30.26267 7.62274,42.24395 17.12694,-0.0585 32.00703,-3.17785 43.73181,-7.68781 9.79415,-3.76735 17.38267,-8.52277 22.1188,-12.93159 4.73613,-4.40885 5.25898,-10.99191 5.15239,-12.03272 -0.7314,-7.14217 -4.46836,-17.94124 -8.09571,-26.54192 -3.62734,-8.60065 -7.02867,-15.10642 -7.02867,-15.10642 -1.60407,-3.06676 -3.35298,-6.85322 -0.2857,-8.45628 1.47287,-0.76995 3.19133,-0.92315 4.77715,-0.42584 1.58539,0.49747 2.90821,1.60433 3.6775,3.07709 0,0 3.63033,6.94081 7.4692,16.04294 3.83883,9.10214 8.00469,20.26026 9.01588,30.13455 0.76472,7.46741 -3.55142,13.94891 -9.82676,19.7906 -6.27534,5.84169 -15.12393,11.2111 -26.15849,15.45558 -12.50935,4.81174 -27.85402,8.12481 -45.2622,8.51174 6.43129,24.14323 16.15925,45.88803 24.01301,74.18452 15.32333,-1.37123 62.66534,7.75742 63.97125,67.59616 9.57925,-0.29203 22.87774,-0.31882 32.30975,-0.90342 1.59744,-65.7779 26.50195,-81.99102 35.62567,-83.44761 C 398.94874,326.76834 422.61872,305.18424 447.74379,281.9787 489.05887,243.82008 506.52889,169.02319 486.88935,114.492 478.58579,91.436363 453.538,88.426793 430.00587,89.191355 Z M 294.48965,206.70725 c 25.41113,2.6e-4 46.01085,20.25155 46.01109,45.23283 6.7e-4,24.98194 -20.59931,45.2342 -46.01109,45.23446 -25.4124,6.2e-4 -46.01338,-20.25191 -46.0127,-45.23446 2.4e-4,-24.98191 20.60094,-45.23345 46.0127,-45.23283 z"
       sodipodi:nodetypes="sccsssscssssccccssssccccssssccccc" /></g></svg>
