<?xml version="1.0" encoding="UTF-8" standalone="no"?>
<!-- Created with Inkscape (http://www.inkscape.org/) -->

<svg
   width="500"
   height="500"
   viewBox="0 0 500 500"
   version="1.1"
   id="svg1"
   inkscape:version="1.3.2 (091e20ef0f, 2023-11-25, custom)"
   sodipodi:docname="folder.bsd.svg"
   xml:space="preserve"
   xmlns:inkscape="http://www.inkscape.org/namespaces/inkscape"
   xmlns:sodipodi="http://sodipodi.sourceforge.net/DTD/sodipodi-0.dtd"
   xmlns:xlink="http://www.w3.org/1999/xlink"
   xmlns="http://www.w3.org/2000/svg"
   xmlns:svg="http://www.w3.org/2000/svg"><sodipodi:namedview
     id="namedview1"
     pagecolor="#505050"
     bordercolor="#eeeeee"
     borderopacity="1"
     inkscape:showpageshadow="0"
     inkscape:pageopacity="0"
     inkscape:pagecheckerboard="0"
     inkscape:deskcolor="#505050"
     inkscape:document-units="px"
     inkscape:zoom="0.68158229"
     inkscape:cx="245.75169"
     inkscape:cy="236.94864"
     inkscape:window-width="1362"
     inkscape:window-height="744"
     inkscape:window-x="0"
     inkscape:window-y="20"
     inkscape:window-maximized="0"
     inkscape:current-layer="layer1"
     showguides="true"><sodipodi:guide
       position="250.02518,350.60736"
       orientation="-0.99997769,0.0066803918"
       id="guide30"
       inkscape:locked="false" /><sodipodi:guide
       position="66.396728,247.89992"
       orientation="0,-1"
       id="guide53"
       inkscape:locked="false" /></sodipodi:namedview><defs
     id="defs1"><linearGradient
       id="linearGradient1"
       inkscape:collect="always"><stop
         style="stop-color:#ffffff;stop-opacity:1;"
         offset="0"
         id="stop2" /><stop
         style="stop-color:#f1f612;stop-opacity:1;"
         offset="0.10925895"
         id="stop4" /><stop
         style="stop-color:#fa2555;stop-opacity:1;"
         offset="0.36860466"
         id="stop3" /><stop
         style="stop-color:#f82727;stop-opacity:0.1864228;"
         offset="0.76942891"
         id="stop1" /></linearGradient><inkscape:path-effect
       effect="offset"
       id="path-effect7"
       is_visible="true"
       lpeversion="1.2"
       linejoin_type="miter"
       unit="mm"
       offset="-6.5"
       miter_limit="4"
       attempt_force_join="false"
       update_on_knot_move="true" /><inkscape:path-effect
       effect="offset"
       id="path-effect5"
       is_visible="true"
       lpeversion="1.2"
       linejoin_type="miter"
       unit="mm"
       offset="-6.5"
       miter_limit="4"
       attempt_force_join="false"
       update_on_knot_move="true" /><inkscape:path-effect
       effect="offset"
       id="path-effect2"
       is_visible="true"
       lpeversion="1.2"
       linejoin_type="miter"
       unit="mm"
       offset="-6.5"
       miter_limit="4"
       attempt_force_join="false"
       update_on_knot_move="true" /><linearGradient
       id="swatch61"
       inkscape:swatch="solid"><stop
         style="stop-color:#5090d0;stop-opacity:1;"
         offset="0"
         id="stop61" /></linearGradient><linearGradient
       id="swatch30"
       inkscape:swatch="solid"><stop
         style="stop-color:#f9f9f9;stop-opacity:1;"
         offset="0"
         id="stop30" /></linearGradient><inkscape:perspective
       sodipodi:type="inkscape:persp3d"
       inkscape:vp_x="44.06818 : 315.96746 : 1"
       inkscape:vp_y="0 : 1000 : 0"
       inkscape:vp_z="480.74134 : 298.68846 : 1"
       inkscape:persp3d-origin="250 : 166.66667 : 1"
       id="perspective17" /><inkscape:perspective
       sodipodi:type="inkscape:persp3d"
       inkscape:vp_x="44.06818 : 315.96746 : 1"
       inkscape:vp_y="0 : 1000 : 0"
       inkscape:vp_z="480.74134 : 298.68846 : 1"
       inkscape:persp3d-origin="250 : 166.66667 : 1"
       id="perspective17-7" /><inkscape:perspective
       sodipodi:type="inkscape:persp3d"
       inkscape:vp_x="44.06818 : 315.96746 : 1"
       inkscape:vp_y="0 : 1000 : 0"
       inkscape:vp_z="480.74134 : 298.68846 : 1"
       inkscape:persp3d-origin="250 : 166.66667 : 1"
       id="perspective17-9" /><inkscape:perspective
       sodipodi:type="inkscape:persp3d"
       inkscape:vp_x="44.06818 : 315.96746 : 1"
       inkscape:vp_y="0 : 1000 : 0"
       inkscape:vp_z="480.74134 : 298.68846 : 1"
       inkscape:persp3d-origin="250 : 166.66667 : 1"
       id="perspective17-5" /><inkscape:perspective
       sodipodi:type="inkscape:persp3d"
       inkscape:vp_x="44.06818 : 315.96746 : 1"
       inkscape:vp_y="0 : 1000 : 0"
       inkscape:vp_z="480.74134 : 298.68846 : 1"
       inkscape:persp3d-origin="250 : 166.66667 : 1"
       id="perspective17-2" /><radialGradient
       inkscape:collect="always"
       xlink:href="#linearGradient1"
       id="radialGradient4"
       cx="372.14838"
       cy="214.1468"
       fx="372.14838"
       fy="214.1468"
       r="175.25224"
       gradientTransform="matrix(2.4095026,-1.391127,1.3696861,2.372366,-820.15769,122.58038)"
       gradientUnits="userSpaceOnUse" /></defs><g
     inkscape:label="Layer 1"
     inkscape:groupmode="layer"
     id="layer1"
     style="opacity:1"><path
       id="path8"
       style="opacity:0.12197399;color:#000000;fill:#fa2754;stroke-linejoin:bevel;stroke-miterlimit:10;-inkscape-stroke:none;fill-opacity:1"
       d="M 296.32857 31.342287 L 285.24654 42.424318 L 285.24654 85.514162 L 40.125445 85.514162 L 29.043414 96.596193 L 29.043414 457.0708 L 40.125445 468.15088 L 463.85591 468.15088 L 474.93599 457.0708 L 474.93599 42.424318 L 462.18013 31.46924 C 459.67924 31.851764 446.60614 32.437132 430.85787 32.572756 C 415.1096 32.708379 395.68417 32.617906 376.55513 32.436037 C 338.29705 32.072298 302.15506 31.342287 296.32857 31.342287 z "
       transform="translate(3.4722108,-0.8461934)" /><path
       style="fill:none;stroke:#fa2754;stroke-width:50;stroke-linecap:round;stroke-linejoin:bevel;stroke-opacity:1;paint-order:markers fill stroke"
       d="M 43.979119,450.13181 V 98.591456"
       id="path1-6"
       transform="translate(4.8298399,1.8196122)" /><path
       id="rect3"
       style="color:#000000;display:none;fill:#e9d667;fill-opacity:1;stroke-width:0.895776;stroke-linecap:round;stroke-miterlimit:10;-inkscape-stroke:none"
       d="m 260.43269,20.509744 c -16.37059,0 -29.76004,13.389467 -29.76004,29.760043 V 152.61567 c 0,8.61287 5.11415,15.10073 10.43263,18.94074 5.31851,3.84002 10.95688,6.32303 15.37865,9.53512 l 91.66131,66.58483 -90.27566,66.60057 c -15.16282,1.32955 -27.19693,14.00586 -27.19693,29.49935 v 102.34587 c 0,16.37058 13.38947,29.7583 29.76004,29.7583 h 194.07716 c 16.37058,0 29.76003,-13.38772 29.76003,-29.7583 V 343.77628 c 0,-8.61288 -5.11415,-15.10075 -10.43264,-18.94075 -5.31849,-3.84002 -10.95687,-6.32478 -15.37863,-9.53688 l -91.6613,-66.58306 90.27739,-66.60056 c 15.16205,-1.33036 27.19518,-14.00644 27.19518,-29.49936 V 50.269787 c 0,-16.370588 -13.38945,-29.760043 -29.76003,-29.760043 z m 0,13.436638 h 194.07716 c 9.1591,0 16.3234,7.164273 16.3234,16.323405 V 152.61567 c 0,9.15912 -7.1643,16.32339 -16.3234,16.32339 h -2.2097 L 358.19121,238.36692 264.3797,170.2215 c -5.90578,-4.29011 -11.78814,-6.94575 -15.40838,-9.5596 -3.62024,-2.61387 -4.86204,-3.89428 -4.86204,-8.04623 V 50.269787 c 0,-9.159132 7.16427,-16.323405 16.32341,-16.323405 z m 96.31862,224.078628 93.81152,68.14543 c 5.90578,4.29011 11.78813,6.94402 15.40838,9.55785 3.62024,2.61386 4.86204,3.89601 4.86204,8.04799 v 102.34587 c 0,9.15911 -7.16429,16.32166 -16.3234,16.32166 H 260.43269 c -9.1591,0 -16.32341,-7.16256 -16.32341,-16.32166 V 343.77628 c 0,-9.15912 7.16431,-16.32343 16.32341,-16.32343 h 2.2097 z m -80.61105,76.10943 c -11.87168,0 -21.63858,9.7669 -21.63858,21.63859 v 74.67829 c 0,11.87169 9.7669,21.63858 21.63858,21.63859 h 161.4968 c 11.87165,0 21.63859,-9.7669 21.63859,-21.63859 v -74.67829 c 0,-11.87169 -9.76694,-21.63859 -21.63859,-21.63859 z" /><path
       fill="#9b2718"
       fill-rule="evenodd"
       d="m 472.80361,92.699156 c 18.58005,18.571354 -32.92789,100.208874 -41.63566,108.916644 -8.70777,8.69473 -30.82481,0.69523 -49.40051,-17.88048 -18.58006,-18.57136 -26.58391,-40.69275 -17.87613,-49.40052 8.70777,-8.71211 90.3366,-60.215699 108.9123,-41.635644 z M 212.25705,112.34812 C 183.89161,96.253521 143.53344,78.351326 130.6934,91.191374 c -13.01386,13.005166 5.54881,54.275816 21.80852,82.693386 14.4695,-25.16301 35.06138,-46.34584 59.75513,-61.53664 z m 232.21155,82.86286 c 2.61146,8.85985 2.13782,16.1815 -2.09439,20.40503 -9.89836,9.89835 -36.62564,-0.63439 -60.7154,-23.56832 -1.68594,-1.50779 -3.35015,-3.07207 -4.98829,-4.71454 -8.70777,-8.71647 -15.49061,-17.9978 -19.82278,-26.53611 -8.43837,-15.13432 -10.55012,-28.50882 -4.17139,-34.88322 3.47616,-3.47615 9.03801,-4.42341 15.82087,-3.19806 4.42774,-2.79396 9.64632,-5.91381 15.37328,-9.10753 -23.28588,-12.14482 -49.75682,-19.005882 -77.84416,-19.005882 -93.14359,0 -168.65873,75.502112 -168.65873,168.658722 0,93.13925 75.51514,168.65005 168.65873,168.65005 93.14795,0 168.66307,-75.5108 168.66307,-168.65005 0,-30.08178 -7.89521,-58.29078 -21.6912,-82.74553 -2.98515,5.43583 -5.88339,10.41977 -8.52961,14.69544 z"
       id="path1"
       style="fill:url(#radialGradient4);stroke-width:14.6044" /></g></svg>
