<?xml version="1.0" encoding="UTF-8" standalone="no"?>
<!-- Created with Inkscape (http://www.inkscape.org/) -->

<svg
   width="500"
   height="500"
   viewBox="0 0 500 500"
   version="1.1"
   id="svg1"
   inkscape:version="1.3.2 (091e20ef0f, 2023-11-25, custom)"
   sodipodi:docname="folder.docker.svg"
   xml:space="preserve"
   xmlns:inkscape="http://www.inkscape.org/namespaces/inkscape"
   xmlns:sodipodi="http://sodipodi.sourceforge.net/DTD/sodipodi-0.dtd"
   xmlns:xlink="http://www.w3.org/1999/xlink"
   xmlns="http://www.w3.org/2000/svg"
   xmlns:svg="http://www.w3.org/2000/svg"><sodipodi:namedview
     id="namedview1"
     pagecolor="#505050"
     bordercolor="#eeeeee"
     borderopacity="1"
     inkscape:showpageshadow="0"
     inkscape:pageopacity="0"
     inkscape:pagecheckerboard="0"
     inkscape:deskcolor="#505050"
     inkscape:document-units="px"
     inkscape:zoom="1"
     inkscape:cx="247.5"
     inkscape:cy="265.5"
     inkscape:window-width="1362"
     inkscape:window-height="744"
     inkscape:window-x="0"
     inkscape:window-y="20"
     inkscape:window-maximized="1"
     inkscape:current-layer="layer4"
     showguides="true"><sodipodi:guide
       position="250.02518,350.60736"
       orientation="-0.99997769,0.0066803918"
       id="guide30"
       inkscape:locked="false" /><sodipodi:guide
       position="66.396728,247.89992"
       orientation="0,-1"
       id="guide53"
       inkscape:locked="false" /><sodipodi:guide
       position="221.35979,127.71308"
       orientation="0,-1"
       id="guide5"
       inkscape:locked="false" /><sodipodi:guide
       position="96.959247,117.65127"
       orientation="1,0"
       id="guide6"
       inkscape:locked="false" /><sodipodi:guide
       position="400.64293,118.56598"
       orientation="1,0"
       id="guide7"
       inkscape:locked="false" /></sodipodi:namedview><defs
     id="defs1"><linearGradient
       id="swatch61"
       inkscape:swatch="solid"><stop
         style="stop-color:#5090d0;stop-opacity:1;"
         offset="0"
         id="stop61" /></linearGradient><linearGradient
       id="swatch30"
       inkscape:swatch="solid"><stop
         style="stop-color:#f9f9f9;stop-opacity:1;"
         offset="0"
         id="stop30" /></linearGradient><inkscape:perspective
       sodipodi:type="inkscape:persp3d"
       inkscape:vp_x="44.06818 : 315.96746 : 1"
       inkscape:vp_y="0 : 1000 : 0"
       inkscape:vp_z="480.74134 : 298.68846 : 1"
       inkscape:persp3d-origin="250 : 166.66667 : 1"
       id="perspective17" /><inkscape:perspective
       sodipodi:type="inkscape:persp3d"
       inkscape:vp_x="44.06818 : 315.96746 : 1"
       inkscape:vp_y="0 : 1000 : 0"
       inkscape:vp_z="480.74134 : 298.68846 : 1"
       inkscape:persp3d-origin="250 : 166.66667 : 1"
       id="perspective17-2" /><inkscape:perspective
       sodipodi:type="inkscape:persp3d"
       inkscape:vp_x="44.06818 : 315.96746 : 1"
       inkscape:vp_y="0 : 1000 : 0"
       inkscape:vp_z="480.74134 : 298.68846 : 1"
       inkscape:persp3d-origin="250 : 166.66667 : 1"
       id="perspective17-0" /><inkscape:perspective
       sodipodi:type="inkscape:persp3d"
       inkscape:vp_x="44.06818 : 315.96746 : 1"
       inkscape:vp_y="0 : 1000 : 0"
       inkscape:vp_z="480.74134 : 298.68846 : 1"
       inkscape:persp3d-origin="250 : 166.66667 : 1"
       id="perspective17-3" /><inkscape:perspective
       sodipodi:type="inkscape:persp3d"
       inkscape:vp_x="44.06818 : 315.96746 : 1"
       inkscape:vp_y="0 : 1000 : 0"
       inkscape:vp_z="480.74134 : 298.68846 : 1"
       inkscape:persp3d-origin="250 : 166.66667 : 1"
       id="perspective17-1" /></defs><g
     inkscape:label="Layer 1"
     inkscape:groupmode="layer"
     id="layer1"><g
       inkscape:groupmode="layer"
       id="layer4"
       inkscape:label="Layer 2"
       transform="matrix(0.84296282,0,0,0.84296282,85.207686,46.443084)"
       style="display:inline"><path
         id="path1"
         style="fill:#40aefc;fill-opacity:1;stroke:none;stroke-width:50;stroke-linejoin:bevel;stroke-opacity:1;paint-order:markers fill stroke"
         d="m 432.02539,140.74219 c -19.55679,8.8981 -37.24215,22.91529 -42.96094,41.17187 -5.71877,18.25657 -7.27933,32.90812 -0.21679,55.13477 l -9.73633,14.66015 H 20.296875 c -23.0195686,73.10499 3.356978,138.64852 58.210937,169.58985 25.193338,-7.68515 51.084458,-17.68845 63.689458,-29.00781 28.90586,-25.95769 48.29882,-66.5625 48.29882,-66.5625 12.88557,5.46944 34.45036,35.78085 37.86914,100.38476 143.71034,-52.3861 183.20313,-155.38281 183.20313,-155.38281 27.31797,30.00129 63.53585,13.30446 85.03516,-18.12891 -22.79577,-8.50042 -37.54724,-40.66469 -70.69336,-20.92187 22.45862,-24.97058 21.31595,-30.18427 22.4375,-43.61914 1.12156,-13.4349 -5.30824,-28.36323 -16.32227,-47.31836 z M 91.246094,270.05078 c 27.690876,-1.2e-4 50.138786,22.4478 50.138676,50.13867 -9.6e-4,27.69011 -22.44856,50.13684 -50.138676,50.13672 -27.69011,1.2e-4 -50.13771,-22.44661 -50.138672,-50.13672 -1.15e-4,-27.69087 22.447801,-50.13879 50.138672,-50.13867 z"
         sodipodi:nodetypes="csccccscccccscccccc" /><rect
         style="fill:#40aefc;fill-opacity:1;stroke:none;stroke-width:50;stroke-linejoin:bevel;stroke-opacity:1;paint-order:markers fill stroke"
         id="rect2"
         width="48.820251"
         height="48.820251"
         x="69.415558"
         y="188.56326" /><use
         x="0"
         y="0"
         xlink:href="#rect2"
         id="use2"
         transform="translate(59.857483)" /><use
         x="0"
         y="0"
         xlink:href="#use2"
         id="use3"
         transform="translate(60.350861)" /><use
         x="0"
         y="0"
         xlink:href="#use3"
         id="use4"
         transform="translate(58.948242)" /><use
         x="0"
         y="0"
         xlink:href="#use4"
         id="use5"
         transform="translate(60.874146)" /><use
         x="0"
         y="0"
         xlink:href="#use2"
         id="use6"
         transform="translate(0,-64.529816)" /><use
         x="0"
         y="0"
         xlink:href="#use3"
         id="use7"
         transform="translate(0,-64.529816)" /><use
         x="0"
         y="0"
         xlink:href="#use4"
         id="use8"
         transform="translate(0,-64.529816)" /><use
         x="0"
         y="0"
         xlink:href="#use8"
         id="use9"
         transform="translate(0,-65.562302)" /></g><g
       inkscape:label="Layer 1"
       id="layer1-0"
       transform="translate(1.1511458,13.123932)"
       style="display:inline"><path
         id="rect53-0"
         style="opacity:0.157057;fill:#40aefc;fill-opacity:0.313725;fill-rule:nonzero;stroke:#40aefc;stroke-width:22.0622;stroke-linecap:butt;stroke-linejoin:round;stroke-dasharray:none;stroke-opacity:1;paint-order:markers fill stroke"
         d="m 462.68749,104.21979 c 0,-1.64895 -0.59137,-3.17324 -1.54688,-4.517583 v -48.26953 c 0,-5.97292 -5.36366,-10.78125 -12.02538,-10.78125 H 307.18359 c -6.66173,0 -12.02344,4.80833 -12.02344,10.78125 v 43.39063 H 51.087889 c -6.7206,0 -12.13086,4.19106 -12.13086,9.396483 v 341.68359 c 0,5.20542 5.41026,9.39453 12.13086,9.39453 H 450.55663 c 6.7206,0 12.13086,-4.18911 12.13086,-9.39453 z" /><path
         style="fill:none;stroke:#40aefc;stroke-width:50;stroke-linecap:round;stroke-linejoin:bevel;stroke-opacity:1;paint-order:markers fill stroke"
         d="M 43.979119,450.13181 V 98.591456"
         id="path1-8" /></g></g></svg>
