<?xml version="1.0" encoding="UTF-8" standalone="no"?>
<!-- Created with Inkscape (http://www.inkscape.org/) -->

<svg
   width="500"
   height="500"
   viewBox="0 0 500 500"
   version="1.1"
   id="svg1"
   inkscape:version="1.3.2 (091e20ef0f, 2023-11-25, custom)"
   sodipodi:docname="folder.osx.svg"
   xml:space="preserve"
   xmlns:inkscape="http://www.inkscape.org/namespaces/inkscape"
   xmlns:sodipodi="http://sodipodi.sourceforge.net/DTD/sodipodi-0.dtd"
   xmlns:xlink="http://www.w3.org/1999/xlink"
   xmlns="http://www.w3.org/2000/svg"
   xmlns:svg="http://www.w3.org/2000/svg"><sodipodi:namedview
     id="namedview1"
     pagecolor="#505050"
     bordercolor="#eeeeee"
     borderopacity="1"
     inkscape:showpageshadow="0"
     inkscape:pageopacity="0"
     inkscape:pagecheckerboard="0"
     inkscape:deskcolor="#505050"
     inkscape:document-units="px"
     inkscape:zoom="0.68158229"
     inkscape:cx="207.60516"
     inkscape:cy="278.02952"
     inkscape:window-width="1362"
     inkscape:window-height="744"
     inkscape:window-x="0"
     inkscape:window-y="20"
     inkscape:window-maximized="0"
     inkscape:current-layer="layer1"
     showguides="true"><sodipodi:guide
       position="250.02518,350.60736"
       orientation="-0.99997769,0.0066803918"
       id="guide30"
       inkscape:locked="false" /><sodipodi:guide
       position="66.396728,247.89992"
       orientation="0,-1"
       id="guide53"
       inkscape:locked="false" /></sodipodi:namedview><defs
     id="defs1"><linearGradient
       id="linearGradient17"
       inkscape:collect="always"><stop
         style="stop-color:#8f60ff;stop-opacity:0.99932909;"
         offset="0"
         id="stop17" /><stop
         style="stop-color:#d644f7;stop-opacity:1;"
         offset="1"
         id="stop18" /></linearGradient><inkscape:path-effect
       effect="offset"
       id="path-effect7"
       is_visible="true"
       lpeversion="1.2"
       linejoin_type="miter"
       unit="mm"
       offset="-6.5"
       miter_limit="4"
       attempt_force_join="false"
       update_on_knot_move="true" /><inkscape:path-effect
       effect="offset"
       id="path-effect5"
       is_visible="true"
       lpeversion="1.2"
       linejoin_type="miter"
       unit="mm"
       offset="-6.5"
       miter_limit="4"
       attempt_force_join="false"
       update_on_knot_move="true" /><inkscape:path-effect
       effect="offset"
       id="path-effect2"
       is_visible="true"
       lpeversion="1.2"
       linejoin_type="miter"
       unit="mm"
       offset="-6.5"
       miter_limit="4"
       attempt_force_join="false"
       update_on_knot_move="true" /><linearGradient
       id="swatch61"
       inkscape:swatch="solid"><stop
         style="stop-color:#5090d0;stop-opacity:1;"
         offset="0"
         id="stop61" /></linearGradient><linearGradient
       id="swatch30"
       inkscape:swatch="solid"><stop
         style="stop-color:#f9f9f9;stop-opacity:1;"
         offset="0"
         id="stop30" /></linearGradient><inkscape:perspective
       sodipodi:type="inkscape:persp3d"
       inkscape:vp_x="44.06818 : 315.96746 : 1"
       inkscape:vp_y="0 : 1000 : 0"
       inkscape:vp_z="480.74134 : 298.68846 : 1"
       inkscape:persp3d-origin="250 : 166.66667 : 1"
       id="perspective17" /><inkscape:perspective
       sodipodi:type="inkscape:persp3d"
       inkscape:vp_x="44.06818 : 315.96746 : 1"
       inkscape:vp_y="0 : 1000 : 0"
       inkscape:vp_z="480.74134 : 298.68846 : 1"
       inkscape:persp3d-origin="250 : 166.66667 : 1"
       id="perspective17-7" /><inkscape:perspective
       sodipodi:type="inkscape:persp3d"
       inkscape:vp_x="44.06818 : 315.96746 : 1"
       inkscape:vp_y="0 : 1000 : 0"
       inkscape:vp_z="480.74134 : 298.68846 : 1"
       inkscape:persp3d-origin="250 : 166.66667 : 1"
       id="perspective17-9" /><inkscape:perspective
       sodipodi:type="inkscape:persp3d"
       inkscape:vp_x="44.06818 : 315.96746 : 1"
       inkscape:vp_y="0 : 1000 : 0"
       inkscape:vp_z="480.74134 : 298.68846 : 1"
       inkscape:persp3d-origin="250 : 166.66667 : 1"
       id="perspective17-5" /><inkscape:perspective
       sodipodi:type="inkscape:persp3d"
       inkscape:vp_x="44.06818 : 315.96746 : 1"
       inkscape:vp_y="0 : 1000 : 0"
       inkscape:vp_z="480.74134 : 298.68846 : 1"
       inkscape:persp3d-origin="250 : 166.66667 : 1"
       id="perspective17-2" /><linearGradient
       inkscape:collect="always"
       xlink:href="#linearGradient17"
       id="linearGradient18"
       x1="103.73828"
       y1="284.08203"
       x2="489.35243"
       y2="284.08203"
       gradientUnits="userSpaceOnUse"
       gradientTransform="translate(-2.510102,-28.13165)" /></defs><g
     inkscape:label="Layer 1"
     inkscape:groupmode="layer"
     id="layer1"
     style="opacity:1"><path
       id="path8"
       style="opacity:0.12197399;color:#000000;fill:#9b5ef9;stroke-linejoin:bevel;stroke-miterlimit:10;-inkscape-stroke:none;fill-opacity:1"
       d="M 296.32857 31.342287 L 285.24654 42.424318 L 285.24654 85.514162 L 40.125445 85.514162 L 29.043414 96.596193 L 29.043414 457.0708 L 40.125445 468.15088 L 463.85591 468.15088 L 474.93599 457.0708 L 474.93599 42.424318 L 462.18013 31.46924 C 459.67924 31.851764 446.60614 32.437132 430.85787 32.572756 C 415.1096 32.708379 395.68417 32.617906 376.55513 32.436037 C 338.29705 32.072298 302.15506 31.342287 296.32857 31.342287 z "
       transform="translate(3.4722108,-0.8461934)" /><path
       style="fill:none;stroke:#965eff;stroke-width:50;stroke-linecap:round;stroke-linejoin:bevel;stroke-opacity:1;paint-order:markers fill stroke"
       d="M 43.979119,450.13181 V 98.591456"
       id="path1-6"
       transform="translate(4.8298399,1.8196122)" /><path
       id="rect3"
       style="color:#000000;display:none;fill:#e9d667;fill-opacity:1;stroke-width:0.895776;stroke-linecap:round;stroke-miterlimit:10;-inkscape-stroke:none"
       d="m 260.43269,20.509744 c -16.37059,0 -29.76004,13.389467 -29.76004,29.760043 V 152.61567 c 0,8.61287 5.11415,15.10073 10.43263,18.94074 5.31851,3.84002 10.95688,6.32303 15.37865,9.53512 l 91.66131,66.58483 -90.27566,66.60057 c -15.16282,1.32955 -27.19693,14.00586 -27.19693,29.49935 v 102.34587 c 0,16.37058 13.38947,29.7583 29.76004,29.7583 h 194.07716 c 16.37058,0 29.76003,-13.38772 29.76003,-29.7583 V 343.77628 c 0,-8.61288 -5.11415,-15.10075 -10.43264,-18.94075 -5.31849,-3.84002 -10.95687,-6.32478 -15.37863,-9.53688 l -91.6613,-66.58306 90.27739,-66.60056 c 15.16205,-1.33036 27.19518,-14.00644 27.19518,-29.49936 V 50.269787 c 0,-16.370588 -13.38945,-29.760043 -29.76003,-29.760043 z m 0,13.436638 h 194.07716 c 9.1591,0 16.3234,7.164273 16.3234,16.323405 V 152.61567 c 0,9.15912 -7.1643,16.32339 -16.3234,16.32339 h -2.2097 L 358.19121,238.36692 264.3797,170.2215 c -5.90578,-4.29011 -11.78814,-6.94575 -15.40838,-9.5596 -3.62024,-2.61387 -4.86204,-3.89428 -4.86204,-8.04623 V 50.269787 c 0,-9.159132 7.16427,-16.323405 16.32341,-16.323405 z m 96.31862,224.078628 93.81152,68.14543 c 5.90578,4.29011 11.78813,6.94402 15.40838,9.55785 3.62024,2.61386 4.86204,3.89601 4.86204,8.04799 v 102.34587 c 0,9.15911 -7.16429,16.32166 -16.3234,16.32166 H 260.43269 c -9.1591,0 -16.32341,-7.16256 -16.32341,-16.32166 V 343.77628 c 0,-9.15912 7.16431,-16.32343 16.32341,-16.32343 h 2.2097 z m -80.61105,76.10943 c -11.87168,0 -21.63858,9.7669 -21.63858,21.63859 v 74.67829 c 0,11.87169 9.7669,21.63858 21.63858,21.63859 h 161.4968 c 11.87165,0 21.63859,-9.7669 21.63859,-21.63859 v -74.67829 c 0,-11.87169 -9.76694,-21.63859 -21.63859,-21.63859 z" /><path
       id="use13"
       style="color:#000000;opacity:1;fill:url(#linearGradient18);stroke:none;stroke-width:1.00711;stroke-linecap:round;stroke-miterlimit:10;stroke-opacity:1;-inkscape-stroke:none"
       d="M 101.22817,89.051941 V 422.84882 h 233.01172 c -0.89258,-4.20253 -1.634,-26.93253 -2.27344,-31.12695 -11.45515,0.9517 -23.68567,1.4785 -36.76758,1.47851 -71.22091,0 -112.42396,-15.64659 -136.35156,-35.40039 -11.96381,-9.8769 -19.19119,-20.65383 -23.1543,-29.42773 -3.96312,-8.77389 -4.94531,-17.81836 -4.94531,-17.81836 -0.99722,-13.86936 9.43924,-25.92263 23.3086,-26.91993 13.71122,-0.98584 25.62738,9.20903 26.86132,22.8418 0.0323,-0.082 0.16364,0.0558 0.66602,1.16797 1.05707,2.34023 3.33613,6.38227 9.32227,11.32422 11.97225,9.88388 40.43782,23.87694 104.29296,23.87695 12.40238,0 23.759,-0.51871 34.19922,-1.42383 1.86985,-48.85952 14.91211,-87.07226 14.91211,-87.07226 l -65.84961,2.15234 c 0,0 -28.64767,-60.41919 30.75196,-167.449219 z M 329.39809,341.42108 c -0.61087,15.96207 -0.0675,33.01121 2.56836,50.30079 50.82072,-4.22221 86.09845,-16.96012 109.79492,-30.76954 14.51887,-8.46106 24.6321,-17.26719 31.27735,-24.375 6.64524,-7.10781 10.73437,-14.16601 10.73437,-14.16601 6.64861,-12.2122 2.13765,-27.50118 -10.07422,-34.15039 -4.66981,-2.54284 -10.0243,-3.54133 -15.29687,-2.85352 -7.99241,1.04309 -15.00209,5.84831 -18.85547,12.92774 0,0 0.16737,0.15035 -3.29297,3.85156 -3.46032,3.70119 -9.63606,9.30689 -19.84765,15.25781 -16.46274,9.59388 -43.6102,20.21424 -87.00782,23.97656 z M 180.91762,306.47577 c -0.0357,0.0906 0.0566,0.4668 0.0566,0.4668 -0.0114,-0.15812 -0.0424,-0.30959 -0.0566,-0.4668 z m 4.94727,-193.93554 c 13.90523,0 25.17774,11.2725 25.17773,25.17773 v 40.63672 c 0,13.90521 -11.27251,25.17773 -25.17773,25.17773 -13.90522,0 -25.17773,-11.27252 -25.17773,-25.17773 v -40.63672 c -1e-5,-13.90523 11.2725,-25.17774 25.17773,-25.17773 z m 242.48047,0 c -13.90523,0 -25.17775,11.2725 -25.17774,25.17773 v 40.63672 c 0,13.90521 11.27252,25.17773 25.17774,25.17773 13.90521,0 25.17773,-11.27252 25.17773,-25.17773 v -40.63672 c 10e-6,-13.90523 -11.27251,-25.17774 -25.17773,-25.17773 z" /></g></svg>
