<?xml version="1.0" encoding="UTF-8" standalone="no"?>
<!-- Created with Inkscape (http://www.inkscape.org/) -->

<svg
   width="500"
   height="500"
   viewBox="0 0 500 500"
   version="1.1"
   id="svg1"
   inkscape:version="1.3.2 (091e20ef0f, 2023-11-25, custom)"
   sodipodi:docname="folder.server.svg"
   xmlns:inkscape="http://www.inkscape.org/namespaces/inkscape"
   xmlns:sodipodi="http://sodipodi.sourceforge.net/DTD/sodipodi-0.dtd"
   xmlns:xlink="http://www.w3.org/1999/xlink"
   xmlns="http://www.w3.org/2000/svg"
   xmlns:svg="http://www.w3.org/2000/svg">
  <sodipodi:namedview
     id="namedview1"
     pagecolor="#505050"
     bordercolor="#eeeeee"
     borderopacity="1"
     inkscape:showpageshadow="0"
     inkscape:pageopacity="0"
     inkscape:pagecheckerboard="0"
     inkscape:deskcolor="#505050"
     inkscape:document-units="px"
     inkscape:zoom="0.68158229"
     inkscape:cx="41.814467"
     inkscape:cy="302.97149"
     inkscape:window-width="1362"
     inkscape:window-height="744"
     inkscape:window-x="0"
     inkscape:window-y="20"
     inkscape:window-maximized="0"
     inkscape:current-layer="layer1"
     showguides="true">
    <sodipodi:guide
       position="250.02518,350.60736"
       orientation="-0.99997769,0.0066803918"
       id="guide30"
       inkscape:locked="false" />
    <sodipodi:guide
       position="66.396728,247.89992"
       orientation="0,-1"
       id="guide53"
       inkscape:locked="false" />
  </sodipodi:namedview>
  <defs
     id="defs1">
    <linearGradient
       id="linearGradient5"
       inkscape:collect="always">
      <stop
         style="stop-color:#8341ff;stop-opacity:1;"
         offset="0"
         id="stop5" />
      <stop
         style="stop-color:#e02eff;stop-opacity:1;"
         offset="1"
         id="stop6" />
    </linearGradient>
    <linearGradient
       id="swatch61"
       inkscape:swatch="solid">
      <stop
         style="stop-color:#5090d0;stop-opacity:1;"
         offset="0"
         id="stop61" />
    </linearGradient>
    <linearGradient
       id="swatch30"
       inkscape:swatch="solid">
      <stop
         style="stop-color:#f9f9f9;stop-opacity:1;"
         offset="0"
         id="stop30" />
    </linearGradient>
    <inkscape:perspective
       sodipodi:type="inkscape:persp3d"
       inkscape:vp_x="44.06818 : 315.96746 : 1"
       inkscape:vp_y="0 : 1000 : 0"
       inkscape:vp_z="480.74134 : 298.68846 : 1"
       inkscape:persp3d-origin="250 : 166.66667 : 1"
       id="perspective17" />
    <linearGradient
       inkscape:collect="always"
       xlink:href="#linearGradient5"
       id="linearGradient6"
       x1="60.29591"
       y1="81.420273"
       x2="526.2392"
       y2="351.96179"
       gradientUnits="userSpaceOnUse" />
  </defs>
  <g
     inkscape:label="Layer 1"
     inkscape:groupmode="layer"
     id="layer1">
    <path
       id="path6"
       style="opacity:0.13427985;color:#000000;fill:#c234ff;stroke-linejoin:round;-inkscape-stroke:none;paint-order:markers fill stroke;fill-opacity:1"
       d="M 307.18359 29.621094 C 295.21385 29.621094 284.12891 38.859174 284.12891 51.433594 L 284.12891 83.792969 L 51.087891 83.792969 C 45.434552 83.792969 40.095402 85.480588 35.746094 88.849609 C 31.396785 92.218632 27.925781 97.796281 27.925781 104.2207 L 27.925781 445.9043 C 27.925781 452.32872 31.398352 457.90508 35.748047 461.27344 C 40.097742 464.64178 45.435619 466.32813 51.087891 466.32812 L 450.55664 466.32812 C 456.20891 466.32813 461.5468 464.64178 465.89648 461.27344 C 470.24618 457.90508 473.71875 452.32872 473.71875 445.9043 L 473.71875 104.2207 C 473.71875 101.65541 473.05759 99.35709 472.17188 97.244141 L 472.17188 51.433594 C 472.17188 38.856774 461.08499 29.621094 449.11523 29.621094 L 307.18359 29.621094 z " />
    <path
       style="fill:none;stroke:#cb32ff;stroke-width:50;stroke-linecap:round;stroke-linejoin:bevel;paint-order:markers fill stroke;stroke-opacity:1"
       d="M 43.979119,450.13181 V 98.591456"
       id="path1" />
  </g>
  <g
     inkscape:groupmode="layer"
     id="layer2"
     inkscape:label="Layer 2">
    <path
       id="path4"
       style="color:#000000;fill:url(#linearGradient6);stroke-linejoin:round;stroke-miterlimit:10;-inkscape-stroke:none"
       d="M 166.19336 183.66016 C 145.86125 183.66016 129.125 200.39835 129.125 220.73047 L 129.125 280.00781 C 129.125 300.33993 145.86125 317.07812 166.19336 317.07812 L 445.03125 317.07812 C 465.36336 317.07812 482.10156 300.33993 482.10156 280.00781 L 482.10156 220.73047 C 482.10156 200.39835 465.36336 183.66016 445.03125 183.66016 L 166.19336 183.66016 z M 207.03906 228.40625 C 219.41104 228.40625 229.75391 238.58543 229.75391 250.99609 C 229.75391 263.40679 219.41104 273.58594 207.03906 273.58594 C 194.66708 273.58594 184.32617 263.40679 184.32617 250.99609 C 184.32617 238.58543 194.66708 228.40625 207.03906 228.40625 z M 262.33594 239.16797 L 422.39844 239.16797 A 12.7185 12.7185 0 0 1 435.11719 251.88672 A 12.7185 12.7185 0 0 1 422.39844 264.60547 L 262.33594 264.60547 A 12.7185 12.7185 0 0 1 249.61719 251.88672 A 12.7185 12.7185 0 0 1 262.33594 239.16797 z " />
  </g>
  <use
     x="0"
     y="0"
     xlink:href="#layer2"
     id="use10"
     transform="translate(0,161.24215)" />
  <use
     x="0"
     y="0"
     xlink:href="#use10"
     id="use11"
     transform="translate(0,-316.47415)" />
</svg>
