<?xml version="1.0" encoding="UTF-8" standalone="no"?>
<!-- Uploaded to: SVG Repo, www.svgrepo.com, Generator: SVG Repo Mixer Tools -->

<svg
   fill="#000000"
   version="1.1"
   id="Capa_1"
   width="500"
   height="500"
   viewBox="0 0 51.64125 51.641875"
   xml:space="preserve"
   sodipodi:docname="folder.github.svg"
   inkscape:version="1.3.2 (091e20ef0f, 2023-11-25, custom)"
   xmlns:inkscape="http://www.inkscape.org/namespaces/inkscape"
   xmlns:sodipodi="http://sodipodi.sourceforge.net/DTD/sodipodi-0.dtd"
   xmlns="http://www.w3.org/2000/svg"
   xmlns:svg="http://www.w3.org/2000/svg"><defs
   id="defs1"><linearGradient
     id="swatch61"
     inkscape:swatch="solid"><stop
       style="stop-color:#5090d0;stop-opacity:1;"
       offset="0"
       id="stop61" /></linearGradient><linearGradient
     id="swatch30"
     inkscape:swatch="solid"><stop
       style="stop-color:#f9f9f9;stop-opacity:1;"
       offset="0"
       id="stop30" /></linearGradient><inkscape:perspective
     sodipodi:type="inkscape:persp3d"
     inkscape:vp_x="44.06818 : 315.96746 : 1"
     inkscape:vp_y="0 : 1000 : 0"
     inkscape:vp_z="480.74134 : 298.68846 : 1"
     inkscape:persp3d-origin="250 : 166.66667 : 1"
     id="perspective17" /><inkscape:perspective
     sodipodi:type="inkscape:persp3d"
     inkscape:vp_x="44.06818 : 315.96746 : 1"
     inkscape:vp_y="0 : 1000 : 0"
     inkscape:vp_z="480.74134 : 298.68846 : 1"
     inkscape:persp3d-origin="250 : 166.66667 : 1"
     id="perspective17-7" /><inkscape:perspective
     sodipodi:type="inkscape:persp3d"
     inkscape:vp_x="44.06818 : 315.96746 : 1"
     inkscape:vp_y="0 : 1000 : 0"
     inkscape:vp_z="480.74134 : 298.68846 : 1"
     inkscape:persp3d-origin="250 : 166.66667 : 1"
     id="perspective17-2" /><inkscape:perspective
     sodipodi:type="inkscape:persp3d"
     inkscape:vp_x="44.06818 : 315.96746 : 1"
     inkscape:vp_y="0 : 1000 : 0"
     inkscape:vp_z="480.74134 : 298.68846 : 1"
     inkscape:persp3d-origin="250 : 166.66667 : 1"
     id="perspective17-0" /><inkscape:perspective
     sodipodi:type="inkscape:persp3d"
     inkscape:vp_x="44.06818 : 315.96746 : 1"
     inkscape:vp_y="0 : 1000 : 0"
     inkscape:vp_z="480.74134 : 298.68846 : 1"
     inkscape:persp3d-origin="250 : 166.66667 : 1"
     id="perspective17-5" /><inkscape:perspective
     sodipodi:type="inkscape:persp3d"
     inkscape:vp_x="44.06818 : 315.96746 : 1"
     inkscape:vp_y="0 : 1000 : 0"
     inkscape:vp_z="480.74134 : 298.68846 : 1"
     inkscape:persp3d-origin="250 : 166.66667 : 1"
     id="perspective17-2-6" /><inkscape:perspective
     sodipodi:type="inkscape:persp3d"
     inkscape:vp_x="44.06818 : 315.96746 : 1"
     inkscape:vp_y="0 : 1000 : 0"
     inkscape:vp_z="480.74134 : 298.68846 : 1"
     inkscape:persp3d-origin="250 : 166.66667 : 1"
     id="perspective17-29" /><inkscape:perspective
     sodipodi:type="inkscape:persp3d"
     inkscape:vp_x="44.06818 : 315.96746 : 1"
     inkscape:vp_y="0 : 1000 : 0"
     inkscape:vp_z="480.74134 : 298.68846 : 1"
     inkscape:persp3d-origin="250 : 166.66667 : 1"
     id="perspective17-2-1" /></defs><sodipodi:namedview
   id="namedview1"
   pagecolor="#505050"
   bordercolor="#eeeeee"
   borderopacity="1"
   inkscape:showpageshadow="0"
   inkscape:pageopacity="0"
   inkscape:pagecheckerboard="0"
   inkscape:deskcolor="#505050"
   inkscape:zoom="0.83353307"
   inkscape:cx="301.12782"
   inkscape:cy="312.52509"
   inkscape:window-width="1352"
   inkscape:window-height="734"
   inkscape:window-x="4"
   inkscape:window-y="24"
   inkscape:window-maximized="1"
   inkscape:current-layer="Capa_1"
   showgrid="false"
   showguides="true"><sodipodi:guide
     position="25.897044,50.278856"
     orientation="1,0"
     id="guide2"
     inkscape:locked="false" /><sodipodi:guide
     position="-18.710304,25.620607"
     orientation="0,-1"
     id="guide3"
     inkscape:locked="false" /></sodipodi:namedview>

<g
   inkscape:label="Layer 1"
   id="layer1"
   transform="matrix(0.10328375,0,0,0.10328375,0.4303813,-0.2800945)"><path
     id="path3"
     style="opacity:1;color:#000000;fill:#ffffff;stroke-linejoin:bevel;stroke-miterlimit:10;-inkscape-stroke:none;fill-opacity:0.15838125"
     d="M 296.32804 31.342753 L 285.24601 42.424784 L 285.24601 85.514628 L 40.124916 85.514628 L 29.042885 96.596659 L 29.042885 457.07127 L 40.124916 468.15135 L 463.85539 468.15135 L 474.93546 457.07127 L 474.93546 42.424784 L 462.1796 31.469706 C 459.67871 31.852229 446.60561 32.437597 430.85734 32.573221 C 415.10907 32.708844 395.68364 32.618371 376.5546 32.436503 C 338.29652 32.072763 302.15454 31.342753 296.32804 31.342753 z " /><path
     style="fill:none;stroke:#ffffff;stroke-width:50;stroke-linecap:round;stroke-linejoin:bevel;stroke-opacity:1;paint-order:markers fill stroke"
     d="M 43.979119,450.13181 V 98.591456"
     id="path1-1" /></g><path
   fill-rule="evenodd"
   clip-rule="evenodd"
   d="m 46.73215,16.054866 c 0.01825,1.165075 -0.126585,2.627789 -0.256243,3.692348 -0.05052,0.415211 -0.119285,0.760773 -0.193045,1.044619 1.646942,3.04546 2.371681,6.709303 2.371681,10.709677 0,4.741443 -2.280633,8.645777 -5.832104,11.308275 -3.518817,2.638105 -8.265831,4.058579 -13.376461,4.058579 -5.110651,0 -9.857664,-1.420474 -13.376462,-4.058579 -3.55153,-2.662498 -5.832105,-6.566832 -5.832105,-11.308275 0,-4.000374 0.724778,-7.664217 2.37172,-10.709702 -0.07378,-0.283825 -0.142471,-0.629404 -0.193046,-1.044597 -0.129638,-1.064559 -0.274471,-2.527273 -0.256261,-3.692348 0.02051,-1.312714 0.192104,-2.625351 0.382385,-3.927519 0.08799,-0.602207 0.227716,-1.168495 0.881575,-1.526351 0.667922,-0.365557 1.37132,-0.229274 2.06521,-0.03279 2.340544,0.662753 4.534931,1.592352 6.596317,2.709887 2.173394,-0.653091 4.629785,-0.98515 7.360667,-0.98515 2.730881,0 5.187272,0.332059 7.360722,0.98515 2.061271,-1.117535 4.255657,-2.047134 6.596221,-2.709887 0.694006,-0.196485 1.397423,-0.332769 2.065306,0.03279 0.653858,0.357856 0.793505,0.924144 0.88148,1.526351 0.190357,1.302168 0.361889,2.614805 0.382443,3.927522 z M 44.81283,31.50151 c 0,-3.240868 -0.744908,-7.683425 -4.802141,-7.683425 -1.82904,0 -3.558579,0.480598 -5.28735,0.961197 -1.727235,0.479829 -3.453509,0.959658 -5.277361,0.959658 -1.823854,0 -3.550128,-0.479829 -5.277305,-0.959658 -1.728809,-0.480599 -3.458446,-0.961197 -5.287408,-0.961197 -4.045728,0 -4.80214,4.455811 -4.80214,7.683425 0,3.387623 1.589412,6.206289 4.294805,8.234522 2.738123,2.052819 6.634964,3.290619 11.072048,3.290619 4.436986,0 8.333829,-1.237993 11.072009,-3.290619 2.705525,-2.028233 4.294843,-4.846899 4.294843,-8.234522 z m -19.208566,0.960429 c 0,2.652126 -1.28999,4.802142 -2.881284,4.802142 -1.591297,0 -2.881285,-2.150016 -2.881285,-4.802142 0,-2.652126 1.289988,-4.802141 2.881285,-4.802141 1.591294,0 2.881284,2.150015 2.881284,4.802141 z m 10.564712,4.802142 c 1.591238,0 2.881284,-2.150016 2.881284,-4.802142 0,-2.652126 -1.290046,-4.802141 -2.881284,-4.802141 -1.591239,0 -2.881286,2.150015 -2.881286,4.802141 0,2.652126 1.290047,4.802142 2.881286,4.802142 z"
   fill="#000000"
   id="path1"
   style="fill:#ffffff;fill-opacity:1;stroke-width:1.92086" /></svg>
