<?xml version="1.0" encoding="UTF-8" standalone="no"?>
<!-- Created with Inkscape (http://www.inkscape.org/) -->

<svg
   width="500"
   height="500"
   viewBox="0 0 500 500"
   version="1.1"
   id="svg1"
   inkscape:version="1.3.2 (091e20ef0f, 2023-11-25, custom)"
   sodipodi:docname="folder.ts.svg"
   xml:space="preserve"
   xmlns:inkscape="http://www.inkscape.org/namespaces/inkscape"
   xmlns:sodipodi="http://sodipodi.sourceforge.net/DTD/sodipodi-0.dtd"
   xmlns="http://www.w3.org/2000/svg"
   xmlns:svg="http://www.w3.org/2000/svg"><sodipodi:namedview
     id="namedview1"
     pagecolor="#505050"
     bordercolor="#eeeeee"
     borderopacity="1"
     inkscape:showpageshadow="0"
     inkscape:pageopacity="0"
     inkscape:pagecheckerboard="0"
     inkscape:deskcolor="#505050"
     inkscape:document-units="px"
     inkscape:zoom="0.96390292"
     inkscape:cx="280.1112"
     inkscape:cy="233.94472"
     inkscape:window-width="1362"
     inkscape:window-height="744"
     inkscape:window-x="0"
     inkscape:window-y="20"
     inkscape:window-maximized="0"
     inkscape:current-layer="layer1"
     showguides="true"><sodipodi:guide
       position="250.02518,350.60736"
       orientation="-0.99997769,0.0066803918"
       id="guide30"
       inkscape:locked="false" /><sodipodi:guide
       position="66.396728,247.89992"
       orientation="0,-1"
       id="guide53"
       inkscape:locked="false" /></sodipodi:namedview><defs
     id="defs1"><linearGradient
       id="swatch61"
       inkscape:swatch="solid"><stop
         style="stop-color:#5090d0;stop-opacity:1;"
         offset="0"
         id="stop61" /></linearGradient><linearGradient
       id="swatch30"
       inkscape:swatch="solid"><stop
         style="stop-color:#f9f9f9;stop-opacity:1;"
         offset="0"
         id="stop30" /></linearGradient><inkscape:perspective
       sodipodi:type="inkscape:persp3d"
       inkscape:vp_x="44.06818 : 315.96746 : 1"
       inkscape:vp_y="0 : 1000 : 0"
       inkscape:vp_z="480.74134 : 298.68846 : 1"
       inkscape:persp3d-origin="250 : 166.66667 : 1"
       id="perspective17" /><inkscape:perspective
       sodipodi:type="inkscape:persp3d"
       inkscape:vp_x="44.06818 : 315.96746 : 1"
       inkscape:vp_y="0 : 1000 : 0"
       inkscape:vp_z="480.74134 : 298.68846 : 1"
       inkscape:persp3d-origin="250 : 166.66667 : 1"
       id="perspective17-4" /><inkscape:perspective
       sodipodi:type="inkscape:persp3d"
       inkscape:vp_x="44.06818 : 315.96746 : 1"
       inkscape:vp_y="0 : 1000 : 0"
       inkscape:vp_z="480.74134 : 298.68846 : 1"
       inkscape:persp3d-origin="250 : 166.66667 : 1"
       id="perspective17-7" /></defs><g
     inkscape:label="Layer 1"
     inkscape:groupmode="layer"
     id="layer1"><path
       id="path3"
       style="color:#000000;fill:#3178c6;stroke-linejoin:round;-inkscape-stroke:none;paint-order:markers fill stroke;fill-opacity:1"
       d="M 307.18359 29.621094 C 295.21396 29.621094 284.12891 38.85927 284.12891 51.433594 L 284.12891 83.792969 L 51.087891 83.792969 C 45.434588 83.792969 40.097324 85.480615 35.748047 88.849609 C 31.39877 92.218607 27.925781 97.796346 27.925781 104.2207 L 27.925781 445.9043 C 27.925781 452.32866 31.398383 457.9051 35.748047 461.27344 C 40.097711 464.64174 45.435655 466.32813 51.087891 466.32812 L 450.55664 466.32812 C 456.20886 466.32813 461.54684 464.64174 465.89648 461.27344 C 470.24616 457.9051 473.71875 452.32866 473.71875 445.9043 L 473.71875 104.2207 C 473.71875 101.65532 473.05764 99.357153 472.17188 97.244141 L 472.17188 51.433594 C 472.17188 38.85687 461.08491 29.621094 449.11523 29.621094 L 307.18359 29.621094 z M 137.45898 175.10547 L 268.5 175.10547 A 11.765676 11.765676 0 0 1 280.26367 186.86914 L 280.26367 204.15039 A 11.765676 11.765676 0 0 1 268.5 215.91406 L 224.58398 215.91406 L 224.58398 353.42969 A 11.765676 11.765676 0 0 1 212.82031 365.19336 L 192.90039 365.19336 A 11.765676 11.765676 0 0 1 181.13477 353.42969 L 181.13477 215.91406 L 137.45898 215.91406 A 11.765676 11.765676 0 0 1 125.69531 204.15039 L 125.69531 186.86914 A 11.765676 11.765676 0 0 1 137.45898 175.10547 z M 202.37891 198.63477 A 11.765676 11.765676 0 0 1 202.85938 199.79492 A 11.765676 11.765676 0 0 1 203.33984 198.63477 L 202.37891 198.63477 z M 332.82031 223.58594 C 346.44435 223.58594 359.61962 225.93512 371.16602 230.72266 A 11.765676 11.765676 0 0 1 377.95117 244.89062 L 373.39258 260.49023 A 11.765676 11.765676 0 0 1 358.29883 268.32227 C 349.657 265.37139 339.01874 263.43359 330.90039 263.43359 C 323.73097 263.43359 318.62709 264.9576 316.37695 266.29102 C 314.12682 267.62442 314.58398 267.39208 314.58398 268.23047 C 314.58398 268.48521 314.55479 268.45269 314.5332 268.44727 C 314.55067 268.43912 314.57648 268.4439 314.63086 268.50586 C 314.87335 268.78215 316.05898 269.75949 318.36719 270.77734 C 322.98359 272.81306 331.36058 274.72293 340.41797 277.14453 C 349.47536 279.56613 359.47248 282.53169 368.23242 289.15234 C 376.99237 295.773 383.70508 307.21895 383.70508 321.0293 C 383.70508 334.92577 377.35205 347.74725 366.71875 355.8125 C 356.08545 363.87775 341.98476 367.59375 325.85938 367.59375 C 309.41938 367.59375 292.04256 363.98437 277.07227 357.17969 A 11.765676 11.765676 0 0 1 270.64844 343.16797 L 275.20703 327.56836 A 11.765676 11.765676 0 0 1 291.16016 320.06641 C 301.57466 324.55893 317.21183 327.74609 327.29883 327.74609 C 333.7334 327.74609 337.87318 326.33992 339.4082 325.33789 C 340.94323 324.33586 340.73438 324.75334 340.73438 322.94922 C 340.73438 321.79369 340.72386 322.06833 340.4082 321.67969 C 340.09255 321.29105 338.98964 320.3281 336.76562 319.29102 C 332.31761 317.21682 324.09222 315.30811 315.14062 313.01562 C 306.18904 310.72315 296.28277 308.01831 287.49609 301.67578 C 278.70942 295.33326 271.85547 284.02341 271.85547 270.39062 C 271.85547 256.02319 278.94876 242.99405 290.18945 235.06641 C 301.43015 227.13875 316.09489 223.58594 332.82031 223.58594 z " /></g></svg>
