<?xml version="1.0" encoding="UTF-8" standalone="no"?>
<!-- Created with Inkscape (http://www.inkscape.org/) -->

<svg
   width="500"
   height="500"
   viewBox="0 0 500 500"
   version="1.1"
   id="svg1"
   inkscape:version="1.3.2 (091e20ef0f, 2023-11-25, custom)"
   sodipodi:docname="folder.client.svg"
   xmlns:inkscape="http://www.inkscape.org/namespaces/inkscape"
   xmlns:sodipodi="http://sodipodi.sourceforge.net/DTD/sodipodi-0.dtd"
   xmlns:xlink="http://www.w3.org/1999/xlink"
   xmlns="http://www.w3.org/2000/svg"
   xmlns:svg="http://www.w3.org/2000/svg">
  <sodipodi:namedview
     id="namedview1"
     pagecolor="#505050"
     bordercolor="#eeeeee"
     borderopacity="1"
     inkscape:showpageshadow="0"
     inkscape:pageopacity="0"
     inkscape:pagecheckerboard="0"
     inkscape:deskcolor="#505050"
     inkscape:document-units="px"
     inkscape:zoom="0.68158229"
     inkscape:cx="172.39298"
     inkscape:cy="300.03714"
     inkscape:window-width="1362"
     inkscape:window-height="744"
     inkscape:window-x="0"
     inkscape:window-y="20"
     inkscape:window-maximized="0"
     inkscape:current-layer="layer1"
     showguides="true">
    <sodipodi:guide
       position="250.02518,350.60736"
       orientation="-0.99997769,0.0066803918"
       id="guide30"
       inkscape:locked="false" />
    <sodipodi:guide
       position="66.396728,247.89992"
       orientation="0,-1"
       id="guide53"
       inkscape:locked="false" />
    <sodipodi:guide
       position="290.50051,301.93147"
       orientation="1,0"
       id="guide7"
       inkscape:locked="false" />
  </sodipodi:namedview>
  <defs
     id="defs1">
    <linearGradient
       id="linearGradient8"
       inkscape:collect="always">
      <stop
         style="stop-color:#2ad1ff;stop-opacity:1;"
         offset="0"
         id="stop8" />
      <stop
         style="stop-color:#1f56ff;stop-opacity:1;"
         offset="0.99993277"
         id="stop9" />
    </linearGradient>
    <linearGradient
       id="swatch61"
       inkscape:swatch="solid">
      <stop
         style="stop-color:#5090d0;stop-opacity:1;"
         offset="0"
         id="stop61" />
    </linearGradient>
    <linearGradient
       id="swatch30"
       inkscape:swatch="solid">
      <stop
         style="stop-color:#f9f9f9;stop-opacity:1;"
         offset="0"
         id="stop30" />
    </linearGradient>
    <inkscape:perspective
       sodipodi:type="inkscape:persp3d"
       inkscape:vp_x="44.06818 : 315.96746 : 1"
       inkscape:vp_y="0 : 1000 : 0"
       inkscape:vp_z="480.74134 : 298.68846 : 1"
       inkscape:persp3d-origin="250 : 166.66667 : 1"
       id="perspective17" />
    <linearGradient
       inkscape:collect="always"
       xlink:href="#linearGradient8"
       id="linearGradient9"
       x1="67.763573"
       y1="54.30006"
       x2="496.27856"
       y2="455.64728"
       gradientUnits="userSpaceOnUse"
       gradientTransform="matrix(1.0779328,0,0,1.0779328,-16.437971,-31.730876)" />
  </defs>
  <g
     inkscape:label="Layer 1"
     inkscape:groupmode="layer"
     id="layer1">
    <path
       id="path6"
       style="opacity:0.15077369;color:#000000;fill:#28b8ff;stroke-linejoin:round;-inkscape-stroke:none;paint-order:markers fill stroke;fill-opacity:1"
       d="M 307.18359 29.621094 C 295.21385 29.621094 284.12891 38.859174 284.12891 51.433594 L 284.12891 83.792969 L 51.087891 83.792969 C 45.434552 83.792969 40.095402 85.480588 35.746094 88.849609 C 31.396785 92.218632 27.925781 97.796281 27.925781 104.2207 L 27.925781 445.9043 C 27.925781 452.32872 31.398352 457.90508 35.748047 461.27344 C 40.097742 464.64178 45.435619 466.32813 51.087891 466.32812 L 450.55664 466.32812 C 456.20891 466.32813 461.5468 464.64178 465.89648 461.27344 C 470.24618 457.90508 473.71875 452.32872 473.71875 445.9043 L 473.71875 104.2207 C 473.71875 101.65541 473.05759 99.35709 472.17188 97.244141 L 472.17188 51.433594 C 472.17188 38.856774 461.08499 29.621094 449.11523 29.621094 L 307.18359 29.621094 z " />
    <path
       style="fill:none;stroke:#27afff;stroke-width:50;stroke-linecap:round;stroke-linejoin:bevel;paint-order:markers fill stroke;stroke-opacity:1"
       d="M 43.979119,450.13181 V 98.591456"
       id="path1" />
  </g>
  <path
     id="path7"
     style="color:#000000;opacity:1;fill:url(#linearGradient9);stroke-width:1.07793;stroke-linecap:round;stroke-miterlimit:10;-inkscape-stroke:none"
     d="m 159.13034,107.36942 c -12.27042,0 -22.14816,9.87773 -22.14816,22.14816 v 168.18488 c 0,12.27042 9.87774,22.15025 22.14816,22.15025 h 276.04974 c 12.27042,0 22.14815,-9.87983 22.14815,-22.15025 V 129.51758 c 0,-12.27043 -9.87773,-22.14816 -22.14815,-22.14816 z m -33.23697,247.89232 c -14.88314,0 -26.948316,12.06518 -26.948315,26.94832 5e-6,14.88314 12.065175,26.94831 26.948315,26.94831 h 343.37634 c 14.88314,0 26.94832,-12.06517 26.94832,-26.94831 0,-14.88315 -12.06517,-26.94832 -26.94832,-26.94832 z"
     sodipodi:nodetypes="ssssssssssssssss" />
</svg>
