<?xml version="1.0" encoding="UTF-8" standalone="no"?>
<!-- Created with Inkscape (http://www.inkscape.org/) -->

<svg
   width="500"
   height="500"
   viewBox="0 0 500 500"
   version="1.1"
   id="svg1"
   inkscape:version="1.3.2 (091e20ef0f, 2023-11-25, custom)"
   sodipodi:docname="folder.locale.svg"
   xml:space="preserve"
   xmlns:inkscape="http://www.inkscape.org/namespaces/inkscape"
   xmlns:sodipodi="http://sodipodi.sourceforge.net/DTD/sodipodi-0.dtd"
   xmlns:xlink="http://www.w3.org/1999/xlink"
   xmlns="http://www.w3.org/2000/svg"
   xmlns:svg="http://www.w3.org/2000/svg"><sodipodi:namedview
     id="namedview1"
     pagecolor="#505050"
     bordercolor="#eeeeee"
     borderopacity="1"
     inkscape:showpageshadow="0"
     inkscape:pageopacity="0"
     inkscape:pagecheckerboard="0"
     inkscape:deskcolor="#505050"
     inkscape:document-units="px"
     inkscape:zoom="0.96390292"
     inkscape:cx="278.55502"
     inkscape:cy="233.94472"
     inkscape:window-width="1352"
     inkscape:window-height="734"
     inkscape:window-x="4"
     inkscape:window-y="24"
     inkscape:window-maximized="0"
     inkscape:current-layer="layer1"
     showguides="true"><sodipodi:guide
       position="250.02518,350.60736"
       orientation="-0.99997769,0.0066803918"
       id="guide30"
       inkscape:locked="false" /><sodipodi:guide
       position="66.396728,247.89992"
       orientation="0,-1"
       id="guide53"
       inkscape:locked="false" /></sodipodi:namedview><defs
     id="defs1"><linearGradient
       id="linearGradient7"
       inkscape:collect="always"><stop
         style="stop-color:#accae9;stop-opacity:1;"
         offset="0"
         id="stop7" /><stop
         style="stop-color:#d38ae1;stop-opacity:1;"
         offset="1"
         id="stop8" /></linearGradient><linearGradient
       id="swatch61"
       inkscape:swatch="solid"><stop
         style="stop-color:#5090d0;stop-opacity:1;"
         offset="0"
         id="stop61" /></linearGradient><linearGradient
       id="swatch30"
       inkscape:swatch="solid"><stop
         style="stop-color:#f9f9f9;stop-opacity:1;"
         offset="0"
         id="stop30" /></linearGradient><inkscape:perspective
       sodipodi:type="inkscape:persp3d"
       inkscape:vp_x="44.06818 : 315.96746 : 1"
       inkscape:vp_y="0 : 1000 : 0"
       inkscape:vp_z="480.74134 : 298.68846 : 1"
       inkscape:persp3d-origin="250 : 166.66667 : 1"
       id="perspective17" /><inkscape:perspective
       sodipodi:type="inkscape:persp3d"
       inkscape:vp_x="44.06818 : 315.96746 : 1"
       inkscape:vp_y="0 : 1000 : 0"
       inkscape:vp_z="480.74134 : 298.68846 : 1"
       inkscape:persp3d-origin="250 : 166.66667 : 1"
       id="perspective17-5" /><inkscape:perspective
       sodipodi:type="inkscape:persp3d"
       inkscape:vp_x="44.06818 : 315.96746 : 1"
       inkscape:vp_y="0 : 1000 : 0"
       inkscape:vp_z="480.74134 : 298.68846 : 1"
       inkscape:persp3d-origin="250 : 166.66667 : 1"
       id="perspective17-2" /><inkscape:perspective
       sodipodi:type="inkscape:persp3d"
       inkscape:vp_x="44.06818 : 315.96746 : 1"
       inkscape:vp_y="0 : 1000 : 0"
       inkscape:vp_z="480.74134 : 298.68846 : 1"
       inkscape:persp3d-origin="250 : 166.66667 : 1"
       id="perspective17-29" /><inkscape:perspective
       sodipodi:type="inkscape:persp3d"
       inkscape:vp_x="44.06818 : 315.96746 : 1"
       inkscape:vp_y="0 : 1000 : 0"
       inkscape:vp_z="480.74134 : 298.68846 : 1"
       inkscape:persp3d-origin="250 : 166.66667 : 1"
       id="perspective17-2-1" /><linearGradient
       inkscape:collect="always"
       xlink:href="#linearGradient7"
       id="linearGradient8"
       x1="114.77342"
       y1="167.22896"
       x2="471.63348"
       y2="394.01398"
       gradientUnits="userSpaceOnUse" /></defs><g
     inkscape:label="Layer 1"
     inkscape:groupmode="layer"
     id="layer1"><path
       id="rect53-0-5"
       style="opacity:0.22288052;fill:#818cbe;fill-opacity:1;fill-rule:nonzero;stroke:#818cbe;stroke-width:22.162;stroke-linecap:butt;stroke-linejoin:bevel;stroke-miterlimit:10;stroke-dasharray:none;stroke-opacity:1;paint-order:normal"
       d="m 463.85552,42.423164 c -19.06075,2.91543 -158.1781,0 -167.5275,0 V 96.595326 L 40.124908,96.595166 V 457.07016 c 59.556727,0 399.686272,0 423.730462,0 z"
       sodipodi:nodetypes="ccccccc" /><path
       style="fill:none;stroke:#abc4e5;stroke-width:50;stroke-linecap:round;stroke-linejoin:bevel;paint-order:markers fill stroke;stroke-opacity:0.80784315"
       d="M 43.979119,450.13181 V 98.591456"
       id="path1" /><path
       id="path2"
       style="color:#000000;opacity:0.751595;fill:url(#linearGradient8);fill-opacity:1;stroke-width:1.22;stroke-linecap:round;stroke-linejoin:round;stroke-miterlimit:10;-inkscape-stroke:none;paint-order:stroke markers fill"
       d="M 283.89396,76.023538 A 21.349885,21.349885 0 0 0 262.54407,97.373419 V 129.82002 H 145.00058 a 21.349885,21.349885 0 0 0 -21.34989,21.34988 21.349885,21.349885 0 0 0 21.34989,21.34989 h 208.64746 c -27.46179,48.26802 -49.99798,84.16498 -88.61394,124.00328 -20.23844,-25.25145 -37.83509,-52.64845 -53.56772,-83.71967 a 21.349885,21.349885 0 0 0 -17.87576,-11.67333 21.349885,21.349885 0 0 0 -10.81553,2.2708 21.349885,21.349885 0 0 0 -9.40252,28.6913 c 17.61593,34.79066 37.75479,65.61683 60.87815,93.95617 -25.25292,22.72865 -56.35067,47.75664 -96.92992,77.80316 a 21.349885,21.349885 0 0 0 -4.45345,29.86364 21.349885,21.349885 0 0 0 29.86363,4.45345 c 40.97871,-30.34231 73.09808,-56.42974 99.58434,-80.48859 31.24747,32.60176 67.24994,62.30758 109.08934,91.67345 a 21.349885,21.349885 0 0 0 29.73971,-5.21118 21.349885,21.349885 0 0 0 -5.20878,-29.73972 c -40.34783,-28.31896 -74.06635,-56.02628 -102.96553,-86.15013 48.8837,-50.15624 75.32475,-94.75416 109.70885,-155.73263 h 16.09105 A 21.349885,21.349885 0 0 0 440.11984,151.1699 21.349885,21.349885 0 0 0 418.76996,129.82002 H 305.24384 V 97.373419 A 21.349885,21.349885 0 0 0 283.89396,76.023538 Z" /></g></svg>
