<?xml version="1.0" encoding="UTF-8" standalone="no"?>
<!-- Created with Inkscape (http://www.inkscape.org/) -->

<svg
   width="500"
   height="500"
   viewBox="0 0 500 500"
   version="1.1"
   id="svg1"
   inkscape:version="1.3.2 (091e20ef0f, 2023-11-25, custom)"
   sodipodi:docname="folder.model.svg"
   xml:space="preserve"
   xmlns:inkscape="http://www.inkscape.org/namespaces/inkscape"
   xmlns:sodipodi="http://sodipodi.sourceforge.net/DTD/sodipodi-0.dtd"
   xmlns="http://www.w3.org/2000/svg"
   xmlns:svg="http://www.w3.org/2000/svg"><sodipodi:namedview
     id="namedview1"
     pagecolor="#505050"
     bordercolor="#eeeeee"
     borderopacity="1"
     inkscape:showpageshadow="0"
     inkscape:pageopacity="0"
     inkscape:pagecheckerboard="0"
     inkscape:deskcolor="#505050"
     inkscape:document-units="px"
     inkscape:zoom="0.96390292"
     inkscape:cx="277.51757"
     inkscape:cy="236.01962"
     inkscape:window-width="1362"
     inkscape:window-height="744"
     inkscape:window-x="0"
     inkscape:window-y="20"
     inkscape:window-maximized="0"
     inkscape:current-layer="layer1"
     showguides="true"><sodipodi:guide
       position="250.02518,350.60736"
       orientation="-0.99997769,0.0066803918"
       id="guide30"
       inkscape:locked="false" /><sodipodi:guide
       position="66.396728,247.89992"
       orientation="0,-1"
       id="guide53"
       inkscape:locked="false" /></sodipodi:namedview><defs
     id="defs1"><linearGradient
       id="swatch61"
       inkscape:swatch="solid"><stop
         style="stop-color:#5090d0;stop-opacity:1;"
         offset="0"
         id="stop61" /></linearGradient><linearGradient
       id="swatch30"
       inkscape:swatch="solid"><stop
         style="stop-color:#f9f9f9;stop-opacity:1;"
         offset="0"
         id="stop30" /></linearGradient><inkscape:perspective
       sodipodi:type="inkscape:persp3d"
       inkscape:vp_x="44.06818 : 315.96746 : 1"
       inkscape:vp_y="0 : 1000 : 0"
       inkscape:vp_z="480.74134 : 298.68846 : 1"
       inkscape:persp3d-origin="250 : 166.66667 : 1"
       id="perspective17" /><inkscape:perspective
       sodipodi:type="inkscape:persp3d"
       inkscape:vp_x="44.06818 : 315.96746 : 1"
       inkscape:vp_y="0 : 1000 : 0"
       inkscape:vp_z="480.74134 : 298.68846 : 1"
       inkscape:persp3d-origin="250 : 166.66667 : 1"
       id="perspective17-4" /></defs><g
     inkscape:label="Layer 1"
     inkscape:groupmode="layer"
     id="layer1"><path
       id="rect53-0"
       style="fill:#00ff65;fill-opacity:0.3137255;fill-rule:nonzero;stroke:#00ff65;stroke-width:22.0622;stroke-linecap:butt;stroke-linejoin:round;stroke-dasharray:none;stroke-opacity:1;paint-order:markers fill stroke;opacity:0.21672282"
       d="m 462.68749,104.21979 c 0,-1.64895 -0.59137,-3.17324 -1.54688,-4.517583 v -48.26953 c 0,-5.97292 -5.36366,-10.78125 -12.02538,-10.78125 H 307.18359 c -6.66173,0 -12.02344,4.80833 -12.02344,10.78125 v 43.39063 H 51.087889 c -6.7206,0 -12.13086,4.19106 -12.13086,9.396483 v 341.68359 c 0,5.20542 5.41026,9.39453 12.13086,9.39453 H 450.55663 c 6.7206,0 12.13086,-4.18911 12.13086,-9.39453 z" /><path
       style="fill:none;stroke:#00ff65;stroke-width:50;stroke-linecap:round;stroke-linejoin:bevel;paint-order:markers fill stroke;stroke-opacity:1"
       d="M 43.979119,450.13181 V 98.591456"
       id="path1" /><path
       id="path1-3"
       style="fill:#00ff65;fill-opacity:1;stroke:none;stroke-opacity:1"
       d="M 41.884258 -5.0571515 C 37.832208 -5.0568946 34.483869 -1.7035692 34.483972 2.3544809 C 34.483964 2.6606819 34.509023 2.9611776 34.546007 3.2582161 L 14.40194 13.759218 C 13.055164 11.856213 10.844192 10.598398 8.3656557 10.59846 C 4.3133652 10.598358 0.96488242 13.9518 0.96498442 18.010093 C 0.9649106 20.947192 2.722856 23.507779 5.228067 24.702441 L 5.3671643 54.63298 C 2.695961 55.757126 0.79370857 58.413117 0.79352095 61.471192 C 0.79341897 65.529484 4.1419019 68.882927 8.1941922 68.882824 C 9.8394632 68.882866 11.363619 68.323558 12.59984 67.39525 L 34.530209 78.877935 C 34.501162 79.141752 34.483965 79.408913 34.483972 79.679798 C 34.483869 83.737849 37.832208 87.091181 41.884258 87.09143 C 45.936546 87.091533 49.28503 83.73809 49.284929 79.679798 C 49.284935 79.45244 49.2708 79.22813 49.250251 79.005662 L 70.030082 67.736369 C 71.169653 68.457262 72.509603 68.882736 73.94176 68.882824 C 77.994051 68.882927 81.342534 65.529484 81.342432 61.471192 C 81.342295 58.668443 79.744288 56.203313 77.42112 54.945544 L 77.42112 24.536126 C 79.744364 23.2783 81.342503 20.813008 81.342432 18.010093 C 81.342534 13.9518 77.994051 10.598358 73.94176 10.59846 C 71.781648 10.598566 69.8275 11.55721 68.46803 13.06193 L 49.153538 3.7058391 C 49.23621 3.26655 49.284941 2.8158852 49.284929 2.3544809 C 49.285032 -1.7038104 45.936546 -5.0572536 41.884258 -5.0571515 z M 41.884258 -1.9527321 C 44.224231 -1.952953 46.102909 0.024909181 46.10303 2.3544809 C 46.103243 4.6842899 44.224468 6.6622971 41.884258 6.6620798 C 39.544289 6.6619304 37.665674 4.6840453 37.665872 2.3544809 C 37.665992 0.025153774 39.544528 -1.9525828 41.884258 -1.9527321 z M 35.537413 6.1230029 C 36.836047 8.2926774 39.202617 9.7659485 41.884258 9.7661133 C 44.414886 9.7661762 46.670857 8.4582225 48.008393 6.4876612 L 66.895575 15.768505 C 66.667107 16.477423 66.541455 17.230352 66.541474 18.010093 C 66.541445 19.209533 66.839677 20.344293 67.356408 21.352215 L 47.987972 32.181603 C 46.648119 30.22667 44.402876 28.9301 41.884258 28.930163 C 39.347375 28.930286 37.086682 30.244806 35.75049 32.223664 L 14.739473 21.735396 C 15.387143 20.636413 15.766361 19.364589 15.766327 18.010093 C 15.76634 17.509087 15.714289 17.01905 15.617212 16.544514 L 35.537413 6.1230029 z M 8.4904965 13.546983 C 10.83071 13.546762 12.709466 15.524774 12.709268 17.854582 C 12.709148 20.184155 10.830471 22.161993 8.4904965 22.161795 C 6.1507662 22.161647 4.2722304 20.18391 4.27211 17.854582 C 4.271897 15.525017 6.1505295 13.547132 8.4904965 13.546983 z M 73.884734 13.546983 C 76.224948 13.546762 78.103703 15.524774 78.103506 17.854582 C 78.103386 20.184155 76.224709 22.161993 73.884734 22.161795 C 71.545004 22.161647 69.666468 20.18391 69.666348 17.854582 C 69.666135 15.525017 71.544767 13.547132 73.884734 13.546983 z M 69.264854 23.729633 C 70.544488 24.784033 72.176021 25.421617 73.94176 25.421725 C 74.103417 25.421729 74.261839 25.40753 74.421088 25.397029 L 74.421088 54.084642 C 74.261848 54.074141 74.103407 54.059941 73.94176 54.059945 C 69.889953 54.060143 66.541725 57.413384 66.541474 61.471192 C 66.541437 62.968979 67.000196 64.368854 67.779479 65.541473 L 48.339761 76.088396 C 47.35472 74.333619 45.67697 73.01497 43.692138 72.505097 L 43.692138 43.51611 C 46.88445 42.696048 49.284717 39.775403 49.284929 36.341795 C 49.284941 35.873566 49.235532 35.416153 49.150456 34.970757 L 69.264854 23.729633 z M 41.884258 32.654308 C 44.224229 32.654089 46.102907 34.631952 46.10303 36.961521 C 46.102909 39.291094 44.224231 41.268932 41.884258 41.268734 C 39.544528 41.268584 37.665992 39.290849 37.665872 36.961521 C 37.665994 34.632197 39.544528 32.654458 41.884258 32.654308 z M 8.4904965 56.9174 C 10.830471 56.917181 12.709146 58.895046 12.709268 61.224613 C 12.709483 63.554425 10.83071 65.53241 8.4904965 65.532212 C 6.1505275 65.532062 4.2719127 63.554181 4.27211 61.224613 C 4.2722323 58.895289 6.1507682 56.91755 8.4904965 56.9174 z M 73.884734 57.548703 C 76.224709 57.548482 78.103386 59.526343 78.103506 61.855916 C 78.103719 64.185724 76.224948 66.163713 73.884734 66.163515 C 71.544767 66.163367 69.666151 64.185479 69.666348 61.855916 C 69.666468 59.526588 71.545004 57.548851 73.884734 57.548703 z M 41.884258 75.907803 C 44.224231 75.907584 46.102909 77.885443 46.10303 80.215016 C 46.103243 82.544822 44.224468 84.522812 41.884258 84.522615 C 39.544289 84.522465 37.665674 82.544577 37.665872 80.215016 C 37.665992 77.885688 39.544528 75.907953 41.884258 75.907803 z "
       transform="matrix(5.0689553,0,0,5.0614588,88.606584,51.192267)" /><g
       id="circle7" /></g></svg>
