<?xml version="1.0" encoding="UTF-8" standalone="no"?>
<!-- Created with Inkscape (http://www.inkscape.org/) -->

<svg
   width="500"
   height="500"
   viewBox="0 0 500 500"
   version="1.1"
   id="svg1"
   inkscape:version="1.3.2 (091e20ef0f, 2023-11-25, custom)"
   sodipodi:docname="folder.resource.svg"
   xml:space="preserve"
   xmlns:inkscape="http://www.inkscape.org/namespaces/inkscape"
   xmlns:sodipodi="http://sodipodi.sourceforge.net/DTD/sodipodi-0.dtd"
   xmlns="http://www.w3.org/2000/svg"
   xmlns:svg="http://www.w3.org/2000/svg"><sodipodi:namedview
     id="namedview1"
     pagecolor="#505050"
     bordercolor="#eeeeee"
     borderopacity="1"
     inkscape:showpageshadow="0"
     inkscape:pageopacity="0"
     inkscape:pagecheckerboard="0"
     inkscape:deskcolor="#505050"
     inkscape:document-units="px"
     inkscape:zoom="0.96390292"
     inkscape:cx="231.86982"
     inkscape:cy="197.63401"
     inkscape:window-width="1362"
     inkscape:window-height="744"
     inkscape:window-x="0"
     inkscape:window-y="20"
     inkscape:window-maximized="0"
     inkscape:current-layer="svg1"
     showguides="true"><sodipodi:guide
       position="250.02518,350.60736"
       orientation="-0.99997769,0.0066803918"
       id="guide30"
       inkscape:locked="false" /><sodipodi:guide
       position="419.20185,248.30647"
       orientation="0,-1"
       id="guide53"
       inkscape:locked="false" /></sodipodi:namedview><defs
     id="defs1"><inkscape:path-effect
       effect="mirror_symmetry"
       start_point="341.76098,28.008646"
       end_point="341.76098,211.38431"
       center_point="341.76098,119.69648"
       id="path-effect3"
       is_visible="true"
       lpeversion="1.2"
       lpesatellites=""
       mode="free"
       discard_orig_path="false"
       fuse_paths="true"
       oposite_fuse="false"
       split_items="false"
       split_open="false"
       link_styles="false" /><inkscape:path-effect
       effect="mirror_symmetry"
       start_point="216.08168,129.12039"
       end_point="216.08168,402.6937"
       center_point="216.08168,265.90704"
       id="path-effect2"
       is_visible="true"
       lpeversion="1.2"
       lpesatellites=""
       mode="free"
       discard_orig_path="false"
       fuse_paths="true"
       oposite_fuse="false"
       split_items="false"
       split_open="false"
       link_styles="false" /><linearGradient
       id="swatch61"
       inkscape:swatch="solid"><stop
         style="stop-color:#5090d0;stop-opacity:1;"
         offset="0"
         id="stop61" /></linearGradient><linearGradient
       id="swatch30"
       inkscape:swatch="solid"><stop
         style="stop-color:#f9f9f9;stop-opacity:1;"
         offset="0"
         id="stop30" /></linearGradient><inkscape:perspective
       sodipodi:type="inkscape:persp3d"
       inkscape:vp_x="44.06818 : 315.96746 : 1"
       inkscape:vp_y="0 : 1000 : 0"
       inkscape:vp_z="480.74134 : 298.68846 : 1"
       inkscape:persp3d-origin="250 : 166.66667 : 1"
       id="perspective17" /></defs><g
     inkscape:label="Layer 1"
     inkscape:groupmode="layer"
     id="layer1"><path
       id="rect53-0"
       style="display:inline;opacity:0.14380811;fill:#ffc464;fill-opacity:0.3137255;fill-rule:nonzero;stroke:#ffc464;stroke-width:22.0622;stroke-linecap:butt;stroke-linejoin:round;stroke-dasharray:none;stroke-opacity:1;paint-order:markers fill stroke"
       d="m 462.68749,104.21979 c 0,-1.64895 -0.59137,-3.17324 -1.54688,-4.517583 v -48.26953 c 0,-5.97292 -5.36366,-10.78125 -12.02538,-10.78125 H 307.18359 c -6.66173,0 -12.02344,4.80833 -12.02344,10.78125 v 43.39063 H 51.087889 c -6.7206,0 -12.13086,4.19106 -12.13086,9.396483 v 341.68359 c 0,5.20542 5.41026,9.39453 12.13086,9.39453 H 450.55663 c 6.7206,0 12.13086,-4.18911 12.13086,-9.39453 z" /><path
       style="fill:none;stroke:#ffc464;stroke-width:50;stroke-linecap:round;stroke-linejoin:bevel;paint-order:markers fill stroke;stroke-opacity:1"
       d="M 43.979119,450.13181 V 98.591456"
       id="path1" /></g><path
     id="path12"
     style="display:none;fill:#ffc464;fill-opacity:1;stroke:none;stroke-width:4.29924;stroke-opacity:1"
     d="m 407.46875,151.65039 11.42187,5.52539 -0.36718,-0.16992 c 2.65792,1.18977 2.88512,1.49094 0.98828,0.51172 l -0.30469,-0.15235 c -1.52309,-0.73876 -0.45031,-0.34398 1.4375,0.75586 1.55152,0.96332 2.58697,1.75318 1.07227,0.71289 l 0.0469,0.0332 0.0449,0.0312 c 0.49706,0.34742 1.15314,0.83364 1.88086,1.49414 l 0.004,0.006 0.006,0.004 c 0.82487,0.75018 1.49376,1.50329 1.98242,2.10547 l 0.0156,0.0176 0.0156,0.0195 c 0.0705,0.0876 0.59347,0.72252 1.24023,1.72461 0.84124,1.31552 1.26007,2.2979 1.38868,2.58789 l 0.0195,0.0469 0.0215,0.0469 c -0.0128,-0.0294 0.29966,0.58028 0.68946,1.76758 l 0.0215,0.0644 0.0195,0.0664 c 0.63289,1.99496 0.66699,3.01957 0.64649,2.89062 l 0.0918,0.58204 0.0332,0.48242 6.58398,2.42383 -6.45117,2.70312 V 190.75 l 16.21094,-6.78711 v 152.91016 l -16.54883,6.72656 c -1.02793,5.71029 -4.57378,10.72894 -9.74219,13.5332 l -0.004,0.002 -23.21679,12.57226 60.50195,-24.58398 c 2.40396,-0.97871 3.91016,-2.86517 3.91016,-4.90821 V 174.61328 c 0,-0.0484 -0.0254,-0.0924 -0.0254,-0.14453 -0.005,-0.0409 0.0156,-0.0784 0.0156,-0.12305 -0.009,-0.16003 -0.0944,-0.30463 -0.10937,-0.46093 -0.0647,-0.30515 -0.11006,-0.61031 -0.23438,-0.9043 -0.0895,-0.20469 -0.20411,-0.38676 -0.31836,-0.58399 -0.15397,-0.2605 -0.30702,-0.5177 -0.51562,-0.75586 -0.15398,-0.18607 -0.3377,-0.35421 -0.52149,-0.52539 -0.23343,-0.21584 -0.47774,-0.41566 -0.75586,-0.60546 -0.21856,-0.14884 -0.45085,-0.28381 -0.69922,-0.41407 -0.15893,-0.0819 -0.29296,-0.19705 -0.46679,-0.27148 -0.15896,-0.0745 -0.34374,-0.1047 -0.51758,-0.16797 -0.14405,-0.0558 -0.25832,-0.13326 -0.40235,-0.18164 z m -244.19922,0.0156 -56.22851,21.96093 c -2.5033,0.94523 -4.08277,2.86581 -4.09766,4.96094 0,0.0335 0.0195,0.064 0.0195,0.0937 -0.30297,0.62147 -0.52059,1.27621 -0.51562,1.96094 l 0.98828,159.16601 c 0.0149,2.04675 1.51895,3.92308 3.91797,4.89063 l 56.32617,22.09766 -19.17774,-10.02735 -0.0684,-0.0371 c -6.18668,-3.32534 -10.09636,-9.82181 -10.13476,-16.84765 v -0.006 l -0.74024,-158.6875 -6.75,-2.52539 7.48243,-2.93164 c 0.0402,-0.13956 0.0683,-0.31492 0.10937,-0.44922 1.0561,-5.89216 4.66373,-11.11309 10.125,-13.86133 l -0.16797,0.0859 z m -2.33789,39.99023 0.66797,143.2207 98.4082,51.45117 -91.16797,-190.73046 z m 8.34961,4.16016 90.79687,190.54882 16.91211,8.8418 V 249.50195 Z" /><path
     id="path1-5"
     style="fill:#ffc464;fill-opacity:1;stroke:none;stroke-width:4.12568;stroke-opacity:1"
     d="m 295.54355,32.501615 c -7.58654,0.254555 -15.09963,2.123949 -21.97475,5.556435 -0.23685,0.11773 -0.47271,0.23746 -0.70754,0.359178 l -141.85354,73.841292 0.57123,-0.29426 c -15.0699,7.58351 -25.42219,21.92242 -28.33176,38.19184 -0.75276,3.28576 -1.34051,7.1081 -1.3177,11.72953 l -0.002,-0.0111 v 0.0346 0.002 0.002 l 0.82222,176.29132 v 0.0368 c 0.10602,19.37084 10.90594,37.32734 27.96825,46.49835 0.15747,0.0845 0.31543,0.16824 0.47386,0.25099 l 140.71758,73.57084 c 1.98052,1.05529 4.02721,1.96889 6.119,2.76307 7.40809,3.6666 15.46948,5.63433 23.53695,5.63433 8.76211,0 17.51625,-2.21246 25.23115,-6.37648 l 0.0563,-0.0325 139.25924,-75.41 0.0324,-0.0195 c 17.00359,-9.22579 27.79949,-27.13036 27.79949,-46.6866 v -183.45756 -0.14497 c -2.5e-4,-0.1113 -0.009,-0.0376 -0.009,-0.15146 -0.002,-0.0865 -0.004,-0.1731 -0.007,-0.25964 0.007,0.10446 0.009,0.15401 0.0152,0.25532 -6.6e-4,-10.97462 -0.0202,-10.24268 -0.0216,-0.5431 -0.003,-0.5014 -0.0136,-1.00273 -0.0325,-1.50379 -0.49766,-11.37709 -0.91429,-12.2473 -0.16661,-1.8132 -0.0959,-1.34389 -0.2497,-2.68303 -0.46087,-4.01369 0.18327,1.15306 0.14794,-1.65543 -1.80888,-7.82402 -0.0475,-0.14953 -0.0959,-0.29883 -0.14497,-0.44789 -1.18255,-3.60207 -2.05651,-5.27686 -1.81319,-4.71691 -0.0458,-0.10624 -0.092,-0.21221 -0.13848,-0.31806 -0.18457,-0.41629 -1.2619,-3.06292 -3.77136,-6.99964 -1.98654,-3.08814 -3.49773,-4.89695 -3.44681,-4.83375 -0.0346,-0.0433 -0.0691,-0.0866 -0.1038,-0.12983 -1.27096,-1.56622 -3.14594,-3.68523 -5.49369,-5.82041 l -0.0346,-0.0325 c -2.11813,-1.9224 -3.96467,-3.28137 -5.23837,-4.17165 -0.10502,-0.074 -0.2103,-0.14756 -0.31591,-0.2207 6.26053,4.29968 5.0136,2.7547 -2.76523,-1.79157 -1.46722,-0.89955 -1.77364,-0.99476 -2.81284,-1.57734 5.03871,2.57485 4.34188,2.01037 -0.51064,-0.28562 -3.87424,-2.13014 -4.79713,-2.41714 -1.20086,-0.59718 0.10735,0.0562 0.0249,0.0293 0.17526,0.1038 -0.71885,-0.33192 -0.55074,-0.29342 -1.43238,-0.68806 l 1.24197,0.57771 -143.4893,-69.403503 c -0.72554,-0.351354 -1.46001,-0.683956 -2.20267,-0.997476 -7.16697,-3.021611 -14.82533,-4.38077 -22.41182,-4.126215 z m 0.72917,21.805979 c 4.47058,-0.150077 8.98238,0.649492 13.20519,2.429858 0.39759,0.16798 0.79081,0.346186 1.17922,0.534439 l 143.50446,69.412159 c -2.01321,-1.0576 -1.17272,-0.89792 2.61811,1.40642 3.06079,1.86952 4.76417,3.21157 1.81752,1.18789 0.0564,0.0388 0.11266,0.0777 0.16876,0.11683 0.7774,0.54338 1.85489,1.33989 3.07249,2.44501 l 0.0173,0.0173 c 1.36349,1.24002 2.46247,2.47611 3.2326,3.42517 0.0188,0.023 0.0376,0.0461 0.0563,0.0692 0.0371,0.0461 0.90666,1.1104 1.98629,2.77388 1.43035,2.23947 2.11841,3.86612 2.27407,4.21709 0.0255,0.0569 0.0507,0.11386 0.0758,0.17094 -0.0861,-0.19794 0.42543,0.79124 1.09268,2.82366 0.0264,0.0799 0.0523,0.15999 0.0779,0.24017 1.09484,3.45138 1.13107,5.11165 1.05806,4.65199 0.11298,0.7116 0.19528,1.42774 0.24666,2.14641 -0.39421,-5.50129 -0.14001,-4.9614 0.12983,1.20737 0.008,0.2163 0.0128,0.43269 0.0152,0.64912 -0.006,-0.0756 -0.007,-0.10004 -0.013,-0.17959 0.006,0.20334 0.01,0.40674 0.0111,0.61017 -1e-5,-0.0309 -2e-5,-0.0649 0,-0.16445 0.002,0.12181 0.01,0.0618 0.013,0.17743 0.003,0.46133 0.007,-2.15227 0.007,0.30075 v 183.45756 c 0,11.51433 -6.35599,22.06555 -16.38153,27.50522 l -0.0173,0.009 -139.25922,75.41216 -0.0304,0.0152 c -4.55339,2.45764 -9.70505,3.76055 -14.86476,3.76055 -5.54644,0 -11.11751,-1.48673 -16.03534,-4.42048 l -0.0173,-0.0111 c -0.14108,-0.0843 -0.20922,-0.16841 -0.34619,-0.25316 -0.99311,-0.4043 -2.04489,-0.64506 -2.9946,-1.1511 L 141.30317,365.64967 c -0.0846,-0.0442 -0.16902,-0.089 -0.25315,-0.13414 -10.05508,-5.40463 -16.41425,-15.97563 -16.47673,-27.39272 v -0.0195 l -0.82222,-176.3108 v -0.0195 l 0.002,0.009 c -0.013,-2.57803 0.30229,-4.77519 0.72485,-6.67724 1.40969,-10.06169 7.67452,-18.99685 16.91165,-23.64514 l -0.30509,0.15578 141.85302,-73.839242 c 0.12567,-0.06525 0.2519,-0.12945 0.37865,-0.192571 4.05614,-2.025086 8.48578,-3.1258 12.95636,-3.275873 z m 157.88887,72.376456 -0.67292,-0.31373 c 2.99002,1.33837 1.31979,0.60877 0.99098,0.50197 -0.29473,-0.14426 -0.0955,-0.0726 -0.31589,-0.18824 z M 297.11008,79.389442 c -0.88613,0.02991 -1.76579,0.249527 -2.57916,0.655611 L 152.67523,153.88418 c -2.08088,1.04715 -3.39331,3.17482 -3.4057,5.49586 0,0.0371 0.0173,0.0709 0.0173,0.1038 -0.25185,0.68848 -0.43471,1.41382 -0.43058,2.17238 l 0.82222,176.32809 c 0.0124,2.26744 1.26221,4.34609 3.2564,5.41796 l 141.04214,73.74177 c 0.92071,0.49059 1.9288,0.73783 2.93616,0.73783 h 0.013 c 0.42526,0.48237 0.89921,0.93638 1.46484,1.27443 0.97439,0.58129 2.0718,0.87415 3.17417,0.87415 1.01567,0 2.02392,-0.25178 2.9405,-0.74649 L 443.76276,343.8718 c 1.99827,-1.08424 3.2499,-3.1741 3.2499,-5.43743 V 154.97686 c 0,-0.0536 -0.0195,-0.10236 -0.0195,-0.16011 -0.004,-0.0453 0.0111,-0.0869 0.0111,-0.13632 -0.008,-0.17728 -0.0784,-0.33748 -0.0908,-0.51063 -0.0537,-0.33805 -0.0893,-0.67611 -0.19256,-1.0018 -0.0744,-0.22677 -0.16901,-0.42847 -0.26397,-0.64696 -0.12799,-0.28859 -0.25719,-0.57352 -0.43059,-0.83736 -0.128,-0.20611 -0.27997,-0.39241 -0.43274,-0.58204 -0.19403,-0.23912 -0.39628,-0.46048 -0.62748,-0.67075 -0.18167,-0.16489 -0.37559,-0.31441 -0.58204,-0.45871 -0.13211,-0.0907 -0.24498,-0.2183 -0.38947,-0.30076 -0.13213,-0.0825 -0.28391,-0.11599 -0.42842,-0.18608 -0.11974,-0.0618 -0.21564,-0.14763 -0.33537,-0.20122 L 299.72385,79.871955 c -0.83606,-0.352488 -1.72764,-0.512402 -2.61377,-0.482513 z m 0.43058,12.986657 128.9729,63.282341 -125.01762,69.79514 -132.38726,-65.98699 z m 196.15861,57.873031 c 0.24327,2.48759 0.11603,2.37141 0.22286,4.05266 -4e-5,0.31349 0,0.183 0,0.51496 -3e-5,-1.52525 -0.0745,-3.04961 -0.22286,-4.56762 z M 434.62752,165.3346 V 334.7323 L 307.75558,403.46506 V 236.13154 Z"
     sodipodi:nodetypes="sccccccccccccscccsccccscccccccccccccccccccccccccccccssccccccccsccccccccccccccssccccsccccccccccccccccscccccsccccccccsccsccsscccccccccccccscccccccccccccc" /></svg>
