<?xml version="1.0" encoding="UTF-8" standalone="no"?>
<!-- Created with Inkscape (http://www.inkscape.org/) -->

<svg
   width="500"
   height="500"
   viewBox="0 0 500 500"
   version="1.1"
   id="svg1"
   inkscape:version="1.3.2 (091e20ef0f, 2023-11-25, custom)"
   sodipodi:docname="folder.task.svg"
   xml:space="preserve"
   xmlns:inkscape="http://www.inkscape.org/namespaces/inkscape"
   xmlns:sodipodi="http://sodipodi.sourceforge.net/DTD/sodipodi-0.dtd"
   xmlns:xlink="http://www.w3.org/1999/xlink"
   xmlns="http://www.w3.org/2000/svg"
   xmlns:svg="http://www.w3.org/2000/svg"><sodipodi:namedview
     id="namedview1"
     pagecolor="#505050"
     bordercolor="#eeeeee"
     borderopacity="1"
     inkscape:showpageshadow="0"
     inkscape:pageopacity="0"
     inkscape:pagecheckerboard="0"
     inkscape:deskcolor="#505050"
     inkscape:document-units="px"
     inkscape:zoom="0.68158229"
     inkscape:cx="280.96387"
     inkscape:cy="363.12563"
     inkscape:window-width="1362"
     inkscape:window-height="744"
     inkscape:window-x="0"
     inkscape:window-y="20"
     inkscape:window-maximized="0"
     inkscape:current-layer="layer1"
     showguides="true"><sodipodi:guide
       position="250.02518,350.60736"
       orientation="-0.99997769,0.0066803918"
       id="guide30"
       inkscape:locked="false" /><sodipodi:guide
       position="66.396728,247.89992"
       orientation="0,-1"
       id="guide53"
       inkscape:locked="false" /><sodipodi:guide
       position="290.48569,420.11644"
       orientation="1,0"
       id="guide2"
       inkscape:locked="false" /></sodipodi:namedview><defs
     id="defs1"><linearGradient
       id="linearGradient6"
       inkscape:collect="always"><stop
         style="stop-color:#14d282;stop-opacity:1;"
         offset="0"
         id="stop6" /><stop
         style="stop-color:#ff20f3;stop-opacity:1;"
         offset="1"
         id="stop7" /></linearGradient><linearGradient
       id="swatch61"
       inkscape:swatch="solid"><stop
         style="stop-color:#5090d0;stop-opacity:1;"
         offset="0"
         id="stop61" /></linearGradient><linearGradient
       id="swatch30"
       inkscape:swatch="solid"><stop
         style="stop-color:#f9f9f9;stop-opacity:1;"
         offset="0"
         id="stop30" /></linearGradient><inkscape:perspective
       sodipodi:type="inkscape:persp3d"
       inkscape:vp_x="44.06818 : 315.96746 : 1"
       inkscape:vp_y="0 : 1000 : 0"
       inkscape:vp_z="480.74134 : 298.68846 : 1"
       inkscape:persp3d-origin="250 : 166.66667 : 1"
       id="perspective17" /><inkscape:perspective
       sodipodi:type="inkscape:persp3d"
       inkscape:vp_x="44.06818 : 315.96746 : 1"
       inkscape:vp_y="0 : 1000 : 0"
       inkscape:vp_z="480.74134 : 298.68846 : 1"
       inkscape:persp3d-origin="250 : 166.66667 : 1"
       id="perspective17-5" /><inkscape:perspective
       sodipodi:type="inkscape:persp3d"
       inkscape:vp_x="44.06818 : 315.96746 : 1"
       inkscape:vp_y="0 : 1000 : 0"
       inkscape:vp_z="480.74134 : 298.68846 : 1"
       inkscape:persp3d-origin="250 : 166.66667 : 1"
       id="perspective17-2" /><linearGradient
       inkscape:collect="always"
       xlink:href="#linearGradient6"
       id="linearGradient7"
       x1="128.56383"
       y1="72.684967"
       x2="695.68347"
       y2="711.86536"
       gradientUnits="userSpaceOnUse" /></defs><g
     inkscape:label="Layer 1"
     inkscape:groupmode="layer"
     id="layer1"><path
       id="rect53-0-5"
       style="opacity:0.22288052;fill:#d0ffeb;fill-opacity:1;fill-rule:nonzero;stroke:#d0ffeb;stroke-width:22.162;stroke-linecap:butt;stroke-linejoin:bevel;stroke-miterlimit:10;stroke-dasharray:none;stroke-opacity:1;paint-order:normal"
       d="m 463.85552,42.423164 c -19.06075,2.91543 -158.1781,0 -167.5275,0 V 96.595326 L 40.124908,96.595166 V 457.07016 c 59.556727,0 399.686272,0 423.730462,0 z"
       sodipodi:nodetypes="ccccccc" /><path
       style="fill:none;stroke:#14d282;stroke-width:50;stroke-linecap:round;stroke-linejoin:bevel;paint-order:markers fill stroke;stroke-opacity:1"
       d="M 43.979119,450.13181 V 98.591456"
       id="path1" /><path
       id="rect1"
       style="fill:url(#linearGradient7);fill-opacity:1;stroke:none;stroke-width:0.635911;stroke-linecap:round;stroke-miterlimit:10"
       d="M 198.4707 51.181641 C 187.8054 51.181641 179.2207 60.897097 179.2207 72.964844 L 179.2207 113.83789 C 179.2207 125.90564 187.8054 135.62109 198.4707 135.62109 L 383.84961 135.62109 C 394.51492 135.62109 403.10156 125.90564 403.10156 113.83789 L 403.10156 72.964844 C 403.10156 60.897097 394.51492 51.181641 383.84961 51.181641 L 198.4707 51.181641 z M 425.55469 85.546875 L 425.55469 113.83789 C 425.55469 136.55624 408.15073 158.07617 383.84961 158.07617 L 198.4707 158.07617 C 174.16961 158.07618 156.76563 136.55624 156.76562 113.83789 L 156.76562 85.554688 C 138.33569 86.309716 123.75781 98.87427 123.75781 114.41406 L 123.75781 419.00781 C 123.75781 435.03693 139.25551 447.94336 158.50586 447.94336 L 423.96289 447.94336 C 443.21324 447.94336 458.71094 435.03693 458.71094 419.00781 L 458.71094 114.41406 C 458.71094 98.832826 444.05435 86.240482 425.55469 85.546875 z M 164.34766 201.9082 L 420.78906 201.9082 C 429.46979 201.9082 436.50781 208.94427 436.50781 217.625 C 436.50781 226.30573 429.46979 233.34375 420.78906 233.34375 L 164.34766 233.34375 C 155.66691 233.34375 148.62891 226.30573 148.62891 217.625 C 148.62891 208.94427 155.66691 201.9082 164.34766 201.9082 z M 164.34766 282.70117 L 420.78906 282.70117 C 429.46979 282.70117 436.50781 289.73723 436.50781 298.41797 C 436.50781 307.0987 429.46979 314.13672 420.78906 314.13672 L 164.34766 314.13672 C 155.66691 314.13672 148.62891 307.0987 148.62891 298.41797 C 148.62891 289.73723 155.66691 282.70117 164.34766 282.70117 z M 164.34766 364.81445 L 420.78906 364.81445 C 429.46979 364.81445 436.50781 371.85051 436.50781 380.53125 C 436.50781 389.21198 429.46979 396.25 420.78906 396.25 L 164.34766 396.25 C 155.66691 396.25 148.62891 389.21198 148.62891 380.53125 C 148.62891 371.85051 155.66691 364.81445 164.34766 364.81445 z " /></g></svg>
