<?xml version="1.0" encoding="UTF-8" standalone="no"?>
<!-- Created with Inkscape (http://www.inkscape.org/) -->

<svg
   width="500"
   height="500"
   viewBox="0 0 500 500"
   version="1.1"
   id="svg1"
   inkscape:version="1.3.2 (091e20ef0f, 2023-11-25, custom)"
   sodipodi:docname="folder.nextjs.svg"
   xml:space="preserve"
   xmlns:inkscape="http://www.inkscape.org/namespaces/inkscape"
   xmlns:sodipodi="http://sodipodi.sourceforge.net/DTD/sodipodi-0.dtd"
   xmlns="http://www.w3.org/2000/svg"
   xmlns:svg="http://www.w3.org/2000/svg"><sodipodi:namedview
     id="namedview1"
     pagecolor="#505050"
     bordercolor="#eeeeee"
     borderopacity="1"
     inkscape:showpageshadow="0"
     inkscape:pageopacity="0"
     inkscape:pagecheckerboard="0"
     inkscape:deskcolor="#505050"
     inkscape:document-units="px"
     inkscape:zoom="0.68158229"
     inkscape:cx="234.0143"
     inkscape:cy="198.80211"
     inkscape:window-width="1362"
     inkscape:window-height="744"
     inkscape:window-x="0"
     inkscape:window-y="20"
     inkscape:window-maximized="1"
     inkscape:current-layer="layer1"
     showguides="true"
     showgrid="false"><sodipodi:guide
       position="250.02518,350.60736"
       orientation="-0.99997769,0.0066803918"
       id="guide30"
       inkscape:locked="false" /><sodipodi:guide
       position="727.06956,247.62458"
       orientation="0,-1"
       id="guide53"
       inkscape:locked="false" /></sodipodi:namedview><defs
     id="defs1"><linearGradient
       id="swatch61"
       inkscape:swatch="solid"><stop
         style="stop-color:#5090d0;stop-opacity:1;"
         offset="0"
         id="stop61" /></linearGradient><linearGradient
       id="swatch30"
       inkscape:swatch="solid"><stop
         style="stop-color:#f9f9f9;stop-opacity:1;"
         offset="0"
         id="stop30" /></linearGradient><inkscape:perspective
       sodipodi:type="inkscape:persp3d"
       inkscape:vp_x="44.06818 : 315.96746 : 1"
       inkscape:vp_y="0 : 1000 : 0"
       inkscape:vp_z="480.74134 : 298.68846 : 1"
       inkscape:persp3d-origin="250 : 166.66667 : 1"
       id="perspective17" /><clipPath
       id="clip0"><rect
         width="24"
         height="24"
         fill="white"
         id="rect1" /></clipPath><inkscape:perspective
       sodipodi:type="inkscape:persp3d"
       inkscape:vp_x="44.06818 : 315.96746 : 1"
       inkscape:vp_y="0 : 1000 : 0"
       inkscape:vp_z="480.74134 : 298.68846 : 1"
       inkscape:persp3d-origin="250 : 166.66667 : 1"
       id="perspective17-3" /></defs><g
     inkscape:label="Layer 1"
     inkscape:groupmode="layer"
     id="layer1"
     style="opacity:0.65303062"><g
       inkscape:label="Layer 1"
       id="layer1-9"
       transform="translate(-1.0605819,-3.4343222)"><path
         id="rect53-0"
         style="opacity:0.16428546;fill:#ffffff;fill-opacity:0.47453949;fill-rule:nonzero;stroke:#ffffff;stroke-width:22.0622;stroke-linecap:butt;stroke-linejoin:round;stroke-dasharray:none;stroke-opacity:1;paint-order:markers fill stroke"
         d="m 462.68749,104.21979 c 0,-1.64895 -0.59137,-3.17324 -1.54688,-4.517583 v -48.26953 c 0,-5.97292 -5.36366,-10.78125 -12.02538,-10.78125 H 307.18359 c -6.66173,0 -12.02344,4.80833 -12.02344,10.78125 v 43.39063 H 51.087889 c -6.7206,0 -12.13086,4.19106 -12.13086,9.396483 v 341.68359 c 0,5.20542 5.41026,9.39453 12.13086,9.39453 H 450.55663 c 6.7206,0 12.13086,-4.18911 12.13086,-9.39453 z" /><path
         style="fill:#ffffff;stroke:#fffdfe;stroke-width:50;stroke-linecap:round;stroke-linejoin:bevel;stroke-opacity:1;paint-order:markers fill stroke;fill-opacity:1"
         d="M 43.979119,450.13181 V 98.591456"
         id="path1" /></g><path
       d="m 284.90303,63.294844 c -0.846,0.0762 -3.53974,0.34287 -5.96297,0.53335 -55.88764,4.99066 -108.23717,34.858435 -141.39322,80.764936 -18.46275,25.52481 -30.27115,54.47826 -34.73298,85.14587 -1.57703,10.70618 -1.76935,13.86785 -1.76935,28.38201 0,14.51578 0.19232,17.67746 1.76935,28.38201 10.693,73.1846 63.27343,134.67247 134.58576,157.45375 12.76997,4.07591 26.23248,6.8576 41.54044,8.53344 5.96297,0.64792 31.7331,0.64792 37.69607,0 26.42431,-2.89536 48.81045,-9.37136 70.88835,-20.53385 3.38563,-1.7148 4.03817,-2.17111 3.57746,-2.55272 -0.30823,-0.22897 -14.73118,-19.39064 -32.04133,-42.55353 L 327.59803,344.75289 288.17225,286.96095 C 266.478,255.1883 248.63106,229.20637 248.47727,229.20637 c -0.15395,-0.039 -0.30774,25.63929 -0.3848,56.99136 -0.11526,54.8982 -0.15379,57.10829 -0.84616,58.40251 -0.99995,1.86745 -1.76938,2.62905 -3.38481,3.46697 -1.23079,0.61057 -2.3078,0.72424 -8.11584,0.72424 h -6.65436 l -1.76938,-1.10423 c -1.1539,-0.72425 -2.00006,-1.67746 -2.57701,-2.78169 l -0.8078,-1.71481 0.0769,-76.38363 0.11542,-76.42178 1.19243,-1.48568 c 0.61548,-0.80008 1.92317,-1.82864 2.84639,-2.32392 1.5769,-0.76192 2.19238,-0.83808 8.84657,-0.83808 7.84679,0 9.15448,0.30463 11.19307,2.51423 0.57695,0.60961 21.92462,32.45842 47.46521,70.82236 25.53896,38.36232 60.46423,90.74514 77.62027,116.46076 l 31.15598,46.74474 1.57723,-1.02791 c 13.96224,-8.99137 28.73276,-21.79235 40.42425,-35.12595 24.88642,-28.30569 40.92594,-62.82106 46.3118,-99.62284 1.57723,-10.70455 1.76905,-13.86623 1.76905,-28.38201 0,-14.51416 -0.19182,-17.67583 -1.76905,-28.38201 C 482.06961,156.55553 429.48825,95.067509 358.1769,72.285654 c -12.57847,-4.03824 -25.96359,-6.8193 -40.96365,-8.49556 -3.69386,-0.38096 -29.11805,-0.80003 -32.31022,-0.49525 z m 80.54355,117.871096 c 1.84611,0.9144 3.34628,2.66672 3.88404,4.49536 0.30823,0.99057 0.38529,22.17233 0.30823,69.90699 l -0.11476,68.49811 -12.19319,-18.51538 -12.23253,-18.51374 v -49.79275 c 0,-32.19194 0.15412,-50.28786 0.38529,-51.1641 0.61482,-2.13345 1.96088,-3.80961 3.80699,-4.80017 1.57723,-0.80008 2.15434,-0.87624 8.19437,-0.87624 5.69245,0 6.69256,0.0762 7.96156,0.76192 z"
       fill="#000000"
       id="path1-6"
       clip-path="url(#clipPath2)"
       style="fill:#ffffff;fill-opacity:1;stroke-width:16.3168" /></g></svg>
