<?xml version="1.0" encoding="UTF-8" standalone="no"?>
<!-- Created with Inkscape (http://www.inkscape.org/) -->

<svg
   width="500"
   height="500"
   viewBox="0 0 500 500"
   version="1.1"
   id="svg1"
   inkscape:version="1.3.2 (091e20ef0f, 2023-11-25, custom)"
   sodipodi:docname="folder.debug.svg"
   xml:space="preserve"
   xmlns:inkscape="http://www.inkscape.org/namespaces/inkscape"
   xmlns:sodipodi="http://sodipodi.sourceforge.net/DTD/sodipodi-0.dtd"
   xmlns:xlink="http://www.w3.org/1999/xlink"
   xmlns="http://www.w3.org/2000/svg"
   xmlns:svg="http://www.w3.org/2000/svg"><sodipodi:namedview
     id="namedview1"
     pagecolor="#505050"
     bordercolor="#eeeeee"
     borderopacity="1"
     inkscape:showpageshadow="0"
     inkscape:pageopacity="0"
     inkscape:pagecheckerboard="0"
     inkscape:deskcolor="#505050"
     inkscape:document-units="px"
     inkscape:zoom="0.70710678"
     inkscape:cx="292.0351"
     inkscape:cy="309.00566"
     inkscape:window-width="1362"
     inkscape:window-height="744"
     inkscape:window-x="0"
     inkscape:window-y="20"
     inkscape:window-maximized="0"
     inkscape:current-layer="layer1"
     showguides="true"><sodipodi:guide
       position="250.02518,350.60736"
       orientation="-0.99997769,0.0066803918"
       id="guide30"
       inkscape:locked="false" /><sodipodi:guide
       position="66.396728,247.89992"
       orientation="0,-1"
       id="guide53"
       inkscape:locked="false" /></sodipodi:namedview><defs
     id="defs1"><linearGradient
       id="linearGradient1"
       inkscape:collect="always"><stop
         style="stop-color:#ff2b2b;stop-opacity:1;"
         offset="0"
         id="stop1" /><stop
         style="stop-color:#ff5c2b;stop-opacity:1;"
         offset="1"
         id="stop2" /></linearGradient><linearGradient
       id="swatch13"
       inkscape:swatch="solid"><stop
         style="stop-color:#ff405c;stop-opacity:1;"
         offset="0"
         id="stop13" /></linearGradient><linearGradient
       id="swatch61"
       inkscape:swatch="solid"><stop
         style="stop-color:#5090d0;stop-opacity:1;"
         offset="0"
         id="stop61" /></linearGradient><linearGradient
       id="swatch30"
       inkscape:swatch="solid"><stop
         style="stop-color:#f9f9f9;stop-opacity:1;"
         offset="0"
         id="stop30" /></linearGradient><inkscape:perspective
       sodipodi:type="inkscape:persp3d"
       inkscape:vp_x="44.06818 : 315.96746 : 1"
       inkscape:vp_y="0 : 1000 : 0"
       inkscape:vp_z="480.74134 : 298.68846 : 1"
       inkscape:persp3d-origin="250 : 166.66667 : 1"
       id="perspective17" /><inkscape:perspective
       sodipodi:type="inkscape:persp3d"
       inkscape:vp_x="44.06818 : 315.96746 : 1"
       inkscape:vp_y="0 : 1000 : 0"
       inkscape:vp_z="480.74134 : 298.68846 : 1"
       inkscape:persp3d-origin="250 : 166.66667 : 1"
       id="perspective17-9" /><inkscape:perspective
       sodipodi:type="inkscape:persp3d"
       inkscape:vp_x="44.06818 : 315.96746 : 1"
       inkscape:vp_y="0 : 1000 : 0"
       inkscape:vp_z="480.74134 : 298.68846 : 1"
       inkscape:persp3d-origin="250 : 166.66667 : 1"
       id="perspective17-1" /><inkscape:perspective
       sodipodi:type="inkscape:persp3d"
       inkscape:vp_x="44.06818 : 315.96746 : 1"
       inkscape:vp_y="0 : 1000 : 0"
       inkscape:vp_z="480.74134 : 298.68846 : 1"
       inkscape:persp3d-origin="250 : 166.66667 : 1"
       id="perspective17-8" /><linearGradient
       inkscape:collect="always"
       xlink:href="#linearGradient1"
       id="linearGradient2"
       x1="111.85863"
       y1="511.48828"
       x2="555.97833"
       y2="-16.587097"
       gradientUnits="userSpaceOnUse"
       gradientTransform="matrix(0.957282,0,0,0.957282,13.036383,10.49249)" /><inkscape:perspective
       sodipodi:type="inkscape:persp3d"
       inkscape:vp_x="44.06818 : 315.96746 : 1"
       inkscape:vp_y="0 : 1000 : 0"
       inkscape:vp_z="480.74134 : 298.68846 : 1"
       inkscape:persp3d-origin="250 : 166.66667 : 1"
       id="perspective17-29" /><inkscape:perspective
       sodipodi:type="inkscape:persp3d"
       inkscape:vp_x="44.06818 : 315.96746 : 1"
       inkscape:vp_y="0 : 1000 : 0"
       inkscape:vp_z="480.74134 : 298.68846 : 1"
       inkscape:persp3d-origin="250 : 166.66667 : 1"
       id="perspective17-5" /><inkscape:perspective
       sodipodi:type="inkscape:persp3d"
       inkscape:vp_x="44.06818 : 315.96746 : 1"
       inkscape:vp_y="0 : 1000 : 0"
       inkscape:vp_z="480.74134 : 298.68846 : 1"
       inkscape:persp3d-origin="250 : 166.66667 : 1"
       id="perspective17-2" /></defs><g
     inkscape:label="Layer 1"
     inkscape:groupmode="layer"
     id="layer1"><path
       id="rect53-0-5"
       style="opacity:0.222881;fill:#ff4e2b;fill-opacity:1;fill-rule:nonzero;stroke:#ff4e2b;stroke-width:22.162;stroke-linecap:butt;stroke-linejoin:bevel;stroke-miterlimit:10;stroke-dasharray:none;stroke-opacity:1;paint-order:normal"
       d="m 463.85552,42.423164 c -19.06075,2.91543 -158.1781,0 -167.5275,0 V 96.595326 L 40.124908,96.595166 V 457.07016 c 59.556727,0 399.686272,0 423.730462,0 z"
       sodipodi:nodetypes="ccccccc"
       transform="translate(5.223594,0.28983621)" /><path
       style="display:inline;fill:none;stroke:#ff2b2b;stroke-width:50;stroke-linecap:round;stroke-linejoin:bevel;stroke-opacity:1;paint-order:markers fill stroke"
       d="M 43.979119,450.13181 V 98.591456"
       id="path1"
       transform="translate(6.1505861,-0.71032545)" /><path
       id="path8"
       style="color:#000000;fill:url(#linearGradient2);stroke-width:1.16862;stroke-linecap:round;stroke-miterlimit:10;-inkscape-stroke:none"
       d="m 306.32683,41.846038 a 82.989316,54.189632 0 0 0 -82.9882,54.18805 82.989316,54.189632 0 0 0 6.80176,21.213232 l 29.78847,1e-5 46.3318,26.74823 42.85789,-24.74195 31.82213,1e-5 a 82.989316,54.189632 0 0 0 8.37667,-23.219532 82.989316,54.189632 0 0 0 -82.99052,-54.18805 z M 228.9284,138.45146 a 118.83199,170.15389 0 0 0 -13.80893,19.61551 l -9.85796,-5.69249 -19.32109,-11.1544 h -43.06558 a 22.521701,22.521701 0 0 0 -22.52338,22.5211 22.521701,22.521701 0 0 0 22.52338,22.5211 l 30.99589,-1e-5 23.21953,13.40722 a 118.83199,170.15389 0 0 0 -8.86966,46.35004 l -31.56194,1e-5 a 22.408697,22.408697 0 0 0 -22.40927,22.40925 22.408697,22.408697 0 0 0 22.40927,22.40699 h 31.68748 a 118.83199,170.15389 0 0 0 15.9978,63.89994 l -56.21488,56.21715 a 22.521701,22.521701 0 0 0 0,31.84954 22.521701,22.521701 0 0 0 31.84956,0 l 47.7241,-47.72409 a 118.83199,170.15389 0 0 0 78.29317,42.23932 118.83199,170.15389 0 0 0 78.06721,-41.93119 l 46.13549,46.13549 a 22.521701,22.521701 0 0 0 31.84956,0 22.521701,22.521701 0 0 0 0,-31.84953 l -54.40489,-54.40488 a 118.83199,170.15389 0 0 0 16.0115,-64.43175 h 31.07122 a 22.408697,22.408697 0 0 0 22.40927,-22.407 22.408697,22.408697 0 0 0 -22.40925,-22.40924 h -30.91831 a 118.83199,170.15389 0 0 0 -11.75015,-54.72899 l 2.9307,-1.69132 h 52.48303 a 22.521701,22.521701 0 0 0 22.52339,-22.52108 22.521701,22.521701 0 0 0 -22.52337,-22.52111 h -64.55274 l -10.67737,6.16494 a 118.83199,170.15389 0 0 0 -7.33585,-10.27108 10.601747,10.601747 0 0 1 -0.11869,0.007 H 354.7996 L 306.26066,168.47943 254.2478,138.4513 Z" /></g></svg>
