<?xml version="1.0" encoding="UTF-8" standalone="no"?>
<!-- Created with Inkscape (http://www.inkscape.org/) -->

<svg
   width="500"
   height="500"
   viewBox="0 0 500 500"
   version="1.1"
   id="svg1"
   inkscape:version="1.3.2 (091e20ef0f, 2023-11-25, custom)"
   sodipodi:docname="folder.about.svg"
   xmlns:inkscape="http://www.inkscape.org/namespaces/inkscape"
   xmlns:sodipodi="http://sodipodi.sourceforge.net/DTD/sodipodi-0.dtd"
   xmlns:xlink="http://www.w3.org/1999/xlink"
   xmlns="http://www.w3.org/2000/svg"
   xmlns:svg="http://www.w3.org/2000/svg">
  <sodipodi:namedview
     id="namedview1"
     pagecolor="#505050"
     bordercolor="#eeeeee"
     borderopacity="1"
     inkscape:showpageshadow="0"
     inkscape:pageopacity="0"
     inkscape:pagecheckerboard="0"
     inkscape:deskcolor="#505050"
     inkscape:document-units="px"
     inkscape:zoom="0.96390292"
     inkscape:cx="278.55502"
     inkscape:cy="226.68258"
     inkscape:window-width="1352"
     inkscape:window-height="734"
     inkscape:window-x="4"
     inkscape:window-y="24"
     inkscape:window-maximized="0"
     inkscape:current-layer="layer1"
     showguides="true">
    <sodipodi:guide
       position="250.02518,350.60736"
       orientation="-0.99997769,0.0066803918"
       id="guide30"
       inkscape:locked="false" />
    <sodipodi:guide
       position="66.396728,247.89992"
       orientation="0,-1"
       id="guide53"
       inkscape:locked="false" />
  </sodipodi:namedview>
  <defs
     id="defs1">
    <linearGradient
       id="linearGradient1"
       inkscape:collect="always">
      <stop
         style="stop-color:#9740ff;stop-opacity:1;"
         offset="0"
         id="stop1" />
      <stop
         style="stop-color:#d140ff;stop-opacity:1;"
         offset="1"
         id="stop2" />
    </linearGradient>
    <linearGradient
       id="swatch61"
       inkscape:swatch="solid">
      <stop
         style="stop-color:#5090d0;stop-opacity:1;"
         offset="0"
         id="stop61" />
    </linearGradient>
    <linearGradient
       id="swatch30"
       inkscape:swatch="solid">
      <stop
         style="stop-color:#f9f9f9;stop-opacity:1;"
         offset="0"
         id="stop30" />
    </linearGradient>
    <inkscape:perspective
       sodipodi:type="inkscape:persp3d"
       inkscape:vp_x="44.06818 : 315.96746 : 1"
       inkscape:vp_y="0 : 1000 : 0"
       inkscape:vp_z="480.74134 : 298.68846 : 1"
       inkscape:persp3d-origin="250 : 166.66667 : 1"
       id="perspective17" />
    <linearGradient
       inkscape:collect="always"
       xlink:href="#linearGradient1"
       id="linearGradient2"
       x1="112.50195"
       y1="255.02441"
       x2="487.93359"
       y2="255.02441"
       gradientUnits="userSpaceOnUse" />
  </defs>
  <g
     inkscape:label="Layer 1"
     inkscape:groupmode="layer"
     id="layer1">
    <path
       id="rect53-0"
       style="fill:#9740ff;fill-opacity:1;fill-rule:nonzero;stroke:#9740ff;stroke-width:22.0622;stroke-linecap:butt;stroke-linejoin:round;stroke-dasharray:none;stroke-opacity:1;paint-order:markers fill stroke;opacity:0.17125076"
       d="m 462.68749,104.21979 c 0,-1.64895 -0.59137,-3.17324 -1.54688,-4.517583 v -48.26953 c 0,-5.97292 -5.36366,-10.78125 -12.02538,-10.78125 H 307.18359 c -6.66173,0 -12.02344,4.80833 -12.02344,10.78125 v 43.39063 H 51.087889 c -6.7206,0 -12.13086,4.19106 -12.13086,9.396483 v 341.68359 c 0,5.20542 5.41026,9.39453 12.13086,9.39453 H 450.55663 c 6.7206,0 12.13086,-4.18911 12.13086,-9.39453 z" />
    <path
       style="fill:none;stroke:#9740ff;stroke-width:50;stroke-linecap:round;stroke-linejoin:bevel;paint-order:markers fill stroke;stroke-opacity:1"
       d="M 43.979119,450.13181 V 98.591456"
       id="path1" />
    <path
       id="path2"
       style="opacity:1;fill:url(#linearGradient2);fill-opacity:1;stroke:none;stroke-width:10.437;stroke-linejoin:round;stroke-miterlimit:10;stroke-opacity:1"
       d="M 300.21875 67.308594 A 187.71591 187.71591 0 0 0 112.50195 255.02344 A 187.71591 187.71591 0 0 0 300.21875 442.74023 A 187.71591 187.71591 0 0 0 487.93359 255.02344 A 187.71591 187.71591 0 0 0 300.21875 67.308594 z M 306.40039 103.14453 C 315.69488 103.14453 323.03304 105.59059 328.41406 110.48242 C 333.79508 115.12967 336.48633 121.48902 336.48633 129.56055 C 336.48633 137.63207 333.79508 144.11402 328.41406 149.00586 C 323.03304 153.6531 315.69488 155.97656 306.40039 155.97656 C 297.1059 155.97656 289.76774 153.6531 284.38672 149.00586 C 279.0057 144.11402 276.31641 137.63207 276.31641 129.56055 C 276.31641 121.48902 279.0057 115.12967 284.38672 110.48242 C 289.76774 105.59059 297.1059 103.14453 306.40039 103.14453 z M 224.95117 189.73047 L 332.44922 189.73047 L 332.44922 350.06055 L 394.45312 350.06055 L 394.45312 391.51953 L 217.61328 391.51953 L 217.61328 350.06055 L 286.58789 350.06055 L 286.58789 231.18945 L 224.95117 231.18945 L 224.95117 189.73047 z " />
  </g>
</svg>
