<?xml version="1.0" encoding="UTF-8" standalone="no"?>
<!-- Created with Inkscape (http://www.inkscape.org/) -->

<svg
   width="500"
   height="500"
   viewBox="0 0 500 500"
   version="1.1"
   id="svg1"
   inkscape:version="1.3.2 (091e20ef0f, 2023-11-25, custom)"
   sodipodi:docname="folder.comp.svg"
   xml:space="preserve"
   xmlns:inkscape="http://www.inkscape.org/namespaces/inkscape"
   xmlns:sodipodi="http://sodipodi.sourceforge.net/DTD/sodipodi-0.dtd"
   xmlns="http://www.w3.org/2000/svg"
   xmlns:svg="http://www.w3.org/2000/svg"><sodipodi:namedview
     id="namedview1"
     pagecolor="#505050"
     bordercolor="#eeeeee"
     borderopacity="1"
     inkscape:showpageshadow="0"
     inkscape:pageopacity="0"
     inkscape:pagecheckerboard="0"
     inkscape:deskcolor="#505050"
     inkscape:document-units="px"
     inkscape:zoom="0.96390292"
     inkscape:cx="280.62992"
     inkscape:cy="232.90727"
     inkscape:window-width="1362"
     inkscape:window-height="744"
     inkscape:window-x="0"
     inkscape:window-y="20"
     inkscape:window-maximized="0"
     inkscape:current-layer="layer1"
     showguides="true"><sodipodi:guide
       position="262.73687,243.10308"
       orientation="-0.99997769,0.0066803918"
       id="guide30"
       inkscape:locked="false" /><sodipodi:guide
       position="285.73865,249.18531"
       orientation="0,-1"
       id="guide53"
       inkscape:locked="false" /></sodipodi:namedview><defs
     id="defs1"><linearGradient
       id="swatch61"
       inkscape:swatch="solid"><stop
         style="stop-color:#5090d0;stop-opacity:1;"
         offset="0"
         id="stop61" /></linearGradient><linearGradient
       id="swatch30"
       inkscape:swatch="solid"><stop
         style="stop-color:#f9f9f9;stop-opacity:1;"
         offset="0"
         id="stop30" /></linearGradient><inkscape:perspective
       sodipodi:type="inkscape:persp3d"
       inkscape:vp_x="44.06818 : 315.96746 : 1"
       inkscape:vp_y="0 : 1000 : 0"
       inkscape:vp_z="480.74134 : 298.68846 : 1"
       inkscape:persp3d-origin="250 : 166.66667 : 1"
       id="perspective17" /></defs><g
     inkscape:label="Layer 1"
     inkscape:groupmode="layer"
     id="layer1"><path
       id="rect53-0"
       style="fill:none;fill-opacity:0.3137255;fill-rule:nonzero;stroke:#fb3434;stroke-width:17.062;stroke-linecap:butt;stroke-linejoin:round;stroke-dasharray:none;stroke-opacity:1;paint-order:markers fill stroke;opacity:0.26886472"
       d="m 462.68749,104.21979 c 0,-1.64895 -0.59137,-3.17324 -1.54688,-4.517583 v -48.26953 c 0,-5.97292 -5.36366,-10.78125 -12.02538,-10.78125 H 307.18359 c -6.66173,0 -12.02344,4.80833 -12.02344,10.78125 v 43.39063 H 51.087889 c -6.7206,0 -12.13086,4.19106 -12.13086,9.396483 v 341.68359 c 0,5.20542 5.41026,9.39453 12.13086,9.39453 H 450.55663 c 6.7206,0 12.13086,-4.18911 12.13086,-9.39453 z" /><path
       d="m 92.292896,218.81997 0.722609,155.07978 c 0.01212,1.99421 1.111131,3.82161 2.865003,4.76433 l 124.044962,64.85497 c 0.80976,0.43149 1.69575,0.64901 2.58178,0.64901 0.005,0 0.007,0 0.0121,0 0.374,0.42424 0.79158,0.82306 1.28907,1.1204 0.85696,0.51121 1.82285,0.76866 2.79237,0.76866 0.89327,0 1.77929,-0.22116 2.5854,-0.65627 l 122.47629,-66.32344 c 1.75751,-0.9536 2.85775,-2.79187 2.85775,-4.78245 V 212.94614 c 0,-0.0472 -0.0189,-0.0906 -0.0189,-0.14137 -0.005,-0.0399 0.0121,-0.0761 0.0121,-0.11953 -0.007,-0.156 -0.069,-0.29732 -0.0799,-0.44961 -0.0472,-0.29731 -0.0799,-0.59462 -0.17066,-0.88106 -0.0655,-0.19943 -0.14902,-0.37708 -0.23238,-0.56927 -0.11263,-0.25379 -0.22513,-0.50396 -0.37765,-0.73602 -0.11262,-0.18132 -0.24692,-0.34446 -0.38128,-0.51125 -0.17065,-0.2103 -0.34858,-0.40609 -0.55194,-0.59102 -0.15981,-0.14493 -0.33043,-0.27555 -0.51201,-0.40245 -0.11626,-0.0798 -0.2142,-0.19218 -0.34131,-0.26469 -0.11626,-0.0724 -0.25055,-0.10159 -0.37765,-0.16323 -0.10547,-0.0544 -0.18891,-0.13055 -0.29413,-0.1777 L 224.98294,146.89106 c -1.47065,-0.62 -3.13737,-0.562 -4.56805,0.1522 L 95.653394,211.98522 c -1.830103,0.92095 -2.984827,2.79188 -2.995714,4.83322 0,0.0327 0.01515,0.0617 0.01515,0.0904 -0.221501,0.60552 -0.381259,1.24365 -0.377647,1.91082 z M 336.49019,213.54441 226.53786,274.92948 110.10385,216.89465 223.05919,157.88811 Z M 232.04274,431.4886 V 284.32032 L 343.62547,222.0542 v 148.98478 z"
       id="path1-8"
       style="fill:#fb3434;fill-opacity:1;stroke:none;stroke-width:3.62852;stroke-opacity:1" /><path
       d="m 231.48736,122.79166 0.72261,155.07978 c 0.0121,1.99421 1.11113,3.82161 2.865,4.76433 l 124.04497,64.85498 c 0.80976,0.43148 1.69575,0.64901 2.58178,0.64901 0.005,0 0.007,0 0.0121,0 0.374,0.42423 0.79158,0.82306 1.28908,1.12039 0.85695,0.51122 1.82284,0.76866 2.79236,0.76866 0.89327,0 1.77929,-0.22116 2.5854,-0.65627 l 122.47629,-66.32343 c 1.75751,-0.95361 2.85775,-2.79188 2.85775,-4.78246 V 116.91783 c 0,-0.0472 -0.0189,-0.0906 -0.0189,-0.14137 -0.005,-0.0399 0.0121,-0.0761 0.0121,-0.11953 -0.007,-0.156 -0.069,-0.29732 -0.0799,-0.44961 -0.0472,-0.29731 -0.0799,-0.59461 -0.17066,-0.88106 -0.0655,-0.19942 -0.14902,-0.37707 -0.23238,-0.56926 -0.11263,-0.2538 -0.22513,-0.50397 -0.37765,-0.73603 -0.11262,-0.18131 -0.24692,-0.34446 -0.38128,-0.51124 -0.17065,-0.2103 -0.34858,-0.40609 -0.55194,-0.59103 -0.15981,-0.14493 -0.33043,-0.27555 -0.51201,-0.40245 -0.11626,-0.0798 -0.2142,-0.19218 -0.34131,-0.26468 -0.11626,-0.0724 -0.25055,-0.1016 -0.37765,-0.16324 -0.10547,-0.0544 -0.18891,-0.13054 -0.29413,-0.1777 L 364.17741,50.862765 c -1.47065,-0.619999 -3.13737,-0.562002 -4.56805,0.152206 l -124.7615,64.941949 c -1.8301,0.92094 -2.98483,2.79187 -2.99572,4.83321 0,0.0327 0.0152,0.0617 0.0152,0.0904 -0.2215,0.60551 -0.38126,1.24365 -0.37765,1.91082 z M 475.68466,117.51611 365.73233,178.90117 249.29832,120.86635 362.25366,61.859808 Z M 371.23721,335.46029 V 188.29201 l 111.58273,-62.26612 v 148.98478 z"
       id="path1-8-2"
       style="fill:#fb3434;fill-opacity:1;stroke:none;stroke-width:3.62852;stroke-opacity:1" /><path
       style="opacity:1;fill:none;stroke:#fb3434;stroke-width:50;stroke-linecap:round;stroke-linejoin:bevel;paint-order:markers fill stroke;stroke-opacity:1"
       d="M 41.971025,452.45682 V 99.591926"
       id="path1" /></g></svg>
