<?xml version="1.0" encoding="UTF-8" standalone="no"?>
<!-- Created with Inkscape (http://www.inkscape.org/) -->

<svg
   width="500"
   height="500"
   viewBox="0 0 500 500"
   version="1.1"
   id="svg1"
   inkscape:version="1.3.2 (091e20ef0f, 2023-11-25, custom)"
   sodipodi:docname="folder.bin.svg"
   xml:space="preserve"
   xmlns:inkscape="http://www.inkscape.org/namespaces/inkscape"
   xmlns:sodipodi="http://sodipodi.sourceforge.net/DTD/sodipodi-0.dtd"
   xmlns="http://www.w3.org/2000/svg"
   xmlns:svg="http://www.w3.org/2000/svg"><sodipodi:namedview
     id="namedview1"
     pagecolor="#505050"
     bordercolor="#eeeeee"
     borderopacity="1"
     inkscape:showpageshadow="0"
     inkscape:pageopacity="0"
     inkscape:pagecheckerboard="0"
     inkscape:deskcolor="#505050"
     inkscape:document-units="px"
     inkscape:zoom="0.96390292"
     inkscape:cx="320.05298"
     inkscape:cy="198.67146"
     inkscape:window-width="1362"
     inkscape:window-height="744"
     inkscape:window-x="0"
     inkscape:window-y="20"
     inkscape:window-maximized="1"
     inkscape:current-layer="layer1"
     showguides="true"><sodipodi:guide
       position="250.02518,350.60736"
       orientation="-0.99997769,0.0066803918"
       id="guide30"
       inkscape:locked="false" /><sodipodi:guide
       position="66.396728,247.89992"
       orientation="0,-1"
       id="guide53"
       inkscape:locked="false" /></sodipodi:namedview><defs
     id="defs1"><linearGradient
       id="swatch61"
       inkscape:swatch="solid"><stop
         style="stop-color:#5090d0;stop-opacity:1;"
         offset="0"
         id="stop61" /></linearGradient><linearGradient
       id="swatch30"
       inkscape:swatch="solid"><stop
         style="stop-color:#f9f9f9;stop-opacity:1;"
         offset="0"
         id="stop30" /></linearGradient><inkscape:perspective
       sodipodi:type="inkscape:persp3d"
       inkscape:vp_x="44.06818 : 315.96746 : 1"
       inkscape:vp_y="0 : 1000 : 0"
       inkscape:vp_z="480.74134 : 298.68846 : 1"
       inkscape:persp3d-origin="250 : 166.66667 : 1"
       id="perspective17" /><inkscape:perspective
       sodipodi:type="inkscape:persp3d"
       inkscape:vp_x="44.06818 : 315.96746 : 1"
       inkscape:vp_y="0 : 1000 : 0"
       inkscape:vp_z="480.74134 : 298.68846 : 1"
       inkscape:persp3d-origin="250 : 166.66667 : 1"
       id="perspective17-6" /></defs><g
     inkscape:label="Layer 1"
     inkscape:groupmode="layer"
     id="layer1"><g
       inkscape:label="Layer 1"
       id="layer1-1"
       transform="translate(-2.3073701,-9.7779197)"><path
         id="rect53-0-2"
         style="opacity:0.29812686;fill:#ff405c;fill-opacity:0.313725;fill-rule:nonzero;stroke:#ff4545;stroke-width:22.0622;stroke-linecap:butt;stroke-linejoin:round;stroke-dasharray:none;stroke-opacity:1;paint-order:markers fill stroke"
         d="m 462.68749,104.21979 c 0,-1.64895 -0.59137,-3.17324 -1.54688,-4.517583 v -48.26953 c 0,-5.97292 -5.36366,-10.78125 -12.02538,-10.78125 H 307.18359 c -6.66173,0 -12.02344,4.80833 -12.02344,10.78125 v 43.39063 H 51.087889 c -6.7206,0 -12.13086,4.19106 -12.13086,9.396483 v 341.68359 c 0,5.20542 5.41026,9.39453 12.13086,9.39453 H 450.55663 c 6.7206,0 12.13086,-4.18911 12.13086,-9.39453 z" /><path
         style="fill:none;stroke:#ff4545;stroke-width:50;stroke-linecap:round;stroke-linejoin:bevel;stroke-opacity:1;paint-order:markers fill stroke"
         d="M 43.979119,450.13181 V 98.591456"
         id="path1" /></g><path
       id="text1"
       style="-inkscape-font-specification:'FiraCode Nerd Font Mono Bold';fill:#ff4545;stroke-width:29.165;stroke-linecap:round;stroke-miterlimit:10"
       d="m 271.74072,104.91863 c -17.06704,0 -29.90062,6.5541 -38.5024,19.66157 -8.53351,13.03921 -12.80144,31.23221 -12.80144,54.5799 0,23.41596 4.26793,41.7454 12.80144,54.98941 8.60178,13.17575 21.43536,19.76309 38.5024,19.76309 16.93049,0 29.69758,-6.58734 38.29936,-19.76309 8.67004,-13.24401 13.00448,-31.57345 13.00448,-54.98941 0,-23.34769 -4.33444,-41.54069 -13.00448,-54.5799 -8.60178,-13.10747 -21.36887,-19.66157 -38.29936,-19.66157 z m 119.09469,3.58406 -45.77376,27.85346 13.72198,22.22013 29.18349,-18.22657 v 85.60791 h -34.20255 v 24.47415 h 92.26499 V 225.95762 H 419.50787 V 108.50269 Z m -119.09469,19.86632 c 3.48166,0 6.41677,0.51077 8.80615,1.53479 2.45766,0.95576 4.50591,2.73116 6.14435,5.32534 l -34.61207,72.39868 c -0.4096,-3.61821 -0.71572,-7.74798 -0.92053,-12.39021 -0.20481,-4.7105 -0.30799,-10.06991 -0.30799,-16.07751 0,-18.36411 1.6722,-31.40408 5.01733,-39.11837 3.34515,-7.78257 8.63634,-11.67272 15.87276,-11.67272 z m 20.17259,30.92477 c 0.34134,5.39318 0.51274,12.01549 0.51274,19.86632 0,12.6296 -0.71715,22.73275 -2.15078,30.31051 -1.43363,7.50949 -3.68655,12.90215 -6.7586,16.17903 -3.0038,3.27685 -6.92892,4.91581 -11.77595,4.91581 -2.66245,0 -5.0518,-0.27287 -7.16812,-0.81901 -2.04803,-0.54615 -3.82343,-1.53617 -5.32533,-2.9698 z m 102.71091,106.44467 c -17.06703,0 -29.90233,6.55408 -38.50412,19.66157 -8.5335,13.0392 -12.79972,31.23392 -12.79972,54.58161 0,23.41597 4.26622,41.7454 12.79972,54.98941 8.60179,13.17574 21.43709,19.76308 38.50412,19.76308 16.93049,0 29.69586,-6.58734 38.29765,-19.76308 8.67004,-13.24401 13.00447,-31.57344 13.00446,-54.98941 10e-6,-23.34769 -4.33442,-41.54241 -13.00446,-54.58161 -8.60179,-13.10749 -21.36716,-19.66157 -38.29765,-19.66157 z m -126.67232,3.58405 -45.77375,27.85346 13.72198,22.22185 29.18521,-18.22828 v 85.60962 h -34.20255 v 24.47415 h 92.26328 V 386.77915 H 296.62438 V 269.3225 Z m 126.67232,19.86633 c 3.48167,0 6.41676,0.51248 8.80615,1.53651 2.45765,0.95576 4.50591,2.73115 6.14434,5.32533 l -34.61206,72.39868 c -0.40961,-3.61821 -0.71746,-7.7497 -0.92225,-12.39193 -0.2048,-4.71049 -0.30627,-10.06819 -0.30627,-16.07579 0,-18.36412 1.67219,-31.40408 5.01733,-39.11838 3.34514,-7.78256 8.63633,-11.67442 15.87276,-11.67442 z m 20.17259,30.92648 c 0.34134,5.39319 0.51275,12.01549 0.51275,19.86632 0,12.62961 -0.71716,22.73275 -2.15078,30.31051 -1.43364,7.50949 -3.68655,12.90215 -6.75861,16.17902 -3.0038,3.27687 -6.92891,4.91583 -11.77595,4.91583 -2.66246,0 -5.05181,-0.27287 -7.16812,-0.81903 -2.04805,-0.54614 -3.82344,-1.53616 -5.32533,-2.96979 z" /><path
       id="rect53-0"
       style="fill:#ff4545;fill-opacity:0.159512;fill-rule:nonzero;stroke:#ff4545;stroke-width:19.4359;stroke-linecap:butt;stroke-linejoin:round;stroke-dasharray:none;stroke-opacity:1;paint-order:markers fill stroke"
       d="m 178.3143,69.602832 c -1.45265,0 -2.7955,0.520975 -3.97981,1.362734 h -42.52348 c -5.26191,0 -9.49785,4.725168 -9.49785,10.593883 V 206.59544 c 0,5.86872 4.23594,10.59217 9.49785,10.59217 h 38.22537 v 215.01772 c 0,5.92058 3.69216,10.6868 8.27792,10.6868 h 301.00933 c 4.58577,0 8.27621,-4.76622 8.27621,-10.6868 V 80.289626 c 0,-5.920575 -3.69044,-10.686794 -8.27621,-10.686794 z" /></g></svg>
