<?xml version="1.0" encoding="UTF-8" standalone="no"?>
<!-- Created with Inkscape (http://www.inkscape.org/) -->

<svg
   width="500"
   height="500"
   viewBox="0 0 500 500"
   version="1.1"
   id="svg1"
   inkscape:version="1.3.2 (091e20ef0f, 2023-11-25, custom)"
   sodipodi:docname="font.svg"
   xml:space="preserve"
   xmlns:inkscape="http://www.inkscape.org/namespaces/inkscape"
   xmlns:sodipodi="http://sodipodi.sourceforge.net/DTD/sodipodi-0.dtd"
   xmlns="http://www.w3.org/2000/svg"
   xmlns:svg="http://www.w3.org/2000/svg"><sodipodi:namedview
     id="namedview1"
     pagecolor="#505050"
     bordercolor="#eeeeee"
     borderopacity="1"
     inkscape:showpageshadow="0"
     inkscape:pageopacity="0"
     inkscape:pagecheckerboard="0"
     inkscape:deskcolor="#505050"
     inkscape:document-units="px"
     inkscape:zoom="0.96390292"
     inkscape:cx="145.76157"
     inkscape:cy="259.88094"
     inkscape:window-width="1362"
     inkscape:window-height="744"
     inkscape:window-x="0"
     inkscape:window-y="20"
     inkscape:window-maximized="1"
     inkscape:current-layer="layer1"
     showguides="true"><sodipodi:guide
       position="250.02518,350.60736"
       orientation="-0.99997769,0.0066803918"
       id="guide30"
       inkscape:locked="false" /><sodipodi:guide
       position="66.396728,247.89992"
       orientation="0,-1"
       id="guide53"
       inkscape:locked="false" /></sodipodi:namedview><defs
     id="defs1"><linearGradient
       id="swatch61"
       inkscape:swatch="solid"><stop
         style="stop-color:#5090d0;stop-opacity:1;"
         offset="0"
         id="stop61" /></linearGradient><linearGradient
       id="swatch30"
       inkscape:swatch="solid"><stop
         style="stop-color:#f9f9f9;stop-opacity:1;"
         offset="0"
         id="stop30" /></linearGradient><inkscape:perspective
       sodipodi:type="inkscape:persp3d"
       inkscape:vp_x="44.06818 : 315.96746 : 1"
       inkscape:vp_y="0 : 1000 : 0"
       inkscape:vp_z="480.74134 : 298.68846 : 1"
       inkscape:persp3d-origin="250 : 166.66667 : 1"
       id="perspective17" /><inkscape:perspective
       sodipodi:type="inkscape:persp3d"
       inkscape:vp_x="44.06818 : 315.96746 : 1"
       inkscape:vp_y="0 : 1000 : 0"
       inkscape:vp_z="480.74134 : 298.68846 : 1"
       inkscape:persp3d-origin="250 : 166.66667 : 1"
       id="perspective17-7" /></defs><g
     inkscape:label="Layer 1"
     inkscape:groupmode="layer"
     id="layer1"><path
       id="rect5"
       style="fill:#f6890c;fill-opacity:1;stroke:none;stroke-width:35;stroke-linecap:round;stroke-miterlimit:10;stroke-dasharray:none;stroke-opacity:1"
       d="M 61.005859 15.707031 C 37.997401 15.707031 19.474609 34.231776 19.474609 57.240234 L 19.474609 437.90039 C 19.474609 460.90885 37.997401 479.43164 61.005859 479.43164 L 436.45508 479.43164 C 459.46354 479.43164 477.98633 460.90885 477.98633 437.90039 L 477.98633 57.240234 C 477.98633 34.231776 459.46354 15.707031 436.45508 15.707031 L 61.005859 15.707031 z M 229.33398 70.976562 C 238.58593 70.976562 246.1688 72.720544 252.08398 76.208984 C 257.99917 79.545753 263.15622 82.958826 267.55469 86.447266 C 272.10483 89.784034 276.95841 91.453125 282.11523 91.453125 C 287.12039 91.453125 291.36703 89.860879 294.85547 86.675781 C 298.34391 83.339013 301.98361 78.408585 305.77539 71.886719 L 341.94922 89.632812 C 336.03404 104.79994 327.99596 117.46498 317.83398 127.62695 C 307.82368 137.78893 296.06906 142.86914 282.57031 142.86914 C 273.77338 142.86914 266.41713 141.20005 260.50195 137.86328 C 254.73844 134.37484 249.58139 130.96372 245.03125 127.62695 C 240.48111 124.13851 235.70437 122.39453 230.69922 122.39453 C 225.08738 122.39453 220.53727 124.06167 217.04883 127.39844 C 213.71206 130.73521 210.22214 135.74053 206.58203 142.41406 L 170.4082 124.66797 C 176.17171 110.25919 183.98316 97.747851 193.8418 87.130859 C 203.70043 76.362197 215.5319 70.976563 229.33398 70.976562 z M 294.85547 182 C 315.48277 182 331.71261 188.29409 343.54297 200.88281 C 355.37333 213.47153 361.28711 231.21873 361.28711 254.12109 L 361.28711 431.57617 L 289.39453 431.57617 L 289.39453 274.82422 C 289.39453 259.96043 287.72739 249.64632 284.39062 243.88281 C 281.20553 237.96763 275.13806 235.00977 266.18945 235.00977 C 258.60589 235.00977 251.32649 237.43558 244.34961 242.28906 C 237.5244 247.14254 230.69826 253.89185 223.87305 262.53711 L 223.87305 431.57617 L 151.98047 431.57617 L 151.98047 189.96289 L 214.77344 189.96289 L 219.77734 217.94727 C 230.54601 205.81356 241.92226 196.78823 253.9043 190.87305 C 265.88633 184.95787 279.53667 182 294.85547 182 z " /></g></svg>
