<?xml version="1.0" encoding="UTF-8" standalone="no"?>
<!-- Created with Inkscape (http://www.inkscape.org/) -->

<svg
   width="500"
   height="500"
   viewBox="0 0 500 500"
   version="1.1"
   id="svg1"
   inkscape:version="1.3.2 (091e20ef0f, 2023-11-25, custom)"
   sodipodi:docname="geojson.svg"
   xml:space="preserve"
   xmlns:inkscape="http://www.inkscape.org/namespaces/inkscape"
   xmlns:sodipodi="http://sodipodi.sourceforge.net/DTD/sodipodi-0.dtd"
   xmlns="http://www.w3.org/2000/svg"
   xmlns:svg="http://www.w3.org/2000/svg"><sodipodi:namedview
     id="namedview1"
     pagecolor="#505050"
     bordercolor="#eeeeee"
     borderopacity="1"
     inkscape:showpageshadow="0"
     inkscape:pageopacity="0"
     inkscape:pagecheckerboard="0"
     inkscape:deskcolor="#505050"
     inkscape:document-units="px"
     inkscape:zoom="0.96390292"
     inkscape:cx="252.6188"
     inkscape:cy="250.5439"
     inkscape:window-width="1362"
     inkscape:window-height="744"
     inkscape:window-x="0"
     inkscape:window-y="20"
     inkscape:window-maximized="1"
     inkscape:current-layer="layer1"
     showguides="true"><sodipodi:guide
       position="250.02518,350.60736"
       orientation="-0.99997769,0.0066803918"
       id="guide30"
       inkscape:locked="false" /><sodipodi:guide
       position="66.396728,247.89992"
       orientation="0,-1"
       id="guide53"
       inkscape:locked="false" /></sodipodi:namedview><defs
     id="defs1"><linearGradient
       id="swatch61"
       inkscape:swatch="solid"><stop
         style="stop-color:#5090d0;stop-opacity:1;"
         offset="0"
         id="stop61" /></linearGradient><linearGradient
       id="swatch30"
       inkscape:swatch="solid"><stop
         style="stop-color:#f9f9f9;stop-opacity:1;"
         offset="0"
         id="stop30" /></linearGradient><inkscape:perspective
       sodipodi:type="inkscape:persp3d"
       inkscape:vp_x="44.06818 : 315.96746 : 1"
       inkscape:vp_y="0 : 1000 : 0"
       inkscape:vp_z="480.74134 : 298.68846 : 1"
       inkscape:persp3d-origin="250 : 166.66667 : 1"
       id="perspective17" /></defs><g
     inkscape:label="Layer 1"
     inkscape:groupmode="layer"
     id="layer1"><path
       d="m 249.73036,21.651905 c 126.63677,0 229.29609,102.463555 229.29609,228.858815 0,126.39525 -102.65932,228.85882 -229.29609,228.85882 -126.63673,0 -229.296094,-102.46357 -229.296094,-228.85882 0,-126.39526 102.659364,-228.858815 229.296094,-228.858815 z m 0,45.771777 c -3.85075,0 -7.67383,0.118436 -11.46572,0.351831 l 7e-4,51.543977 -103.18323,85.41946 -51.765699,-31.35745 c -10.923914,23.44035 -17.02292,49.57391 -17.02292,77.12922 0,72.38966 42.092079,134.96697 103.180429,164.68009 l 0.003,-56.95624 -44.95575,-44.86764 -12.917,-64.46198 17.94171,-35.81501 65.08489,25.97782 h 76.50804 l 13.37748,93.46386 -50.30625,100.42005 c 5.11669,0.42787 10.2931,0.64612 15.52059,0.64612 64.7143,0 121.60165,-33.44729 154.25549,-83.96659 L 367.31329,227.62483 h -33.62665 l -27.72445,-69.17894 31.0401,-61.961799 51.45086,34.229989 C 354.81804,91.947403 305.14359,67.423682 249.73036,67.423682 Z"
       id="Combined-Shape"
       style="fill:#f38311;fill-opacity:1;fill-rule:evenodd;stroke:none;stroke-width:1.0738" /><g
       id="path1" /></g></svg>
