<?xml version="1.0" encoding="UTF-8" standalone="no"?>
<!-- Created with Inkscape (http://www.inkscape.org/) -->

<svg
   width="500"
   height="500"
   viewBox="0 0 500 500"
   version="1.1"
   id="svg1"
   inkscape:version="1.3.2 (091e20ef0f, 2023-11-25, custom)"
   sodipodi:docname="git.svg"
   xml:space="preserve"
   xmlns:inkscape="http://www.inkscape.org/namespaces/inkscape"
   xmlns:sodipodi="http://sodipodi.sourceforge.net/DTD/sodipodi-0.dtd"
   xmlns="http://www.w3.org/2000/svg"
   xmlns:svg="http://www.w3.org/2000/svg"><sodipodi:namedview
     id="namedview1"
     pagecolor="#505050"
     bordercolor="#eeeeee"
     borderopacity="1"
     inkscape:showpageshadow="0"
     inkscape:pageopacity="0"
     inkscape:pagecheckerboard="0"
     inkscape:deskcolor="#505050"
     inkscape:document-units="px"
     inkscape:zoom="0.96390292"
     inkscape:cx="277.51757"
     inkscape:cy="234.98217"
     inkscape:window-width="1362"
     inkscape:window-height="744"
     inkscape:window-x="0"
     inkscape:window-y="20"
     inkscape:window-maximized="1"
     inkscape:current-layer="layer1"
     showguides="true"><sodipodi:guide
       position="250.02518,350.60736"
       orientation="-0.99997769,0.0066803918"
       id="guide30"
       inkscape:locked="false" /><sodipodi:guide
       position="66.396728,247.89992"
       orientation="0,-1"
       id="guide53"
       inkscape:locked="false" /></sodipodi:namedview><defs
     id="defs1"><linearGradient
       id="swatch61"
       inkscape:swatch="solid"><stop
         style="stop-color:#5090d0;stop-opacity:1;"
         offset="0"
         id="stop61" /></linearGradient><linearGradient
       id="swatch30"
       inkscape:swatch="solid"><stop
         style="stop-color:#f9f9f9;stop-opacity:1;"
         offset="0"
         id="stop30" /></linearGradient><inkscape:perspective
       sodipodi:type="inkscape:persp3d"
       inkscape:vp_x="44.06818 : 315.96746 : 1"
       inkscape:vp_y="0 : 1000 : 0"
       inkscape:vp_z="480.74134 : 298.68846 : 1"
       inkscape:persp3d-origin="250 : 166.66667 : 1"
       id="perspective17" /><inkscape:perspective
       sodipodi:type="inkscape:persp3d"
       inkscape:vp_x="44.06818 : 315.96746 : 1"
       inkscape:vp_y="0 : 1000 : 0"
       inkscape:vp_z="480.74134 : 298.68846 : 1"
       inkscape:persp3d-origin="250 : 166.66667 : 1"
       id="perspective17-2" /><inkscape:perspective
       sodipodi:type="inkscape:persp3d"
       inkscape:vp_x="44.06818 : 315.96746 : 1"
       inkscape:vp_y="0 : 1000 : 0"
       inkscape:vp_z="480.74134 : 298.68846 : 1"
       inkscape:persp3d-origin="250 : 166.66667 : 1"
       id="perspective17-7" /></defs><g
     inkscape:label="Layer 1"
     inkscape:groupmode="layer"
     id="layer1"><path
       d="M 32.932009,217.21608 165.77555,84.142712 204.61733,123.21434 c -5.51598,19.53585 3.4475,40.91032 21.37447,51.2528 v 127.32755 c -13.78995,7.81433 -22.9833,22.75346 -22.9833,39.76111 a 45.966617,45.966617 0 0 0 45.96662,45.96659 45.966617,45.966617 0 0 0 45.96662,-45.96659 c 0,-17.00765 -9.19332,-31.94678 -22.9833,-39.76111 V 190.09578 l 47.57543,48.03513 c -1.60883,3.44751 -1.60883,7.35465 -1.60883,11.49167 a 45.966617,45.966617 0 0 0 45.9666,45.96661 45.966617,45.966617 0 0 0 45.96663,-45.96661 45.966617,45.966617 0 0 0 -45.96663,-45.96664 c -4.13699,0 -8.04412,0 -11.49164,1.60883 l -59.06712,-59.06708 a 45.506953,45.506953 0 0 0 -26.4308,-53.780977 c -9.8828,-3.67732 -20.22528,-4.596681 -29.41863,-2.0685 l -39.07162,-38.841794 18.1568,-17.927005 c 17.927,-18.156795 46.88596,-18.156795 64.81295,0 L 465.01823,217.21608 c 18.1568,17.92701 18.1568,46.88595 0,64.81295 L 281.38158,465.66567 c -17.92699,18.15681 -46.88595,18.15681 -64.81295,0 L 32.932009,282.02903 c -18.156819,-17.927 -18.156819,-46.88594 0,-64.81295 z"
       fill="#e64a19"
       id="path1"
       style="fill:#f8754c;fill-opacity:1;stroke:none;stroke-width:12.27800121;stroke-dasharray:none;stroke-opacity:1" /></g></svg>
