<?xml version="1.0" encoding="UTF-8" standalone="no"?>
<!-- Uploaded to: SVG Repo, www.svgrepo.com, Generator: SVG Repo Mixer Tools -->

<svg
   fill="#000000"
   version="1.1"
   id="Capa_1"
   width="500"
   height="500"
   viewBox="0 0 51.64125 51.641875"
   xml:space="preserve"
   sodipodi:docname="github.svg"
   inkscape:version="1.3.2 (091e20ef0f, 2023-11-25, custom)"
   xmlns:inkscape="http://www.inkscape.org/namespaces/inkscape"
   xmlns:sodipodi="http://sodipodi.sourceforge.net/DTD/sodipodi-0.dtd"
   xmlns="http://www.w3.org/2000/svg"
   xmlns:svg="http://www.w3.org/2000/svg"><defs
   id="defs1"><linearGradient
     id="swatch61"
     inkscape:swatch="solid"><stop
       style="stop-color:#5090d0;stop-opacity:1;"
       offset="0"
       id="stop61" /></linearGradient><linearGradient
     id="swatch30"
     inkscape:swatch="solid"><stop
       style="stop-color:#f9f9f9;stop-opacity:1;"
       offset="0"
       id="stop30" /></linearGradient><inkscape:perspective
     sodipodi:type="inkscape:persp3d"
     inkscape:vp_x="44.06818 : 315.96746 : 1"
     inkscape:vp_y="0 : 1000 : 0"
     inkscape:vp_z="480.74134 : 298.68846 : 1"
     inkscape:persp3d-origin="250 : 166.66667 : 1"
     id="perspective17" /><inkscape:perspective
     sodipodi:type="inkscape:persp3d"
     inkscape:vp_x="44.06818 : 315.96746 : 1"
     inkscape:vp_y="0 : 1000 : 0"
     inkscape:vp_z="480.74134 : 298.68846 : 1"
     inkscape:persp3d-origin="250 : 166.66667 : 1"
     id="perspective17-7" /><inkscape:perspective
     sodipodi:type="inkscape:persp3d"
     inkscape:vp_x="44.06818 : 315.96746 : 1"
     inkscape:vp_y="0 : 1000 : 0"
     inkscape:vp_z="480.74134 : 298.68846 : 1"
     inkscape:persp3d-origin="250 : 166.66667 : 1"
     id="perspective17-2" /><inkscape:perspective
     sodipodi:type="inkscape:persp3d"
     inkscape:vp_x="44.06818 : 315.96746 : 1"
     inkscape:vp_y="0 : 1000 : 0"
     inkscape:vp_z="480.74134 : 298.68846 : 1"
     inkscape:persp3d-origin="250 : 166.66667 : 1"
     id="perspective17-0" /><inkscape:perspective
     sodipodi:type="inkscape:persp3d"
     inkscape:vp_x="44.06818 : 315.96746 : 1"
     inkscape:vp_y="0 : 1000 : 0"
     inkscape:vp_z="480.74134 : 298.68846 : 1"
     inkscape:persp3d-origin="250 : 166.66667 : 1"
     id="perspective17-5" /><inkscape:perspective
     sodipodi:type="inkscape:persp3d"
     inkscape:vp_x="44.06818 : 315.96746 : 1"
     inkscape:vp_y="0 : 1000 : 0"
     inkscape:vp_z="480.74134 : 298.68846 : 1"
     inkscape:persp3d-origin="250 : 166.66667 : 1"
     id="perspective17-2-6" /><inkscape:perspective
     sodipodi:type="inkscape:persp3d"
     inkscape:vp_x="44.06818 : 315.96746 : 1"
     inkscape:vp_y="0 : 1000 : 0"
     inkscape:vp_z="480.74134 : 298.68846 : 1"
     inkscape:persp3d-origin="250 : 166.66667 : 1"
     id="perspective17-29" /><inkscape:perspective
     sodipodi:type="inkscape:persp3d"
     inkscape:vp_x="44.06818 : 315.96746 : 1"
     inkscape:vp_y="0 : 1000 : 0"
     inkscape:vp_z="480.74134 : 298.68846 : 1"
     inkscape:persp3d-origin="250 : 166.66667 : 1"
     id="perspective17-2-1" /></defs><sodipodi:namedview
   id="namedview1"
   pagecolor="#505050"
   bordercolor="#eeeeee"
   borderopacity="1"
   inkscape:showpageshadow="0"
   inkscape:pageopacity="0"
   inkscape:pagecheckerboard="0"
   inkscape:deskcolor="#505050"
   inkscape:zoom="0.83353307"
   inkscape:cx="301.12782"
   inkscape:cy="312.52509"
   inkscape:window-width="1352"
   inkscape:window-height="734"
   inkscape:window-x="4"
   inkscape:window-y="24"
   inkscape:window-maximized="1"
   inkscape:current-layer="Capa_1"
   showgrid="false"
   showguides="true"><sodipodi:guide
     position="25.897044,50.278856"
     orientation="1,0"
     id="guide2"
     inkscape:locked="false" /><sodipodi:guide
     position="-18.710304,25.620607"
     orientation="0,-1"
     id="guide3"
     inkscape:locked="false" /></sodipodi:namedview>

<path
   fill-rule="evenodd"
   clip-rule="evenodd"
   d="m 48.598443,9.5005423 c 0.024,1.5324637 -0.166502,3.4564227 -0.337046,4.8566747 -0.06645,0.546141 -0.156899,1.000671 -0.253919,1.374024 2.166281,4.0058 3.119556,8.824981 3.119556,14.086813 0,6.236586 -2.999797,11.372093 -7.671171,14.87417 -4.628423,3.469992 -10.872337,5.338391 -17.594528,5.338391 -6.722218,0 -12.96613,-1.868399 -17.5945288,-5.338391 C 3.595353,41.190147 0.59563289,36.05464 0.59563289,29.818054 c 0,-5.261832 0.95332591,-10.081013 3.11960631,-14.086846 C 3.6181938,15.357883 3.5278421,14.903331 3.4613191,14.357213 3.2908017,12.956961 3.1002978,11.033002 3.12425,9.5005384 3.1512275,7.7738797 3.3769311,6.0473223 3.6272144,4.3345331 3.7429507,3.5424272 3.9267372,2.7975675 4.786781,2.3268656 5.6653222,1.8460347 6.5905262,2.0252929 7.503224,2.2837358 c 3.078601,0.8717442 5.964954,2.0944809 8.676366,3.5644158 2.858742,-0.8590334 6.089718,-1.2958049 9.681745,-1.2958049 3.592024,0 6.823001,0.4367702 9.681816,1.2958049 2.71126,-1.4699349 5.597614,-2.6926716 8.67624,-3.5644158 0.912851,-0.2584443 1.83808,-0.4377038 2.71657,0.04313 0.860042,0.4707019 1.043724,1.2155616 1.159441,2.0076675 0.250383,1.7127892 0.476005,3.4393466 0.503041,5.166009 z M 46.073894,29.818054 c 0,-4.262827 -0.979804,-10.106278 -6.316424,-10.106278 -2.405801,0 -4.680724,0.632147 -6.954637,1.264296 -2.271892,0.631136 -4.542521,1.262272 -6.941498,1.262272 -2.398979,0 -4.669607,-0.631136 -6.941424,-1.262272 -2.273963,-0.63215 -4.549015,-1.264296 -6.954712,-1.264296 -5.3214886,0 -6.3164237,5.860884 -6.3164237,10.106278 0,4.455859 2.0906092,8.163349 5.6491077,10.831155 3.601549,2.700145 8.727199,4.328266 14.563452,4.328266 5.836124,0 10.961778,-1.628375 14.563402,-4.328266 3.558671,-2.667806 5.649157,-6.375296 5.649157,-10.831155 z M 20.808193,31.08134 c 0,3.488434 -1.696769,6.316425 -3.789853,6.316425 -2.093089,0 -3.789855,-2.827992 -3.789855,-6.316426 0,-3.488435 1.696766,-6.316425 3.789853,-6.316425 2.093085,0 3.789854,2.82799 3.789855,6.316426 z m 13.896136,6.316425 c 2.093011,0 3.789854,-2.827992 3.789854,-6.316426 0,-3.488435 -1.696842,-6.316425 -3.789854,-6.316425 -2.093013,0 -3.789857,2.82799 -3.789857,6.316425 0,3.488434 1.696846,6.316426 3.789857,6.316426 z"
   fill="#000000"
   id="path1"
   style="fill:#ffffff;fill-opacity:1;stroke-width:2.52657" /></svg>
