<?xml version="1.0" encoding="UTF-8" standalone="no"?>
<!-- Created with Inkscape (http://www.inkscape.org/) -->

<svg
   width="500"
   height="500"
   viewBox="0 0 500 500"
   version="1.1"
   id="svg1"
   inkscape:version="1.3.2 (091e20ef0f, 2023-11-25, custom)"
   sodipodi:docname="godot-config.svg"
   xml:space="preserve"
   xmlns:inkscape="http://www.inkscape.org/namespaces/inkscape"
   xmlns:sodipodi="http://sodipodi.sourceforge.net/DTD/sodipodi-0.dtd"
   xmlns:xlink="http://www.w3.org/1999/xlink"
   xmlns="http://www.w3.org/2000/svg"
   xmlns:svg="http://www.w3.org/2000/svg"><sodipodi:namedview
     id="namedview1"
     pagecolor="#505050"
     bordercolor="#eeeeee"
     borderopacity="1"
     inkscape:showpageshadow="0"
     inkscape:pageopacity="0"
     inkscape:pagecheckerboard="0"
     inkscape:deskcolor="#505050"
     inkscape:document-units="px"
     inkscape:zoom="0.96503771"
     inkscape:cx="253.87609"
     inkscape:cy="236.77831"
     inkscape:window-width="1352"
     inkscape:window-height="734"
     inkscape:window-x="4"
     inkscape:window-y="24"
     inkscape:window-maximized="0"
     inkscape:current-layer="svg1"
     showguides="true"><sodipodi:guide
       position="250.02518,350.60736"
       orientation="-0.99997769,0.0066803918"
       id="guide30"
       inkscape:locked="false" /><sodipodi:guide
       position="66.396728,247.89992"
       orientation="0,-1"
       id="guide53"
       inkscape:locked="false" /></sodipodi:namedview><defs
     id="defs1"><linearGradient
       id="linearGradient1"
       inkscape:collect="always"><stop
         style="stop-color:#85c0ea;stop-opacity:1;"
         offset="0"
         id="stop1" /><stop
         style="stop-color:#d887ef;stop-opacity:1;"
         offset="1"
         id="stop2" /></linearGradient><linearGradient
       id="swatch13"
       inkscape:swatch="solid"><stop
         style="stop-color:#ff405c;stop-opacity:1;"
         offset="0"
         id="stop13" /></linearGradient><linearGradient
       id="swatch61"
       inkscape:swatch="solid"><stop
         style="stop-color:#5090d0;stop-opacity:1;"
         offset="0"
         id="stop61" /></linearGradient><linearGradient
       id="swatch30"
       inkscape:swatch="solid"><stop
         style="stop-color:#f9f9f9;stop-opacity:1;"
         offset="0"
         id="stop30" /></linearGradient><inkscape:perspective
       sodipodi:type="inkscape:persp3d"
       inkscape:vp_x="44.06818 : 315.96746 : 1"
       inkscape:vp_y="0 : 1000 : 0"
       inkscape:vp_z="480.74134 : 298.68846 : 1"
       inkscape:persp3d-origin="250 : 166.66667 : 1"
       id="perspective17" /><inkscape:perspective
       sodipodi:type="inkscape:persp3d"
       inkscape:vp_x="44.06818 : 315.96746 : 1"
       inkscape:vp_y="0 : 1000 : 0"
       inkscape:vp_z="480.74134 : 298.68846 : 1"
       inkscape:persp3d-origin="250 : 166.66667 : 1"
       id="perspective17-9" /><inkscape:perspective
       sodipodi:type="inkscape:persp3d"
       inkscape:vp_x="44.06818 : 315.96746 : 1"
       inkscape:vp_y="0 : 1000 : 0"
       inkscape:vp_z="480.74134 : 298.68846 : 1"
       inkscape:persp3d-origin="250 : 166.66667 : 1"
       id="perspective17-1" /><inkscape:perspective
       sodipodi:type="inkscape:persp3d"
       inkscape:vp_x="44.06818 : 315.96746 : 1"
       inkscape:vp_y="0 : 1000 : 0"
       inkscape:vp_z="480.74134 : 298.68846 : 1"
       inkscape:persp3d-origin="250 : 166.66667 : 1"
       id="perspective17-8" /><inkscape:perspective
       sodipodi:type="inkscape:persp3d"
       inkscape:vp_x="44.06818 : 315.96746 : 1"
       inkscape:vp_y="0 : 1000 : 0"
       inkscape:vp_z="480.74134 : 298.68846 : 1"
       inkscape:persp3d-origin="250 : 166.66667 : 1"
       id="perspective17-7" /><inkscape:perspective
       sodipodi:type="inkscape:persp3d"
       inkscape:vp_x="44.06818 : 315.96746 : 1"
       inkscape:vp_y="0 : 1000 : 0"
       inkscape:vp_z="480.74134 : 298.68846 : 1"
       inkscape:persp3d-origin="250 : 166.66667 : 1"
       id="perspective17-5" /><inkscape:perspective
       sodipodi:type="inkscape:persp3d"
       inkscape:vp_x="44.06818 : 315.96746 : 1"
       inkscape:vp_y="0 : 1000 : 0"
       inkscape:vp_z="480.74134 : 298.68846 : 1"
       inkscape:persp3d-origin="250 : 166.66667 : 1"
       id="perspective17-2" /><inkscape:perspective
       sodipodi:type="inkscape:persp3d"
       inkscape:vp_x="44.06818 : 315.96746 : 1"
       inkscape:vp_y="0 : 1000 : 0"
       inkscape:vp_z="480.74134 : 298.68846 : 1"
       inkscape:persp3d-origin="250 : 166.66667 : 1"
       id="perspective17-29" /><inkscape:perspective
       sodipodi:type="inkscape:persp3d"
       inkscape:vp_x="44.06818 : 315.96746 : 1"
       inkscape:vp_y="0 : 1000 : 0"
       inkscape:vp_z="480.74134 : 298.68846 : 1"
       inkscape:persp3d-origin="250 : 166.66667 : 1"
       id="perspective17-2-1" /><linearGradient
       inkscape:collect="always"
       xlink:href="#linearGradient1"
       id="linearGradient2"
       x1="-1.7974885"
       y1="0.3920356"
       x2="35.437225"
       y2="29.081129"
       gradientUnits="userSpaceOnUse"
       gradientTransform="matrix(8.7816532,0,0,8.7816532,223.64366,217.40925)" /><inkscape:path-effect
       effect="mirror_symmetry"
       start_point="341.76098,28.008646"
       end_point="341.76098,211.38431"
       center_point="341.76098,119.69648"
       id="path-effect3"
       is_visible="true"
       lpeversion="1.2"
       lpesatellites=""
       mode="free"
       discard_orig_path="false"
       fuse_paths="true"
       oposite_fuse="false"
       split_items="false"
       split_open="false"
       link_styles="false" /><inkscape:path-effect
       effect="mirror_symmetry"
       start_point="216.08168,129.12039"
       end_point="216.08168,402.6937"
       center_point="216.08168,265.90704"
       id="path-effect2"
       is_visible="true"
       lpeversion="1.2"
       lpesatellites=""
       mode="free"
       discard_orig_path="false"
       fuse_paths="true"
       oposite_fuse="false"
       split_items="false"
       split_open="false"
       link_styles="false" /><inkscape:perspective
       sodipodi:type="inkscape:persp3d"
       inkscape:vp_x="44.06818 : 315.96746 : 1"
       inkscape:vp_y="0 : 1000 : 0"
       inkscape:vp_z="480.74134 : 298.68846 : 1"
       inkscape:persp3d-origin="250 : 166.66667 : 1"
       id="perspective17-18" /><inkscape:perspective
       sodipodi:type="inkscape:persp3d"
       inkscape:vp_x="44.06818 : 315.96746 : 1"
       inkscape:vp_y="0 : 1000 : 0"
       inkscape:vp_z="480.74134 : 298.68846 : 1"
       inkscape:persp3d-origin="250 : 166.66667 : 1"
       id="perspective17-27" /><inkscape:perspective
       sodipodi:type="inkscape:persp3d"
       inkscape:vp_x="44.06818 : 315.96746 : 1"
       inkscape:vp_y="0 : 1000 : 0"
       inkscape:vp_z="480.74134 : 298.68846 : 1"
       inkscape:persp3d-origin="250 : 166.66667 : 1"
       id="perspective17-7-0" /><inkscape:perspective
       sodipodi:type="inkscape:persp3d"
       inkscape:vp_x="44.06818 : 315.96746 : 1"
       inkscape:vp_y="0 : 1000 : 0"
       inkscape:vp_z="480.74134 : 298.68846 : 1"
       inkscape:persp3d-origin="250 : 166.66667 : 1"
       id="perspective17-2-9" /><linearGradient
       id="linearGradient1-1"
       inkscape:collect="always"><stop
         style="stop-color:#d4b073;stop-opacity:1;"
         offset="0"
         id="stop1-8" /><stop
         style="stop-color:#d47099;stop-opacity:1;"
         offset="1"
         id="stop2-7" /></linearGradient><inkscape:perspective
       sodipodi:type="inkscape:persp3d"
       inkscape:vp_x="44.06818 : 315.96746 : 1"
       inkscape:vp_y="0 : 1000 : 0"
       inkscape:vp_z="480.74134 : 298.68846 : 1"
       inkscape:persp3d-origin="250 : 166.66667 : 1"
       id="perspective17-0" /><linearGradient
       inkscape:collect="always"
       xlink:href="#linearGradient1-1"
       id="linearGradient2-2"
       x1="113.35135"
       y1="110.53959"
       x2="423.27097"
       y2="420.30679"
       gradientUnits="userSpaceOnUse"
       gradientTransform="matrix(0.99170929,0,0,0.99170929,3.0600251,2.5878319)" /></defs><path
     id="path7"
     style="color:#000000;fill:url(#linearGradient2-2);stroke-width:1.43651;stroke-linejoin:round;-inkscape-stroke:none;paint-order:markers fill stroke"
     d="M 203.19922,25.128906 V 93.048828 C 194.51141,95.79274 186.14408,99.272322 178.125,103.35547 L 130.1543,55.384766 58.480469,127.05859 105.96289,174.54297 c -4.29276,8.15252 -7.927203,16.69175 -10.824218,25.55664 H 28.226562 V 301.46289 H 95.0625 c 2.891954,8.89232 6.53247,17.45536 10.82812,25.63281 l -47.408198,47.40821 71.673828,71.67382 47.82617,-47.82617 c 8.06274,4.11543 16.4769,7.62434 25.2168,10.38477 v 67.6914 h 81.99414 c -4.90702,-2.08607 -9.61109,-4.36972 -14.06641,-6.86132 -24.95384,-13.9553 -43.91601,-35.93202 -43.91601,-63.10547 -4e-5,-0.0208 -4e-5,-0.0417 0,-0.0625 0.0156,-4.42076 0.5402,-8.82452 1.56445,-13.125 1.45271,-5.06511 5.11018,-9.20613 9.95703,-11.27344 v -41.21094 c -4.14552,-5.58975 -8.10474,-11.31423 -11.7832,-17.22265 -34.0577,-10.20106 -57.21593,-39.50023 -57.44336,-72.67579 0.002,-42.4639 37.13966,-76.88688 82.95117,-76.88671 35.30346,0.21776 66.59002,21.12405 77.9707,52.10156 1.71265,-0.41748 3.41338,-0.87818 5.14063,-1.23828 l -0.24219,0.29687 c 7.35726,-1.70124 14.97605,1.50817 18.89844,7.96094 2.72205,4.62745 5.25257,9.36017 7.66797,14.15234 0.71288,-0.0169 1.42339,-0.0859 2.13672,-0.0879 0.0137,-2e-5 0.0273,-2e-5 0.041,0 h 0.16016 c 0.0143,-2e-5 0.0286,-2e-5 0.043,0 0.71071,0.002 1.41864,0.0711 2.1289,0.0879 2.41433,-4.78943 4.94324,-9.52062 7.66211,-14.14648 3.80291,-6.46964 11.30718,-9.79475 18.6543,-8.26563 12.75714,2.65614 25.13601,6.88314 36.85352,12.58399 6.14157,2.98857 9.98348,9.27687 9.83984,16.10547 -0.12518,5.93891 -0.51955,11.86408 -1.04102,17.77929 1.26562,0.86488 2.61421,1.60294 3.85352,2.50586 0.83559,0.60285 1.62631,1.26268 2.44727,1.88477 4.09747,-2.39491 8.25995,-4.67759 12.49804,-6.81836 6.88933,-3.47956 15.24468,-2.03542 20.56641,3.55469 0.6145,0.64555 1.1842,1.33022 1.78906,1.98437 v -74.3457 h -69.74805 c -2.67626,-8.1891 -5.98726,-16.09752 -9.85937,-23.68359 L 449.27539,127.05859 377.60156,55.384766 328.66211,104.32422 C 320.9581,100.27723 312.90663,96.826389 304.56445,94.021484 V 25.128906 Z"
     sodipodi:nodetypes="cccccccccccccccccssccccccccccccsccccccccccccscccccccccc" /><path
     id="path1"
     style="fill:url(#linearGradient2);stroke-width:8.78167"
     d="m 339.14039,241.9983 a 140.16397,140.16397 0 0 0 -32.75641,11.1958 247.13328,247.13328 0 0 0 2.03756,26.96917 134.46467,134.46467 0 0 0 -12.08306,7.85037 114.68838,114.68838 0 0 0 -11.22344,9.22988 215.61593,215.61593 0 0 0 -21.86659,-12.71655 167.02704,167.02704 0 0 0 -22.04159,28.87472 235.27805,235.27805 0 0 0 14.87587,21.45315 l 0.14942,-0.008 v 59.07368 l 7.96497,2.6874 a 3.2843383,3.2843383 0 0 1 2.24837,3.11722 v 14.49008 l 16.2902,5.26835 v -15.31526 a 3.3019015,3.3019015 0 0 1 3.90727,-3.24003 l 28.00483,5.3482 a 3.2843383,3.2843383 0 0 1 2.6782,3.23081 v 15.96578 l 24.36979,3.32803 v -16.59719 a 3.2843383,3.2843383 0 0 1 3.30142,-3.29325 l 20.43489,0.0788 20.42669,-0.0788 a 3.2843383,3.2843383 0 0 1 3.31065,3.29325 v 16.59719 l 24.36876,-3.32803 V 409.4991 a 3.2755566,3.2755566 0 0 1 2.63418,-3.23184 l 28.00485,-5.34819 a 3.3106832,3.3106832 0 0 1 3.91647,3.24105 v 15.28829 l 16.2902,-5.26835 V 399.7166 a 3.2843383,3.2843383 0 0 1 2.23915,-3.11824 l 5.42699,-1.82674 v -59.92513 h 0.14942 a 235.27805,235.27805 0 0 0 14.89429,-21.44497 167.02704,167.02704 0 0 0 -22.03341,-28.87472 215.21197,215.21197 0 0 0 -21.87579,12.71655 114.2493,114.2493 0 0 0 -11.23162,-9.23806 134.93009,134.93009 0 0 0 -12.07488,-7.85139 248.9862,248.9862 0 0 0 2.03756,-26.96815 140.22544,140.22544 0 0 0 -32.7646,-11.18762 232.1869,232.1869 0 0 0 -12.16187,23.7097 83.07444,83.07444 0 0 0 -12.75952,-1.01825 h -0.15862 a 83.048095,83.048095 0 0 0 -12.76874,1.01825 230.73792,230.73792 0 0 0 -12.16186,-23.7097 z m -30.12119,97.14246 a 24.052947,24.052947 0 0 1 24.06175,24.04437 24.052947,24.052947 0 1 1 -24.06175,-24.04437 z m 113.18601,0 a 24.052947,24.052947 0 1 1 -24.06175,24.04437 24.052947,24.052947 0 0 1 24.06175,-24.04437 z m -57.36157,14.11551 a 7.7805446,7.7805446 0 0 1 8.50943,7.00401 v 22.14701 a 7.420497,7.420497 0 0 1 -7.75418,7.02552 l 0.009,0.009 a 7.4117152,7.4117152 0 0 1 -7.74597,-7.0255 v -22.15622 a 7.7805446,7.7805446 0 0 1 6.9815,-7.00402 z M 245.7998,397.32819 a 40.026775,40.026775 0 0 0 -1.08888,9.13267 c 0,37.91036 53.41028,67.17994 119.43068,67.3907 h 0.16681 c 66.01162,-0.21076 119.4307,-29.47157 119.4307,-67.3907 a 39.868704,39.868704 0 0 0 -0.87909,-8.3426 l -11.87226,3.96047 v 14.50746 a 3.2843383,3.2843383 0 0 1 -2.28317,3.13462 l -22.83265,7.38575 a 3.2228666,3.2228666 0 0 1 -2.9412,-0.47485 3.2843383,3.2843383 0 0 1 -1.3611,-2.63419 v -15.80715 l -21.41017,4.0751 v 16.07939 a 3.2931199,3.2931199 0 0 1 -2.85421,3.25741 L 386.35,435.84419 h -0.44825 a 3.2843383,3.2843383 0 0 1 -3.31062,-3.28403 v -17.06284 l -15.97295,0.0695 h -2.34559 l -15.97294,-0.0695 v 17.06284 a 3.2931199,3.2931199 0 0 1 -3.29324,3.30142 h -0.45745 l -30.95525,-4.24192 a 3.2931199,3.2931199 0 0 1 -2.84499,-3.25741 v -16.14078 l -21.41836,-4.07511 v 15.80716 a 3.2843383,3.2843383 0 0 1 -1.3519,2.63521 3.2492116,3.2492116 0 0 1 -2.95143,0.47382 l -22.83164,-7.38575 a 3.2843383,3.2843383 0 0 1 -2.27498,-3.13462 v -14.46345 z" /></svg>
