<?xml version="1.0" encoding="UTF-8" standalone="no"?>
<!-- Created with Inkscape (http://www.inkscape.org/) -->

<svg
   width="500"
   height="500"
   viewBox="0 0 500 500"
   version="1.1"
   id="svg1"
   inkscape:version="1.3.2 (091e20ef0f, 2023-11-25, custom)"
   sodipodi:docname="godot-shader.svg"
   xml:space="preserve"
   xmlns:inkscape="http://www.inkscape.org/namespaces/inkscape"
   xmlns:sodipodi="http://sodipodi.sourceforge.net/DTD/sodipodi-0.dtd"
   xmlns:xlink="http://www.w3.org/1999/xlink"
   xmlns="http://www.w3.org/2000/svg"
   xmlns:svg="http://www.w3.org/2000/svg"><sodipodi:namedview
     id="namedview1"
     pagecolor="#505050"
     bordercolor="#eeeeee"
     borderopacity="1"
     inkscape:showpageshadow="0"
     inkscape:pageopacity="0"
     inkscape:pagecheckerboard="0"
     inkscape:deskcolor="#505050"
     inkscape:document-units="px"
     inkscape:zoom="0.96503771"
     inkscape:cx="253.87609"
     inkscape:cy="236.77831"
     inkscape:window-width="1352"
     inkscape:window-height="734"
     inkscape:window-x="4"
     inkscape:window-y="24"
     inkscape:window-maximized="0"
     inkscape:current-layer="svg1"
     showguides="true"><sodipodi:guide
       position="250.02518,350.60736"
       orientation="-0.99997769,0.0066803918"
       id="guide30"
       inkscape:locked="false" /><sodipodi:guide
       position="66.396728,247.89992"
       orientation="0,-1"
       id="guide53"
       inkscape:locked="false" /></sodipodi:namedview><defs
     id="defs1"><linearGradient
       id="linearGradient1"
       inkscape:collect="always"><stop
         style="stop-color:#85c0ea;stop-opacity:1;"
         offset="0"
         id="stop1" /><stop
         style="stop-color:#d887ef;stop-opacity:1;"
         offset="1"
         id="stop2" /></linearGradient><linearGradient
       id="swatch13"
       inkscape:swatch="solid"><stop
         style="stop-color:#ff405c;stop-opacity:1;"
         offset="0"
         id="stop13" /></linearGradient><linearGradient
       id="swatch61"
       inkscape:swatch="solid"><stop
         style="stop-color:#5090d0;stop-opacity:1;"
         offset="0"
         id="stop61" /></linearGradient><linearGradient
       id="swatch30"
       inkscape:swatch="solid"><stop
         style="stop-color:#f9f9f9;stop-opacity:1;"
         offset="0"
         id="stop30" /></linearGradient><inkscape:perspective
       sodipodi:type="inkscape:persp3d"
       inkscape:vp_x="44.06818 : 315.96746 : 1"
       inkscape:vp_y="0 : 1000 : 0"
       inkscape:vp_z="480.74134 : 298.68846 : 1"
       inkscape:persp3d-origin="250 : 166.66667 : 1"
       id="perspective17" /><inkscape:perspective
       sodipodi:type="inkscape:persp3d"
       inkscape:vp_x="44.06818 : 315.96746 : 1"
       inkscape:vp_y="0 : 1000 : 0"
       inkscape:vp_z="480.74134 : 298.68846 : 1"
       inkscape:persp3d-origin="250 : 166.66667 : 1"
       id="perspective17-9" /><inkscape:perspective
       sodipodi:type="inkscape:persp3d"
       inkscape:vp_x="44.06818 : 315.96746 : 1"
       inkscape:vp_y="0 : 1000 : 0"
       inkscape:vp_z="480.74134 : 298.68846 : 1"
       inkscape:persp3d-origin="250 : 166.66667 : 1"
       id="perspective17-1" /><inkscape:perspective
       sodipodi:type="inkscape:persp3d"
       inkscape:vp_x="44.06818 : 315.96746 : 1"
       inkscape:vp_y="0 : 1000 : 0"
       inkscape:vp_z="480.74134 : 298.68846 : 1"
       inkscape:persp3d-origin="250 : 166.66667 : 1"
       id="perspective17-8" /><inkscape:perspective
       sodipodi:type="inkscape:persp3d"
       inkscape:vp_x="44.06818 : 315.96746 : 1"
       inkscape:vp_y="0 : 1000 : 0"
       inkscape:vp_z="480.74134 : 298.68846 : 1"
       inkscape:persp3d-origin="250 : 166.66667 : 1"
       id="perspective17-7" /><inkscape:perspective
       sodipodi:type="inkscape:persp3d"
       inkscape:vp_x="44.06818 : 315.96746 : 1"
       inkscape:vp_y="0 : 1000 : 0"
       inkscape:vp_z="480.74134 : 298.68846 : 1"
       inkscape:persp3d-origin="250 : 166.66667 : 1"
       id="perspective17-5" /><inkscape:perspective
       sodipodi:type="inkscape:persp3d"
       inkscape:vp_x="44.06818 : 315.96746 : 1"
       inkscape:vp_y="0 : 1000 : 0"
       inkscape:vp_z="480.74134 : 298.68846 : 1"
       inkscape:persp3d-origin="250 : 166.66667 : 1"
       id="perspective17-2" /><inkscape:perspective
       sodipodi:type="inkscape:persp3d"
       inkscape:vp_x="44.06818 : 315.96746 : 1"
       inkscape:vp_y="0 : 1000 : 0"
       inkscape:vp_z="480.74134 : 298.68846 : 1"
       inkscape:persp3d-origin="250 : 166.66667 : 1"
       id="perspective17-29" /><inkscape:perspective
       sodipodi:type="inkscape:persp3d"
       inkscape:vp_x="44.06818 : 315.96746 : 1"
       inkscape:vp_y="0 : 1000 : 0"
       inkscape:vp_z="480.74134 : 298.68846 : 1"
       inkscape:persp3d-origin="250 : 166.66667 : 1"
       id="perspective17-2-1" /><linearGradient
       inkscape:collect="always"
       xlink:href="#linearGradient1"
       id="linearGradient2"
       x1="-1.7974885"
       y1="0.3920356"
       x2="35.437225"
       y2="29.081129"
       gradientUnits="userSpaceOnUse"
       gradientTransform="matrix(8.7816532,0,0,8.7816532,223.64366,217.40925)" /><inkscape:path-effect
       effect="mirror_symmetry"
       start_point="341.76098,28.008646"
       end_point="341.76098,211.38431"
       center_point="341.76098,119.69648"
       id="path-effect3"
       is_visible="true"
       lpeversion="1.2"
       lpesatellites=""
       mode="free"
       discard_orig_path="false"
       fuse_paths="true"
       oposite_fuse="false"
       split_items="false"
       split_open="false"
       link_styles="false" /><inkscape:path-effect
       effect="mirror_symmetry"
       start_point="216.08168,129.12039"
       end_point="216.08168,402.6937"
       center_point="216.08168,265.90704"
       id="path-effect2"
       is_visible="true"
       lpeversion="1.2"
       lpesatellites=""
       mode="free"
       discard_orig_path="false"
       fuse_paths="true"
       oposite_fuse="false"
       split_items="false"
       split_open="false"
       link_styles="false" /><inkscape:perspective
       sodipodi:type="inkscape:persp3d"
       inkscape:vp_x="44.06818 : 315.96746 : 1"
       inkscape:vp_y="0 : 1000 : 0"
       inkscape:vp_z="480.74134 : 298.68846 : 1"
       inkscape:persp3d-origin="250 : 166.66667 : 1"
       id="perspective17-18" /><linearGradient
       id="linearGradient33"
       inkscape:collect="always"><stop
         style="stop-color:#ff405c;stop-opacity:1;"
         offset="0"
         id="stop33" /><stop
         style="stop-color:#ffe106;stop-opacity:1;"
         offset="0.09269911"
         id="stop40" /><stop
         style="stop-color:#83ff22;stop-opacity:1;"
         offset="0.22190212"
         id="stop36" /><stop
         style="stop-color:#00fb64;stop-opacity:1;"
         offset="0.38255563"
         id="stop38" /><stop
         style="stop-color:#2dfffc;stop-opacity:1;"
         offset="0.51706439"
         id="stop35" /><stop
         style="stop-color:#2237e4;stop-opacity:1;"
         offset="0.64022732"
         id="stop39" /><stop
         style="stop-color:#ff1ae4;stop-opacity:1;"
         offset="0.78875995"
         id="stop37" /><stop
         style="stop-color:#ff239a;stop-opacity:1;"
         offset="0.89506596"
         id="stop41" /><stop
         style="stop-color:#ff405c;stop-opacity:1;"
         offset="1"
         id="stop34" /></linearGradient><inkscape:perspective
       sodipodi:type="inkscape:persp3d"
       inkscape:vp_x="44.06818 : 315.96746 : 1"
       inkscape:vp_y="0 : 1000 : 0"
       inkscape:vp_z="480.74134 : 298.68846 : 1"
       inkscape:persp3d-origin="250 : 166.66667 : 1"
       id="perspective17-27" /><linearGradient
       inkscape:collect="always"
       xlink:href="#linearGradient33"
       id="linearGradient34"
       x1="76.925812"
       y1="435.46307"
       x2="447.70688"
       y2="66.925865"
       gradientUnits="userSpaceOnUse"
       gradientTransform="matrix(1.0490767,0,0,1.0490767,-12.563256,-10.197681)" /><inkscape:perspective
       sodipodi:type="inkscape:persp3d"
       inkscape:vp_x="44.06818 : 315.96746 : 1"
       inkscape:vp_y="0 : 1000 : 0"
       inkscape:vp_z="480.74134 : 298.68846 : 1"
       inkscape:persp3d-origin="250 : 166.66667 : 1"
       id="perspective17-7-0" /><inkscape:perspective
       sodipodi:type="inkscape:persp3d"
       inkscape:vp_x="44.06818 : 315.96746 : 1"
       inkscape:vp_y="0 : 1000 : 0"
       inkscape:vp_z="480.74134 : 298.68846 : 1"
       inkscape:persp3d-origin="250 : 166.66667 : 1"
       id="perspective17-2-9" /></defs><path
     id="rect2"
     style="fill:url(#linearGradient34);fill-opacity:1;stroke:#ffffff;stroke-width:32.0619;stroke-linejoin:bevel;stroke-dasharray:none;stroke-opacity:1;paint-order:markers fill stroke"
     d="M 96.126953,46.279297 C 65.378792,46.279297 40.625,71.033089 40.625,101.78125 v 303.20117 c 0,30.74816 24.753792,55.50196 55.501953,55.50196 H 238.52734 c -14.18261,-14.39175 -23.8164,-32.655 -23.8164,-54.02344 -6e-5,-0.0352 -6e-5,-0.0703 0,-0.10547 0.019,-5.38134 0.6575,-10.74357 1.90429,-15.97852 1.62498,-5.83444 4.97767,-11.0405 9.61719,-14.93359 v -30.56055 c -3.69438,-5.14818 -7.2724,-10.37984 -10.58984,-15.78125 -5.86978,-9.56021 -5.91574,-21.59641 -0.11914,-31.20117 7.40273,-12.26511 16.12066,-23.68791 26,-34.0625 9.0795,-9.50276 23.28694,-11.98994 35.05468,-6.13672 -0.045,-1.2966 -0.1607,-2.58939 -0.1875,-3.88672 -0.24095,-11.69783 6.34032,-22.46863 16.85938,-27.59179 12.6432,-6.15648 26.00112,-10.72369 39.76758,-13.59375 l -0.29297,0.36132 c 3.75018,-0.92165 7.64302,-1.11066 11.46484,-0.55664 8.2314,1.49917 15.4629,6.36737 19.94922,13.42969 6.6634,-10.39683 19.01644,-15.64903 31.12695,-13.23437 13.76816,2.86662 27.12927,7.42744 39.7754,13.58007 10.52797,5.12359 17.11363,15.90346 16.86718,27.60938 -0.0273,1.29606 -0.1421,2.58747 -0.1875,3.88281 2.94478,-1.44832 6.10722,-2.40372 9.36133,-2.82812 v -153.0918 c 0,-30.748161 -24.75379,-55.501953 -55.50195,-55.501953 z"
     sodipodi:nodetypes="sssscsccccccccccccccccsccsss" /><path
     id="path1"
     style="fill:url(#linearGradient2);stroke-width:8.78167"
     d="m 339.14039,241.9983 a 140.16397,140.16397 0 0 0 -32.75641,11.1958 247.13328,247.13328 0 0 0 2.03756,26.96917 134.46467,134.46467 0 0 0 -12.08306,7.85037 114.68838,114.68838 0 0 0 -11.22344,9.22988 215.61593,215.61593 0 0 0 -21.86659,-12.71655 167.02704,167.02704 0 0 0 -22.04159,28.87472 235.27805,235.27805 0 0 0 14.87587,21.45315 l 0.14942,-0.008 v 59.07368 l 7.96497,2.6874 a 3.2843383,3.2843383 0 0 1 2.24837,3.11722 v 14.49008 l 16.2902,5.26835 v -15.31526 a 3.3019015,3.3019015 0 0 1 3.90727,-3.24003 l 28.00483,5.3482 a 3.2843383,3.2843383 0 0 1 2.6782,3.23081 v 15.96578 l 24.36979,3.32803 v -16.59719 a 3.2843383,3.2843383 0 0 1 3.30142,-3.29325 l 20.43489,0.0788 20.42669,-0.0788 a 3.2843383,3.2843383 0 0 1 3.31065,3.29325 v 16.59719 l 24.36876,-3.32803 V 409.4991 a 3.2755566,3.2755566 0 0 1 2.63418,-3.23184 l 28.00485,-5.34819 a 3.3106832,3.3106832 0 0 1 3.91647,3.24105 v 15.28829 l 16.2902,-5.26835 V 399.7166 a 3.2843383,3.2843383 0 0 1 2.23915,-3.11824 l 5.42699,-1.82674 v -59.92513 h 0.14942 a 235.27805,235.27805 0 0 0 14.89429,-21.44497 167.02704,167.02704 0 0 0 -22.03341,-28.87472 215.21197,215.21197 0 0 0 -21.87579,12.71655 114.2493,114.2493 0 0 0 -11.23162,-9.23806 134.93009,134.93009 0 0 0 -12.07488,-7.85139 248.9862,248.9862 0 0 0 2.03756,-26.96815 140.22544,140.22544 0 0 0 -32.7646,-11.18762 232.1869,232.1869 0 0 0 -12.16187,23.7097 83.07444,83.07444 0 0 0 -12.75952,-1.01825 h -0.15862 a 83.048095,83.048095 0 0 0 -12.76874,1.01825 230.73792,230.73792 0 0 0 -12.16186,-23.7097 z m -30.12119,97.14246 a 24.052947,24.052947 0 0 1 24.06175,24.04437 24.052947,24.052947 0 1 1 -24.06175,-24.04437 z m 113.18601,0 a 24.052947,24.052947 0 1 1 -24.06175,24.04437 24.052947,24.052947 0 0 1 24.06175,-24.04437 z m -57.36157,14.11551 a 7.7805446,7.7805446 0 0 1 8.50943,7.00401 v 22.14701 a 7.420497,7.420497 0 0 1 -7.75418,7.02552 l 0.009,0.009 a 7.4117152,7.4117152 0 0 1 -7.74597,-7.0255 v -22.15622 a 7.7805446,7.7805446 0 0 1 6.9815,-7.00402 z M 245.7998,397.32819 a 40.026775,40.026775 0 0 0 -1.08888,9.13267 c 0,37.91036 53.41028,67.17994 119.43068,67.3907 h 0.16681 c 66.01162,-0.21076 119.4307,-29.47157 119.4307,-67.3907 a 39.868704,39.868704 0 0 0 -0.87909,-8.3426 l -11.87226,3.96047 v 14.50746 a 3.2843383,3.2843383 0 0 1 -2.28317,3.13462 l -22.83265,7.38575 a 3.2228666,3.2228666 0 0 1 -2.9412,-0.47485 3.2843383,3.2843383 0 0 1 -1.3611,-2.63419 v -15.80715 l -21.41017,4.0751 v 16.07939 a 3.2931199,3.2931199 0 0 1 -2.85421,3.25741 L 386.35,435.84419 h -0.44825 a 3.2843383,3.2843383 0 0 1 -3.31062,-3.28403 v -17.06284 l -15.97295,0.0695 h -2.34559 l -15.97294,-0.0695 v 17.06284 a 3.2931199,3.2931199 0 0 1 -3.29324,3.30142 h -0.45745 l -30.95525,-4.24192 a 3.2931199,3.2931199 0 0 1 -2.84499,-3.25741 v -16.14078 l -21.41836,-4.07511 v 15.80716 a 3.2843383,3.2843383 0 0 1 -1.3519,2.63521 3.2492116,3.2492116 0 0 1 -2.95143,0.47382 l -22.83164,-7.38575 a 3.2843383,3.2843383 0 0 1 -2.27498,-3.13462 v -14.46345 z" /></svg>
