<?xml version="1.0" encoding="UTF-8" standalone="no"?>
<!-- Created with Inkscape (http://www.inkscape.org/) -->

<svg
   width="500"
   height="500"
   viewBox="0 0 500 500"
   version="1.1"
   id="svg1"
   inkscape:version="1.3.2 (091e20ef0f, 2023-11-25, custom)"
   sodipodi:docname="godot-assets.svg"
   xml:space="preserve"
   xmlns:inkscape="http://www.inkscape.org/namespaces/inkscape"
   xmlns:sodipodi="http://sodipodi.sourceforge.net/DTD/sodipodi-0.dtd"
   xmlns:xlink="http://www.w3.org/1999/xlink"
   xmlns="http://www.w3.org/2000/svg"
   xmlns:svg="http://www.w3.org/2000/svg"><sodipodi:namedview
     id="namedview1"
     pagecolor="#505050"
     bordercolor="#eeeeee"
     borderopacity="1"
     inkscape:showpageshadow="0"
     inkscape:pageopacity="0"
     inkscape:pagecheckerboard="0"
     inkscape:deskcolor="#505050"
     inkscape:document-units="px"
     inkscape:zoom="0.96503771"
     inkscape:cx="254.3942"
     inkscape:cy="237.81454"
     inkscape:window-width="1352"
     inkscape:window-height="734"
     inkscape:window-x="4"
     inkscape:window-y="24"
     inkscape:window-maximized="0"
     inkscape:current-layer="svg1"
     showguides="true"><sodipodi:guide
       position="250.02518,350.60736"
       orientation="-0.99997769,0.0066803918"
       id="guide30"
       inkscape:locked="false" /><sodipodi:guide
       position="66.396728,247.89992"
       orientation="0,-1"
       id="guide53"
       inkscape:locked="false" /></sodipodi:namedview><defs
     id="defs1"><linearGradient
       id="linearGradient1"
       inkscape:collect="always"><stop
         style="stop-color:#85c0ea;stop-opacity:1;"
         offset="0"
         id="stop1" /><stop
         style="stop-color:#d887ef;stop-opacity:1;"
         offset="1"
         id="stop2" /></linearGradient><linearGradient
       id="swatch13"
       inkscape:swatch="solid"><stop
         style="stop-color:#ff405c;stop-opacity:1;"
         offset="0"
         id="stop13" /></linearGradient><linearGradient
       id="swatch61"
       inkscape:swatch="solid"><stop
         style="stop-color:#5090d0;stop-opacity:1;"
         offset="0"
         id="stop61" /></linearGradient><linearGradient
       id="swatch30"
       inkscape:swatch="solid"><stop
         style="stop-color:#f9f9f9;stop-opacity:1;"
         offset="0"
         id="stop30" /></linearGradient><inkscape:perspective
       sodipodi:type="inkscape:persp3d"
       inkscape:vp_x="44.06818 : 315.96746 : 1"
       inkscape:vp_y="0 : 1000 : 0"
       inkscape:vp_z="480.74134 : 298.68846 : 1"
       inkscape:persp3d-origin="250 : 166.66667 : 1"
       id="perspective17" /><inkscape:perspective
       sodipodi:type="inkscape:persp3d"
       inkscape:vp_x="44.06818 : 315.96746 : 1"
       inkscape:vp_y="0 : 1000 : 0"
       inkscape:vp_z="480.74134 : 298.68846 : 1"
       inkscape:persp3d-origin="250 : 166.66667 : 1"
       id="perspective17-9" /><inkscape:perspective
       sodipodi:type="inkscape:persp3d"
       inkscape:vp_x="44.06818 : 315.96746 : 1"
       inkscape:vp_y="0 : 1000 : 0"
       inkscape:vp_z="480.74134 : 298.68846 : 1"
       inkscape:persp3d-origin="250 : 166.66667 : 1"
       id="perspective17-1" /><inkscape:perspective
       sodipodi:type="inkscape:persp3d"
       inkscape:vp_x="44.06818 : 315.96746 : 1"
       inkscape:vp_y="0 : 1000 : 0"
       inkscape:vp_z="480.74134 : 298.68846 : 1"
       inkscape:persp3d-origin="250 : 166.66667 : 1"
       id="perspective17-8" /><inkscape:perspective
       sodipodi:type="inkscape:persp3d"
       inkscape:vp_x="44.06818 : 315.96746 : 1"
       inkscape:vp_y="0 : 1000 : 0"
       inkscape:vp_z="480.74134 : 298.68846 : 1"
       inkscape:persp3d-origin="250 : 166.66667 : 1"
       id="perspective17-7" /><inkscape:perspective
       sodipodi:type="inkscape:persp3d"
       inkscape:vp_x="44.06818 : 315.96746 : 1"
       inkscape:vp_y="0 : 1000 : 0"
       inkscape:vp_z="480.74134 : 298.68846 : 1"
       inkscape:persp3d-origin="250 : 166.66667 : 1"
       id="perspective17-5" /><inkscape:perspective
       sodipodi:type="inkscape:persp3d"
       inkscape:vp_x="44.06818 : 315.96746 : 1"
       inkscape:vp_y="0 : 1000 : 0"
       inkscape:vp_z="480.74134 : 298.68846 : 1"
       inkscape:persp3d-origin="250 : 166.66667 : 1"
       id="perspective17-2" /><inkscape:perspective
       sodipodi:type="inkscape:persp3d"
       inkscape:vp_x="44.06818 : 315.96746 : 1"
       inkscape:vp_y="0 : 1000 : 0"
       inkscape:vp_z="480.74134 : 298.68846 : 1"
       inkscape:persp3d-origin="250 : 166.66667 : 1"
       id="perspective17-29" /><inkscape:perspective
       sodipodi:type="inkscape:persp3d"
       inkscape:vp_x="44.06818 : 315.96746 : 1"
       inkscape:vp_y="0 : 1000 : 0"
       inkscape:vp_z="480.74134 : 298.68846 : 1"
       inkscape:persp3d-origin="250 : 166.66667 : 1"
       id="perspective17-2-1" /><linearGradient
       inkscape:collect="always"
       xlink:href="#linearGradient1"
       id="linearGradient2"
       x1="-1.7974885"
       y1="0.3920356"
       x2="35.437225"
       y2="29.081129"
       gradientUnits="userSpaceOnUse"
       gradientTransform="matrix(8.7816532,0,0,8.7816532,223.64366,217.40925)" /><inkscape:path-effect
       effect="mirror_symmetry"
       start_point="341.76098,28.008646"
       end_point="341.76098,211.38431"
       center_point="341.76098,119.69648"
       id="path-effect3"
       is_visible="true"
       lpeversion="1.2"
       lpesatellites=""
       mode="free"
       discard_orig_path="false"
       fuse_paths="true"
       oposite_fuse="false"
       split_items="false"
       split_open="false"
       link_styles="false" /><inkscape:path-effect
       effect="mirror_symmetry"
       start_point="216.08168,129.12039"
       end_point="216.08168,402.6937"
       center_point="216.08168,265.90704"
       id="path-effect2"
       is_visible="true"
       lpeversion="1.2"
       lpesatellites=""
       mode="free"
       discard_orig_path="false"
       fuse_paths="true"
       oposite_fuse="false"
       split_items="false"
       split_open="false"
       link_styles="false" /><inkscape:perspective
       sodipodi:type="inkscape:persp3d"
       inkscape:vp_x="44.06818 : 315.96746 : 1"
       inkscape:vp_y="0 : 1000 : 0"
       inkscape:vp_z="480.74134 : 298.68846 : 1"
       inkscape:persp3d-origin="250 : 166.66667 : 1"
       id="perspective17-18" /><linearGradient
       inkscape:collect="always"
       xlink:href="#linearGradient1"
       id="linearGradient4"
       x1="-83.926414"
       y1="256.68338"
       x2="308.83487"
       y2="256.68338"
       gradientUnits="userSpaceOnUse" /></defs><path
     id="path1-5"
     style="fill:url(#linearGradient4);fill-opacity:1;stroke:none;stroke-width:5.43476;stroke-opacity:1"
     d="M 111.36768 32.323246 C 110.20038 32.362646 109.04264 32.651593 107.97119 33.186527 L -78.895997 130.45411 C -81.637135 131.83351 -83.366003 134.63683 -83.382325 137.69434 C -83.382325 137.74324 -83.358887 137.78773 -83.358887 137.83106 C -83.690648 138.738 -83.932688 139.69313 -83.927247 140.69239 L -82.843262 372.96973 C -82.826933 375.95662 -81.181142 378.69448 -78.5542 380.10645 L 107.24072 477.24707 C 108.45357 477.89332 109.78286 478.21778 111.10986 478.21778 L 111.12549 478.21778 C 111.68569 478.85321 112.31008 479.45214 113.05518 479.89746 C 114.33874 480.66319 115.78466 481.04786 117.23682 481.04786 C 118.57475 481.04786 119.90245 480.71712 121.10986 480.06543 L 132.90674 473.67676 C 118.89656 459.61577 109.43799 441.80559 109.43799 421.02246 L 109.43799 420.92481 C 109.45628 415.73559 110.07359 410.56661 111.27588 405.51856 L 120.95947 400.14942 L 120.95947 358.62598 C 117.12985 353.32318 113.42495 347.93014 110.00049 342.3545 L 109.88916 313.75293 C 114.52725 306.06839 119.74549 298.76414 125.39111 291.80176 L 125.39111 238.79981 L 292.52002 145.53809 L 292.52002 230.96973 C 298.03856 232.31571 303.48591 233.91123 308.83447 235.80762 L 308.83447 131.89356 C 308.83447 131.82296 308.80908 131.75869 308.80908 131.68262 C 308.80408 131.62292 308.82471 131.56803 308.82471 131.50293 C 308.81421 131.2694 308.71995 131.05915 308.70361 130.83106 C 308.63291 130.38575 308.58574 129.93978 308.44971 129.51075 C 308.35171 129.21203 308.22714 128.947 308.10205 128.65918 C 307.93345 128.27902 307.76406 127.90322 307.53564 127.55567 C 307.36703 127.28416 307.16658 127.03788 306.96533 126.78809 C 306.70974 126.47309 306.44372 126.18227 306.13916 125.90528 C 305.89985 125.68807 305.64354 125.49184 305.37158 125.30176 C 305.19755 125.18228 305.0502 125.0139 304.85986 124.90528 C 304.68581 124.7966 304.48577 124.75151 304.29541 124.65918 C 304.13767 124.57778 304.01172 124.4661 303.854 124.39551 L 114.81103 32.958011 C 113.7097 32.493679 112.53496 32.283873 111.36768 32.323246 z M 111.93603 49.430668 L 281.83057 132.792 L 117.14502 224.7334 L -57.247559 137.80762 L 111.93603 49.430668 z M 292.52002 306.70801 L 292.52002 331.38379 C 297.56683 328.91079 303.04546 327.24504 308.83447 326.59473 L 308.83447 325.4795 C 308.59266 325.27321 308.35617 325.06004 308.09814 324.87403 L 307.98096 324.78809 C 304.8899 322.53469 301.67936 320.44918 298.36572 318.53809 L 292.52002 306.70801 z M 263.36963 384.4795 L 250.82471 391.27442 C 250.80747 391.33561 250.79525 391.39884 250.77783 391.45996 L 250.52197 392.12207 L 250.01611 393.42676 C 250.09235 393.46156 250.16988 393.49257 250.24658 393.52637 C 249.96252 394.3856 249.54829 395.17826 249.22119 396.01661 L 250.48877 396.02246 L 251.37549 394.01661 C 254.02369 394.9955 256.86604 395.47081 259.77002 395.18457 L 259.77197 395.18457 C 261.77584 394.98667 263.68027 394.4183 265.479 393.6377 C 264.49889 390.69654 263.80462 387.62861 263.36963 384.4795 z M 124.64697 431.02637 L 124.64697 431.1045 L 124.64697 436.40332 L 125.1958 436.58692 C 124.86015 434.7674 124.64197 432.91603 124.64697 431.02637 z "
     transform="translate(107.77295,-14.561527)" /><path
     id="path1"
     style="fill:url(#linearGradient2);stroke-width:8.78167"
     d="m 339.14039,241.9983 a 140.16397,140.16397 0 0 0 -32.75641,11.1958 247.13328,247.13328 0 0 0 2.03756,26.96917 134.46467,134.46467 0 0 0 -12.08306,7.85037 114.68838,114.68838 0 0 0 -11.22344,9.22988 215.61593,215.61593 0 0 0 -21.86659,-12.71655 167.02704,167.02704 0 0 0 -22.04159,28.87472 235.27805,235.27805 0 0 0 14.87587,21.45315 l 0.14942,-0.008 v 59.07368 l 7.96497,2.6874 a 3.2843383,3.2843383 0 0 1 2.24837,3.11722 v 14.49008 l 16.2902,5.26835 v -15.31526 a 3.3019015,3.3019015 0 0 1 3.90727,-3.24003 l 28.00483,5.3482 a 3.2843383,3.2843383 0 0 1 2.6782,3.23081 v 15.96578 l 24.36979,3.32803 v -16.59719 a 3.2843383,3.2843383 0 0 1 3.30142,-3.29325 l 20.43489,0.0788 20.42669,-0.0788 a 3.2843383,3.2843383 0 0 1 3.31065,3.29325 v 16.59719 l 24.36876,-3.32803 V 409.4991 a 3.2755566,3.2755566 0 0 1 2.63418,-3.23184 l 28.00485,-5.34819 a 3.3106832,3.3106832 0 0 1 3.91647,3.24105 v 15.28829 l 16.2902,-5.26835 V 399.7166 a 3.2843383,3.2843383 0 0 1 2.23915,-3.11824 l 5.42699,-1.82674 v -59.92513 h 0.14942 a 235.27805,235.27805 0 0 0 14.89429,-21.44497 167.02704,167.02704 0 0 0 -22.03341,-28.87472 215.21197,215.21197 0 0 0 -21.87579,12.71655 114.2493,114.2493 0 0 0 -11.23162,-9.23806 134.93009,134.93009 0 0 0 -12.07488,-7.85139 248.9862,248.9862 0 0 0 2.03756,-26.96815 140.22544,140.22544 0 0 0 -32.7646,-11.18762 232.1869,232.1869 0 0 0 -12.16187,23.7097 83.07444,83.07444 0 0 0 -12.75952,-1.01825 h -0.15862 a 83.048095,83.048095 0 0 0 -12.76874,1.01825 230.73792,230.73792 0 0 0 -12.16186,-23.7097 z m -30.12119,97.14246 a 24.052947,24.052947 0 0 1 24.06175,24.04437 24.052947,24.052947 0 1 1 -24.06175,-24.04437 z m 113.18601,0 a 24.052947,24.052947 0 1 1 -24.06175,24.04437 24.052947,24.052947 0 0 1 24.06175,-24.04437 z m -57.36157,14.11551 a 7.7805446,7.7805446 0 0 1 8.50943,7.00401 v 22.14701 a 7.420497,7.420497 0 0 1 -7.75418,7.02552 l 0.009,0.009 a 7.4117152,7.4117152 0 0 1 -7.74597,-7.0255 v -22.15622 a 7.7805446,7.7805446 0 0 1 6.9815,-7.00402 z M 245.7998,397.32819 a 40.026775,40.026775 0 0 0 -1.08888,9.13267 c 0,37.91036 53.41028,67.17994 119.43068,67.3907 h 0.16681 c 66.01162,-0.21076 119.4307,-29.47157 119.4307,-67.3907 a 39.868704,39.868704 0 0 0 -0.87909,-8.3426 l -11.87226,3.96047 v 14.50746 a 3.2843383,3.2843383 0 0 1 -2.28317,3.13462 l -22.83265,7.38575 a 3.2228666,3.2228666 0 0 1 -2.9412,-0.47485 3.2843383,3.2843383 0 0 1 -1.3611,-2.63419 v -15.80715 l -21.41017,4.0751 v 16.07939 a 3.2931199,3.2931199 0 0 1 -2.85421,3.25741 L 386.35,435.84419 h -0.44825 a 3.2843383,3.2843383 0 0 1 -3.31062,-3.28403 v -17.06284 l -15.97295,0.0695 h -2.34559 l -15.97294,-0.0695 v 17.06284 a 3.2931199,3.2931199 0 0 1 -3.29324,3.30142 h -0.45745 l -30.95525,-4.24192 a 3.2931199,3.2931199 0 0 1 -2.84499,-3.25741 v -16.14078 l -21.41836,-4.07511 v 15.80716 a 3.2843383,3.2843383 0 0 1 -1.3519,2.63521 3.2492116,3.2492116 0 0 1 -2.95143,0.47382 l -22.83164,-7.38575 a 3.2843383,3.2843383 0 0 1 -2.27498,-3.13462 v -14.46345 z" /></svg>
