<?xml version="1.0" encoding="UTF-8" standalone="no"?>
<!-- Created with Inkscape (http://www.inkscape.org/) -->

<svg
   width="500"
   height="500"
   viewBox="0 0 500 500"
   version="1.1"
   id="svg1"
   inkscape:version="1.3.2 (091e20ef0f, 2023-11-25, custom)"
   sodipodi:docname="godot.svg"
   xml:space="preserve"
   xmlns:inkscape="http://www.inkscape.org/namespaces/inkscape"
   xmlns:sodipodi="http://sodipodi.sourceforge.net/DTD/sodipodi-0.dtd"
   xmlns:xlink="http://www.w3.org/1999/xlink"
   xmlns="http://www.w3.org/2000/svg"
   xmlns:svg="http://www.w3.org/2000/svg"><sodipodi:namedview
     id="namedview1"
     pagecolor="#505050"
     bordercolor="#eeeeee"
     borderopacity="1"
     inkscape:showpageshadow="0"
     inkscape:pageopacity="0"
     inkscape:pagecheckerboard="0"
     inkscape:deskcolor="#505050"
     inkscape:document-units="px"
     inkscape:zoom="0.96503771"
     inkscape:cx="364.23447"
     inkscape:cy="237.81454"
     inkscape:window-width="1352"
     inkscape:window-height="734"
     inkscape:window-x="4"
     inkscape:window-y="24"
     inkscape:window-maximized="0"
     inkscape:current-layer="svg1"
     showguides="true"><sodipodi:guide
       position="250.02518,350.60736"
       orientation="-0.99997769,0.0066803918"
       id="guide30"
       inkscape:locked="false" /><sodipodi:guide
       position="66.396728,247.89992"
       orientation="0,-1"
       id="guide53"
       inkscape:locked="false" /></sodipodi:namedview><defs
     id="defs1"><linearGradient
       id="linearGradient1"
       inkscape:collect="always"><stop
         style="stop-color:#85c0ea;stop-opacity:1;"
         offset="0"
         id="stop1" /><stop
         style="stop-color:#d887ef;stop-opacity:1;"
         offset="1"
         id="stop2" /></linearGradient><linearGradient
       id="swatch13"
       inkscape:swatch="solid"><stop
         style="stop-color:#ff405c;stop-opacity:1;"
         offset="0"
         id="stop13" /></linearGradient><linearGradient
       id="swatch61"
       inkscape:swatch="solid"><stop
         style="stop-color:#5090d0;stop-opacity:1;"
         offset="0"
         id="stop61" /></linearGradient><linearGradient
       id="swatch30"
       inkscape:swatch="solid"><stop
         style="stop-color:#f9f9f9;stop-opacity:1;"
         offset="0"
         id="stop30" /></linearGradient><inkscape:perspective
       sodipodi:type="inkscape:persp3d"
       inkscape:vp_x="44.06818 : 315.96746 : 1"
       inkscape:vp_y="0 : 1000 : 0"
       inkscape:vp_z="480.74134 : 298.68846 : 1"
       inkscape:persp3d-origin="250 : 166.66667 : 1"
       id="perspective17" /><inkscape:perspective
       sodipodi:type="inkscape:persp3d"
       inkscape:vp_x="44.06818 : 315.96746 : 1"
       inkscape:vp_y="0 : 1000 : 0"
       inkscape:vp_z="480.74134 : 298.68846 : 1"
       inkscape:persp3d-origin="250 : 166.66667 : 1"
       id="perspective17-9" /><inkscape:perspective
       sodipodi:type="inkscape:persp3d"
       inkscape:vp_x="44.06818 : 315.96746 : 1"
       inkscape:vp_y="0 : 1000 : 0"
       inkscape:vp_z="480.74134 : 298.68846 : 1"
       inkscape:persp3d-origin="250 : 166.66667 : 1"
       id="perspective17-1" /><inkscape:perspective
       sodipodi:type="inkscape:persp3d"
       inkscape:vp_x="44.06818 : 315.96746 : 1"
       inkscape:vp_y="0 : 1000 : 0"
       inkscape:vp_z="480.74134 : 298.68846 : 1"
       inkscape:persp3d-origin="250 : 166.66667 : 1"
       id="perspective17-8" /><inkscape:perspective
       sodipodi:type="inkscape:persp3d"
       inkscape:vp_x="44.06818 : 315.96746 : 1"
       inkscape:vp_y="0 : 1000 : 0"
       inkscape:vp_z="480.74134 : 298.68846 : 1"
       inkscape:persp3d-origin="250 : 166.66667 : 1"
       id="perspective17-7" /><inkscape:perspective
       sodipodi:type="inkscape:persp3d"
       inkscape:vp_x="44.06818 : 315.96746 : 1"
       inkscape:vp_y="0 : 1000 : 0"
       inkscape:vp_z="480.74134 : 298.68846 : 1"
       inkscape:persp3d-origin="250 : 166.66667 : 1"
       id="perspective17-5" /><inkscape:perspective
       sodipodi:type="inkscape:persp3d"
       inkscape:vp_x="44.06818 : 315.96746 : 1"
       inkscape:vp_y="0 : 1000 : 0"
       inkscape:vp_z="480.74134 : 298.68846 : 1"
       inkscape:persp3d-origin="250 : 166.66667 : 1"
       id="perspective17-2" /><inkscape:perspective
       sodipodi:type="inkscape:persp3d"
       inkscape:vp_x="44.06818 : 315.96746 : 1"
       inkscape:vp_y="0 : 1000 : 0"
       inkscape:vp_z="480.74134 : 298.68846 : 1"
       inkscape:persp3d-origin="250 : 166.66667 : 1"
       id="perspective17-29" /><inkscape:perspective
       sodipodi:type="inkscape:persp3d"
       inkscape:vp_x="44.06818 : 315.96746 : 1"
       inkscape:vp_y="0 : 1000 : 0"
       inkscape:vp_z="480.74134 : 298.68846 : 1"
       inkscape:persp3d-origin="250 : 166.66667 : 1"
       id="perspective17-2-1" /><linearGradient
       inkscape:collect="always"
       xlink:href="#linearGradient1"
       id="linearGradient2"
       x1="-1.7974885"
       y1="0.3920356"
       x2="35.437225"
       y2="29.081129"
       gradientUnits="userSpaceOnUse" /></defs><path
     id="path1"
     style="fill:url(#linearGradient2)"
     d="M 13.152049 2.8000487 A 15.961 15.961 0 0 0 9.4219535 4.0749563 A 28.142 28.142 0 0 0 9.6539774 7.1460383 A 15.312 15.312 0 0 0 8.2780329 8.0399886 A 13.06 13.06 0 0 0 6.9999788 9.0910298 A 24.553 24.553 0 0 0 4.5099469 7.6429493 A 19.02 19.02 0 0 0 1.9999873 10.931022 A 26.792 26.792 0 0 0 3.6939595 13.373973 L 3.7109738 13.373041 L 3.7109738 20.099984 L 4.6179761 20.406009 A 0.374 0.374 0 0 1 4.8740065 20.760979 L 4.8740065 22.411017 L 6.7290319 23.010946 L 6.7290319 21.266979 A 0.376 0.376 0 0 1 7.1739676 20.898025 L 10.362984 21.507044 A 0.374 0.374 0 0 1 10.66796 21.874949 L 10.66796 23.693033 L 13.44304 24.072009 L 13.44304 22.182023 A 0.374 0.374 0 0 1 13.818986 21.807009 L 16.145984 21.815982 L 18.472049 21.807009 A 0.374 0.374 0 0 1 18.849044 22.182023 L 18.849044 24.072009 L 21.624007 23.693033 L 21.624007 21.874017 A 0.373 0.373 0 0 1 21.923972 21.505995 L 25.112989 20.896976 A 0.377 0.377 0 0 1 25.558973 21.266047 L 25.558973 23.006983 L 27.413999 22.407054 L 27.413999 20.760046 A 0.374 0.374 0 0 1 27.66898 20.40496 L 28.286972 20.196943 L 28.286972 13.373041 L 28.303987 13.373041 A 26.792 26.792 0 0 0 30.000056 10.931022 A 19.02 19.02 0 0 0 27.491029 7.6429493 A 24.507 24.507 0 0 0 24.999948 9.0910298 A 13.01 13.01 0 0 0 23.720962 8.0390563 A 15.365 15.365 0 0 0 22.34595 7.1449895 A 28.353 28.353 0 0 0 22.577974 4.074024 A 15.968 15.968 0 0 0 18.846946 2.8000487 A 26.44 26.44 0 0 0 17.462028 5.4999626 A 9.46 9.46 0 0 0 16.009053 5.3840089 L 15.99099 5.3840089 A 9.457 9.457 0 0 0 14.536966 5.4999626 A 26.275 26.275 0 0 0 13.152049 2.8000487 z M 9.7220346 13.862027 A 2.739 2.739 0 0 1 12.462037 16.600049 A 2.739 2.739 0 1 1 9.7220346 13.862027 z M 22.610953 13.862027 A 2.739 2.739 0 1 1 19.870951 16.600049 A 2.739 2.739 0 0 1 22.610953 13.862027 z M 16.078975 15.469413 A 0.886 0.886 0 0 1 17.047975 16.266988 L 17.047975 18.788951 A 0.845 0.845 0 0 1 16.164979 19.588973 L 16.166028 19.590021 A 0.844 0.844 0 0 1 15.283964 18.79 L 15.283964 16.266988 A 0.886 0.886 0 0 1 16.078975 15.469413 z M 2.5230024 20.48805 A 4.558 4.558 0 0 0 2.3990077 21.528021 C 2.3990077 25.845016 8.4810388 29.178055 15.999031 29.202055 L 16.018027 29.202055 C 23.535019 29.178055 29.61805 25.846016 29.61805 21.528021 A 4.54 4.54 0 0 0 29.517946 20.578017 L 28.166008 21.029012 L 28.166008 22.681031 A 0.374 0.374 0 0 1 27.906015 23.037982 L 25.305973 23.879025 A 0.367 0.367 0 0 1 24.971047 23.824952 A 0.374 0.374 0 0 1 24.816054 23.524987 L 24.816054 21.724967 L 22.377997 22.189015 L 22.377997 24.020034 A 0.375 0.375 0 0 1 22.052977 24.390969 L 18.527986 24.874012 L 18.476943 24.874012 A 0.374 0.374 0 0 1 18.099948 24.500047 L 18.099948 22.557037 L 16.281049 22.564961 L 16.013948 22.564961 L 14.195049 22.557037 L 14.195049 24.500047 A 0.375 0.375 0 0 1 13.820035 24.875993 L 13.767943 24.875993 L 10.242952 24.39295 A 0.375 0.375 0 0 1 9.918981 24.022015 L 9.918981 22.184004 L 7.479992 21.719956 L 7.479992 23.519976 A 0.374 0.374 0 0 1 7.3260475 23.820057 A 0.37 0.37 0 0 1 6.9899567 23.874014 L 4.390031 23.032971 A 0.374 0.374 0 0 1 4.1309708 22.67602 L 4.1309708 21.029012 L 2.5230024 20.48805 z "
     transform="matrix(16.759794,0,0,16.759794,-15.701016,-15.568865)" /></svg>
