<?xml version="1.0" encoding="UTF-8" standalone="no"?>
<!-- Created with Inkscape (http://www.inkscape.org/) -->

<svg
   width="500"
   height="500"
   viewBox="0 0 500 500"
   version="1.1"
   id="svg1"
   inkscape:version="1.3.2 (091e20ef0f, 2023-11-25, custom)"
   sodipodi:docname="godot-project.svg"
   xml:space="preserve"
   xmlns:inkscape="http://www.inkscape.org/namespaces/inkscape"
   xmlns:sodipodi="http://sodipodi.sourceforge.net/DTD/sodipodi-0.dtd"
   xmlns:xlink="http://www.w3.org/1999/xlink"
   xmlns="http://www.w3.org/2000/svg"
   xmlns:svg="http://www.w3.org/2000/svg"><sodipodi:namedview
     id="namedview1"
     pagecolor="#505050"
     bordercolor="#eeeeee"
     borderopacity="1"
     inkscape:showpageshadow="0"
     inkscape:pageopacity="0"
     inkscape:pagecheckerboard="0"
     inkscape:deskcolor="#505050"
     inkscape:document-units="px"
     inkscape:zoom="0.96503771"
     inkscape:cx="253.87609"
     inkscape:cy="236.77831"
     inkscape:window-width="1352"
     inkscape:window-height="734"
     inkscape:window-x="4"
     inkscape:window-y="24"
     inkscape:window-maximized="0"
     inkscape:current-layer="svg1"
     showguides="true"><sodipodi:guide
       position="250.02518,350.60736"
       orientation="-0.99997769,0.0066803918"
       id="guide30"
       inkscape:locked="false" /><sodipodi:guide
       position="66.396728,247.89992"
       orientation="0,-1"
       id="guide53"
       inkscape:locked="false" /></sodipodi:namedview><defs
     id="defs1"><linearGradient
       id="linearGradient1"
       inkscape:collect="always"><stop
         style="stop-color:#85c0ea;stop-opacity:1;"
         offset="0"
         id="stop1" /><stop
         style="stop-color:#d887ef;stop-opacity:1;"
         offset="1"
         id="stop2" /></linearGradient><linearGradient
       id="swatch13"
       inkscape:swatch="solid"><stop
         style="stop-color:#ff405c;stop-opacity:1;"
         offset="0"
         id="stop13" /></linearGradient><linearGradient
       id="swatch61"
       inkscape:swatch="solid"><stop
         style="stop-color:#5090d0;stop-opacity:1;"
         offset="0"
         id="stop61" /></linearGradient><linearGradient
       id="swatch30"
       inkscape:swatch="solid"><stop
         style="stop-color:#f9f9f9;stop-opacity:1;"
         offset="0"
         id="stop30" /></linearGradient><inkscape:perspective
       sodipodi:type="inkscape:persp3d"
       inkscape:vp_x="44.06818 : 315.96746 : 1"
       inkscape:vp_y="0 : 1000 : 0"
       inkscape:vp_z="480.74134 : 298.68846 : 1"
       inkscape:persp3d-origin="250 : 166.66667 : 1"
       id="perspective17" /><inkscape:perspective
       sodipodi:type="inkscape:persp3d"
       inkscape:vp_x="44.06818 : 315.96746 : 1"
       inkscape:vp_y="0 : 1000 : 0"
       inkscape:vp_z="480.74134 : 298.68846 : 1"
       inkscape:persp3d-origin="250 : 166.66667 : 1"
       id="perspective17-9" /><inkscape:perspective
       sodipodi:type="inkscape:persp3d"
       inkscape:vp_x="44.06818 : 315.96746 : 1"
       inkscape:vp_y="0 : 1000 : 0"
       inkscape:vp_z="480.74134 : 298.68846 : 1"
       inkscape:persp3d-origin="250 : 166.66667 : 1"
       id="perspective17-1" /><inkscape:perspective
       sodipodi:type="inkscape:persp3d"
       inkscape:vp_x="44.06818 : 315.96746 : 1"
       inkscape:vp_y="0 : 1000 : 0"
       inkscape:vp_z="480.74134 : 298.68846 : 1"
       inkscape:persp3d-origin="250 : 166.66667 : 1"
       id="perspective17-8" /><inkscape:perspective
       sodipodi:type="inkscape:persp3d"
       inkscape:vp_x="44.06818 : 315.96746 : 1"
       inkscape:vp_y="0 : 1000 : 0"
       inkscape:vp_z="480.74134 : 298.68846 : 1"
       inkscape:persp3d-origin="250 : 166.66667 : 1"
       id="perspective17-7" /><inkscape:perspective
       sodipodi:type="inkscape:persp3d"
       inkscape:vp_x="44.06818 : 315.96746 : 1"
       inkscape:vp_y="0 : 1000 : 0"
       inkscape:vp_z="480.74134 : 298.68846 : 1"
       inkscape:persp3d-origin="250 : 166.66667 : 1"
       id="perspective17-5" /><inkscape:perspective
       sodipodi:type="inkscape:persp3d"
       inkscape:vp_x="44.06818 : 315.96746 : 1"
       inkscape:vp_y="0 : 1000 : 0"
       inkscape:vp_z="480.74134 : 298.68846 : 1"
       inkscape:persp3d-origin="250 : 166.66667 : 1"
       id="perspective17-2" /><inkscape:perspective
       sodipodi:type="inkscape:persp3d"
       inkscape:vp_x="44.06818 : 315.96746 : 1"
       inkscape:vp_y="0 : 1000 : 0"
       inkscape:vp_z="480.74134 : 298.68846 : 1"
       inkscape:persp3d-origin="250 : 166.66667 : 1"
       id="perspective17-29" /><inkscape:perspective
       sodipodi:type="inkscape:persp3d"
       inkscape:vp_x="44.06818 : 315.96746 : 1"
       inkscape:vp_y="0 : 1000 : 0"
       inkscape:vp_z="480.74134 : 298.68846 : 1"
       inkscape:persp3d-origin="250 : 166.66667 : 1"
       id="perspective17-2-1" /><linearGradient
       inkscape:collect="always"
       xlink:href="#linearGradient1"
       id="linearGradient2"
       x1="-1.7974885"
       y1="0.3920356"
       x2="35.437225"
       y2="29.081129"
       gradientUnits="userSpaceOnUse"
       gradientTransform="matrix(8.7816532,0,0,8.7816532,230.12945,235.67528)" /><inkscape:path-effect
       effect="mirror_symmetry"
       start_point="341.76098,28.008646"
       end_point="341.76098,211.38431"
       center_point="341.76098,119.69648"
       id="path-effect3"
       is_visible="true"
       lpeversion="1.2"
       lpesatellites=""
       mode="free"
       discard_orig_path="false"
       fuse_paths="true"
       oposite_fuse="false"
       split_items="false"
       split_open="false"
       link_styles="false" /><inkscape:path-effect
       effect="mirror_symmetry"
       start_point="216.08168,129.12039"
       end_point="216.08168,402.6937"
       center_point="216.08168,265.90704"
       id="path-effect2"
       is_visible="true"
       lpeversion="1.2"
       lpesatellites=""
       mode="free"
       discard_orig_path="false"
       fuse_paths="true"
       oposite_fuse="false"
       split_items="false"
       split_open="false"
       link_styles="false" /><inkscape:perspective
       sodipodi:type="inkscape:persp3d"
       inkscape:vp_x="44.06818 : 315.96746 : 1"
       inkscape:vp_y="0 : 1000 : 0"
       inkscape:vp_z="480.74134 : 298.68846 : 1"
       inkscape:persp3d-origin="250 : 166.66667 : 1"
       id="perspective17-18" /><inkscape:perspective
       sodipodi:type="inkscape:persp3d"
       inkscape:vp_x="44.06818 : 315.96746 : 1"
       inkscape:vp_y="0 : 1000 : 0"
       inkscape:vp_z="480.74134 : 298.68846 : 1"
       inkscape:persp3d-origin="250 : 166.66667 : 1"
       id="perspective17-27" /><inkscape:perspective
       sodipodi:type="inkscape:persp3d"
       inkscape:vp_x="44.06818 : 315.96746 : 1"
       inkscape:vp_y="0 : 1000 : 0"
       inkscape:vp_z="480.74134 : 298.68846 : 1"
       inkscape:persp3d-origin="250 : 166.66667 : 1"
       id="perspective17-7-0" /><inkscape:perspective
       sodipodi:type="inkscape:persp3d"
       inkscape:vp_x="44.06818 : 315.96746 : 1"
       inkscape:vp_y="0 : 1000 : 0"
       inkscape:vp_z="480.74134 : 298.68846 : 1"
       inkscape:persp3d-origin="250 : 166.66667 : 1"
       id="perspective17-2-9" /><inkscape:perspective
       sodipodi:type="inkscape:persp3d"
       inkscape:vp_x="44.06818 : 315.96746 : 1"
       inkscape:vp_y="0 : 1000 : 0"
       inkscape:vp_z="480.74134 : 298.68846 : 1"
       inkscape:persp3d-origin="250 : 166.66667 : 1"
       id="perspective17-0" /><inkscape:perspective
       sodipodi:type="inkscape:persp3d"
       inkscape:vp_x="44.06818 : 315.96746 : 1"
       inkscape:vp_y="0 : 1000 : 0"
       inkscape:vp_z="480.74134 : 298.68846 : 1"
       inkscape:persp3d-origin="250 : 166.66667 : 1"
       id="perspective17-97" /><inkscape:perspective
       sodipodi:type="inkscape:persp3d"
       inkscape:vp_x="44.06818 : 315.96746 : 1"
       inkscape:vp_y="0 : 1000 : 0"
       inkscape:vp_z="480.74134 : 298.68846 : 1"
       inkscape:persp3d-origin="250 : 166.66667 : 1"
       id="perspective17-2-3" /></defs><path
     id="path5"
     style="color:#000000;fill:#ff4475;stroke-linejoin:round;-inkscape-stroke:none;paint-order:markers fill stroke;fill-opacity:1"
     d="M 324.43966 119.63087 C 319.75099 119.91516 314.88522 121.32494 310.09343 123.46941 C 300.50984 127.75835 290.39442 135.15987 279.7589 145.07161 C 273.31684 151.07525 266.69117 158.11438 260.01554 165.86898 C 253.33951 158.11385 246.71211 151.07436 240.26969 145.07036 C 229.63417 135.15863 219.52125 127.75834 209.93765 123.46941 C 200.35406 119.18046 190.47117 117.83245 182.30666 122.54622 C 174.14217 127.25999 170.37098 136.49134 169.29351 146.93544 C 168.21606 157.37954 169.56699 169.83866 172.83304 184.00516 C 174.81133 192.58598 177.59447 201.84425 180.97233 211.50284 C 170.91913 213.40678 161.50981 215.62606 153.08968 218.20314 C 139.18812 222.45792 127.72051 227.51676 119.21438 233.67191 C 110.70826 239.82707 104.59904 247.71163 104.59904 257.13918 C 104.59904 266.56674 110.70826 274.44879 119.21438 280.60397 C 127.72051 286.75912 139.18812 291.81921 153.08968 296.07398 C 161.50978 298.65106 170.91917 300.87035 180.97233 302.77429 C 177.59447 312.43287 174.81133 321.69115 172.83304 330.27196 C 169.56698 344.43847 168.21607 356.89758 169.29351 367.34169 C 170.37099 377.78579 174.14217 387.01713 182.30666 391.73091 C 190.47117 396.44468 200.35406 395.09665 209.93765 390.80772 C 219.52125 386.51877 229.63416 379.1185 240.26969 369.20676 C 243.67231 366.0357 247.12969 362.54273 250.61542 358.84109 C 250.64758 358.69849 250.65879 358.55227 250.69267 358.41002 A 11.164144 11.164144 0 0 1 257.04413 351.21884 L 257.04413 324.9309 C 254.24766 321.1602 251.56793 317.30446 249.11041 313.30317 A 11.164144 11.164144 0 0 1 249.06555 301.69287 C 250.39227 299.49472 251.81227 297.35836 253.27785 295.2542 C 248.21569 295.16639 243.20304 295.02178 238.2738 294.79447 C 234.43491 288.80106 230.62867 282.66026 226.92389 276.24341 C 223.21907 269.82648 219.80302 263.45918 216.53206 257.13794 C 219.80293 250.81692 223.21926 244.45032 226.92389 238.03371 C 230.62867 231.61686 234.43491 225.47606 238.2738 219.48266 C 245.38377 219.15489 252.60586 218.92949 260.01554 218.92949 C 267.42477 218.92949 274.64645 219.15493 281.75603 219.48266 C 285.59476 225.47582 289.40126 231.61577 293.10594 238.03247 C 296.54882 243.99571 299.72575 249.91195 302.78513 255.7924 C 307.98705 253.76178 313.33859 252.12746 318.81454 250.98581 L 318.66005 251.17519 A 11.164144 11.164144 0 0 1 322.48488 251.10417 C 326.71733 242.26193 330.60302 233.55893 333.95066 225.1439 C 344.50996 227.05002 354.25175 229.30369 362.74778 231.90402 C 375.67419 235.86031 385.91818 240.57919 392.41577 245.28096 C 398.91335 249.98272 401.102 254.03709 401.102 257.13918 C 401.102 260.2413 398.91335 264.29442 392.41577 268.99616 C 390.32339 270.51025 387.71333 272.01623 384.87948 273.50747 C 384.75699 275.88321 384.60006 278.25751 384.3911 280.62764 C 385.19913 281.17982 386.06048 281.65086 386.8517 282.22734 C 387.38364 282.61116 387.88763 283.03107 388.41029 283.42712 C 391.02401 281.89944 393.67921 280.44334 396.38263 279.07777 A 11.164144 11.164144 0 0 1 403.8641 278.23058 C 410.74218 272.46665 415.42955 265.39584 415.42955 257.13918 C 415.42955 247.71163 409.32033 239.82707 400.8142 233.67191 C 392.30808 227.51676 380.84297 222.45792 366.94139 218.20314 C 358.52093 215.62596 349.11115 213.40683 339.0575 211.50284 C 342.43515 201.84471 345.21734 192.58686 347.19554 184.00641 C 350.4616 169.83991 351.81503 157.37954 350.73756 146.93544 C 349.6601 136.49133 345.88641 127.25874 337.72192 122.54497 C 333.63966 120.18808 329.12833 119.34658 324.43966 119.63087 z M 193.34386 133.91357 C 195.99212 133.78418 199.50665 134.49972 204.08204 136.54734 C 211.40268 139.82355 220.61258 146.33796 230.50204 155.55439 C 237.00176 161.61179 243.82472 168.92093 250.75496 177.11174 C 243.85984 185.84049 236.96784 195.28973 230.20552 205.5052 C 217.97709 206.2538 206.34698 207.4975 195.33975 209.10453 C 191.7117 199.00797 188.79268 189.44423 186.79679 180.78707 C 183.75986 167.61433 182.72327 156.38228 183.54631 148.40432 C 184.36936 140.42637 186.78393 136.50493 189.47044 134.95387 C 190.47788 134.37222 191.7549 133.9912 193.34386 133.91357 z M 326.68348 133.91357 C 328.27243 133.9912 329.54946 134.37347 330.5569 134.95512 C 333.2434 136.50616 335.66047 140.42761 336.48352 148.40557 C 337.30656 156.38352 336.27124 167.61433 333.23428 180.78707 C 331.23839 189.44423 328.31827 199.00772 324.69008 209.10453 C 313.68321 207.49759 302.05353 206.25377 289.82555 205.5052 C 283.06329 195.28974 276.17119 185.84052 269.27612 177.11174 C 276.20626 168.92102 283.02828 161.61035 289.52779 155.55314 C 299.41725 146.3367 308.62466 139.82355 315.94529 136.54734 C 320.5207 134.49971 324.03522 133.78418 326.68348 133.91357 z M 260.01554 188.53142 C 263.99578 193.6643 267.97607 199.09616 271.94478 204.78259 C 267.99704 204.68833 264.04267 204.59945 260.01554 204.59945 C 255.98797 204.59945 252.03319 204.68831 248.08505 204.78259 C 252.05391 199.09595 256.03513 193.66451 260.01554 188.53142 z M 220.63846 220.6301 C 218.58296 224.00179 216.52855 227.38235 214.51499 230.86994 C 212.50115 234.35801 210.60168 237.82775 208.70922 241.29416 C 205.76867 235.01338 203.05512 228.84928 200.59983 222.8353 C 207.03533 221.95492 213.72934 221.22373 220.63846 220.6301 z M 299.39137 220.6301 C 306.30038 221.2237 312.99457 221.95495 319.43 222.8353 C 316.97485 228.84887 314.26215 235.0126 311.32186 241.29292 C 309.42928 237.82628 307.52756 234.35698 305.51359 230.86869 C 303.50025 227.38147 301.44665 224.00146 299.39137 220.6301 z M 186.07917 225.14515 C 190.1911 235.4812 194.92957 246.17479 200.3955 257.13918 C 194.92996 268.10287 190.19088 278.79532 186.07917 289.13073 C 175.52073 287.2244 165.77873 284.97075 157.28329 282.37062 C 144.35691 278.41432 134.1129 273.69793 127.61531 268.99616 C 121.11771 264.29442 118.92907 260.2413 118.92907 257.13918 C 118.92907 254.03709 121.11771 249.98272 127.61531 245.28096 C 134.1129 240.57919 144.35691 235.86031 157.28329 231.90402 C 165.77873 229.30388 175.52073 227.05119 186.07917 225.14515 z M 260.01554 239.48266 C 250.59738 239.48267 241.93167 247.06613 241.93168 257.13918 C 241.93169 267.21223 250.59739 274.79446 260.01554 274.79446 C 269.4337 274.79447 278.09938 267.21224 278.09939 257.13918 C 278.0994 247.06612 269.43371 239.48265 260.01554 239.48266 z M 208.70797 272.98545 C 210.60014 276.45129 212.50149 279.91972 214.51499 283.40718 C 216.52855 286.89477 218.58296 290.27533 220.63846 293.64702 C 213.72936 293.05323 207.03532 292.32239 200.59983 291.44182 C 203.05485 285.42864 205.76786 279.26535 208.70797 272.98545 z M 315.51298 274.99504 C 314.56036 275.29993 313.62861 275.65566 312.69356 276.00545 C 315.09532 281.23645 317.37239 286.402 319.43 291.44182 C 316.59031 291.83036 313.6817 292.17819 310.74502 292.50954 A 11.164144 11.164144 0 0 1 307.06844 295.93195 C 304.75737 297.26305 302.51977 298.71677 300.3644 300.28752 A 11.164144 11.164144 0 0 1 300.31955 300.31992 C 298.19383 301.85308 296.16818 303.51999 294.25339 305.30964 A 11.164144 11.164144 0 0 1 280.46281 306.45834 C 278.75427 305.32563 277.00223 304.26192 275.24136 303.21408 C 274.11551 304.63028 273.06937 306.09901 272.02576 307.57713 C 273.59319 309.85835 275.21673 312.10183 276.9183 314.28616 L 276.32527 314.01581 A 11.164144 11.164144 0 0 1 279.37018 321.14096 L 279.37018 323.82955 C 282.87761 319.00221 286.36902 313.99356 289.82555 308.77192 C 302.05356 308.02335 313.68318 306.77954 324.69008 305.17259 C 326.98123 311.5486 328.95005 317.67632 330.62169 323.53303 C 332.38274 322.60099 334.32573 321.97901 336.39257 321.77511 C 339.66139 321.45255 342.82239 322.19281 345.55597 323.68129 C 343.78203 317.01409 341.58686 310.0068 339.0575 302.77429 C 349.11112 300.8703 358.52096 298.65117 366.94139 296.07398 C 367.01397 296.05177 367.07701 296.02647 367.14945 296.00421 C 367.10476 295.97831 367.06214 295.94904 367.01739 295.92323 A 11.164144 11.164144 0 0 1 361.52558 284.80879 C 361.61933 284.09027 361.69039 283.36953 361.77226 282.64969 C 358.92731 283.50268 355.925 284.30841 352.82564 285.08537 A 11.164144 11.164144 0 0 1 343.49281 288.06426 C 342.57785 287.91965 341.65736 287.82027 340.73569 287.73659 C 338.46087 288.1977 336.31079 288.70565 333.94941 289.13197 C 333.76723 288.67403 333.54475 288.19469 333.36012 287.73535 C 332.43502 287.81907 331.51117 287.91913 330.59303 288.06426 A 11.164144 11.164144 0 0 1 318.64012 281.55083 C 317.66098 279.33557 316.60851 277.15399 315.51298 274.99504 z M 195.33975 305.17259 C 206.34663 306.77958 217.97627 308.02331 230.20427 308.77192 C 236.9666 318.98739 243.85983 328.43663 250.75496 337.16538 C 243.82443 345.35664 237.00066 352.66771 230.50079 358.72523 C 220.61134 367.94168 211.40268 374.45357 204.08204 377.72978 C 196.7614 381.00599 192.15693 380.87431 189.47044 379.32325 C 186.78392 377.77219 184.36811 373.84952 183.54506 365.87156 C 182.72202 357.89359 183.7586 346.66405 186.79555 333.4913 C 188.79152 324.83375 191.71132 315.26991 195.33975 305.17259 z M 337.95365 344.89727 C 337.761 344.90645 337.57997 344.96198 337.39052 344.98947 L 337.34566 345.10534 A 11.164144 11.164144 0 0 1 338.07201 344.91721 C 338.03159 344.91472 337.99422 344.89919 337.95365 344.89727 z M 276.80867 349.94431 C 277.20532 350.07615 277.57233 350.26193 277.94989 350.42895 C 277.93222 350.39073 277.91878 350.35136 277.9013 350.31309 L 276.85601 349.9605 L 276.80867 349.94431 z M 337.87392 385.64232 C 337.32721 388.80025 335.62036 391.60989 333.23179 393.61716 C 334.76948 393.1457 336.28016 392.56455 337.72192 391.73215 C 338.43305 391.32158 339.06844 390.83366 339.71407 390.35671 C 338.82311 388.92742 338.16917 387.34243 337.87392 385.64232 z "
     transform="matrix(1.5676751,0,0,1.5676751,-157.74293,-150.3314)" /><path
     id="path1"
     style="fill:url(#linearGradient2);stroke-width:8.78167"
     d="m 345.62618,260.26433 a 140.16397,140.16397 0 0 0 -32.75641,11.1958 247.13328,247.13328 0 0 0 2.03756,26.96917 134.46467,134.46467 0 0 0 -12.08306,7.85037 114.68838,114.68838 0 0 0 -11.22344,9.22988 215.61593,215.61593 0 0 0 -21.86659,-12.71655 167.02704,167.02704 0 0 0 -22.04159,28.87472 235.27805,235.27805 0 0 0 14.87587,21.45315 l 0.14942,-0.008 v 59.07368 l 7.96497,2.6874 a 3.2843383,3.2843383 0 0 1 2.24837,3.11722 v 14.49008 l 16.2902,5.26835 v -15.31526 a 3.3019015,3.3019015 0 0 1 3.90727,-3.24003 l 28.00483,5.3482 a 3.2843383,3.2843383 0 0 1 2.6782,3.23081 v 15.96578 l 24.36979,3.32803 v -16.59719 a 3.2843383,3.2843383 0 0 1 3.30142,-3.29325 l 20.43489,0.0788 20.42669,-0.0788 a 3.2843383,3.2843383 0 0 1 3.31065,3.29325 v 16.59719 l 24.36876,-3.32803 v -15.97397 a 3.2755566,3.2755566 0 0 1 2.63418,-3.23184 l 28.00485,-5.34819 a 3.3106832,3.3106832 0 0 1 3.91647,3.24105 v 15.28829 l 16.2902,-5.26835 v -14.46346 a 3.2843383,3.2843383 0 0 1 2.23915,-3.11824 l 5.42699,-1.82674 v -59.92513 h 0.14942 a 235.27805,235.27805 0 0 0 14.89429,-21.44497 167.02704,167.02704 0 0 0 -22.03341,-28.87472 215.21197,215.21197 0 0 0 -21.87579,12.71655 114.2493,114.2493 0 0 0 -11.23162,-9.23806 134.93009,134.93009 0 0 0 -12.07488,-7.85139 248.9862,248.9862 0 0 0 2.03756,-26.96815 140.22544,140.22544 0 0 0 -32.7646,-11.18762 232.1869,232.1869 0 0 0 -12.16187,23.7097 83.07444,83.07444 0 0 0 -12.75952,-1.01825 h -0.15862 a 83.048095,83.048095 0 0 0 -12.76874,1.01825 230.73792,230.73792 0 0 0 -12.16186,-23.7097 z m -30.12119,97.14246 a 24.052947,24.052947 0 0 1 24.06175,24.04437 24.052947,24.052947 0 1 1 -24.06175,-24.04437 z m 113.18601,0 a 24.052947,24.052947 0 1 1 -24.06175,24.04437 24.052947,24.052947 0 0 1 24.06175,-24.04437 z m -57.36157,14.11551 a 7.7805446,7.7805446 0 0 1 8.50943,7.00401 v 22.14701 a 7.420497,7.420497 0 0 1 -7.75418,7.02552 l 0.009,0.009 a 7.4117152,7.4117152 0 0 1 -7.74597,-7.0255 v -22.15622 a 7.7805446,7.7805446 0 0 1 6.9815,-7.00402 z m -119.04384,44.07192 a 40.026775,40.026775 0 0 0 -1.08888,9.13267 c 0,37.91036 53.41028,67.17994 119.43068,67.3907 h 0.16681 c 66.01162,-0.21076 119.4307,-29.47157 119.4307,-67.3907 a 39.868704,39.868704 0 0 0 -0.87909,-8.3426 l -11.87226,3.96047 v 14.50746 a 3.2843383,3.2843383 0 0 1 -2.28317,3.13462 l -22.83265,7.38575 a 3.2228666,3.2228666 0 0 1 -2.9412,-0.47485 3.2843383,3.2843383 0 0 1 -1.3611,-2.63419 V 426.4564 l -21.41017,4.0751 v 16.07939 a 3.2931199,3.2931199 0 0 1 -2.85421,3.25741 l -30.95526,4.24192 h -0.44825 a 3.2843383,3.2843383 0 0 1 -3.31062,-3.28403 v -17.06284 l -15.97295,0.0695 h -2.34559 l -15.97294,-0.0695 v 17.06284 a 3.2931199,3.2931199 0 0 1 -3.29324,3.30142 h -0.45745 l -30.95525,-4.24192 a 3.2931199,3.2931199 0 0 1 -2.84499,-3.25741 V 430.4875 l -21.41836,-4.07511 v 15.80716 a 3.2843383,3.2843383 0 0 1 -1.3519,2.63521 3.2492116,3.2492116 0 0 1 -2.95143,0.47382 l -22.83164,-7.38575 a 3.2843383,3.2843383 0 0 1 -2.27498,-3.13462 v -14.46345 z" /></svg>
