<?xml version="1.0" encoding="UTF-8" standalone="no"?>
<!-- Created with Inkscape (http://www.inkscape.org/) -->

<svg
   width="500"
   height="500"
   viewBox="0 0 500 500"
   version="1.1"
   id="svg1"
   inkscape:version="1.3.2 (091e20ef0f, 2023-11-25, custom)"
   sodipodi:docname="graphql.svg"
   xml:space="preserve"
   xmlns:inkscape="http://www.inkscape.org/namespaces/inkscape"
   xmlns:sodipodi="http://sodipodi.sourceforge.net/DTD/sodipodi-0.dtd"
   xmlns:xlink="http://www.w3.org/1999/xlink"
   xmlns="http://www.w3.org/2000/svg"
   xmlns:svg="http://www.w3.org/2000/svg"><sodipodi:namedview
     id="namedview1"
     pagecolor="#505050"
     bordercolor="#eeeeee"
     borderopacity="1"
     inkscape:showpageshadow="0"
     inkscape:pageopacity="0"
     inkscape:pagecheckerboard="0"
     inkscape:deskcolor="#505050"
     inkscape:document-units="px"
     inkscape:zoom="0.96390292"
     inkscape:cx="200.74636"
     inkscape:cy="217.34554"
     inkscape:window-width="1362"
     inkscape:window-height="744"
     inkscape:window-x="0"
     inkscape:window-y="20"
     inkscape:window-maximized="1"
     inkscape:current-layer="svg1"
     showguides="true"><sodipodi:guide
       position="250.02518,350.60736"
       orientation="-0.99997769,0.0066803918"
       id="guide30"
       inkscape:locked="false" /><sodipodi:guide
       position="66.396728,247.89992"
       orientation="0,-1"
       id="guide53"
       inkscape:locked="false" /></sodipodi:namedview><defs
     id="defs1"><linearGradient
       id="linearGradient4"
       inkscape:collect="always"><stop
         style="stop-color:#e535ab;stop-opacity:1;"
         offset="0"
         id="stop4" /><stop
         style="stop-color:#a535e5;stop-opacity:1;"
         offset="1"
         id="stop5" /></linearGradient><inkscape:path-effect
       effect="mirror_symmetry"
       start_point="249.62695,31.187893"
       end_point="249.62695,493.56289"
       center_point="249.62695,262.37539"
       id="path-effect3"
       is_visible="true"
       lpeversion="1.2"
       lpesatellites=""
       mode="free"
       discard_orig_path="false"
       fuse_paths="true"
       oposite_fuse="false"
       split_items="false"
       split_open="false"
       link_styles="false" /><inkscape:path-effect
       effect="mirror_symmetry"
       start_point="249.62695,31.1875"
       end_point="249.62695,493.5625"
       center_point="249.62695,262.375"
       id="path-effect2"
       is_visible="true"
       lpeversion="1.2"
       lpesatellites=""
       mode="free"
       discard_orig_path="false"
       fuse_paths="false"
       oposite_fuse="false"
       split_items="false"
       split_open="false"
       link_styles="false" /><linearGradient
       id="swatch61"
       inkscape:swatch="solid"><stop
         style="stop-color:#5090d0;stop-opacity:1;"
         offset="0"
         id="stop61" /></linearGradient><linearGradient
       id="swatch30"
       inkscape:swatch="solid"><stop
         style="stop-color:#f9f9f9;stop-opacity:1;"
         offset="0"
         id="stop30" /></linearGradient><inkscape:perspective
       sodipodi:type="inkscape:persp3d"
       inkscape:vp_x="44.06818 : 315.96746 : 1"
       inkscape:vp_y="0 : 1000 : 0"
       inkscape:vp_z="480.74134 : 298.68846 : 1"
       inkscape:persp3d-origin="250 : 166.66667 : 1"
       id="perspective17" /><inkscape:perspective
       sodipodi:type="inkscape:persp3d"
       inkscape:vp_x="44.06818 : 315.96746 : 1"
       inkscape:vp_y="0 : 1000 : 0"
       inkscape:vp_z="480.74134 : 298.68846 : 1"
       inkscape:persp3d-origin="250 : 166.66667 : 1"
       id="perspective17-29" /><inkscape:perspective
       sodipodi:type="inkscape:persp3d"
       inkscape:vp_x="44.06818 : 315.96746 : 1"
       inkscape:vp_y="0 : 1000 : 0"
       inkscape:vp_z="480.74134 : 298.68846 : 1"
       inkscape:persp3d-origin="250 : 166.66667 : 1"
       id="perspective17-2" /><inkscape:perspective
       sodipodi:type="inkscape:persp3d"
       inkscape:vp_x="44.06818 : 315.96746 : 1"
       inkscape:vp_y="0 : 1000 : 0"
       inkscape:vp_z="480.74134 : 298.68846 : 1"
       inkscape:persp3d-origin="250 : 166.66667 : 1"
       id="perspective17-5" /><inkscape:perspective
       sodipodi:type="inkscape:persp3d"
       inkscape:vp_x="44.06818 : 315.96746 : 1"
       inkscape:vp_y="0 : 1000 : 0"
       inkscape:vp_z="480.74134 : 298.68846 : 1"
       inkscape:persp3d-origin="250 : 166.66667 : 1"
       id="perspective17-2-9" /><linearGradient
       inkscape:collect="always"
       xlink:href="#linearGradient4"
       id="linearGradient5"
       x1="-34.534695"
       y1="10.327196"
       x2="42.512363"
       y2="31.467312"
       gradientUnits="userSpaceOnUse"
       gradientTransform="matrix(-7.8329268,-4.5224755,4.5224755,-7.8329268,182.25847,427.82287)" /></defs><path
     id="Rectangle-path"
     style="fill:url(#linearGradient5);stroke-width:9.04475"
     d="m 249.46479,18.215381 c -23.03167,-4e-6 -41.64737,18.61569 -41.64737,41.647367 0,4.115012 0.61635,8.078967 1.72394,11.831126 l -96.15901,55.518286 c -2.69546,-2.84593 -5.82297,-5.37325 -9.38787,-7.44388 -6.850582,-3.93807 -14.364382,-5.71926 -21.740667,-5.55081 -14.082009,0.32163 -27.661471,7.74734 -35.179576,20.82573 -11.456172,19.92894 -4.654051,45.46815 15.27491,56.92431 3.557189,2.04486 7.294974,3.48277 11.097538,4.39337 l 2e-6,111.04675 c -3.759549,0.91233 -7.455953,2.34553 -10.979353,4.37096 -19.928965,11.57549 -26.731079,36.99536 -15.274916,56.92431 11.456171,19.92896 36.873988,26.72904 56.922282,15.27288 3.52699,-2.04861 6.61993,-4.54769 9.29619,-7.35625 l 96.11416,55.49382 c -1.09616,3.73439 -1.70763,7.67707 -1.70763,11.77 0,23.03168 18.6157,41.64736 41.64737,41.64737 23.03168,0 41.64941,-18.73503 41.64941,-41.64737 -10e-6,-4.58731 -0.76662,-8.98601 -2.13148,-13.11083 l 95.55787,-55.1739 c 2.88633,3.24116 6.30918,6.09665 10.27633,8.37716 19.92896,11.45617 45.46407,4.65609 56.92023,-15.27288 11.57552,-19.92895 4.77542,-45.34882 -15.27287,-56.92431 -3.52011,-2.02354 -7.21762,-3.45644 -10.97935,-4.36892 V 196.36089 c 3.80265,-0.91061 7.5424,-2.34852 11.09958,-4.39338 19.92897,-11.57549 26.72905,-36.99536 15.27288,-56.92431 -7.59644,-13.07839 -21.15422,-20.50413 -35.21014,-20.82572 -7.36264,-0.16842 -14.86155,1.61274 -21.71214,5.5508 -3.58485,2.08222 -6.72722,4.62517 -9.43271,7.49074 L 289.37193,71.757047 c 1.11943,-3.770459 1.74227,-7.756508 1.74227,-11.894298 0,-23.031673 -18.61773,-41.647367 -41.64941,-41.647368 z m -29.93646,70.585342 c 0.38573,0.398973 0.78261,0.784306 1.18392,1.16762 L 94.885769,307.89872 c -0.53786,-0.15613 -1.086549,-0.26086 -1.630191,-0.39532 l -3e-6,-111.24645 c 10.597755,-2.63608 20.153815,-9.36685 26.015855,-19.56435 5.85452,-10.18443 6.91383,-21.79587 3.91654,-32.26764 z m 59.83014,0.04687 96.36481,55.638507 c -2.97549,10.45574 -1.90615,22.04199 3.93691,32.20651 5.86204,10.19749 15.41769,16.92827 26.01586,19.56434 v 111.23627 c -0.53449,0.13138 -1.07485,0.22878 -1.60371,0.38105 L 278.24382,89.941852 c 0.37667,-0.360415 0.75173,-0.720017 1.11465,-1.094261 z m -18.27244,10.99361 125.81222,217.903887 c -2.81344,2.68296 -5.32322,5.76824 -7.35828,9.30841 -2.02323,3.51956 -3.44823,7.21841 -4.36076,10.97936 l -251.42679,-1e-5 c -0.9124,-3.75869 -2.33791,-7.45687 -4.36281,-10.97936 -2.04325,-3.51776 -4.54242,-6.58998 -7.34198,-9.26153 L 237.88023,99.849357 c 3.68048,1.061953 7.55841,1.660763 11.58456,1.660753 4.03858,1e-5 7.93071,-0.60063 11.62124,-1.668907 z M 123.6974,357.84174 h 251.52663 c 0.22432,0.9131 0.49334,1.81214 0.77841,2.70816 l -95.77998,55.29819 c -7.61249,-8.34889 -18.54731,-13.61211 -30.75767,-13.61211 -11.79291,0 -22.40772,4.89895 -29.97925,12.75423 l -96.21606,-55.55088 c 0.1535,-0.53031 0.29548,-1.06168 0.42792,-1.59759 z" /></svg>
