<?xml version="1.0" encoding="UTF-8" standalone="no"?>
<!-- Created with Inkscape (http://www.inkscape.org/) -->

<svg
   width="500"
   height="500"
   viewBox="0 0 500 500"
   version="1.1"
   id="svg1"
   inkscape:version="1.3.2 (091e20ef0f, 2023-11-25, custom)"
   sodipodi:docname="helmet.js.svg"
   xml:space="preserve"
   xmlns:inkscape="http://www.inkscape.org/namespaces/inkscape"
   xmlns:sodipodi="http://sodipodi.sourceforge.net/DTD/sodipodi-0.dtd"
   xmlns="http://www.w3.org/2000/svg"
   xmlns:svg="http://www.w3.org/2000/svg"><sodipodi:namedview
     id="namedview1"
     pagecolor="#505050"
     bordercolor="#eeeeee"
     borderopacity="1"
     inkscape:showpageshadow="0"
     inkscape:pageopacity="0"
     inkscape:pagecheckerboard="0"
     inkscape:deskcolor="#505050"
     inkscape:document-units="px"
     inkscape:zoom="0.96390292"
     inkscape:cx="281.66737"
     inkscape:cy="234.98217"
     inkscape:window-width="1362"
     inkscape:window-height="744"
     inkscape:window-x="0"
     inkscape:window-y="20"
     inkscape:window-maximized="1"
     inkscape:current-layer="layer1"
     showguides="true"><sodipodi:guide
       position="250.02518,350.60736"
       orientation="-0.99997769,0.0066803918"
       id="guide30"
       inkscape:locked="false" /><sodipodi:guide
       position="66.396728,247.89992"
       orientation="0,-1"
       id="guide53"
       inkscape:locked="false" /></sodipodi:namedview><defs
     id="defs1"><linearGradient
       id="swatch61"
       inkscape:swatch="solid"><stop
         style="stop-color:#5090d0;stop-opacity:1;"
         offset="0"
         id="stop61" /></linearGradient><linearGradient
       id="swatch30"
       inkscape:swatch="solid"><stop
         style="stop-color:#f9f9f9;stop-opacity:1;"
         offset="0"
         id="stop30" /></linearGradient><inkscape:perspective
       sodipodi:type="inkscape:persp3d"
       inkscape:vp_x="44.06818 : 315.96746 : 1"
       inkscape:vp_y="0 : 1000 : 0"
       inkscape:vp_z="480.74134 : 298.68846 : 1"
       inkscape:persp3d-origin="250 : 166.66667 : 1"
       id="perspective17" /><inkscape:perspective
       sodipodi:type="inkscape:persp3d"
       inkscape:vp_x="44.06818 : 315.96746 : 1"
       inkscape:vp_y="0 : 1000 : 0"
       inkscape:vp_z="480.74134 : 298.68846 : 1"
       inkscape:persp3d-origin="250 : 166.66667 : 1"
       id="perspective17-29" /><inkscape:perspective
       sodipodi:type="inkscape:persp3d"
       inkscape:vp_x="44.06818 : 315.96746 : 1"
       inkscape:vp_y="0 : 1000 : 0"
       inkscape:vp_z="480.74134 : 298.68846 : 1"
       inkscape:persp3d-origin="250 : 166.66667 : 1"
       id="perspective17-2" /></defs><g
     inkscape:label="Layer 1"
     inkscape:groupmode="layer"
     id="layer1"><path
       d="m 137.63481,393.21709 c 48.35044,0 75.80365,-30.7312 75.80365,-86.04738 v -202.4162 h -34.00921 v 206.10395 c 0,33.59945 -15.16073,52.44793 -42.61392,52.44793 -12.29249,0 -28.68247,-3.68774 -40.155456,-9.42424 l -9.833971,25.40446 c 16.389957,9.83398 33.599437,13.93148 50.808907,13.93148 z m 202.4165,0 c 48.76018,0 78.6719,-22.94597 78.6719,-59.41367 0,-72.52564 -118.00784,-45.48218 -118.00784,-90.14487 0,-17.20946 18.43872,-28.27269 47.94069,-28.27269 16.79972,0 36.46769,3.68773 53.26741,9.42422 l 7.78525,-26.63371 c -16.79973,-6.96573 -36.87745,-10.65348 -57.77467,-10.65348 -51.21868,0 -83.99863,22.53622 -83.99863,59.82342 0,70.88664 117.59808,41.38468 117.59808,89.73511 0,18.02898 -15.98022,28.27271 -43.02369,28.27271 -20.89723,0 -48.76019,-5.73648 -69.65741,-14.75097 l -7.78523,26.63371 c 22.53622,10.24373 49.98943,15.98022 74.98414,15.98022 z"
       id="text1"
       style="font-size:240px;font-family:System-ui;-inkscape-font-specification:System-ui;fill:#ff9340;fill-opacity:0.313725;stroke:#ffc340;stroke-width:40.1707;stroke-linejoin:round;paint-order:markers fill stroke"
       aria-label="Js" /></g></svg>
