<?xml version="1.0" encoding="UTF-8" standalone="no"?>
<!-- Created with Inkscape (http://www.inkscape.org/) -->

<svg
   width="500"
   height="500"
   viewBox="0 0 500 500"
   version="1.1"
   id="svg1"
   inkscape:version="1.3.2 (091e20ef0f, 2023-11-25, custom)"
   sodipodi:docname="ico.svg"
   xmlns:inkscape="http://www.inkscape.org/namespaces/inkscape"
   xmlns:sodipodi="http://sodipodi.sourceforge.net/DTD/sodipodi-0.dtd"
   xmlns="http://www.w3.org/2000/svg"
   xmlns:svg="http://www.w3.org/2000/svg">
  <sodipodi:namedview
     id="namedview1"
     pagecolor="#505050"
     bordercolor="#eeeeee"
     borderopacity="1"
     inkscape:showpageshadow="0"
     inkscape:pageopacity="0"
     inkscape:pagecheckerboard="0"
     inkscape:deskcolor="#505050"
     inkscape:document-units="px"
     inkscape:zoom="0.96390292"
     inkscape:cx="231.86982"
     inkscape:cy="234.98217"
     inkscape:window-width="1362"
     inkscape:window-height="744"
     inkscape:window-x="0"
     inkscape:window-y="20"
     inkscape:window-maximized="1"
     inkscape:current-layer="layer1"
     showguides="true">
    <sodipodi:guide
       position="250.02518,350.60736"
       orientation="-0.99997769,0.0066803918"
       id="guide30"
       inkscape:locked="false" />
    <sodipodi:guide
       position="66.396728,247.89992"
       orientation="0,-1"
       id="guide53"
       inkscape:locked="false" />
  </sodipodi:namedview>
  <defs
     id="defs1">
    <linearGradient
       id="swatch61"
       inkscape:swatch="solid">
      <stop
         style="stop-color:#5090d0;stop-opacity:1;"
         offset="0"
         id="stop61" />
    </linearGradient>
    <linearGradient
       id="swatch30"
       inkscape:swatch="solid">
      <stop
         style="stop-color:#f9f9f9;stop-opacity:1;"
         offset="0"
         id="stop30" />
    </linearGradient>
    <inkscape:perspective
       sodipodi:type="inkscape:persp3d"
       inkscape:vp_x="44.06818 : 315.96746 : 1"
       inkscape:vp_y="0 : 1000 : 0"
       inkscape:vp_z="480.74134 : 298.68846 : 1"
       inkscape:persp3d-origin="250 : 166.66667 : 1"
       id="perspective17" />
  </defs>
  <g
     inkscape:label="Layer 1"
     inkscape:groupmode="layer"
     id="layer1">
    <path
       sodipodi:type="star"
       style="fill:none;fill-opacity:1;stroke:none;stroke-width:22.062;stroke-linejoin:bevel;stroke-opacity:1;paint-order:markers fill stroke"
       id="path3"
       inkscape:flatsided="true"
       sodipodi:sides="5"
       sodipodi:cx="-109.20796"
       sodipodi:cy="36.31538"
       sodipodi:r1="273.62579"
       sodipodi:r2="221.36792"
       sodipodi:arg1="1.0898371"
       sodipodi:arg2="1.7181556"
       inkscape:rounded="0"
       inkscape:randomized="0"
       d="M 17.379482,278.89876 -300.80079,231.66958 -354.20629,-85.53246 -69.032425,-234.34493 160.62021,-9.1140479 Z"
       inkscape:transform-center-x="-12.414925"
       inkscape:transform-center-y="-14.038464" />
    <path
       id="path5"
       style="fill:#d108ff;fill-opacity:1;stroke:none;stroke-width:35.6843;stroke-linejoin:bevel;stroke-opacity:1;paint-order:markers fill stroke"
       d="M 147.27732,58.255823 A 226.95838,224.32659 0 0 0 59.531681,363.41611 226.95838,224.32659 0 0 0 368.27207,450.14425 226.95838,224.32659 0 0 0 456.0205,144.98245 226.95838,224.32659 0 0 0 147.27732,58.255823 Z M 107.48521,231.14513 a 40.022583,39.558485 0 0 1 54.44572,15.29203 40.022583,39.558485 0 0 1 -15.47421,53.81586 40.022583,39.558485 0 0 1 -54.444459,-15.29628 40.022583,39.558485 0 0 1 15.472949,-53.81161 z M 332.08754,107.4072 a 40.022583,39.558485 0 0 1 54.44293,15.29353 40.022583,39.558485 0 0 1 -15.47141,53.81435 40.022583,39.558485 0 0 1 -54.44723,-15.29475 40.022583,39.558485 0 0 1 15.47571,-53.81313 z M 125.85675,375.70523 433.17297,206.39854 a 146.52378,176.11199 62.427779 0 1 -85.7738,205.03534 146.52378,176.11199 62.427779 0 1 -221.54242,-35.72865 z" />
  </g>
</svg>
