<?xml version="1.0" encoding="UTF-8" standalone="no"?>
<!-- Created with Inkscape (http://www.inkscape.org/) -->

<svg
   width="500"
   height="500"
   viewBox="0 0 500 500"
   version="1.1"
   id="svg1"
   inkscape:version="1.3.2 (091e20ef0f, 2023-11-25, custom)"
   sodipodi:docname="index.php.svg"
   xml:space="preserve"
   xmlns:inkscape="http://www.inkscape.org/namespaces/inkscape"
   xmlns:sodipodi="http://sodipodi.sourceforge.net/DTD/sodipodi-0.dtd"
   xmlns="http://www.w3.org/2000/svg"
   xmlns:svg="http://www.w3.org/2000/svg"><sodipodi:namedview
     id="namedview1"
     pagecolor="#505050"
     bordercolor="#eeeeee"
     borderopacity="1"
     inkscape:showpageshadow="0"
     inkscape:pageopacity="0"
     inkscape:pagecheckerboard="0"
     inkscape:deskcolor="#505050"
     inkscape:document-units="px"
     inkscape:zoom="1"
     inkscape:cx="306.5"
     inkscape:cy="246.5"
     inkscape:window-width="1362"
     inkscape:window-height="744"
     inkscape:window-x="0"
     inkscape:window-y="20"
     inkscape:window-maximized="1"
     inkscape:current-layer="layer1"
     showguides="true"><sodipodi:guide
       position="250.02518,350.60736"
       orientation="-0.99997769,0.0066803918"
       id="guide30"
       inkscape:locked="false" /><sodipodi:guide
       position="66.396728,247.89992"
       orientation="0,-1"
       id="guide53"
       inkscape:locked="false" /><sodipodi:guide
       position="221.35979,127.71308"
       orientation="0,-1"
       id="guide5"
       inkscape:locked="false" /><sodipodi:guide
       position="96.959247,117.65127"
       orientation="1,0"
       id="guide6"
       inkscape:locked="false" /><sodipodi:guide
       position="400.64293,118.56598"
       orientation="1,0"
       id="guide7"
       inkscape:locked="false" /></sodipodi:namedview><defs
     id="defs1"><linearGradient
       id="swatch61"
       inkscape:swatch="solid"><stop
         style="stop-color:#5090d0;stop-opacity:1;"
         offset="0"
         id="stop61" /></linearGradient><linearGradient
       id="swatch30"
       inkscape:swatch="solid"><stop
         style="stop-color:#f9f9f9;stop-opacity:1;"
         offset="0"
         id="stop30" /></linearGradient><inkscape:perspective
       sodipodi:type="inkscape:persp3d"
       inkscape:vp_x="44.06818 : 315.96746 : 1"
       inkscape:vp_y="0 : 1000 : 0"
       inkscape:vp_z="480.74134 : 298.68846 : 1"
       inkscape:persp3d-origin="250 : 166.66667 : 1"
       id="perspective17" /><inkscape:perspective
       sodipodi:type="inkscape:persp3d"
       inkscape:vp_x="44.06818 : 315.96746 : 1"
       inkscape:vp_y="0 : 1000 : 0"
       inkscape:vp_z="480.74134 : 298.68846 : 1"
       inkscape:persp3d-origin="250 : 166.66667 : 1"
       id="perspective17-2" /><inkscape:perspective
       sodipodi:type="inkscape:persp3d"
       inkscape:vp_x="44.06818 : 315.96746 : 1"
       inkscape:vp_y="0 : 1000 : 0"
       inkscape:vp_z="480.74134 : 298.68846 : 1"
       inkscape:persp3d-origin="250 : 166.66667 : 1"
       id="perspective17-0" /></defs><g
     inkscape:label="Layer 1"
     inkscape:groupmode="layer"
     id="layer1"><path
       id="rect4"
       style="fill:#777bb3;fill-opacity:1;stroke:none;stroke-width:20.6479;stroke-linecap:round;stroke-miterlimit:10;stroke-dasharray:none;stroke-opacity:1"
       d="M 71.512222,0.96290613 C 33.718931,0.96290613 3.2925114,31.617792 3.2925114,69.697483 V 428.74241 c 0,38.07969 30.4264196,68.73458 68.2197106,68.73458 H 427.85464 c 37.7933,0 68.21972,-30.65489 68.21972,-68.73458 V 69.697483 c 0,-38.079691 -30.42642,-68.73457687 -68.21972,-68.73457687 z M 168.78002,64.097685 c 6.89176,6.930433 19.30633,19.741765 32.18476,34.969228 9.4495,11.172907 18.87145,23.369917 25.79426,34.537007 6.92282,11.16709 10.9836,21.56902 11.10699,27.02493 0.30168,13.3368 -8.46512,23.56185 -18.58349,31.08563 -10.11833,7.52378 -20.38932,11.2755 -20.38932,11.2755 -4.72418,1.70396 -7.13916,6.82396 -5.39239,11.43362 1.74622,4.60989 6.99196,6.96485 11.71591,5.26036 0,0 12.58112,-4.48998 25.12048,-13.81396 12.53935,-9.324 26.2376,-24.55255 25.76078,-45.6333 -0.26584,-11.75283 -6.07355,-23.48874 -13.73308,-35.84419 -7.6595,-12.35545 -17.53746,-25.067688 -27.33644,-36.653807 -4.88266,-5.773156 -9.75119,-11.266971 -14.3148,-16.265982 30.35759,13.274409 80.13305,30.952769 132.75035,32.460279 113.89205,3.26304 121.35073,79.64404 118.50669,150.92047 -2.85714,71.60451 -27.32388,190.7516 -27.32388,190.7516 l -49.28258,-0.39849 c 0.81448,-70.09242 -10.31831,-52.39683 -15.67492,-76.7885 -36.01992,12.68895 -103.49402,18.99119 -136.92907,1.34934 -17.84167,25.57591 -25.92104,22.03758 -27.83236,75.12502 l -53.08464,0.006 c 5.93,-71.33978 14.46114,-111.33755 7.60205,-150.78976 5.74061,-13.63101 10.1888,-20.29647 12.28089,-38.22452 2.64052,-22.62774 4.72855,-35.07836 -6.53279,-50.64909 -1.39422,-1.92833 -3.51764,-3.23751 -5.90085,-3.63903 -2.38345,-0.40124 -4.833,0.13805 -6.809,1.49905 -4.11426,2.83402 -5.09504,8.38657 -2.19084,12.40136 5.76432,7.97016 5.71828,17.77515 3.31451,38.37422 -1.22378,10.48712 -3.54354,10.23377 -6.27541,19.5761 -20.45125,40.47733 -56.426337,50.52331 -58.244756,139.94648 l -26.955595,-2.2475 6.829923,-242.66569 c 9.153746,-30.55971 18.910517,-55.40559 61.722498,-60.93154 31.98664,-4.12865 44.03782,-30.412244 48.09612,-43.451148 z" /></g></svg>
