<?xml version="1.0" encoding="UTF-8" standalone="no"?>
<!-- Created with Inkscape (http://www.inkscape.org/) -->

<svg
   width="500"
   height="500"
   viewBox="0 0 500 500"
   version="1.1"
   id="svg1"
   inkscape:version="1.3.2 (091e20ef0f, 2023-11-25, custom)"
   sodipodi:docname="index.tsx.svg"
   xml:space="preserve"
   xmlns:inkscape="http://www.inkscape.org/namespaces/inkscape"
   xmlns:sodipodi="http://sodipodi.sourceforge.net/DTD/sodipodi-0.dtd"
   xmlns:xlink="http://www.w3.org/1999/xlink"
   xmlns="http://www.w3.org/2000/svg"
   xmlns:svg="http://www.w3.org/2000/svg"><sodipodi:namedview
     id="namedview1"
     pagecolor="#505050"
     bordercolor="#eeeeee"
     borderopacity="1"
     inkscape:showpageshadow="0"
     inkscape:pageopacity="0"
     inkscape:pagecheckerboard="0"
     inkscape:deskcolor="#505050"
     inkscape:document-units="px"
     inkscape:zoom="0.68158229"
     inkscape:cx="185.59755"
     inkscape:cy="292.70127"
     inkscape:window-width="1352"
     inkscape:window-height="734"
     inkscape:window-x="4"
     inkscape:window-y="24"
     inkscape:window-maximized="1"
     inkscape:current-layer="layer1"
     showguides="true"><sodipodi:guide
       position="250.02518,350.60736"
       orientation="-0.99997769,0.0066803918"
       id="guide30"
       inkscape:locked="false" /><sodipodi:guide
       position="66.396728,247.89992"
       orientation="0,-1"
       id="guide53"
       inkscape:locked="false" /></sodipodi:namedview><defs
     id="defs1"><linearGradient
       id="swatch61"
       inkscape:swatch="solid"><stop
         style="stop-color:#5090d0;stop-opacity:1;"
         offset="0"
         id="stop61" /></linearGradient><linearGradient
       id="swatch30"
       inkscape:swatch="solid"><stop
         style="stop-color:#f9f9f9;stop-opacity:1;"
         offset="0"
         id="stop30" /></linearGradient><inkscape:perspective
       sodipodi:type="inkscape:persp3d"
       inkscape:vp_x="44.06818 : 315.96746 : 1"
       inkscape:vp_y="0 : 1000 : 0"
       inkscape:vp_z="480.74134 : 298.68846 : 1"
       inkscape:persp3d-origin="250 : 166.66667 : 1"
       id="perspective17" /><inkscape:perspective
       sodipodi:type="inkscape:persp3d"
       inkscape:vp_x="44.06818 : 315.96746 : 1"
       inkscape:vp_y="0 : 1000 : 0"
       inkscape:vp_z="480.74134 : 298.68846 : 1"
       inkscape:persp3d-origin="250 : 166.66667 : 1"
       id="perspective17-1" /><linearGradient
       inkscape:collect="always"
       xlink:href="#linearGradient1"
       id="linearGradient2"
       x1="228.99547"
       y1="245.65041"
       x2="488.93317"
       y2="444.86844"
       gradientUnits="userSpaceOnUse"
       gradientTransform="matrix(1.453851,0,0,1.453851,-126.26624,-120.33795)" /><linearGradient
       id="linearGradient1"
       inkscape:collect="always"><stop
         style="stop-color:#4a89d1;stop-opacity:1;"
         offset="0"
         id="stop1" /><stop
         style="stop-color:#d778f4;stop-opacity:1;"
         offset="1"
         id="stop2" /></linearGradient></defs><g
     inkscape:label="Layer 1"
     inkscape:groupmode="layer"
     id="layer1"><g
       inkscape:groupmode="layer"
       id="layer2"
       inkscape:label="Layer 2"
       transform="matrix(1.453851,0,0,1.453851,-127.05713,-120.71058)" /><path
       id="rect1-6"
       style="fill:url(#linearGradient2);fill-opacity:1;stroke-width:33.2;stroke-linejoin:bevel;paint-order:markers fill stroke"
       d="M 235.12682,15.091378 A 239.28223,239.28223 0 0 0 14.929561,224.94294 v 56.41993 A 239.28223,239.28223 0 0 0 214.10143,489.12068 h 76.18556 A 239.28223,239.28223 0 0 0 490.31043,269.45467 v -39.8672 A 239.28223,239.28223 0 0 0 276.203,15.091378 Z m -77.03514,38.4961 c 6.81706,0.41263 13.89281,2.46233 20.85937,5.58007 13.9331,6.23549 28.63716,16.99412 44.09961,31.4043 9.36613,8.72873 19.00128,18.963712 28.70703,30.238282 9.70514,-11.27374 19.33951,-21.508112 28.70508,-30.236332 15.46246,-14.41016 30.16652,-25.17076 44.0996,-31.40625 6.96656,-3.11774 14.04278,-5.1668 20.85938,-5.58007 6.81664,-0.41331 13.37364,0.80975 19.30859,4.23632 11.86995,6.85313 17.35737,20.27484 18.92383,35.45899 1.56648,15.184152 -0.4001,33.300512 -5.14843,53.896482 -2.87604,12.47478 -6.92334,25.93494 -11.83398,39.97657 14.61671,2.7681 28.29877,5.99332 40.54101,9.74023 20.21077,6.18578 36.87947,13.54153 49.24609,22.49023 12.36663,8.94868 21.24805,20.41095 21.24805,34.11719 0,13.70624 -8.88142,25.16656 -21.24805,34.11523 -12.36662,8.9487 -29.03532,16.30444 -49.24609,22.49024 -12.24224,3.74687 -25.9243,6.97404 -40.54101,9.74219 4.91064,14.04158 8.95794,27.50178 11.83398,39.97655 4.74833,20.59598 6.71297,38.71038 5.14647,53.89454 -1.56642,15.18416 -7.05193,28.60783 -18.92187,35.46093 -11.86994,6.85314 -26.23486,4.89175 -40.16797,-1.34375 -13.9331,-6.23545 -28.63716,-16.99802 -44.0996,-31.4082 -9.36574,-8.72835 -18.99976,-18.96233 -28.70508,-30.23633 -9.70594,11.27483 -19.34071,21.50939 -28.70703,30.23828 -15.46245,14.4102 -30.16651,25.16881 -44.09961,31.4043 -13.93309,6.23548 -28.29995,8.19686 -40.16993,1.34375 -11.86994,-6.85313 -17.35344,-20.27482 -18.91992,-35.45898 -1.56645,-15.18416 0.39816,-33.29662 5.14649,-53.89258 2.87618,-12.47538 6.923,-25.9362 11.83398,-39.97851 -14.616,-2.76808 -28.29732,-5.99548 -40.539066,-9.74219 -20.210768,-6.1858 -36.881413,-13.54154 -49.248043,-22.49024 -12.36661,-8.94867 -21.24804,-20.40899 -21.24804,-34.11523 0,-13.70624 8.88143,-25.16851 21.24804,-34.11719 12.36663,-8.9487 29.037275,-16.30445 49.248043,-22.49023 12.241746,-3.74675 25.923066,-6.9722 40.539066,-9.74023 -4.91098,-14.04235 -8.9578,-27.50315 -11.83398,-39.97852 -4.74833,-20.59596 -6.71296,-38.70842 -5.14649,-53.892582 1.56648,-15.18415 7.04998,-28.60589 18.91992,-35.45898 5.93498,-3.42657 12.49347,-4.65094 19.31056,-4.23828 z m -3.26368,20.76367 c -2.31011,0.11282 -4.16815,0.66807 -5.63281,1.51366 -3.90577,2.25503 -7.41477,7.95595 -8.61132,19.55469 -1.19659,11.598782 0.30933,27.928902 4.72461,47.080092 2.90174,12.58642 7.14514,26.49076 12.41991,41.16991 16.00347,-2.33649 32.91235,-4.146 50.69141,-5.23437 9.83059,-14.8504 19.85136,-28.58804 29.87499,-41.27734 -10.07585,-11.90868 -19.99538,-22.53693 -29.44531,-31.34375 -14.37777,-13.399322 -27.76702,-22.869692 -38.41016,-27.632822 -6.65192,-2.97691 -11.76114,-4.01819 -15.61132,-3.83007 z m 193.85547,0 c -3.85017,-0.18812 -8.95937,0.85508 -15.61133,3.83203 -10.64309,4.76309 -24.03041,14.23154 -38.4082,27.630862 -9.44939,8.80629 -19.36791,19.4336 -29.44336,31.3418 10.02388,12.68968 20.04418,26.42841 29.87499,41.27929 17.77835,1.08833 34.68655,2.89802 50.68946,5.23437 5.275,-14.6796 9.52008,-28.58343 12.42188,-41.16991 4.41524,-19.15119 5.91922,-35.47939 4.72265,-47.078132 -1.19659,-11.59875 -4.70946,-17.29969 -8.61523,-19.55469 -1.46467,-0.84563 -3.32079,-1.40276 -5.63086,-1.51562 z m -96.92773,79.408212 c -5.78663,7.46241 -11.57393,15.35983 -17.34376,23.62693 5.74011,-0.13709 11.49013,-0.26756 17.34571,-0.26756 5.85492,0 11.6043,0.13055 17.34374,0.26756 -5.77007,-8.26749 -11.55883,-16.16427 -17.34569,-23.62693 z m 0.001,44.19334 c -10.77355,0 -21.27356,0.32806 -31.61133,0.80469 -5.5809,8.71314 -11.1121,17.64198 -16.49804,26.9707 -5.38623,9.32922 -10.35382,18.58516 -15.10938,27.7754 4.75549,9.19007 9.72122,18.4462 15.10742,27.77539 5.38612,9.329 10.91894,18.25731 16.5,26.97071 10.33777,0.47675 20.83778,0.80468 31.61133,0.80468 10.77287,0 21.27221,-0.32799 31.60938,-0.80468 5.58065,-8.71284 11.11232,-17.64037 16.49804,-26.96876 5.38623,-9.32919 10.35382,-18.58712 15.10938,-27.77734 -4.75585,-9.19088 -9.72277,-18.44746 -15.10938,-27.77735 -5.3858,-9.3285 -10.91929,-18.25595 -16.5,-26.96875 -10.33652,-0.47649 -20.83523,-0.80469 -31.60742,-0.80469 z m -57.24804,2.47071 c -10.0453,0.86308 -19.77808,1.927 -29.13477,3.20703 3.56945,8.74295 7.5142,17.7051 11.78906,26.83594 2.75131,-5.03956 5.51563,-10.08329 8.44335,-15.1543 2.9279,-5.07122 5.91348,-9.98597 8.90236,-14.88867 z m 114.49414,0 c 2.98845,4.90203 5.97489,9.81618 8.90233,14.88672 2.92818,5.07173 5.6917,10.116 8.44337,15.15625 4.27517,-9.13151 8.21934,-18.09232 11.78906,-26.83594 -9.35669,-1.27998 -19.08948,-2.34398 -29.13476,-3.20703 z m -164.73829,6.56445 c -15.35072,2.77113 -29.5139,6.04785 -41.86523,9.82812 -18.79304,5.75187 -33.686261,12.61356 -43.132809,19.44923 -9.4465,6.83563 -12.62695,12.72828 -12.62695,17.23828 0,4.50998 3.18045,10.40263 12.62695,17.23828 9.446548,6.83563 24.339769,13.69348 43.132809,19.4453 12.35127,3.78029 26.5146,7.05661 41.86523,9.82814 5.97785,-15.02632 12.86627,-30.57196 20.81246,-46.51172 -7.94656,-15.94053 -14.83442,-31.48864 -20.81251,-46.51563 z m 214.98243,0 c -5.9781,15.02723 -12.86584,30.57481 -20.8125,46.51563 7.9465,15.94053 14.83447,31.48671 20.8125,46.51367 15.35152,-2.77161 29.51531,-6.04961 41.86719,-9.83009 18.793,-5.75182 33.68629,-12.60967 43.13281,-19.4453 9.4465,-6.83565 12.62695,-12.7283 12.62695,-17.23828 0,-4.51 -3.18045,-10.40265 -12.62695,-17.23828 -9.44652,-6.83567 -24.33981,-13.69736 -43.13281,-19.44923 -12.35185,-3.78042 -26.51573,-7.05692 -41.86719,-9.82812 z m -107.49029,20.84571 c 13.69259,0 26.29102,11.02522 26.29102,25.66992 0,14.64472 -12.59843,25.66992 -26.29102,25.66992 -13.69257,0 -26.29102,-11.0252 -26.29102,-25.66992 0,-14.6447 12.59845,-25.66992 26.29102,-25.66992 z m 74.5918,48.70507 c -2.75167,5.04026 -5.51519,10.08452 -8.44337,15.15625 -2.92718,5.0701 -5.9122,9.98511 -8.90039,14.88672 10.04463,-0.86325 19.77674,-1.92686 29.13282,-3.20703 -3.56953,-8.74307 -7.51417,-17.70498 -11.78906,-26.83594 z m -149.1836,0.001 c -4.27463,9.13034 -8.21968,18.09141 -11.78906,26.83397 9.35611,1.28017 19.08822,2.34378 29.13282,3.20704 -2.98865,-4.90236 -5.97467,-9.81783 -8.90235,-14.88867 -2.92727,-5.07025 -5.69049,-10.1136 -8.44141,-15.15234 z M 157.7274,323.3365 c -5.27521,14.68001 -9.52001,28.58508 -12.42188,41.17188 -4.41523,19.1512 -5.92314,35.47744 -4.72656,47.07618 1.19658,11.59875 4.71142,17.29967 8.61718,19.55468 3.90579,2.25497 10.59908,2.44668 21.24219,-2.3164 10.64312,-4.76312 24.03044,-14.22958 38.40821,-27.62891 9.45002,-8.80691 19.3711,-19.43456 29.44726,-31.34375 -10.0241,-12.68978 -20.04395,-26.42821 -29.875,-41.2793 -17.77905,-1.08838 -34.68794,-2.89788 -50.6914,-5.23438 z m 188.05664,0 c -16.00292,2.33636 -32.91112,4.14605 -50.68946,5.23438 -9.83106,14.85124 -19.85282,28.58738 -29.87694,41.27735 10.07606,11.90903 19.99535,22.53689 29.44531,31.34375 14.37777,13.39931 27.76705,22.86582 38.41014,27.6289 10.64314,4.76312 17.33446,4.57333 21.24024,2.31836 3.90579,-2.25501 7.41866,-7.95593 8.61523,-19.55468 1.19659,-11.59874 -0.30933,-27.92697 -4.72461,-47.07813 -2.90172,-12.58626 -7.14508,-26.49065 -12.41991,-41.16993 z m -111.37305,6.28321 c 5.76986,8.26713 11.55904,16.16449 17.3457,23.62695 5.78646,-7.46228 11.57412,-15.36007 17.34375,-23.62695 -5.73944,0.13709 -11.48883,0.26758 -17.34375,0.26758 -5.85557,0 -11.6056,-0.13056 -17.3457,-0.26758 z" /></g></svg>
