<?xml version="1.0" encoding="UTF-8" standalone="no"?>
<!-- Created with Inkscape (http://www.inkscape.org/) -->

<svg
   width="500"
   height="500"
   viewBox="0 0 500 500"
   version="1.1"
   id="svg1"
   inkscape:version="1.3.2 (091e20ef0f, 2023-11-25, custom)"
   sodipodi:docname="index.sass.svg"
   xml:space="preserve"
   xmlns:inkscape="http://www.inkscape.org/namespaces/inkscape"
   xmlns:sodipodi="http://sodipodi.sourceforge.net/DTD/sodipodi-0.dtd"
   xmlns="http://www.w3.org/2000/svg"
   xmlns:svg="http://www.w3.org/2000/svg"><sodipodi:namedview
     id="namedview1"
     pagecolor="#505050"
     bordercolor="#eeeeee"
     borderopacity="1"
     inkscape:showpageshadow="0"
     inkscape:pageopacity="0"
     inkscape:pagecheckerboard="0"
     inkscape:deskcolor="#505050"
     inkscape:document-units="px"
     inkscape:zoom="0.96390292"
     inkscape:cx="214.75192"
     inkscape:cy="265.06819"
     inkscape:window-width="1362"
     inkscape:window-height="744"
     inkscape:window-x="0"
     inkscape:window-y="20"
     inkscape:window-maximized="0"
     inkscape:current-layer="g41"
     showguides="true"><sodipodi:guide
       position="250.02518,350.60736"
       orientation="-0.99997769,0.0066803918"
       id="guide30"
       inkscape:locked="false" /><sodipodi:guide
       position="66.396728,247.89992"
       orientation="0,-1"
       id="guide53"
       inkscape:locked="false" /></sodipodi:namedview><defs
     id="defs1"><inkscape:path-effect
       effect="mirror_symmetry"
       start_point="250.53353,365.29226"
       end_point="250.53353,435.58406"
       center_point="250.53353,400.43816"
       id="path-effect40"
       is_visible="true"
       lpeversion="1.2"
       lpesatellites=""
       mode="free"
       discard_orig_path="false"
       fuse_paths="false"
       oposite_fuse="false"
       split_items="false"
       split_open="false"
       link_styles="false" /><inkscape:path-effect
       effect="mirror_symmetry"
       start_point="256.50891,-11.403776"
       end_point="256.50891,155.88671"
       center_point="256.50891,72.241467"
       id="path-effect38"
       is_visible="true"
       lpeversion="1.2"
       lpesatellites=""
       mode="free"
       discard_orig_path="false"
       fuse_paths="true"
       oposite_fuse="false"
       split_items="false"
       split_open="false"
       link_styles="false" /><inkscape:path-effect
       effect="mirror_symmetry"
       start_point="253.07453,119.14602"
       end_point="253.07453,327.05058"
       center_point="253.07453,223.0983"
       id="path-effect37"
       is_visible="true"
       lpeversion="1.2"
       lpesatellites=""
       mode="free"
       discard_orig_path="false"
       fuse_paths="true"
       oposite_fuse="false"
       split_items="false"
       split_open="false"
       link_styles="false" /><inkscape:path-effect
       effect="mirror_symmetry"
       start_point="251.98266,240.43217"
       end_point="251.98266,423.728"
       center_point="251.98266,332.08008"
       id="path-effect35"
       is_visible="true"
       lpeversion="1.2"
       lpesatellites=""
       mode="free"
       discard_orig_path="false"
       fuse_paths="true"
       oposite_fuse="false"
       split_items="false"
       split_open="false"
       link_styles="false" /><inkscape:path-effect
       effect="mirror_symmetry"
       start_point="251.57298,111.70158"
       end_point="251.57298,414.326"
       center_point="251.57298,263.01379"
       id="path-effect17"
       is_visible="true"
       lpeversion="1.2"
       lpesatellites=""
       mode="free"
       discard_orig_path="false"
       fuse_paths="true"
       oposite_fuse="false"
       split_items="false"
       split_open="false"
       link_styles="false" /><linearGradient
       id="swatch61"
       inkscape:swatch="solid"><stop
         style="stop-color:#5090d0;stop-opacity:1;"
         offset="0"
         id="stop61" /></linearGradient><linearGradient
       id="swatch30"
       inkscape:swatch="solid"><stop
         style="stop-color:#f9f9f9;stop-opacity:1;"
         offset="0"
         id="stop30" /></linearGradient><inkscape:perspective
       sodipodi:type="inkscape:persp3d"
       inkscape:vp_x="44.06818 : 315.96746 : 1"
       inkscape:vp_y="0 : 1000 : 0"
       inkscape:vp_z="480.74134 : 298.68846 : 1"
       inkscape:persp3d-origin="250 : 166.66667 : 1"
       id="perspective17" /></defs><g
     id="g41"
     transform="matrix(0.9760829,0,0,0.9760829,0.20497736,0.95540929)"><path
       id="rect1"
       style="fill:#cc6699"
       d="M 75.000937 0.00033927958 C 33.450978 0.00033927958 0.00010323406 -33.450536 0.00010323406 -75.000494 L 0.00010323406 -437.00028 C 0.00010323406 -478.55023 33.450978 -511.99911 75.000937 -511.99911 L 437.00072 -511.99911 C 478.55068 -511.99911 511.99955 -478.55023 511.99955 -437.00028 L 511.99955 -75.000494 C 511.99955 -33.450536 478.55068 0.00033927958 437.00072 0.00033927958 L 75.000937 0.00033927958 z M 350.75636 -28.571693 C 415.65496 -29.070194 468.07712 -53.381185 466.17305 -102.32992 C 456.47955 -237.09784 232.1442 -266.34102 204.44851 -202.77124 C 198.90938 -188.78589 208.60233 -192.59916 211.37191 -197.68475 C 263.99372 -243.45499 413.54995 -190.05681 430.16736 -111.23029 C 441.24564 -59.103064 354.00528 -36.216741 230.75943 -93.429545 C 107.51357 -150.64235 100.58961 -196.41332 99.204824 -214.21286 C 96.435246 -262.52589 158.75062 -282.8676 204.44851 -327.36643 C 283.38125 -308.29549 347.08056 -333.72439 347.08056 -388.39441 C 347.08056 -410.00813 326.3091 -422.72173 316.6156 -425.26451 C 306.92211 -427.8073 297.22893 -425.2656 312.46156 -420.18002 C 327.6942 -415.09443 349.85116 -383.30887 306.92284 -355.33817 C 295.84456 -347.7098 258.45428 -334.99602 215.52595 -345.16718 C 234.91293 -397.2944 204.44881 -446.87833 173.98355 -464.67787 C 143.51827 -482.47741 71.509431 -501.54899 68.739862 -440.52201 C 67.355077 -396.02316 128.28544 -361.69518 176.75291 -338.81005 C 139.36373 -312.11074 56.276369 -271.42579 47.967661 -220.56999 C 39.658952 -169.71416 125.51569 -84.530624 258.45503 -42.57457 C 289.17994 -33.039103 321.257 -28.345101 350.75636 -28.571693 z M 189.21503 -356.6088 C 131.05408 -383.3081 111.66726 -410.00792 107.5129 -431.62163 C 106.12813 -439.25001 104.74291 -459.59155 139.36255 -449.42038 C 168.44302 -441.792 205.83245 -404.92183 189.21503 -356.6088 z "
       transform="scale(1,-1)" /></g></svg>
