<?xml version="1.0" encoding="UTF-8" standalone="no"?>
<!-- Created with Inkscape (http://www.inkscape.org/) -->

<svg
   width="500"
   height="500"
   viewBox="0 0 500 500"
   version="1.1"
   id="svg1"
   inkscape:version="1.3.2 (091e20ef0f, 2023-11-25, custom)"
   sodipodi:docname="index.tsx.svg"
   xml:space="preserve"
   xmlns:inkscape="http://www.inkscape.org/namespaces/inkscape"
   xmlns:sodipodi="http://sodipodi.sourceforge.net/DTD/sodipodi-0.dtd"
   xmlns="http://www.w3.org/2000/svg"
   xmlns:svg="http://www.w3.org/2000/svg"><sodipodi:namedview
     id="namedview1"
     pagecolor="#505050"
     bordercolor="#eeeeee"
     borderopacity="1"
     inkscape:showpageshadow="0"
     inkscape:pageopacity="0"
     inkscape:pagecheckerboard="0"
     inkscape:deskcolor="#505050"
     inkscape:document-units="px"
     inkscape:zoom="0.68158229"
     inkscape:cx="184.86396"
     inkscape:cy="292.70127"
     inkscape:window-width="1362"
     inkscape:window-height="744"
     inkscape:window-x="0"
     inkscape:window-y="20"
     inkscape:window-maximized="1"
     inkscape:current-layer="layer1"
     showguides="true"><sodipodi:guide
       position="250.02518,350.60736"
       orientation="-0.99997769,0.0066803918"
       id="guide30"
       inkscape:locked="false" /><sodipodi:guide
       position="66.396728,247.89992"
       orientation="0,-1"
       id="guide53"
       inkscape:locked="false" /></sodipodi:namedview><defs
     id="defs1"><linearGradient
       id="swatch61"
       inkscape:swatch="solid"><stop
         style="stop-color:#5090d0;stop-opacity:1;"
         offset="0"
         id="stop61" /></linearGradient><linearGradient
       id="swatch30"
       inkscape:swatch="solid"><stop
         style="stop-color:#f9f9f9;stop-opacity:1;"
         offset="0"
         id="stop30" /></linearGradient><inkscape:perspective
       sodipodi:type="inkscape:persp3d"
       inkscape:vp_x="44.06818 : 315.96746 : 1"
       inkscape:vp_y="0 : 1000 : 0"
       inkscape:vp_z="480.74134 : 298.68846 : 1"
       inkscape:persp3d-origin="250 : 166.66667 : 1"
       id="perspective17" /><inkscape:perspective
       sodipodi:type="inkscape:persp3d"
       inkscape:vp_x="44.06818 : 315.96746 : 1"
       inkscape:vp_y="0 : 1000 : 0"
       inkscape:vp_z="480.74134 : 298.68846 : 1"
       inkscape:persp3d-origin="250 : 166.66667 : 1"
       id="perspective17-1" /></defs><g
     inkscape:label="Layer 1"
     inkscape:groupmode="layer"
     id="layer1"><path
       id="rect1"
       style="fill:#3178c6;fill-opacity:1;stroke-width:22.8359;stroke-linejoin:bevel;paint-order:markers fill stroke"
       d="M 160.05881 93.152139 C 125.18939 93.152139 97.118482 121.22305 97.118482 156.09247 L 97.118482 356.26262 C 97.118482 391.13204 125.18939 419.20295 160.05881 419.20295 L 361.15726 419.20295 C 396.02668 419.20295 424.09894 391.13204 424.09894 356.26262 L 424.09894 156.09247 C 424.09894 121.22305 396.02668 93.152139 361.15726 93.152139 L 160.05881 93.152139 z M 195.58945 119.63085 C 200.27843 119.91468 205.14532 121.32451 209.93712 123.46898 C 219.52071 127.75793 229.63456 135.15801 240.27008 145.06975 C 246.71238 151.07363 253.33969 158.11353 260.01559 165.8685 C 266.69107 158.1141 273.31785 151.07461 279.75976 145.07109 C 290.39529 135.15936 300.50914 127.75793 310.09272 123.46898 C 314.88452 121.32451 319.75173 119.91512 324.44039 119.63085 C 329.12907 119.34656 333.63915 120.18782 337.72139 122.54471 C 345.88589 127.25849 349.66028 136.49031 350.73774 146.93441 C 351.81521 157.37851 350.46255 169.83944 347.1965 184.00594 C 345.21828 192.58646 342.43444 201.84473 339.05675 211.50296 C 349.11055 213.40695 358.52144 215.62534 366.94201 218.20257 C 380.84357 222.45733 392.30875 227.51682 400.81487 233.67199 C 409.321 239.82715 415.42988 247.71121 415.42988 257.13876 C 415.42988 266.56631 409.321 274.44902 400.81487 280.60418 C 392.30875 286.75935 380.84357 291.81884 366.94201 296.07361 C 358.52144 298.65082 349.11055 300.87055 339.05675 302.77456 C 342.43444 312.43277 345.21828 321.69106 347.1965 330.27157 C 350.46255 344.43808 351.81387 356.89766 350.73639 367.34176 C 349.65895 377.78587 345.88588 387.01903 337.72139 391.7328 C 329.5569 396.44658 319.67632 395.09748 310.09272 390.80853 C 300.50913 386.5196 290.39528 379.11682 279.75976 369.20508 C 273.31773 363.20146 266.6912 356.16225 260.01559 348.40767 C 253.33956 356.16282 246.71251 363.20243 240.27008 369.20642 C 229.63456 379.11817 219.52071 386.51824 209.93712 390.80719 C 200.35353 395.09613 190.47161 396.44523 182.3071 391.73146 C 174.14261 387.01768 170.37091 377.78587 169.29344 367.34176 C 168.21599 356.89766 169.5673 344.43942 172.83334 330.27292 C 174.81166 321.69199 177.59517 312.43327 180.97309 302.77456 C 170.91978 300.8706 161.50939 298.65071 153.08917 296.07361 C 139.18761 291.81884 127.7211 286.75935 119.21497 280.60418 C 110.70885 274.44902 104.59996 266.56631 104.59996 257.13876 C 104.59996 247.71121 110.70885 239.82715 119.21497 233.67199 C 127.7211 227.51682 139.18761 222.45733 153.08917 218.20257 C 161.50939 215.62545 170.91978 213.4069 180.97309 211.50296 C 177.59517 201.84423 174.81166 192.58552 172.83334 184.0046 C 169.5673 169.8381 168.21598 157.37986 169.29344 146.93575 C 170.37091 136.49165 174.14261 127.25982 182.3071 122.54606 C 186.38935 120.18917 190.90046 119.34701 195.58945 119.63085 z M 193.3446 133.91269 C 191.75564 133.99032 190.47763 134.3722 189.47019 134.95383 C 186.78369 136.5049 184.37011 140.42615 183.54708 148.4041 C 182.72403 156.38207 183.75985 167.61438 186.7968 180.78712 C 188.79271 189.44443 191.71143 199.00821 195.33957 209.10496 C 206.34722 207.49785 217.97761 206.25322 230.20656 205.50461 C 236.96833 195.29007 243.86088 185.84095 250.75543 177.11288 C 243.82496 168.92174 237.00205 161.61135 230.50211 155.55376 C 220.61266 146.33732 211.40316 139.82334 204.08251 136.54712 C 199.50712 134.49951 195.99286 133.7833 193.3446 133.91269 z M 326.6839 133.91269 C 324.03564 133.7833 320.52139 134.50084 315.94598 136.54847 C 308.62535 139.82467 299.41719 146.33732 289.52773 155.55376 C 283.02817 161.61099 276.20594 168.92074 269.27575 177.11154 C 276.17047 185.83987 283.0627 195.28974 289.82462 205.50461 C 302.05308 206.25319 313.683 207.49795 324.69027 209.10496 C 328.31857 199.0079 331.23845 189.44447 333.23439 180.78712 C 336.27133 167.61438 337.3058 156.3834 336.48276 148.40545 C 335.65971 140.42749 333.24346 136.50623 330.55696 134.95518 C 329.54952 134.37353 328.27284 133.99032 326.6839 133.91269 z M 260.01425 188.53191 C 256.03404 193.66478 252.05337 199.09683 248.08472 204.78319 C 252.03293 204.68891 255.98796 204.59915 260.01559 204.59915 C 264.04277 204.59915 267.99735 204.68893 271.94511 204.78319 C 267.97628 199.09656 263.99463 193.66495 260.01425 188.53191 z M 260.01559 218.92935 C 252.60523 218.92935 245.38304 219.155 238.27242 219.48284 C 234.43371 225.47599 230.62921 231.61748 226.9246 238.03405 C 223.2198 244.45095 219.80295 250.81745 216.53194 257.13876 C 219.8029 263.45996 223.21846 269.82657 226.92325 276.24346 C 230.62798 282.66022 234.4336 288.80136 238.27242 294.79468 C 245.38304 295.12261 252.60523 295.34816 260.01559 295.34816 C 267.42549 295.34816 274.64722 295.12257 281.75742 294.79468 C 285.59596 288.80174 289.40078 282.66113 293.10524 276.2448 C 296.81004 269.82791 300.22689 263.46006 303.4979 257.13876 C 300.22669 250.81701 296.8103 244.45007 293.10524 238.03271 C 289.40072 231.61629 285.59464 225.47576 281.75607 219.48284 C 274.64631 219.15509 267.42502 218.92935 260.01559 218.92935 z M 220.63876 220.62877 C 213.72931 221.22242 207.03485 221.95422 200.59904 222.83466 C 203.05421 228.84832 205.76752 235.01272 208.70789 241.29318 C 210.60032 237.82683 212.50169 234.35761 214.51547 230.86962 C 216.52936 227.38148 218.58293 224.00099 220.63876 220.62877 z M 299.39108 220.62877 C 301.44662 224.00053 303.50077 227.38062 305.51436 230.86828 C 307.52844 234.35676 309.42927 237.82635 311.32195 241.29318 C 314.26254 235.01226 316.97544 228.84878 319.4308 222.83466 C 312.99499 221.95425 306.30052 221.2224 299.39108 220.62877 z M 186.07941 225.14399 C 175.52074 227.05005 165.77892 229.30386 157.28332 231.90405 C 144.35692 235.86035 134.11295 240.58001 127.61534 245.28178 C 121.11776 249.98353 118.93017 254.03665 118.93017 257.13876 C 118.93017 260.24086 121.11776 264.29398 127.61534 268.99574 C 134.11295 273.69749 144.35692 278.41449 157.28332 282.37077 C 165.77888 284.97096 175.5208 287.2245 186.07941 289.13084 C 190.19118 278.7953 194.92922 268.10259 200.39484 257.13876 C 194.92896 246.1744 190.19131 235.47999 186.07941 225.14399 z M 333.95043 225.14399 C 329.83852 235.48015 325.10095 246.1742 319.635 257.13876 C 325.10084 268.10312 329.83857 278.7962 333.95043 289.13218 C 344.50965 287.22579 354.25189 284.97109 362.74787 282.37077 C 375.67425 278.41449 385.91825 273.69749 392.41584 268.99574 C 398.91342 264.29398 401.10102 260.24086 401.10102 257.13876 C 401.10102 254.03665 398.91342 249.98353 392.41584 245.28178 C 385.91825 240.58001 375.67425 235.86035 362.74787 231.90405 C 354.25191 229.30376 344.50961 227.0501 333.95043 225.14399 z M 260.01559 239.48226 C 269.43375 239.48226 278.0993 247.06571 278.0993 257.13876 C 278.0993 267.21182 269.43375 274.79526 260.01559 274.79526 C 250.59744 274.79526 241.93188 267.21182 241.93188 257.13876 C 241.93188 247.06571 250.59744 239.48226 260.01559 239.48226 z M 311.32195 272.98299 C 309.42927 276.44982 307.52844 279.91941 305.51436 283.40789 C 303.50095 286.89525 301.44778 290.27593 299.39242 293.6474 C 306.3014 293.05363 312.99541 292.32205 319.4308 291.44151 C 316.97557 285.42777 314.26235 279.26352 311.32195 272.98299 z M 208.70923 272.98434 C 205.76901 279.26446 203.0555 285.42812 200.60038 291.44151 C 207.03578 292.32205 213.72979 293.05363 220.63876 293.6474 C 218.58308 290.27542 216.52921 286.89443 214.51547 283.40655 C 212.502 279.91909 210.60139 276.45014 208.70923 272.98434 z M 195.33957 305.17255 C 191.71113 315.26989 188.79144 324.83417 186.79545 333.49174 C 183.75852 346.66449 182.72135 357.89412 183.54439 365.87207 C 184.36743 373.85003 186.78503 377.77128 189.47153 379.32234 C 192.15804 380.87338 196.76187 381.00524 204.08251 377.72905 C 211.40315 374.45284 220.61132 367.94155 230.50077 358.7251 C 237.00077 352.66745 243.82475 345.35747 250.75543 337.16598 C 243.86056 328.43758 236.96864 318.98792 230.20656 308.77291 C 217.97761 308.02429 206.34722 306.77966 195.33957 305.17255 z M 324.69027 305.17255 C 313.683 306.77957 302.05308 308.02432 289.82462 308.77291 C 283.06253 318.98802 276.1693 328.43612 269.27441 337.16464 C 276.20502 345.35602 283.02778 352.66615 289.52773 358.72376 C 299.41718 367.9402 308.62669 374.45151 315.94732 377.7277 C 323.26797 381.00391 327.87045 380.87338 330.55696 379.32234 C 333.24347 377.77128 335.65972 373.85003 336.48276 365.87207 C 337.30581 357.89412 336.26999 346.66313 333.23304 333.4904 C 331.23715 324.83321 328.31846 315.26939 324.69027 305.17255 z M 248.08472 309.49432 C 252.0534 315.1807 256.03536 320.61272 260.01559 325.74561 C 263.99568 320.61284 267.97659 315.18053 271.94511 309.49432 C 267.99735 309.58859 264.04277 309.67837 260.01559 309.67837 C 255.98796 309.67837 252.03293 309.58861 248.08472 309.49432 z "
       transform="matrix(1.453851,0,0,1.453851,-127.05713,-120.71058)" /><g
       inkscape:groupmode="layer"
       id="layer2"
       inkscape:label="Layer 2"
       transform="matrix(1.453851,0,0,1.453851,-127.05713,-120.71058)" /></g></svg>
