<?xml version="1.0" encoding="UTF-8" standalone="no"?>
<!-- Created with Inkscape (http://www.inkscape.org/) -->

<svg
   width="500"
   height="500"
   viewBox="0 0 500 500"
   version="1.1"
   id="svg1"
   inkscape:version="1.3.2 (091e20ef0f, 2023-11-25, custom)"
   sodipodi:docname="index.css.svg"
   xml:space="preserve"
   xmlns:inkscape="http://www.inkscape.org/namespaces/inkscape"
   xmlns:sodipodi="http://sodipodi.sourceforge.net/DTD/sodipodi-0.dtd"
   xmlns:xlink="http://www.w3.org/1999/xlink"
   xmlns="http://www.w3.org/2000/svg"
   xmlns:svg="http://www.w3.org/2000/svg"><sodipodi:namedview
     id="namedview1"
     pagecolor="#505050"
     bordercolor="#eeeeee"
     borderopacity="1"
     inkscape:showpageshadow="0"
     inkscape:pageopacity="0"
     inkscape:pagecheckerboard="0"
     inkscape:deskcolor="#505050"
     inkscape:document-units="px"
     inkscape:zoom="1"
     inkscape:cx="301"
     inkscape:cy="247.5"
     inkscape:window-width="1352"
     inkscape:window-height="734"
     inkscape:window-x="4"
     inkscape:window-y="24"
     inkscape:window-maximized="1"
     inkscape:current-layer="svg1"
     showguides="true"><sodipodi:guide
       position="250.02518,350.60736"
       orientation="-0.99997769,0.0066803918"
       id="guide30"
       inkscape:locked="false" /><sodipodi:guide
       position="66.396728,247.89992"
       orientation="0,-1"
       id="guide53"
       inkscape:locked="false" /><sodipodi:guide
       position="221.35979,127.71308"
       orientation="0,-1"
       id="guide5"
       inkscape:locked="false" /><sodipodi:guide
       position="96.959247,117.65127"
       orientation="1,0"
       id="guide6"
       inkscape:locked="false" /><sodipodi:guide
       position="400.64293,118.56598"
       orientation="1,0"
       id="guide7"
       inkscape:locked="false" /></sodipodi:namedview><defs
     id="defs1"><linearGradient
       id="swatch61"
       inkscape:swatch="solid"><stop
         style="stop-color:#5090d0;stop-opacity:1;"
         offset="0"
         id="stop61" /></linearGradient><linearGradient
       id="swatch30"
       inkscape:swatch="solid"><stop
         style="stop-color:#f9f9f9;stop-opacity:1;"
         offset="0"
         id="stop30" /></linearGradient><inkscape:perspective
       sodipodi:type="inkscape:persp3d"
       inkscape:vp_x="44.06818 : 315.96746 : 1"
       inkscape:vp_y="0 : 1000 : 0"
       inkscape:vp_z="480.74134 : 298.68846 : 1"
       inkscape:persp3d-origin="250 : 166.66667 : 1"
       id="perspective17" /><inkscape:perspective
       sodipodi:type="inkscape:persp3d"
       inkscape:vp_x="44.06818 : 315.96746 : 1"
       inkscape:vp_y="0 : 1000 : 0"
       inkscape:vp_z="480.74134 : 298.68846 : 1"
       inkscape:persp3d-origin="250 : 166.66667 : 1"
       id="perspective17-2" /><inkscape:perspective
       sodipodi:type="inkscape:persp3d"
       inkscape:vp_x="44.06818 : 315.96746 : 1"
       inkscape:vp_y="0 : 1000 : 0"
       inkscape:vp_z="480.74134 : 298.68846 : 1"
       inkscape:persp3d-origin="250 : 166.66667 : 1"
       id="perspective17-0" /><inkscape:perspective
       sodipodi:type="inkscape:persp3d"
       inkscape:vp_x="44.06818 : 315.96746 : 1"
       inkscape:vp_y="0 : 1000 : 0"
       inkscape:vp_z="480.74134 : 298.68846 : 1"
       inkscape:persp3d-origin="250 : 166.66667 : 1"
       id="perspective17-6" /><inkscape:perspective
       sodipodi:type="inkscape:persp3d"
       inkscape:vp_x="44.06818 : 315.96746 : 1"
       inkscape:vp_y="0 : 1000 : 0"
       inkscape:vp_z="480.74134 : 298.68846 : 1"
       inkscape:persp3d-origin="250 : 166.66667 : 1"
       id="perspective17-2-1" /><inkscape:perspective
       sodipodi:type="inkscape:persp3d"
       inkscape:vp_x="44.06818 : 315.96746 : 1"
       inkscape:vp_y="0 : 1000 : 0"
       inkscape:vp_z="480.74134 : 298.68846 : 1"
       inkscape:persp3d-origin="250 : 166.66667 : 1"
       id="perspective17-0-2" /><linearGradient
       id="linearGradient3"><stop
         style="stop-color:#0040a2;stop-opacity:1;"
         offset="0"
         id="stop24" /><stop
         style="stop-color:#983ba9;stop-opacity:1;"
         offset="0.54552758"
         id="stop25" /><stop
         style="stop-color:#00339b;stop-opacity:1;"
         offset="1"
         id="stop26" /></linearGradient><linearGradient
       id="linearGradient13"><stop
         style="stop-color:#287ef1;stop-opacity:1;"
         offset="0.11153401"
         id="stop21" /><stop
         style="stop-color:#8e6ed4;stop-opacity:1;"
         offset="0.49253941"
         id="stop22" /><stop
         style="stop-color:#4f93ed;stop-opacity:1;"
         offset="0.84890717"
         id="stop23" /></linearGradient><linearGradient
       id="linearGradient13-1"><stop
         style="stop-color:#020810;stop-opacity:1"
         offset="0"
         id="stop14" /><stop
         style="stop-color:#3c1d79;stop-opacity:1;"
         offset="0.36572"
         id="stop16" /><stop
         style="stop-color:#0e2644;stop-opacity:1;"
         offset="1"
         id="stop15" /></linearGradient><linearGradient
       id="linearGradient3-2"><stop
         style="stop-color:#40aefc;stop-opacity:1;"
         offset="0"
         id="stop6" /><stop
         style="stop-color:#bf72cd;stop-opacity:1;"
         offset="1"
         id="stop7" /></linearGradient><linearGradient
       id="linearGradient3-1"><stop
         style="stop-color:#47002f;stop-opacity:0;"
         offset="0.22854091"
         id="stop3" /><stop
         style="stop-color:#ffffff;stop-opacity:1;"
         offset="0.24063902"
         id="stop5" /><stop
         style="stop-color:#e8e9ec;stop-opacity:1;"
         offset="0.43659127"
         id="stop9" /><stop
         style="stop-color:#000f2e;stop-opacity:0;"
         offset="0.45198545"
         id="stop4" /><stop
         style="stop-color:#000f2e;stop-opacity:0;"
         offset="0.82458997"
         id="stop10" /><stop
         style="stop-color:#ffffff;stop-opacity:1;"
         offset="0.83724171"
         id="stop11" /><stop
         style="stop-color:#ffffff;stop-opacity:1;"
         offset="0.93123353"
         id="stop12" /><stop
         style="stop-color:#ffffff;stop-opacity:0;"
         offset="0.94520909"
         id="stop13" /></linearGradient><inkscape:perspective
       sodipodi:type="inkscape:persp3d"
       inkscape:vp_x="44.06818 : 315.96746 : 1"
       inkscape:vp_y="0 : 1000 : 0"
       inkscape:vp_z="480.74134 : 298.68846 : 1"
       inkscape:persp3d-origin="250 : 166.66667 : 1"
       id="perspective17-5" /><inkscape:perspective
       sodipodi:type="inkscape:persp3d"
       inkscape:vp_x="44.06818 : 315.96746 : 1"
       inkscape:vp_y="0 : 1000 : 0"
       inkscape:vp_z="480.74134 : 298.68846 : 1"
       inkscape:persp3d-origin="250 : 166.66667 : 1"
       id="perspective17-0-0" /><inkscape:perspective
       sodipodi:type="inkscape:persp3d"
       inkscape:vp_x="44.06818 : 315.96746 : 1"
       inkscape:vp_y="0 : 1000 : 0"
       inkscape:vp_z="480.74134 : 298.68846 : 1"
       inkscape:persp3d-origin="250 : 166.66667 : 1"
       id="perspective17-06" /><inkscape:perspective
       sodipodi:type="inkscape:persp3d"
       inkscape:vp_x="44.06818 : 315.96746 : 1"
       inkscape:vp_y="0 : 1000 : 0"
       inkscape:vp_z="480.74134 : 298.68846 : 1"
       inkscape:persp3d-origin="250 : 166.66667 : 1"
       id="perspective17-8" /><inkscape:perspective
       sodipodi:type="inkscape:persp3d"
       inkscape:vp_x="44.06818 : 315.96746 : 1"
       inkscape:vp_y="0 : 1000 : 0"
       inkscape:vp_z="480.74134 : 298.68846 : 1"
       inkscape:persp3d-origin="250 : 166.66667 : 1"
       id="perspective17-2-3" /><inkscape:perspective
       sodipodi:type="inkscape:persp3d"
       inkscape:vp_x="44.06818 : 315.96746 : 1"
       inkscape:vp_y="0 : 1000 : 0"
       inkscape:vp_z="480.74134 : 298.68846 : 1"
       inkscape:persp3d-origin="250 : 166.66667 : 1"
       id="perspective17-20" /><inkscape:perspective
       sodipodi:type="inkscape:persp3d"
       inkscape:vp_x="44.06818 : 315.96746 : 1"
       inkscape:vp_y="0 : 1000 : 0"
       inkscape:vp_z="480.74134 : 298.68846 : 1"
       inkscape:persp3d-origin="250 : 166.66667 : 1"
       id="perspective17-29" /><clipPath
       id="clip0"><rect
         width="24"
         height="24"
         fill="white"
         id="rect1" /></clipPath><inkscape:perspective
       sodipodi:type="inkscape:persp3d"
       inkscape:vp_x="44.06818 : 315.96746 : 1"
       inkscape:vp_y="0 : 1000 : 0"
       inkscape:vp_z="480.74134 : 298.68846 : 1"
       inkscape:persp3d-origin="250 : 166.66667 : 1"
       id="perspective17-3" /><inkscape:perspective
       sodipodi:type="inkscape:persp3d"
       inkscape:vp_x="44.06818 : 315.96746 : 1"
       inkscape:vp_y="0 : 1000 : 0"
       inkscape:vp_z="480.74134 : 298.68846 : 1"
       inkscape:persp3d-origin="250 : 166.66667 : 1"
       id="perspective17-38" /><linearGradient
       inkscape:collect="always"
       xlink:href="#linearGradient3-2"
       id="linearGradient19"
       x1="65.219154"
       y1="375.67218"
       x2="488.64505"
       y2="94.862564"
       gradientUnits="userSpaceOnUse"
       gradientTransform="matrix(1.3437259,0,0,1.3437259,-88.681728,-87.521713)" /></defs><path
     id="rect1-6"
     style="opacity:1;fill:url(#linearGradient19);fill-opacity:1;stroke-width:35.869;stroke-linejoin:bevel;paint-order:markers fill stroke"
     d="M 149.24414 37.382812 C 141.87903 36.936978 134.79297 38.256961 128.38086 41.958984 C 115.55664 49.363067 109.63189 63.864683 107.93945 80.269531 C 106.24707 96.674407 108.36799 116.24438 113.49805 138.49609 C 116.60546 151.9744 120.97936 166.51624 126.28516 181.6875 C 110.49413 184.67807 95.712206 188.163 82.486328 192.21094 C 60.650763 198.89403 42.640125 206.84166 29.279297 216.50977 C 15.918508 226.17785 6.3222656 238.56102 6.3222656 253.36914 C 6.3222656 268.1773 15.918508 280.55847 29.279297 290.22656 C 42.640125 299.89469 60.650763 307.84231 82.486328 314.52539 C 95.712206 318.57334 110.49413 322.06017 126.28516 325.05078 C 120.97936 340.22199 116.60546 354.76584 113.49805 368.24414 C 108.36799 390.49589 106.24707 410.06392 107.93945 426.46875 C 109.63189 442.87361 115.55664 457.37523 128.38086 464.7793 C 141.2051 472.18335 156.72411 470.06294 171.77734 463.32617 C 186.83056 456.58941 202.72025 444.96712 219.42578 429.39844 C 229.54509 419.96779 239.95319 408.90973 250.43945 396.72852 C 260.92502 408.90883 271.33249 419.96446 281.45117 429.39453 C 287.88288 435.38854 294.1538 440.59941 300.3418 445.37109 L 297.2207 415.14258 L 298.14453 414.11914 C 297.68748 413.69885 297.25389 413.35938 296.79492 412.93164 C 286.58529 403.41678 275.86856 391.93482 264.98242 379.06836 C 275.81245 365.35823 286.63835 350.51783 297.25977 334.47266 C 298.70421 334.38423 300.05254 334.22021 301.48633 334.12305 L 291.12109 325.38867 L 287.97656 307.12109 C 286.84485 308.91259 285.72394 310.74392 284.58789 312.51758 C 273.41971 313.0326 262.07841 313.38672 250.43945 313.38672 C 238.7998 313.38672 227.45595 313.03268 216.28711 312.51758 C 210.25738 303.10369 204.28007 293.45595 198.46094 283.37695 C 192.64172 273.29777 187.27648 263.29804 182.13867 253.36914 C 187.27656 243.44006 192.64169 233.44054 198.46094 223.36133 C 204.27986 213.28265 210.25756 203.63428 216.28711 194.2207 C 227.45595 193.70573 238.7998 193.35156 250.43945 193.35156 C 262.07765 193.35156 273.42038 193.70589 284.58789 194.2207 C 290.61722 203.63395 296.59528 213.27894 302.41406 223.35742 C 308.23374 233.43733 313.59812 243.43936 318.73633 253.36914 C 316.12768 258.41041 313.45678 263.47152 310.70117 268.55078 L 351.25391 268.55078 C 348.89648 263.5027 346.64197 258.49648 344.08594 253.36914 C 352.67147 236.14679 360.11162 219.3486 366.57031 203.11328 C 383.15591 206.10727 398.45788 209.64808 411.80273 213.73242 C 432.10654 219.94671 448.19836 227.35895 458.4043 234.74414 C 468.61023 242.12932 472.04687 248.49657 472.04688 253.36914 C 472.04688 257.45666 469.35711 262.64141 462.55273 268.55078 L 490.99219 268.55078 C 493.25324 263.81835 494.55273 258.75865 494.55273 253.36914 C 494.55273 238.56102 484.95653 226.17785 471.5957 216.50977 C 458.2349 206.84166 440.2262 198.89403 418.39062 192.21094 C 405.1642 188.16282 390.38358 184.67813 374.5918 181.6875 C 379.89721 166.51705 384.26773 151.97377 387.375 138.49609 C 392.50506 116.24438 394.62991 96.670474 392.9375 80.265625 C 391.24508 63.860777 385.31838 49.36308 372.49414 41.958984 C 366.08206 38.256961 358.99746 36.936262 351.63281 37.382812 C 344.26822 37.829315 336.62232 40.041774 329.0957 43.410156 C 314.04248 50.146938 298.15674 61.771182 281.45117 77.339844 C 271.33269 86.769727 260.9248 97.827765 250.43945 110.00781 C 239.9534 97.826879 229.54486 86.770304 219.42578 77.339844 C 202.72025 61.771168 186.83056 50.146938 171.77734 43.410156 C 164.2507 40.041774 156.60928 37.828614 149.24414 37.382812 z M 145.7168 59.814453 C 149.87646 59.611228 155.3973 60.73494 162.58398 63.951172 C 174.08274 69.097193 188.54641 79.330104 204.08008 93.806641 C 214.28972 103.32144 225.00865 114.80388 235.89453 127.66992 C 225.06506 141.37934 214.23811 156.22133 203.61719 172.26562 C 184.40885 173.44148 166.13964 175.39754 148.84961 177.92188 C 143.15079 162.06261 138.56862 147.03968 135.43359 133.44141 C 130.6634 112.75061 129.0334 95.107398 130.32617 82.576172 C 131.61893 70.044972 135.4111 63.885539 139.63086 61.449219 C 141.2133 60.535634 143.22093 59.936396 145.7168 59.814453 z M 355.1582 59.814453 C 357.65399 59.936329 359.65783 60.537561 361.24023 61.451172 C 365.46 63.887452 369.25412 70.044972 370.54688 82.576172 C 371.83967 95.107371 370.21749 112.75061 365.44727 133.44141 C 362.31218 147.03975 357.72641 162.06214 352.02734 177.92188 C 334.7379 175.3977 316.46736 173.44142 297.25977 172.26562 C 286.63862 156.22084 275.81409 141.37778 264.98438 127.66797 C 275.86982 114.80243 286.58587 103.32089 296.79492 93.806641 C 312.32859 79.330104 326.79032 69.099147 338.28906 63.953125 C 345.47579 60.736853 350.9985 59.611228 355.1582 59.814453 z M 250.43555 145.60742 C 256.68765 153.67007 262.94376 162.20066 269.17773 171.13281 C 262.97686 170.98487 256.76506 170.8418 250.43945 170.8418 C 244.11312 170.8418 237.90274 170.98478 231.70117 171.13281 C 237.93485 162.2011 244.18374 153.66978 250.43555 145.60742 z M 188.58789 196.02148 C 185.35873 201.31834 182.13399 206.6285 178.9707 212.10742 C 175.80763 217.58612 172.82013 223.03573 169.84766 228.48047 C 165.22915 218.61559 160.96774 208.93216 157.11133 199.48633 C 167.22025 198.10339 177.73502 196.95395 188.58789 196.02148 z M 312.28711 196.02148 C 323.13997 196.95392 333.65478 198.10343 343.76367 199.48633 C 339.90699 208.93289 335.64621 218.61483 331.02734 228.48047 C 328.05447 223.03501 325.06785 217.58491 321.9043 212.10547 C 318.74149 206.62729 315.51582 201.31759 312.28711 196.02148 z M 134.30469 203.11328 C 140.76336 219.34837 148.20363 236.14711 156.78906 253.36914 C 148.20405 270.59034 140.76316 287.38483 134.30469 303.61914 C 117.71966 300.6248 102.4165 297.08613 89.072266 293.00195 C 68.768399 286.78768 52.678661 279.37735 42.472656 271.99219 C 32.266745 264.60699 28.830078 258.24168 28.830078 253.36914 C 28.830078 248.49657 32.266745 242.12932 42.472656 234.74414 C 52.678661 227.35895 68.768399 219.94671 89.072266 213.73242 C 102.41655 209.64824 117.71984 206.1072 134.30469 203.11328 z M 250.43945 225.63477 C 235.64608 225.63477 222.0332 237.54711 222.0332 253.36914 C 222.0332 269.19117 235.64608 281.10352 250.43945 281.10352 C 265.23282 281.10352 278.8418 269.19117 278.8418 253.36914 C 278.8418 237.54711 265.23282 225.63477 250.43945 225.63477 z M 169.84961 278.25781 C 172.82166 283.70163 175.80812 289.1491 178.9707 294.62695 C 182.13374 300.10547 185.35899 305.41836 188.58789 310.71484 C 177.73578 309.78217 167.22156 308.63112 157.11328 307.24805 C 160.96961 297.80265 165.23133 288.12215 169.84961 278.25781 z M 342.19531 303.55078 C 342.38456 304.00509 342.58797 304.46863 342.77539 304.92188 L 408.52344 304.92188 L 410.28906 316.85352 C 413.03336 316.0936 415.7646 315.32912 418.39062 314.52539 C 429.25642 311.19976 439.16791 307.55928 448.03711 303.55078 L 366.91211 303.55078 C 366.7933 303.57231 366.68925 303.59962 366.57031 303.62109 C 366.56116 303.59808 366.55017 303.5738 366.54102 303.55078 L 342.19531 303.55078 z M 148.84961 328.81641 C 166.13964 331.34075 184.40883 333.29679 203.61719 334.47266 C 214.23861 350.51768 225.0626 365.36039 235.89258 379.07031 C 225.00634 391.93691 214.28785 403.41868 204.07812 412.93359 C 188.54448 427.41013 174.08078 437.63717 162.58203 442.7832 C 151.08328 447.9292 143.85259 447.72142 139.63281 445.28516 C 135.41305 442.84885 131.61504 436.68941 130.32227 424.1582 C 129.02951 411.62699 130.65752 393.98964 135.42773 373.29883 C 138.56291 359.70012 143.15033 344.67661 148.84961 328.81641 z M 231.69727 335.60547 C 237.89884 335.75343 244.11313 335.89258 250.43945 335.89258 C 256.76507 335.89258 262.97685 335.75365 269.17773 335.60547 C 262.94425 344.53695 256.69107 353.06868 250.43945 361.13086 C 244.18759 353.06849 237.93102 344.53721 231.69727 335.60547 z M 382.20117 348.66992 L 360.63672 355.19531 C 362.46601 361.44029 364.1117 367.52083 365.44336 373.29688 C 365.79229 374.81037 366.00298 376.18011 366.31836 377.66016 L 389.2793 377.66016 C 388.6625 374.53675 388.12162 371.48067 387.375 368.24219 C 385.92258 361.94238 384.17202 355.39048 382.20117 348.66992 z M 370.89844 412.66016 C 370.93226 414.23531 370.86411 415.63829 370.83398 417.11328 L 373.52148 430.13086 L 391.36523 435.89062 C 392.05014 432.83964 392.60333 429.70802 392.9375 426.46875 C 393.38829 422.09924 393.5286 417.46967 393.45312 412.66016 L 370.89844 412.66016 z M 335.08594 441.09961 L 337.12305 460.81445 L 361.64648 468.73047 C 364.60952 468.17142 367.47145 467.18752 370.24023 465.85156 L 353.07031 460.30859 L 341.30664 447.19336 L 340.57031 443.625 C 339.77998 443.30659 339.12785 443.15488 338.29297 442.78125 C 337.28548 442.33037 336.1377 441.62794 335.08594 441.09961 z " /><path
     d="M 439.82117,395.16092 H 314.6276 l -6.25968,-42.43158 100.15486,-30.30826 H 308.36792 l -6.25968,-36.36993 H 496.1583 l -6.25969,42.43157 -81.37583,30.30828 h 75.11616 l -12.51938,115.17141 -75.11614,24.24662 -75.11614,-24.24662 -6.25968,-60.61653 h 37.55808 l 6.25966,30.30826 37.55808,12.12331 37.55806,-12.12331 z"
     fill="#ffffff"
     id="path3"
     style="fill:#40aefc;fill-opacity:1;stroke:none;stroke-width:12.3197;stroke-opacity:1" /></svg>
