<?xml version="1.0" encoding="UTF-8" standalone="no"?>
<!-- Created with Inkscape (http://www.inkscape.org/) -->

<svg
   width="500"
   height="500"
   viewBox="0 0 500 500"
   version="1.1"
   id="svg1"
   inkscape:version="1.3.2 (091e20ef0f, 2023-11-25, custom)"
   sodipodi:docname="index.jsx.svg"
   xmlns:inkscape="http://www.inkscape.org/namespaces/inkscape"
   xmlns:sodipodi="http://sodipodi.sourceforge.net/DTD/sodipodi-0.dtd"
   xmlns:xlink="http://www.w3.org/1999/xlink"
   xmlns="http://www.w3.org/2000/svg"
   xmlns:svg="http://www.w3.org/2000/svg">
  <sodipodi:namedview
     id="namedview1"
     pagecolor="#505050"
     bordercolor="#eeeeee"
     borderopacity="1"
     inkscape:showpageshadow="0"
     inkscape:pageopacity="0"
     inkscape:pagecheckerboard="0"
     inkscape:deskcolor="#505050"
     inkscape:document-units="px"
     inkscape:zoom="0.68158229"
     inkscape:cx="336.7165"
     inkscape:cy="269.22648"
     inkscape:window-width="1352"
     inkscape:window-height="734"
     inkscape:window-x="4"
     inkscape:window-y="24"
     inkscape:window-maximized="1"
     inkscape:current-layer="layer1"
     showguides="true">
    <sodipodi:guide
       position="250.02518,350.60736"
       orientation="-0.99997769,0.0066803918"
       id="guide30"
       inkscape:locked="false" />
    <sodipodi:guide
       position="66.396728,247.89992"
       orientation="0,-1"
       id="guide53"
       inkscape:locked="false" />
  </sodipodi:namedview>
  <defs
     id="defs1">
    <linearGradient
       id="linearGradient1"
       inkscape:collect="always">
      <stop
         style="stop-color:#ffc340;stop-opacity:1;"
         offset="0"
         id="stop1" />
      <stop
         style="stop-color:#ff6e40;stop-opacity:1;"
         offset="1"
         id="stop2" />
    </linearGradient>
    <linearGradient
       id="swatch61"
       inkscape:swatch="solid">
      <stop
         style="stop-color:#5090d0;stop-opacity:1;"
         offset="0"
         id="stop61" />
    </linearGradient>
    <linearGradient
       id="swatch30"
       inkscape:swatch="solid">
      <stop
         style="stop-color:#f9f9f9;stop-opacity:1;"
         offset="0"
         id="stop30" />
    </linearGradient>
    <inkscape:perspective
       sodipodi:type="inkscape:persp3d"
       inkscape:vp_x="44.06818 : 315.96746 : 1"
       inkscape:vp_y="0 : 1000 : 0"
       inkscape:vp_z="480.74134 : 298.68846 : 1"
       inkscape:persp3d-origin="250 : 166.66667 : 1"
       id="perspective17" />
    <linearGradient
       inkscape:collect="always"
       xlink:href="#linearGradient1"
       id="linearGradient2"
       x1="228.99547"
       y1="245.65041"
       x2="488.93317"
       y2="444.86844"
       gradientUnits="userSpaceOnUse" />
  </defs>
  <g
     inkscape:label="Layer 1"
     inkscape:groupmode="layer"
     id="layer1">
    <path
       id="rect1"
       style="fill:url(#linearGradient2);fill-opacity:1;stroke-width:22.8359;stroke-linejoin:bevel;paint-order:markers fill stroke"
       d="M 248.57641 93.152139 A 164.58511 164.58511 0 0 0 97.118482 237.494 L 97.118482 276.30123 A 164.58511 164.58511 0 0 0 234.11455 419.20295 L 286.51714 419.20295 A 164.58511 164.58511 0 0 0 424.09894 268.11043 L 424.09894 240.68864 A 164.58511 164.58511 0 0 0 276.82977 93.152139 L 248.57641 93.152139 z M 195.58945 119.63085 C 200.27842 119.91467 205.14532 121.32451 209.93712 123.46898 C 219.5207 127.75793 229.63457 135.15802 240.27008 145.06975 C 246.71237 151.07362 253.3397 158.11353 260.01559 165.8685 C 266.69106 158.1141 273.31786 151.07461 279.75976 145.07109 C 290.39528 135.15937 300.50915 127.75793 310.09272 123.46898 C 314.88452 121.32451 319.75174 119.91511 324.44039 119.63085 C 329.12907 119.34656 333.63916 120.18782 337.72139 122.54471 C 345.88588 127.25849 349.66028 136.49032 350.73774 146.93441 C 351.81521 157.3785 350.46254 169.83945 347.1965 184.00594 C 345.21828 192.58645 342.43443 201.84473 339.05675 211.50296 C 349.11054 213.40694 358.52145 215.62534 366.94201 218.20257 C 380.84355 222.45732 392.30876 227.51682 400.81487 233.67199 C 409.32099 239.82714 415.42988 247.71122 415.42988 257.13876 C 415.42988 266.5663 409.32099 274.44903 400.81487 280.60418 C 392.30876 286.75935 380.84355 291.81884 366.94201 296.07361 C 358.52145 298.65081 349.11054 300.87055 339.05675 302.77456 C 342.43443 312.43276 345.21828 321.69107 347.1965 330.27157 C 350.46254 344.43807 351.81387 356.89767 350.73639 367.34176 C 349.65896 377.78586 345.88587 387.01904 337.72139 391.7328 C 329.55691 396.44658 319.67631 395.09748 310.09272 390.80853 C 300.50914 386.51961 290.39527 379.11681 279.75976 369.20508 C 273.31774 363.20147 266.69119 356.16225 260.01559 348.40767 C 253.33957 356.16282 246.7125 363.20244 240.27008 369.20642 C 229.63457 379.11816 219.5207 386.51824 209.93712 390.80719 C 200.35354 395.09613 190.47161 396.44522 182.3071 391.73146 C 174.14262 387.01768 170.37091 377.78586 169.29344 367.34176 C 168.21599 356.89767 169.56731 344.4394 172.83334 330.27292 C 174.81166 321.692 177.59518 312.43326 180.97309 302.77456 C 170.91979 300.8706 161.50939 298.6507 153.08917 296.07361 C 139.18763 291.81884 127.72109 286.75935 119.21497 280.60418 C 110.70886 274.44903 104.59996 266.5663 104.59996 257.13876 C 104.59996 247.71122 110.70886 239.82714 119.21497 233.67199 C 127.72109 227.51682 139.18763 222.45732 153.08917 218.20257 C 161.50939 215.62545 170.91979 213.40689 180.97309 211.50296 C 177.59518 201.84423 174.81166 192.58551 172.83334 184.0046 C 169.56731 169.83811 168.21598 157.37985 169.29344 146.93575 C 170.37091 136.49166 174.14262 127.25981 182.3071 122.54606 C 186.38935 120.18917 190.90046 119.34701 195.58945 119.63085 z M 193.3446 133.91269 C 191.75564 133.99032 190.47763 134.37221 189.47019 134.95383 C 186.78369 136.5049 184.3701 140.42616 183.54708 148.4041 C 182.72403 156.38207 183.75985 167.61439 186.7968 180.78712 C 188.7927 189.44442 191.71143 199.00822 195.33957 209.10496 C 206.34721 207.49785 217.97762 206.25322 230.20656 205.50461 C 236.96832 195.29008 243.86089 185.84094 250.75543 177.11288 C 243.82497 168.92175 237.00204 161.61134 230.50211 155.55376 C 220.61267 146.33733 211.40316 139.82334 204.08251 136.54712 C 199.50713 134.49952 195.99286 133.7833 193.3446 133.91269 z M 326.6839 133.91269 C 324.03564 133.7833 320.52139 134.50084 315.94598 136.54847 C 308.62536 139.82466 299.41718 146.33733 289.52773 155.55376 C 283.02817 161.61098 276.20593 168.92074 269.27575 177.11154 C 276.17046 185.83986 283.06271 195.28975 289.82462 205.50461 C 302.05307 206.25319 313.68301 207.49795 324.69027 209.10496 C 328.31856 199.00791 331.23845 189.44446 333.23439 180.78712 C 336.27132 167.61439 337.3058 156.38339 336.48276 148.40545 C 335.65971 140.4275 333.24346 136.50623 330.55696 134.95518 C 329.54952 134.37353 328.27283 133.99032 326.6839 133.91269 z M 260.01425 188.53191 C 256.03404 193.66477 252.05337 199.09684 248.08472 204.78319 C 252.03293 204.68891 255.98796 204.59915 260.01559 204.59915 C 264.04277 204.59915 267.99736 204.68893 271.94511 204.78319 C 267.97629 199.09657 263.99462 193.66494 260.01425 188.53191 z M 260.01559 218.92935 C 252.60524 218.92935 245.38303 219.155 238.27242 219.48284 C 234.43372 225.47598 230.6292 231.61749 226.9246 238.03405 C 223.2198 244.45095 219.80295 250.81745 216.53194 257.13876 C 219.8029 263.45995 223.21847 269.82658 226.92325 276.24346 C 230.62798 282.66021 234.43361 288.80136 238.27242 294.79468 C 245.38303 295.1226 252.60524 295.34816 260.01559 295.34816 C 267.42548 295.34816 274.64722 295.12256 281.75742 294.79468 C 285.59595 288.80174 289.40079 282.66113 293.10524 276.2448 C 296.81004 269.82792 300.22689 263.46005 303.4979 257.13876 C 300.22669 250.81701 296.8103 244.45007 293.10524 238.03271 C 289.40073 231.6163 285.59464 225.47575 281.75607 219.48284 C 274.64632 219.15509 267.42501 218.92935 260.01559 218.92935 z M 220.63876 220.62877 C 213.72932 221.22242 207.03484 221.95422 200.59904 222.83466 C 203.05421 228.84831 205.76752 235.01273 208.70789 241.29318 C 210.60032 237.82683 212.5017 234.35761 214.51547 230.86962 C 216.52936 227.38149 218.58293 224.00099 220.63876 220.62877 z M 299.39108 220.62877 C 301.44662 224.00053 303.50078 227.38062 305.51436 230.86828 C 307.52844 234.35676 309.42927 237.82635 311.32195 241.29318 C 314.26253 235.01227 316.97544 228.84877 319.4308 222.83466 C 312.995 221.95425 306.30051 221.2224 299.39108 220.62877 z M 186.07941 225.14399 C 175.52075 227.05005 165.77891 229.30387 157.28332 231.90405 C 144.35693 235.86035 134.11295 240.58001 127.61534 245.28178 C 121.11777 249.98352 118.93017 254.03665 118.93017 257.13876 C 118.93017 260.24085 121.11777 264.29398 127.61534 268.99574 C 134.11295 273.69748 144.35693 278.4145 157.28332 282.37077 C 165.77887 284.97096 175.52081 287.2245 186.07941 289.13084 C 190.19118 278.79531 194.92923 268.10258 200.39484 257.13876 C 194.92897 246.17441 190.19131 235.47998 186.07941 225.14399 z M 333.95043 225.14399 C 329.83852 235.48014 325.10094 246.17421 319.635 257.13876 C 325.10083 268.10311 329.83857 278.79621 333.95043 289.13218 C 344.50964 287.22579 354.2519 284.97109 362.74787 282.37077 C 375.67423 278.4145 385.91826 273.69748 392.41584 268.99574 C 398.91341 264.29398 401.10102 260.24085 401.10102 257.13876 C 401.10102 254.03665 398.91341 249.98352 392.41584 245.28178 C 385.91826 240.58001 375.67423 235.86035 362.74787 231.90405 C 354.25192 229.30377 344.5096 227.0501 333.95043 225.14399 z M 260.01559 239.48226 C 269.43374 239.48226 278.0993 247.06572 278.0993 257.13876 C 278.0993 267.21181 269.43374 274.79526 260.01559 274.79526 C 250.59745 274.79526 241.93188 267.21181 241.93188 257.13876 C 241.93188 247.06572 250.59745 239.48226 260.01559 239.48226 z M 311.32195 272.98299 C 309.42927 276.44982 307.52844 279.91941 305.51436 283.40789 C 303.50096 286.89525 301.44778 290.27593 299.39242 293.6474 C 306.3014 293.05363 312.99542 292.32205 319.4308 291.44151 C 316.97557 285.42778 314.26234 279.26352 311.32195 272.98299 z M 208.70923 272.98434 C 205.76902 279.26445 203.0555 285.42813 200.60038 291.44151 C 207.03578 292.32205 213.7298 293.05363 220.63876 293.6474 C 218.58308 290.27542 216.52921 286.89442 214.51547 283.40655 C 212.50201 279.91909 210.60139 276.45013 208.70923 272.98434 z M 195.33957 305.17255 C 191.71113 315.26988 188.79144 324.83418 186.79545 333.49174 C 183.75853 346.66448 182.72135 357.89413 183.54439 365.87207 C 184.36743 373.85002 186.78504 377.77128 189.47153 379.32234 C 192.15804 380.87337 196.76188 381.00523 204.08251 377.72905 C 211.40315 374.45284 220.61133 367.94154 230.50077 358.7251 C 237.00076 352.66746 243.82476 345.35746 250.75543 337.16598 C 243.86057 328.43759 236.96863 318.98791 230.20656 308.77291 C 217.97762 308.02429 206.34721 306.77966 195.33957 305.17255 z M 324.69027 305.17255 C 313.68301 306.77957 302.05307 308.02432 289.82462 308.77291 C 283.06254 318.98801 276.16929 328.43612 269.27441 337.16464 C 276.20501 345.35601 283.02778 352.66615 289.52773 358.72376 C 299.41717 367.94019 308.6267 374.45152 315.94732 377.7277 C 323.26797 381.00391 327.87045 380.87337 330.55696 379.32234 C 333.24347 377.77128 335.65972 373.85002 336.48276 365.87207 C 337.30581 357.89413 336.26999 346.66311 333.23304 333.4904 C 331.23715 324.83321 328.31845 315.26938 324.69027 305.17255 z M 248.08472 309.49432 C 252.0534 315.18069 256.03536 320.61272 260.01559 325.74561 C 263.99568 320.61284 267.9766 315.18052 271.94511 309.49432 C 267.99736 309.58859 264.04277 309.67837 260.01559 309.67837 C 255.98796 309.67837 252.03293 309.58861 248.08472 309.49432 z "
       transform="matrix(1.453851,0,0,1.453851,-127.05713,-120.71058)" />
    <g
       inkscape:groupmode="layer"
       id="layer2"
       inkscape:label="Layer 2"
       transform="matrix(1.453851,0,0,1.453851,-127.05713,-120.71058)" />
  </g>
</svg>
