<?xml version="1.0" encoding="UTF-8" standalone="no"?>
<!-- Created with Inkscape (http://www.inkscape.org/) -->

<svg
   width="500"
   height="500"
   viewBox="0 0 500 500"
   version="1.1"
   id="svg1"
   inkscape:version="1.3.2 (091e20ef0f, 2023-11-25, custom)"
   sodipodi:docname="index.js.svg"
   xmlns:inkscape="http://www.inkscape.org/namespaces/inkscape"
   xmlns:sodipodi="http://sodipodi.sourceforge.net/DTD/sodipodi-0.dtd"
   xmlns="http://www.w3.org/2000/svg"
   xmlns:svg="http://www.w3.org/2000/svg">
  <sodipodi:namedview
     id="namedview1"
     pagecolor="#505050"
     bordercolor="#eeeeee"
     borderopacity="1"
     inkscape:showpageshadow="0"
     inkscape:pageopacity="0"
     inkscape:pagecheckerboard="0"
     inkscape:deskcolor="#505050"
     inkscape:document-units="px"
     inkscape:zoom="0.96390292"
     inkscape:cx="279.07375"
     inkscape:cy="234.98217"
     inkscape:window-width="1362"
     inkscape:window-height="744"
     inkscape:window-x="0"
     inkscape:window-y="20"
     inkscape:window-maximized="1"
     inkscape:current-layer="layer1"
     showguides="true">
    <sodipodi:guide
       position="250.02518,350.60736"
       orientation="-0.99997769,0.0066803918"
       id="guide30"
       inkscape:locked="false" />
    <sodipodi:guide
       position="66.396728,247.89992"
       orientation="0,-1"
       id="guide53"
       inkscape:locked="false" />
  </sodipodi:namedview>
  <defs
     id="defs1">
    <linearGradient
       id="swatch61"
       inkscape:swatch="solid">
      <stop
         style="stop-color:#5090d0;stop-opacity:1;"
         offset="0"
         id="stop61" />
    </linearGradient>
    <linearGradient
       id="swatch30"
       inkscape:swatch="solid">
      <stop
         style="stop-color:#f9f9f9;stop-opacity:1;"
         offset="0"
         id="stop30" />
    </linearGradient>
    <inkscape:perspective
       sodipodi:type="inkscape:persp3d"
       inkscape:vp_x="44.06818 : 315.96746 : 1"
       inkscape:vp_y="0 : 1000 : 0"
       inkscape:vp_z="480.74134 : 298.68846 : 1"
       inkscape:persp3d-origin="250 : 166.66667 : 1"
       id="perspective17" />
  </defs>
  <g
     inkscape:label="Layer 1"
     inkscape:groupmode="layer"
     id="layer1">
    <path
       id="path1"
       style="color:#000000;fill:#ffc340;stroke-linejoin:round;-inkscape-stroke:none;paint-order:markers fill stroke"
       d="m 88.179688,12.058594 c -2.565438,0 -4.863543,0.661085 -6.976563,1.546875 H 35.392578 c -12.57681,0 -21.8125,11.086897 -21.8125,23.05664 V 178.59375 c 0,11.96975 9.238095,23.05469 21.8125,23.05469 h 32.359375 v 233.04101 c 0,5.65335 1.687621,10.99249 5.056641,15.3418 3.369018,4.34931 8.946673,7.82031 15.371094,7.82031 H 429.86328 c 6.42441,0 12.00275,-3.47258 15.3711,-7.82226 3.36834,-4.3497 5.05468,-9.68757 5.05468,-15.33985 V 35.220703 c 0,-5.652264 -1.68634,-10.990153 -5.05468,-15.339844 -3.36835,-4.349689 -8.94669,-7.822265 -15.3711,-7.822265 z M 212.35156,152.36133 h 19.91992 a 11.765676,11.765676 0 0 1 11.76368,11.76367 v 118.56055 c 0,18.14616 -4.5429,33.84624 -14.53125,45.14257 -9.98836,11.29636 -24.98037,17.02149 -41.63282,17.02149 -11.94733,0 -24.3334,-2.94849 -35.8125,-9.83594 a 11.765676,11.765676 0 0 1 -4.91992,-14.33594 l 5.76172,-14.8789 a 11.765676,11.765676 0 0 1 16.23242,-6.27539 c 4.51529,2.25764 13.41074,4.27734 18.25781,4.27734 5.34763,0 7.42509,-1.224 9.36915,-3.62305 1.94403,-2.39902 3.82617,-7.26149 3.82617,-15.33203 V 164.125 a 11.765676,11.765676 0 0 1 11.76562,-11.76367 z m 101.03906,48.47851 c 13.62403,0 26.79932,2.35114 38.34571,7.13868 a 11.765676,11.765676 0 0 1 6.78711,14.16796 l -4.56055,15.59961 a 11.765676,11.765676 0 0 1 -15.09375,7.83203 c -8.64182,-2.95085 -19.28008,-4.88867 -27.39844,-4.88867 -7.16941,0 -12.27134,1.52402 -14.52148,2.85743 -2.25014,1.3334 -1.79297,1.09911 -1.79297,1.9375 0,0.25742 -0.031,0.22534 -0.0527,0.21874 0.0173,-0.009 0.0444,-0.004 0.0996,0.0586 0.24249,0.27629 1.42617,1.25363 3.73438,2.27148 4.61642,2.03571 12.99535,3.94559 22.05273,6.36719 9.0574,2.4216 19.05452,5.38522 27.81446,12.00586 8.75993,6.62064 15.4707,18.06857 15.4707,31.87891 0,13.89645 -6.35111,26.71795 -16.98437,34.7832 -10.63329,8.06524 -24.73402,11.78125 -40.85938,11.78125 -16.43998,0 -33.81879,-3.60939 -48.78906,-10.41406 a 11.765676,11.765676 0 0 1 -6.42383,-14.01172 l 4.56055,-15.59961 a 11.765676,11.765676 0 0 1 15.95117,-7.50195 C 282.14496,301.81478 297.7841,305 307.87109,305 c 6.43458,0 10.57435,-1.40422 12.10938,-2.40625 1.53502,-1.00203 1.32617,-0.58455 1.32617,-2.38867 0,-1.15553 -0.0125,-0.88089 -0.32812,-1.26953 -0.31566,-0.38864 -1.41857,-1.35159 -3.64258,-2.38867 -4.44803,-2.07419 -12.67148,-3.98291 -21.62305,-6.2754 -8.95157,-2.29246 -18.85787,-4.99928 -27.64453,-11.34179 -8.78666,-6.34254 -15.64258,-17.65239 -15.64258,-31.28516 0,-14.36742 7.0933,-27.39658 18.33399,-35.32422 11.24066,-7.92763 25.90545,-11.48047 42.63085,-11.48047 z"
       transform="translate(18.425862,16.136275)" />
  </g>
</svg>
