<?xml version="1.0" encoding="UTF-8" standalone="no"?>
<!-- Created with Inkscape (http://www.inkscape.org/) -->

<svg
   width="500"
   height="500"
   viewBox="0 0 500 500"
   version="1.1"
   id="svg1"
   inkscape:version="1.3.2 (091e20ef0f, 2023-11-25, custom)"
   sodipodi:docname="index.blade.php.svg"
   xml:space="preserve"
   xmlns:inkscape="http://www.inkscape.org/namespaces/inkscape"
   xmlns:sodipodi="http://sodipodi.sourceforge.net/DTD/sodipodi-0.dtd"
   xmlns="http://www.w3.org/2000/svg"
   xmlns:svg="http://www.w3.org/2000/svg"><sodipodi:namedview
     id="namedview1"
     pagecolor="#505050"
     bordercolor="#eeeeee"
     borderopacity="1"
     inkscape:showpageshadow="0"
     inkscape:pageopacity="0"
     inkscape:pagecheckerboard="0"
     inkscape:deskcolor="#505050"
     inkscape:document-units="px"
     inkscape:zoom="0.48195146"
     inkscape:cx="342.35813"
     inkscape:cy="351.69517"
     inkscape:window-width="1352"
     inkscape:window-height="734"
     inkscape:window-x="4"
     inkscape:window-y="24"
     inkscape:window-maximized="1"
     inkscape:current-layer="svg1"
     showguides="true"><sodipodi:guide
       position="250.02518,350.60736"
       orientation="-0.99997769,0.0066803918"
       id="guide30"
       inkscape:locked="false" /><sodipodi:guide
       position="66.396728,247.89992"
       orientation="0,-1"
       id="guide53"
       inkscape:locked="false" /></sodipodi:namedview><defs
     id="defs1"><linearGradient
       id="swatch61"
       inkscape:swatch="solid"><stop
         style="stop-color:#5090d0;stop-opacity:1;"
         offset="0"
         id="stop61" /></linearGradient><linearGradient
       id="swatch30"
       inkscape:swatch="solid"><stop
         style="stop-color:#f9f9f9;stop-opacity:1;"
         offset="0"
         id="stop30" /></linearGradient><inkscape:perspective
       sodipodi:type="inkscape:persp3d"
       inkscape:vp_x="44.06818 : 315.96746 : 1"
       inkscape:vp_y="0 : 1000 : 0"
       inkscape:vp_z="480.74134 : 298.68846 : 1"
       inkscape:persp3d-origin="250 : 166.66667 : 1"
       id="perspective17" /><inkscape:perspective
       sodipodi:type="inkscape:persp3d"
       inkscape:vp_x="44.06818 : 315.96746 : 1"
       inkscape:vp_y="0 : 1000 : 0"
       inkscape:vp_z="480.74134 : 298.68846 : 1"
       inkscape:persp3d-origin="250 : 166.66667 : 1"
       id="perspective17-9" /><inkscape:perspective
       sodipodi:type="inkscape:persp3d"
       inkscape:vp_x="44.06818 : 315.96746 : 1"
       inkscape:vp_y="0 : 1000 : 0"
       inkscape:vp_z="480.74134 : 298.68846 : 1"
       inkscape:persp3d-origin="250 : 166.66667 : 1"
       id="perspective17-2" /><inkscape:perspective
       sodipodi:type="inkscape:persp3d"
       inkscape:vp_x="44.06818 : 315.96746 : 1"
       inkscape:vp_y="0 : 1000 : 0"
       inkscape:vp_z="480.74134 : 298.68846 : 1"
       inkscape:persp3d-origin="250 : 166.66667 : 1"
       id="perspective17-4" /><inkscape:perspective
       sodipodi:type="inkscape:persp3d"
       inkscape:vp_x="44.06818 : 315.96746 : 1"
       inkscape:vp_y="0 : 1000 : 0"
       inkscape:vp_z="480.74134 : 298.68846 : 1"
       inkscape:persp3d-origin="250 : 166.66667 : 1"
       id="perspective17-29" /><inkscape:perspective
       sodipodi:type="inkscape:persp3d"
       inkscape:vp_x="44.06818 : 315.96746 : 1"
       inkscape:vp_y="0 : 1000 : 0"
       inkscape:vp_z="480.74134 : 298.68846 : 1"
       inkscape:persp3d-origin="250 : 166.66667 : 1"
       id="perspective17-2-1" /><inkscape:perspective
       sodipodi:type="inkscape:persp3d"
       inkscape:vp_x="44.06818 : 315.96746 : 1"
       inkscape:vp_y="0 : 1000 : 0"
       inkscape:vp_z="480.74134 : 298.68846 : 1"
       inkscape:persp3d-origin="250 : 166.66667 : 1"
       id="perspective17-4-27" /><inkscape:perspective
       sodipodi:type="inkscape:persp3d"
       inkscape:vp_x="44.06818 : 315.96746 : 1"
       inkscape:vp_y="0 : 1000 : 0"
       inkscape:vp_z="480.74134 : 298.68846 : 1"
       inkscape:persp3d-origin="250 : 166.66667 : 1"
       id="perspective17-1" /><inkscape:perspective
       sodipodi:type="inkscape:persp3d"
       inkscape:vp_x="44.06818 : 315.96746 : 1"
       inkscape:vp_y="0 : 1000 : 0"
       inkscape:vp_z="480.74134 : 298.68846 : 1"
       inkscape:persp3d-origin="250 : 166.66667 : 1"
       id="perspective17-4-7" /><inkscape:perspective
       sodipodi:type="inkscape:persp3d"
       inkscape:vp_x="44.06818 : 315.96746 : 1"
       inkscape:vp_y="0 : 1000 : 0"
       inkscape:vp_z="480.74134 : 298.68846 : 1"
       inkscape:persp3d-origin="250 : 166.66667 : 1"
       id="perspective17-7" /><inkscape:perspective
       sodipodi:type="inkscape:persp3d"
       inkscape:vp_x="44.06818 : 315.96746 : 1"
       inkscape:vp_y="0 : 1000 : 0"
       inkscape:vp_z="480.74134 : 298.68846 : 1"
       inkscape:persp3d-origin="250 : 166.66667 : 1"
       id="perspective17-2-9" /><inkscape:perspective
       sodipodi:type="inkscape:persp3d"
       inkscape:vp_x="44.06818 : 315.96746 : 1"
       inkscape:vp_y="0 : 1000 : 0"
       inkscape:vp_z="480.74134 : 298.68846 : 1"
       inkscape:persp3d-origin="250 : 166.66667 : 1"
       id="perspective17-4-2" /><inkscape:perspective
       sodipodi:type="inkscape:persp3d"
       inkscape:vp_x="44.06818 : 315.96746 : 1"
       inkscape:vp_y="0 : 1000 : 0"
       inkscape:vp_z="480.74134 : 298.68846 : 1"
       inkscape:persp3d-origin="250 : 166.66667 : 1"
       id="perspective17-18" /><inkscape:perspective
       sodipodi:type="inkscape:persp3d"
       inkscape:vp_x="44.06818 : 315.96746 : 1"
       inkscape:vp_y="0 : 1000 : 0"
       inkscape:vp_z="480.74134 : 298.68846 : 1"
       inkscape:persp3d-origin="250 : 166.66667 : 1"
       id="perspective17-2-7" /><inkscape:perspective
       sodipodi:type="inkscape:persp3d"
       inkscape:vp_x="44.06818 : 315.96746 : 1"
       inkscape:vp_y="0 : 1000 : 0"
       inkscape:vp_z="480.74134 : 298.68846 : 1"
       inkscape:persp3d-origin="250 : 166.66667 : 1"
       id="perspective17-4-9" /><inkscape:perspective
       sodipodi:type="inkscape:persp3d"
       inkscape:vp_x="44.06818 : 315.96746 : 1"
       inkscape:vp_y="0 : 1000 : 0"
       inkscape:vp_z="480.74134 : 298.68846 : 1"
       inkscape:persp3d-origin="250 : 166.66667 : 1"
       id="perspective17-6" /><inkscape:perspective
       sodipodi:type="inkscape:persp3d"
       inkscape:vp_x="44.06818 : 315.96746 : 1"
       inkscape:vp_y="0 : 1000 : 0"
       inkscape:vp_z="480.74134 : 298.68846 : 1"
       inkscape:persp3d-origin="250 : 166.66667 : 1"
       id="perspective17-3" /></defs><rect
     style="fill:#ef3a2e;fill-opacity:1;stroke:none;stroke-width:30;stroke-linejoin:round;stroke-miterlimit:10;paint-order:stroke markers fill"
     id="rect2"
     width="441.42126"
     height="441.42126"
     x="28.271875"
     y="31.542776"
     ry="56.667564"
     rx="56.667564" /><path
     d="m 443.51264,149.04225 a 6.7367699,6.7367699 0 0 1 0.26947,1.61683 v 80.98945 a 5.7532015,5.7532015 0 0 1 -3.01808,5.11995 l -69.96808,39.07326 v 77.58064 a 5.7532015,5.7532015 0 0 1 -3.01808,5.11995 l -146.09359,81.71702 a 9.903052,9.903052 0 0 1 -1.10483,0.4042 c -0.13474,0 -0.26948,0.13473 -0.40421,0.13473 a 6.292143,6.292143 0 0 1 -3.16628,0 c -0.13473,0 -0.26947,-0.13473 -0.40421,-0.13473 -0.13473,0 -0.68714,-0.26947 -0.95662,-0.4042 L 69.675805,358.59622 a 5.9014104,5.9014104 0 0 1 -3.152808,-5.17384 V 110.50793 a 6.7367699,6.7367699 0 0 1 0.269471,-1.61682 c 0,-0.13474 0.148209,-0.26947 0.282944,-0.53894 0.134736,-0.26947 0.269471,-0.67368 0.404207,-0.94315 0.134735,-0.26947 0.282944,-0.40421 0.417679,-0.53894 a 1.347354,1.347354 0 0 1 0.552415,-0.67368 c 0.134736,-0.13473 0.404206,-0.26947 0.538942,-0.4042 0.134735,-0.13474 0.417679,-0.26947 0.552415,-0.40421 l 72.98617,-40.838301 a 6.0361458,6.0361458 0 0 1 6.03614,0 l 72.97269,40.838301 a 2.2366076,2.2366076 0 0 1 0.68715,0.53894 c 0.14821,0.13474 0.41768,0.26947 0.55242,0.40421 a 2.4387107,2.4387107 0 0 1 0.55241,0.67367 1.8593485,1.8593485 0 0 1 0.40421,0.53894 5.2816276,5.2816276 0 0 1 0.41767,0.94315 c 0,0.13474 0.13474,0.26947 0.26947,0.53894 a 7.0601348,7.0601348 0 0 1 0.28295,1.48209 v 151.73901 l 60.76567,-34.12848 v -77.45938 a 4.4597417,4.4597417 0 0 1 0.28294,-1.48209 c 0,-0.13474 0.13474,-0.26947 0.26947,-0.53894 0.13473,-0.26947 0.26947,-0.67368 0.4042,-0.94315 0.13474,-0.26947 0.28295,-0.4042 0.41769,-0.53894 a 1.347354,1.347354 0 0 1 0.55242,-0.67368 c 0.13473,-0.13473 0.4042,-0.26947 0.53893,-0.4042 0.13474,-0.13474 0.41768,-0.4042 0.68716,-0.53894 l 72.97269,-40.82483 a 6.0361458,6.0361458 0 0 1 6.03614,0 l 72.98617,40.82483 a 2.6003932,2.6003932 0 0 1 0.68714,0.53894 c 0.13474,0.13473 0.40422,0.26947 0.53895,0.4042 a 2.2096605,2.2096605 0 0 1 0.55241,0.67368 1.872822,1.872822 0 0 1 0.41768,0.53894 6.5750874,6.5750874 0 0 1 0.40421,0.94315 c 0.14821,0.13474 0.29642,0.26947 0.29642,0.4042 z m -11.93756,79.23789 v -67.36769 l -25.51889,14.26847 -35.26024,19.81958 v 67.3677 z m -72.98616,121.82775 v -67.3677 l -34.72132,19.25369 -99.16525,54.98552 v 68.05484 c 0,-0.13473 133.88657,-74.92635 133.88657,-74.92635 z M 78.730024,120.74782 V 350.10789 L 212.63006,425.03424 V 356.9794 l -69.96809,-38.41306 c -0.26946,-0.26947 -0.55241,-0.40421 -0.68715,-0.67369 -0.13473,-0.26947 -0.41767,-0.26947 -0.55241,-0.4042 -0.13474,-0.13473 -0.26948,-0.4042 -0.53895,-0.67368 -0.26946,-0.26947 -0.28294,-0.4042 -0.41767,-0.53894 a 2.2770282,2.2770282 0 0 1 -0.26948,-0.67367 c -0.1482,-0.26948 -0.28294,-0.40421 -0.28294,-0.67368 a 1.7111395,1.7111395 0 0 1 -0.13473,-0.80842 c 0,-0.26947 -0.13474,-0.4042 -0.13474,-0.67367 V 154.70115 l -35.39499,-19.67138 z m 66.950026,-44.341415 -60.91388,34.101525 60.77914,33.95333 60.76566,-34.08806 z m 31.55502,212.342985 35.24678,-19.67137 v -148.3302 l -25.50541,14.28195 -35.26025,19.67138 v 148.37061 z m 187.38999,-172.17836 -60.76566,34.08805 60.76566,33.9668 60.77914,-34.10154 c 0.13473,0.13474 -60.77914,-33.95331 -60.77914,-33.95331 z m -6.03614,78.29474 -35.26025,-19.81958 -25.50542,-14.29543 v 67.3677 l 35.24678,19.67137 25.51889,14.29542 z m -139.92271,151.81984 89.16788,-49.46136 44.58395,-24.79131 -60.77914,-33.9668 -69.95462,39.07326 -63.7972,35.70489 z"
     style="fill:#ffffff;stroke-width:13.4735;fill-opacity:1;stroke:none;stroke-opacity:1"
     id="path1" /></svg>
