<?xml version="1.0" encoding="UTF-8" standalone="no"?>
<!-- Created with Inkscape (http://www.inkscape.org/) -->

<svg
   width="500"
   height="500"
   viewBox="0 0 500 500"
   version="1.1"
   id="svg1"
   inkscape:version="1.3.2 (091e20ef0f, 2023-11-25, custom)"
   sodipodi:docname="index.less.svg"
   xml:space="preserve"
   xmlns:inkscape="http://www.inkscape.org/namespaces/inkscape"
   xmlns:sodipodi="http://sodipodi.sourceforge.net/DTD/sodipodi-0.dtd"
   xmlns="http://www.w3.org/2000/svg"
   xmlns:svg="http://www.w3.org/2000/svg"><sodipodi:namedview
     id="namedview1"
     pagecolor="#505050"
     bordercolor="#eeeeee"
     borderopacity="1"
     inkscape:showpageshadow="0"
     inkscape:pageopacity="0"
     inkscape:pagecheckerboard="0"
     inkscape:deskcolor="#505050"
     inkscape:document-units="px"
     inkscape:zoom="0.96390292"
     inkscape:cx="251.58135"
     inkscape:cy="226.68258"
     inkscape:window-width="1362"
     inkscape:window-height="744"
     inkscape:window-x="0"
     inkscape:window-y="20"
     inkscape:window-maximized="0"
     inkscape:current-layer="svg1"
     showguides="true"><sodipodi:guide
       position="250.02518,350.60736"
       orientation="-0.99997769,0.0066803918"
       id="guide30"
       inkscape:locked="false" /><sodipodi:guide
       position="66.396728,247.89992"
       orientation="0,-1"
       id="guide53"
       inkscape:locked="false" /><sodipodi:guide
       position="-144.20539,249.97482"
       orientation="0,-1"
       id="guide2"
       inkscape:locked="false" /><sodipodi:guide
       position="250.02518,418.04154"
       orientation="1,0"
       id="guide3"
       inkscape:locked="false" /></sodipodi:namedview><defs
     id="defs1"><inkscape:path-effect
       effect="mirror_symmetry"
       start_point="250.53353,365.29226"
       end_point="250.53353,435.58406"
       center_point="250.53353,400.43816"
       id="path-effect40"
       is_visible="true"
       lpeversion="1.2"
       lpesatellites=""
       mode="free"
       discard_orig_path="false"
       fuse_paths="false"
       oposite_fuse="false"
       split_items="false"
       split_open="false"
       link_styles="false" /><inkscape:path-effect
       effect="mirror_symmetry"
       start_point="256.50891,-11.403776"
       end_point="256.50891,155.88671"
       center_point="256.50891,72.241467"
       id="path-effect38"
       is_visible="true"
       lpeversion="1.2"
       lpesatellites=""
       mode="free"
       discard_orig_path="false"
       fuse_paths="true"
       oposite_fuse="false"
       split_items="false"
       split_open="false"
       link_styles="false" /><inkscape:path-effect
       effect="mirror_symmetry"
       start_point="253.07453,119.14602"
       end_point="253.07453,327.05058"
       center_point="253.07453,223.0983"
       id="path-effect37"
       is_visible="true"
       lpeversion="1.2"
       lpesatellites=""
       mode="free"
       discard_orig_path="false"
       fuse_paths="true"
       oposite_fuse="false"
       split_items="false"
       split_open="false"
       link_styles="false" /><inkscape:path-effect
       effect="mirror_symmetry"
       start_point="251.98266,240.43217"
       end_point="251.98266,423.728"
       center_point="251.98266,332.08008"
       id="path-effect35"
       is_visible="true"
       lpeversion="1.2"
       lpesatellites=""
       mode="free"
       discard_orig_path="false"
       fuse_paths="true"
       oposite_fuse="false"
       split_items="false"
       split_open="false"
       link_styles="false" /><inkscape:path-effect
       effect="mirror_symmetry"
       start_point="251.57298,111.70158"
       end_point="251.57298,414.326"
       center_point="251.57298,263.01379"
       id="path-effect17"
       is_visible="true"
       lpeversion="1.2"
       lpesatellites=""
       mode="free"
       discard_orig_path="false"
       fuse_paths="true"
       oposite_fuse="false"
       split_items="false"
       split_open="false"
       link_styles="false" /><linearGradient
       id="swatch61"
       inkscape:swatch="solid"><stop
         style="stop-color:#5090d0;stop-opacity:1;"
         offset="0"
         id="stop61" /></linearGradient><linearGradient
       id="swatch30"
       inkscape:swatch="solid"><stop
         style="stop-color:#f9f9f9;stop-opacity:1;"
         offset="0"
         id="stop30" /></linearGradient><inkscape:perspective
       sodipodi:type="inkscape:persp3d"
       inkscape:vp_x="44.06818 : 315.96746 : 1"
       inkscape:vp_y="0 : 1000 : 0"
       inkscape:vp_z="480.74134 : 298.68846 : 1"
       inkscape:persp3d-origin="250 : 166.66667 : 1"
       id="perspective17" /></defs><circle
     style="fill:#182096;fill-opacity:1;stroke:none;stroke-width:5.407;stroke-linecap:round;stroke-miterlimit:10;stroke-dasharray:none;stroke-opacity:1"
     id="path3"
     cx="250.60004"
     cy="251.69989"
     r="243.34441" /><path
     id="path1"
     style="color:#000000;-inkscape-font-specification:'JetBrainsMono Nerd Font Bold';display:inline;fill:#ffffff;stroke-width:1.06987;stroke-linecap:round;stroke-miterlimit:10;-inkscape-stroke:none"
     d="m 127.89533,154.1986 c -12.13902,-2e-5 -22.17117,3.38513 -29.515232,10.29297 -7.380131,6.8099 -10.556105,16.28818 -9.432364,27.38513 l 2.96715,31.04591 v 0.007 c 0.478576,4.78576 -0.37211,7.86022 -2.070154,9.84127 -1.597211,1.8634 -4.683864,3.12128 -10.014667,3.12128 h -28.67817 v 28.67389 h 28.67817 c 5.330804,0 8.417458,1.25574 10.014667,3.11915 1.682922,1.96341 2.551172,5.11635 2.070154,10.04677 l -2.96715,30.06327 c -1.120388,11.34392 2.033828,21.00058 9.410955,27.95245 7.338501,7.04523 17.387551,10.50919 29.536641,10.50919 h 16.61261 v -28.87084 h -13.05247 c -4.35884,0 -7.35728,-1.02515 -9.47089,-2.80874 -1.92058,-1.85451 -2.74653,-4.1331 -2.41269,-7.80537 l 2.96501,-30.8425 c 0.72243,-7.51325 -1.33671,-14.26734 -6.09271,-19.47701 -2.48642,-2.80067 -5.64868,-4.96281 -9.3339,-6.6001 3.66035,-1.52211 6.80671,-3.54906 9.29536,-6.19762 4.77801,-5.07662 6.85489,-11.72858 6.13125,-19.12591 v -0.007 l -2.95645,-30.75475 c -0.22465,-3.86564 0.67519,-6.17953 2.58395,-7.89741 l 0.0278,-0.0278 0.03,-0.0256 c 1.97582,-1.87704 4.86135,-2.94573 9.23326,-2.94573 h 13.05247 v -28.67176 z m 228.45558,0 v 28.67176 h 13.05247 c 4.37191,0 7.35653,1.06822 9.48375,2.99283 l 0.0299,0.0278 0.0278,0.0256 c 1.9987,1.71317 2.79854,3.86411 2.34846,7.68976 l -3.95192,30.84251 -0.002,0.015 c -0.86684,7.36816 0.96425,13.96801 5.49758,18.95465 2.45712,2.70286 5.50159,4.78994 8.97209,6.38172 -3.51365,1.71192 -6.58753,3.98005 -9.04488,6.9255 -4.47011,5.22658 -6.29108,11.90386 -5.42479,19.26721 l 0.002,0.0128 3.95407,30.85751 c 0.44044,3.64152 -0.33707,5.82663 -2.37202,7.68761 -2.11547,1.80408 -5.13449,2.83442 -9.52013,2.83442 h -13.05247 v 28.87084 h 2.96287 13.64974 c 8.1486,0 15.36402,-1.52408 21.52362,-4.67551 6.13447,-3.13856 10.86457,-7.69754 13.91734,-13.49775 3.21797,-5.86298 4.34741,-12.73851 3.50449,-20.32476 l -0.004,-0.0299 -3.95621,-30.06326 c -0.59831,-4.96596 0.26718,-8.02361 2.04875,-9.94402 1.78157,-1.9204 4.97647,-3.15768 10.24159,-3.15768 h 29.46598 v -28.67175 h -29.46598 c -5.27079,0 -8.47627,-1.22995 -10.25229,-3.12128 -1.77603,-1.89135 -2.63489,-4.88294 -2.03805,-9.77704 l 3.95621,-31.05874 0.002,-0.0214 c 0.84462,-7.46071 -0.2865,-14.22282 -3.51519,-19.96083 -3.06912,-5.68697 -7.89003,-10.10441 -14.14641,-13.09742 -6.14181,-3.13261 -13.27699,-4.65625 -21.28171,-4.65625 z m -210.16885,19.77887 v 28.27998 h 35.8006 v 83.8723 c 0,11.15451 3.52884,20.58031 10.56058,27.61204 l 0.011,0.011 0.011,0.011 c 7.17182,7.0284 16.78228,10.53917 28.18579,10.53917 h 36.59056 v -28.27784 h -34.81155 c -3.32581,0 -5.54846,-0.89416 -7.33011,-2.64603 -1.67131,-1.89971 -2.56254,-4.33459 -2.56254,-7.84175 V 173.97747 Z m 163.92755,33.82465 c -13.33969,0 -30.53338,2.85541 -38.09769,8.95925 -7.56367,5.97229 -11.39978,14.91602 -11.39978,25.85231 0,9.35121 2.49902,17.32296 7.61055,23.45675 l 0.0128,0.015 0.0128,0.0171 c 5.26154,6.13845 12.78124,9.8353 22.02456,11.09576 h 0.009 l 27.07257,3.55587 c 4.27122,0.61017 7.13529,1.82686 8.74303,3.24546 l 0.0407,0.0342 0.0385,0.0299 c 1.43998,1.18587 2.28209,3.02178 2.28209,6.41812 0,3.44812 -1.06614,5.48459 -3.64793,7.24019 l -0.0236,0.0171 -0.0214,0.0171 c -2.452,1.73686 -6.37614,2.81516 -11.93711,2.81516 h -8.70236 c -5.12271,0 -8.81491,-1.04394 -11.31412,-2.80445 -2.29978,-1.70985 -3.32895,-3.7886 -3.32895,-7.28515 v -2.96286 h -30.25594 v 2.96286 c 0,10.76286 4.25047,19.82223 12.4038,26.25906 l 0.0128,0.011 0.011,0.009 c 8.16678,6.30417 19.10503,9.32105 32.47166,9.32105 h 8.70236 c 14.25076,0 25.4428,-2.8964 33.29588,-9.14978 l 0.004,-0.002 0.002,-0.002 c 7.93687,-6.34952 11.99062,-15.61491 11.99062,-26.84351 0,-10.38738 -2.75788,-19.04451 -8.4369,-25.46911 -5.57642,-6.58919 -13.91666,-10.44454 -24.44153,-11.69091 l -25.51406,-3.56015 -0.0556,-0.007 c -3.58949,-0.35895 -6.07006,-1.25578 -7.56774,-2.36344 -1.17455,-0.95383 -1.83038,-2.29256 -1.83038,-4.97309 0,-2.95151 0.88,-4.74257 2.98642,-6.34746 l 0.0342,-0.0278 0.0342,-0.0257 c 2.0541,-1.66284 5.34809,-2.70169 10.20306,-2.70169 h 9.09839 c 4.45202,0 7.66486,0.95168 9.92691,2.5968 l 0.0385,0.0278 0.0342,0.0236 c 2.25997,1.54089 3.15767,3.15936 3.2583,5.77588 l 0.11132,2.84941 h 30.42677 l -0.0877,-3.04637 c -0.2858,-10.00315 -4.65313,-18.43905 -12.65641,-24.44152 -8.0078,-6.00583 -11.8929,-8.90145 -24.47578,-8.90145 z"
     sodipodi:nodetypes="sccccssccsscccsccsccccccccccccsccsccsccccccsccccccscccssccccssccsscccccsccccssccsccscsccscscccccccccscccsscsccscccsscccscccccscccsscccccccsss" /></svg>
