<?xml version="1.0" encoding="UTF-8" standalone="no"?>
<!-- Created with Inkscape (http://www.inkscape.org/) -->

<svg
   width="500"
   height="500"
   viewBox="0 0 500 500"
   version="1.1"
   id="svg1"
   inkscape:version="1.3.2 (091e20ef0f, 2023-11-25, custom)"
   sodipodi:docname="info.svg"
   xmlns:inkscape="http://www.inkscape.org/namespaces/inkscape"
   xmlns:sodipodi="http://sodipodi.sourceforge.net/DTD/sodipodi-0.dtd"
   xmlns:xlink="http://www.w3.org/1999/xlink"
   xmlns="http://www.w3.org/2000/svg"
   xmlns:svg="http://www.w3.org/2000/svg">
  <sodipodi:namedview
     id="namedview1"
     pagecolor="#505050"
     bordercolor="#eeeeee"
     borderopacity="1"
     inkscape:showpageshadow="0"
     inkscape:pageopacity="0"
     inkscape:pagecheckerboard="0"
     inkscape:deskcolor="#505050"
     inkscape:document-units="px"
     inkscape:zoom="0.96390292"
     inkscape:cx="278.0363"
     inkscape:cy="226.68258"
     inkscape:window-width="1352"
     inkscape:window-height="734"
     inkscape:window-x="4"
     inkscape:window-y="24"
     inkscape:window-maximized="0"
     inkscape:current-layer="svg1"
     showguides="true">
    <sodipodi:guide
       position="250.02518,350.60736"
       orientation="-0.99997769,0.0066803918"
       id="guide30"
       inkscape:locked="false" />
    <sodipodi:guide
       position="66.396728,247.89992"
       orientation="0,-1"
       id="guide53"
       inkscape:locked="false" />
  </sodipodi:namedview>
  <defs
     id="defs1">
    <linearGradient
       id="linearGradient1"
       inkscape:collect="always">
      <stop
         style="stop-color:#9740ff;stop-opacity:1;"
         offset="0"
         id="stop1" />
      <stop
         style="stop-color:#d140ff;stop-opacity:1;"
         offset="1"
         id="stop2" />
    </linearGradient>
    <linearGradient
       id="swatch61"
       inkscape:swatch="solid">
      <stop
         style="stop-color:#5090d0;stop-opacity:1;"
         offset="0"
         id="stop61" />
    </linearGradient>
    <linearGradient
       id="swatch30"
       inkscape:swatch="solid">
      <stop
         style="stop-color:#f9f9f9;stop-opacity:1;"
         offset="0"
         id="stop30" />
    </linearGradient>
    <inkscape:perspective
       sodipodi:type="inkscape:persp3d"
       inkscape:vp_x="44.06818 : 315.96746 : 1"
       inkscape:vp_y="0 : 1000 : 0"
       inkscape:vp_z="480.74134 : 298.68846 : 1"
       inkscape:persp3d-origin="250 : 166.66667 : 1"
       id="perspective17" />
    <linearGradient
       inkscape:collect="always"
       xlink:href="#linearGradient1"
       id="linearGradient2"
       x1="112.50195"
       y1="255.02441"
       x2="487.93359"
       y2="255.02441"
       gradientUnits="userSpaceOnUse"
       gradientTransform="matrix(1.1778211,0,0,1.1778211,-104.3115,-48.443886)" />
  </defs>
  <path
     id="path2"
     style="opacity:1;fill:url(#linearGradient2);fill-opacity:1;stroke:none;stroke-width:12.293;stroke-linejoin:round;stroke-miterlimit:10;stroke-opacity:1"
     d="M 249.2925,30.833597 A 221.09577,221.09577 0 0 0 28.195677,251.9281 221.09577,221.09577 0 0 0 249.2925,473.02491 221.09577,221.09577 0 0 0 470.387,251.9281 221.09577,221.09577 0 0 0 249.2925,30.833597 Z m 7.28087,42.208318 c 10.94723,0 19.59027,2.881021 25.92815,8.642722 6.33788,5.473629 9.50769,12.96381 9.50769,22.470633 0,9.5068 -3.16981,17.14137 -9.50769,22.90309 -6.33788,5.47362 -14.98092,8.21024 -25.92815,8.21024 -10.94725,0 -19.59029,-2.73662 -25.92817,-8.21024 -6.33788,-5.76172 -9.50538,-13.39629 -9.50538,-22.90309 0,-9.506823 3.1675,-16.997004 9.50538,-22.470633 6.33788,-5.761701 14.98092,-8.642722 25.92817,-8.642722 z M 160.64075,175.02466 h 126.61347 v 188.84016 h 73.0295 v 48.83127 H 151.99803 v -48.83127 h 81.23975 V 223.85593 h -72.59703 z" />
</svg>
