<?xml version="1.0" encoding="UTF-8" standalone="no"?>
<!-- Created with Inkscape (http://www.inkscape.org/) -->

<svg
   width="500"
   height="500"
   viewBox="0 0 500 500"
   version="1.1"
   id="svg1"
   inkscape:version="1.3.2 (091e20ef0f, 2023-11-25, custom)"
   sodipodi:docname="ino.svg"
   xml:space="preserve"
   xmlns:inkscape="http://www.inkscape.org/namespaces/inkscape"
   xmlns:sodipodi="http://sodipodi.sourceforge.net/DTD/sodipodi-0.dtd"
   xmlns:xlink="http://www.w3.org/1999/xlink"
   xmlns="http://www.w3.org/2000/svg"
   xmlns:svg="http://www.w3.org/2000/svg"><sodipodi:namedview
     id="namedview1"
     pagecolor="#505050"
     bordercolor="#eeeeee"
     borderopacity="1"
     inkscape:showpageshadow="0"
     inkscape:pageopacity="0"
     inkscape:pagecheckerboard="0"
     inkscape:deskcolor="#505050"
     inkscape:document-units="px"
     inkscape:zoom="1"
     inkscape:cx="201.5"
     inkscape:cy="253.5"
     inkscape:window-width="1352"
     inkscape:window-height="734"
     inkscape:window-x="4"
     inkscape:window-y="24"
     inkscape:window-maximized="1"
     inkscape:current-layer="svg1"
     showguides="true"><sodipodi:guide
       position="250.02518,350.60736"
       orientation="-0.99997769,0.0066803918"
       id="guide30"
       inkscape:locked="false" /><sodipodi:guide
       position="66.396728,247.89992"
       orientation="0,-1"
       id="guide53"
       inkscape:locked="false" /><sodipodi:guide
       position="221.35979,127.71308"
       orientation="0,-1"
       id="guide5"
       inkscape:locked="false" /><sodipodi:guide
       position="96.959247,117.65127"
       orientation="1,0"
       id="guide6"
       inkscape:locked="false" /><sodipodi:guide
       position="400.64293,118.56598"
       orientation="1,0"
       id="guide7"
       inkscape:locked="false" /></sodipodi:namedview><defs
     id="defs1"><linearGradient
       id="swatch61"
       inkscape:swatch="solid"><stop
         style="stop-color:#5090d0;stop-opacity:1;"
         offset="0"
         id="stop61" /></linearGradient><linearGradient
       id="swatch30"
       inkscape:swatch="solid"><stop
         style="stop-color:#f9f9f9;stop-opacity:1;"
         offset="0"
         id="stop30" /></linearGradient><inkscape:perspective
       sodipodi:type="inkscape:persp3d"
       inkscape:vp_x="44.06818 : 315.96746 : 1"
       inkscape:vp_y="0 : 1000 : 0"
       inkscape:vp_z="480.74134 : 298.68846 : 1"
       inkscape:persp3d-origin="250 : 166.66667 : 1"
       id="perspective17" /><inkscape:perspective
       sodipodi:type="inkscape:persp3d"
       inkscape:vp_x="44.06818 : 315.96746 : 1"
       inkscape:vp_y="0 : 1000 : 0"
       inkscape:vp_z="480.74134 : 298.68846 : 1"
       inkscape:persp3d-origin="250 : 166.66667 : 1"
       id="perspective17-2" /><inkscape:perspective
       sodipodi:type="inkscape:persp3d"
       inkscape:vp_x="44.06818 : 315.96746 : 1"
       inkscape:vp_y="0 : 1000 : 0"
       inkscape:vp_z="480.74134 : 298.68846 : 1"
       inkscape:persp3d-origin="250 : 166.66667 : 1"
       id="perspective17-0" /><inkscape:perspective
       sodipodi:type="inkscape:persp3d"
       inkscape:vp_x="44.06818 : 315.96746 : 1"
       inkscape:vp_y="0 : 1000 : 0"
       inkscape:vp_z="480.74134 : 298.68846 : 1"
       inkscape:persp3d-origin="250 : 166.66667 : 1"
       id="perspective17-3" /><inkscape:perspective
       sodipodi:type="inkscape:persp3d"
       inkscape:vp_x="44.06818 : 315.96746 : 1"
       inkscape:vp_y="0 : 1000 : 0"
       inkscape:vp_z="480.74134 : 298.68846 : 1"
       inkscape:persp3d-origin="250 : 166.66667 : 1"
       id="perspective17-1" /><radialGradient
       id="a"
       cx="767.179"
       cy="5169.543"
       r="14.989"
       gradientTransform="matrix(0.955,0,0,0.962,-718.112,-4953.917)"
       gradientUnits="userSpaceOnUse"><stop
         offset="0"
         stop-color="#36bac0"
         id="stop1" /><stop
         offset="1"
         stop-color="#2d9094"
         id="stop2" /></radialGradient><linearGradient
       id="swatch16"
       inkscape:swatch="solid"><stop
         style="stop-color:#ffca44;stop-opacity:1;"
         offset="0"
         id="stop16" /></linearGradient><linearGradient
       id="linearGradient13"
       inkscape:collect="always"><stop
         style="stop-color:#38c2c6;stop-opacity:1;"
         offset="0"
         id="stop13" /><stop
         style="stop-color:#38bd64;stop-opacity:1;"
         offset="1"
         id="stop14" /></linearGradient><linearGradient
       id="linearGradient11"
       inkscape:collect="always"><stop
         style="stop-color:#ffca44;stop-opacity:1;"
         offset="0"
         id="stop11" /><stop
         style="stop-color:#ff6e44;stop-opacity:1;"
         offset="1"
         id="stop12" /></linearGradient><inkscape:perspective
       sodipodi:type="inkscape:persp3d"
       inkscape:vp_x="44.06818 : 315.96746 : 1"
       inkscape:vp_y="0 : 1000 : 0"
       inkscape:vp_z="480.74134 : 298.68846 : 1"
       inkscape:persp3d-origin="250 : 166.66667 : 1"
       id="perspective17-9" /><inkscape:perspective
       sodipodi:type="inkscape:persp3d"
       inkscape:vp_x="44.06818 : 315.96746 : 1"
       inkscape:vp_y="0 : 1000 : 0"
       inkscape:vp_z="480.74134 : 298.68846 : 1"
       inkscape:persp3d-origin="250 : 166.66667 : 1"
       id="perspective17-1-3" /><inkscape:perspective
       sodipodi:type="inkscape:persp3d"
       inkscape:vp_x="44.06818 : 315.96746 : 1"
       inkscape:vp_y="0 : 1000 : 0"
       inkscape:vp_z="480.74134 : 298.68846 : 1"
       inkscape:persp3d-origin="250 : 166.66667 : 1"
       id="perspective17-6" /><inkscape:perspective
       sodipodi:type="inkscape:persp3d"
       inkscape:vp_x="44.06818 : 315.96746 : 1"
       inkscape:vp_y="0 : 1000 : 0"
       inkscape:vp_z="480.74134 : 298.68846 : 1"
       inkscape:persp3d-origin="250 : 166.66667 : 1"
       id="perspective17-4" /><inkscape:perspective
       sodipodi:type="inkscape:persp3d"
       inkscape:vp_x="44.06818 : 315.96746 : 1"
       inkscape:vp_y="0 : 1000 : 0"
       inkscape:vp_z="480.74134 : 298.68846 : 1"
       inkscape:persp3d-origin="250 : 166.66667 : 1"
       id="perspective17-5" /><inkscape:perspective
       sodipodi:type="inkscape:persp3d"
       inkscape:vp_x="44.06818 : 315.96746 : 1"
       inkscape:vp_y="0 : 1000 : 0"
       inkscape:vp_z="480.74134 : 298.68846 : 1"
       inkscape:persp3d-origin="250 : 166.66667 : 1"
       id="perspective17-7" /><linearGradient
       inkscape:collect="always"
       xlink:href="#linearGradient11"
       id="linearGradient12"
       x1="-12.877616"
       y1="37.583527"
       x2="562.60352"
       y2="422.63379"
       gradientUnits="userSpaceOnUse"
       gradientTransform="matrix(1.0687783,0,0,1.0687783,-17.178779,-17.396129)" /><linearGradient
       inkscape:collect="always"
       xlink:href="#swatch16"
       id="linearGradient23"
       gradientUnits="userSpaceOnUse"
       gradientTransform="translate(-23.377078,101.2498)"
       x1="144.48632"
       y1="143.78109"
       x2="402.94491"
       y2="143.78109" /><linearGradient
       inkscape:collect="always"
       xlink:href="#linearGradient13"
       id="linearGradient2"
       x1="337.46234"
       y1="298.32864"
       x2="3.3003845"
       y2="53.252625"
       gradientUnits="userSpaceOnUse" /></defs><g
     id="g2"
     transform="matrix(1.0854376,0,0,1.0854376,-20.065622,-20.715411)"><path
       id="path4-7"
       style="color:#000000;fill:url(#linearGradient12);stroke-width:1.06878;stroke-linecap:round;stroke-miterlimit:10;-inkscape-stroke:none"
       d="M 146.13137,32.087051 A 19.977658,19.977658 0 0 0 126.15231,52.06402 v 77.25054 H 48.903864 a 19.977658,19.977658 0 0 0 -19.976969,19.97697 19.977658,19.977658 0 0 0 19.976969,19.97696 h 77.248446 v 59.82654 H 48.903864 A 19.977658,19.977658 0 0 0 28.926895,249.072 19.977658,19.977658 0 0 0 48.903864,269.05105 h 77.248446 v 67.54178 H 48.903864 a 19.977658,19.977658 0 0 0 -19.976969,19.97905 19.977658,19.977658 0 0 0 19.976969,19.97698 h 77.248446 v 77.24844 a 19.977658,19.977658 0 0 0 19.97906,19.97698 19.977658,19.977658 0 0 0 19.97697,-19.97698 v -77.24844 h 59.82653 v 77.24844 a 19.977658,19.977658 0 0 0 19.97698,19.97698 19.977658,19.977658 0 0 0 19.97905,-19.97698 v -77.24844 h 67.54178 v 77.24844 a 19.977658,19.977658 0 0 0 19.97696,19.97698 19.977658,19.977658 0 0 0 19.97905,-19.97698 v -77.24844 h 77.24846 a 19.977658,19.977658 0 0 0 19.97697,-19.97698 19.977658,19.977658 0 0 0 -19.97697,-19.97905 h -77.24846 v -67.54178 h 77.24846 A 19.977658,19.977658 0 0 0 470.61412,249.072 19.977658,19.977658 0 0 0 450.63715,229.09503 h -77.24846 v -59.82654 h 77.24846 a 19.977658,19.977658 0 0 0 19.97697,-19.97696 19.977658,19.977658 0 0 0 -19.97697,-19.97697 H 373.38869 V 52.06402 A 19.977658,19.977658 0 0 0 353.40964,32.087051 19.977658,19.977658 0 0 0 333.43268,52.06402 v 77.25054 H 265.8909 V 52.06402 A 19.977658,19.977658 0 0 0 245.91185,32.087051 19.977658,19.977658 0 0 0 225.93487,52.06402 v 77.25054 H 166.10834 V 52.06402 A 19.977658,19.977658 0 0 0 146.13137,32.087051 Z m 19.97697,137.181439 h 59.82653 v 59.82654 h -59.82653 z m 99.78256,0 h 67.54178 v 59.82654 H 265.8909 Z m -99.78256,99.78256 h 59.82653 v 67.54178 h -59.82653 z m 99.78256,0 h 67.54178 v 67.54178 H 265.8909 Z" /><rect
       style="opacity:1;fill:url(#linearGradient2);stroke-width:54.8148;stroke-linecap:round;stroke-miterlimit:10"
       id="rect3"
       width="306.17233"
       height="306.17233"
       x="98.475769"
       y="98.167496"
       ry="35.640194" /></g><g
     id="g1"
     transform="matrix(13.70828,0,0,13.70828,35.382477,35.406092)"
     style="display:inline"><path
       d="m 4.917,16.337 c 0,5.348 7.354,7.34 10.987,1.894 3.765,5.647 10.824,3.28 10.824,-1.9 0,-5.18 -7.028,-7.675 -10.828,-1.89 -3.6,-5.719 -10.987,-3.453 -10.987,1.9 z m 1.931,0 c 0,-3.86 5.455,-5.078 7.992,0 -2.588,4.889 -7.992,3.859 -7.992,0 z m 10.119,0 c 2.286,-5.178 7.889,-3.751 7.872,0.008 -0.017,3.759 -5.653,4.932 -7.872,-0.008 z"
       style="fill:#ffffff;stroke:none;stroke-width:0.242062px"
       id="path4" /><rect
       x="8.8979998"
       y="15.795"
       width="3.237"
       height="1.067"
       style="fill:#ffffff"
       id="rect4" /><polygon
       points="19.576,15.712 20.644,15.712 20.644,14.644 21.779,14.644 21.779,15.712 22.847,15.712 22.847,16.846 21.779,16.846 21.779,17.914 20.644,17.914 20.644,16.846 19.576,16.846 "
       style="fill:#ffffff"
       id="polygon4" /></g></svg>
