<?xml version="1.0" encoding="UTF-8" standalone="no"?>
<!-- Created with Inkscape (http://www.inkscape.org/) -->

<svg
   width="500"
   height="500"
   viewBox="0 0 500 500"
   version="1.1"
   id="svg1"
   inkscape:version="1.3.2 (091e20ef0f, 2023-11-25, custom)"
   sodipodi:docname="jar.svg"
   xml:space="preserve"
   xmlns:inkscape="http://www.inkscape.org/namespaces/inkscape"
   xmlns:sodipodi="http://sodipodi.sourceforge.net/DTD/sodipodi-0.dtd"
   xmlns="http://www.w3.org/2000/svg"
   xmlns:svg="http://www.w3.org/2000/svg"><sodipodi:namedview
     id="namedview1"
     pagecolor="#505050"
     bordercolor="#eeeeee"
     borderopacity="1"
     inkscape:showpageshadow="0"
     inkscape:pageopacity="0"
     inkscape:pagecheckerboard="0"
     inkscape:deskcolor="#505050"
     inkscape:document-units="px"
     inkscape:zoom="1"
     inkscape:cx="272"
     inkscape:cy="233.5"
     inkscape:window-width="1362"
     inkscape:window-height="744"
     inkscape:window-x="0"
     inkscape:window-y="20"
     inkscape:window-maximized="1"
     inkscape:current-layer="layer1"
     showguides="true"><sodipodi:guide
       position="249.31924,284.34741"
       orientation="-0.99997769,0.0066803918"
       id="guide30"
       inkscape:locked="false" /><sodipodi:guide
       position="66.396728,247.89992"
       orientation="0,-1"
       id="guide53"
       inkscape:locked="false" /></sodipodi:namedview><defs
     id="defs1"><linearGradient
       id="swatch61"
       inkscape:swatch="solid"><stop
         style="stop-color:#5090d0;stop-opacity:1;"
         offset="0"
         id="stop61" /></linearGradient><linearGradient
       id="swatch30"
       inkscape:swatch="solid"><stop
         style="stop-color:#f9f9f9;stop-opacity:1;"
         offset="0"
         id="stop30" /></linearGradient><inkscape:perspective
       sodipodi:type="inkscape:persp3d"
       inkscape:vp_x="44.06818 : 315.96746 : 1"
       inkscape:vp_y="0 : 1000 : 0"
       inkscape:vp_z="480.74134 : 298.68846 : 1"
       inkscape:persp3d-origin="250 : 166.66667 : 1"
       id="perspective17" /><inkscape:perspective
       sodipodi:type="inkscape:persp3d"
       inkscape:vp_x="44.06818 : 315.96746 : 1"
       inkscape:vp_y="0 : 1000 : 0"
       inkscape:vp_z="480.74134 : 298.68846 : 1"
       inkscape:persp3d-origin="250 : 166.66667 : 1"
       id="perspective17-1" /><inkscape:perspective
       sodipodi:type="inkscape:persp3d"
       inkscape:vp_x="44.06818 : 315.96746 : 1"
       inkscape:vp_y="0 : 1000 : 0"
       inkscape:vp_z="480.74134 : 298.68846 : 1"
       inkscape:persp3d-origin="250 : 166.66667 : 1"
       id="perspective17-6" /><inkscape:perspective
       sodipodi:type="inkscape:persp3d"
       inkscape:vp_x="44.06818 : 315.96746 : 1"
       inkscape:vp_y="0 : 1000 : 0"
       inkscape:vp_z="480.74134 : 298.68846 : 1"
       inkscape:persp3d-origin="250 : 166.66667 : 1"
       id="perspective17-4" /></defs><g
     inkscape:label="Layer 1"
     inkscape:groupmode="layer"
     id="layer1"><path
       id="rect2"
       style="fill:#ff1c3c;fill-opacity:1;stroke:none;stroke-width:18.349;stroke-linecap:round;stroke-linejoin:round;stroke-miterlimit:10;stroke-dasharray:none;stroke-opacity:1"
       d="M 47.529297 8.0820312 C 25.241098 8.0820312 7.296875 26.026255 7.296875 48.314453 L 7.296875 449.65625 C 7.296875 471.94445 25.241098 489.88672 47.529297 489.88672 L 449.125 489.88672 C 471.4132 489.88672 489.35742 471.94445 489.35742 449.65625 L 489.35742 48.314453 C 489.35742 26.026255 471.4132 8.0820312 449.125 8.0820312 L 47.529297 8.0820312 z M 93.962891 73.6875 L 405.32227 73.6875 C 413.75519 73.6875 420.54297 80.031818 420.54297 87.914062 L 420.54297 146.12109 C 420.54297 154.00334 413.75519 160.34961 405.32227 160.34961 L 396.78906 160.34961 C 397.12365 162.98697 397.29883 165.66358 397.29883 168.375 L 397.29883 289.96875 C 397.29883 332.53212 355.05438 366.79688 302.58008 366.79688 L 196.66992 366.79688 C 144.19561 366.79687 101.95117 332.53212 101.95117 289.96875 L 101.95117 168.375 C 101.95117 165.66358 102.12635 162.98697 102.46094 160.34961 L 93.962891 160.34961 C 85.52998 160.34961 78.740234 154.00334 78.740234 146.12109 L 78.740234 87.914062 C 78.740234 80.031818 85.52998 73.6875 93.962891 73.6875 z M 89.609375 387.42383 L 410.71484 387.42383 C 420.75041 387.42383 428.83008 392.37536 428.83008 398.52539 L 428.83008 416.88672 C 428.83008 423.03674 420.75041 427.98633 410.71484 427.98633 L 89.609375 427.98633 C 79.573816 427.98633 71.494141 423.03674 71.494141 416.88672 L 71.494141 398.52539 C 71.494141 392.37536 79.573816 387.42383 89.609375 387.42383 z " /></g></svg>
