<?xml version="1.0" encoding="UTF-8" standalone="no"?>
<!-- Created with Inkscape (http://www.inkscape.org/) -->

<svg
   width="500"
   height="500"
   viewBox="0 0 500 500"
   version="1.1"
   id="svg1"
   inkscape:version="1.3.2 (091e20ef0f, 2023-11-25, custom)"
   sodipodi:docname="jar.svg"
   xmlns:inkscape="http://www.inkscape.org/namespaces/inkscape"
   xmlns:sodipodi="http://sodipodi.sourceforge.net/DTD/sodipodi-0.dtd"
   xmlns="http://www.w3.org/2000/svg"
   xmlns:svg="http://www.w3.org/2000/svg">
  <sodipodi:namedview
     id="namedview1"
     pagecolor="#505050"
     bordercolor="#eeeeee"
     borderopacity="1"
     inkscape:showpageshadow="0"
     inkscape:pageopacity="0"
     inkscape:pagecheckerboard="0"
     inkscape:deskcolor="#505050"
     inkscape:document-units="px"
     inkscape:zoom="1"
     inkscape:cx="202"
     inkscape:cy="282.5"
     inkscape:window-width="1362"
     inkscape:window-height="744"
     inkscape:window-x="0"
     inkscape:window-y="20"
     inkscape:window-maximized="1"
     inkscape:current-layer="layer4"
     showguides="true">
    <sodipodi:guide
       position="250.02518,350.60736"
       orientation="-0.99997769,0.0066803918"
       id="guide30"
       inkscape:locked="false" />
    <sodipodi:guide
       position="66.396728,247.89992"
       orientation="0,-1"
       id="guide53"
       inkscape:locked="false" />
  </sodipodi:namedview>
  <defs
     id="defs1">
    <linearGradient
       id="swatch61"
       inkscape:swatch="solid">
      <stop
         style="stop-color:#5090d0;stop-opacity:1;"
         offset="0"
         id="stop61" />
    </linearGradient>
    <linearGradient
       id="swatch30"
       inkscape:swatch="solid">
      <stop
         style="stop-color:#f9f9f9;stop-opacity:1;"
         offset="0"
         id="stop30" />
    </linearGradient>
    <inkscape:perspective
       sodipodi:type="inkscape:persp3d"
       inkscape:vp_x="44.06818 : 315.96746 : 1"
       inkscape:vp_y="0 : 1000 : 0"
       inkscape:vp_z="480.74134 : 298.68846 : 1"
       inkscape:persp3d-origin="250 : 166.66667 : 1"
       id="perspective17" />
  </defs>
  <g
     inkscape:label="Layer 1"
     inkscape:groupmode="layer"
     id="layer1"
     style="display:inline">
    <rect
       style="fill:#47d460;fill-opacity:1;stroke-width:22.062;stroke-linejoin:round;paint-order:markers fill stroke"
       id="rect1"
       width="400.10913"
       height="48.591976"
       x="50.107121"
       y="432.68134"
       rx="20.283075"
       ry="13.298325" />
    <rect
       style="fill:#47d460;fill-opacity:1;stroke-width:15.842;stroke-linejoin:round;paint-order:markers fill stroke"
       id="rect5"
       width="352.45175"
       height="95.88723"
       x="74.553391"
       y="93.430458"
       rx="18.141731"
       ry="7.6662936" />
    <rect
       style="fill:#47d460;fill-opacity:1;stroke-width:22.062;stroke-linejoin:round;paint-order:markers fill stroke"
       id="rect6"
       width="304.54831"
       height="304.54831"
       x="98.487091"
       y="113.19"
       rx="97.670044"
       ry="78.124039" />
  </g>
  <g
     inkscape:groupmode="layer"
     id="layer4"
     inkscape:label="Layer 2">
    <path
       id="path7"
       style="color:#000000;fill:#186325;fill-opacity:1;stroke-width:0.797249;stroke-linejoin:round;-inkscape-stroke:none;paint-order:markers fill stroke"
       d="m 224.77507,129.64241 v 37.69492 c -4.82165,1.52284 -9.46554,3.45477 -13.91604,5.72088 l -26.62374,-26.62374 -39.77836,39.77835 26.35282,26.3528 c -2.38244,4.52458 -4.3996,9.26394 -6.00741,14.18386 h -37.1359 v 56.25586 h 37.09387 c 1.60501,4.93513 3.62489,9.68749 6.00894,14.2259 l -26.31076,26.31077 39.77835,39.77835 26.54277,-26.54277 c 4.47474,2.28402 9.1449,4.2309 13.99546,5.76291 v 37.56879 h 56.25584 v -38.10911 c 4.65875,-1.56646 9.15526,-3.49402 13.45514,-5.75825 l 27.07686,27.07687 39.77835,-39.77835 -27.34936,-27.34936 c 2.15076,-4.22387 3.99028,-8.6259 5.4733,-13.18575 h 38.66811 v -56.25586 h -38.71015 c -1.4853,-4.54487 -3.32276,-8.93352 -5.47175,-13.1437 l 27.39297,-27.39296 -39.77835,-39.77835 -27.16095,27.16096 c -4.27563,-2.24603 -8.74435,-4.16109 -13.37417,-5.71778 v -38.23524 z m 27.33689,82.62424 a 46.036817,42.672743 0 0 1 46.03644,42.67149 46.036817,42.672743 0 0 1 -46.03644,42.67305 46.036817,42.672743 0 0 1 -46.03643,-42.67305 46.036817,42.672743 0 0 1 46.03643,-42.67149 z" />
  </g>
</svg>
