<?xml version="1.0" encoding="UTF-8" standalone="no"?>
<!-- Created with Inkscape (http://www.inkscape.org/) -->

<svg
   width="500"
   height="500"
   viewBox="0 0 500 500"
   version="1.1"
   id="svg1"
   inkscape:version="1.3.2 (091e20ef0f, 2023-11-25, custom)"
   sodipodi:docname="jar.svg"
   xml:space="preserve"
   xmlns:inkscape="http://www.inkscape.org/namespaces/inkscape"
   xmlns:sodipodi="http://sodipodi.sourceforge.net/DTD/sodipodi-0.dtd"
   xmlns="http://www.w3.org/2000/svg"
   xmlns:svg="http://www.w3.org/2000/svg"><sodipodi:namedview
     id="namedview1"
     pagecolor="#505050"
     bordercolor="#eeeeee"
     borderopacity="1"
     inkscape:showpageshadow="0"
     inkscape:pageopacity="0"
     inkscape:pagecheckerboard="0"
     inkscape:deskcolor="#505050"
     inkscape:document-units="px"
     inkscape:zoom="0.35355339"
     inkscape:cx="229.1026"
     inkscape:cy="193.74726"
     inkscape:window-width="1362"
     inkscape:window-height="744"
     inkscape:window-x="0"
     inkscape:window-y="20"
     inkscape:window-maximized="1"
     inkscape:current-layer="layer1"
     showguides="true"><sodipodi:guide
       position="249.31924,284.34741"
       orientation="-0.99997769,0.0066803918"
       id="guide30"
       inkscape:locked="false" /><sodipodi:guide
       position="66.396728,247.89992"
       orientation="0,-1"
       id="guide53"
       inkscape:locked="false" /></sodipodi:namedview><defs
     id="defs1"><linearGradient
       id="swatch61"
       inkscape:swatch="solid"><stop
         style="stop-color:#5090d0;stop-opacity:1;"
         offset="0"
         id="stop61" /></linearGradient><linearGradient
       id="swatch30"
       inkscape:swatch="solid"><stop
         style="stop-color:#f9f9f9;stop-opacity:1;"
         offset="0"
         id="stop30" /></linearGradient><inkscape:perspective
       sodipodi:type="inkscape:persp3d"
       inkscape:vp_x="44.06818 : 315.96746 : 1"
       inkscape:vp_y="0 : 1000 : 0"
       inkscape:vp_z="480.74134 : 298.68846 : 1"
       inkscape:persp3d-origin="250 : 166.66667 : 1"
       id="perspective17" /><inkscape:perspective
       sodipodi:type="inkscape:persp3d"
       inkscape:vp_x="44.06818 : 315.96746 : 1"
       inkscape:vp_y="0 : 1000 : 0"
       inkscape:vp_z="480.74134 : 298.68846 : 1"
       inkscape:persp3d-origin="250 : 166.66667 : 1"
       id="perspective17-1" /><inkscape:perspective
       sodipodi:type="inkscape:persp3d"
       inkscape:vp_x="44.06818 : 315.96746 : 1"
       inkscape:vp_y="0 : 1000 : 0"
       inkscape:vp_z="480.74134 : 298.68846 : 1"
       inkscape:persp3d-origin="250 : 166.66667 : 1"
       id="perspective17-6" /><inkscape:perspective
       sodipodi:type="inkscape:persp3d"
       inkscape:vp_x="44.06818 : 315.96746 : 1"
       inkscape:vp_y="0 : 1000 : 0"
       inkscape:vp_z="480.74134 : 298.68846 : 1"
       inkscape:persp3d-origin="250 : 166.66667 : 1"
       id="perspective17-4" /><inkscape:perspective
       sodipodi:type="inkscape:persp3d"
       inkscape:vp_x="44.06818 : 315.96746 : 1"
       inkscape:vp_y="0 : 1000 : 0"
       inkscape:vp_z="480.74134 : 298.68846 : 1"
       inkscape:persp3d-origin="250 : 166.66667 : 1"
       id="perspective17-61" /></defs><g
     inkscape:label="Layer 1"
     inkscape:groupmode="layer"
     id="layer1"><path
       id="path1-2"
       style="fill:#ffffff;fill-opacity:1;stroke:none;stroke-width:0.642978;stroke-opacity:1"
       d="M 26.111539 2.3659453 C 25.973438 2.370603 25.836259 2.4047348 25.709499 2.4680186 L 3.6017332 13.975886 C 3.2774331 14.139081 3.0727206 14.470686 3.0707902 14.832415 C 3.0707902 14.838115 3.0734126 14.843201 3.0734126 14.848351 C 3.0341618 14.955651 3.1121814 15.134178 3.0064396 15.187049 L 3.1345356 22.881084 C 3.1364656 23.234458 3.3314926 23.558256 3.6422802 23.725307 L 8.3574254 26.190601 L 3.6017332 28.665982 C 3.2774334 28.829178 3.0727206 29.160582 3.0707902 29.522309 C 3.0707902 29.528009 3.0734126 29.533247 3.0734126 29.538447 C 3.0341618 29.645747 3.1123821 29.824074 3.0066413 29.876944 L 3.1345356 37.570978 C 3.1364656 37.924354 3.3314928 38.248151 3.6422802 38.415202 L 25.62316 49.907738 C 25.648903 49.921455 25.676901 49.92733 25.703447 49.938602 L 25.703447 48.988472 C 25.703447 47.982481 26.329797 47.212689 26.919048 46.826372 C 27.194034 46.64609 27.478531 46.518583 27.770534 46.431796 L 27.770534 42.941531 C 27.682693 42.514652 27.636588 42.072243 27.636588 41.616998 L 27.636588 39.349798 L 26.794987 39.819618 L 6.1626457 29.535825 L 10.461025 27.290412 L 25.623362 35.217642 C 25.766853 35.2941 25.923672 35.332625 26.080675 35.332625 L 26.082692 35.332625 C 26.148972 35.407805 26.222892 35.478641 26.311046 35.531326 C 26.462901 35.621926 26.634078 35.667491 26.80588 35.667491 C 26.96417 35.667491 27.121153 35.628188 27.264 35.551095 L 27.636588 35.349369 L 27.636588 34.354657 C 26.767241 33.844179 26.163383 32.907562 26.163383 31.84922 L 26.163383 27.896801 C 26.163383 26.316107 27.496708 24.983473 29.076912 24.983473 L 31.014693 24.983473 L 33.734566 23.465686 L 33.734566 24.983473 L 41.946027 24.983473 L 41.946027 18.883478 L 47.543119 15.760153 L 47.543119 22.374146 L 42.726505 24.983473 L 46.778779 24.983473 L 48.967103 23.798534 C 49.278535 23.629556 49.473436 23.303816 49.473436 22.951082 L 49.473436 14.146143 C 49.473436 14.137843 49.470208 14.130129 49.470208 14.121129 C 49.469564 14.114029 49.472225 14.107648 49.472225 14.099948 C 49.471025 14.072328 49.459833 14.047256 49.457903 14.020266 C 49.449603 13.967586 49.443724 13.914892 49.427644 13.86413 C 49.416064 13.82879 49.401282 13.797325 49.386492 13.763267 C 49.366542 13.718287 49.34674 13.673878 49.31972 13.63275 C 49.29978 13.60063 49.275952 13.571735 49.252142 13.542175 C 49.221902 13.504915 49.190345 13.470244 49.154305 13.437479 C 49.125995 13.411779 49.095698 13.38876 49.063528 13.36627 C 49.042938 13.35213 49.02554 13.332108 49.00301 13.319268 C 48.98242 13.306408 48.958567 13.301341 48.936037 13.290421 C 48.917377 13.280721 48.902652 13.267292 48.883992 13.258952 L 26.519026 2.4409873 C 26.388726 2.3860551 26.24964 2.3612874 26.111539 2.3659453 z M 26.178512 4.3898629 L 46.2787 14.252251 L 41.848593 16.725614 L 21.724602 6.7165715 L 26.178512 4.3898629 z M 13.844778 10.832792 L 32.800574 21.777037 L 26.794987 25.129724 L 6.1626457 14.845931 L 13.844778 10.832792 z M 33.734566 28.877996 L 33.734566 29.854754 L 30.919478 31.379803 A 1.9475065 1.9475065 0 0 1 31.549872 33.04485 C 31.542356 33.108261 31.541601 33.172367 31.538575 33.236288 L 33.734566 32.047113 L 33.734566 35.945268 L 31.531112 37.175393 L 31.531112 39.385302 L 33.734566 38.155782 L 33.734566 44.530729 C 34.278857 44.754357 34.903922 44.886776 35.59569 44.886776 L 37.151805 44.886776 L 46.382185 39.888407 L 46.382185 37.693022 L 41.946027 40.096387 L 41.946027 33.573574 L 47.54332 30.450048 L 47.54332 31.098799 A 1.9475065 1.9475065 0 0 1 47.85761 30.962432 L 47.85761 28.877996 L 46.147981 28.877996 L 46.2787 28.942145 L 41.946027 31.361042 L 41.946027 28.877996 L 33.734566 28.877996 z "
       transform="matrix(9.6820652,0,0,9.6820652,-1.5831535,-2.5029393)" /><path
       id="rect1"
       style="fill:#ff435d;fill-opacity:1;stroke-width:10.3391;stroke-linejoin:round;paint-order:markers fill stroke"
       d="m 293.96535,275.25855 c -4.42505,0 -7.9886,3.56187 -7.9886,7.98693 v 32.67654 c 0,4.42507 3.56355,7.9886 7.9886,7.9886 h 4.45793 c -0.17544,1.48009 -0.26684,2.98302 -0.26684,4.50464 v 68.26168 c 0,23.89489 22.1676,43.13178 49.70278,43.13178 h 55.57332 c 27.53519,0 49.70278,-19.23689 49.70278,-43.13178 v -68.26168 c 0,-1.52162 -0.0913,-3.02455 -0.26685,-4.50464 h 4.47796 c 4.42506,0 7.98693,-3.56353 7.98693,-7.9886 v -32.67654 c 0,-4.42506 -3.56187,-7.98693 -7.98693,-7.98693 z m -2.28484,176.12948 c -5.26602,0 -9.50627,2.77985 -9.50627,6.23245 v 10.30846 c 0,3.45259 4.24025,6.23244 9.50627,6.23244 h 168.49611 c 5.26603,0 9.50461,-2.77985 9.50461,-6.23244 v -10.30846 c 0,-3.4526 -4.23858,-6.23245 -9.50461,-6.23245 z" /></g></svg>
