<?xml version="1.0" encoding="UTF-8" standalone="no"?>
<!-- Uploaded to: SVG Repo, www.svgrepo.com, Generator: SVG Repo Mixer Tools -->

<svg
   fill="#000000"
   version="1.1"
   id="Capa_1"
   width="500"
   height="500"
   viewBox="0 0 51.64125 51.641875"
   xml:space="preserve"
   sodipodi:docname="jest.svg"
   inkscape:version="1.3.2 (091e20ef0f, 2023-11-25, custom)"
   xmlns:inkscape="http://www.inkscape.org/namespaces/inkscape"
   xmlns:sodipodi="http://sodipodi.sourceforge.net/DTD/sodipodi-0.dtd"
   xmlns:xlink="http://www.w3.org/1999/xlink"
   xmlns="http://www.w3.org/2000/svg"
   xmlns:svg="http://www.w3.org/2000/svg"><defs
   id="defs1"><inkscape:path-effect
     effect="offset"
     id="path-effect3"
     is_visible="true"
     lpeversion="1.2"
     linejoin_type="miter"
     unit="mm"
     offset="-0.8"
     miter_limit="4"
     attempt_force_join="false"
     update_on_knot_move="true" /><inkscape:path-effect
     effect="offset"
     id="path-effect2"
     is_visible="true"
     lpeversion="1.2"
     linejoin_type="miter"
     unit="mm"
     offset="2.8"
     miter_limit="4"
     attempt_force_join="false"
     update_on_knot_move="true" /><linearGradient
     id="linearGradient1"
     inkscape:collect="always"><stop
       style="stop-color:#c63d14;stop-opacity:1;"
       offset="0"
       id="stop1" /><stop
       style="stop-color:#eb1e5b;stop-opacity:1;"
       offset="1"
       id="stop2" /></linearGradient><linearGradient
     id="swatch61"
     inkscape:swatch="solid"><stop
       style="stop-color:#5090d0;stop-opacity:1;"
       offset="0"
       id="stop61" /></linearGradient><linearGradient
     id="swatch30"
     inkscape:swatch="solid"><stop
       style="stop-color:#f9f9f9;stop-opacity:1;"
       offset="0"
       id="stop30" /></linearGradient><inkscape:perspective
     sodipodi:type="inkscape:persp3d"
     inkscape:vp_x="44.06818 : 315.96746 : 1"
     inkscape:vp_y="0 : 1000 : 0"
     inkscape:vp_z="480.74134 : 298.68846 : 1"
     inkscape:persp3d-origin="250 : 166.66667 : 1"
     id="perspective17" /><inkscape:perspective
     sodipodi:type="inkscape:persp3d"
     inkscape:vp_x="44.06818 : 315.96746 : 1"
     inkscape:vp_y="0 : 1000 : 0"
     inkscape:vp_z="480.74134 : 298.68846 : 1"
     inkscape:persp3d-origin="250 : 166.66667 : 1"
     id="perspective17-9" /><inkscape:perspective
     sodipodi:type="inkscape:persp3d"
     inkscape:vp_x="44.06818 : 315.96746 : 1"
     inkscape:vp_y="0 : 1000 : 0"
     inkscape:vp_z="480.74134 : 298.68846 : 1"
     inkscape:persp3d-origin="250 : 166.66667 : 1"
     id="perspective17-6" /><inkscape:perspective
     sodipodi:type="inkscape:persp3d"
     inkscape:vp_x="44.06818 : 315.96746 : 1"
     inkscape:vp_y="0 : 1000 : 0"
     inkscape:vp_z="480.74134 : 298.68846 : 1"
     inkscape:persp3d-origin="250 : 166.66667 : 1"
     id="perspective17-9-9" /><inkscape:perspective
     sodipodi:type="inkscape:persp3d"
     inkscape:vp_x="44.06818 : 315.96746 : 1"
     inkscape:vp_y="0 : 1000 : 0"
     inkscape:vp_z="480.74134 : 298.68846 : 1"
     inkscape:persp3d-origin="250 : 166.66667 : 1"
     id="perspective17-0" /><inkscape:perspective
     sodipodi:type="inkscape:persp3d"
     inkscape:vp_x="44.06818 : 315.96746 : 1"
     inkscape:vp_y="0 : 1000 : 0"
     inkscape:vp_z="480.74134 : 298.68846 : 1"
     inkscape:persp3d-origin="250 : 166.66667 : 1"
     id="perspective17-2" /><linearGradient
     inkscape:collect="always"
     xlink:href="#linearGradient1"
     id="linearGradient2"
     x1="0.16025576"
     y1="1.3429593"
     x2="34.470753"
     y2="33.225536"
     gradientUnits="userSpaceOnUse" /></defs><sodipodi:namedview
   id="namedview1"
   pagecolor="#505050"
   bordercolor="#eeeeee"
   borderopacity="1"
   inkscape:showpageshadow="0"
   inkscape:pageopacity="0"
   inkscape:pagecheckerboard="0"
   inkscape:deskcolor="#505050"
   inkscape:zoom="0.834386"
   inkscape:cx="272.65558"
   inkscape:cy="306.21319"
   inkscape:window-width="1352"
   inkscape:window-height="734"
   inkscape:window-x="4"
   inkscape:window-y="24"
   inkscape:window-maximized="1"
   inkscape:current-layer="Capa_1"
   showguides="true"><sodipodi:guide
     position="25.499223,37.901836"
     orientation="1,0"
     id="guide1"
     inkscape:locked="false" /></sodipodi:namedview>

<path
   d="M 27.089,15.786 A 2.606,2.606 0 0 0 24.483,13.18 2.633,2.633 0 0 0 24.209,13.194 L 27.789,2.636 H 12.576 l 3.575,10.549 c -0.052,0 -0.105,-0.005 -0.158,-0.005 a 2.606,2.606 0 0 0 -0.791,5.09 11.383,11.383 0 0 1 -2.049,2.579 10.436,10.436 0 0 1 -3.653,2.267 3.323,3.323 0 0 1 -1.665,-4.23 c 0.077,-0.18 0.155,-0.362 0.229,-0.544 a 2.607,2.607 0 1 0 -2.09,-0.4 20.134,20.134 0 0 0 -1.889,4.787 c -0.354,2.135 0,4.4 1.845,5.681 4.3,2.981 8.969,-1.848 13.891,-3.061 1.784,-0.44 3.742,-0.369 5.313,-1.279 a 4.45,4.45 0 0 0 2.179,-3.088 4.639,4.639 0 0 0 -0.831,-3.522 2.6,2.6 0 0 0 0.606,-1.671 z M 18.6,15.8 v -0.009 a 2.6,2.6 0 0 0 -1.256,-2.23 l 2.844,-5.761 2.85,5.814 a 2.6,2.6 0 0 0 -1.161,2.169 c 0,0.019 0,0.038 0,0.057 z"
   style="fill:url(#linearGradient2)"
   id="path1"
   transform="matrix(1.6948739,0,0,1.6948739,-1.4387793,-0.81543269)" /><path
   d="m 11.945313,2.1835938 h 16.476562 l -3.582031,10.5566402 0.207031,0.04102 c 1.444467,0.273468 2.494134,1.533986 2.496094,3.003906 6.77e-4,0.561719 -0.153801,1.112945 -0.447266,1.591797 l -0.06055,0.0957 0.05859,0.0957 c 0.635026,1.043839 0.872756,2.283181 0.667969,3.486328 -0.254484,1.433379 -1.133138,2.679 -2.388672,3.396485 -1.127872,0.565955 -2.355636,0.909282 -3.613281,1.009765 h -0.0059 l -0.0059,0.002 c -0.62894,0.09099 -1.230504,0.175966 -1.824219,0.322265 -1.623487,0.47658 -3.191546,1.12642 -4.671875,1.931641 -2.110997,1.047998 -4.232146,2.099609 -6.3183592,2.099609 C 7.7670645,29.819606 6.6287395,29.455429 5.6777344,28.775391 3.9242577,27.560633 3.1878763,25.395293 3.6425781,22.65625 3.9189561,21.345751 4.3836927,20.082295 5.0273437,18.898437 5.1441912,18.657752 5.2586452,18.423566 5.3671875,18.191406 l 0.056641,-0.117187 -0.09375,-0.0918 c -2.1941995,-2.161047 -0.1803689,-5.843856 2.8222657,-5.166016 3.0026372,0.677841 3.2379562,4.868113 0.328125,5.876953 l -0.078125,0.02734 -0.1054688,0.25 -0.041016,0.0957 c -0.5216291,1.309374 -0.00618,2.800151 1.2128906,3.507813 l 0.076172,0.04492 0.083984,-0.0332 c 1.1960047,-0.475947 2.2896747,-1.177503 3.2187497,-2.066406 0.599783,-0.564332 1.13381,-1.193654 1.59375,-1.876953 l 0.107422,-0.160156 -0.162109,-0.09961 c -2.326236,-1.441295 -1.72729,-4.985088 0.943359,-5.582031 l 0.199219,-0.04492 z m 1.261718,0.90625 3.279297,9.6757812 0.103516,0.02148 c 0.133191,0.02669 0.266639,0.06243 0.396484,0.107422 l 0.154297,0.05274 3.050781,-6.1718754 3.042969,6.2148434 0.158203,-0.06055 c 0.122861,-0.04743 0.24875,-0.08617 0.376953,-0.117188 l 0.09961,-0.02539 3.289062,-9.6972652 z m 6.976563,5.7402343 -2.265625,4.5839849 0.103515,0.09375 c 2.274678,2.020992 0.519881,5.764188 -2.488281,5.30664 l -0.11914,-0.01953 -0.06445,0.101562 c -0.531976,0.83707 -1.165372,1.606692 -1.888671,2.28711 -1.091926,1.04338 -2.389232,1.847059 -3.8085942,2.359375 l -0.1855469,0.06641 -0.1796875,-0.09375 C 7.6289566,22.720129 6.7841634,20.847677 7.2851562,19.078125 L 7.34375,18.869141 7.1269531,18.84375 c -0.270649,-0.0301 -0.5354702,-0.09784 -0.7890625,-0.199219 l -0.1601562,-0.0625 -0.074219,0.154297 c -0.088029,0.18406 -0.1778692,0.371996 -0.265625,0.552734 -0.5998169,1.098869 -1.0365491,2.277225 -1.3007812,3.509766 -0.2244981,1.353111 -0.3175105,3.868189 1.65625,5.236328 2.6689486,1.852284 5.4940046,0.441336 8.6640626,-1.132812 1.544435,-0.839188 3.176163,-1.509105 4.857422,-1.996094 0.626067,-0.154802 1.264163,-0.247419 1.892578,-0.337891 l 0.01172,-0.002 c 1.138603,-0.08672 2.250101,-0.385999 3.277343,-0.884765 l 0.0059,-0.002 0.0059,-0.0039 c 1.032972,-0.587702 1.75118,-1.60368 1.960938,-2.773437 l 0.103515,-0.578125 -0.05273,0.05273 c 0.02851,-0.692283 -0.113749,-1.383917 -0.423828,-2.009766 l -0.0957,-0.191406 -0.175782,0.121094 c -3.091153,2.132187 -6.559362,-2.109001 -3.855468,-4.714844 l 0.09766,-0.09375 z m -4.191406,4.8027349 c -1.189951,0.0012 -2.151138,0.962206 -2.152344,2.152343 0,1.922295 2.318555,2.88457 3.677734,1.525391 1.359179,-1.359179 0.397091,-3.677735 -1.52539,-3.677734 z m 8.490234,0 c -1.922295,0 -2.88254,2.318632 -1.523438,3.677734 1.359179,1.359179 3.677735,0.397091 3.677735,-1.525391 -0.0012,-1.190178 -0.96416,-2.151137 -2.154297,-2.152343 z m -17.0117189,0.01367 c -1.1901776,0.0012 -2.1530909,0.9644 -2.1542969,2.154297 -0.00488,1.923331 2.3139243,2.887008 3.6757813,1.529297 1.3171585,-1.313149 0.4595227,-3.519325 -1.3378906,-3.664062 v -0.01953 z"
   style="fill:#ffffff;stroke-width:0.30469449;stroke-dasharray:none"
   id="path2"
   transform="matrix(1.6948739,0,0,1.6948739,-1.4387793,-0.81543269)"
   inkscape:path-effect="#path-effect3"
   inkscape:original-d="M 27.726,15.786 A 3.247,3.247 0 0 0 25.083,12.6 L 28.677,2 H 11.689 l 3.6,10.621 a 3.241,3.241 0 0 0 -1,5.918 10.865,10.865 0 0 1 -1.568,1.846 9.827,9.827 0 0 1 -3.16,2.03 2.656,2.656 0 0 1 -1.134,-3.28 l 0.04,-0.093 0.074,-0.175 a 3.245,3.245 0 1 0 -3.34,-0.754 c -0.108,0.231 -0.222,0.465 -0.339,0.706 a 14,14 0 0 0 -1.4,3.8 c -0.465,2.8 0.285,5.043 2.111,6.308 A 5.751,5.751 0 0 0 8.934,30 c 2.132,0 4.289,-1.071 6.4,-2.119 a 23.672,23.672 0 0 1 4.642,-1.918 c 0.577,-0.142 1.171,-0.228 1.8,-0.319 a 9.977,9.977 0 0 0 3.68,-1.028 5.09,5.09 0 0 0 2.487,-3.53 5.255,5.255 0 0 0 -0.691,-3.613 3.223,3.223 0 0 0 0.475,-1.688 z m -1.273,0 a 1.97,1.97 0 1 1 -1.97,-1.97 1.972,1.972 0 0 1 1.97,1.97 z M 26.9,3.273 l -3.174,9.36 a 3.2,3.2 0 0 0 -0.4,0.125 l -3.135,-6.4 -3.145,6.362 A 3.2,3.2 0 0 0 16.627,12.606 L 13.464,3.273 Z M 15.993,13.816 a 1.97,1.97 0 1 1 -1.97,1.97 1.972,1.972 0 0 1 1.97,-1.97 z M 7.471,13.835 A 1.97,1.97 0 1 1 5.5,15.8 1.972,1.972 0 0 1 7.47,13.83 Z m 19.217,7.034 a 3.82,3.82 0 0 1 -1.871,2.646 8.9,8.9 0 0 1 -3.223,0.869 c -0.632,0.091 -1.285,0.185 -1.924,0.343 a 24.587,24.587 0 0 0 -4.9,2.013 c -3.164,1.571 -5.9,2.928 -8.472,1.143 -1.887,-1.308 -1.8,-3.728 -1.58,-5.054 A 12.82,12.82 0 0 1 6,19.376 c 0.092,-0.189 0.182,-0.375 0.27,-0.559 a 3.215,3.215 0 0 0 0.838,0.21 3.965,3.965 0 0 0 2.1,4.655 l 0.245,0.126 0.259,-0.092 a 11.029,11.029 0 0 0 3.875,-2.4 12.078,12.078 0 0 0 1.918,-2.319 3.241,3.241 0 0 0 2.64,-5.627 l 2.038,-4.121 2.059,4.2 a 3.24,3.24 0 0 0 4.088,5 3.957,3.957 0 0 1 0.355,2.422 z" /></svg>
