<?xml version="1.0" encoding="UTF-8" standalone="no"?>
<!-- Created with Inkscape (http://www.inkscape.org/) -->

<svg
   width="500"
   height="500"
   viewBox="0 0 500 500"
   version="1.1"
   id="svg1"
   inkscape:version="1.3.2 (091e20ef0f, 2023-11-25, custom)"
   sodipodi:docname="js.map.svg"
   xmlns:inkscape="http://www.inkscape.org/namespaces/inkscape"
   xmlns:sodipodi="http://sodipodi.sourceforge.net/DTD/sodipodi-0.dtd"
   xmlns="http://www.w3.org/2000/svg"
   xmlns:svg="http://www.w3.org/2000/svg">
  <sodipodi:namedview
     id="namedview1"
     pagecolor="#505050"
     bordercolor="#eeeeee"
     borderopacity="1"
     inkscape:showpageshadow="0"
     inkscape:pageopacity="0"
     inkscape:pagecheckerboard="0"
     inkscape:deskcolor="#505050"
     inkscape:document-units="px"
     inkscape:zoom="0.96390292"
     inkscape:cx="279.07375"
     inkscape:cy="234.98217"
     inkscape:window-width="1362"
     inkscape:window-height="744"
     inkscape:window-x="0"
     inkscape:window-y="20"
     inkscape:window-maximized="1"
     inkscape:current-layer="layer1"
     showguides="true">
    <sodipodi:guide
       position="250.02518,350.60736"
       orientation="-0.99997769,0.0066803918"
       id="guide30"
       inkscape:locked="false" />
    <sodipodi:guide
       position="66.396728,247.89992"
       orientation="0,-1"
       id="guide53"
       inkscape:locked="false" />
  </sodipodi:namedview>
  <defs
     id="defs1">
    <linearGradient
       id="swatch61"
       inkscape:swatch="solid">
      <stop
         style="stop-color:#5090d0;stop-opacity:1;"
         offset="0"
         id="stop61" />
    </linearGradient>
    <linearGradient
       id="swatch30"
       inkscape:swatch="solid">
      <stop
         style="stop-color:#f9f9f9;stop-opacity:1;"
         offset="0"
         id="stop30" />
    </linearGradient>
    <inkscape:perspective
       sodipodi:type="inkscape:persp3d"
       inkscape:vp_x="44.06818 : 315.96746 : 1"
       inkscape:vp_y="0 : 1000 : 0"
       inkscape:vp_z="480.74134 : 298.68846 : 1"
       inkscape:persp3d-origin="250 : 166.66667 : 1"
       id="perspective17" />
  </defs>
  <g
     inkscape:label="Layer 1"
     inkscape:groupmode="layer"
     id="layer1">
    <path
       id="path1"
       style="color:#000000;fill:#ffc340;stroke-width:1.05133;stroke-linejoin:round;-inkscape-stroke:none;paint-order:markers fill stroke"
       d="m 133.6166,114.66674 c -11.96757,0 -21.60152,9.63395 -21.60152,21.60152 v 318.10503 c 0,11.96759 9.63395,21.60153 21.60152,21.60153 h 318.10505 c 11.96758,0 21.60152,-9.63394 21.60152,-21.60153 V 136.26826 c 0,-11.96757 -9.63394,-21.60152 -21.60152,-21.60152 z m 105.00969,69.17211 h 20.94241 a 12.369597,12.369597 0 0 1 12.36749,12.36747 v 124.64615 c 0,19.07757 -4.77609,35.58355 -15.27713,47.4597 -10.50105,11.87618 -26.26259,17.89518 -43.76979,17.89518 -12.56057,0 -25.58242,-3.09984 -37.65071,-10.3408 a 12.369597,12.369597 0 0 1 -5.17246,-15.07179 l 6.05746,-15.64263 a 12.369597,12.369597 0 0 1 17.06561,-6.5975 c 4.74706,2.37352 14.09912,4.49689 19.19496,4.49689 5.62213,0 7.80622,-1.28681 9.85006,-3.80901 2.04382,-2.52215 4.02257,-7.63422 4.02257,-16.11901 V 196.20632 a 12.369597,12.369597 0 0 1 12.36953,-12.36747 z m 106.2253,50.96686 c 14.32333,0 28.17491,2.47181 40.31396,7.50509 a 12.369597,12.369597 0 0 1 7.13548,14.8952 l -4.79465,16.40032 a 12.369597,12.369597 0 0 1 -15.86849,8.23404 c -9.08538,-3.10231 -20.26971,-5.1396 -28.80477,-5.1396 -7.5374,0 -12.90121,1.60224 -15.26685,3.0041 -2.36563,1.40183 -1.885,1.15552 -1.885,2.03694 0,0.27063 -0.0326,0.23693 -0.0554,0.22997 0.0182,-0.0101 0.0467,-0.005 0.10471,0.0617 0.25494,0.29046 1.49937,1.31798 3.92606,2.38807 4.85337,2.1402 13.6624,4.14813 23.18467,6.694 9.5223,2.54591 20.03259,5.66165 29.24216,12.62212 9.20955,6.96047 16.26479,18.99602 16.26479,33.51523 0,14.60971 -6.67712,28.08935 -17.85617,36.56857 -11.17906,8.47922 -26.00361,12.38597 -42.95663,12.38597 -17.28381,0 -35.55471,-3.79467 -51.29336,-10.9486 a 12.369597,12.369597 0 0 1 -6.75356,-14.73092 l 4.79463,-16.40032 a 12.369597,12.369597 0 0 1 16.76994,-7.88702 c 10.94902,4.72309 27.39094,8.07182 37.99568,8.07182 6.76485,0 11.11712,-1.4763 12.73094,-2.52977 1.61381,-1.05346 1.39424,-0.61455 1.39424,-2.51128 0,-1.21485 -0.0132,-0.9261 -0.34497,-1.33469 -0.33185,-0.40858 -1.49139,-1.42097 -3.82954,-2.51127 -4.67634,-2.18065 -13.32191,-4.18734 -22.73294,-6.59751 -9.41104,-2.41012 -19.82583,-5.25591 -29.0635,-11.92395 -9.23766,-6.66809 -16.44549,-18.55848 -16.44549,-32.89099 0,-15.10488 7.4574,-28.80283 19.27504,-37.13738 11.81763,-8.33454 27.23519,-12.06975 44.81906,-12.06975 z" />
    <path
       id="path3"
       style="color:#000000;fill:#ffc340;stroke-width:1.05133;stroke-linejoin:round;-inkscape-stroke:none;paint-order:markers fill stroke"
       d="m 89.46177,70.511928 c -11.967572,0 -21.601519,9.633958 -21.601519,21.601531 V 410.21849 c 0,11.06059 8.259797,20.02581 18.954715,21.33665 -9.82e-4,-0.10592 -0.03081,-0.20378 -0.03081,-0.31006 V 113.14004 c 0,-11.96758 9.633948,-21.601533 21.601514,-21.601533 h 318.10506 c 0.90744,0 1.76935,0.15729 2.64679,0.264893 -0.16896,-11.819691 -9.70939,-21.291472 -21.57072,-21.291472 z" />
    <path
       id="path4"
       style="color:#000000;fill:#ffc340;stroke-width:1.05133;stroke-linejoin:round;-inkscape-stroke:none;paint-order:markers fill stroke"
       d="m 49.511269,28.458769 c -11.967571,0 -21.601519,9.633959 -21.601519,21.601531 v 318.10505 c 0,11.06057 8.259797,20.0258 18.954715,21.33663 -9.82e-4,-0.10592 -0.03081,-0.20376 -0.03081,-0.31005 V 71.086879 c 0,-11.967572 9.633949,-21.601531 21.60152,-21.601531 H 386.54022 c 0.90746,0 1.76937,0.157289 2.6468,0.264892 -0.16894,-11.819692 -9.70938,-21.291471 -21.57072,-21.291471 z" />
  </g>
</svg>
