<?xml version="1.0" encoding="UTF-8" standalone="no"?>
<!-- Created with Inkscape (http://www.inkscape.org/) -->

<svg
   width="500"
   height="500"
   viewBox="0 0 500 500"
   version="1.1"
   id="svg1"
   inkscape:version="1.3.2 (091e20ef0f, 2023-11-25, custom)"
   sodipodi:docname="json.svg"
   xml:space="preserve"
   xmlns:inkscape="http://www.inkscape.org/namespaces/inkscape"
   xmlns:sodipodi="http://sodipodi.sourceforge.net/DTD/sodipodi-0.dtd"
   xmlns:xlink="http://www.w3.org/1999/xlink"
   xmlns="http://www.w3.org/2000/svg"
   xmlns:svg="http://www.w3.org/2000/svg"><sodipodi:namedview
     id="namedview1"
     pagecolor="#505050"
     bordercolor="#eeeeee"
     borderopacity="1"
     inkscape:showpageshadow="0"
     inkscape:pageopacity="0"
     inkscape:pagecheckerboard="0"
     inkscape:deskcolor="#505050"
     inkscape:document-units="px"
     inkscape:zoom="0.68158229"
     inkscape:cx="199.5357"
     inkscape:cy="197.33494"
     inkscape:window-width="1362"
     inkscape:window-height="744"
     inkscape:window-x="0"
     inkscape:window-y="20"
     inkscape:window-maximized="1"
     inkscape:current-layer="svg1"
     showguides="true"><sodipodi:guide
       position="250.02518,350.60736"
       orientation="-0.99997769,0.0066803918"
       id="guide30"
       inkscape:locked="false" /><sodipodi:guide
       position="447.5221,247.89992"
       orientation="0,-1"
       id="guide53"
       inkscape:locked="false" /></sodipodi:namedview><defs
     id="defs1"><linearGradient
       id="linearGradient17"
       inkscape:collect="always"><stop
         style="stop-color:#ff9934;stop-opacity:0.97312492;"
         offset="0"
         id="stop17" /><stop
         style="stop-color:#f3115e;stop-opacity:1;"
         offset="0.79984069"
         id="stop16" /></linearGradient><linearGradient
       id="linearGradient14"
       inkscape:collect="always"><stop
         style="stop-color:#8d11f3;stop-opacity:1;"
         offset="0.20015931"
         id="stop14" /><stop
         style="stop-color:#ff8834;stop-opacity:0.97312492;"
         offset="1"
         id="stop13" /></linearGradient><linearGradient
       id="linearGradient4"
       x1="-683.873"
       y1="-565.884"
       x2="-664.125"
       y2="-585.635"
       gradientTransform="matrix(0.999, 0, 0, -0.999, 688.969, -558.754)"
       gradientUnits="userSpaceOnUse"><stop
         offset="0"
         id="stop3"
         style="stop-color:#df6c00;stop-opacity:1;" /><stop
         offset="1"
         stop-color="#ffffff"
         id="stop4"
         style="stop-color:#959595;stop-opacity:1;" /></linearGradient><linearGradient
       id="swatch61"
       inkscape:swatch="solid"><stop
         style="stop-color:#5090d0;stop-opacity:1;"
         offset="0"
         id="stop61" /></linearGradient><linearGradient
       id="swatch30"
       inkscape:swatch="solid"><stop
         style="stop-color:#f9f9f9;stop-opacity:1;"
         offset="0"
         id="stop30" /></linearGradient><inkscape:perspective
       sodipodi:type="inkscape:persp3d"
       inkscape:vp_x="44.06818 : 315.96746 : 1"
       inkscape:vp_y="0 : 1000 : 0"
       inkscape:vp_z="480.74134 : 298.68846 : 1"
       inkscape:persp3d-origin="250 : 166.66667 : 1"
       id="perspective17" /><linearGradient
       id="a"
       x1="-683.873"
       y1="-565.884"
       x2="-664.125"
       y2="-585.635"
       gradientTransform="matrix(0.999, 0, 0, -0.999, 688.969, -558.754)"
       gradientUnits="userSpaceOnUse"><stop
         offset="0"
         id="stop1" /><stop
         offset="1"
         stop-color="#ffffff"
         id="stop2" /></linearGradient><linearGradient
       id="b"
       x1="-663.231"
       y1="-584.741"
       x2="-682.979"
       y2="-564.99"
       xlink:href="#linearGradient4" /><linearGradient
       inkscape:collect="always"
       xlink:href="#linearGradient14"
       id="linearGradient7"
       x1="10.269234"
       y1="6.7126727"
       x2="24.669367"
       y2="23.302303"
       gradientUnits="userSpaceOnUse" /><linearGradient
       inkscape:collect="always"
       xlink:href="#linearGradient17"
       id="linearGradient9"
       x1="2"
       y1="16.008499"
       x2="25.209816"
       y2="18.863724"
       gradientUnits="userSpaceOnUse" /></defs><path
     id="path14"
     style="fill:url(#linearGradient9);stroke:none;stroke-opacity:1;fill-opacity:1;opacity:1"
     d="M 15.971058 2.0169854 A 14.116 14.116 0 0 0 2.0000065 16.024031 C 2.0000065 25.018022 9.812064 30.000039 15.971058 30.000039 C 15.963179 29.998908 15.952236 29.996737 15.944151 29.995554 C 14.698322 29.952995 6.8619707 28.780178 6.8609906 17.965002 C 6.8609906 11.208009 11.876056 7.8339716 15.969052 9.2449702 A 7.17 7.17 0 0 0 15.960083 9.2503988 C 15.96072 9.2506157 15.961333 9.2507718 15.961971 9.2509889 A 7.106 7.106 0 0 1 20.07699 16.066988 A 7.132 7.132 0 0 1 15.976014 22.842036 C 15.97638 22.842534 15.976711 22.842954 15.977076 22.843452 A 7.106 7.106 0 0 0 15.995015 22.853955 C 19.632011 24.405954 25.22404 20.773041 25.22404 14.098047 C 25.22404 5.7848025 20.283383 2.8504656 17.513851 2.168043 C 16.970794 2.0697321 16.45093 2.0169854 15.971058 2.0169854 z "
     transform="matrix(16.549986,0,0,16.549986,-12.385236,-13.556862)" /><path
     d="M 15.969,9.245 C 11.876,7.834 6.861,11.208 6.861,17.965 6.862,29 15.038,30 16.029,30 A 14.116,14.116 0 0 0 30,15.994 C 30,7 22.188,2.017 16.029,2.017 c 1.706,-0.236 9.195,1.846 9.195,12.081 0,6.675 -5.592,10.308 -9.229,8.756 A 7.106,7.106 0 0 1 11.88,16.038 7.17,7.17 0 0 1 15.969,9.245 Z"
     style="display:inline;fill:url(#linearGradient7);fill-opacity:1;opacity:1"
     id="path15"
     transform="matrix(16.549986,0,0,16.549986,-12.385236,-13.556862)" /></svg>
