<?xml version="1.0" encoding="UTF-8" standalone="no"?>
<!-- Created with Inkscape (http://www.inkscape.org/) -->

<svg
   width="500"
   height="500"
   viewBox="0 0 500 500"
   version="1.1"
   id="svg1"
   inkscape:version="1.3.2 (091e20ef0f, 2023-11-25, custom)"
   sodipodi:docname="layout.js.svg"
   xml:space="preserve"
   xmlns:inkscape="http://www.inkscape.org/namespaces/inkscape"
   xmlns:sodipodi="http://sodipodi.sourceforge.net/DTD/sodipodi-0.dtd"
   xmlns="http://www.w3.org/2000/svg"
   xmlns:svg="http://www.w3.org/2000/svg"><sodipodi:namedview
     id="namedview1"
     pagecolor="#505050"
     bordercolor="#eeeeee"
     borderopacity="1"
     inkscape:showpageshadow="0"
     inkscape:pageopacity="0"
     inkscape:pagecheckerboard="0"
     inkscape:deskcolor="#505050"
     inkscape:document-units="px"
     inkscape:zoom="0.96390292"
     inkscape:cx="279.59247"
     inkscape:cy="234.98217"
     inkscape:window-width="1362"
     inkscape:window-height="744"
     inkscape:window-x="0"
     inkscape:window-y="20"
     inkscape:window-maximized="1"
     inkscape:current-layer="layer1"
     showguides="true"><sodipodi:guide
       position="250.02518,350.60736"
       orientation="-0.99997769,0.0066803918"
       id="guide30"
       inkscape:locked="false" /><sodipodi:guide
       position="66.396728,247.89992"
       orientation="0,-1"
       id="guide53"
       inkscape:locked="false" /></sodipodi:namedview><defs
     id="defs1"><linearGradient
       id="swatch61"
       inkscape:swatch="solid"><stop
         style="stop-color:#5090d0;stop-opacity:1;"
         offset="0"
         id="stop61" /></linearGradient><linearGradient
       id="swatch30"
       inkscape:swatch="solid"><stop
         style="stop-color:#f9f9f9;stop-opacity:1;"
         offset="0"
         id="stop30" /></linearGradient><inkscape:perspective
       sodipodi:type="inkscape:persp3d"
       inkscape:vp_x="44.06818 : 315.96746 : 1"
       inkscape:vp_y="0 : 1000 : 0"
       inkscape:vp_z="480.74134 : 298.68846 : 1"
       inkscape:persp3d-origin="250 : 166.66667 : 1"
       id="perspective17" /><inkscape:perspective
       sodipodi:type="inkscape:persp3d"
       inkscape:vp_x="44.06818 : 315.96746 : 1"
       inkscape:vp_y="0 : 1000 : 0"
       inkscape:vp_z="480.74134 : 298.68846 : 1"
       inkscape:persp3d-origin="250 : 166.66667 : 1"
       id="perspective17-3" /></defs><g
     inkscape:label="Layer 1"
     inkscape:groupmode="layer"
     id="layer1"><path
       id="path33"
       style="color:#000000;fill:#ffc340;stroke-width:1.16928;stroke-linejoin:round;-inkscape-stroke:none;paint-order:markers fill stroke"
       d="M 50.826172 9.9414062 L 8.1640625 48.775391 L 109.45508 140.97461 L 109.45508 161.92188 L 152.80664 138.85938 A 32.471745 32.471745 0 0 1 169.78906 135.56836 L 169.78906 129.59961 A 30.170005 27.462072 0 0 0 160.95312 110.18359 L 50.826172 9.9414062 z M 221.24219 10.037109 L 221.24219 137.51172 L 226.16211 118.12891 A 32.471745 32.471745 0 0 1 257.63281 93.648438 L 281.57422 93.648438 L 281.57422 10.037109 L 221.24219 10.037109 z M 417.71484 104.67773 A 30.170005 27.462072 0 0 0 396.38281 112.72266 L 357.90234 147.74805 L 410.81641 177.25 L 430.20898 159.59766 L 496.95508 159.59766 L 496.95508 104.67773 L 417.71484 104.67773 z M 169.78906 239.61523 L 156.38086 246.64648 L 169.78906 253.84961 L 169.78906 239.61523 z M 324.49023 242.79102 L 324.49023 252.76367 L 333.91602 247.83789 L 324.49023 242.79102 z M 281.57422 299.37695 L 261.66797 374.95117 A 32.471745 32.471745 0 0 1 230.26953 399.14844 L 221.24219 399.14844 L 221.24219 491.89453 L 281.57422 491.89453 L 281.57422 299.37695 z M 384.82422 330.39844 L 337.40039 355.62695 A 32.471745 32.471745 0 0 1 324.49023 359.02344 L 324.49023 426.63867 L 384.82422 426.63867 L 384.82422 330.39844 z M 109.45508 333.99805 L 109.45508 425.61523 L 169.78906 425.61523 L 169.78906 383.89648 A 32.471745 32.471745 0 0 1 165.0332 361.82031 A 32.471745 32.471745 0 0 1 152.24609 357.85547 L 109.45508 333.99805 z " /><g
       id="text5"
       transform="translate(-6.603359,2.2122471)" /><path
       d="M 174.65993,165.3118 53.400666,229.81903 v 29.85926 L 174.65993,327.28413 V 287.56569 L 87.099794,240.5233 v 7.04227 l 87.560136,-45.91563 z m 28.51469,199.15554 h 33.69912 L 300.23963,123.90322 H 264.23629 Z M 328.75404,324.7489 450.01331,260.24167 V 230.38242 L 328.75404,162.77658 v 39.71843 l 87.84816,47.0424 v -7.04227 l -87.84816,45.91563 z"
       id="path1"
       style="-inkscape-font-specification:'System-ui Bold';display:inline;fill:#ffc340;fill-opacity:1;stroke-width:10.437;stroke-linejoin:round;stroke-opacity:1;paint-order:markers fill stroke;stroke:#ffc340;stroke-dasharray:none"
       aria-label="&lt;/&gt;"
       transform="translate(-6.603359,2.2122471)" /></g></svg>
