<?xml version="1.0" encoding="UTF-8" standalone="no"?>
<!-- Created with Inkscape (http://www.inkscape.org/) -->

<svg
   width="500"
   height="500"
   viewBox="0 0 500 500"
   version="1.1"
   id="svg1"
   inkscape:version="1.3.2 (091e20ef0f, 2023-11-25, custom)"
   sodipodi:docname="less.svg"
   xml:space="preserve"
   xmlns:inkscape="http://www.inkscape.org/namespaces/inkscape"
   xmlns:sodipodi="http://sodipodi.sourceforge.net/DTD/sodipodi-0.dtd"
   xmlns="http://www.w3.org/2000/svg"
   xmlns:svg="http://www.w3.org/2000/svg"><sodipodi:namedview
     id="namedview1"
     pagecolor="#505050"
     bordercolor="#eeeeee"
     borderopacity="1"
     inkscape:showpageshadow="0"
     inkscape:pageopacity="0"
     inkscape:pagecheckerboard="0"
     inkscape:deskcolor="#505050"
     inkscape:document-units="px"
     inkscape:zoom="0.96390292"
     inkscape:cx="251.58135"
     inkscape:cy="226.68258"
     inkscape:window-width="1362"
     inkscape:window-height="744"
     inkscape:window-x="0"
     inkscape:window-y="20"
     inkscape:window-maximized="0"
     inkscape:current-layer="svg1"
     showguides="true"><sodipodi:guide
       position="250.02518,350.60736"
       orientation="-0.99997769,0.0066803918"
       id="guide30"
       inkscape:locked="false" /><sodipodi:guide
       position="66.396728,247.89992"
       orientation="0,-1"
       id="guide53"
       inkscape:locked="false" /><sodipodi:guide
       position="-144.20539,249.97482"
       orientation="0,-1"
       id="guide2"
       inkscape:locked="false" /><sodipodi:guide
       position="250.02518,418.04154"
       orientation="1,0"
       id="guide3"
       inkscape:locked="false" /></sodipodi:namedview><defs
     id="defs1"><inkscape:path-effect
       effect="mirror_symmetry"
       start_point="250.53353,365.29226"
       end_point="250.53353,435.58406"
       center_point="250.53353,400.43816"
       id="path-effect40"
       is_visible="true"
       lpeversion="1.2"
       lpesatellites=""
       mode="free"
       discard_orig_path="false"
       fuse_paths="false"
       oposite_fuse="false"
       split_items="false"
       split_open="false"
       link_styles="false" /><inkscape:path-effect
       effect="mirror_symmetry"
       start_point="256.50891,-11.403776"
       end_point="256.50891,155.88671"
       center_point="256.50891,72.241467"
       id="path-effect38"
       is_visible="true"
       lpeversion="1.2"
       lpesatellites=""
       mode="free"
       discard_orig_path="false"
       fuse_paths="true"
       oposite_fuse="false"
       split_items="false"
       split_open="false"
       link_styles="false" /><inkscape:path-effect
       effect="mirror_symmetry"
       start_point="253.07453,119.14602"
       end_point="253.07453,327.05058"
       center_point="253.07453,223.0983"
       id="path-effect37"
       is_visible="true"
       lpeversion="1.2"
       lpesatellites=""
       mode="free"
       discard_orig_path="false"
       fuse_paths="true"
       oposite_fuse="false"
       split_items="false"
       split_open="false"
       link_styles="false" /><inkscape:path-effect
       effect="mirror_symmetry"
       start_point="251.98266,240.43217"
       end_point="251.98266,423.728"
       center_point="251.98266,332.08008"
       id="path-effect35"
       is_visible="true"
       lpeversion="1.2"
       lpesatellites=""
       mode="free"
       discard_orig_path="false"
       fuse_paths="true"
       oposite_fuse="false"
       split_items="false"
       split_open="false"
       link_styles="false" /><inkscape:path-effect
       effect="mirror_symmetry"
       start_point="251.57298,111.70158"
       end_point="251.57298,414.326"
       center_point="251.57298,263.01379"
       id="path-effect17"
       is_visible="true"
       lpeversion="1.2"
       lpesatellites=""
       mode="free"
       discard_orig_path="false"
       fuse_paths="true"
       oposite_fuse="false"
       split_items="false"
       split_open="false"
       link_styles="false" /><linearGradient
       id="swatch61"
       inkscape:swatch="solid"><stop
         style="stop-color:#5090d0;stop-opacity:1;"
         offset="0"
         id="stop61" /></linearGradient><linearGradient
       id="swatch30"
       inkscape:swatch="solid"><stop
         style="stop-color:#f9f9f9;stop-opacity:1;"
         offset="0"
         id="stop30" /></linearGradient><inkscape:perspective
       sodipodi:type="inkscape:persp3d"
       inkscape:vp_x="44.06818 : 315.96746 : 1"
       inkscape:vp_y="0 : 1000 : 0"
       inkscape:vp_z="480.74134 : 298.68846 : 1"
       inkscape:persp3d-origin="250 : 166.66667 : 1"
       id="perspective17" /></defs><circle
     style="display:none;fill:#182096;fill-opacity:1;stroke:none;stroke-width:5.407;stroke-linecap:round;stroke-miterlimit:10;stroke-dasharray:none;stroke-opacity:1"
     id="path3"
     cx="250.60004"
     cy="251.69989"
     r="243.34441" /><path
     id="path1"
     style="color:#000000;-inkscape-font-specification:'JetBrainsMono Nerd Font Bold';display:inline;fill:#2058f1;stroke-width:1.32276;stroke-linecap:round;stroke-miterlimit:10;-inkscape-stroke:none;fill-opacity:1"
     d="m 103.50584,127.80395 c -14.55522,-2e-5 -26.58421,4.31557 -35.390064,13.12211 -8.849102,8.68167 -12.657235,20.76516 -11.30982,34.91223 l 3.557744,39.57922 v 0.009 c 0.573833,6.10118 -0.446177,10.02069 -2.482206,12.54625 -1.915127,2.37558 -5.61616,3.9792 -12.008027,3.9792 h -34.38639 v 36.55522 h 34.38639 c 6.391869,0 10.092903,1.60089 12.008027,3.97648 2.017897,2.50308 3.058967,6.52264 2.482206,12.80824 l -3.557744,38.32648 c -1.343395,14.46192 2.438649,26.77282 11.28415,35.63549 8.799186,8.98169 20.84844,13.39775 35.415734,13.39775 h 19.91925 v -36.8063 H 107.7746 c -5.22644,0 -8.821698,-1.30692 -11.35601,-3.58075 -2.30286,-2.36425 -3.29321,-5.26913 -2.892921,-9.95076 l 3.555177,-39.3199 c 0.866226,-9.57835 -1.602774,-18.18887 -7.305427,-24.83048 -2.981328,-3.57046 -6.773017,-6.32689 -11.191758,-8.41421 4.388921,-1.94048 8.161545,-4.52456 11.145546,-7.9011 5.729045,-6.47199 8.219316,-14.95231 7.351639,-24.38288 v -0.009 l -3.544913,-39.20803 c -0.269366,-4.92815 0.809582,-7.87804 3.098269,-10.0681 l 0.03333,-0.0354 0.03597,-0.0326 c 2.369096,-2.39296 5.828978,-3.75539 11.071088,-3.75539 h 15.65049 v -36.55251 z m 273.92831,0 v 36.55251 h 15.65049 c 5.24211,0 8.8208,1.36183 11.37143,3.81544 l 0.0358,0.0354 0.0333,0.0326 c 2.39653,2.18405 3.35557,4.9262 2.8159,9.80337 l -4.73852,39.31991 -0.002,0.0191 c -1.03938,9.39338 1.15618,17.80727 6.59184,24.16454 2.94619,3.44577 6.59665,6.10651 10.75793,8.1358 -4.21302,2.18246 -7.89874,5.07401 -10.84521,8.82905 -5.35986,6.66317 -7.54328,15.17577 -6.50456,24.56302 l 0.002,0.0163 4.7411,39.33904 c 0.52811,4.64243 -0.40416,7.42814 -2.84416,9.80063 -2.53654,2.29995 -6.15648,3.61349 -11.41505,3.61349 h -15.65049 v 36.80631 h 3.55261 16.36664 c 9.77053,0 18.42214,-1.94299 25.80777,-5.96063 7.3555,-4.00123 13.0271,-9.81329 16.68751,-17.20775 3.85848,-7.47449 5.21273,-16.23983 4.20203,-25.91124 l -0.005,-0.0381 -4.74367,-38.32648 c -0.7174,-6.33091 0.32036,-10.22898 2.45654,-12.67724 2.13618,-2.44824 5.96701,-4.0256 12.28012,-4.0256 h 35.33101 V 231.95103 H 454.0388 c -6.31991,0 -10.16342,-1.56802 -12.29295,-3.9792 -2.12954,-2.41121 -3.15935,-6.22507 -2.44371,-12.46437 l 4.74367,-39.59557 0.002,-0.0273 c 1.01273,-9.51137 -0.34353,-18.13212 -4.21487,-25.44729 -3.68001,-7.25009 -9.4605,-12.88171 -16.96217,-16.69738 -7.3643,-3.99365 -15.9197,-5.93607 -25.51771,-5.93607 z m -252.00171,25.21531 v 36.05304 h 42.92649 v 106.92552 c 0,14.22045 4.23124,26.23703 12.6626,35.20151 l 0.0132,0.014 0.0132,0.014 c 8.59933,8.96023 20.1227,13.43597 33.79601,13.43597 h 43.87369 v -36.05031 h -41.74058 c -3.98779,0 -6.65285,-1.13993 -8.78913,-3.37332 -2.00397,-2.42187 -3.07259,-5.526 -3.07259,-9.99714 V 153.01926 Z m 196.55635,43.12173 c -15.99487,0 -36.61087,3.64025 -45.68081,11.42179 -9.06917,7.61384 -13.66884,19.01585 -13.66884,32.9581 0,11.92149 2.99644,22.08437 9.12539,29.9041 l 0.0154,0.0191 0.0154,0.0218 c 6.30881,7.82567 15.32527,12.53864 26.40841,14.14555 h 0.0108 l 32.46121,4.53324 c 5.12138,0.77788 8.55553,2.32899 10.48328,4.13751 l 0.0488,0.0436 0.0462,0.0381 c 1.7266,1.51182 2.73633,3.85235 2.73633,8.18221 0,4.39587 -1.27835,6.99209 -4.37403,9.23023 l -0.0283,0.0218 -0.0257,0.0218 c -2.94005,2.21426 -7.64527,3.58894 -14.31312,3.58894 H 314.8147 c -6.14236,0 -10.56947,-1.33088 -13.56613,-3.57528 -2.75754,-2.17982 -3.99156,-4.82994 -3.99156,-9.28756 v -3.77723 h -36.2782 v 3.77723 c 0,13.72115 5.0965,25.27059 14.8727,33.47665 l 0.0154,0.014 0.0132,0.0115 c 9.79233,8.03694 22.90777,11.88304 38.93495,11.88304 h 10.43451 c 17.08729,0 30.50704,-3.69251 39.92323,-11.66469 l 0.005,-0.003 0.002,-0.003 c 9.51666,-8.09476 14.37729,-19.90684 14.37729,-34.22175 0,-13.24246 -3.30682,-24.2791 -10.11622,-32.46957 -6.68637,-8.4003 -16.68669,-13.31533 -29.30647,-14.90428 l -30.59248,-4.5387 -0.0667,-0.009 c -4.30396,-0.45761 -7.27827,-1.60095 -9.07405,-3.01306 -1.40834,-1.216 -2.19471,-2.92269 -2.19471,-6.34 0,-3.76276 1.05516,-6.04611 3.58085,-8.09213 l 0.041,-0.0354 0.041,-0.0328 c 2.46296,-2.11989 6.4126,-3.44428 12.23392,-3.44428 h 10.90937 c 5.33817,0 9.19051,1.21326 11.9028,3.31056 l 0.0462,0.0354 0.041,0.0301 c 2.7098,1.96442 3.78618,4.02774 3.90684,7.36344 l 0.13348,3.6326 H 377.526 l -0.10516,-3.8837 c -0.34269,-12.75262 -5.57931,-23.50722 -15.17559,-31.15953 -9.60171,-7.6566 -14.26011,-11.34811 -29.34754,-11.34811 z"
     sodipodi:nodetypes="sccccssccsscccsccsccccccccccccsccsccsccccccsccccccscccssccccssccsscccccsccccssccsccscsccscscccccccccscccsscsccscccsscccscccccscccsscccccccsss" /></svg>
