<?xml version="1.0" encoding="UTF-8" standalone="no"?>
<!-- Created with Inkscape (http://www.inkscape.org/) -->

<svg
   width="500"
   height="500"
   viewBox="0 0 500 500"
   version="1.1"
   id="svg1"
   inkscape:version="1.3.2 (091e20ef0f, 2023-11-25, custom)"
   sodipodi:docname="license.svg"
   xml:space="preserve"
   xmlns:inkscape="http://www.inkscape.org/namespaces/inkscape"
   xmlns:sodipodi="http://sodipodi.sourceforge.net/DTD/sodipodi-0.dtd"
   xmlns:xlink="http://www.w3.org/1999/xlink"
   xmlns="http://www.w3.org/2000/svg"
   xmlns:svg="http://www.w3.org/2000/svg"><sodipodi:namedview
     id="namedview1"
     pagecolor="#505050"
     bordercolor="#eeeeee"
     borderopacity="1"
     inkscape:showpageshadow="0"
     inkscape:pageopacity="0"
     inkscape:pagecheckerboard="0"
     inkscape:deskcolor="#505050"
     inkscape:document-units="px"
     inkscape:zoom="0.5"
     inkscape:cx="222"
     inkscape:cy="319"
     inkscape:window-width="1362"
     inkscape:window-height="744"
     inkscape:window-x="0"
     inkscape:window-y="20"
     inkscape:window-maximized="1"
     inkscape:current-layer="layer1"
     showguides="true"><sodipodi:guide
       position="250.02518,350.60736"
       orientation="-0.99997769,0.0066803918"
       id="guide30"
       inkscape:locked="false" /><sodipodi:guide
       position="66.396728,247.89992"
       orientation="0,-1"
       id="guide53"
       inkscape:locked="false" /></sodipodi:namedview><defs
     id="defs1"><linearGradient
       id="linearGradient1"
       inkscape:collect="always"><stop
         style="stop-color:#aa4bfc;stop-opacity:1;"
         offset="0"
         id="stop12" /><stop
         style="stop-color:#ff2879;stop-opacity:1;"
         offset="1"
         id="stop13" /></linearGradient><linearGradient
       id="swatch61"
       inkscape:swatch="solid"><stop
         style="stop-color:#5090d0;stop-opacity:1;"
         offset="0"
         id="stop61" /></linearGradient><linearGradient
       id="swatch30"
       inkscape:swatch="solid"><stop
         style="stop-color:#f9f9f9;stop-opacity:1;"
         offset="0"
         id="stop30" /></linearGradient><inkscape:perspective
       sodipodi:type="inkscape:persp3d"
       inkscape:vp_x="44.06818 : 315.96746 : 1"
       inkscape:vp_y="0 : 1000 : 0"
       inkscape:vp_z="480.74134 : 298.68846 : 1"
       inkscape:persp3d-origin="250 : 166.66667 : 1"
       id="perspective17" /><inkscape:perspective
       sodipodi:type="inkscape:persp3d"
       inkscape:vp_x="44.06818 : 315.96746 : 1"
       inkscape:vp_y="0 : 1000 : 0"
       inkscape:vp_z="480.74134 : 298.68846 : 1"
       inkscape:persp3d-origin="250 : 166.66667 : 1"
       id="perspective17-2" /><inkscape:perspective
       sodipodi:type="inkscape:persp3d"
       inkscape:vp_x="44.06818 : 315.96746 : 1"
       inkscape:vp_y="0 : 1000 : 0"
       inkscape:vp_z="480.74134 : 298.68846 : 1"
       inkscape:persp3d-origin="250 : 166.66667 : 1"
       id="perspective17-3" /><inkscape:perspective
       sodipodi:type="inkscape:persp3d"
       inkscape:vp_x="44.06818 : 315.96746 : 1"
       inkscape:vp_y="0 : 1000 : 0"
       inkscape:vp_z="480.74134 : 298.68846 : 1"
       inkscape:persp3d-origin="250 : 166.66667 : 1"
       id="perspective17-5" /><linearGradient
       id="a"
       x1="-7274.8"
       y1="2082.507"
       x2="-7243.872"
       y2="2046.343"
       gradientTransform="matrix(-0.023, -0.116, -0.116, 0.023, 79.68, -889.484)"
       gradientUnits="userSpaceOnUse"><stop
         offset="0"
         stop-color="#f69923"
         id="stop1" /><stop
         offset="0.312"
         stop-color="#f79a23"
         id="stop2" /><stop
         offset="0.838"
         stop-color="#e97826"
         id="stop3" /></linearGradient><linearGradient
       id="b"
       x1="-7503.689"
       y1="2086.595"
       x2="-7283.036"
       y2="2086.595"
       gradientTransform="matrix(-0.023, -0.116, -0.116, 0.023, 79.68, -889.484)"
       gradientUnits="userSpaceOnUse"><stop
         offset="0.323"
         stop-color="#9e2064"
         id="stop4" /><stop
         offset="0.63"
         stop-color="#c92037"
         id="stop5" /><stop
         offset="0.751"
         stop-color="#cd2335"
         id="stop6" /><stop
         offset="1"
         stop-color="#e97826"
         id="stop7" /></linearGradient><linearGradient
       id="c"
       x1="-7477.053"
       y1="2064.42"
       x2="-7345.566"
       y2="2064.42"
       gradientTransform="matrix(-0.023, -0.116, -0.116, 0.023, 79.68, -889.484)"
       gradientUnits="userSpaceOnUse"><stop
         offset="0"
         stop-color="#282662"
         id="stop8" /><stop
         offset="0.095"
         stop-color="#662e8d"
         id="stop9" /><stop
         offset="0.788"
         stop-color="#9f2064"
         id="stop10" /><stop
         offset="0.949"
         stop-color="#cd2032"
         id="stop11" /></linearGradient><linearGradient
       id="d"
       x1="-7491.296"
       y1="2088.633"
       x2="-7270.643"
       y2="2088.633"
       xlink:href="#b" /><linearGradient
       id="e"
       x1="-7475.203"
       y1="2085.61"
       x2="-7359.244"
       y2="2085.61"
       xlink:href="#c" /><linearGradient
       id="f"
       x1="-7491.296"
       y1="2065.799"
       x2="-7270.643"
       y2="2065.799"
       xlink:href="#b" /><linearGradient
       id="g"
       x1="-7504.984"
       y1="2066.905"
       x2="-7284.331"
       y2="2066.905"
       xlink:href="#b" /><linearGradient
       id="h"
       x1="-7491.296"
       y1="2058.959"
       x2="-7270.643"
       y2="2058.959"
       xlink:href="#b" /><linearGradient
       id="i"
       x1="-7491.296"
       y1="2059.762"
       x2="-7270.643"
       y2="2059.762"
       xlink:href="#b" /><linearGradient
       id="j"
       x1="-8307.632"
       y1="2040.008"
       x2="-8276.704"
       y2="2003.844"
       gradientTransform="matrix(0.074,-0.112,-0.112,-0.074,864.083,-775.51)"
       xlink:href="#a" /><linearGradient
       id="k"
       x1="-8536.521"
       y1="2044.096"
       x2="-8315.868"
       y2="2044.096"
       gradientTransform="matrix(0.074,-0.112,-0.112,-0.074,864.083,-775.51)"
       xlink:href="#b" /><linearGradient
       id="l"
       x1="-8509.885"
       y1="2021.921"
       x2="-8378.397"
       y2="2021.921"
       gradientTransform="matrix(0.074,-0.112,-0.112,-0.074,864.083,-775.51)"
       xlink:href="#c" /><linearGradient
       id="m"
       x1="-8524.128"
       y1="2046.134"
       x2="-8303.475"
       y2="2046.134"
       gradientTransform="matrix(0.074,-0.112,-0.112,-0.074,864.083,-775.51)"
       xlink:href="#b" /><linearGradient
       id="n"
       x1="-8508.035"
       y1="2043.111"
       x2="-8392.076"
       y2="2043.111"
       gradientTransform="matrix(0.074,-0.112,-0.112,-0.074,864.083,-775.51)"
       xlink:href="#c" /><linearGradient
       id="o"
       x1="-8524.128"
       y1="2023.3"
       x2="-8303.475"
       y2="2023.3"
       gradientTransform="matrix(0.074,-0.112,-0.112,-0.074,864.083,-775.51)"
       xlink:href="#b" /><linearGradient
       id="p"
       x1="-8537.816"
       y1="2024.407"
       x2="-8317.163"
       y2="2024.407"
       gradientTransform="matrix(0.074,-0.112,-0.112,-0.074,864.083,-775.51)"
       xlink:href="#b" /><linearGradient
       id="q"
       x1="-8524.128"
       y1="2016.46"
       x2="-8303.475"
       y2="2016.46"
       gradientTransform="matrix(0.074,-0.112,-0.112,-0.074,864.083,-775.51)"
       xlink:href="#b" /><linearGradient
       id="r"
       x1="-8524.128"
       y1="2017.263"
       x2="-8303.475"
       y2="2017.263"
       gradientTransform="matrix(0.074,-0.112,-0.112,-0.074,864.083,-775.51)"
       xlink:href="#b" /><linearGradient
       inkscape:collect="always"
       xlink:href="#a"
       id="linearGradient3"
       gradientUnits="userSpaceOnUse"
       gradientTransform="matrix(-0.023,-0.116,-0.116,0.023,79.68,-889.484)"
       x1="-7274.8"
       y1="2082.507"
       x2="-7243.872"
       y2="2046.343" /><linearGradient
       inkscape:collect="always"
       xlink:href="#linearGradient1"
       id="linearGradient13"
       x1="80.817049"
       y1="277.97784"
       x2="480.87619"
       y2="277.97784"
       gradientUnits="userSpaceOnUse" /></defs><g
     inkscape:label="Layer 1"
     inkscape:groupmode="layer"
     id="layer1"><path
       id="path13"
       style="opacity:0.21381487;color:#000000;fill:#ffffff;stroke-linejoin:bevel;stroke-miterlimit:10;-inkscape-stroke:none;fill-opacity:1"
       d="M 41.642578 29.835938 L 30.689453 42.591797 C 31.071977 45.092687 31.657345 58.165793 31.792969 73.914062 C 31.928592 89.662333 31.838119 109.08776 31.65625 128.2168 C 31.29251 166.47487 30.5625 202.61688 30.5625 208.44336 L 41.642578 219.52539 L 84.734375 219.52539 L 84.734375 464.64648 L 95.814453 475.72852 L 456.28906 475.72852 L 467.37109 464.64648 L 467.37109 40.916016 L 456.28906 29.835938 L 41.642578 29.835938 z " /><path
       id="path11"
       style="display:none;fill:url(#linearGradient3)"
       d="M 6.8726904,1.9998755 C 6.527194,1.9997432 6.1546263,2.1115717 5.9760327,2.5329776 A 9.539,9.539 0 0 0 5.5759525,5.188004 l 1.4270542,0.6910373 a 17.928,17.928 0 0 1 0.099992,-2.5410559 c 0.005,-0.058 0.011048,-0.091988 0.011048,-0.091988 0,0.031 -0.00905,0.060988 -0.011048,0.091988 A 15.939,15.939 0 0 0 7.0999548,5.8449968 27.79,27.79 0 0 0 9.2139881,3.8450467 3.041,3.041 0 0 0 7.6209948,2.1439449 c 0,0 -0.3567419,-0.1439195 -0.7483044,-0.1440694 z m 0.2272644,3.8451213 c 0.022,0.3999996 0.056992,0.8479723 0.099992,1.3439718 a 0.485,0.485 0 0 0 0.00902,0.078009 c 0.041,0.4329996 0.093994,0.9000178 0.1619936,1.4090173 0.058,0.4389996 0.1220966,0.8999994 0.2000965,1.3999991 0.064827,0.431849 0.1444785,0.883676 0.2262499,1.363249 l -0.00733,0.0068 c 0.015,0.013 0.017008,0.02299 0.016008,0.02999 0.011,0.064 0.023045,0.121005 0.034045,0.186005 0.037,0.19 0.07001,0.382038 0.1090103,0.575038 0.04,0.211 0.08392,0.42596 0.1259199,0.64696 0.021,0.111 0.04206,0.222049 0.06606,0.336049 0.069,0.34 0.1439517,0.687928 0.2209516,1.046927 0.1,0.441 0.2000233,0.894068 0.3110232,1.366067 0.1,0.446 0.2180494,0.910992 0.3360493,1.383991 0.1149999,0.451 0.2309337,0.912981 0.3589336,1.390981 0.1119999,0.422999 0.2329882,0.858007 0.354988,1.300007 0,0.021 0.014037,0.04393 0.018037,0.06493 0.1229999,0.438999 0.251989,0.892103 0.3859893,1.353103 a 0.069,0.069 0 0 0 0.009,0.02897 l 0.577969,-0.531974 c -0.015,0 -0.02598,0.01297 -0.04498,0.02097 a 5.547,5.547 0 0 0 1.408003,-3.114064 7.47,7.47 0 0 0 -0.01804,-1.73695 11.925,11.925 0 0 0 -0.277993,-1.486012 c -0.114,-0.458 -0.253994,-0.944027 -0.424994,-1.456026 a 2.891,2.891 0 0 1 -0.441001,0.637039 l -0.09999,0.110025 c -0.033,0.037 -0.06998,0.069 -0.106981,0.107996 a 3.377,3.377 0 0 0 0.415975,-2.507012 3.176,3.176 0 0 1 -0.571994,0.991013 c -0.038,0.046 -0.08295,0.09095 -0.127949,0.135953 -0.012,0.009 -0.02107,0.02103 -0.03607,0.03303 a 3.52,3.52 0 0 0 0.370996,-0.814026 1.509,1.509 0 0 0 0.04306,-0.169997 c 0.02,-0.087 0.03401,-0.175001 0.04701,-0.263 0.005,-0.058 0.01394,-0.112013 0.01894,-0.171012 a 2.461,2.461 0 0 0 0,-0.412932 c 0,-0.046 6.5e-5,-0.08709 -0.01093,-0.130091 -0.011,-0.064 -0.019,-0.123947 -0.031,-0.181947 -0.046,-0.2669998 -0.10003,-0.5000561 -0.14903,-0.7000559 -0.026,-0.1 -0.04998,-0.1919495 -0.07598,-0.2749494 -0.012,-0.033 -0.01799,-0.064992 -0.02999,-0.099992 -0.031,-0.091 -0.05598,-0.1749632 -0.08399,-0.2449631 a 2.452,2.452 0 0 0 -0.105064,-0.2420322 0.532,0.532 0 0 1 -0.04194,0.114985 3.749,3.749 0 0 1 -0.6324175,0.9124399 l -0.02063,0.0186 a 0.018,0.018 0 0 0 -0.00902,0.012964 1.082,1.082 0 0 0 -0.078009,0.087028 c 0,-0.00531 0.00473,-0.00983 0.00767,-0.01443 l 0.010371,-0.00958 A 2.987,2.987 0 0 0 10.075023,8.1290274 c 0,-0.1429998 -0.01098,-0.2929762 -0.02198,-0.446976 A 14.324,14.324 0 0 0 9.8949924,6.2500371 12.46,12.46 0 0 0 9.6239885,4.9629941 6.825,6.825 0 0 0 9.4149864,4.3099469 C 9.3499864,4.146947 9.2820026,3.9979814 9.2150026,3.8559815 A 28.8,28.8 0 0 1 7.0999548,5.8449968 Z M 5.5750507,5.1910477 c 0,0.086 -0.010077,0.1749748 -0.013077,0.2689747 -0.014,0.3409997 -0.024957,0.7000305 -0.027957,1.0850301 0,0.4299996 3.9e-6,0.8779034 0.008,1.3469029 0.01,0.4319995 0.027954,0.8820267 0.050954,1.3400263 0.023,0.3919996 0.049053,0.7880113 0.081053,1.1920113 v 0.04599 l 1.9059329,0.964972 C 7.516961,10.98396 7.4469771,10.536001 7.3799772,10.092002 7.3133106,9.6173357 7.25328,9.1506692 7.1999467,8.692003 7.1449468,8.2150035 7.099954,7.7469999 7.068954,7.2840003 c 0,-0.028 -0.005,-0.056053 0,-0.081053 -0.037,-0.4519997 -0.058991,-0.892921 -0.068991,-1.3249205 z m 0.1109267,5.2859283 a 0.679,0.679 0 0 1 0.00699,0.09097 c 0.038,0.428999 0.075033,0.865007 0.1260326,1.300007 0.051,0.434999 0.1060267,0.890041 0.1720266,1.34104 0.056,0.38 0.1160159,0.757014 0.1790159,1.138014 0.013,0.075 0.027921,0.153941 0.040921,0.227941 0.087,0.470999 0.1810516,0.926074 0.2820515,1.351074 0.1129999,0.481999 0.2350173,0.933921 0.3570171,1.355921 0.082,0.276 0.1629779,0.542073 0.2459778,0.794073 0.072,0.212 0.1500099,0.42501 0.2250099,0.63501 0.1809998,0.493 0.3819514,0.97099 0.5999512,1.437989 l 0.00541,0.0027 a 0.357,0.357 0 0 0 0.02063,0.05625 14.86,14.86 0 0 0 0.8809881,1.627038 c 0.011,0.016 0.02203,0.038 0.03303,0.054 A 3.864,3.864 0 0 0 7.400945,21.775944 5.37,5.37 0 0 1 9.7539667,23.146971 2.468,2.468 0 0 1 8.641994,23.704987 2.46,2.46 0 0 0 9.8619624,23.596991 3,3 0 0 0 9.1199709,25.043999 3.084,3.084 0 0 1 10.324946,23.768003 c 0.575,1.905998 1.267108,3.971976 2.034108,6.139974 a 0.577,0.577 0 0 0 0.08996,-0.540993 c -0.140999,-0.388999 -1.053982,-2.968023 -2.094981,-6.468019 -0.03,-0.1 -0.05606,-0.199976 -0.08906,-0.299976 -0.009,-0.029 -0.01603,-0.05398 -0.02503,-0.08398 -0.106666,-0.366666 -0.215237,-0.744039 -0.3259031,-1.132039 -0.024,-0.09 -0.050064,-0.173916 -0.074064,-0.264916 l -0.00485,-0.0025 c -0.099686,-0.350932 -0.1995007,-0.707727 -0.2991865,-1.069586 -0.028,-0.105 -0.05397,-0.206024 -0.08297,-0.311024 C 9.3319766,19.282961 9.2109554,18.824002 9.0879555,18.361002 8.9719556,17.917003 8.8609896,17.469001 8.7499897,17.015001 8.6389898,16.561002 8.5320025,16.104017 8.4260026,15.647018 8.3200027,15.190018 8.216023,14.713019 8.1180231,14.247019 c -0.098,-0.466 -0.1900516,-0.93101 -0.2820515,-1.39301 -0.033,-0.167999 -0.063003,-0.331959 -0.093002,-0.499959 -0.053,-0.286 -0.099961,-0.574064 -0.1519606,-0.863064 0,-0.015 -0.00503,-0.03201 -0.010033,-0.04701 z"
       transform="matrix(9.5165901,14.47798,-14.47798,9.5165901,424.41681,-8.2833477)" /><path
       style="opacity:1;fill:url(#linearGradient13);fill-opacity:1;stroke:none;stroke-width:42.3218;stroke-linecap:round;stroke-miterlimit:10"
       d="M 80.817049,475.95077 178.49171,354.12535 c 1.53746,-41.99432 14.31952,-70.11058 38.73827,-99.5439 50.75752,-61.23559 115.0306,-112.45626 157.32089,-136.83281 37.93012,-21.279667 56.69289,-27.623307 85.03933,-41.434969 10.05397,-3.333293 20.2198,17.475002 21.28599,35.358009 -0.031,33.91198 -41.95237,71.10927 -75.25077,101.9638 l -81.03414,4.74189 69.33812,4.85789 -45.66159,43.4023 -79.48227,6.12589 69.85978,7.85288 c -17.69242,20.39878 -54.91749,50.72091 -77.61543,63.19765 -17.45455,8.48407 -43.28147,11.76962 -68.9356,4.71514 L 294.13308,236.14054 C 309.40403,218.19169 366.9045,171.85872 403.29021,139.71782 428.7617,120.1572 441.03033,111.76375 459.90039,97.786713 420.56264,118.69979 389.43473,135.89931 349.48675,169.965 314.09968,205.46321 262.9289,251.36889 243.32553,276.45964 l -58.32642,72.99586 c -0.9615,1.46055 3.92664,6.18321 2.04084,8.71187 L 84.800483,479.99665 Z"
       id="path1"
       sodipodi:nodetypes="ccccccccccccccccccccccc" /></g></svg>
