<?xml version="1.0" encoding="UTF-8" standalone="no"?>
<!-- Created with Inkscape (http://www.inkscape.org/) -->

<svg
   width="500"
   height="500"
   viewBox="0 0 500 500"
   version="1.1"
   id="svg1"
   inkscape:version="1.3.2 (091e20ef0f, 2023-11-25, custom)"
   sodipodi:docname="loading.js.svg"
   xml:space="preserve"
   xmlns:inkscape="http://www.inkscape.org/namespaces/inkscape"
   xmlns:sodipodi="http://sodipodi.sourceforge.net/DTD/sodipodi-0.dtd"
   xmlns:xlink="http://www.w3.org/1999/xlink"
   xmlns="http://www.w3.org/2000/svg"
   xmlns:svg="http://www.w3.org/2000/svg"><sodipodi:namedview
     id="namedview1"
     pagecolor="#505050"
     bordercolor="#eeeeee"
     borderopacity="1"
     inkscape:showpageshadow="0"
     inkscape:pageopacity="0"
     inkscape:pagecheckerboard="0"
     inkscape:deskcolor="#505050"
     inkscape:document-units="px"
     inkscape:zoom="0.96390292"
     inkscape:cx="279.59247"
     inkscape:cy="236.01962"
     inkscape:window-width="1352"
     inkscape:window-height="734"
     inkscape:window-x="4"
     inkscape:window-y="24"
     inkscape:window-maximized="1"
     inkscape:current-layer="svg1"
     showguides="true"
     showgrid="false"><sodipodi:guide
       position="250.02518,350.60736"
       orientation="-0.99997769,0.0066803918"
       id="guide30"
       inkscape:locked="false" /><sodipodi:guide
       position="66.396728,247.89992"
       orientation="0,-1"
       id="guide53"
       inkscape:locked="false" /></sodipodi:namedview><defs
     id="defs1"><linearGradient
       id="linearGradient4"
       inkscape:collect="always"><stop
         style="stop-color:#cd9680;stop-opacity:1;"
         offset="0"
         id="stop4" /><stop
         style="stop-color:#d3cdba;stop-opacity:1;"
         offset="1"
         id="stop5" /></linearGradient><inkscape:path-effect
       effect="copy_rotate"
       starting_point="303.13329,253.05707"
       origin="244.4995,253.05707"
       id="path-effect4"
       is_visible="true"
       lpeversion="1.2"
       lpesatellites=""
       method="normal"
       num_copies="12"
       starting_angle="0"
       rotation_angle="30"
       gap="-0.01"
       copies_to_360="true"
       mirror_copies="false"
       split_items="false"
       link_styles="false" /><linearGradient
       id="swatch61"
       inkscape:swatch="solid"><stop
         style="stop-color:#5090d0;stop-opacity:1;"
         offset="0"
         id="stop61" /></linearGradient><linearGradient
       id="swatch30"
       inkscape:swatch="solid"><stop
         style="stop-color:#f9f9f9;stop-opacity:1;"
         offset="0"
         id="stop30" /></linearGradient><inkscape:perspective
       sodipodi:type="inkscape:persp3d"
       inkscape:vp_x="44.06818 : 315.96746 : 1"
       inkscape:vp_y="0 : 1000 : 0"
       inkscape:vp_z="480.74134 : 298.68846 : 1"
       inkscape:persp3d-origin="250 : 166.66667 : 1"
       id="perspective17" /><inkscape:perspective
       sodipodi:type="inkscape:persp3d"
       inkscape:vp_x="44.06818 : 315.96746 : 1"
       inkscape:vp_y="0 : 1000 : 0"
       inkscape:vp_z="480.74134 : 298.68846 : 1"
       inkscape:persp3d-origin="250 : 166.66667 : 1"
       id="perspective17-2" /><inkscape:path-effect
       effect="mirror_symmetry"
       start_point="216.08168,129.12038"
       end_point="216.08168,402.69369"
       center_point="216.08168,265.90704"
       id="path-effect2"
       is_visible="true"
       lpeversion="1.2"
       lpesatellites=""
       mode="free"
       discard_orig_path="false"
       fuse_paths="true"
       oposite_fuse="false"
       split_items="false"
       split_open="false"
       link_styles="false" /><inkscape:perspective
       sodipodi:type="inkscape:persp3d"
       inkscape:vp_x="44.06818 : 315.96746 : 1"
       inkscape:vp_y="0 : 1000 : 0"
       inkscape:vp_z="480.74134 : 298.68846 : 1"
       inkscape:persp3d-origin="250 : 166.66667 : 1"
       id="perspective17-8" /><inkscape:perspective
       sodipodi:type="inkscape:persp3d"
       inkscape:vp_x="44.06818 : 315.96746 : 1"
       inkscape:vp_y="0 : 1000 : 0"
       inkscape:vp_z="480.74134 : 298.68846 : 1"
       inkscape:persp3d-origin="250 : 166.66667 : 1"
       id="perspective17-6" /><inkscape:perspective
       sodipodi:type="inkscape:persp3d"
       inkscape:vp_x="44.06818 : 315.96746 : 1"
       inkscape:vp_y="0 : 1000 : 0"
       inkscape:vp_z="480.74134 : 298.68846 : 1"
       inkscape:persp3d-origin="250 : 166.66667 : 1"
       id="perspective17-5" /><inkscape:perspective
       sodipodi:type="inkscape:persp3d"
       inkscape:vp_x="44.06818 : 315.96746 : 1"
       inkscape:vp_y="0 : 1000 : 0"
       inkscape:vp_z="480.74134 : 298.68846 : 1"
       inkscape:persp3d-origin="250 : 166.66667 : 1"
       id="perspective17-2-1" /><inkscape:path-effect
       effect="mirror_symmetry"
       start_point="250.54403,261.72003"
       end_point="250.54403,442.67653"
       center_point="250.54403,352.19828"
       id="path-effect3"
       is_visible="true"
       lpeversion="1.2"
       lpesatellites=""
       mode="free"
       discard_orig_path="false"
       fuse_paths="true"
       oposite_fuse="false"
       split_items="false"
       split_open="false"
       link_styles="false" /><inkscape:perspective
       sodipodi:type="inkscape:persp3d"
       inkscape:vp_x="44.06818 : 315.96746 : 1"
       inkscape:vp_y="0 : 1000 : 0"
       inkscape:vp_z="480.74134 : 298.68846 : 1"
       inkscape:persp3d-origin="250 : 166.66667 : 1"
       id="perspective17-291" /><inkscape:perspective
       sodipodi:type="inkscape:persp3d"
       inkscape:vp_x="44.06818 : 315.96746 : 1"
       inkscape:vp_y="0 : 1000 : 0"
       inkscape:vp_z="480.74134 : 298.68846 : 1"
       inkscape:persp3d-origin="250 : 166.66667 : 1"
       id="perspective17-7" /><inkscape:perspective
       sodipodi:type="inkscape:persp3d"
       inkscape:vp_x="44.06818 : 315.96746 : 1"
       inkscape:vp_y="0 : 1000 : 0"
       inkscape:vp_z="480.74134 : 298.68846 : 1"
       inkscape:persp3d-origin="250 : 166.66667 : 1"
       id="perspective17-29" /><inkscape:perspective
       sodipodi:type="inkscape:persp3d"
       inkscape:vp_x="44.06818 : 315.96746 : 1"
       inkscape:vp_y="0 : 1000 : 0"
       inkscape:vp_z="480.74134 : 298.68846 : 1"
       inkscape:persp3d-origin="250 : 166.66667 : 1"
       id="perspective17-59" /><inkscape:perspective
       sodipodi:type="inkscape:persp3d"
       inkscape:vp_x="44.06818 : 315.96746 : 1"
       inkscape:vp_y="0 : 1000 : 0"
       inkscape:vp_z="480.74134 : 298.68846 : 1"
       inkscape:persp3d-origin="250 : 166.66667 : 1"
       id="perspective17-5-2" /><inkscape:perspective
       sodipodi:type="inkscape:persp3d"
       inkscape:vp_x="44.06818 : 315.96746 : 1"
       inkscape:vp_y="0 : 1000 : 0"
       inkscape:vp_z="480.74134 : 298.68846 : 1"
       inkscape:persp3d-origin="250 : 166.66667 : 1"
       id="perspective17-2-7" /><inkscape:perspective
       sodipodi:type="inkscape:persp3d"
       inkscape:vp_x="44.06818 : 315.96746 : 1"
       inkscape:vp_y="0 : 1000 : 0"
       inkscape:vp_z="480.74134 : 298.68846 : 1"
       inkscape:persp3d-origin="250 : 166.66667 : 1"
       id="perspective17-6-0" /><inkscape:perspective
       sodipodi:type="inkscape:persp3d"
       inkscape:vp_x="44.06818 : 315.96746 : 1"
       inkscape:vp_y="0 : 1000 : 0"
       inkscape:vp_z="480.74134 : 298.68846 : 1"
       inkscape:persp3d-origin="250 : 166.66667 : 1"
       id="perspective17-2-1-9" /><inkscape:perspective
       sodipodi:type="inkscape:persp3d"
       inkscape:vp_x="44.06818 : 315.96746 : 1"
       inkscape:vp_y="0 : 1000 : 0"
       inkscape:vp_z="480.74134 : 298.68846 : 1"
       inkscape:persp3d-origin="250 : 166.66667 : 1"
       id="perspective17-9" /><inkscape:perspective
       sodipodi:type="inkscape:persp3d"
       inkscape:vp_x="44.06818 : 315.96746 : 1"
       inkscape:vp_y="0 : 1000 : 0"
       inkscape:vp_z="480.74134 : 298.68846 : 1"
       inkscape:persp3d-origin="250 : 166.66667 : 1"
       id="perspective17-7-3" /><inkscape:perspective
       sodipodi:type="inkscape:persp3d"
       inkscape:vp_x="44.06818 : 315.96746 : 1"
       inkscape:vp_y="0 : 1000 : 0"
       inkscape:vp_z="480.74134 : 298.68846 : 1"
       inkscape:persp3d-origin="250 : 166.66667 : 1"
       id="perspective17-4" /><inkscape:perspective
       sodipodi:type="inkscape:persp3d"
       inkscape:vp_x="44.06818 : 315.96746 : 1"
       inkscape:vp_y="0 : 1000 : 0"
       inkscape:vp_z="480.74134 : 298.68846 : 1"
       inkscape:persp3d-origin="250 : 166.66667 : 1"
       id="perspective17-26" /><inkscape:perspective
       sodipodi:type="inkscape:persp3d"
       inkscape:vp_x="44.06818 : 315.96746 : 1"
       inkscape:vp_y="0 : 1000 : 0"
       inkscape:vp_z="480.74134 : 298.68846 : 1"
       inkscape:persp3d-origin="250 : 166.66667 : 1"
       id="perspective17-59-7" /><inkscape:perspective
       sodipodi:type="inkscape:persp3d"
       inkscape:vp_x="44.06818 : 315.96746 : 1"
       inkscape:vp_y="0 : 1000 : 0"
       inkscape:vp_z="480.74134 : 298.68846 : 1"
       inkscape:persp3d-origin="250 : 166.66667 : 1"
       id="perspective17-5-4" /><inkscape:perspective
       sodipodi:type="inkscape:persp3d"
       inkscape:vp_x="44.06818 : 315.96746 : 1"
       inkscape:vp_y="0 : 1000 : 0"
       inkscape:vp_z="480.74134 : 298.68846 : 1"
       inkscape:persp3d-origin="250 : 166.66667 : 1"
       id="perspective17-2-5" /><inkscape:path-effect
       effect="mirror_symmetry"
       start_point="250.54403,261.72003"
       end_point="250.54403,442.67653"
       center_point="250.54403,352.19828"
       id="path-effect3-6"
       is_visible="true"
       lpeversion="1.2"
       lpesatellites=""
       mode="free"
       discard_orig_path="false"
       fuse_paths="true"
       oposite_fuse="false"
       split_items="false"
       split_open="false"
       link_styles="false" /><inkscape:perspective
       sodipodi:type="inkscape:persp3d"
       inkscape:vp_x="44.06818 : 315.96746 : 1"
       inkscape:vp_y="0 : 1000 : 0"
       inkscape:vp_z="480.74134 : 298.68846 : 1"
       inkscape:persp3d-origin="250 : 166.66667 : 1"
       id="perspective17-79" /><inkscape:perspective
       sodipodi:type="inkscape:persp3d"
       inkscape:vp_x="44.06818 : 315.96746 : 1"
       inkscape:vp_y="0 : 1000 : 0"
       inkscape:vp_z="480.74134 : 298.68846 : 1"
       inkscape:persp3d-origin="250 : 166.66667 : 1"
       id="perspective17-7-2" /><inkscape:perspective
       sodipodi:type="inkscape:persp3d"
       inkscape:vp_x="44.06818 : 315.96746 : 1"
       inkscape:vp_y="0 : 1000 : 0"
       inkscape:vp_z="480.74134 : 298.68846 : 1"
       inkscape:persp3d-origin="250 : 166.66667 : 1"
       id="perspective17-29-0" /><inkscape:perspective
       sodipodi:type="inkscape:persp3d"
       inkscape:vp_x="44.06818 : 315.96746 : 1"
       inkscape:vp_y="0 : 1000 : 0"
       inkscape:vp_z="480.74134 : 298.68846 : 1"
       inkscape:persp3d-origin="250 : 166.66667 : 1"
       id="perspective17-59-2" /><inkscape:perspective
       sodipodi:type="inkscape:persp3d"
       inkscape:vp_x="44.06818 : 315.96746 : 1"
       inkscape:vp_y="0 : 1000 : 0"
       inkscape:vp_z="480.74134 : 298.68846 : 1"
       inkscape:persp3d-origin="250 : 166.66667 : 1"
       id="perspective17-5-3" /><inkscape:perspective
       sodipodi:type="inkscape:persp3d"
       inkscape:vp_x="44.06818 : 315.96746 : 1"
       inkscape:vp_y="0 : 1000 : 0"
       inkscape:vp_z="480.74134 : 298.68846 : 1"
       inkscape:persp3d-origin="250 : 166.66667 : 1"
       id="perspective17-2-75" /><inkscape:perspective
       sodipodi:type="inkscape:persp3d"
       inkscape:vp_x="44.06818 : 315.96746 : 1"
       inkscape:vp_y="0 : 1000 : 0"
       inkscape:vp_z="480.74134 : 298.68846 : 1"
       inkscape:persp3d-origin="250 : 166.66667 : 1"
       id="perspective17-6-9" /><inkscape:perspective
       sodipodi:type="inkscape:persp3d"
       inkscape:vp_x="44.06818 : 315.96746 : 1"
       inkscape:vp_y="0 : 1000 : 0"
       inkscape:vp_z="480.74134 : 298.68846 : 1"
       inkscape:persp3d-origin="250 : 166.66667 : 1"
       id="perspective17-2-1-2" /><linearGradient
       inkscape:collect="always"
       xlink:href="#linearGradient4"
       id="linearGradient5"
       x1="17.87205"
       y1="253.05707"
       x2="445.45738"
       y2="253.05707"
       gradientUnits="userSpaceOnUse"
       gradientTransform="matrix(0.93668556,0,0,0.93668556,-13.092078,-17.178951)" /></defs><path
     id="rect4"
     style="color:#000000;fill:url(#linearGradient5);stroke-width:0.936686;stroke-linecap:round;stroke-linejoin:round;stroke-miterlimit:10;-inkscape-stroke:none;paint-order:stroke markers fill"
     d="M 211.5332 7.578125 C 202.48054 7.57903 195.14153 14.916083 195.14062 23.96875 L 195.14062 101.02734 C 195.14153 110.08 202.48054 117.41901 211.5332 117.41992 L 218.41016 117.41992 C 227.46282 117.41901 234.80183 110.08 234.80273 101.02734 L 234.80273 23.96875 C 234.80183 14.916083 227.46282 7.57903 218.41016 7.578125 L 211.5332 7.578125 z M 308.92383 31.662109 C 303.67495 32.033175 298.69859 34.920696 295.86914 39.820312 L 257.33984 106.55469 C 252.81429 114.39498 255.50046 124.42016 263.33984 128.94727 L 269.29688 132.38672 C 277.13716 136.91226 287.16038 134.22611 291.6875 126.38672 L 330.2168 59.650391 C 334.74235 51.810098 332.05618 41.786882 324.2168 37.259766 L 318.25977 33.820312 C 315.31966 32.123232 312.07315 31.43947 308.92383 31.662109 z M 121.27539 32.617188 C 118.12607 32.394548 114.87956 33.07831 111.93945 34.775391 L 105.98242 38.214844 C 98.143034 42.74196 95.456875 52.767131 99.982422 60.607422 L 138.51172 127.3418 C 143.03884 135.18118 153.06205 137.86735 160.90234 133.3418 L 166.86133 129.90234 C 174.70071 125.37523 177.38493 115.35007 172.85938 107.50977 L 134.33008 40.775391 C 131.50062 35.875774 126.52426 32.988253 121.27539 32.617188 z M 46.384766 103.4082 C 41.135889 103.77927 36.159526 106.66484 33.330078 111.56445 L 29.890625 117.52344 C 25.365077 125.36373 28.051239 135.38695 35.890625 139.91406 L 102.625 178.44336 C 110.46529 182.96891 120.49047 180.28274 125.01758 172.44336 L 128.45703 166.48633 C 132.98258 158.64605 130.29642 148.62282 122.45703 144.0957 L 55.722656 105.56641 C 52.782547 103.86932 49.534092 103.18556 46.384766 103.4082 z M 20.041016 200.98047 C 10.98835 200.98138 3.6493425 208.31843 3.6484375 217.37109 L 3.6484375 224.25 C 3.6493425 233.30266 10.98835 240.64167 20.041016 240.64258 L 97.099609 240.64258 C 106.15227 240.64167 113.49128 233.30266 113.49219 224.25 L 113.49219 217.37109 C 113.49128 208.31843 106.15227 200.98138 97.099609 200.98047 L 20.041016 200.98047 z M 319.89258 259.11133 C 314.6437 259.48239 309.66538 262.36796 306.83594 267.26758 L 303.39648 273.22461 C 299.02518 280.79768 301.4315 290.36174 308.66211 295.08789 C 311.35892 281.76595 323.32918 271.48249 337.35156 271.48242 L 346.92188 271.48242 L 329.22852 261.26758 C 326.28841 259.57049 323.0419 258.88869 319.89258 259.11133 z M 112.91797 260.76562 C 109.76864 260.54299 106.52214 261.22479 103.58203 262.92188 L 36.845703 301.45312 C 29.006317 305.98025 26.320155 316.00346 30.845703 323.84375 L 34.285156 329.80078 C 38.812273 337.64017 48.837443 340.32634 56.677734 335.80078 L 123.41211 297.27148 C 131.25149 292.74437 133.93766 282.7192 129.41211 274.87891 L 125.97266 268.92188 C 123.14321 264.02226 118.16685 261.13669 112.91797 260.76562 z M 385.65234 293.84375 C 386.20714 296.06579 386.53471 298.36974 386.53516 300.74414 A 17.50175 17.50175 0 0 0 386.53516 300.74609 L 386.53516 334.0957 C 390.48454 331.39596 394.66708 329.16173 399.01367 327.29688 L 401.96289 322.18945 C 406.48844 314.34916 403.80228 304.32399 395.96289 299.79688 L 385.65234 293.84375 z M 280.28711 304.21289 C 277.13778 303.99025 273.89128 304.67401 270.95117 306.37109 L 264.99414 309.81055 C 257.15476 314.33766 254.46859 324.36088 258.99414 332.20117 L 297.52344 398.9375 C 299.89817 403.04969 303.79465 405.69664 308.08594 406.67578 L 308.08594 337.9043 L 293.34375 312.37109 C 290.5143 307.47148 285.53598 304.58395 280.28711 304.21289 z M 153.2207 305.16797 C 147.97183 305.53903 142.99546 308.42655 140.16602 313.32617 L 101.63672 380.06055 C 97.111166 387.90084 99.797341 397.92601 107.63672 402.45312 L 113.59375 405.89258 C 121.43404 410.41812 131.45921 407.73197 135.98633 399.89258 L 174.51562 333.1582 C 179.04118 325.31791 176.35501 315.29273 168.51562 310.76562 L 162.55859 307.32617 C 159.61849 305.62909 156.37003 304.94533 153.2207 305.16797 z M 343.08594 306.48242 L 343.08594 315.06641 L 351.53516 319.94531 L 351.53516 306.48242 L 343.08594 306.48242 z M 213.44336 322.29102 C 204.3907 322.29193 197.05169 329.63093 197.05078 338.68359 L 197.05078 415.74219 C 197.05169 424.79486 204.3907 432.13386 213.44336 432.13477 L 220.32227 432.13477 C 229.37493 432.13386 236.71198 424.79486 236.71289 415.74219 L 236.71289 338.68359 C 236.71198 329.63093 229.37493 322.29193 220.32227 322.29102 L 213.44336 322.29102 z " /><path
     id="path3"
     style="color:#000000;-inkscape-font-specification:System-ui;fill:#ffc340;fill-opacity:1;stroke-linejoin:round;-inkscape-stroke:none;paint-order:markers fill stroke"
     d="m 337.35142,288.98334 a 11.765676,11.765676 0 0 0 -11.76562,11.76367 v 120.7207 c 0,8.07054 -1.88017,12.933 -3.82422,15.33203 -1.94405,2.39905 -4.02348,3.62305 -9.37109,3.62305 -4.8471,0 -13.74253,-2.0197 -18.25782,-4.27734 a 11.765676,11.765676 0 0 0 -16.23242,6.27539 l -5.75976,14.8789 a 11.765676,11.765676 0 0 0 4.91796,14.33594 c 11.47912,6.88746 23.86516,9.83594 35.8125,9.83594 16.65246,0 31.64445,-5.72512 41.63282,-17.02149 9.98836,-11.29635 14.53125,-26.99639 14.53125,-45.14257 V 300.74701 a 11.765676,11.765676 0 0 0 -11.76367,-11.76367 z m 101.03907,48.47851 c -16.72544,0 -31.38821,3.55283 -42.62891,11.48047 -11.2407,7.92765 -18.33398,20.95678 -18.33398,35.32422 0,13.63278 6.85395,24.94262 15.64062,31.28516 8.78667,6.34252 18.69295,9.04932 27.64453,11.34179 8.95158,2.29249 17.17502,4.20121 21.62305,6.2754 2.22401,1.03709 3.32887,2.00003 3.64453,2.38867 0.31566,0.38864 0.32617,0.114 0.32617,1.26953 0,1.80412 0.20885,1.38664 -1.32617,2.38867 -1.53502,1.00203 -5.6748,2.40625 -12.10938,2.40625 -10.08698,0 -25.72612,-3.18521 -36.14062,-7.67773 a 11.765676,11.765676 0 0 0 -15.95117,7.50195 l -4.56055,15.59961 a 11.765676,11.765676 0 0 0 6.42383,14.01172 c 14.97029,6.80468 32.34907,10.41406 48.78906,10.41406 16.12539,0 30.22608,-3.716 40.85938,-11.78125 10.6333,-8.06526 16.98437,-20.88673 16.98437,-34.7832 0,-13.81035 -6.71076,-25.2563 -15.4707,-31.87696 -8.75995,-6.62065 -18.75706,-9.58621 -27.81445,-12.00781 -9.0574,-2.4216 -17.43632,-4.33148 -22.05274,-6.36719 -2.30821,-1.01785 -3.49189,-1.99519 -3.73437,-2.27148 -0.0552,-0.0629 -0.0823,-0.0674 -0.0996,-0.0586 0.0217,0.007 0.0527,0.0387 0.0527,-0.21874 0,-0.83839 -0.45717,-0.60409 1.79297,-1.9375 2.25014,-1.33341 7.35206,-2.85743 14.52148,-2.85743 8.11836,0 18.75661,1.93781 27.39844,4.88867 a 11.765676,11.765676 0 0 0 15.09375,-7.83203 l 4.56055,-15.59961 a 11.765676,11.765676 0 0 0 -6.78516,-14.16796 c -11.54639,-4.78754 -24.72363,-7.13868 -38.34765,-7.13868 z" /></svg>
