<?xml version="1.0" encoding="UTF-8" standalone="no"?>
<!-- Created with Inkscape (http://www.inkscape.org/) -->

<svg
   width="500"
   height="500"
   viewBox="0 0 500 500"
   version="1.1"
   id="svg1"
   inkscape:version="1.3.2 (091e20ef0f, 2023-11-25, custom)"
   sodipodi:docname="m.svg"
   xml:space="preserve"
   xmlns:inkscape="http://www.inkscape.org/namespaces/inkscape"
   xmlns:sodipodi="http://sodipodi.sourceforge.net/DTD/sodipodi-0.dtd"
   xmlns:xlink="http://www.w3.org/1999/xlink"
   xmlns="http://www.w3.org/2000/svg"
   xmlns:svg="http://www.w3.org/2000/svg"><sodipodi:namedview
     id="namedview1"
     pagecolor="#505050"
     bordercolor="#eeeeee"
     borderopacity="1"
     inkscape:showpageshadow="0"
     inkscape:pageopacity="0"
     inkscape:pagecheckerboard="0"
     inkscape:deskcolor="#505050"
     inkscape:document-units="px"
     inkscape:zoom="0.70710678"
     inkscape:cx="229.8097"
     inkscape:cy="228.39549"
     inkscape:window-width="1352"
     inkscape:window-height="734"
     inkscape:window-x="4"
     inkscape:window-y="24"
     inkscape:window-maximized="1"
     inkscape:current-layer="svg1"
     showguides="true"><sodipodi:guide
       position="249.31924,284.34741"
       orientation="-0.99997769,0.0066803918"
       id="guide30"
       inkscape:locked="false" /><sodipodi:guide
       position="66.396728,247.89992"
       orientation="0,-1"
       id="guide53"
       inkscape:locked="false" /></sodipodi:namedview><defs
     id="defs1"><linearGradient
       id="linearGradient5"
       inkscape:collect="always"><stop
         style="stop-color:#ff3b73;stop-opacity:1;"
         offset="0"
         id="stop5" /><stop
         style="stop-color:#ecee53;stop-opacity:1;"
         offset="0.99913853"
         id="stop6" /></linearGradient><linearGradient
       id="swatch61"
       inkscape:swatch="solid"><stop
         style="stop-color:#5090d0;stop-opacity:1;"
         offset="0"
         id="stop61" /></linearGradient><linearGradient
       id="swatch30"
       inkscape:swatch="solid"><stop
         style="stop-color:#f9f9f9;stop-opacity:1;"
         offset="0"
         id="stop30" /></linearGradient><inkscape:perspective
       sodipodi:type="inkscape:persp3d"
       inkscape:vp_x="44.06818 : 315.96746 : 1"
       inkscape:vp_y="0 : 1000 : 0"
       inkscape:vp_z="480.74134 : 298.68846 : 1"
       inkscape:persp3d-origin="250 : 166.66667 : 1"
       id="perspective17" /><inkscape:perspective
       sodipodi:type="inkscape:persp3d"
       inkscape:vp_x="44.06818 : 315.96746 : 1"
       inkscape:vp_y="0 : 1000 : 0"
       inkscape:vp_z="480.74134 : 298.68846 : 1"
       inkscape:persp3d-origin="250 : 166.66667 : 1"
       id="perspective17-1" /><inkscape:perspective
       sodipodi:type="inkscape:persp3d"
       inkscape:vp_x="44.06818 : 315.96746 : 1"
       inkscape:vp_y="0 : 1000 : 0"
       inkscape:vp_z="480.74134 : 298.68846 : 1"
       inkscape:persp3d-origin="250 : 166.66667 : 1"
       id="perspective17-6" /><inkscape:perspective
       sodipodi:type="inkscape:persp3d"
       inkscape:vp_x="44.06818 : 315.96746 : 1"
       inkscape:vp_y="0 : 1000 : 0"
       inkscape:vp_z="480.74134 : 298.68846 : 1"
       inkscape:persp3d-origin="250 : 166.66667 : 1"
       id="perspective17-4" /><inkscape:perspective
       sodipodi:type="inkscape:persp3d"
       inkscape:vp_x="44.06818 : 315.96746 : 1"
       inkscape:vp_y="0 : 1000 : 0"
       inkscape:vp_z="480.74134 : 298.68846 : 1"
       inkscape:persp3d-origin="250 : 166.66667 : 1"
       id="perspective17-61" /><inkscape:perspective
       sodipodi:type="inkscape:persp3d"
       inkscape:vp_x="44.06818 : 315.96746 : 1"
       inkscape:vp_y="0 : 1000 : 0"
       inkscape:vp_z="480.74134 : 298.68846 : 1"
       inkscape:persp3d-origin="250 : 166.66667 : 1"
       id="perspective17-2" /><linearGradient
       inkscape:collect="always"
       xlink:href="#linearGradient5"
       id="linearGradient6"
       x1="3.1297035"
       y1="2.5475771"
       x2="23.992416"
       y2="24.439444"
       gradientUnits="userSpaceOnUse" /></defs><path
     id="path1"
     style="fill:url(#linearGradient6)"
     d="M 15.940028 1.9999731 C 14.940029 2.0399731 13.730035 2.6699651 13.000036 3.4999643 C 12.360037 4.2599635 11.799972 5.4599824 11.949971 6.6099813 C 13.06997 6.6999812 14.209989 6.0400288 14.899988 5.1900296 C 15.599988 4.3500305 16.070028 3.169972 15.940028 1.9999731 z M 15.630369 6.8238147 C 14.187755 6.8095325 12.841221 7.7500314 12.109971 7.7500314 C 11.319972 7.7500314 10.100013 6.860016 8.819984 6.880016 C 7.1299857 6.910016 5.5699999 7.8699749 4.7000008 9.3899734 C 2.9400026 12.44997 4.2499541 16.999983 5.9599524 19.46998 C 6.7999515 20.679979 7.7899657 22.049987 9.0999644 21.999987 C 10.369993 21.949987 10.839983 21.180016 12.369982 21.180016 C 13.88998 21.180016 14.31997 21.999992 15.659969 21.969992 C 16.999968 21.949992 17.879997 20.739974 18.709996 19.499976 C 19.669995 18.109977 20.060007 16.740018 20.090007 16.670018 C 20.060007 16.660018 17.440024 15.649992 17.410025 12.629995 C 17.390025 10.099998 19.469962 8.8799877 19.559962 8.8199878 C 18.389963 7.0999895 16.569978 6.8699962 15.919979 6.8399963 C 15.823104 6.8299963 15.726543 6.8247668 15.630369 6.8238147 z M 12.742631 9.2489965 C 13.709339 9.2489965 14.700013 9.4606006 15.474315 9.8705262 L 15.946738 10.120591 L 15.230566 11.970577 L 14.672736 11.760059 C 14.065732 11.531001 13.310977 11.388199 12.678457 11.388199 C 11.730864 11.388199 11.049331 11.668042 10.584563 12.140365 C 10.119797 12.612689 9.8416324 13.312152 9.8416324 14.27641 C 9.8416324 15.287207 10.149674 16.072789 10.651421 16.609633 C 11.153168 17.146476 11.858751 17.459599 12.781072 17.459599 C 13.370241 17.459599 14.115246 17.315803 14.674551 17.09208 L 15.278637 16.850462 L 15.875618 18.767385 L 15.383541 18.983586 C 14.463372 19.387903 13.486626 19.59888 12.537323 19.59888 C 11.085448 19.59888 9.8157504 19.091804 8.9276505 18.185165 C 8.0395515 17.278525 7.5484291 15.992195 7.5484291 14.52016 C 7.5484291 12.990301 8.0590945 11.65537 8.9828257 10.715046 C 9.9065569 9.7747201 11.227383 9.2489961 12.742631 9.2489965 z "
     transform="matrix(24.743635,0,0,24.743635,-43.381042,-49.18973)" /></svg>
