<?xml version="1.0" encoding="UTF-8" standalone="no"?>
<!-- Created with Inkscape (http://www.inkscape.org/) -->

<svg
   width="500"
   height="500"
   viewBox="0 0 500 500"
   version="1.1"
   id="svg1"
   inkscape:version="1.3.2 (091e20ef0f, 2023-11-25, custom)"
   sodipodi:docname="main.py.svg"
   xmlns:inkscape="http://www.inkscape.org/namespaces/inkscape"
   xmlns:sodipodi="http://sodipodi.sourceforge.net/DTD/sodipodi-0.dtd"
   xmlns:xlink="http://www.w3.org/1999/xlink"
   xmlns="http://www.w3.org/2000/svg"
   xmlns:svg="http://www.w3.org/2000/svg">
  <sodipodi:namedview
     id="namedview1"
     pagecolor="#505050"
     bordercolor="#eeeeee"
     borderopacity="1"
     inkscape:showpageshadow="0"
     inkscape:pageopacity="0"
     inkscape:pagecheckerboard="0"
     inkscape:deskcolor="#505050"
     inkscape:document-units="px"
     inkscape:zoom="0.70710678"
     inkscape:cx="175.36248"
     inkscape:cy="314.66252"
     inkscape:window-width="1362"
     inkscape:window-height="744"
     inkscape:window-x="0"
     inkscape:window-y="20"
     inkscape:window-maximized="1"
     inkscape:current-layer="layer1"
     showguides="true">
    <sodipodi:guide
       position="250.02518,350.60736"
       orientation="-0.99997769,0.0066803918"
       id="guide30"
       inkscape:locked="false" />
    <sodipodi:guide
       position="66.396728,247.89992"
       orientation="0,-1"
       id="guide53"
       inkscape:locked="false" />
  </sodipodi:namedview>
  <defs
     id="defs1">
    <inkscape:path-effect
       effect="mirror_symmetry"
       start_point="259.82097,32.84423"
       end_point="259.82097,340.57345"
       center_point="259.82097,186.70884"
       id="path-effect1"
       is_visible="true"
       lpeversion="1.2"
       lpesatellites=""
       mode="free"
       discard_orig_path="false"
       fuse_paths="true"
       oposite_fuse="false"
       split_items="false"
       split_open="false"
       link_styles="false" />
    <linearGradient
       id="swatch61"
       inkscape:swatch="solid">
      <stop
         style="stop-color:#5090d0;stop-opacity:1;"
         offset="0"
         id="stop61" />
    </linearGradient>
    <linearGradient
       id="swatch30"
       inkscape:swatch="solid">
      <stop
         style="stop-color:#f9f9f9;stop-opacity:1;"
         offset="0"
         id="stop30" />
    </linearGradient>
    <inkscape:perspective
       sodipodi:type="inkscape:persp3d"
       inkscape:vp_x="44.06818 : 315.96746 : 1"
       inkscape:vp_y="0 : 1000 : 0"
       inkscape:vp_z="480.74134 : 298.68846 : 1"
       inkscape:persp3d-origin="250 : 166.66667 : 1"
       id="perspective17" />
  </defs>
  <path
     id="rect1"
     style="display:none;opacity:1;fill:#303030;stroke-width:36.5249;stroke-linecap:round;stroke-miterlimit:10"
     d="m 102.28614,0.29806468 h 298.91957 c 54.66278,0 98.66928,44.00649632 98.66928,98.66927332 V 400.04783 c 0,54.66278 -44.0065,98.66927 -98.66928,98.66927 H 102.28614 c -54.662774,0 -98.6692701,-44.00649 -98.6692701,-98.66927 V 98.967338 c 0,-54.662777 44.0064961,-98.66927332 98.6692701,-98.66927332 z" />
  <path
     id="rect14"
     style="display:none;fill:#8682e1;fill-opacity:1;stroke:none;stroke-width:70.762;stroke-linejoin:round;stroke-dasharray:none;stroke-opacity:1;paint-order:markers fill stroke"
     d="m 175.47119,52.258181 c -20.07375,0 -36.23438,15.546134 -36.23438,34.857422 v 49.802737 h 116.92578 v 17.72851 H 139.23681 v 0.0508 H 72.842664 l -0.426174,0.79974 v 201.7451 l 0.0086,0.42782 h 73.95044 v -57.9668 l 52.41211,-57.92187 h 92.08203 l 39.70508,-45.21485 V 189.55701 52.322743 l -0.11333,-0.06456 z m -13.58985,21.125 h 36.24805 v 36.248039 h -36.24805 z"
     sodipodi:nodetypes="sscccccccccccccccccsccccc"
     sodipodi:insensitive="true" />
  <path
     id="use15"
     style="display:none;fill:#e3e591;fill-opacity:1;stroke:none;stroke-width:70.762;stroke-linejoin:round;stroke-dasharray:none;stroke-opacity:1;paint-order:markers fill stroke"
     d="m 326.94275,452.65582 c 20.07375,0 36.23438,-15.54613 36.23438,-34.85742 V 367.99566 H 246.25135 v -17.72851 h 116.92578 v -0.0508 h 66.39414 l 0.42617,-0.79974 v -201.7451 l -0.009,-0.42782 h -73.95003 v 57.9668 l -52.41211,57.92187 h -92.08203 l -39.70508,45.21485 v 7.00978 137.23427 l 0.11333,0.0646 z m 13.58985,-21.125 h -36.24805 v -36.24805 h 36.24805 z"
     sodipodi:nodetypes="sscccccccccccccccccsccccc"
     sodipodi:insensitive="true" />
  <g
     inkscape:groupmode="layer"
     id="layer1"
     inkscape:label="Layer 1"
     transform="matrix(0.68833014,0,0,0.76386777,72.251413,391.59014)">
    <path
       style="fill:#8682e1;fill-opacity:1;stroke-width:35.022;stroke-miterlimit:10"
       d="m 78.972656,53.806641 c -7.279892,-0.03276 -13.786625,0.176551 -19.271484,0.677734 -56.6052991,5.172353 -93.40493,22.899849 -112.210938,61.115235 -31.66452,64.34497 -2.504305,177.82006 33.732422,212.48242 36.236727,34.66236 109.243306,-7.87492 163.957034,-7.78906 31.03319,0.0487 81.57855,3.00888 114.64062,5.18555 33.06207,-2.17667 83.60939,-5.13682 114.64258,-5.18555 54.71373,-0.0859 127.72031,42.45142 163.95703,7.78906 36.23673,-34.66236 65.39694,-148.13745 33.73242,-212.48242 C 553.34634,77.384224 516.54671,59.656728 459.94141,54.484375 416.06254,50.47491 306.7531,65.216882 259.82031,72.048828 218.75413,66.070875 129.9319,54.035925 78.972656,53.806641 Z"
       id="path1"
       sodipodi:nodetypes="czazaccc"
       inkscape:path-effect="#path-effect1"
       inkscape:original-d="m 281.79833,75.346751 c 0,0 -165.49152,-26.035418 -222.096877,-20.86306 -56.6053556,5.172358 -93.406133,22.900845 -112.212159,61.116269 -31.664552,64.34503 -2.503187,177.81909 33.733576,212.48149 36.236763,34.66239 109.24285,-7.87491 163.95663,-7.78905 49.16564,0.0772 147.30825,7.46156 147.30825,7.46156 L 394.04316,100.43579 C 412.44218,120.10458 367.96813,84.185535 281.79833,75.346751 Z"
       transform="translate(-3.5086892,-424.98508)" />
    <ellipse
       style="fill:#e3e591;fill-opacity:1;stroke-width:35.022;stroke-miterlimit:10"
       id="path2"
       cx="255.51039"
       cy="-94.886215"
       rx="226.0737"
       ry="80.065849" />
    <ellipse
       style="fill:#e3e591;fill-opacity:1;stroke-width:38.34;stroke-miterlimit:10"
       id="path3"
       cx="-19.838089"
       cy="-247.57803"
       rx="81.259789"
       ry="111.58989" />
    <use
       x="0"
       y="0"
       xlink:href="#path3"
       id="use3"
       transform="translate(560.85838)" />
    <path
       style="fill:none;fill-opacity:1;stroke:#f24166;stroke-width:45.4217;stroke-linecap:round;stroke-miterlimit:10;stroke-dasharray:none;stroke-opacity:1"
       d="M 253.7964,-167.17532 V 33.950207 l -40.88115,24.42221"
       id="path4"
       sodipodi:nodetypes="ccc" />
    <ellipse
       style="fill:#0f0d37;fill-opacity:1;stroke:none;stroke-width:68.2207;stroke-linecap:round;stroke-miterlimit:10;stroke-dasharray:none;stroke-opacity:1"
       id="path5"
       cx="-25.978708"
       cy="-249.3949"
       rx="29.548159"
       ry="70.274818" />
    <use
       x="0"
       y="0"
       xlink:href="#path5"
       id="use5"
       transform="translate(577.15848,-2.7836319)" />
    <path
       style="fill:none;fill-opacity:1;stroke:#f24166;stroke-width:45.4217;stroke-linecap:round;stroke-miterlimit:10;stroke-dasharray:none;stroke-opacity:1"
       d="m 252.12781,34.852597 35.84037,29.890561"
       id="path6"
       sodipodi:nodetypes="cc" />
  </g>
</svg>
