<?xml version="1.0" encoding="UTF-8" standalone="no"?>
<!-- Created with Inkscape (http://www.inkscape.org/) -->

<svg
   width="500"
   height="500"
   viewBox="0 0 500 500"
   version="1.1"
   id="svg1"
   inkscape:version="1.3.2 (091e20ef0f, 2023-11-25, custom)"
   sodipodi:docname="main.rs.svg"
   xml:space="preserve"
   xmlns:inkscape="http://www.inkscape.org/namespaces/inkscape"
   xmlns:sodipodi="http://sodipodi.sourceforge.net/DTD/sodipodi-0.dtd"
   xmlns:xlink="http://www.w3.org/1999/xlink"
   xmlns="http://www.w3.org/2000/svg"
   xmlns:svg="http://www.w3.org/2000/svg"><sodipodi:namedview
     id="namedview1"
     pagecolor="#505050"
     bordercolor="#eeeeee"
     borderopacity="1"
     inkscape:showpageshadow="0"
     inkscape:pageopacity="0"
     inkscape:pagecheckerboard="0"
     inkscape:deskcolor="#505050"
     inkscape:document-units="px"
     inkscape:zoom="1.082"
     inkscape:cx="245.84104"
     inkscape:cy="252.77264"
     inkscape:window-width="1362"
     inkscape:window-height="744"
     inkscape:window-x="0"
     inkscape:window-y="20"
     inkscape:window-maximized="1"
     inkscape:current-layer="svg1"
     showguides="true"><sodipodi:guide
       position="250.02518,350.60736"
       orientation="-0.99997769,0.0066803918"
       id="guide30"
       inkscape:locked="false" /><sodipodi:guide
       position="66.396728,247.89992"
       orientation="0,-1"
       id="guide53"
       inkscape:locked="false" /></sodipodi:namedview><defs
     id="defs1"><linearGradient
       id="swatch61"
       inkscape:swatch="solid"><stop
         style="stop-color:#5090d0;stop-opacity:1;"
         offset="0"
         id="stop61" /></linearGradient><linearGradient
       id="swatch30"
       inkscape:swatch="solid"><stop
         style="stop-color:#f9f9f9;stop-opacity:1;"
         offset="0"
         id="stop30" /></linearGradient><inkscape:perspective
       sodipodi:type="inkscape:persp3d"
       inkscape:vp_x="44.06818 : 315.96746 : 1"
       inkscape:vp_y="0 : 1000 : 0"
       inkscape:vp_z="480.74134 : 298.68846 : 1"
       inkscape:persp3d-origin="250 : 166.66667 : 1"
       id="perspective17" /><inkscape:perspective
       sodipodi:type="inkscape:persp3d"
       inkscape:vp_x="44.06818 : 315.96746 : 1"
       inkscape:vp_y="0 : 1000 : 0"
       inkscape:vp_z="480.74134 : 298.68846 : 1"
       inkscape:persp3d-origin="250 : 166.66667 : 1"
       id="perspective17-8" /><inkscape:perspective
       sodipodi:type="inkscape:persp3d"
       inkscape:vp_x="44.06818 : 315.96746 : 1"
       inkscape:vp_y="0 : 1000 : 0"
       inkscape:vp_z="480.74134 : 298.68846 : 1"
       inkscape:persp3d-origin="250 : 166.66667 : 1"
       id="perspective17-3" /><inkscape:perspective
       sodipodi:type="inkscape:persp3d"
       inkscape:vp_x="44.06818 : 315.96746 : 1"
       inkscape:vp_y="0 : 1000 : 0"
       inkscape:vp_z="480.74134 : 298.68846 : 1"
       inkscape:persp3d-origin="250 : 166.66667 : 1"
       id="perspective17-4" /></defs><path
     style="fill:#c96b00;fill-opacity:1;stroke:none;stroke-width:31.8077;stroke-linecap:round;stroke-miterlimit:10;stroke-dasharray:none;stroke-opacity:1"
     d="m 146.59373,438.16782 -45.11604,-81.43102 143.39944,-40.04038 118.75472,33.15902 -46.7302,84.34444 20.43102,-79.45763 H 132.61405 Z"
     id="path16" /><path
     style="fill:#cc8b18;fill-opacity:1;stroke:none;stroke-width:31.8077;stroke-linecap:round;stroke-miterlimit:10;stroke-dasharray:none;stroke-opacity:1"
     d="M 95.85579,30.442831 49.426724,43.406881 60.318067,85.764087 -3.6267278,124.23592 59.45917,189.97606 95.125944,168.51745 34.026665,131.7576 88.743137,98.837907 h 29.029613 z"
     id="path17" /><path
     style="fill:#cc8b18;fill-opacity:1;stroke:none;stroke-width:31.8077;stroke-linecap:round;stroke-miterlimit:10;stroke-dasharray:none;stroke-opacity:1"
     d="M 396.67393,182.03441 441.48543,135.33756 416.9953,91.134751 H 378.59166 V 28.204968 l 85.90099,23.985508 -9.43854,36.707134 36.23384,65.39933 -77.74196,46.77278 z"
     id="path18" /><path
     id="path14"
     style="fill:#ffa611;fill-opacity:1;stroke-width:31.8077;stroke-linecap:round;stroke-miterlimit:10"
     d="m 500.93194,321.2486 c 0,16.06974 -111.97896,55.2703 -250.112,55.27031 -138.13305,0 -250.112004,-35.44943 -250.112004,-55.27031 0,-71.97238 111.978964,-191.55571 250.112004,-191.55571 138.13304,0 250.112,119.58333 250.112,191.55571 z"
     sodipodi:nodetypes="sssss" /><path
     style="fill:#ffa611;fill-opacity:1;stroke:none;stroke-width:31.8077;stroke-linecap:round;stroke-miterlimit:10;stroke-dasharray:none;stroke-opacity:1"
     d="m 102.52189,453.32307 -78.061369,-81.34569 82.788039,-49.8087 h 272.03198 l 65.45887,68.21295 -106.25932,63.92998 60.79329,-63.35106 -151.78324,-42.38133 -159.701648,44.59233 z"
     id="path15" /><path
     sodipodi:type="star"
     style="fill:#ffa611;fill-opacity:1;stroke:none;stroke-width:30;stroke-linecap:round;stroke-miterlimit:10;stroke-dasharray:none;stroke-opacity:1"
     id="path19"
     inkscape:flatsided="false"
     sodipodi:sides="16"
     sodipodi:cx="247.94934"
     sodipodi:cy="197.81641"
     sodipodi:r1="175.83089"
     sodipodi:r2="140.6647"
     sodipodi:arg1="0"
     sodipodi:arg2="0.19634954"
     inkscape:rounded="0"
     inkscape:randomized="0"
     d="m 423.78023,197.81641 -37.86902,27.44232 24.48469,39.84524 -45.48813,10.86156 7.37278,46.18209 -46.18209,-7.37279 -10.86155,45.48813 -39.84525,-24.48468 -27.44232,37.86901 -27.44232,-37.86901 -39.84525,24.48468 -10.86155,-45.48813 -46.18209,7.37279 7.37278,-46.18209 -45.488127,-10.86156 24.484687,-39.84524 -37.869016,-27.44232 37.869016,-27.44233 -24.484687,-39.84524 45.488127,-10.86156 -7.37278,-46.182086 46.18209,7.372786 10.86155,-45.488131 39.84525,24.484687 27.44232,-37.869017 27.44232,37.869017 39.84525,-24.484687 10.86155,45.488131 46.18209,-7.372786 -7.37278,46.182086 45.48813,10.86156 -24.48469,39.84524 z"
     transform="matrix(1.37601,0,0,0.63401365,-93.508713,98.396485)" /><ellipse
     style="fill:#000000;fill-opacity:1;stroke:none;stroke-width:43.1322;stroke-linecap:round;stroke-miterlimit:10;stroke-dasharray:none;stroke-opacity:1"
     id="path21"
     cx="97.577568"
     cy="290.88718"
     rx="47.133938"
     ry="49.117023" /><use
     x="0"
     y="0"
     xlink:href="#path21"
     id="use21"
     transform="translate(314.32135,0.44697355)" /></svg>
