<?xml version="1.0" encoding="UTF-8" standalone="no"?>
<!-- Created with Inkscape (http://www.inkscape.org/) -->

<svg
   width="500"
   height="500"
   viewBox="0 0 500 500"
   version="1.1"
   id="svg1"
   inkscape:version="1.3.2 (091e20ef0f, 2023-11-25, custom)"
   sodipodi:docname="main.cs.svg"
   xml:space="preserve"
   xmlns:inkscape="http://www.inkscape.org/namespaces/inkscape"
   xmlns:sodipodi="http://sodipodi.sourceforge.net/DTD/sodipodi-0.dtd"
   xmlns:xlink="http://www.w3.org/1999/xlink"
   xmlns="http://www.w3.org/2000/svg"
   xmlns:svg="http://www.w3.org/2000/svg"><sodipodi:namedview
     id="namedview1"
     pagecolor="#505050"
     bordercolor="#eeeeee"
     borderopacity="1"
     inkscape:showpageshadow="0"
     inkscape:pageopacity="0"
     inkscape:pagecheckerboard="0"
     inkscape:deskcolor="#505050"
     inkscape:document-units="px"
     inkscape:zoom="0.70710678"
     inkscape:cx="307.59145"
     inkscape:cy="241.12341"
     inkscape:window-width="1362"
     inkscape:window-height="744"
     inkscape:window-x="0"
     inkscape:window-y="20"
     inkscape:window-maximized="0"
     inkscape:current-layer="svg1"
     showguides="true"><sodipodi:guide
       position="250.02518,350.60736"
       orientation="-0.99997769,0.0066803918"
       id="guide30"
       inkscape:locked="false" /><sodipodi:guide
       position="416.24481,247.67962"
       orientation="0,-1"
       id="guide53"
       inkscape:locked="false" /><sodipodi:guide
       position="221.35979,127.71308"
       orientation="0,-1"
       id="guide5"
       inkscape:locked="false" /><sodipodi:guide
       position="96.959247,117.65127"
       orientation="1,0"
       id="guide6"
       inkscape:locked="false" /></sodipodi:namedview><defs
     id="defs1"><linearGradient
       id="linearGradient4"
       inkscape:collect="always"><stop
         style="stop-color:#b839ff;stop-opacity:1;"
         offset="0"
         id="stop4" /><stop
         style="stop-color:#39ffdd;stop-opacity:1;"
         offset="1"
         id="stop5" /></linearGradient><linearGradient
       id="swatch61"
       inkscape:swatch="solid"><stop
         style="stop-color:#5090d0;stop-opacity:1;"
         offset="0"
         id="stop61" /></linearGradient><linearGradient
       id="swatch30"
       inkscape:swatch="solid"><stop
         style="stop-color:#f9f9f9;stop-opacity:1;"
         offset="0"
         id="stop30" /></linearGradient><inkscape:perspective
       sodipodi:type="inkscape:persp3d"
       inkscape:vp_x="44.06818 : 315.96746 : 1"
       inkscape:vp_y="0 : 1000 : 0"
       inkscape:vp_z="480.74134 : 298.68846 : 1"
       inkscape:persp3d-origin="250 : 166.66667 : 1"
       id="perspective17" /><inkscape:perspective
       sodipodi:type="inkscape:persp3d"
       inkscape:vp_x="44.06818 : 315.96746 : 1"
       inkscape:vp_y="0 : 1000 : 0"
       inkscape:vp_z="480.74134 : 298.68846 : 1"
       inkscape:persp3d-origin="250 : 166.66667 : 1"
       id="perspective17-2" /><inkscape:perspective
       sodipodi:type="inkscape:persp3d"
       inkscape:vp_x="44.06818 : 315.96746 : 1"
       inkscape:vp_y="0 : 1000 : 0"
       inkscape:vp_z="480.74134 : 298.68846 : 1"
       inkscape:persp3d-origin="250 : 166.66667 : 1"
       id="perspective17-0" /><inkscape:perspective
       sodipodi:type="inkscape:persp3d"
       inkscape:vp_x="44.06818 : 315.96746 : 1"
       inkscape:vp_y="0 : 1000 : 0"
       inkscape:vp_z="480.74134 : 298.68846 : 1"
       inkscape:persp3d-origin="250 : 166.66667 : 1"
       id="perspective17-3" /><inkscape:perspective
       sodipodi:type="inkscape:persp3d"
       inkscape:vp_x="44.06818 : 315.96746 : 1"
       inkscape:vp_y="0 : 1000 : 0"
       inkscape:vp_z="480.74134 : 298.68846 : 1"
       inkscape:persp3d-origin="250 : 166.66667 : 1"
       id="perspective17-1" /><radialGradient
       id="a"
       cx="767.179"
       cy="5169.543"
       r="14.989"
       gradientTransform="matrix(0.955,0,0,0.962,-718.112,-4953.917)"
       gradientUnits="userSpaceOnUse"><stop
         offset="0"
         stop-color="#36bac0"
         id="stop1" /><stop
         offset="1"
         stop-color="#2d9094"
         id="stop2" /></radialGradient><inkscape:perspective
       sodipodi:type="inkscape:persp3d"
       inkscape:vp_x="44.06818 : 315.96746 : 1"
       inkscape:vp_y="0 : 1000 : 0"
       inkscape:vp_z="480.74134 : 298.68846 : 1"
       inkscape:persp3d-origin="250 : 166.66667 : 1"
       id="perspective17-6" /><inkscape:perspective
       sodipodi:type="inkscape:persp3d"
       inkscape:vp_x="44.06818 : 315.96746 : 1"
       inkscape:vp_y="0 : 1000 : 0"
       inkscape:vp_z="480.74134 : 298.68846 : 1"
       inkscape:persp3d-origin="250 : 166.66667 : 1"
       id="perspective17-36" /><inkscape:perspective
       sodipodi:type="inkscape:persp3d"
       inkscape:vp_x="44.06818 : 315.96746 : 1"
       inkscape:vp_y="0 : 1000 : 0"
       inkscape:vp_z="480.74134 : 298.68846 : 1"
       inkscape:persp3d-origin="250 : 166.66667 : 1"
       id="perspective17-7" /><linearGradient
       inkscape:collect="always"
       xlink:href="#linearGradient4"
       id="linearGradient5"
       x1="2.0268836"
       y1="45.855049"
       x2="470.83905"
       y2="472.29541"
       gradientUnits="userSpaceOnUse" /></defs><path
     id="path1"
     style="fill:url(#linearGradient5);fill-opacity:1;stroke:none;stroke-width:31.8;stroke-linecap:round;stroke-linejoin:round;stroke-miterlimit:10;stroke-dasharray:none;stroke-opacity:1"
     d="M 250.62891 4.8027344 L 37.71875 128.86914 L 38.707031 375.28906 L 252.60742 497.64258 L 297.50195 471.48242 L 297.50195 423.32812 L 253.23633 423.32812 L 253.23633 403.80273 C 220.10099 399.27578 191.25821 385.24574 169.86914 363.41016 C 143.4914 336.48173 128.90234 298.27612 128.90234 254.55469 C 128.90234 209.11581 144.07174 169.46797 171.50781 141.53906 C 198.94387 113.61013 238.17285 97.994141 283.17773 97.994141 C 311.89028 97.994141 341.31465 104.27975 364.3125 116.45508 L 378.34375 123.88281 L 357.07422 178.83008 L 340.50391 172.57617 C 322.47507 165.77284 300.05815 161.53321 281.27148 161.5332 C 253.12669 161.53321 232.88426 169.84439 219.08008 183.87305 C 205.2759 197.90168 197.01366 218.67664 197.01367 247.31641 C 197.01367 277.33844 206.16386 300.67027 221.06641 316.61523 C 229.70689 325.86013 240.45063 332.78487 253.23633 337.04492 L 253.23633 333.18555 L 253.23633 250.84375 L 297.50195 250.84375 L 297.50195 214.52734 L 297.50195 192.02734 L 371.17773 192.02734 L 388.20703 192.02734 L 464.51367 192.02734 L 464.5293 127.15625 L 250.62891 4.8027344 z M 320.00195 214.52734 L 320.00195 273.34375 L 275.73438 273.34375 L 275.73438 318.48633 L 320.00195 318.48633 L 320.00977 355.68555 L 320.00195 355.67969 L 320.00195 355.68555 L 275.73438 355.68555 L 275.73438 400.82812 L 320.00195 400.82812 L 320.00195 463.97852 L 337.31055 463.97852 L 366.09961 463.97852 L 366.00781 400.82812 L 393.67578 400.82812 L 393.67578 463.97852 L 410.98633 463.97852 L 439.43945 463.97852 L 439.43945 400.82812 L 483.08594 400.82812 L 483.08594 355.68555 L 439.43945 355.68555 L 439.43945 318.48633 L 483.08594 318.48633 L 483.08594 273.34375 L 439.43945 273.34375 L 439.43945 214.52734 L 393.67578 214.52734 L 393.67578 273.34375 L 365.82422 273.34375 L 365.73828 214.52734 L 320.00195 214.52734 z M 365.88867 318.48633 L 393.67578 318.48633 L 393.67578 355.68555 L 365.94336 355.68555 L 365.88867 318.48633 z " /></svg>
