<?xml version="1.0" encoding="UTF-8" standalone="no"?>
<!-- Created with Inkscape (http://www.inkscape.org/) -->

<svg
   width="500"
   height="500"
   viewBox="0 0 500 500"
   version="1.1"
   id="svg1"
   inkscape:version="1.3.2 (091e20ef0f, 2023-11-25, custom)"
   sodipodi:docname="main.svg"
   xml:space="preserve"
   xmlns:inkscape="http://www.inkscape.org/namespaces/inkscape"
   xmlns:sodipodi="http://sodipodi.sourceforge.net/DTD/sodipodi-0.dtd"
   xmlns="http://www.w3.org/2000/svg"
   xmlns:svg="http://www.w3.org/2000/svg"><sodipodi:namedview
     id="namedview1"
     pagecolor="#505050"
     bordercolor="#eeeeee"
     borderopacity="1"
     inkscape:showpageshadow="0"
     inkscape:pageopacity="0"
     inkscape:pagecheckerboard="0"
     inkscape:deskcolor="#505050"
     inkscape:document-units="px"
     inkscape:zoom="0.64175296"
     inkscape:cx="232.95568"
     inkscape:cy="153.48585"
     inkscape:window-width="1362"
     inkscape:window-height="744"
     inkscape:window-x="0"
     inkscape:window-y="20"
     inkscape:window-maximized="1"
     inkscape:current-layer="svg1"
     showguides="true"><sodipodi:guide
       position="250.02518,350.60736"
       orientation="-0.99997769,0.0066803918"
       id="guide30"
       inkscape:locked="false" /><sodipodi:guide
       position="66.396728,247.89992"
       orientation="0,-1"
       id="guide53"
       inkscape:locked="false" /></sodipodi:namedview><defs
     id="defs1"><linearGradient
       id="swatch61"
       inkscape:swatch="solid"><stop
         style="stop-color:#5090d0;stop-opacity:1;"
         offset="0"
         id="stop61" /></linearGradient><linearGradient
       id="swatch30"
       inkscape:swatch="solid"><stop
         style="stop-color:#f9f9f9;stop-opacity:1;"
         offset="0"
         id="stop30" /></linearGradient><inkscape:perspective
       sodipodi:type="inkscape:persp3d"
       inkscape:vp_x="44.06818 : 315.96746 : 1"
       inkscape:vp_y="0 : 1000 : 0"
       inkscape:vp_z="480.74134 : 298.68846 : 1"
       inkscape:persp3d-origin="250 : 166.66667 : 1"
       id="perspective17" /><inkscape:perspective
       sodipodi:type="inkscape:persp3d"
       inkscape:vp_x="44.06818 : 315.96746 : 1"
       inkscape:vp_y="0 : 1000 : 0"
       inkscape:vp_z="480.74134 : 298.68846 : 1"
       inkscape:persp3d-origin="250 : 166.66667 : 1"
       id="perspective17-0" /><inkscape:perspective
       sodipodi:type="inkscape:persp3d"
       inkscape:vp_x="44.06818 : 315.96746 : 1"
       inkscape:vp_y="0 : 1000 : 0"
       inkscape:vp_z="480.74134 : 298.68846 : 1"
       inkscape:persp3d-origin="250 : 166.66667 : 1"
       id="perspective17-06" /></defs><g
     id="rect53-0"><path
       id="path1"
       style="color:#000000;fill:#3acf54;stroke-linejoin:round;-inkscape-stroke:none;paint-order:markers fill stroke"
       d="M 92.275391 29.806641 C 89.710695 29.806641 87.413354 30.468165 85.300781 31.353516 L 39.488281 31.353516 C 26.911471 31.353516 17.675781 42.440413 17.675781 54.410156 L 17.675781 196.3418 C 17.675781 208.31152 26.913876 219.39648 39.488281 219.39648 L 71.847656 219.39648 L 71.847656 452.4375 C 71.847656 458.09082 73.535279 463.42998 76.904297 467.7793 C 80.273315 472.12859 85.85097 475.59961 92.275391 475.59961 L 433.95898 475.59961 C 440.38342 475.59961 445.96172 472.12704 449.33008 467.77734 C 452.69841 463.42766 454.38477 458.08976 454.38477 452.4375 L 454.38477 52.96875 C 454.38477 47.316485 452.69841 41.978597 449.33008 37.628906 C 445.96172 33.279217 440.38342 29.806641 433.95898 29.806641 L 92.275391 29.806641 z M 229.87695 117.38281 L 294.19141 117.38281 L 294.19141 161.91016 C 299.48434 163.72302 304.59245 165.95272 309.48047 168.56836 L 340.53125 136.9375 L 386.00781 183.26172 L 354.69141 215.16211 C 357.14818 220.06512 359.24924 225.17597 360.94727 230.46875 L 405.20117 230.46875 L 405.20117 295.98242 L 360.99414 295.98242 C 359.29872 301.29266 357.19709 306.41893 354.73828 311.33789 L 386.00391 343.18945 L 340.5293 389.51367 L 309.57422 357.98047 C 304.65848 360.61731 299.51741 362.8613 294.19141 364.68555 L 294.19141 409.06641 L 229.87695 409.06641 L 229.87695 365.31641 C 224.33167 363.53229 218.99259 361.26339 213.87695 358.60352 L 183.5332 389.51562 L 138.05859 343.19141 L 168.13672 312.55078 C 165.41121 307.26552 163.10247 301.7297 161.26758 295.98242 L 118.86133 295.98242 L 118.86133 230.46875 L 161.31445 230.46875 C 163.15254 224.7392 165.45993 219.22034 168.18359 213.95117 L 138.05664 183.26172 L 183.53125 136.9375 L 213.96875 167.94336 C 219.05668 165.30433 224.36472 163.05469 229.87695 161.28125 L 229.87695 117.38281 z M 261.13086 213.60352 A 52.630559 49.695139 0 0 0 208.5 263.29688 A 52.630559 49.695139 0 0 0 261.13086 312.99219 A 52.630559 49.695139 0 0 0 313.75977 263.29688 A 52.630559 49.695139 0 0 0 261.13086 213.60352 z " /></g></svg>
