<?xml version="1.0" encoding="UTF-8" standalone="no"?>
<!-- Created with Inkscape (http://www.inkscape.org/) -->

<svg
   width="500"
   height="500"
   viewBox="0 0 500 500"
   version="1.1"
   id="svg1"
   inkscape:version="1.3.2 (091e20ef0f, 2023-11-25, custom)"
   sodipodi:docname="main.svg"
   xml:space="preserve"
   xmlns:inkscape="http://www.inkscape.org/namespaces/inkscape"
   xmlns:sodipodi="http://sodipodi.sourceforge.net/DTD/sodipodi-0.dtd"
   xmlns="http://www.w3.org/2000/svg"
   xmlns:svg="http://www.w3.org/2000/svg"><sodipodi:namedview
     id="namedview1"
     pagecolor="#505050"
     bordercolor="#eeeeee"
     borderopacity="1"
     inkscape:showpageshadow="0"
     inkscape:pageopacity="0"
     inkscape:pagecheckerboard="0"
     inkscape:deskcolor="#505050"
     inkscape:document-units="px"
     inkscape:zoom="0.64175296"
     inkscape:cx="232.17657"
     inkscape:cy="153.48585"
     inkscape:window-width="1362"
     inkscape:window-height="744"
     inkscape:window-x="0"
     inkscape:window-y="20"
     inkscape:window-maximized="1"
     inkscape:current-layer="svg1"
     showguides="true"><sodipodi:guide
       position="250.02518,350.60736"
       orientation="-0.99997769,0.0066803918"
       id="guide30"
       inkscape:locked="false" /><sodipodi:guide
       position="66.396728,247.89992"
       orientation="0,-1"
       id="guide53"
       inkscape:locked="false" /></sodipodi:namedview><defs
     id="defs1"><linearGradient
       id="swatch61"
       inkscape:swatch="solid"><stop
         style="stop-color:#5090d0;stop-opacity:1;"
         offset="0"
         id="stop61" /></linearGradient><linearGradient
       id="swatch30"
       inkscape:swatch="solid"><stop
         style="stop-color:#f9f9f9;stop-opacity:1;"
         offset="0"
         id="stop30" /></linearGradient><inkscape:perspective
       sodipodi:type="inkscape:persp3d"
       inkscape:vp_x="44.06818 : 315.96746 : 1"
       inkscape:vp_y="0 : 1000 : 0"
       inkscape:vp_z="480.74134 : 298.68846 : 1"
       inkscape:persp3d-origin="250 : 166.66667 : 1"
       id="perspective17" /><inkscape:perspective
       sodipodi:type="inkscape:persp3d"
       inkscape:vp_x="44.06818 : 315.96746 : 1"
       inkscape:vp_y="0 : 1000 : 0"
       inkscape:vp_z="480.74134 : 298.68846 : 1"
       inkscape:persp3d-origin="250 : 166.66667 : 1"
       id="perspective17-0" /><inkscape:perspective
       sodipodi:type="inkscape:persp3d"
       inkscape:vp_x="44.06818 : 315.96746 : 1"
       inkscape:vp_y="0 : 1000 : 0"
       inkscape:vp_z="480.74134 : 298.68846 : 1"
       inkscape:persp3d-origin="250 : 166.66667 : 1"
       id="perspective17-06" /></defs><path
     id="rect53-0"
     style="display:inline;fill:#3acf54;fill-opacity:0.361728;fill-rule:nonzero;stroke:#3acf54;stroke-width:22.0622;stroke-linecap:butt;stroke-linejoin:round;stroke-dasharray:none;stroke-opacity:1;paint-order:markers fill stroke"
     d="m 92.275086,40.838043 c -1.64895,0 -3.17324,0.591372 -4.51758,1.546875 h -48.26953 c -5.972918,0 -10.78125,5.363663 -10.78125,12.02539 V 196.34195 c 0,6.66173 4.808332,12.02344 10.78125,12.02344 h 43.39063 v 244.07226 c 0,6.7206 4.19106,12.13086 9.39648,12.13086 H 433.95868 c 5.20542,0 9.39453,-5.41026 9.39453,-12.13086 V 52.968902 c 0,-6.720598 -4.18911,-12.130859 -9.39453,-12.130859 z" /><path
     id="path7"
     style="color:#000000;display:inline;fill:#3acf54;fill-opacity:1;stroke-width:0.919903;stroke-linejoin:round;-inkscape-stroke:none;paint-order:markers fill stroke"
     d="m 229.87782,117.38219 v 43.89815 c -5.51224,1.77344 -10.82126,4.0233 -15.9092,6.66233 l -30.43699,-31.00505 -45.47572,46.32443 30.12727,30.68952 c -2.72367,5.26917 -5.02974,10.78845 -6.86783,16.51801 h -42.45479 v 65.51355 h 42.40674 c 1.83489,5.74728 4.14407,11.2817 6.86958,16.56697 l -30.07919,30.64058 45.47571,46.32443 30.34443,-30.91075 c 5.11564,2.65988 10.4547,4.92715 15.99999,6.71127 v 43.75126 h 64.31323 V 364.6864 c 5.32601,-1.82425 10.46655,-4.06901 15.38229,-6.70585 l 30.95501,31.53274 45.47571,-46.32443 -31.26654,-31.85008 c 2.45881,-4.91897 4.5618,-10.04541 6.25722,-15.35565 h 44.20645 v -65.51355 h -44.25451 c -1.69803,-5.29279 -3.79867,-10.40365 -6.25545,-15.30667 l 31.3164,-31.90086 -45.47571,-46.32443 -31.05115,31.63067 c -4.88802,-2.61564 -9.99678,-4.84585 -15.28972,-6.65872 v -44.52738 z m 31.25229,96.22121 a 52.630559,49.695139 0 0 1 52.63013,49.69368 52.630559,49.695139 0 0 1 -52.63013,49.6955 52.630559,49.695139 0 0 1 -52.63012,-49.6955 52.630559,49.695139 0 0 1 52.63012,-49.69368 z" /></svg>
