<?xml version="1.0" encoding="UTF-8" standalone="no"?>
<!-- Created with Inkscape (http://www.inkscape.org/) -->

<svg
   width="500"
   height="500"
   viewBox="0 0 500 500"
   version="1.1"
   id="svg1"
   inkscape:version="1.3.2 (091e20ef0f, 2023-11-25, custom)"
   sodipodi:docname="main.zig.svg"
   xml:space="preserve"
   xmlns:inkscape="http://www.inkscape.org/namespaces/inkscape"
   xmlns:sodipodi="http://sodipodi.sourceforge.net/DTD/sodipodi-0.dtd"
   xmlns:xlink="http://www.w3.org/1999/xlink"
   xmlns="http://www.w3.org/2000/svg"
   xmlns:svg="http://www.w3.org/2000/svg"><sodipodi:namedview
     id="namedview1"
     pagecolor="#505050"
     bordercolor="#eeeeee"
     borderopacity="1"
     inkscape:showpageshadow="0"
     inkscape:pageopacity="0"
     inkscape:pagecheckerboard="0"
     inkscape:deskcolor="#505050"
     inkscape:document-units="px"
     inkscape:zoom="1"
     inkscape:cx="345.5"
     inkscape:cy="225.5"
     inkscape:window-width="1362"
     inkscape:window-height="744"
     inkscape:window-x="0"
     inkscape:window-y="20"
     inkscape:window-maximized="1"
     inkscape:current-layer="svg1"
     showguides="true"><sodipodi:guide
       position="250.02518,350.60736"
       orientation="-0.99997769,0.0066803918"
       id="guide30"
       inkscape:locked="false" /><sodipodi:guide
       position="663.14917,291.52002"
       orientation="0,-1"
       id="guide53"
       inkscape:locked="false" /></sodipodi:namedview><defs
     id="defs1"><linearGradient
       id="linearGradient35"
       inkscape:collect="always"><stop
         style="stop-color:#231f20;stop-opacity:1;"
         offset="0"
         id="stop35" /><stop
         style="stop-color:#4f3500;stop-opacity:1;"
         offset="1"
         id="stop36" /></linearGradient><linearGradient
       id="linearGradient1"
       inkscape:collect="always"><stop
         style="stop-color:#f7ff28;stop-opacity:1;"
         offset="0"
         id="stop1" /><stop
         style="stop-color:#f71d3f;stop-opacity:1;"
         offset="1"
         id="stop2" /></linearGradient><linearGradient
       id="swatch61"
       inkscape:swatch="solid"><stop
         style="stop-color:#5090d0;stop-opacity:1;"
         offset="0"
         id="stop61" /></linearGradient><linearGradient
       id="swatch30"
       inkscape:swatch="solid"><stop
         style="stop-color:#f9f9f9;stop-opacity:1;"
         offset="0"
         id="stop30" /></linearGradient><inkscape:perspective
       sodipodi:type="inkscape:persp3d"
       inkscape:vp_x="44.06818 : 315.96746 : 1"
       inkscape:vp_y="0 : 1000 : 0"
       inkscape:vp_z="480.74134 : 298.68846 : 1"
       inkscape:persp3d-origin="250 : 166.66667 : 1"
       id="perspective17" /><inkscape:perspective
       sodipodi:type="inkscape:persp3d"
       inkscape:vp_x="44.06818 : 315.96746 : 1"
       inkscape:vp_y="0 : 1000 : 0"
       inkscape:vp_z="480.74134 : 298.68846 : 1"
       inkscape:persp3d-origin="250 : 166.66667 : 1"
       id="perspective17-2" /><inkscape:perspective
       sodipodi:type="inkscape:persp3d"
       inkscape:vp_x="44.06818 : 315.96746 : 1"
       inkscape:vp_y="0 : 1000 : 0"
       inkscape:vp_z="480.74134 : 298.68846 : 1"
       inkscape:persp3d-origin="250 : 166.66667 : 1"
       id="perspective17-1" /><inkscape:perspective
       sodipodi:type="inkscape:persp3d"
       inkscape:vp_x="44.06818 : 315.96746 : 1"
       inkscape:vp_y="0 : 1000 : 0"
       inkscape:vp_z="480.74134 : 298.68846 : 1"
       inkscape:persp3d-origin="250 : 166.66667 : 1"
       id="perspective17-2-2" /><linearGradient
       inkscape:collect="always"
       xlink:href="#linearGradient1"
       id="linearGradient2-7"
       x1="-2.9876182"
       y1="8.4776192"
       x2="48.199039"
       y2="24.410975"
       gradientUnits="userSpaceOnUse" /><linearGradient
       inkscape:collect="always"
       xlink:href="#linearGradient35"
       id="linearGradient36"
       x1="79.342827"
       y1="141.4274"
       x2="964.24896"
       y2="758.56146"
       gradientUnits="userSpaceOnUse" /></defs><circle
     style="opacity:1;fill:url(#linearGradient36);fill-opacity:1;stroke:none;stroke-width:50;stroke-linecap:round;stroke-miterlimit:10"
     id="path31"
     cx="247.17569"
     cy="246.1044"
     r="237.94524" /><path
     id="polygon3-0"
     style="display:inline;fill:url(#linearGradient2-7)"
     d="m 26.875029,6.7069582 -5.367201,1.5388344 c 0.929605,0.3437675 1.749248,0.7857361 2.433095,1.2397434 0.09337,0.061987 0.176311,0.124235 0.264406,0.1864262 z M 9.4669802,8.5310266 V 11.565144 C 10.906532,10.147172 12.359292,9.1635716 13.774925,8.5310266 Z M 18.104128,8.918597 c -2.484913,-0.042059 -5.409733,1.003393 -8.4455574,4.350549 -2.1326156,2.35132 -1.2473932,3.520346 -3.2586727,7.06862 0.3576579,0.736921 0.8004342,1.429394 1.3192714,2.063255 l -2.6042012,2.892017 4.3003705,-1.232427 1.2109964,0.810171 c 0.122904,-0.271276 0.264512,-0.535586 0.437146,-0.785555 2.14119,-3.100397 4.942534,-3.883967 4.942534,-3.883967 0,0 4.070287,-0.289872 5.529614,-3.191109 0.26715,-0.531111 0.461669,-0.951297 0.602055,-1.293794 1.88465,0.08492 2.968107,-0.189566 3.203244,-3.145836 -0.175527,-0.490806 -3.095278,-3.5818255 -7.2368,-3.651924 z m -0.245469,0.7069739 c 1.57916,-6.15e-5 2.859364,1.2800651 2.859397,2.8592251 1.3e-5,1.579193 -1.280204,2.859371 -2.859397,2.85931 -1.579126,-3.4e-5 -2.859238,-1.280184 -2.859225,-2.85931 3.3e-5,-1.579093 1.280132,-2.8591916 2.859225,-2.8592251 z m 0,1.3218531 c -0.789336,1.7e-5 -1.416857,0.561172 -1.520588,1.316604 l 0.0167,0.546712 c 0.144981,0.701956 0.751473,1.211497 1.503891,1.211513 h 8.6e-5 c 0.864774,3.3e-5 1.537464,-0.672683 1.537457,-1.537457 -1.8e-5,-0.864757 -0.672702,-1.537405 -1.537457,-1.537372 z m 3.110805,8.783553 c -1.845405,1.462524 -4.123733,1.73225 -4.702228,1.77716 -0.201112,0.05988 -1.54749,0.50002 -2.982132,1.955841 h 9.247897 V 19.730977 Z M 8.2365323,22.966755 c 0.1039588,0.116609 0.2105106,0.23088 0.3195756,0.342728 -0.109065,-0.111848 -0.2156168,-0.226119 -0.3195756,-0.342728 z"
     transform="matrix(22.692449,0,0,22.692449,-112.25084,-112.44926)"
     sodipodi:nodetypes="ccsccccccsscccccccsccscccccsccsscssccccccccc" /><path
     id="path33"
     style="display:inline;fill:none;stroke-width:0.99998021;stroke-dasharray:none"
     d="m 22.726832,7.8963629 -1.164777,0.3339492 c 0.914848,0.3425573 1.723212,0.7785114 2.398496,1.2268329 0.09422,0.062553 0.179404,0.1254341 0.268708,0.1882338 l 0.055,-0.061109 A 10.485657,10.485657 0 0 0 22.726832,7.8963629 Z M 9.4669837,8.5310385 V 11.519712 C 10.878218,10.134169 12.302856,9.163065 13.693162,8.5310385 Z m 8.3930553,2.4485875 c -0.771739,1.7e-5 -1.38442,0.546652 -1.487365,1.284414 h 0.474329 l -0.463312,0.514608 c 0.132553,0.699818 0.730757,1.20969 1.476348,1.209706 h 8.6e-5 c 0.846915,3.3e-5 1.504414,-0.657493 1.504407,-1.504407 -1.8e-5,-0.846896 -0.657511,-1.504354 -1.504407,-1.504321 z m 4.062045,0.405387 c 0.0605,0.220755 0.102687,0.448496 0.127468,0.681067 l 0.350389,-0.38912 c -0.152566,-0.09908 -0.311356,-0.196771 -0.477857,-0.291947 z m -8.160669,0.14167 c -0.345994,0.212184 -0.699011,0.457998 -1.058223,0.737357 h 0.949776 c 0.01434,-0.252003 0.05187,-0.49812 0.108447,-0.737357 z m 0.682875,3.40568 -5.8060683,6.447801 c 0.4580936,0.587717 0.9861753,1.118368 1.5741233,1.578857 2.366029,-3.171664 5.430031,-4.063422 5.430031,-4.063422 l 0.13203,-0.03692 0.136764,-0.0097 c 0,0 0.02975,-0.0045 0.0358,-0.0053 l 1.932688,-2.146398 c -0.0066,3.1e-5 -0.01301,9.47e-4 -0.01962,9.47e-4 -1.400439,-3e-5 -2.647652,-0.701098 -3.415749,-1.765799 z m 6.580606,4.798626 c -1.854563,1.488963 -4.158498,1.763051 -4.750341,1.809092 -0.205438,0.06134 -1.526963,0.496249 -2.94254,1.923909 h 9.200989 v -3.733001 z"
     transform="matrix(22.692449,0,0,22.692449,-112.28217,-112.43)" /></svg>
