<?xml version="1.0" encoding="UTF-8" standalone="no"?>
<!-- Created with Inkscape (http://www.inkscape.org/) -->

<svg
   width="500"
   height="500"
   viewBox="0 0 500 500"
   version="1.1"
   id="svg1"
   inkscape:version="1.3.2 (091e20ef0f, 2023-11-25, custom)"
   sodipodi:docname="main.cpp.svg"
   xmlns:inkscape="http://www.inkscape.org/namespaces/inkscape"
   xmlns:sodipodi="http://sodipodi.sourceforge.net/DTD/sodipodi-0.dtd"
   xmlns="http://www.w3.org/2000/svg"
   xmlns:svg="http://www.w3.org/2000/svg">
  <sodipodi:namedview
     id="namedview1"
     pagecolor="#505050"
     bordercolor="#eeeeee"
     borderopacity="1"
     inkscape:showpageshadow="0"
     inkscape:pageopacity="0"
     inkscape:pagecheckerboard="0"
     inkscape:deskcolor="#505050"
     inkscape:document-units="px"
     inkscape:zoom="0.96390292"
     inkscape:cx="264.54946"
     inkscape:cy="274.40523"
     inkscape:window-width="1362"
     inkscape:window-height="744"
     inkscape:window-x="0"
     inkscape:window-y="20"
     inkscape:window-maximized="1"
     inkscape:current-layer="layer1"
     showguides="true">
    <sodipodi:guide
       position="250.02518,350.60736"
       orientation="-0.99997769,0.0066803918"
       id="guide30"
       inkscape:locked="false" />
    <sodipodi:guide
       position="66.396728,247.89992"
       orientation="0,-1"
       id="guide53"
       inkscape:locked="false" />
  </sodipodi:namedview>
  <defs
     id="defs1">
    <linearGradient
       id="swatch61"
       inkscape:swatch="solid">
      <stop
         style="stop-color:#5090d0;stop-opacity:1;"
         offset="0"
         id="stop61" />
    </linearGradient>
    <linearGradient
       id="swatch30"
       inkscape:swatch="solid">
      <stop
         style="stop-color:#f9f9f9;stop-opacity:1;"
         offset="0"
         id="stop30" />
    </linearGradient>
    <inkscape:perspective
       sodipodi:type="inkscape:persp3d"
       inkscape:vp_x="44.06818 : 315.96746 : 1"
       inkscape:vp_y="0 : 1000 : 0"
       inkscape:vp_z="480.74134 : 298.68846 : 1"
       inkscape:persp3d-origin="250 : 166.66667 : 1"
       id="perspective17" />
  </defs>
  <g
     inkscape:label="Layer 1"
     inkscape:groupmode="layer"
     id="layer1">
    <path
       id="path2"
       style="fill:#ff405c;stroke:none;stroke-width:31.8;stroke-linecap:round;stroke-linejoin:round;stroke-miterlimit:10;fill-opacity:1;opacity:1"
       d="M 251.98047 16.671875 L 45.589844 135.83008 L 45.589844 374.14844 L 157.93359 439.00977 L 157.93359 358.1543 C 135.57927 331.79621 123.45313 296.52465 123.45312 257.34375 C 123.45312 213.01648 138.37301 173.55232 165.74805 145.68555 C 193.12305 117.81875 232.27199 102.40234 276.26367 102.40234 C 304.44141 102.40234 332.87677 108.35858 356.10938 120.6582 L 376.23633 131.3125 L 350.31641 198.26953 L 326.54883 189.30078 C 310.82667 183.3679 290.72167 179.58008 274.48633 179.58008 C 250.08811 179.58008 233.86998 186.57654 222.89258 197.73242 C 211.91519 208.88832 204.89453 225.67881 204.89453 250.5957 C 204.89453 272.21977 210.3351 289.12698 219.08203 301.69531 L 314.06836 301.69531 L 314.06836 324.17773 C 318.43342 323.00751 322.6773 321.74666 326.43359 320.24414 L 352.16992 309.94922 L 360.39648 336.36133 L 360.39648 301.69531 L 458.36914 301.69531 L 458.36914 135.83008 L 251.98047 16.671875 z M 190.08008 457.57031 L 209.26562 468.64648 L 209.26562 457.57031 L 200.43359 457.57031 L 190.08008 457.57031 z " />
    <path
       style="font-size:173.333px;font-family:System-ui;-inkscape-font-specification:System-ui;fill:none;stroke:#ff405c;stroke-width:37.5824;paint-order:stroke fill markers;opacity:1;fill-opacity:1"
       d="M 251.76591,466.66348 H 271.5693 V 344.19511 H 251.76591 Z M 200.43343,415.07043 H 322.90178 V 395.78818 H 200.43343 Z m 202.46363,51.59305 h 19.80339 V 344.19511 H 402.89706 Z M 351.56458,415.07043 H 474.03293 V 395.78818 H 351.56458 Z"
       id="text27"
       inkscape:label="text"
       aria-label="C++"
       sodipodi:nodetypes="cccccccccccccccccccc" />
  </g>
</svg>
