<?xml version="1.0" encoding="UTF-8" standalone="no"?>
<!-- Created with Inkscape (http://www.inkscape.org/) -->

<svg
   width="500"
   height="500"
   viewBox="0 0 500 500"
   version="1.1"
   id="svg1"
   inkscape:version="1.3.2 (091e20ef0f, 2023-11-25, custom)"
   sodipodi:docname="main.lua.svg"
   xml:space="preserve"
   xmlns:inkscape="http://www.inkscape.org/namespaces/inkscape"
   xmlns:sodipodi="http://sodipodi.sourceforge.net/DTD/sodipodi-0.dtd"
   xmlns:xlink="http://www.w3.org/1999/xlink"
   xmlns="http://www.w3.org/2000/svg"
   xmlns:svg="http://www.w3.org/2000/svg"><sodipodi:namedview
     id="namedview1"
     pagecolor="#505050"
     bordercolor="#eeeeee"
     borderopacity="1"
     inkscape:showpageshadow="0"
     inkscape:pageopacity="0"
     inkscape:pagecheckerboard="0"
     inkscape:deskcolor="#505050"
     inkscape:document-units="px"
     inkscape:zoom="0.68158229"
     inkscape:cx="272.16083"
     inkscape:cy="313.24171"
     inkscape:window-width="1362"
     inkscape:window-height="744"
     inkscape:window-x="0"
     inkscape:window-y="20"
     inkscape:window-maximized="1"
     inkscape:current-layer="svg1"
     showguides="true"><sodipodi:guide
       position="250.02518,350.60736"
       orientation="-0.99997769,0.0066803918"
       id="guide30"
       inkscape:locked="false" /><sodipodi:guide
       position="66.396728,247.89992"
       orientation="0,-1"
       id="guide53"
       inkscape:locked="false" /></sodipodi:namedview><defs
     id="defs1"><linearGradient
       id="linearGradient6"
       inkscape:collect="always"><stop
         style="stop-color:#6c6cff;stop-opacity:1;"
         offset="0"
         id="stop6" /><stop
         style="stop-color:#ff2b6e;stop-opacity:1;"
         offset="1"
         id="stop7" /></linearGradient><inkscape:path-effect
       effect="mirror_symmetry"
       start_point="249.62695,31.187893"
       end_point="249.62695,493.56289"
       center_point="249.62695,262.37539"
       id="path-effect3"
       is_visible="true"
       lpeversion="1.2"
       lpesatellites=""
       mode="free"
       discard_orig_path="false"
       fuse_paths="true"
       oposite_fuse="false"
       split_items="false"
       split_open="false"
       link_styles="false" /><inkscape:path-effect
       effect="mirror_symmetry"
       start_point="249.62695,31.1875"
       end_point="249.62695,493.5625"
       center_point="249.62695,262.375"
       id="path-effect2"
       is_visible="true"
       lpeversion="1.2"
       lpesatellites=""
       mode="free"
       discard_orig_path="false"
       fuse_paths="false"
       oposite_fuse="false"
       split_items="false"
       split_open="false"
       link_styles="false" /><linearGradient
       id="swatch61"
       inkscape:swatch="solid"><stop
         style="stop-color:#5090d0;stop-opacity:1;"
         offset="0"
         id="stop61" /></linearGradient><linearGradient
       id="swatch30"
       inkscape:swatch="solid"><stop
         style="stop-color:#f9f9f9;stop-opacity:1;"
         offset="0"
         id="stop30" /></linearGradient><inkscape:perspective
       sodipodi:type="inkscape:persp3d"
       inkscape:vp_x="44.06818 : 315.96746 : 1"
       inkscape:vp_y="0 : 1000 : 0"
       inkscape:vp_z="480.74134 : 298.68846 : 1"
       inkscape:persp3d-origin="250 : 166.66667 : 1"
       id="perspective17" /><inkscape:perspective
       sodipodi:type="inkscape:persp3d"
       inkscape:vp_x="44.06818 : 315.96746 : 1"
       inkscape:vp_y="0 : 1000 : 0"
       inkscape:vp_z="480.74134 : 298.68846 : 1"
       inkscape:persp3d-origin="250 : 166.66667 : 1"
       id="perspective17-29" /><inkscape:perspective
       sodipodi:type="inkscape:persp3d"
       inkscape:vp_x="44.06818 : 315.96746 : 1"
       inkscape:vp_y="0 : 1000 : 0"
       inkscape:vp_z="480.74134 : 298.68846 : 1"
       inkscape:persp3d-origin="250 : 166.66667 : 1"
       id="perspective17-2" /><inkscape:perspective
       sodipodi:type="inkscape:persp3d"
       inkscape:vp_x="44.06818 : 315.96746 : 1"
       inkscape:vp_y="0 : 1000 : 0"
       inkscape:vp_z="480.74134 : 298.68846 : 1"
       inkscape:persp3d-origin="250 : 166.66667 : 1"
       id="perspective17-5" /><inkscape:perspective
       sodipodi:type="inkscape:persp3d"
       inkscape:vp_x="44.06818 : 315.96746 : 1"
       inkscape:vp_y="0 : 1000 : 0"
       inkscape:vp_z="480.74134 : 298.68846 : 1"
       inkscape:persp3d-origin="250 : 166.66667 : 1"
       id="perspective17-2-9" /><linearGradient
       inkscape:collect="always"
       xlink:href="#linearGradient6"
       id="linearGradient7"
       x1="2.3138511"
       y1="3.1630173"
       x2="27.874544"
       y2="26.733402"
       gradientUnits="userSpaceOnUse"
       gradientTransform="matrix(25,0,0,25,-142.09026,-174.7992)" /></defs><path
     id="circle1"
     style="fill:url(#linearGradient7);fill-opacity:1;stroke-width:17.8485"
     d="m 427.24331,21.157132 a 55.990815,55.990815 0 0 0 -55.9922,55.990245 55.990815,55.990815 0 0 0 0.74805,5.685525 c -9.74102,6.608625 -20.15447,14.39565 -31.2793,23.384778 -0.46057,0.37217 -0.9645,0.82227 -1.42772,1.19922 A 191.12198,191.12198 0 0 0 236.12026,77.147377 191.12198,191.12198 0 0 0 44.999165,268.2704 191.12198,191.12198 0 0 0 83.905415,383.4247 c -14.810403,21.48708 -26.2073,40.57968 -32.882813,56.51955 -3.356652,8.01505 -5.58569,15.22138 -6.189452,22.11913 -0.60376,6.89775 0.600112,14.3322 5.77539,19.75977 5.218225,5.47258 12.985192,6.87075 19.8125,6.07225 6.827307,-0.79847 13.74938,-3.35597 21.416015,-7.10545 15.333265,-7.49895 33.557705,-20.0886 54.066405,-36.40235 1.91343,-1.52205 3.9345,-3.23262 5.88478,-4.81835 a 191.12198,191.12198 0 0 0 84.33202,19.82225 191.12198,191.12198 0 0 0 191.12305,-191.1211 191.12198,191.12198 0 0 0 -25.87892,-96.00585 c 1.28715,-1.83417 2.6857,-3.73772 3.92187,-5.53905 8.24878,-12.0199 15.29328,-23.23292 21.16603,-33.68947 a 55.990815,55.990815 0 0 0 0.79102,0.10352 55.990815,55.990815 0 0 0 55.99023,-55.992173 55.990815,55.990815 0 0 0 -55.99023,-55.990245 z M 377.91126,103.1122 a 55.990815,55.990815 0 0 0 28.0918,25.32423 c -4.72622,8.04732 -10.2157,16.6994 -16.49217,25.89062 a 191.12198,191.12198 0 0 0 -33.36915,-34.7832 c 7.66385,-6.11477 14.94252,-11.60407 21.76952,-16.43165 z m -62.6328,30.00978 a 55.972963,55.972963 0 0 1 55.97265,55.97265 55.972963,55.972963 0 0 1 -55.97265,55.97265 55.972963,55.972963 0 0 1 -55.97265,-55.97265 55.972963,55.972963 0 0 1 55.97265,-55.97265 z M 97.403462,399.22745 a 191.12198,191.12198 0 0 0 35.990228,29.55468 c -19.85745,15.79142 -37.424193,27.7225 -50.343745,34.04102 -6.466565,3.16255 -11.79076,4.83718 -14.953123,5.20703 -3.162365,0.36985 -3.127202,-0.1286 -3.013672,-0.01 0.07058,0.074 -0.641455,-0.61087 -0.326173,-4.21287 0.315283,-3.602 1.83978,-9.27625 4.71289,-16.13673 5.294265,-12.6417 15.11228,-29.47082 27.933595,-48.44335 z" /><path
     style="display:none;opacity:1;fill:none;fill-opacity:1;stroke:#cccccc;stroke-width:20;stroke-linecap:round;stroke-linejoin:bevel;stroke-miterlimit:10;stroke-dasharray:none;stroke-opacity:1"
     d="M 417.47965,85.58377 C 463.15323,130.51943 85.949404,529.99346 45.111676,487.16507 4.2739522,444.33668 371.77358,47.493933 417.47965,85.58377 Z"
     id="path7"
     sodipodi:nodetypes="csc" /></svg>
