<?xml version="1.0" encoding="UTF-8" standalone="no"?>
<!-- Created with Inkscape (http://www.inkscape.org/) -->

<svg
   width="500"
   height="500"
   viewBox="0 0 500 500"
   version="1.1"
   id="svg1"
   inkscape:version="1.3.2 (091e20ef0f, 2023-11-25, custom)"
   sodipodi:docname="main,c.svg"
   xmlns:inkscape="http://www.inkscape.org/namespaces/inkscape"
   xmlns:sodipodi="http://sodipodi.sourceforge.net/DTD/sodipodi-0.dtd"
   xmlns="http://www.w3.org/2000/svg"
   xmlns:svg="http://www.w3.org/2000/svg">
  <sodipodi:namedview
     id="namedview1"
     pagecolor="#505050"
     bordercolor="#eeeeee"
     borderopacity="1"
     inkscape:showpageshadow="0"
     inkscape:pageopacity="0"
     inkscape:pagecheckerboard="0"
     inkscape:deskcolor="#505050"
     inkscape:document-units="px"
     inkscape:zoom="0.96390292"
     inkscape:cx="289.44824"
     inkscape:cy="283.74227"
     inkscape:window-width="1362"
     inkscape:window-height="744"
     inkscape:window-x="0"
     inkscape:window-y="20"
     inkscape:window-maximized="1"
     inkscape:current-layer="layer1"
     showguides="true">
    <sodipodi:guide
       position="250.02518,350.60736"
       orientation="-0.99997769,0.0066803918"
       id="guide30"
       inkscape:locked="false" />
    <sodipodi:guide
       position="66.396728,247.89992"
       orientation="0,-1"
       id="guide53"
       inkscape:locked="false" />
  </sodipodi:namedview>
  <defs
     id="defs1">
    <linearGradient
       id="swatch61"
       inkscape:swatch="solid">
      <stop
         style="stop-color:#5090d0;stop-opacity:1;"
         offset="0"
         id="stop61" />
    </linearGradient>
    <linearGradient
       id="swatch30"
       inkscape:swatch="solid">
      <stop
         style="stop-color:#f9f9f9;stop-opacity:1;"
         offset="0"
         id="stop30" />
    </linearGradient>
    <inkscape:perspective
       sodipodi:type="inkscape:persp3d"
       inkscape:vp_x="44.06818 : 315.96746 : 1"
       inkscape:vp_y="0 : 1000 : 0"
       inkscape:vp_z="480.74134 : 298.68846 : 1"
       inkscape:persp3d-origin="250 : 166.66667 : 1"
       id="perspective17" />
  </defs>
  <g
     inkscape:label="Layer 1"
     inkscape:groupmode="layer"
     id="layer1">
    <path
       id="path1"
       style="opacity:1;fill:#ff405c;fill-opacity:1;stroke:none;stroke-width:31.8;stroke-linecap:round;stroke-linejoin:round;stroke-miterlimit:10;stroke-dasharray:none;stroke-opacity:1"
       d="M 125.93442 37.747065 L 3.5820186 251.6468 L 127.64786 464.55857 L 374.06779 463.56963 L 496.42188 249.66892 L 372.35435 36.758122 L 125.93442 37.747065 z M 200.71823 102.17878 C 225.58407 87.82248 254.20903 78.553813 280.21347 77.599034 L 296.07876 77.016015 L 305.13244 135.23651 L 287.65517 138.10562 C 268.64004 141.22818 247.10666 148.765 230.8369 158.15834 C 206.46274 172.23077 193.08795 189.54963 188.14749 208.60092 C 183.20703 227.65221 186.43919 249.77488 200.7591 274.57768 C 215.77015 300.57757 235.36028 316.20838 256.23879 322.56586 C 277.11731 328.92335 299.91723 326.49978 323.64133 312.80267 C 338.79603 304.05309 355.82298 289.29069 366.8871 275.22998 L 378.83693 260.04487 L 422.66045 300.48459 L 413.21422 313.35372 C 395.54987 337.41877 373.55877 357.35141 349.14063 371.44923 C 311.79526 393.01059 271.60621 398.82193 235.29812 388.69008 C 198.99005 378.55824 167.25286 352.76583 145.3921 314.90188 C 122.67262 275.55058 115.98583 233.63001 125.78171 195.72475 C 135.57759 157.81948 161.74278 124.68126 200.71823 102.17878 z "
       transform="rotate(30,250.00131,250.65804)" />
  </g>
</svg>
