<?xml version="1.0" encoding="UTF-8" standalone="no"?>
<!-- Created with Inkscape (http://www.inkscape.org/) -->

<svg
   width="500"
   height="500"
   viewBox="0 0 500 500"
   version="1.1"
   id="svg1"
   inkscape:version="1.3.2 (091e20ef0f, 2023-11-25, custom)"
   sodipodi:docname="main.2.svg"
   xml:space="preserve"
   xmlns:inkscape="http://www.inkscape.org/namespaces/inkscape"
   xmlns:sodipodi="http://sodipodi.sourceforge.net/DTD/sodipodi-0.dtd"
   xmlns:xlink="http://www.w3.org/1999/xlink"
   xmlns="http://www.w3.org/2000/svg"
   xmlns:svg="http://www.w3.org/2000/svg"><sodipodi:namedview
     id="namedview1"
     pagecolor="#505050"
     bordercolor="#eeeeee"
     borderopacity="1"
     inkscape:showpageshadow="0"
     inkscape:pageopacity="0"
     inkscape:pagecheckerboard="0"
     inkscape:deskcolor="#505050"
     inkscape:document-units="px"
     inkscape:zoom="0.64175296"
     inkscape:cx="209.5822"
     inkscape:cy="262.56209"
     inkscape:window-width="1352"
     inkscape:window-height="734"
     inkscape:window-x="4"
     inkscape:window-y="24"
     inkscape:window-maximized="1"
     inkscape:current-layer="svg1"
     showguides="true"><sodipodi:guide
       position="250.02518,350.60736"
       orientation="-0.99997769,0.0066803918"
       id="guide30"
       inkscape:locked="false" /><sodipodi:guide
       position="66.396728,247.89992"
       orientation="0,-1"
       id="guide53"
       inkscape:locked="false" /></sodipodi:namedview><defs
     id="defs1"><linearGradient
       id="linearGradient3"><stop
         style="stop-color:#0040a2;stop-opacity:1;"
         offset="0"
         id="stop24" /><stop
         style="stop-color:#983ba9;stop-opacity:1;"
         offset="0.54552758"
         id="stop25" /><stop
         style="stop-color:#00339b;stop-opacity:1;"
         offset="1"
         id="stop26" /></linearGradient><linearGradient
       id="linearGradient13"><stop
         style="stop-color:#287ef1;stop-opacity:1;"
         offset="0.11153401"
         id="stop21" /><stop
         style="stop-color:#8e6ed4;stop-opacity:1;"
         offset="0.49253941"
         id="stop22" /><stop
         style="stop-color:#4f93ed;stop-opacity:1;"
         offset="0.84890717"
         id="stop23" /></linearGradient><linearGradient
       id="linearGradient13-1"><stop
         style="stop-color:#020810;stop-opacity:1"
         offset="0"
         id="stop14" /><stop
         style="stop-color:#3c1d79;stop-opacity:1;"
         offset="0.36572"
         id="stop16" /><stop
         style="stop-color:#0e2644;stop-opacity:1;"
         offset="1"
         id="stop15" /></linearGradient><linearGradient
       id="linearGradient3-2"><stop
         style="stop-color:#00a9ba;stop-opacity:1;"
         offset="0"
         id="stop6" /><stop
         style="stop-color:#9139a2;stop-opacity:1;"
         offset="0.54552758"
         id="stop7" /><stop
         style="stop-color:#0052fe;stop-opacity:1;"
         offset="1"
         id="stop8" /></linearGradient><linearGradient
       id="linearGradient3-1"><stop
         style="stop-color:#47002f;stop-opacity:0;"
         offset="0.22854091"
         id="stop3" /><stop
         style="stop-color:#ffffff;stop-opacity:1;"
         offset="0.24063902"
         id="stop5" /><stop
         style="stop-color:#e8e9ec;stop-opacity:1;"
         offset="0.43659127"
         id="stop9" /><stop
         style="stop-color:#000f2e;stop-opacity:0;"
         offset="0.45198545"
         id="stop4" /><stop
         style="stop-color:#000f2e;stop-opacity:0;"
         offset="0.82458997"
         id="stop10" /><stop
         style="stop-color:#ffffff;stop-opacity:1;"
         offset="0.83724171"
         id="stop11" /><stop
         style="stop-color:#ffffff;stop-opacity:1;"
         offset="0.93123353"
         id="stop12" /><stop
         style="stop-color:#ffffff;stop-opacity:0;"
         offset="0.94520909"
         id="stop13" /></linearGradient><linearGradient
       id="swatch61"
       inkscape:swatch="solid"><stop
         style="stop-color:#5090d0;stop-opacity:1;"
         offset="0"
         id="stop61" /></linearGradient><linearGradient
       id="swatch30"
       inkscape:swatch="solid"><stop
         style="stop-color:#f9f9f9;stop-opacity:1;"
         offset="0"
         id="stop30" /></linearGradient><inkscape:perspective
       sodipodi:type="inkscape:persp3d"
       inkscape:vp_x="44.06818 : 315.96746 : 1"
       inkscape:vp_y="0 : 1000 : 0"
       inkscape:vp_z="480.74134 : 298.68846 : 1"
       inkscape:persp3d-origin="250 : 166.66667 : 1"
       id="perspective17" /><inkscape:perspective
       sodipodi:type="inkscape:persp3d"
       inkscape:vp_x="44.06818 : 315.96746 : 1"
       inkscape:vp_y="0 : 1000 : 0"
       inkscape:vp_z="480.74134 : 298.68846 : 1"
       inkscape:persp3d-origin="250 : 166.66667 : 1"
       id="perspective17-0" /><inkscape:perspective
       sodipodi:type="inkscape:persp3d"
       inkscape:vp_x="44.06818 : 315.96746 : 1"
       inkscape:vp_y="0 : 1000 : 0"
       inkscape:vp_z="480.74134 : 298.68846 : 1"
       inkscape:persp3d-origin="250 : 166.66667 : 1"
       id="perspective17-06" /><inkscape:perspective
       sodipodi:type="inkscape:persp3d"
       inkscape:vp_x="44.06818 : 315.96746 : 1"
       inkscape:vp_y="0 : 1000 : 0"
       inkscape:vp_z="480.74134 : 298.68846 : 1"
       inkscape:persp3d-origin="250 : 166.66667 : 1"
       id="perspective17-8" /><inkscape:perspective
       sodipodi:type="inkscape:persp3d"
       inkscape:vp_x="44.06818 : 315.96746 : 1"
       inkscape:vp_y="0 : 1000 : 0"
       inkscape:vp_z="480.74134 : 298.68846 : 1"
       inkscape:persp3d-origin="250 : 166.66667 : 1"
       id="perspective17-2" /><inkscape:perspective
       sodipodi:type="inkscape:persp3d"
       inkscape:vp_x="44.06818 : 315.96746 : 1"
       inkscape:vp_y="0 : 1000 : 0"
       inkscape:vp_z="480.74134 : 298.68846 : 1"
       inkscape:persp3d-origin="250 : 166.66667 : 1"
       id="perspective17-20" /><inkscape:perspective
       sodipodi:type="inkscape:persp3d"
       inkscape:vp_x="44.06818 : 315.96746 : 1"
       inkscape:vp_y="0 : 1000 : 0"
       inkscape:vp_z="480.74134 : 298.68846 : 1"
       inkscape:persp3d-origin="250 : 166.66667 : 1"
       id="perspective17-29" /><clipPath
       id="clip0"><rect
         width="24"
         height="24"
         fill="white"
         id="rect1" /></clipPath><inkscape:perspective
       sodipodi:type="inkscape:persp3d"
       inkscape:vp_x="44.06818 : 315.96746 : 1"
       inkscape:vp_y="0 : 1000 : 0"
       inkscape:vp_z="480.74134 : 298.68846 : 1"
       inkscape:persp3d-origin="250 : 166.66667 : 1"
       id="perspective17-3" /><inkscape:perspective
       sodipodi:type="inkscape:persp3d"
       inkscape:vp_x="44.06818 : 315.96746 : 1"
       inkscape:vp_y="0 : 1000 : 0"
       inkscape:vp_z="480.74134 : 298.68846 : 1"
       inkscape:persp3d-origin="250 : 166.66667 : 1"
       id="perspective17-38" /><linearGradient
       inkscape:collect="always"
       xlink:href="#linearGradient13-1"
       id="linearGradient17"
       x1="-10.085093"
       y1="25.530483"
       x2="511.66321"
       y2="476.5394"
       gradientUnits="userSpaceOnUse" /><linearGradient
       inkscape:collect="always"
       xlink:href="#linearGradient3-2"
       id="linearGradient19"
       x1="70.701683"
       y1="253.69135"
       x2="434.04245"
       y2="253.69135"
       gradientUnits="userSpaceOnUse" /><linearGradient
       inkscape:collect="always"
       xlink:href="#linearGradient3"
       id="linearGradient27"
       x1="-58.332199"
       y1="-28.360308"
       x2="525.54761"
       y2="573.16968"
       gradientUnits="userSpaceOnUse" /></defs><rect
     style="fill:url(#linearGradient17);fill-opacity:1;stroke:none;stroke-width:71.788;stroke-linecap:round;stroke-miterlimit:10;opacity:0.44092091"
     id="rect2"
     width="450.93335"
     height="453.4353"
     x="23.468227"
     y="23.103762"
     rx="85.017654"
     ry="85.017654" /><path
     id="rect1-6"
     style="opacity:1;fill:url(#linearGradient19);fill-opacity:1;stroke-width:26.6937;stroke-linejoin:bevel;paint-order:markers fill stroke"
     d="m 177.06368,92.95318 c -5.48112,-0.33179 -10.75442,0.651258 -15.52632,3.406304 -9.54378,5.510116 -13.95289,16.301596 -15.2124,28.510086 -1.25947,12.20851 0.3197,26.7728 4.13749,43.33253 2.31254,10.03056 5.5665,20.85212 9.51507,32.14258 -11.75168,2.22558 -22.75224,4.81989 -32.59494,7.83237 -16.25003,4.97356 -29.653567,10.88751 -39.596693,18.08252 -9.943104,7.19498 -17.084205,16.41163 -17.084205,27.43184 0,11.02023 7.141101,20.23294 17.084205,27.42794 9.943126,7.19502 23.346663,13.11091 39.596693,18.08446 9.8427,3.01248 20.84326,5.60677 32.59494,7.83238 -3.94857,11.29041 -7.20253,22.11397 -9.51507,32.14452 -3.81779,16.55975 -5.39696,31.12209 -4.13749,43.33057 1.25951,12.2085 5.66862,22.99999 15.2124,28.51009 9.5438,5.5101 21.094,3.93331 32.29662,-1.08019 11.2026,-5.0135 23.02695,-13.66379 35.45921,-25.25001 7.53079,-7.01829 15.27599,-15.24688 23.07987,-24.31214 7.80336,9.06459 15.54954,17.29234 23.07986,24.3102 12.43225,11.5862 24.25463,20.24043 35.45725,25.25389 11.2026,5.01353 22.75284,6.59031 32.29661,1.0802 9.54379,-5.51009 13.95489,-16.30354 15.21435,-28.51204 1.2595,-12.20848 -0.32165,-26.77275 -4.13944,-43.33252 -2.31243,-10.03005 -5.56482,-20.85274 -9.51311,-32.14257 11.75225,-2.22567 22.75182,-4.81978 32.59493,-7.83238 16.25004,-4.97355 29.65162,-10.88944 39.59473,-18.08446 9.94313,-7.195 17.08421,-16.40771 17.08421,-27.42794 0,-11.02021 -7.14108,-20.23686 -17.08421,-27.43184 -9.94311,-7.19501 -23.34469,-13.10896 -39.59473,-18.08252 -9.84311,-3.01261 -20.84268,-5.60675 -32.59493,-7.83237 3.94829,-11.28986 7.20068,-22.11249 9.51311,-32.14258 3.81779,-16.55973 5.39893,-31.12598 4.13944,-43.33447 -1.2595,-12.20849 -5.67055,-22.99802 -15.21435,-28.508146 -4.77187,-2.755046 -10.0436,-3.738627 -15.52437,-3.406304 -5.48073,0.332287 -11.17093,1.979749 -16.77224,4.4865 -11.20261,5.01351 -23.02497,13.66382 -35.45725,25.25002 -7.53017,7.01772 -15.27666,15.24775 -23.07986,24.31214 -7.80372,-9.06505 -15.54925,-17.29399 -23.07987,-24.31214 -12.43226,-11.58621 -24.25661,-20.23651 -35.45921,-25.25002 -5.60133,-2.506751 -11.28916,-4.154734 -16.7703,-4.4865 z m -2.62444,16.69424 c 3.09563,-0.15124 7.20453,0.68523 12.55286,3.07875 8.55738,3.82967 19.3209,11.44463 30.88105,22.21807 7.59802,7.08092 15.57524,15.62634 23.67651,25.20125 -8.05929,10.20255 -16.11754,21.24752 -24.02163,33.18768 -14.29485,0.87508 -27.88958,2.33102 -40.75682,4.20963 -4.24107,-11.80246 -7.65189,-22.98205 -9.98498,-33.10189 -3.54998,-15.39809 -4.76225,-28.52783 -3.80017,-37.85357 0.96207,-9.32572 3.78343,-13.91013 6.92377,-15.72324 1.17765,-0.67989 2.67199,-1.12593 4.52941,-1.21668 z m 155.86566,0 c 1.85737,0.0907 3.34983,0.53873 4.52746,1.21864 3.14035,1.81308 5.96364,6.39556 6.92571,15.72128 0.9621,9.32572 -0.24628,22.45548 -3.79628,37.85357 -2.33313,10.11989 -5.74566,21.29908 -9.9869,33.10189 -12.86681,-1.87849 -26.46255,-3.3346 -40.75684,-4.20963 -7.90426,-11.94053 -15.96018,-22.98678 -24.01966,-33.18962 8.10095,-9.57454 16.07503,-18.1188 23.6726,-25.19931 11.56016,-10.77344 22.3237,-18.38645 30.88106,-22.21612 5.34836,-2.39355 9.4572,-3.23194 12.55285,-3.0807 z m -77.93381,63.84645 c 4.65281,6.00022 9.30767,12.34967 13.94699,18.99698 -4.61469,-0.1101 -9.23751,-0.21644 -13.94502,-0.21644 -4.70806,0 -9.32983,0.10628 -13.94503,0.21644 4.6391,-6.64698 9.29046,-12.99697 13.94306,-18.99698 z m 0.002,35.53135 c 8.66115,0 17.10293,0.26422 25.41379,0.64734 4.48703,7.00534 8.93615,14.18341 13.26649,21.68381 4.331,7.50147 8.32345,14.9453 12.1473,22.33504 -3.8236,7.38919 -7.81661,14.83216 -12.1473,22.33309 -4.33029,7.50027 -8.77947,14.67845 -13.26649,21.68381 -8.31136,0.38328 -16.75208,0.64733 -25.41379,0.64733 -8.66223,0 -17.10389,-0.26399 -25.41574,-0.64733 -4.48733,-7.00582 -8.93589,-14.18497 -13.26649,-21.68576 -4.33066,-7.50093 -8.32375,-14.94205 -12.1473,-22.33114 3.82361,-7.38922 7.81662,-14.83215 12.1473,-22.3331 4.33045,-7.50056 8.77929,-14.68016 13.26649,-21.68575 8.31185,-0.38324 16.75351,-0.64734 25.41574,-0.64734 z m -46.02911,1.98685 c -2.40314,3.94192 -4.80363,7.89439 -7.15775,11.97181 -2.35396,4.07724 -4.5771,8.13238 -6.78922,12.18435 -3.43709,-7.34145 -6.60807,-14.54697 -9.47802,-21.57656 7.52306,-1.02918 15.34828,-1.88566 23.42499,-2.5796 z m 92.05627,0 c 8.0767,0.69392 15.90194,1.55045 23.42498,2.5796 -2.87015,7.03013 -6.04065,14.23455 -9.47801,21.57656 -2.21241,-4.05251 -4.4349,-8.10848 -6.78922,-12.18628 -2.35376,-4.07686 -4.75495,-8.02852 -7.15775,-11.96988 z m -132.45432,5.27813 c 4.80655,12.08215 10.34396,24.58457 16.73324,37.40121 -6.38897,12.81602 -11.92684,25.31378 -16.73324,37.39536 -12.34234,-2.22839 -23.7307,-4.86117 -33.66148,-7.90062 -15.11014,-4.62466 -27.08398,-10.13947 -34.679286,-15.63551 -7.59524,-5.49606 -10.152652,-10.23309 -10.152652,-13.85923 0,-3.62617 2.557412,-8.36513 10.152652,-13.86118 7.595306,-5.49606 19.569146,-11.0128 34.679286,-15.63747 9.93082,-3.03945 21.31904,-5.67449 33.66148,-7.90256 z m 172.85238,0 c 12.343,2.22812 23.73024,4.86299 33.66148,7.90256 15.1101,4.62467 27.08596,10.14141 34.68122,15.63747 7.59525,5.49605 10.15265,10.23501 10.15265,13.86118 0,3.62614 -2.5574,8.36317 -10.15265,13.85923 -7.59526,5.49604 -19.57112,11.01085 -34.68122,15.63551 -9.93126,3.03961 -21.31843,5.67413 -33.66148,7.90256 -4.80649,-12.08208 -10.34403,-24.58066 -16.73325,-37.3973 6.38935,-12.81688 11.92669,-25.31889 16.73325,-37.40121 z m -86.42522,16.76053 c -11.00923,0 -21.13981,8.86592 -21.13981,20.64068 0,11.77476 10.13058,20.6387 21.13981,20.6387 11.00922,0 21.13787,-8.86394 21.13787,-20.6387 0,-11.77476 -10.12865,-20.64068 -21.13787,-20.64068 z m 59.97413,39.15995 c 3.43714,7.34154 6.60801,14.54884 9.47801,21.57852 -7.52254,1.0293 -15.34687,1.88356 -23.42303,2.57764 2.40259,-3.94103 4.80223,-7.89338 7.1558,-11.96987 2.35432,-4.07781 4.57681,-8.13377 6.78922,-12.18629 z m -119.94825,0.002 c 2.2118,4.05129 4.43366,8.10577 6.78726,12.18239 2.35393,4.07711 4.7548,8.03017 7.15775,11.97181 -8.07614,-0.69409 -15.90045,-1.55031 -23.42303,-2.57959 2.86988,-7.02927 6.0411,-14.23357 9.47802,-21.57461 z m -15.62771,37.62542 c 12.86724,1.87862 26.46196,3.33456 40.75682,4.20964 7.90446,11.94071 15.96001,22.98669 24.01968,33.18962 -8.10154,9.57532 -16.07843,18.12027 -23.67651,25.20127 -11.56014,10.77344 -22.32368,18.38448 -30.88105,22.21416 -8.55737,3.82965 -13.93801,3.67513 -17.07837,1.86206 -3.14035,-1.8131 -5.96753,-6.39751 -6.92962,-15.72324 -0.96207,-9.32573 0.25019,-22.45157 3.80018,-37.84967 2.3332,-10.12016 5.74746,-21.30068 9.98887,-33.10384 z m 151.20171,0 c 4.24112,11.80258 7.65384,22.98218 9.98692,33.10189 3.55,15.39809 4.76033,28.52589 3.79822,37.85162 -0.96207,9.32573 -3.7873,13.91014 -6.92766,15.72324 -3.14036,1.81307 -8.51903,1.96567 -17.07642,-1.86402 -8.55735,-3.82965 -19.32286,-11.44071 -30.883,-22.21415 -7.59801,-7.08096 -15.5731,-15.62605 -23.67457,-25.20127 8.05971,-10.20308 16.11718,-21.24685 24.02164,-33.18767 14.29427,-0.87505 27.88807,-2.33113 40.75487,-4.20964 z m -89.54686,5.05196 c 4.61521,0.11011 9.23893,0.21447 13.94698,0.21447 4.70752,0 9.33034,-0.1042 13.94504,-0.21447 -4.63896,6.64681 -9.29259,12.99709 -13.94504,18.99697 -4.65264,-6.00002 -9.30782,-12.34997 -13.94698,-18.99697 z"
     sodipodi:nodetypes="sssscssssscssssscssssscssssscsssssscsssssscccsssssssscccsssccsccscscscscscscscsccccccsccccsssssccssssscccssssscccsccsccccccsssssccsssssccccsccc" /><rect
     style="opacity:1;mix-blend-mode:normal;fill:none;fill-opacity:1;stroke:url(#linearGradient27);stroke-width:25;stroke-linecap:round;stroke-miterlimit:10;stroke-dasharray:none"
     id="rect19"
     width="450.93335"
     height="453.4353"
     x="23.468227"
     y="23.103762"
     rx="85.017654"
     ry="85.017654" /></svg>
