<?xml version="1.0" encoding="UTF-8" standalone="no"?>
<!-- Created with Inkscape (http://www.inkscape.org/) -->

<svg
   width="500"
   height="500"
   viewBox="0 0 500 500"
   version="1.1"
   id="svg1"
   inkscape:version="1.3.2 (091e20ef0f, 2023-11-25, custom)"
   sodipodi:docname="main.cpp.svg"
   xmlns:inkscape="http://www.inkscape.org/namespaces/inkscape"
   xmlns:sodipodi="http://sodipodi.sourceforge.net/DTD/sodipodi-0.dtd"
   xmlns="http://www.w3.org/2000/svg"
   xmlns:svg="http://www.w3.org/2000/svg">
  <sodipodi:namedview
     id="namedview1"
     pagecolor="#505050"
     bordercolor="#eeeeee"
     borderopacity="1"
     inkscape:showpageshadow="0"
     inkscape:pageopacity="0"
     inkscape:pagecheckerboard="0"
     inkscape:deskcolor="#505050"
     inkscape:document-units="px"
     inkscape:zoom="0.96390292"
     inkscape:cx="285.81717"
     inkscape:cy="292.04186"
     inkscape:window-width="1362"
     inkscape:window-height="744"
     inkscape:window-x="0"
     inkscape:window-y="20"
     inkscape:window-maximized="1"
     inkscape:current-layer="layer1"
     showguides="true">
    <sodipodi:guide
       position="250.02518,350.60736"
       orientation="-0.99997769,0.0066803918"
       id="guide30"
       inkscape:locked="false" />
    <sodipodi:guide
       position="66.396728,247.89992"
       orientation="0,-1"
       id="guide53"
       inkscape:locked="false" />
  </sodipodi:namedview>
  <defs
     id="defs1">
    <linearGradient
       id="swatch61"
       inkscape:swatch="solid">
      <stop
         style="stop-color:#5090d0;stop-opacity:1;"
         offset="0"
         id="stop61" />
    </linearGradient>
    <linearGradient
       id="swatch30"
       inkscape:swatch="solid">
      <stop
         style="stop-color:#f9f9f9;stop-opacity:1;"
         offset="0"
         id="stop30" />
    </linearGradient>
    <inkscape:perspective
       sodipodi:type="inkscape:persp3d"
       inkscape:vp_x="44.06818 : 315.96746 : 1"
       inkscape:vp_y="0 : 1000 : 0"
       inkscape:vp_z="480.74134 : 298.68846 : 1"
       inkscape:persp3d-origin="250 : 166.66667 : 1"
       id="perspective17" />
  </defs>
  <g
     inkscape:label="Layer 1"
     inkscape:groupmode="layer"
     id="layer1">
    <path
       id="path2"
       style="fill:#ff405c;stroke:none;stroke-width:31.8;stroke-linecap:round;stroke-linejoin:round;stroke-miterlimit:10;fill-opacity:1;opacity:1"
       d="M 251.98047 16.671875 L 45.589844 135.83008 L 45.589844 374.14844 L 163.94336 442.48047 L 163.94336 364.82422 C 137.73691 337.90681 123.45312 299.91848 123.45312 257.34375 C 123.45312 213.01644 138.37299 173.55235 165.74805 145.68555 C 193.12308 117.81873 232.27194 102.40234 276.26367 102.40234 C 304.44144 102.40234 332.87675 108.35856 356.10938 120.6582 L 376.23633 131.3125 L 350.31641 198.26953 L 326.54883 189.30078 C 310.82666 183.36789 290.72169 179.58008 274.48633 179.58008 C 250.08809 179.58008 233.86999 186.57653 222.89258 197.73242 C 211.91518 208.88833 204.89453 225.67878 204.89453 250.5957 C 204.89453 275.85813 212.28131 294.73171 223.74219 307.70508 L 308.06055 307.70508 L 308.06055 325.74805 C 314.58932 324.22182 320.96241 322.43262 326.43359 320.24414 L 352.16992 309.94922 L 366.40625 355.65625 L 366.40625 307.70508 L 458.36914 307.70508 L 458.36914 135.83008 L 251.98047 16.671875 z M 179.67188 451.56055 L 215.27539 472.11719 L 215.27539 451.56055 L 200.43359 451.56055 L 179.67188 451.56055 z M 315.07422 451.56055 L 308.06055 455.51172 L 308.06055 460.92969 L 324.28906 451.56055 L 315.07422 451.56055 z " />
    <path
       style="font-size:173.333px;font-family:System-ui;-inkscape-font-specification:System-ui;fill:none;stroke:#ff405c;stroke-width:37.5824;paint-order:stroke fill markers;opacity:1"
       d="M 251.76591,466.66348 H 271.5693 V 344.19511 H 251.76591 Z M 200.43343,415.07043 H 322.90178 V 395.78818 H 200.43343 Z m 202.46363,51.59305 h 19.80339 V 344.19511 H 402.89706 Z M 351.56458,415.07043 H 474.03293 V 395.78818 H 351.56458 Z"
       id="text27"
       inkscape:label="text"
       aria-label="C++"
       sodipodi:nodetypes="cccccccccccccccccccc" />
  </g>
</svg>
