<?xml version="1.0" encoding="UTF-8" standalone="no"?>
<!-- Created with Inkscape (http://www.inkscape.org/) -->

<svg
   width="500"
   height="500"
   viewBox="0 0 500 500"
   version="1.1"
   id="svg1"
   inkscape:version="1.3.2 (091e20ef0f, 2023-11-25, custom)"
   sodipodi:docname="main.perl.svg"
   xml:space="preserve"
   xmlns:inkscape="http://www.inkscape.org/namespaces/inkscape"
   xmlns:sodipodi="http://sodipodi.sourceforge.net/DTD/sodipodi-0.dtd"
   xmlns:xlink="http://www.w3.org/1999/xlink"
   xmlns="http://www.w3.org/2000/svg"
   xmlns:svg="http://www.w3.org/2000/svg"><sodipodi:namedview
     id="namedview1"
     pagecolor="#505050"
     bordercolor="#eeeeee"
     borderopacity="1"
     inkscape:showpageshadow="0"
     inkscape:pageopacity="0"
     inkscape:pagecheckerboard="0"
     inkscape:deskcolor="#505050"
     inkscape:document-units="px"
     inkscape:zoom="0.78975416"
     inkscape:cx="275.40216"
     inkscape:cy="222.22105"
     inkscape:window-width="1352"
     inkscape:window-height="734"
     inkscape:window-x="4"
     inkscape:window-y="24"
     inkscape:window-maximized="0"
     inkscape:current-layer="svg1"
     showguides="true"><sodipodi:guide
       position="250.02518,350.60736"
       orientation="-0.99997769,0.0066803918"
       id="guide30"
       inkscape:locked="false" /><sodipodi:guide
       position="66.396728,247.89992"
       orientation="0,-1"
       id="guide53"
       inkscape:locked="false" /></sodipodi:namedview><defs
     id="defs1"><linearGradient
       id="linearGradient6"
       inkscape:collect="always"><stop
         style="stop-color:#b6c3ff;stop-opacity:1;"
         offset="0"
         id="stop6" /><stop
         style="stop-color:#daa8ff;stop-opacity:1;"
         offset="1"
         id="stop7" /></linearGradient><linearGradient
       id="linearGradient2"
       inkscape:collect="always"><stop
         style="stop-color:#475395;stop-opacity:1;"
         offset="0"
         id="stop2" /><stop
         style="stop-color:#7a4281;stop-opacity:1;"
         offset="1"
         id="stop3" /></linearGradient><inkscape:path-effect
       effect="mirror_symmetry"
       start_point="258.98449,16.48053"
       end_point="258.98449,485.28637"
       center_point="258.98449,250.88345"
       id="path-effect1"
       is_visible="true"
       lpeversion="1.2"
       lpesatellites=""
       mode="free"
       discard_orig_path="false"
       fuse_paths="true"
       oposite_fuse="false"
       split_items="false"
       split_open="false"
       link_styles="false" /><linearGradient
       id="swatch61"
       inkscape:swatch="solid"><stop
         style="stop-color:#5090d0;stop-opacity:1;"
         offset="0"
         id="stop61" /></linearGradient><linearGradient
       id="swatch30"
       inkscape:swatch="solid"><stop
         style="stop-color:#f9f9f9;stop-opacity:1;"
         offset="0"
         id="stop30" /></linearGradient><inkscape:perspective
       sodipodi:type="inkscape:persp3d"
       inkscape:vp_x="44.06818 : 315.96746 : 1"
       inkscape:vp_y="0 : 1000 : 0"
       inkscape:vp_z="480.74134 : 298.68846 : 1"
       inkscape:persp3d-origin="250 : 166.66667 : 1"
       id="perspective17" /><inkscape:perspective
       sodipodi:type="inkscape:persp3d"
       inkscape:vp_x="44.06818 : 315.96746 : 1"
       inkscape:vp_y="0 : 1000 : 0"
       inkscape:vp_z="480.74134 : 298.68846 : 1"
       inkscape:persp3d-origin="250 : 166.66667 : 1"
       id="perspective17-0" /><inkscape:perspective
       sodipodi:type="inkscape:persp3d"
       inkscape:vp_x="44.06818 : 315.96746 : 1"
       inkscape:vp_y="0 : 1000 : 0"
       inkscape:vp_z="480.74134 : 298.68846 : 1"
       inkscape:persp3d-origin="250 : 166.66667 : 1"
       id="perspective17-5" /><inkscape:perspective
       sodipodi:type="inkscape:persp3d"
       inkscape:vp_x="44.06818 : 315.96746 : 1"
       inkscape:vp_y="0 : 1000 : 0"
       inkscape:vp_z="480.74134 : 298.68846 : 1"
       inkscape:persp3d-origin="250 : 166.66667 : 1"
       id="perspective17-2" /><linearGradient
       inkscape:collect="always"
       xlink:href="#linearGradient2"
       id="linearGradient5"
       x1="6.0691638"
       y1="14.37841"
       x2="25.870195"
       y2="14.37841"
       gradientUnits="userSpaceOnUse" /><linearGradient
       inkscape:collect="always"
       xlink:href="#linearGradient6"
       id="linearGradient7"
       x1="2"
       y1="16"
       x2="30"
       y2="16"
       gradientUnits="userSpaceOnUse" /></defs><g
     id="g2"
     transform="matrix(16.776732,0,0,16.776732,-15.99367,-15.058839)"><path
       d="M 30,16 A 14,14 0 1 1 16,2 14,14 0 0 1 30,16"
       style="fill:url(#linearGradient7);stroke-width:1.00001597;stroke-dasharray:none;opacity:1;fill-opacity:1"
       id="path1-3" /><path
       id="path2"
       style="fill:url(#linearGradient5)"
       d="M 15.443376 2.3642452 C 15.231504 2.3958858 15.256989 3.7959621 15.256989 3.7959621 C 15.256989 3.7959621 15.372989 7.4160087 15.256989 8.4300077 A 7.586 7.586 0 0 1 14.417028 10.950006 A 37.326 37.326 0 0 1 12.099947 14.194013 A 7.247 7.247 0 0 0 10.527015 18.306037 A 8.934 8.934 0 0 0 12.294017 23.114012 C 13.163017 24.157011 14.814037 25.951976 15.219037 25.430977 C 15.447037 25.137977 14.410009 23.840977 13.800009 22.910978 A 11.059 11.059 0 0 1 12.387036 18.391023 A 9.787 9.787 0 0 1 13.922016 13.790971 A 11.485 11.485 0 0 0 15.602054 10.490968 A 42.189 42.189 0 0 0 15.801945 4.4909816 C 15.801945 3.5639826 15.745005 2.5510511 15.484006 2.3770512 L 15.489012 2.3770512 C 15.472699 2.3661762 15.4575 2.3621358 15.443376 2.3642452 z M 14.739043 4.073155 C 14.524092 4.042353 14.525818 4.5690676 14.553006 4.8400048 C 14.582005 5.1290045 14.495017 5.9110066 14.524017 6.7800057 A 2.822 2.822 0 0 1 13.800009 8.8069714 A 9.649 9.649 0 0 1 11.546027 10.690044 A 19.04 19.04 0 0 0 7.5200366 14.165025 A 5.927 5.927 0 0 0 6.0720211 18.045958 A 7.8 7.8 0 0 0 7.9830337 23.375023 A 11.266 11.266 0 0 0 12.211011 26.010043 C 12.87701 26.242043 13.486038 26.444984 13.630038 26.154985 C 13.774038 25.864985 13.136961 25.633024 12.499962 25.315024 A 9.717 9.717 0 0 1 9.8080129 23.000038 A 6.067 6.067 0 0 1 8.1859515 19.064039 A 6.493 6.493 0 0 1 9.3149798 15.096025 A 47.708 47.708 0 0 1 13.050972 10.838943 A 5.334 5.334 0 0 0 14.905056 7.7389464 C 14.992056 6.4609477 15.078985 5.1579567 15.078985 4.8389571 C 15.078985 4.5199574 15.049986 4.2019609 14.788986 4.085961 L 14.785028 4.0870088 C 14.768715 4.0797588 14.753373 4.0752085 14.739043 4.073155 z M 16.157138 5.1357083 C 16.037045 5.1166302 16.128703 5.6220178 16.157953 5.8590175 A 17.854 17.854 0 0 1 16.347949 8.1219639 A 17.333 17.333 0 0 1 15.74001 12.36298 C 14.892011 15.638977 14.222989 18.996028 15.061988 22.349025 A 11.806 11.806 0 0 0 15.762013 24.380997 C 15.852013 24.580997 16.023996 25.127948 16.270996 25.193948 A 4.507 4.507 0 0 1 18.54605 26.163017 C 18.988049 26.574017 19.318975 26.350014 19.840975 26.141014 A 10.012 10.012 0 0 0 23.915047 23.407038 A 7.6 7.6 0 0 0 25.76005 17.029041 L 25.752948 17.034978 C 25.280949 14.058981 22.15794 12.134955 19.832942 10.675957 C 18.816943 10.040957 17.170051 9.2129698 16.957051 7.8759712 A 13.561 13.561 0 0 1 16.857048 6.1960496 C 16.850048 5.9770498 16.846012 5.7569824 16.827012 5.5389826 C 16.802012 5.2569829 16.514961 5.6039991 16.357961 5.3589993 C 16.260711 5.2067495 16.19717 5.1420677 16.157138 5.1357083 z M 17.115963 9.6340097 C 17.195963 9.5840097 18.932036 11.411055 19.116036 11.553055 C 19.834035 12.095055 20.571952 12.596016 21.236951 13.207015 A 9.512 9.512 0 0 1 23.576035 16.081043 A 7.44 7.44 0 0 1 24.076054 20.032992 L 24.086997 20.029034 A 6.321 6.321 0 0 1 22.394968 23.258954 A 6.026 6.026 0 0 1 20.215028 25.074037 C 19.915028 25.182037 20.271032 24.574009 20.315032 24.50801 A 13.917 13.917 0 0 1 21.195972 23.407969 A 6.6 6.6 0 0 0 22.279015 21.657964 A 7.487 7.487 0 0 0 21.672008 14.942003 A 13.442 13.442 0 0 0 19.072029 12.172985 A 10.254 10.254 0 0 1 17.753006 10.934057 C 17.663006 10.825057 16.868963 9.7850095 17.115963 9.6340097 z " /></g></svg>
