<?xml version="1.0" encoding="UTF-8" standalone="no"?>
<!-- Created with Inkscape (http://www.inkscape.org/) -->

<svg
   width="500"
   height="500"
   viewBox="0 0 500 500"
   version="1.1"
   id="svg1"
   inkscape:version="1.3.2 (091e20ef0f, 2023-11-25, custom)"
   sodipodi:docname="makefile.svg"
   xml:space="preserve"
   xmlns:inkscape="http://www.inkscape.org/namespaces/inkscape"
   xmlns:sodipodi="http://sodipodi.sourceforge.net/DTD/sodipodi-0.dtd"
   xmlns="http://www.w3.org/2000/svg"
   xmlns:svg="http://www.w3.org/2000/svg"><sodipodi:namedview
     id="namedview1"
     pagecolor="#505050"
     bordercolor="#eeeeee"
     borderopacity="1"
     inkscape:showpageshadow="0"
     inkscape:pageopacity="0"
     inkscape:pagecheckerboard="0"
     inkscape:deskcolor="#505050"
     inkscape:document-units="px"
     inkscape:zoom="0.96390292"
     inkscape:cx="188.8157"
     inkscape:cy="240.16941"
     inkscape:window-width="1362"
     inkscape:window-height="744"
     inkscape:window-x="0"
     inkscape:window-y="20"
     inkscape:window-maximized="0"
     inkscape:current-layer="layer1"
     showguides="true"><sodipodi:guide
       position="250.02518,350.60736"
       orientation="-0.99997769,0.0066803918"
       id="guide30"
       inkscape:locked="false" /><sodipodi:guide
       position="37.673755,249.92663"
       orientation="0,-1"
       id="guide53"
       inkscape:locked="false" /></sodipodi:namedview><defs
     id="defs1"><linearGradient
       id="swatch13"
       inkscape:swatch="solid"><stop
         style="stop-color:#ff405c;stop-opacity:1;"
         offset="0"
         id="stop13" /></linearGradient><linearGradient
       id="swatch61"
       inkscape:swatch="solid"><stop
         style="stop-color:#5090d0;stop-opacity:1;"
         offset="0"
         id="stop61" /></linearGradient><linearGradient
       id="swatch30"
       inkscape:swatch="solid"><stop
         style="stop-color:#f9f9f9;stop-opacity:1;"
         offset="0"
         id="stop30" /></linearGradient><inkscape:perspective
       sodipodi:type="inkscape:persp3d"
       inkscape:vp_x="44.06818 : 315.96746 : 1"
       inkscape:vp_y="0 : 1000 : 0"
       inkscape:vp_z="480.74134 : 298.68846 : 1"
       inkscape:persp3d-origin="250 : 166.66667 : 1"
       id="perspective17" /><inkscape:perspective
       sodipodi:type="inkscape:persp3d"
       inkscape:vp_x="44.06818 : 315.96746 : 1"
       inkscape:vp_y="0 : 1000 : 0"
       inkscape:vp_z="480.74134 : 298.68846 : 1"
       inkscape:persp3d-origin="250 : 166.66667 : 1"
       id="perspective17-2" /><inkscape:perspective
       sodipodi:type="inkscape:persp3d"
       inkscape:vp_x="44.06818 : 315.96746 : 1"
       inkscape:vp_y="0 : 1000 : 0"
       inkscape:vp_z="480.74134 : 298.68846 : 1"
       inkscape:persp3d-origin="250 : 166.66667 : 1"
       id="perspective17-1" /><inkscape:perspective
       sodipodi:type="inkscape:persp3d"
       inkscape:vp_x="44.06818 : 315.96746 : 1"
       inkscape:vp_y="0 : 1000 : 0"
       inkscape:vp_z="480.74134 : 298.68846 : 1"
       inkscape:persp3d-origin="250 : 166.66667 : 1"
       id="perspective17-5" /><inkscape:perspective
       sodipodi:type="inkscape:persp3d"
       inkscape:vp_x="44.06818 : 315.96746 : 1"
       inkscape:vp_y="0 : 1000 : 0"
       inkscape:vp_z="480.74134 : 298.68846 : 1"
       inkscape:persp3d-origin="250 : 166.66667 : 1"
       id="perspective17-4" /></defs><g
     inkscape:label="Layer 1"
     inkscape:groupmode="layer"
     id="layer1"><path
       id="rect53-0"
       style="fill:#cd727f;fill-opacity:0.313725;fill-rule:nonzero;stroke:#ce717e;stroke-width:22.0622;stroke-linecap:butt;stroke-linejoin:round;stroke-dasharray:none;stroke-opacity:1;paint-order:markers fill stroke"
       d="m 104.40601,35.97411 c -1.64895,0 -3.17324,0.591372 -4.517581,1.546875 h -48.26953 c -5.97292,0 -10.78125,5.363663 -10.78125,12.02539 V 191.47802 c 0,6.66173 4.80833,12.02344 10.78125,12.02344 h 43.39062 v 244.07226 c 0,6.7206 4.19107,12.13086 9.396491,12.13086 H 446.0896 c 5.20542,0 9.39453,-5.41026 9.39453,-12.13086 V 48.104969 c 0,-6.720598 -4.18911,-12.130859 -9.39453,-12.130859 z" /><path
       id="path7"
       style="color:#000000;fill:#ce717e;fill-opacity:1;stroke-width:0.797249;stroke-linejoin:round;-inkscape-stroke:none;paint-order:markers fill stroke"
       d="m 245.35094,129.71902 v 37.69492 c -4.82165,1.52284 -9.46554,3.45477 -13.91604,5.72088 l -26.62374,-26.62374 -39.77836,39.77835 26.35282,26.3528 c -2.38244,4.52458 -4.3996,9.26394 -6.00741,14.18386 h -37.1359 v 56.25586 h 37.09387 c 1.60501,4.93513 3.62489,9.68749 6.00894,14.2259 l -26.31076,26.31077 39.77835,39.77835 26.54277,-26.54277 c 4.47474,2.28402 9.1449,4.2309 13.99546,5.76291 v 37.56879 h 56.25584 v -38.10911 c 4.65875,-1.56646 9.15526,-3.49402 13.45514,-5.75825 l 27.07686,27.07687 39.77835,-39.77835 -27.34936,-27.34936 c 2.15076,-4.22387 3.99028,-8.6259 5.4733,-13.18575 h 38.66811 v -56.25586 h -38.71015 c -1.4853,-4.54487 -3.32276,-8.93352 -5.47175,-13.1437 l 27.39297,-27.39296 -39.77835,-39.77835 -27.16095,27.16096 c -4.27563,-2.24603 -8.74435,-4.16109 -13.37417,-5.71778 v -38.23524 z m 27.33689,82.62424 a 46.036817,42.672743 0 0 1 46.03644,42.67149 46.036817,42.672743 0 0 1 -46.03644,42.67305 46.036817,42.672743 0 0 1 -46.03643,-42.67305 46.036817,42.672743 0 0 1 46.03643,-42.67149 z" /></g></svg>
