<?xml version="1.0" encoding="UTF-8" standalone="no"?>
<!-- Created with Inkscape (http://www.inkscape.org/) -->

<svg
   width="500"
   height="500"
   viewBox="0 0 500 500"
   version="1.1"
   id="svg1"
   inkscape:version="1.3.2 (091e20ef0f, 2023-11-25, custom)"
   sodipodi:docname="minecraft.svg"
   xml:space="preserve"
   xmlns:inkscape="http://www.inkscape.org/namespaces/inkscape"
   xmlns:sodipodi="http://sodipodi.sourceforge.net/DTD/sodipodi-0.dtd"
   xmlns:xlink="http://www.w3.org/1999/xlink"
   xmlns="http://www.w3.org/2000/svg"
   xmlns:svg="http://www.w3.org/2000/svg"><sodipodi:namedview
     id="namedview1"
     pagecolor="#505050"
     bordercolor="#eeeeee"
     borderopacity="1"
     inkscape:showpageshadow="0"
     inkscape:pageopacity="0"
     inkscape:pagecheckerboard="0"
     inkscape:deskcolor="#505050"
     inkscape:document-units="px"
     inkscape:zoom="0.96390292"
     inkscape:cx="203.8587"
     inkscape:cy="276.48013"
     inkscape:window-width="1362"
     inkscape:window-height="744"
     inkscape:window-x="0"
     inkscape:window-y="20"
     inkscape:window-maximized="1"
     inkscape:current-layer="layer1"
     showguides="false"><sodipodi:guide
       position="250.02518,350.60736"
       orientation="-0.99997769,0.0066803918"
       id="guide30"
       inkscape:locked="false" /><sodipodi:guide
       position="66.396728,247.89992"
       orientation="0,-1"
       id="guide53"
       inkscape:locked="false" /></sodipodi:namedview><defs
     id="defs1"><linearGradient
       id="swatch61"
       inkscape:swatch="solid"><stop
         style="stop-color:#5090d0;stop-opacity:1;"
         offset="0"
         id="stop61" /></linearGradient><linearGradient
       id="swatch30"
       inkscape:swatch="solid"><stop
         style="stop-color:#f9f9f9;stop-opacity:1;"
         offset="0"
         id="stop30" /></linearGradient><inkscape:perspective
       sodipodi:type="inkscape:persp3d"
       inkscape:vp_x="44.06818 : 315.96746 : 1"
       inkscape:vp_y="0 : 1000 : 0"
       inkscape:vp_z="480.74134 : 298.68846 : 1"
       inkscape:persp3d-origin="250 : 166.66667 : 1"
       id="perspective17" /><inkscape:perspective
       sodipodi:type="inkscape:persp3d"
       inkscape:vp_x="44.06818 : 315.96746 : 1"
       inkscape:vp_y="0 : 1000 : 0"
       inkscape:vp_z="480.74134 : 298.68846 : 1"
       inkscape:persp3d-origin="250 : 166.66667 : 1"
       id="perspective17-7" /><linearGradient
       id="a-6"
       x1="73.714"
       y1="910.226"
       x2="105.452"
       y2="878.134"
       gradientTransform="matrix(0.893,0,0,0.893,-64.139,-782.556)"
       gradientUnits="userSpaceOnUse"><stop
         offset="0"
         stop-color="#0296d8"
         id="stop1" /><stop
         offset="1"
         stop-color="#8371d9"
         id="stop2" /></linearGradient><linearGradient
       id="b"
       x1="69.813"
       y1="905.226"
       x2="102.279"
       y2="875.745"
       gradientTransform="matrix(0.893,0,0,0.893,-64.139,-782.556)"
       gradientUnits="userSpaceOnUse"><stop
         offset="0"
         stop-color="#cb55c0"
         id="stop3" /><stop
         offset="1"
         stop-color="#f28e0e"
         id="stop4" /></linearGradient></defs><g
     inkscape:label="Layer 1"
     inkscape:groupmode="layer"
     id="layer1"><g
       style="fill:none;stroke-linecap:square"
       id="g1"
       transform="matrix(1.1959512,0,0,1.1959512,-55.131011,-57.301065)"><g
         id="a"
         transform="matrix(19,11,0,22,76,142)"><path
           fill="#443322"
           d="m 0.5,0.5 h 9 v 9 h -9"
           id="path1" /><path
           stroke="#886644"
           d="M 2,8 V 9 H 4 V 8 H 9 V 7 H 7 V 5"
           id="path2" /><path
           stroke="#664433"
           d="M 1,5 Z M 2,9 Z M 1,8 V 7 H 3 V 6 H 4 M 5,9 H 7 V 8 H 6 V 4 M 7,6 H 8 V 7 M 9,9 Z M 9,4 v 1"
           id="path3" /><path
           stroke="#aa7755"
           d="M 1,7 H 2 M 4,7 H 5 M 9,6 Z"
           id="path4" /><path
           stroke="#555555"
           d="M 5,5 Z"
           id="path5" /><path
           stroke="#559933"
           d="M 4,4 V 1 H 8 V 3 H 7 V 2 H 4 V 3 H 2 v 1"
           id="path6" /><path
           stroke="#66aa44"
           d="M 2,1 H 3 M 6,1 Z M 7,2 Z M 9,1 v 1"
           id="path7" /><path
           stroke="#77cc55"
           d="M 5,3 Z M 3,2 h 1"
           id="path8" /><path
           stroke="#99cc66"
           d="M 1,1 V 2 H 2 M 8,1 Z"
           id="path9" /></g><use
         xlink:href="#a"
         transform="matrix(-1,0,0,1,513,0)"
         opacity="0.5"
         id="use9" /><g
         transform="matrix(-19,11,-19,-11,447,159)"
         id="g12"><path
           fill="#77bb44"
           d="m 0.5,0.5 h 9 v 9 h -9"
           id="path10" /><path
           stroke="#88cc55"
           d="M 1,1 Z M 3,1 Z M 4,7 Z M 3,4 V 6 H 1 V 8 H 4 V 9 H 6 V 7 M 2,3 H 6 V 1 H 5 V 2 H 8 M 7,4 V 5 H 4 M 9,4 V 6 H 8 v 3"
           id="path11" /><path
           stroke="#aadd77"
           d="M 1,3 V 5 M 1,7 Z M 1,9 Z M 3,3 Z M 4,4 Z M 5,1 Z M 5,3 Z M 5,5 V 6 M 5,8 V 9 M 7,2 v 1 m 1,4 h 1"
           id="path12" /></g></g></g></svg>
