<?xml version="1.0" encoding="UTF-8" standalone="no"?>
<!-- Created with Inkscape (http://www.inkscape.org/) -->

<svg
   width="500"
   height="500"
   viewBox="0 0 500 500"
   version="1.1"
   id="svg1"
   inkscape:version="1.3.2 (091e20ef0f, 2023-11-25, custom)"
   sodipodi:docname="mm.svg"
   xml:space="preserve"
   xmlns:inkscape="http://www.inkscape.org/namespaces/inkscape"
   xmlns:sodipodi="http://sodipodi.sourceforge.net/DTD/sodipodi-0.dtd"
   xmlns:xlink="http://www.w3.org/1999/xlink"
   xmlns="http://www.w3.org/2000/svg"
   xmlns:svg="http://www.w3.org/2000/svg"><sodipodi:namedview
     id="namedview1"
     pagecolor="#505050"
     bordercolor="#eeeeee"
     borderopacity="1"
     inkscape:showpageshadow="0"
     inkscape:pageopacity="0"
     inkscape:pagecheckerboard="0"
     inkscape:deskcolor="#505050"
     inkscape:document-units="px"
     inkscape:zoom="0.70710678"
     inkscape:cx="285.67114"
     inkscape:cy="286.37825"
     inkscape:window-width="1352"
     inkscape:window-height="734"
     inkscape:window-x="4"
     inkscape:window-y="24"
     inkscape:window-maximized="1"
     inkscape:current-layer="svg1"
     showguides="true"
     showgrid="false"><sodipodi:guide
       position="249.31924,284.34741"
       orientation="-0.99997769,0.0066803918"
       id="guide30"
       inkscape:locked="false" /><sodipodi:guide
       position="66.396728,247.89992"
       orientation="0,-1"
       id="guide53"
       inkscape:locked="false" /></sodipodi:namedview><defs
     id="defs1"><linearGradient
       id="linearGradient5"
       inkscape:collect="always"><stop
         style="stop-color:#ff3b73;stop-opacity:1;"
         offset="0"
         id="stop5" /><stop
         style="stop-color:#ecee53;stop-opacity:1;"
         offset="0.99913853"
         id="stop6" /></linearGradient><linearGradient
       id="swatch61"
       inkscape:swatch="solid"><stop
         style="stop-color:#5090d0;stop-opacity:1;"
         offset="0"
         id="stop61" /></linearGradient><linearGradient
       id="swatch30"
       inkscape:swatch="solid"><stop
         style="stop-color:#f9f9f9;stop-opacity:1;"
         offset="0"
         id="stop30" /></linearGradient><inkscape:perspective
       sodipodi:type="inkscape:persp3d"
       inkscape:vp_x="44.06818 : 315.96746 : 1"
       inkscape:vp_y="0 : 1000 : 0"
       inkscape:vp_z="480.74134 : 298.68846 : 1"
       inkscape:persp3d-origin="250 : 166.66667 : 1"
       id="perspective17" /><inkscape:perspective
       sodipodi:type="inkscape:persp3d"
       inkscape:vp_x="44.06818 : 315.96746 : 1"
       inkscape:vp_y="0 : 1000 : 0"
       inkscape:vp_z="480.74134 : 298.68846 : 1"
       inkscape:persp3d-origin="250 : 166.66667 : 1"
       id="perspective17-1" /><inkscape:perspective
       sodipodi:type="inkscape:persp3d"
       inkscape:vp_x="44.06818 : 315.96746 : 1"
       inkscape:vp_y="0 : 1000 : 0"
       inkscape:vp_z="480.74134 : 298.68846 : 1"
       inkscape:persp3d-origin="250 : 166.66667 : 1"
       id="perspective17-6" /><inkscape:perspective
       sodipodi:type="inkscape:persp3d"
       inkscape:vp_x="44.06818 : 315.96746 : 1"
       inkscape:vp_y="0 : 1000 : 0"
       inkscape:vp_z="480.74134 : 298.68846 : 1"
       inkscape:persp3d-origin="250 : 166.66667 : 1"
       id="perspective17-4" /><inkscape:perspective
       sodipodi:type="inkscape:persp3d"
       inkscape:vp_x="44.06818 : 315.96746 : 1"
       inkscape:vp_y="0 : 1000 : 0"
       inkscape:vp_z="480.74134 : 298.68846 : 1"
       inkscape:persp3d-origin="250 : 166.66667 : 1"
       id="perspective17-61" /><inkscape:perspective
       sodipodi:type="inkscape:persp3d"
       inkscape:vp_x="44.06818 : 315.96746 : 1"
       inkscape:vp_y="0 : 1000 : 0"
       inkscape:vp_z="480.74134 : 298.68846 : 1"
       inkscape:persp3d-origin="250 : 166.66667 : 1"
       id="perspective17-2" /><linearGradient
       inkscape:collect="always"
       xlink:href="#linearGradient5"
       id="linearGradient6"
       x1="3.1297035"
       y1="2.5475771"
       x2="23.992416"
       y2="24.439444"
       gradientUnits="userSpaceOnUse" /><inkscape:perspective
       sodipodi:type="inkscape:persp3d"
       inkscape:vp_x="44.06818 : 315.96746 : 1"
       inkscape:vp_y="0 : 1000 : 0"
       inkscape:vp_z="480.74134 : 298.68846 : 1"
       inkscape:persp3d-origin="250 : 166.66667 : 1"
       id="perspective17-29" /></defs><path
     id="path1"
     style="fill:url(#linearGradient6)"
     d="M 15.940028 1.9999731 C 14.94003 2.0399731 13.730034 2.6699659 13.000036 3.4999643 C 12.360038 4.2599627 11.799973 5.4599835 11.949971 6.6099813 C 13.069969 6.6999812 14.20999 6.040028 14.899988 5.1900296 C 15.599988 4.3500314 16.070028 3.1699709 15.940028 1.9999731 z M 15.630369 6.8238147 C 14.187756 6.8095327 12.841221 7.7500314 12.109971 7.7500314 C 11.319973 7.7500314 10.100012 6.860016 8.819984 6.880016 C 7.1299874 6.910016 5.569999 7.8699764 4.7000008 9.3899734 C 2.9400044 12.449967 4.2499558 16.999986 5.9599524 19.46998 C 6.7999506 20.679978 7.789967 22.049987 9.0999644 21.999987 C 10.369992 21.949987 10.839984 21.180016 12.369982 21.180016 C 13.889978 21.180016 14.319971 21.999992 15.659969 21.969992 C 16.999967 21.949992 17.879998 20.739972 18.709996 19.499976 C 19.669994 18.109978 20.060007 16.740018 20.090007 16.670018 C 20.060007 16.660018 17.440023 15.649989 17.410025 12.629995 C 17.390025 10.100001 19.469962 8.8799876 19.559962 8.8199878 C 18.389964 7.0999912 16.569977 6.8699961 15.919979 6.8399963 C 15.823109 6.8299963 15.726543 6.8247663 15.630369 6.8238147 z M 10.385412 8.7120055 C 11.352119 8.7120055 12.342795 8.9236101 13.117096 9.3335352 L 13.589519 9.5835996 L 12.873346 11.433586 L 12.315517 11.223068 C 11.708513 10.99401 10.953757 10.851208 10.321238 10.851208 C 9.3736464 10.851208 8.6921117 11.131052 8.2273442 11.603374 C 7.7625786 12.075698 7.4844132 12.775162 7.4844132 13.739419 C 7.4844132 14.750215 7.7924552 15.535799 8.2942017 16.072642 C 8.7959481 16.609485 9.5015332 16.922608 10.423853 16.922608 C 11.013021 16.922608 11.758028 16.778812 12.317332 16.555089 L 12.921418 16.313471 L 13.518399 18.230394 L 13.026321 18.446595 C 12.106153 18.850912 11.129405 19.061889 10.180103 19.061889 C 8.7282302 19.061889 7.4585303 18.554812 6.5704313 17.648174 C 5.6823332 16.741534 5.1912098 15.455202 5.1912098 13.983168 C 5.1912098 12.453311 5.7018762 11.118378 6.6256065 10.178055 C 7.5493368 9.2377299 8.8701657 8.7120051 10.385412 8.7120055 z M 9.2577544 11.244538 L 11.026675 11.244538 L 11.026675 12.703641 L 11.117844 12.834988 L 12.334145 12.834988 L 12.609074 12.834988 L 13.916544 12.834988 L 13.916544 11.244538 L 15.685544 11.244538 L 15.685544 12.834988 L 17.268021 12.834988 L 17.268021 14.587964 L 15.685544 14.587964 L 15.685544 16.178335 L 14.495844 16.178335 L 13.916544 16.178335 L 13.916544 14.587964 L 12.913445 14.587964 L 12.609074 14.587964 L 11.023755 14.587964 L 11.026675 15.277299 L 11.026675 16.178335 L 9.8369753 16.178335 L 9.2577544 16.178335 L 9.2577544 14.587964 L 8.2545766 14.587964 L 7.6752767 14.587964 L 7.6752767 12.834988 L 9.2577544 12.834988 L 9.2577544 11.244538 z "
     transform="matrix(24.743635,0,0,24.743635,-43.381042,-49.18973)" /></svg>
