<?xml version="1.0" encoding="UTF-8" standalone="no"?>
<!-- Created with Inkscape (http://www.inkscape.org/) -->

<svg
   width="500"
   height="500"
   viewBox="0 0 500 500"
   version="1.1"
   id="svg1"
   inkscape:version="1.3.2 (091e20ef0f, 2023-11-25, custom)"
   sodipodi:docname="model.ts.svg"
   xml:space="preserve"
   xmlns:inkscape="http://www.inkscape.org/namespaces/inkscape"
   xmlns:sodipodi="http://sodipodi.sourceforge.net/DTD/sodipodi-0.dtd"
   xmlns:xlink="http://www.w3.org/1999/xlink"
   xmlns="http://www.w3.org/2000/svg"
   xmlns:svg="http://www.w3.org/2000/svg"><sodipodi:namedview
     id="namedview1"
     pagecolor="#505050"
     bordercolor="#eeeeee"
     borderopacity="1"
     inkscape:showpageshadow="0"
     inkscape:pageopacity="0"
     inkscape:pagecheckerboard="0"
     inkscape:deskcolor="#505050"
     inkscape:document-units="px"
     inkscape:zoom="0.96390292"
     inkscape:cx="279.59247"
     inkscape:cy="234.98217"
     inkscape:window-width="1352"
     inkscape:window-height="734"
     inkscape:window-x="4"
     inkscape:window-y="24"
     inkscape:window-maximized="1"
     inkscape:current-layer="svg1"
     showguides="true"><sodipodi:guide
       position="250.02518,350.60736"
       orientation="-0.99997769,0.0066803918"
       id="guide30"
       inkscape:locked="false" /><sodipodi:guide
       position="66.396728,247.89992"
       orientation="0,-1"
       id="guide53"
       inkscape:locked="false" /></sodipodi:namedview><defs
     id="defs1"><linearGradient
       id="swatch61"
       inkscape:swatch="solid"><stop
         style="stop-color:#5090d0;stop-opacity:1;"
         offset="0"
         id="stop61" /></linearGradient><linearGradient
       id="swatch30"
       inkscape:swatch="solid"><stop
         style="stop-color:#f9f9f9;stop-opacity:1;"
         offset="0"
         id="stop30" /></linearGradient><inkscape:perspective
       sodipodi:type="inkscape:persp3d"
       inkscape:vp_x="44.06818 : 315.96746 : 1"
       inkscape:vp_y="0 : 1000 : 0"
       inkscape:vp_z="480.74134 : 298.68846 : 1"
       inkscape:persp3d-origin="250 : 166.66667 : 1"
       id="perspective17" /><inkscape:perspective
       sodipodi:type="inkscape:persp3d"
       inkscape:vp_x="44.06818 : 315.96746 : 1"
       inkscape:vp_y="0 : 1000 : 0"
       inkscape:vp_z="480.74134 : 298.68846 : 1"
       inkscape:persp3d-origin="250 : 166.66667 : 1"
       id="perspective17-3" /><linearGradient
       id="linearGradient1"
       inkscape:collect="always"><stop
         style="stop-color:#ff4040;stop-opacity:1;"
         offset="0"
         id="stop1" /><stop
         style="stop-color:#ff4094;stop-opacity:1;"
         offset="1"
         id="stop2" /></linearGradient><linearGradient
       inkscape:collect="always"
       xlink:href="#linearGradient1"
       id="linearGradient6"
       x1="5.2059145"
       y1="41.314041"
       x2="77.420952"
       y2="41.314041"
       gradientUnits="userSpaceOnUse" /></defs><path
     d="m 301.31992,447.34831 h 19.92 v -149.28 h 55.68 v -17.28 h -131.04 v 17.28 h 55.44 z m 132.95999,2.4 c 28.56,0 46.08,-13.44 46.08,-34.8 0,-42.48 -69.12,-26.64 -69.12,-52.8 0,-10.08 10.8,-16.56 28.08,-16.56 9.84,0 21.36,2.16 31.2,5.52 l 4.56,-15.6 c -9.84,-4.08 -21.6,-6.24 -33.84,-6.24 -30,0 -49.2,13.2 -49.2,35.04 0,41.52 68.88,24.24 68.88,52.56 0,10.56 -9.36,16.56 -25.2,16.56 -12.24,0 -28.56,-3.36 -40.8,-8.64 l -4.56,15.6 c 13.2,6 29.28,9.36 43.92,9.36 z"
     id="text1-5"
     style="font-size:240px;font-family:System-ui;-inkscape-font-specification:System-ui;fill:#40b2ff;fill-opacity:0.313725;stroke:#3178c6;stroke-width:23.529;stroke-linejoin:round;paint-order:markers fill stroke"
     aria-label="Ts" /><path
     id="path1"
     style="fill:url(#linearGradient6);fill-opacity:1;stroke:none;stroke-opacity:1"
     d="M 41.113861 0.0010710885 C 40.899237 0.0083210812 40.686032 0.061481777 40.489032 0.15998168 L 6.1308335 18.070971 C 5.626834 18.324971 5.3090731 18.841055 5.3060732 19.404054 C 5.3060732 19.413054 5.3099519 19.421127 5.3099519 19.429127 C 5.2489519 19.596127 5.2049312 19.772004 5.2059312 19.956004 L 5.4051572 62.726965 C 5.4081572 63.276965 5.7109516 63.78098 6.1939511 64.040979 L 40.355039 81.927955 C 40.578039 82.046955 40.821906 82.106995 41.065906 82.106995 L 41.06908 82.106995 C 41.172079 82.223995 41.28716 82.333988 41.42416 82.415987 C 41.66016 82.556987 41.925856 82.627868 42.192855 82.627868 C 42.438855 82.627868 42.683133 82.567063 42.905132 82.447063 L 47.180558 80.128381 A 7.4505364 7.4615714 0 0 1 46.602626 77.414542 L 46.602626 77.030684 L 43.692163 78.609902 L 43.692163 57.838523 A 7.4505364 7.4615714 0 0 1 36.593723 50.424108 L 36.593723 47.299925 A 7.4505364 7.4615714 0 0 1 43.692163 39.885157 L 43.692163 38.020959 L 74.420922 20.848022 L 74.420922 44.218472 A 7.4505364 7.4615714 0 0 1 75.15083 47.299925 L 75.15083 48.95648 C 75.89912 48.821187 76.657355 48.731972 77.420949 48.675738 L 77.420949 18.336175 C 77.420949 18.323175 77.416012 18.310977 77.416012 18.296977 C 77.415012 18.285977 77.418833 18.276135 77.418833 18.264135 C 77.416833 18.221136 77.399971 18.181832 77.396971 18.139832 C 77.383971 18.057832 77.375074 17.975875 77.350074 17.896875 C 77.332074 17.841876 77.308898 17.793084 77.285898 17.740084 C 77.254898 17.670084 77.223877 17.601031 77.181878 17.537031 C 77.150878 17.487031 77.114152 17.44213 77.077152 17.396131 C 77.030152 17.338131 76.981176 17.283982 76.925176 17.232982 C 76.881176 17.192982 76.834131 17.157098 76.784131 17.122098 C 76.752131 17.100098 76.724983 17.068999 76.689983 17.048999 C 76.657983 17.028999 76.620963 17.021151 76.585963 17.004151 C 76.556963 16.989151 76.533862 16.968065 76.504862 16.955065 L 41.747153 0.11795866 C 41.544653 0.032458741 41.328486 -0.0061789043 41.113861 0.0010710885 z M 41.217882 3.1510321 L 72.456166 18.501089 L 42.17593 35.43107 L 10.111122 19.424889 L 41.217882 3.1510321 z "
     transform="matrix(5.5390141,0,0,5.5308224,1.922086,19.181576)" /><g
     inkscape:label="Layer 1"
     inkscape:groupmode="layer"
     id="layer1" /><g
     id="path4" /></svg>
