<?xml version="1.0" encoding="UTF-8" standalone="no"?>
<!-- Created with Inkscape (http://www.inkscape.org/) -->

<svg
   width="500"
   height="500"
   viewBox="0 0 500 500"
   version="1.1"
   id="svg1"
   inkscape:version="1.3.2 (091e20ef0f, 2023-11-25, custom)"
   sodipodi:docname="models.py.svg"
   xml:space="preserve"
   xmlns:inkscape="http://www.inkscape.org/namespaces/inkscape"
   xmlns:sodipodi="http://sodipodi.sourceforge.net/DTD/sodipodi-0.dtd"
   xmlns:xlink="http://www.w3.org/1999/xlink"
   xmlns="http://www.w3.org/2000/svg"
   xmlns:svg="http://www.w3.org/2000/svg"><sodipodi:namedview
     id="namedview1"
     pagecolor="#505050"
     bordercolor="#eeeeee"
     borderopacity="1"
     inkscape:showpageshadow="0"
     inkscape:pageopacity="0"
     inkscape:pagecheckerboard="0"
     inkscape:deskcolor="#505050"
     inkscape:document-units="px"
     inkscape:zoom="0.64175296"
     inkscape:cx="232.95568"
     inkscape:cy="153.48585"
     inkscape:window-width="1352"
     inkscape:window-height="734"
     inkscape:window-x="4"
     inkscape:window-y="24"
     inkscape:window-maximized="1"
     inkscape:current-layer="svg1"
     showguides="true"><sodipodi:guide
       position="250.02518,350.60736"
       orientation="-0.99997769,0.0066803918"
       id="guide30"
       inkscape:locked="false" /><sodipodi:guide
       position="66.396728,247.89992"
       orientation="0,-1"
       id="guide53"
       inkscape:locked="false" /></sodipodi:namedview><defs
     id="defs1"><linearGradient
       id="swatch61"
       inkscape:swatch="solid"><stop
         style="stop-color:#5090d0;stop-opacity:1;"
         offset="0"
         id="stop61" /></linearGradient><linearGradient
       id="swatch30"
       inkscape:swatch="solid"><stop
         style="stop-color:#f9f9f9;stop-opacity:1;"
         offset="0"
         id="stop30" /></linearGradient><inkscape:perspective
       sodipodi:type="inkscape:persp3d"
       inkscape:vp_x="44.06818 : 315.96746 : 1"
       inkscape:vp_y="0 : 1000 : 0"
       inkscape:vp_z="480.74134 : 298.68846 : 1"
       inkscape:persp3d-origin="250 : 166.66667 : 1"
       id="perspective17" /><inkscape:perspective
       sodipodi:type="inkscape:persp3d"
       inkscape:vp_x="44.06818 : 315.96746 : 1"
       inkscape:vp_y="0 : 1000 : 0"
       inkscape:vp_z="480.74134 : 298.68846 : 1"
       inkscape:persp3d-origin="250 : 166.66667 : 1"
       id="perspective17-1" /><inkscape:perspective
       sodipodi:type="inkscape:persp3d"
       inkscape:vp_x="44.06818 : 315.96746 : 1"
       inkscape:vp_y="0 : 1000 : 0"
       inkscape:vp_z="480.74134 : 298.68846 : 1"
       inkscape:persp3d-origin="250 : 166.66667 : 1"
       id="perspective17-4" /><inkscape:perspective
       sodipodi:type="inkscape:persp3d"
       inkscape:vp_x="44.06818 : 315.96746 : 1"
       inkscape:vp_y="0 : 1000 : 0"
       inkscape:vp_z="480.74134 : 298.68846 : 1"
       inkscape:persp3d-origin="250 : 166.66667 : 1"
       id="perspective17-6" /><inkscape:perspective
       sodipodi:type="inkscape:persp3d"
       inkscape:vp_x="44.06818 : 315.96746 : 1"
       inkscape:vp_y="0 : 1000 : 0"
       inkscape:vp_z="480.74134 : 298.68846 : 1"
       inkscape:persp3d-origin="250 : 166.66667 : 1"
       id="perspective17-3" /><inkscape:perspective
       sodipodi:type="inkscape:persp3d"
       inkscape:vp_x="44.06818 : 315.96746 : 1"
       inkscape:vp_y="0 : 1000 : 0"
       inkscape:vp_z="480.74134 : 298.68846 : 1"
       inkscape:persp3d-origin="250 : 166.66667 : 1"
       id="perspective17-5" /><inkscape:perspective
       sodipodi:type="inkscape:persp3d"
       inkscape:vp_x="44.06818 : 315.96746 : 1"
       inkscape:vp_y="0 : 1000 : 0"
       inkscape:vp_z="480.74134 : 298.68846 : 1"
       inkscape:persp3d-origin="250 : 166.66667 : 1"
       id="perspective17-2" /><inkscape:path-effect
       effect="mirror_symmetry"
       start_point="251.8258,19.235391"
       end_point="251.8258,476.11943"
       center_point="251.8258,247.67741"
       id="path-effect4"
       is_visible="true"
       lpeversion="1.2"
       lpesatellites=""
       mode="free"
       discard_orig_path="false"
       fuse_paths="true"
       oposite_fuse="false"
       split_items="false"
       split_open="false"
       link_styles="false" /><inkscape:path-effect
       effect="mirror_symmetry"
       start_point="251.8258,19.235394"
       end_point="251.8258,476.11943"
       center_point="251.8258,247.67741"
       id="path-effect2"
       is_visible="true"
       lpeversion="1.2"
       lpesatellites=""
       mode="free"
       discard_orig_path="false"
       fuse_paths="true"
       oposite_fuse="false"
       split_items="false"
       split_open="false"
       link_styles="false" /><inkscape:perspective
       sodipodi:type="inkscape:persp3d"
       inkscape:vp_x="44.06818 : 315.96746 : 1"
       inkscape:vp_y="0 : 1000 : 0"
       inkscape:vp_z="480.74134 : 298.68846 : 1"
       inkscape:persp3d-origin="250 : 166.66667 : 1"
       id="perspective17-29" /><inkscape:perspective
       sodipodi:type="inkscape:persp3d"
       inkscape:vp_x="44.06818 : 315.96746 : 1"
       inkscape:vp_y="0 : 1000 : 0"
       inkscape:vp_z="480.74134 : 298.68846 : 1"
       inkscape:persp3d-origin="250 : 166.66667 : 1"
       id="perspective17-2-1" /><inkscape:perspective
       sodipodi:type="inkscape:persp3d"
       inkscape:vp_x="44.06818 : 315.96746 : 1"
       inkscape:vp_y="0 : 1000 : 0"
       inkscape:vp_z="480.74134 : 298.68846 : 1"
       inkscape:persp3d-origin="250 : 166.66667 : 1"
       id="perspective17-0" /><inkscape:perspective
       sodipodi:type="inkscape:persp3d"
       inkscape:vp_x="44.06818 : 315.96746 : 1"
       inkscape:vp_y="0 : 1000 : 0"
       inkscape:vp_z="480.74134 : 298.68846 : 1"
       inkscape:persp3d-origin="250 : 166.66667 : 1"
       id="perspective17-1-2" /><inkscape:perspective
       sodipodi:type="inkscape:persp3d"
       inkscape:vp_x="44.06818 : 315.96746 : 1"
       inkscape:vp_y="0 : 1000 : 0"
       inkscape:vp_z="480.74134 : 298.68846 : 1"
       inkscape:persp3d-origin="250 : 166.66667 : 1"
       id="perspective17-2-0" /><inkscape:perspective
       sodipodi:type="inkscape:persp3d"
       inkscape:vp_x="44.06818 : 315.96746 : 1"
       inkscape:vp_y="0 : 1000 : 0"
       inkscape:vp_z="480.74134 : 298.68846 : 1"
       inkscape:persp3d-origin="250 : 166.66667 : 1"
       id="perspective17-6-7" /><inkscape:perspective
       sodipodi:type="inkscape:persp3d"
       inkscape:vp_x="44.06818 : 315.96746 : 1"
       inkscape:vp_y="0 : 1000 : 0"
       inkscape:vp_z="480.74134 : 298.68846 : 1"
       inkscape:persp3d-origin="250 : 166.66667 : 1"
       id="perspective17-2-9" /><inkscape:perspective
       sodipodi:type="inkscape:persp3d"
       inkscape:vp_x="44.06818 : 315.96746 : 1"
       inkscape:vp_y="0 : 1000 : 0"
       inkscape:vp_z="480.74134 : 298.68846 : 1"
       inkscape:persp3d-origin="250 : 166.66667 : 1"
       id="perspective17-0-3" /><linearGradient
       id="linearGradient9"
       inkscape:collect="always"><stop
         style="stop-color:#ff4f20;stop-opacity:1;"
         offset="0"
         id="stop8" /><stop
         style="stop-color:#ff1e5e;stop-opacity:1;"
         offset="1"
         id="stop9" /></linearGradient><inkscape:perspective
       sodipodi:type="inkscape:persp3d"
       inkscape:vp_x="44.06818 : 315.96746 : 1"
       inkscape:vp_y="0 : 1000 : 0"
       inkscape:vp_z="480.74134 : 298.68846 : 1"
       inkscape:persp3d-origin="250 : 166.66667 : 1"
       id="perspective17-61" /><inkscape:perspective
       sodipodi:type="inkscape:persp3d"
       inkscape:vp_x="44.06818 : 315.96746 : 1"
       inkscape:vp_y="0 : 1000 : 0"
       inkscape:vp_z="480.74134 : 298.68846 : 1"
       inkscape:persp3d-origin="250 : 166.66667 : 1"
       id="perspective17-4-8" /><linearGradient
       inkscape:collect="always"
       xlink:href="#linearGradient9"
       id="linearGradient2"
       x1="-3.487365"
       y1="4.639771"
       x2="106.67555"
       y2="93.052696"
       gradientUnits="userSpaceOnUse"
       gradientTransform="matrix(5.2196984,0,0,5.211979,37.905119,37.648348)" /><inkscape:perspective
       sodipodi:type="inkscape:persp3d"
       inkscape:vp_x="44.06818 : 315.96746 : 1"
       inkscape:vp_y="0 : 1000 : 0"
       inkscape:vp_z="480.74134 : 298.68846 : 1"
       inkscape:persp3d-origin="250 : 166.66667 : 1"
       id="perspective17-29-7" /><inkscape:perspective
       sodipodi:type="inkscape:persp3d"
       inkscape:vp_x="44.06818 : 315.96746 : 1"
       inkscape:vp_y="0 : 1000 : 0"
       inkscape:vp_z="480.74134 : 298.68846 : 1"
       inkscape:persp3d-origin="250 : 166.66667 : 1"
       id="perspective17-5-9" /><inkscape:perspective
       sodipodi:type="inkscape:persp3d"
       inkscape:vp_x="44.06818 : 315.96746 : 1"
       inkscape:vp_y="0 : 1000 : 0"
       inkscape:vp_z="480.74134 : 298.68846 : 1"
       inkscape:persp3d-origin="250 : 166.66667 : 1"
       id="perspective17-2-2" /></defs><path
     id="use15"
     style="fill:#d6d85c;fill-opacity:1;stroke:none;stroke-width:48.5153;stroke-linejoin:round;stroke-dasharray:none;stroke-opacity:1;paint-order:markers fill stroke"
     d="m 424.43773,468.94786 c 13.76281,0 24.84273,-10.65862 24.84273,-23.89868 V 410.9038 h -80.16575 v -12.15488 h 80.16575 v -0.0348 h 45.52065 l 0.29219,-0.5483 V 259.84684 l -0.006,-0.29331 h -50.70106 v 39.74275 l -35.93438,39.71195 h -63.13258 l -27.2223,30.99986 v 4.80599 94.08951 l 0.0777,0.0443 z m 9.31737,-14.48356 h -24.85212 v -24.85211 h 24.85212 z"
     sodipodi:nodetypes="sscccccccccccccccccsccccc" /><path
     id="rect14"
     style="fill:#615cd8;fill-opacity:1;stroke:none;stroke-width:48.5153;stroke-linejoin:round;stroke-dasharray:none;stroke-opacity:1;paint-order:markers fill stroke"
     d="m 320.58695,194.43028 c -13.76281,0 -24.84274,10.65862 -24.84274,23.89868 v 34.14537 h 80.16576 v 12.15489 h -80.16576 v 0.0348 h -45.52065 l -0.29219,0.54831 v 138.31894 l 0.006,0.29332 h 50.70134 v -39.74275 l 35.93439,-39.71195 h 63.13258 l 27.2223,-30.99986 v -4.80599 -94.08952 l -0.0777,-0.0443 z m -9.31737,14.48356 h 24.85211 v 24.85211 h -24.85211 z"
     sodipodi:nodetypes="sscccccccccccccccccsccccc" /><path
     id="path1-3"
     style="fill:url(#linearGradient2);fill-opacity:1;stroke:none;stroke-width:5.21584;stroke-opacity:1"
     d="M 256.52734 11.291016 C 235.3769 11.292316 217.89985 28.769492 217.90039 49.919922 C 217.90035 51.515832 218.03152 53.082703 218.22461 54.630859 L 113.07812 109.36133 C 106.04838 99.442926 94.509455 92.886396 81.572266 92.886719 C 60.420574 92.886188 42.940874 110.36394 42.941406 131.51562 C 42.941021 146.82369 52.116939 160.16995 65.193359 166.39648 L 65.919922 322.39453 C 51.977074 328.25355 42.047854 342.09657 42.046875 358.03516 C 42.046343 379.18686 59.524091 396.6646 80.675781 396.66406 C 89.263587 396.66428 97.219189 393.74847 103.67188 388.91016 L 218.14258 448.75781 C 217.99095 450.13282 217.90039 451.52566 217.90039 452.9375 C 217.89985 474.08794 235.3769 491.56512 256.52734 491.56641 C 274.31104 491.56686 289.45464 479.19526 293.83984 462.68945 L 293.83984 432.25977 L 290.22461 434.21875 C 288.99451 432.03065 287.54419 429.98332 285.92773 428.08203 L 249.9375 428.08203 A 24.259925 24.259925 0 0 1 225.68555 404.30859 L 225.67969 404.01562 A 24.259925 24.259925 0 0 1 225.67383 403.53125 L 225.67383 265.21289 A 24.259925 24.259925 0 0 1 228.5 253.84961 L 228.79102 253.30078 A 24.259925 24.259925 0 0 1 250.22266 240.40625 L 271.48633 240.40625 L 271.48633 218.32812 C 271.48633 209.82351 273.80322 201.87275 277.78711 194.96875 C 271.6642 190.87254 264.36215 188.43145 256.52734 188.43164 C 243.28561 188.43229 231.48622 195.28392 224.51172 205.59766 L 114.83984 150.93359 C 118.22049 145.20573 120.20135 138.57522 120.20117 131.51562 C 120.20125 128.9044 119.92857 126.35217 119.42188 123.87891 L 223.40039 69.560547 C 230.17885 80.868822 242.53001 88.547969 256.52734 88.548828 C 269.73642 88.549156 281.51262 81.73144 288.49414 71.460938 L 387.08008 119.83398 C 385.88756 123.52883 385.23233 127.45164 385.23242 131.51562 C 385.23228 137.76707 386.78719 143.68228 389.48438 148.93555 L 351.44727 170.17188 L 383.5957 170.17188 L 399.44727 161.32617 C 406.12656 166.82167 414.64277 170.14591 423.85938 170.14648 C 424.70317 170.1465 425.5301 170.07242 426.36133 170.01758 L 426.36133 170.17188 L 426.84961 170.17188 A 24.259925 24.259925 0 0 1 438.94141 173.40039 L 439.01953 173.44531 A 24.259925 24.259925 0 0 1 442.01953 175.95508 L 442.01953 165.5293 C 454.14614 158.97354 462.48865 146.12432 462.48828 131.51562 C 462.48881 110.36394 445.01106 92.886188 423.85938 92.886719 C 412.58428 92.887272 402.38313 97.884001 395.28711 105.72656 L 294.47266 56.962891 C 294.90417 54.67333 295.15826 52.324746 295.1582 49.919922 C 295.15873 28.768235 277.67901 11.290485 256.52734 11.291016 z " /></svg>
