<?xml version="1.0" encoding="UTF-8" standalone="no"?>
<!-- Created with Inkscape (http://www.inkscape.org/) -->

<svg
   width="500"
   height="500"
   viewBox="0 0 500 500"
   version="1.1"
   id="svg1"
   inkscape:version="1.3.2 (091e20ef0f, 2023-11-25, custom)"
   sodipodi:docname="module.js.svg"
   xml:space="preserve"
   xmlns:inkscape="http://www.inkscape.org/namespaces/inkscape"
   xmlns:sodipodi="http://sodipodi.sourceforge.net/DTD/sodipodi-0.dtd"
   xmlns:xlink="http://www.w3.org/1999/xlink"
   xmlns="http://www.w3.org/2000/svg"
   xmlns:svg="http://www.w3.org/2000/svg"><sodipodi:namedview
     id="namedview1"
     pagecolor="#505050"
     bordercolor="#eeeeee"
     borderopacity="1"
     inkscape:showpageshadow="0"
     inkscape:pageopacity="0"
     inkscape:pagecheckerboard="0"
     inkscape:deskcolor="#505050"
     inkscape:document-units="px"
     inkscape:zoom="0.96390292"
     inkscape:cx="279.59247"
     inkscape:cy="234.98217"
     inkscape:window-width="1352"
     inkscape:window-height="734"
     inkscape:window-x="4"
     inkscape:window-y="24"
     inkscape:window-maximized="1"
     inkscape:current-layer="svg1"
     showguides="true"><sodipodi:guide
       position="250.02518,350.60736"
       orientation="-0.99997769,0.0066803918"
       id="guide30"
       inkscape:locked="false" /><sodipodi:guide
       position="66.396728,247.89992"
       orientation="0,-1"
       id="guide53"
       inkscape:locked="false" /></sodipodi:namedview><defs
     id="defs1"><linearGradient
       id="linearGradient10"
       inkscape:collect="always"><stop
         style="stop-color:#ff5c40;stop-opacity:1;"
         offset="0"
         id="stop10" /><stop
         style="stop-color:#ff40ce;stop-opacity:1;"
         offset="1"
         id="stop11" /></linearGradient><linearGradient
       id="linearGradient5"
       inkscape:collect="always"><stop
         style="stop-color:#b97aff;stop-opacity:1;"
         offset="0.25887725"
         id="stop5" /><stop
         style="stop-color:#71e88f;stop-opacity:1;"
         offset="1"
         id="stop6" /></linearGradient><inkscape:path-effect
       effect="mirror_symmetry"
       start_point="252.07845,72.657992"
       end_point="252.07845,506.25796"
       center_point="252.07845,289.45798"
       id="path-effect2"
       is_visible="true"
       lpeversion="1.2"
       lpesatellites=""
       mode="free"
       discard_orig_path="false"
       fuse_paths="false"
       oposite_fuse="false"
       split_items="false"
       split_open="false"
       link_styles="false" /><inkscape:path-effect
       effect="mirror_symmetry"
       start_point="252.21753,78.082528"
       end_point="252.21753,440.2775"
       center_point="252.21753,259.18001"
       id="path-effect1"
       is_visible="true"
       lpeversion="1.2"
       lpesatellites=""
       mode="free"
       discard_orig_path="false"
       fuse_paths="false"
       oposite_fuse="false"
       split_items="false"
       split_open="false"
       link_styles="false" /><linearGradient
       id="swatch61"
       inkscape:swatch="solid"><stop
         style="stop-color:#5090d0;stop-opacity:1;"
         offset="0"
         id="stop61" /></linearGradient><linearGradient
       id="swatch30"
       inkscape:swatch="solid"><stop
         style="stop-color:#f9f9f9;stop-opacity:1;"
         offset="0"
         id="stop30" /></linearGradient><inkscape:perspective
       sodipodi:type="inkscape:persp3d"
       inkscape:vp_x="111.89907 : 349.33635 : 1"
       inkscape:vp_y="0 : 1000 : 0"
       inkscape:vp_z="435.93424 : 357.38111 : 1"
       inkscape:persp3d-origin="250 : 166.66667 : 1"
       id="perspective17" /><inkscape:perspective
       sodipodi:type="inkscape:persp3d"
       inkscape:vp_x="44.06818 : 315.96746 : 1"
       inkscape:vp_y="0 : 1000 : 0"
       inkscape:vp_z="480.74134 : 298.68846 : 1"
       inkscape:persp3d-origin="250 : 166.66667 : 1"
       id="perspective17-69" /><inkscape:perspective
       sodipodi:type="inkscape:persp3d"
       inkscape:vp_x="44.06818 : 315.96746 : 1"
       inkscape:vp_y="0 : 1000 : 0"
       inkscape:vp_z="480.74134 : 298.68846 : 1"
       inkscape:persp3d-origin="250 : 166.66667 : 1"
       id="perspective17-4" /><inkscape:perspective
       sodipodi:type="inkscape:persp3d"
       inkscape:vp_x="44.06818 : 315.96746 : 1"
       inkscape:vp_y="0 : 1000 : 0"
       inkscape:vp_z="480.74134 : 298.68846 : 1"
       inkscape:persp3d-origin="250 : 166.66667 : 1"
       id="perspective17-6" /><inkscape:perspective
       sodipodi:type="inkscape:persp3d"
       inkscape:vp_x="44.06818 : 315.96746 : 1"
       inkscape:vp_y="0 : 1000 : 0"
       inkscape:vp_z="480.74134 : 298.68846 : 1"
       inkscape:persp3d-origin="250 : 166.66667 : 1"
       id="perspective17-3" /><inkscape:perspective
       sodipodi:type="inkscape:persp3d"
       inkscape:vp_x="44.06818 : 315.96746 : 1"
       inkscape:vp_y="0 : 1000 : 0"
       inkscape:vp_z="480.74134 : 298.68846 : 1"
       inkscape:persp3d-origin="250 : 166.66667 : 1"
       id="perspective17-5" /><inkscape:perspective
       sodipodi:type="inkscape:persp3d"
       inkscape:vp_x="44.06818 : 315.96746 : 1"
       inkscape:vp_y="0 : 1000 : 0"
       inkscape:vp_z="480.74134 : 298.68846 : 1"
       inkscape:persp3d-origin="250 : 166.66667 : 1"
       id="perspective17-2" /><inkscape:perspective
       sodipodi:type="inkscape:persp3d"
       inkscape:vp_x="44.06818 : 315.96746 : 1"
       inkscape:vp_y="0 : 1000 : 0"
       inkscape:vp_z="480.74134 : 298.68846 : 1"
       inkscape:persp3d-origin="250 : 166.66667 : 1"
       id="perspective17-43" /><inkscape:perspective
       sodipodi:type="inkscape:persp3d"
       inkscape:vp_x="44.06818 : 315.96746 : 1"
       inkscape:vp_y="0 : 1000 : 0"
       inkscape:vp_z="480.74134 : 298.68846 : 1"
       inkscape:persp3d-origin="250 : 166.66667 : 1"
       id="perspective17-7" /><inkscape:perspective
       sodipodi:type="inkscape:persp3d"
       inkscape:vp_x="44.06818 : 315.96746 : 1"
       inkscape:vp_y="0 : 1000 : 0"
       inkscape:vp_z="480.74134 : 298.68846 : 1"
       inkscape:persp3d-origin="250 : 166.66667 : 1"
       id="perspective17-4-0" /><inkscape:perspective
       sodipodi:type="inkscape:persp3d"
       inkscape:vp_x="44.06818 : 315.96746 : 1"
       inkscape:vp_y="0 : 1000 : 0"
       inkscape:vp_z="480.74134 : 298.68846 : 1"
       inkscape:persp3d-origin="250 : 166.66667 : 1"
       id="perspective17-26" /><inkscape:perspective
       sodipodi:type="inkscape:persp3d"
       inkscape:vp_x="44.06818 : 315.96746 : 1"
       inkscape:vp_y="0 : 1000 : 0"
       inkscape:vp_z="480.74134 : 298.68846 : 1"
       inkscape:persp3d-origin="250 : 166.66667 : 1"
       id="perspective17-59" /><inkscape:perspective
       sodipodi:type="inkscape:persp3d"
       inkscape:vp_x="44.06818 : 315.96746 : 1"
       inkscape:vp_y="0 : 1000 : 0"
       inkscape:vp_z="480.74134 : 298.68846 : 1"
       inkscape:persp3d-origin="250 : 166.66667 : 1"
       id="perspective17-5-7" /><inkscape:perspective
       sodipodi:type="inkscape:persp3d"
       inkscape:vp_x="44.06818 : 315.96746 : 1"
       inkscape:vp_y="0 : 1000 : 0"
       inkscape:vp_z="480.74134 : 298.68846 : 1"
       inkscape:persp3d-origin="250 : 166.66667 : 1"
       id="perspective17-2-8" /><inkscape:perspective
       sodipodi:type="inkscape:persp3d"
       inkscape:vp_x="44.06818 : 315.96746 : 1"
       inkscape:vp_y="0 : 1000 : 0"
       inkscape:vp_z="480.74134 : 298.68846 : 1"
       inkscape:persp3d-origin="250 : 166.66667 : 1"
       id="perspective17-50" /><inkscape:perspective
       sodipodi:type="inkscape:persp3d"
       inkscape:vp_x="44.06818 : 315.96746 : 1"
       inkscape:vp_y="0 : 1000 : 0"
       inkscape:vp_z="480.74134 : 298.68846 : 1"
       inkscape:persp3d-origin="250 : 166.66667 : 1"
       id="perspective17-7-4" /><inkscape:perspective
       sodipodi:type="inkscape:persp3d"
       inkscape:vp_x="44.06818 : 315.96746 : 1"
       inkscape:vp_y="0 : 1000 : 0"
       inkscape:vp_z="480.74134 : 298.68846 : 1"
       inkscape:persp3d-origin="250 : 166.66667 : 1"
       id="perspective17-29" /><inkscape:perspective
       sodipodi:type="inkscape:persp3d"
       inkscape:vp_x="44.06818 : 315.96746 : 1"
       inkscape:vp_y="0 : 1000 : 0"
       inkscape:vp_z="480.74134 : 298.68846 : 1"
       inkscape:persp3d-origin="250 : 166.66667 : 1"
       id="perspective17-59-8" /><inkscape:perspective
       sodipodi:type="inkscape:persp3d"
       inkscape:vp_x="44.06818 : 315.96746 : 1"
       inkscape:vp_y="0 : 1000 : 0"
       inkscape:vp_z="480.74134 : 298.68846 : 1"
       inkscape:persp3d-origin="250 : 166.66667 : 1"
       id="perspective17-5-71" /><inkscape:perspective
       sodipodi:type="inkscape:persp3d"
       inkscape:vp_x="44.06818 : 315.96746 : 1"
       inkscape:vp_y="0 : 1000 : 0"
       inkscape:vp_z="480.74134 : 298.68846 : 1"
       inkscape:persp3d-origin="250 : 166.66667 : 1"
       id="perspective17-2-7" /><linearGradient
       inkscape:collect="always"
       xlink:href="#linearGradient5"
       id="linearGradient6"
       x1="16.344315"
       y1="86.776672"
       x2="552.46075"
       y2="470.89999"
       gradientUnits="userSpaceOnUse"
       gradientTransform="translate(-25.383304,-28.634979)" /><inkscape:perspective
       sodipodi:type="inkscape:persp3d"
       inkscape:vp_x="44.06818 : 315.96746 : 1"
       inkscape:vp_y="0 : 1000 : 0"
       inkscape:vp_z="480.74134 : 298.68846 : 1"
       inkscape:persp3d-origin="250 : 166.66667 : 1"
       id="perspective17-291" /><inkscape:perspective
       sodipodi:type="inkscape:persp3d"
       inkscape:vp_x="44.06818 : 315.96746 : 1"
       inkscape:vp_y="0 : 1000 : 0"
       inkscape:vp_z="480.74134 : 298.68846 : 1"
       inkscape:persp3d-origin="250 : 166.66667 : 1"
       id="perspective17-7-2" /><inkscape:perspective
       sodipodi:type="inkscape:persp3d"
       inkscape:vp_x="44.06818 : 315.96746 : 1"
       inkscape:vp_y="0 : 1000 : 0"
       inkscape:vp_z="480.74134 : 298.68846 : 1"
       inkscape:persp3d-origin="250 : 166.66667 : 1"
       id="perspective17-4-7" /><inkscape:perspective
       sodipodi:type="inkscape:persp3d"
       inkscape:vp_x="44.06818 : 315.96746 : 1"
       inkscape:vp_y="0 : 1000 : 0"
       inkscape:vp_z="480.74134 : 298.68846 : 1"
       inkscape:persp3d-origin="250 : 166.66667 : 1"
       id="perspective17-26-3" /><inkscape:perspective
       sodipodi:type="inkscape:persp3d"
       inkscape:vp_x="44.06818 : 315.96746 : 1"
       inkscape:vp_y="0 : 1000 : 0"
       inkscape:vp_z="480.74134 : 298.68846 : 1"
       inkscape:persp3d-origin="250 : 166.66667 : 1"
       id="perspective17-59-6" /><inkscape:perspective
       sodipodi:type="inkscape:persp3d"
       inkscape:vp_x="44.06818 : 315.96746 : 1"
       inkscape:vp_y="0 : 1000 : 0"
       inkscape:vp_z="480.74134 : 298.68846 : 1"
       inkscape:persp3d-origin="250 : 166.66667 : 1"
       id="perspective17-5-0" /><inkscape:perspective
       sodipodi:type="inkscape:persp3d"
       inkscape:vp_x="44.06818 : 315.96746 : 1"
       inkscape:vp_y="0 : 1000 : 0"
       inkscape:vp_z="480.74134 : 298.68846 : 1"
       inkscape:persp3d-origin="250 : 166.66667 : 1"
       id="perspective17-2-6" /><inkscape:perspective
       sodipodi:type="inkscape:persp3d"
       inkscape:vp_x="44.06818 : 315.96746 : 1"
       inkscape:vp_y="0 : 1000 : 0"
       inkscape:vp_z="480.74134 : 298.68846 : 1"
       inkscape:persp3d-origin="250 : 166.66667 : 1"
       id="perspective17-0" /><inkscape:perspective
       sodipodi:type="inkscape:persp3d"
       inkscape:vp_x="44.06818 : 315.96746 : 1"
       inkscape:vp_y="0 : 1000 : 0"
       inkscape:vp_z="480.74134 : 298.68846 : 1"
       inkscape:persp3d-origin="250 : 166.66667 : 1"
       id="perspective17-7-23" /><inkscape:perspective
       sodipodi:type="inkscape:persp3d"
       inkscape:vp_x="44.06818 : 315.96746 : 1"
       inkscape:vp_y="0 : 1000 : 0"
       inkscape:vp_z="480.74134 : 298.68846 : 1"
       inkscape:persp3d-origin="250 : 166.66667 : 1"
       id="perspective17-29-9" /><inkscape:perspective
       sodipodi:type="inkscape:persp3d"
       inkscape:vp_x="44.06818 : 315.96746 : 1"
       inkscape:vp_y="0 : 1000 : 0"
       inkscape:vp_z="480.74134 : 298.68846 : 1"
       inkscape:persp3d-origin="250 : 166.66667 : 1"
       id="perspective17-59-2" /><inkscape:perspective
       sodipodi:type="inkscape:persp3d"
       inkscape:vp_x="44.06818 : 315.96746 : 1"
       inkscape:vp_y="0 : 1000 : 0"
       inkscape:vp_z="480.74134 : 298.68846 : 1"
       inkscape:persp3d-origin="250 : 166.66667 : 1"
       id="perspective17-5-2" /><inkscape:perspective
       sodipodi:type="inkscape:persp3d"
       inkscape:vp_x="44.06818 : 315.96746 : 1"
       inkscape:vp_y="0 : 1000 : 0"
       inkscape:vp_z="480.74134 : 298.68846 : 1"
       inkscape:persp3d-origin="250 : 166.66667 : 1"
       id="perspective17-2-89" /><inkscape:perspective
       sodipodi:type="inkscape:persp3d"
       inkscape:vp_x="44.06818 : 315.96746 : 1"
       inkscape:vp_y="0 : 1000 : 0"
       inkscape:vp_z="480.74134 : 298.68846 : 1"
       inkscape:persp3d-origin="250 : 166.66667 : 1"
       id="perspective17-1" /><inkscape:perspective
       sodipodi:type="inkscape:persp3d"
       inkscape:vp_x="44.06818 : 315.96746 : 1"
       inkscape:vp_y="0 : 1000 : 0"
       inkscape:vp_z="480.74134 : 298.68846 : 1"
       inkscape:persp3d-origin="250 : 166.66667 : 1"
       id="perspective17-2-9" /><linearGradient
       inkscape:collect="always"
       xlink:href="#linearGradient10"
       id="linearGradient11"
       x1="72.471686"
       y1="250.63808"
       x2="386.15822"
       y2="250.63808"
       gradientUnits="userSpaceOnUse" /></defs><path
     id="path8"
     style="color:#000000;fill:url(#linearGradient11);stroke-width:10;stroke-linejoin:round;paint-order:markers fill stroke;stroke-dasharray:none;stroke:none;stroke-opacity:1"
     d="m 294.33227,111.86645 c -4.73175,0.2869 -9.64221,1.70964 -14.47804,3.87381 -9.67166,4.32836 -19.88,11.79788 -30.61325,21.80069 -6.50107,6.05864 -13.188,13.16288 -19.92477,20.98847 -6.73725,-7.82623 -13.42579,-14.93067 -19.92728,-20.98973 -10.73326,-10.00282 -20.94034,-17.46982 -30.61201,-21.79817 -9.67164,-4.32835 -19.64407,-5.69002 -27.88361,-0.93293 -8.23952,4.75709 -12.04535,14.07324 -13.13272,24.61332 -1.08736,10.54008 0.27598,23.11365 3.57205,37.41032 1.99652,8.65987 4.80507,18.00403 8.21408,27.75159 -10.14554,1.92144 -19.64137,4.15986 -28.13885,6.76062 -14.02931,4.29387 -25.602256,9.39919 -34.186554,15.6109 -8.584287,6.21173 -14.74963,14.16872 -14.74963,23.6829 0,9.51419 6.165343,17.46866 14.74963,23.68039 8.584298,6.21171 20.157244,11.31955 34.186554,15.61342 8.49748,2.60075 17.99331,4.83917 28.13885,6.76061 -3.40901,9.74757 -6.21756,19.09173 -8.21408,27.75159 -3.29606,14.29669 -4.6594,26.86899 -3.57205,37.40907 1.08737,10.54008 4.8932,19.85748 13.13272,24.61458 8.23954,4.7571 18.21322,3.39542 27.88487,-0.93293 9.67168,-4.32836 19.87748,-11.79661 30.61075,-21.79944 6.50162,-6.05917 13.18991,-13.16332 19.92728,-20.98971 6.7369,7.82575 13.42359,14.92971 19.92477,20.98845 10.73325,10.00283 20.94159,17.47361 30.61325,21.80195 9.67166,4.32836 19.64283,5.69002 27.88236,0.93293 8.23951,-4.75709 12.04661,-14.07449 13.13397,-24.61458 1.08737,-10.54007 -0.27724,-23.11489 -3.57331,-37.41158 -1.99642,-8.65947 -4.80401,-18.00323 -8.21282,-27.75033 10.14601,-1.92148 19.64229,-4.15976 28.1401,-6.76061 14.02932,-4.29387 25.59976,-9.40171 34.18405,-15.61342 8.58429,-6.21173 14.74964,-14.1662 14.74964,-23.68039 0,-9.51418 -6.16535,-17.47117 -14.74964,-23.6829 -8.58429,-6.21171 -20.15473,-11.31703 -34.18405,-15.6109 -8.49781,-2.60087 -17.99409,-4.83913 -28.1401,-6.76062 3.40881,-9.74709 6.2164,-19.09084 8.21282,-27.75032 3.29607,-14.29669 4.66193,-26.87152 3.57456,-37.41159 -1.08735,-10.54008 -4.8957,-19.85749 -13.13522,-24.61458 -4.11978,-2.37855 -8.67256,-3.22778 -13.40432,-2.94088 z m -132.30035,14.41394 c 2.6726,-0.13059 6.21941,0.59279 10.83685,2.65923 7.38791,3.30631 16.68242,9.87931 26.66275,19.18043 6.55918,6.11279 13.44415,13.48979 20.43776,21.75542 -6.95808,8.80848 -13.91292,18.34569 -20.73699,28.65436 -12.34084,0.75548 -24.07774,2.01185 -35.18613,3.63366 -3.6616,-10.18977 -6.60716,-19.84061 -8.62146,-28.57766 -3.06484,-13.29378 -4.11095,-24.63027 -3.28034,-32.68154 0.8306,-8.05127 3.26736,-12.00747 5.97856,-13.57278 1.01669,-0.587 2.30545,-0.97278 3.909,-1.05112 z m 134.56479,0 c 1.60356,0.0783 2.89232,0.46412 3.90902,1.05112 2.71118,1.5653 5.14921,5.52276 5.97981,13.57403 0.83061,8.05127 -0.21423,19.38525 -3.27908,32.67903 -2.01432,8.73704 -4.95973,18.38891 -8.62145,28.57892 -11.10841,-1.62177 -22.84532,-2.87822 -35.18613,-3.63366 -6.82418,-10.30892 -13.78007,-19.84569 -20.73826,-28.65436 6.99392,-8.26612 13.87968,-15.64247 20.43901,-21.75542 9.98034,-9.30114 19.27233,-15.87412 26.66023,-19.18043 4.61745,-2.06645 8.16427,-2.78982 10.83685,-2.65923 z m -67.2805,55.1197 c 4.01692,5.18017 8.03357,10.66291 12.03885,16.40175 -3.98402,-0.0951 -7.97471,-0.18483 -12.03885,-0.18483 -4.06458,0 -8.05569,0.0897 -12.04011,0.18483 4.00561,-5.73936 8.02282,-11.22113 12.04011,-16.40175 z m 0,30.67862 c 7.47798,0 14.76597,0.22746 21.94151,0.55826 3.87368,6.04778 7.71326,12.24511 11.45167,18.72024 3.73895,6.47607 7.18618,12.90145 10.48731,19.28103 -3.30113,6.37958 -6.7471,12.80497 -10.48604,19.28102 -3.73843,6.47513 -7.57921,12.67238 -11.45294,18.72025 -7.17554,0.33092 -14.46353,0.55826 -21.94151,0.55826 -7.47777,0 -14.76621,-0.22736 -21.94151,-0.55826 -3.87407,-6.04832 -7.71548,-12.24585 -11.4542,-18.72151 -3.73876,-6.47572 -7.18637,-12.90059 -10.48731,-19.27976 3.301,-6.37925 6.74855,-12.80404 10.48731,-19.27976 3.73872,-6.47566 7.58013,-12.67318 11.4542,-18.72151 7.1753,-0.33079 14.46374,-0.55826 21.94151,-0.55826 z m -39.73889,1.71499 c -2.07466,3.4031 -4.14741,6.81509 -6.17974,10.33519 -2.03213,3.51977 -3.9507,7.01956 -5.86037,10.51748 -2.96724,-6.33788 -5.70502,-12.55855 -8.18264,-18.62721 6.49455,-0.88845 13.25025,-1.62638 20.22275,-2.22546 z m 79.47651,0 c 6.97259,0.59906 13.72812,1.33701 20.22276,2.22546 -2.47779,6.06906 -5.2152,12.29019 -8.18264,18.62848 -1.91011,-3.49875 -3.82903,-6.99943 -5.86164,-10.52001 -2.03203,-3.5196 -4.10412,-6.93129 -6.17848,-10.33393 z m -114.35334,4.55653 c 4.14964,10.43088 8.93056,21.22301 14.44662,32.28801 -5.51586,11.06461 -10.29708,21.85621 -14.44662,32.28675 -10.65582,-1.92387 -20.48671,-4.1981 -29.06047,-6.82223 -13.04518,-3.99264 -23.38328,-8.75363 -29.940592,-13.4986 -6.557293,-4.74496 -8.766043,-8.8353 -8.766043,-11.96592 0,-3.13061 2.20875,-7.22097 8.766043,-11.96592 6.557312,-4.74497 16.895412,-9.50722 29.940592,-13.49987 8.57376,-2.62411 18.40465,-4.89863 29.06047,-6.82222 z m 149.22892,0 c 10.65648,1.92365 20.48878,4.19797 29.06298,6.82222 13.04518,3.99265 23.38328,8.7549 29.94059,13.49987 6.55729,4.74495 8.76477,8.83531 8.76477,11.96592 0,3.13062 -2.20748,7.22096 -8.76477,11.96592 -6.55731,4.74497 -16.89541,9.50596 -29.94059,13.4986 -8.5742,2.62425 -18.4065,4.8983 -29.06298,6.82223 -4.14945,-10.4304 -8.92962,-21.22228 -14.44536,-32.28675 5.51593,-11.06487 10.29581,-21.85726 14.44536,-32.28801 z m -74.6132,14.46926 c -9.5047,0 -18.25002,7.65314 -18.25002,17.81875 0,10.16564 8.74532,17.81876 18.25002,17.81876 9.50471,0 18.25001,-7.65312 18.25001,-17.81876 0,-10.16561 -8.7453,-17.81875 -18.25001,-17.81875 z m 51.77647,33.80937 c 2.96735,6.33805 5.70617,12.55835 8.18391,18.6272 -6.49463,0.88865 -13.25018,1.62624 -20.22276,2.22546 2.07417,-3.40234 4.14663,-6.81339 6.17848,-10.33266 2.03236,-3.52017 3.95049,-7.02169 5.86037,-10.52 z m -103.55547,9.4e-4 c 1.90955,3.49768 3.82838,6.99798 5.86037,10.51749 2.03215,3.51978 4.10527,6.93111 6.17974,10.33392 -6.97249,-0.59923 -13.72821,-1.33681 -20.22275,-2.22546 2.47756,-6.06837 5.21554,-12.28841 8.18264,-18.62595 z m -13.49231,32.4829 c 11.10876,1.62188 22.84609,2.87814 35.18739,3.63365 6.82423,10.30891 13.78,19.84446 20.73825,28.65309 -6.99444,8.26685 -13.88049,15.64457 -20.44027,21.75795 -9.98034,9.30113 -19.27359,15.87286 -26.6615,19.17917 -7.38791,3.30631 -12.03467,3.17342 -14.74585,1.6081 -2.7112,-1.5653 -5.14921,-5.52274 -5.97983,-13.57403 -0.8306,-8.05126 0.21551,-19.38524 3.28035,-32.67903 2.01435,-8.73724 4.95961,-18.38864 8.62146,-28.5789 z m 130.54011,0 c 3.66164,10.18984 6.60717,19.84073 8.62145,28.57764 3.06484,13.2938 4.1097,24.62903 3.27908,32.68029 -0.8306,8.05129 -3.26862,12.00873 -5.97981,13.57403 -2.7112,1.56532 -7.35669,1.69696 -14.74461,-1.60935 -7.38791,-3.3063 -16.68115,-9.87805 -26.66149,-19.17918 -6.55954,-6.11313 -13.44486,-13.49024 -20.43901,-21.75669 6.95819,-8.80866 13.91408,-18.34418 20.73826,-28.65309 12.34081,-0.75545 24.07772,-2.01189 35.18613,-3.63365 z m -77.30891,4.36164 c 3.98442,0.0951 7.97553,0.18482 12.04011,0.18482 4.06414,0 8.05483,-0.0897 12.03885,-0.18482 -4.00515,5.73867 -8.0233,11.2204 -12.04012,16.4005 -4.01677,-5.18003 -8.03373,-10.66188 -12.03884,-16.4005 z" /><path
     id="path2"
     style="color:#000000;fill:url(#linearGradient6);stroke:none;stroke-linecap:round;stroke-linejoin:round;stroke-miterlimit:10;-inkscape-stroke:none;paint-order:stroke markers fill"
     d="M 224.7793 10.072266 A 17.50175 17.50175 0 0 0 216.0293 12.416016 L 26.320312 121.94336 A 17.5 17.5 0 0 0 18.955078 130.9707 A 17.50175 17.50175 0 0 0 18.927734 131.02734 A 17.5 17.5 0 0 0 17.943359 135.96289 A 17.50175 17.50175 0 0 0 17.597656 137.70312 L 17.597656 368.4375 A 17.50175 17.50175 0 0 0 26.347656 383.59375 L 215.46289 492.7793 A 17.50175 17.50175 0 0 0 226.69531 494.45508 A 17.50175 17.50175 0 0 0 237.92773 492.7793 L 300.39062 456.7168 L 304.9707 444.88672 A 17.50175 17.50175 0 0 1 329.11523 435.55078 C 330.12831 436.05732 332.16471 436.65762 334.26172 437.16016 L 342.94531 432.14648 C 342.9679 431.68475 343.02539 431.33304 343.02539 430.80859 L 343.02539 391.68555 L 246.35352 447.49805 L 244.30664 258.36328 L 400.79297 168.01562 L 400.79297 358.33398 L 394.14844 362.16992 L 394.14844 374.43945 C 396.75055 371.04778 399.76915 368.01227 403.20117 365.5918 C 412.48811 359.04206 423.62799 355.88263 435.79297 355.07617 L 435.79297 137.70312 A 17.50175 17.50175 0 0 0 421.26758 120.80664 L 233.5293 12.416016 A 17.50175 17.50175 0 0 0 224.7793 10.072266 z M 224.7793 47.779297 L 381.91406 138.5 L 327.87305 169.70117 L 170.8125 78.935547 L 224.7793 47.779297 z M 135.82031 99.138672 L 292.87891 189.9043 L 226.69531 228.11523 L 69.560547 137.39453 L 135.82031 99.138672 z M 52.597656 168.01562 L 209.08594 258.36328 L 207.03906 447.5 L 52.597656 358.33398 L 52.597656 168.01562 z " /><path
     d="m 340.71367,469.85008 c 22.92017,0 35.93417,-14.56791 35.93417,-40.79014 v -95.95395 h -16.12182 v 97.7021 c 0,15.92757 -7.18683,24.86256 -20.20083,24.86256 -5.82717,0 -13.59672,-1.74815 -19.0354,-4.46749 l -4.66173,12.0428 c 7.76955,4.66173 15.92758,6.60412 24.08561,6.60412 z m 95.95408,0 c 23.11442,0 37.29385,-10.87737 37.29385,-28.16462 0,-34.38027 -55.94077,-21.56051 -55.94077,-42.73253 0,-8.15803 8.74075,-13.40248 22.72594,-13.40248 7.96379,0 17.28725,1.74815 25.25104,4.46749 l 3.69054,-12.62552 c -7.96379,-3.30205 -17.48149,-5.0502 -27.38767,-5.0502 -24.27985,0 -39.81895,10.68313 -39.81895,28.35886 0,33.6033 55.74653,19.61811 55.74653,42.53829 0,8.5465 -7.57531,13.40247 -20.39507,13.40247 -9.90618,0 -23.11442,-2.71934 -33.02059,-6.99259 l -3.69054,12.62552 c 10.68313,4.85597 23.69713,7.57531 35.54569,7.57531 z"
     id="path6"
     style="font-size:240px;font-family:System-ui;-inkscape-font-specification:System-ui;display:inline;fill:#ff9340;fill-opacity:0.313725;stroke:#ffc340;stroke-width:19.0427;stroke-linejoin:round;paint-order:markers fill stroke"
     aria-label="Js" /></svg>
