<?xml version="1.0" encoding="UTF-8" standalone="no"?>
<!-- Created with Inkscape (http://www.inkscape.org/) -->

<svg
   width="500"
   height="500"
   viewBox="0 0 500 500"
   version="1.1"
   id="svg1"
   inkscape:version="1.3.2 (091e20ef0f, 2023-11-25, custom)"
   sodipodi:docname="module.ts.svg"
   xml:space="preserve"
   xmlns:inkscape="http://www.inkscape.org/namespaces/inkscape"
   xmlns:sodipodi="http://sodipodi.sourceforge.net/DTD/sodipodi-0.dtd"
   xmlns:xlink="http://www.w3.org/1999/xlink"
   xmlns="http://www.w3.org/2000/svg"
   xmlns:svg="http://www.w3.org/2000/svg"><sodipodi:namedview
     id="namedview1"
     pagecolor="#505050"
     bordercolor="#eeeeee"
     borderopacity="1"
     inkscape:showpageshadow="0"
     inkscape:pageopacity="0"
     inkscape:pagecheckerboard="0"
     inkscape:deskcolor="#505050"
     inkscape:document-units="px"
     inkscape:zoom="0.96390292"
     inkscape:cx="279.59247"
     inkscape:cy="234.98217"
     inkscape:window-width="1352"
     inkscape:window-height="734"
     inkscape:window-x="4"
     inkscape:window-y="24"
     inkscape:window-maximized="1"
     inkscape:current-layer="svg1"
     showguides="true"><sodipodi:guide
       position="250.02518,350.60736"
       orientation="-0.99997769,0.0066803918"
       id="guide30"
       inkscape:locked="false" /><sodipodi:guide
       position="66.396728,247.89992"
       orientation="0,-1"
       id="guide53"
       inkscape:locked="false" /></sodipodi:namedview><defs
     id="defs1"><linearGradient
       id="linearGradient5"
       inkscape:collect="always"><stop
         style="stop-color:#b97aff;stop-opacity:1;"
         offset="0.25887725"
         id="stop5" /><stop
         style="stop-color:#71e88f;stop-opacity:1;"
         offset="1"
         id="stop6" /></linearGradient><inkscape:path-effect
       effect="mirror_symmetry"
       start_point="252.07845,72.657992"
       end_point="252.07845,506.25796"
       center_point="252.07845,289.45798"
       id="path-effect2"
       is_visible="true"
       lpeversion="1.2"
       lpesatellites=""
       mode="free"
       discard_orig_path="false"
       fuse_paths="false"
       oposite_fuse="false"
       split_items="false"
       split_open="false"
       link_styles="false" /><inkscape:path-effect
       effect="mirror_symmetry"
       start_point="252.21753,78.082528"
       end_point="252.21753,440.2775"
       center_point="252.21753,259.18001"
       id="path-effect1"
       is_visible="true"
       lpeversion="1.2"
       lpesatellites=""
       mode="free"
       discard_orig_path="false"
       fuse_paths="false"
       oposite_fuse="false"
       split_items="false"
       split_open="false"
       link_styles="false" /><linearGradient
       id="swatch61"
       inkscape:swatch="solid"><stop
         style="stop-color:#5090d0;stop-opacity:1;"
         offset="0"
         id="stop61" /></linearGradient><linearGradient
       id="swatch30"
       inkscape:swatch="solid"><stop
         style="stop-color:#f9f9f9;stop-opacity:1;"
         offset="0"
         id="stop30" /></linearGradient><inkscape:perspective
       sodipodi:type="inkscape:persp3d"
       inkscape:vp_x="111.89907 : 349.33635 : 1"
       inkscape:vp_y="0 : 1000 : 0"
       inkscape:vp_z="435.93424 : 357.38111 : 1"
       inkscape:persp3d-origin="250 : 166.66667 : 1"
       id="perspective17" /><inkscape:perspective
       sodipodi:type="inkscape:persp3d"
       inkscape:vp_x="44.06818 : 315.96746 : 1"
       inkscape:vp_y="0 : 1000 : 0"
       inkscape:vp_z="480.74134 : 298.68846 : 1"
       inkscape:persp3d-origin="250 : 166.66667 : 1"
       id="perspective17-69" /><inkscape:perspective
       sodipodi:type="inkscape:persp3d"
       inkscape:vp_x="44.06818 : 315.96746 : 1"
       inkscape:vp_y="0 : 1000 : 0"
       inkscape:vp_z="480.74134 : 298.68846 : 1"
       inkscape:persp3d-origin="250 : 166.66667 : 1"
       id="perspective17-4" /><inkscape:perspective
       sodipodi:type="inkscape:persp3d"
       inkscape:vp_x="44.06818 : 315.96746 : 1"
       inkscape:vp_y="0 : 1000 : 0"
       inkscape:vp_z="480.74134 : 298.68846 : 1"
       inkscape:persp3d-origin="250 : 166.66667 : 1"
       id="perspective17-6" /><inkscape:perspective
       sodipodi:type="inkscape:persp3d"
       inkscape:vp_x="44.06818 : 315.96746 : 1"
       inkscape:vp_y="0 : 1000 : 0"
       inkscape:vp_z="480.74134 : 298.68846 : 1"
       inkscape:persp3d-origin="250 : 166.66667 : 1"
       id="perspective17-3" /><inkscape:perspective
       sodipodi:type="inkscape:persp3d"
       inkscape:vp_x="44.06818 : 315.96746 : 1"
       inkscape:vp_y="0 : 1000 : 0"
       inkscape:vp_z="480.74134 : 298.68846 : 1"
       inkscape:persp3d-origin="250 : 166.66667 : 1"
       id="perspective17-5" /><inkscape:perspective
       sodipodi:type="inkscape:persp3d"
       inkscape:vp_x="44.06818 : 315.96746 : 1"
       inkscape:vp_y="0 : 1000 : 0"
       inkscape:vp_z="480.74134 : 298.68846 : 1"
       inkscape:persp3d-origin="250 : 166.66667 : 1"
       id="perspective17-2" /><inkscape:perspective
       sodipodi:type="inkscape:persp3d"
       inkscape:vp_x="44.06818 : 315.96746 : 1"
       inkscape:vp_y="0 : 1000 : 0"
       inkscape:vp_z="480.74134 : 298.68846 : 1"
       inkscape:persp3d-origin="250 : 166.66667 : 1"
       id="perspective17-43" /><inkscape:perspective
       sodipodi:type="inkscape:persp3d"
       inkscape:vp_x="44.06818 : 315.96746 : 1"
       inkscape:vp_y="0 : 1000 : 0"
       inkscape:vp_z="480.74134 : 298.68846 : 1"
       inkscape:persp3d-origin="250 : 166.66667 : 1"
       id="perspective17-7" /><inkscape:perspective
       sodipodi:type="inkscape:persp3d"
       inkscape:vp_x="44.06818 : 315.96746 : 1"
       inkscape:vp_y="0 : 1000 : 0"
       inkscape:vp_z="480.74134 : 298.68846 : 1"
       inkscape:persp3d-origin="250 : 166.66667 : 1"
       id="perspective17-4-0" /><inkscape:perspective
       sodipodi:type="inkscape:persp3d"
       inkscape:vp_x="44.06818 : 315.96746 : 1"
       inkscape:vp_y="0 : 1000 : 0"
       inkscape:vp_z="480.74134 : 298.68846 : 1"
       inkscape:persp3d-origin="250 : 166.66667 : 1"
       id="perspective17-26" /><inkscape:perspective
       sodipodi:type="inkscape:persp3d"
       inkscape:vp_x="44.06818 : 315.96746 : 1"
       inkscape:vp_y="0 : 1000 : 0"
       inkscape:vp_z="480.74134 : 298.68846 : 1"
       inkscape:persp3d-origin="250 : 166.66667 : 1"
       id="perspective17-59" /><inkscape:perspective
       sodipodi:type="inkscape:persp3d"
       inkscape:vp_x="44.06818 : 315.96746 : 1"
       inkscape:vp_y="0 : 1000 : 0"
       inkscape:vp_z="480.74134 : 298.68846 : 1"
       inkscape:persp3d-origin="250 : 166.66667 : 1"
       id="perspective17-5-7" /><inkscape:perspective
       sodipodi:type="inkscape:persp3d"
       inkscape:vp_x="44.06818 : 315.96746 : 1"
       inkscape:vp_y="0 : 1000 : 0"
       inkscape:vp_z="480.74134 : 298.68846 : 1"
       inkscape:persp3d-origin="250 : 166.66667 : 1"
       id="perspective17-2-8" /><inkscape:perspective
       sodipodi:type="inkscape:persp3d"
       inkscape:vp_x="44.06818 : 315.96746 : 1"
       inkscape:vp_y="0 : 1000 : 0"
       inkscape:vp_z="480.74134 : 298.68846 : 1"
       inkscape:persp3d-origin="250 : 166.66667 : 1"
       id="perspective17-50" /><inkscape:perspective
       sodipodi:type="inkscape:persp3d"
       inkscape:vp_x="44.06818 : 315.96746 : 1"
       inkscape:vp_y="0 : 1000 : 0"
       inkscape:vp_z="480.74134 : 298.68846 : 1"
       inkscape:persp3d-origin="250 : 166.66667 : 1"
       id="perspective17-7-4" /><inkscape:perspective
       sodipodi:type="inkscape:persp3d"
       inkscape:vp_x="44.06818 : 315.96746 : 1"
       inkscape:vp_y="0 : 1000 : 0"
       inkscape:vp_z="480.74134 : 298.68846 : 1"
       inkscape:persp3d-origin="250 : 166.66667 : 1"
       id="perspective17-29" /><inkscape:perspective
       sodipodi:type="inkscape:persp3d"
       inkscape:vp_x="44.06818 : 315.96746 : 1"
       inkscape:vp_y="0 : 1000 : 0"
       inkscape:vp_z="480.74134 : 298.68846 : 1"
       inkscape:persp3d-origin="250 : 166.66667 : 1"
       id="perspective17-59-8" /><inkscape:perspective
       sodipodi:type="inkscape:persp3d"
       inkscape:vp_x="44.06818 : 315.96746 : 1"
       inkscape:vp_y="0 : 1000 : 0"
       inkscape:vp_z="480.74134 : 298.68846 : 1"
       inkscape:persp3d-origin="250 : 166.66667 : 1"
       id="perspective17-5-71" /><inkscape:perspective
       sodipodi:type="inkscape:persp3d"
       inkscape:vp_x="44.06818 : 315.96746 : 1"
       inkscape:vp_y="0 : 1000 : 0"
       inkscape:vp_z="480.74134 : 298.68846 : 1"
       inkscape:persp3d-origin="250 : 166.66667 : 1"
       id="perspective17-2-7" /><linearGradient
       inkscape:collect="always"
       xlink:href="#linearGradient5"
       id="linearGradient6"
       x1="16.344315"
       y1="86.776672"
       x2="552.46075"
       y2="470.89999"
       gradientUnits="userSpaceOnUse"
       gradientTransform="translate(-25.383304,-28.634979)" /><inkscape:perspective
       sodipodi:type="inkscape:persp3d"
       inkscape:vp_x="44.06818 : 315.96746 : 1"
       inkscape:vp_y="0 : 1000 : 0"
       inkscape:vp_z="480.74134 : 298.68846 : 1"
       inkscape:persp3d-origin="250 : 166.66667 : 1"
       id="perspective17-291" /><inkscape:perspective
       sodipodi:type="inkscape:persp3d"
       inkscape:vp_x="44.06818 : 315.96746 : 1"
       inkscape:vp_y="0 : 1000 : 0"
       inkscape:vp_z="480.74134 : 298.68846 : 1"
       inkscape:persp3d-origin="250 : 166.66667 : 1"
       id="perspective17-7-2" /><inkscape:perspective
       sodipodi:type="inkscape:persp3d"
       inkscape:vp_x="44.06818 : 315.96746 : 1"
       inkscape:vp_y="0 : 1000 : 0"
       inkscape:vp_z="480.74134 : 298.68846 : 1"
       inkscape:persp3d-origin="250 : 166.66667 : 1"
       id="perspective17-4-7" /><inkscape:perspective
       sodipodi:type="inkscape:persp3d"
       inkscape:vp_x="44.06818 : 315.96746 : 1"
       inkscape:vp_y="0 : 1000 : 0"
       inkscape:vp_z="480.74134 : 298.68846 : 1"
       inkscape:persp3d-origin="250 : 166.66667 : 1"
       id="perspective17-26-3" /><inkscape:perspective
       sodipodi:type="inkscape:persp3d"
       inkscape:vp_x="44.06818 : 315.96746 : 1"
       inkscape:vp_y="0 : 1000 : 0"
       inkscape:vp_z="480.74134 : 298.68846 : 1"
       inkscape:persp3d-origin="250 : 166.66667 : 1"
       id="perspective17-59-6" /><inkscape:perspective
       sodipodi:type="inkscape:persp3d"
       inkscape:vp_x="44.06818 : 315.96746 : 1"
       inkscape:vp_y="0 : 1000 : 0"
       inkscape:vp_z="480.74134 : 298.68846 : 1"
       inkscape:persp3d-origin="250 : 166.66667 : 1"
       id="perspective17-5-0" /><inkscape:perspective
       sodipodi:type="inkscape:persp3d"
       inkscape:vp_x="44.06818 : 315.96746 : 1"
       inkscape:vp_y="0 : 1000 : 0"
       inkscape:vp_z="480.74134 : 298.68846 : 1"
       inkscape:persp3d-origin="250 : 166.66667 : 1"
       id="perspective17-2-6" /></defs><path
     id="path2"
     style="color:#000000;fill:url(#linearGradient6);stroke:none;stroke-linecap:round;stroke-linejoin:round;stroke-miterlimit:10;-inkscape-stroke:none;paint-order:stroke markers fill"
     d="M 224.7793 10.072266 A 17.50175 17.50175 0 0 0 216.0293 12.416016 L 26.320312 121.94336 A 17.5 17.5 0 0 0 18.955078 130.9707 A 17.50175 17.50175 0 0 0 18.927734 131.02734 A 17.5 17.5 0 0 0 17.943359 135.96289 A 17.50175 17.50175 0 0 0 17.597656 137.70312 L 17.597656 368.4375 A 17.50175 17.50175 0 0 0 26.347656 383.59375 L 215.46289 492.7793 A 17.50175 17.50175 0 0 0 226.69531 494.45508 A 17.50175 17.50175 0 0 0 237.92773 492.7793 L 297.29297 458.50391 L 297.29297 418.08789 L 246.35352 447.49805 L 244.30664 258.36328 L 400.79297 168.01562 L 400.79297 315.11523 C 407.09078 318.95577 411.40364 325.88232 411.4043 333.63281 A 17.50175 17.50175 0 0 0 411.4043 333.63477 L 411.4043 356.3418 A 17.50175 17.50175 0 0 0 411.4043 356.34375 C 411.40425 356.78303 411.29683 357.19716 411.26953 357.63086 C 418.82989 354.50025 427.08167 352.76079 435.79297 352.08008 L 435.79297 137.70312 A 17.50175 17.50175 0 0 0 421.26758 120.80664 L 233.5293 12.416016 A 17.50175 17.50175 0 0 0 224.7793 10.072266 z M 224.7793 47.779297 L 381.91406 138.5 L 327.87305 169.70117 L 170.8125 78.935547 L 224.7793 47.779297 z M 135.82031 99.138672 L 292.87891 189.9043 L 226.69531 228.11523 L 69.560547 137.39453 L 135.82031 99.138672 z M 52.597656 168.01562 L 209.08594 258.36328 L 207.03906 447.5 L 52.597656 358.33398 L 52.597656 168.01562 z M 366.67969 378.0293 L 366.39062 378.19531 L 366.39062 418.61133 L 379.34375 411.13281 C 379.06804 409.05053 378.88281 406.9367 378.88281 404.77344 C 378.88281 395.21288 381.66247 385.942 386.56836 378.0293 L 366.67969 378.0293 z " /><path
     id="path9"
     style="color:#000000;-inkscape-font-specification:'System-ui Bold';fill:#3178c6;stroke-width:0.83734;stroke-linejoin:round;-inkscape-stroke:none;paint-order:markers fill stroke"
     d="m 274.36678,329.44763 a 4.1871039,4.1871039 0 0 0 -4.18668,4.18668 v 22.70786 a 4.1871039,4.1871039 0 0 0 4.18668,4.18668 h 40.42605 v 112.57279 a 4.1871039,4.1871039 0 0 0 4.1867,4.18668 h 25.72358 a 4.1871039,4.1871039 0 0 0 4.18669,-4.18668 V 360.52885 h 40.82834 a 4.1871039,4.1871039 0 0 0 4.18669,-4.18668 v -22.70786 a 4.1871039,4.1871039 0 0 0 -4.18669,-4.18668 z m 170.41445,39.78986 c -14.53903,0 -26.44314,2.92842 -34.9997,8.98339 -8.55657,6.05499 -13.39904,15.46339 -13.39904,26.55273 0,10.14207 4.15174,17.64997 10.11347,22.41349 5.96172,4.76354 13.36736,7.07501 20.41663,8.78552 7.04927,1.71047 13.87279,2.83119 18.40179,4.40745 2.2645,0.78814 3.88538,1.69295 4.70184,2.45968 0.81648,0.76674 1.02705,1.1578 1.02705,2.32722 0,1.62928 -0.48742,2.52831 -2.58396,3.72385 -2.09652,1.19554 -5.86888,2.1375 -10.91319,2.1375 -8.67313,0 -21.3125,-2.53247 -31.02726,-6.34217 a 4.1871039,4.1871039 0 0 0 -5.53263,2.67555 l -5.82866,19.0903 a 4.1871039,4.1871039 0 0 0 2.41388,5.09599 c 11.85189,4.86773 26.52154,7.74863 40.37698,7.74863 14.06842,0 25.65511,-3.00256 33.9743,-9.09949 8.31917,-6.09693 13.01633,-15.46459 13.01633,-26.43664 0,-10.19804 -4.17635,-17.79952 -10.17232,-22.69804 -5.99599,-4.89854 -13.47394,-7.37554 -20.61289,-9.19273 -7.13895,-1.8172 -14.0658,-2.98247 -18.71087,-4.52522 -2.32256,-0.77135 -4.01675,-1.65485 -4.84086,-2.36808 -0.8241,-0.71324 -0.9273,-0.92063 -0.9273,-1.81042 0,-1.43277 0.37354,-2.18557 2.65593,-3.36244 2.28239,-1.17685 6.43802,-2.0966 12.04817,-2.0966 7.48019,0 16.84439,1.53656 25.56495,4.05585 a 4.1871039,4.1871039 0 0 0 5.20392,-2.92741 l 5.22518,-19.29309 a 4.1871039,4.1871039 0 0 0 -2.63957,-5.03875 c -9.62776,-3.4232 -21.4426,-5.26607 -32.95217,-5.26607 z" /></svg>
