<?xml version="1.0" encoding="UTF-8" standalone="no"?>
<!-- Uploaded to: SVG Repo, www.svgrepo.com, Generator: SVG Repo Mixer Tools -->

<svg
   fill="#000000"
   version="1.1"
   id="Capa_1"
   width="500"
   height="500"
   viewBox="0 0 51.64125 51.641875"
   xml:space="preserve"
   sodipodi:docname="msi.svg"
   inkscape:version="1.3.2 (091e20ef0f, 2023-11-25, custom)"
   xmlns:inkscape="http://www.inkscape.org/namespaces/inkscape"
   xmlns:sodipodi="http://sodipodi.sourceforge.net/DTD/sodipodi-0.dtd"
   xmlns:xlink="http://www.w3.org/1999/xlink"
   xmlns="http://www.w3.org/2000/svg"
   xmlns:svg="http://www.w3.org/2000/svg"><defs
   id="defs1"><linearGradient
     id="linearGradient11"
     inkscape:collect="always"><stop
       style="stop-color:#f42a85;stop-opacity:1;"
       offset="0"
       id="stop11" /><stop
       style="stop-color:#8041ff;stop-opacity:1;"
       offset="0.47206783"
       id="stop1" /><stop
       style="stop-color:#f77cba;stop-opacity:1;"
       offset="1"
       id="stop12" /></linearGradient><inkscape:path-effect
     effect="offset"
     id="path-effect7"
     is_visible="true"
     lpeversion="1.2"
     linejoin_type="miter"
     unit="mm"
     offset="-6.5"
     miter_limit="4"
     attempt_force_join="false"
     update_on_knot_move="true" /><inkscape:path-effect
     effect="offset"
     id="path-effect5"
     is_visible="true"
     lpeversion="1.2"
     linejoin_type="miter"
     unit="mm"
     offset="-6.5"
     miter_limit="4"
     attempt_force_join="false"
     update_on_knot_move="true" /><inkscape:path-effect
     effect="offset"
     id="path-effect2"
     is_visible="true"
     lpeversion="1.2"
     linejoin_type="miter"
     unit="mm"
     offset="-6.5"
     miter_limit="4"
     attempt_force_join="false"
     update_on_knot_move="true" /><linearGradient
     id="swatch61"
     inkscape:swatch="solid"><stop
       style="stop-color:#5090d0;stop-opacity:1;"
       offset="0"
       id="stop61" /></linearGradient><linearGradient
     id="swatch30"
     inkscape:swatch="solid"><stop
       style="stop-color:#f9f9f9;stop-opacity:1;"
       offset="0"
       id="stop30" /></linearGradient><inkscape:perspective
     sodipodi:type="inkscape:persp3d"
     inkscape:vp_x="44.06818 : 315.96746 : 1"
     inkscape:vp_y="0 : 1000 : 0"
     inkscape:vp_z="480.74134 : 298.68846 : 1"
     inkscape:persp3d-origin="250 : 166.66667 : 1"
     id="perspective17" /><inkscape:perspective
     sodipodi:type="inkscape:persp3d"
     inkscape:vp_x="44.06818 : 315.96746 : 1"
     inkscape:vp_y="0 : 1000 : 0"
     inkscape:vp_z="480.74134 : 298.68846 : 1"
     inkscape:persp3d-origin="250 : 166.66667 : 1"
     id="perspective17-7" /><inkscape:perspective
     sodipodi:type="inkscape:persp3d"
     inkscape:vp_x="44.06818 : 315.96746 : 1"
     inkscape:vp_y="0 : 1000 : 0"
     inkscape:vp_z="480.74134 : 298.68846 : 1"
     inkscape:persp3d-origin="250 : 166.66667 : 1"
     id="perspective17-9" /><inkscape:perspective
     sodipodi:type="inkscape:persp3d"
     inkscape:vp_x="44.06818 : 315.96746 : 1"
     inkscape:vp_y="0 : 1000 : 0"
     inkscape:vp_z="480.74134 : 298.68846 : 1"
     inkscape:persp3d-origin="250 : 166.66667 : 1"
     id="perspective17-5" /><inkscape:perspective
     sodipodi:type="inkscape:persp3d"
     inkscape:vp_x="44.06818 : 315.96746 : 1"
     inkscape:vp_y="0 : 1000 : 0"
     inkscape:vp_z="480.74134 : 298.68846 : 1"
     inkscape:persp3d-origin="250 : 166.66667 : 1"
     id="perspective17-2" /><linearGradient
     inkscape:collect="always"
     xlink:href="#linearGradient11"
     id="linearGradient12"
     x1="-129.52422"
     y1="-26.785221"
     x2="729.98688"
     y2="581.50922"
     gradientUnits="userSpaceOnUse"
     gradientTransform="matrix(0.04506651,0,0,0.04506651,26.33777,26.733772)" /></defs><sodipodi:namedview
   id="namedview1"
   pagecolor="#505050"
   bordercolor="#eeeeee"
   borderopacity="1"
   inkscape:showpageshadow="0"
   inkscape:pageopacity="0"
   inkscape:pagecheckerboard="0"
   inkscape:deskcolor="#505050"
   inkscape:zoom="0.834386"
   inkscape:cx="272.65558"
   inkscape:cy="306.21319"
   inkscape:window-width="1352"
   inkscape:window-height="734"
   inkscape:window-x="4"
   inkscape:window-y="24"
   inkscape:window-maximized="1"
   inkscape:current-layer="Capa_1" />

<path
   id="path1-2"
   style="fill:#fdffbd;fill-opacity:1;stroke:none;stroke-width:0.642978;stroke-opacity:1"
   d="M 26.111514 2.3658434 C 25.973413 2.3705012 25.836234 2.4048347 25.709474 2.4681185 L 3.6017083 13.975986 C 3.277408 14.139181 3.0726957 14.470584 3.0707653 14.832313 C 3.0707653 14.838013 3.0733877 14.843301 3.0733877 14.848451 C 3.0341367 14.955751 3.1121564 15.134078 3.0064146 15.186947 L 3.1345107 22.880982 C 3.1364407 23.234356 3.3314676 23.558154 3.6422552 23.725205 L 8.3574005 26.1905 L 3.6017083 28.666082 C 3.2774083 28.829278 3.0726957 29.160479 3.0707653 29.522208 C 3.0707653 29.527908 3.0735894 29.533146 3.0735894 29.538346 C 3.0343386 29.645644 3.1123572 29.823972 3.0066164 29.876842 L 3.1345107 37.571078 C 3.1364407 37.924454 3.3314678 38.248252 3.6422552 38.415301 L 23.497951 48.796529 L 23.497951 40.503973 L 23.497951 39.283127 L 23.497951 38.176256 L 6.1626208 29.535925 L 10.461202 27.29031 L 23.497951 34.106433 L 23.497951 27.683676 L 27.770509 27.051467 L 27.770509 26.793862 L 33.734742 23.465584 L 33.734742 26.168915 L 35.232357 25.947218 L 38.488216 25.466707 L 38.488216 25.499991 L 41.946002 24.981757 L 41.946002 18.883578 L 47.543094 15.760253 L 47.543094 22.374044 L 43.029473 24.819166 L 48.633222 23.979178 L 48.967078 23.798432 C 49.27851 23.629454 49.473612 23.303713 49.473612 22.950981 L 49.473612 14.146243 C 49.473612 14.137943 49.470183 14.130229 49.470183 14.121229 C 49.469539 14.114129 49.4722 14.107546 49.4722 14.099846 C 49.471 14.072226 49.459808 14.047154 49.457878 14.020164 C 49.449578 13.967484 49.443901 13.914992 49.427821 13.86423 C 49.416241 13.82889 49.401257 13.797223 49.386467 13.763165 C 49.366517 13.718185 49.346715 13.673978 49.319695 13.63285 C 49.299755 13.60073 49.275927 13.571835 49.252117 13.542275 C 49.221877 13.505015 49.19032 13.470344 49.15428 13.437579 C 49.12597 13.411879 49.095673 13.388658 49.063503 13.366168 C 49.042913 13.352028 49.025515 13.332206 49.002985 13.319368 C 48.982395 13.306508 48.958744 13.301239 48.936214 13.290319 C 48.917554 13.280619 48.902627 13.26719 48.883967 13.25885 L 26.519001 2.4410872 C 26.388701 2.386155 26.249615 2.3611856 26.111514 2.3658434 z M 26.178487 4.3897611 L 46.278877 14.252149 L 41.848569 16.725512 L 21.724577 6.7164696 L 26.178487 4.3897611 z M 13.844753 10.832892 L 32.800549 21.776935 L 26.794962 25.129824 L 6.1626208 14.845829 L 13.844753 10.832892 z M 41.494136 30.79288 L 40.107471 31.001868 L 40.107471 31.902373 L 41.494136 30.79288 z M 32.808618 32.048827 L 29.17775 32.586023 L 29.17775 34.514928 L 32.808618 32.548704 L 32.808618 32.048827 z M 40.107471 42.123027 L 40.107471 43.286381 L 42.255652 42.123027 L 40.107471 42.123027 z M 23.665787 48.88428 L 25.623135 49.907636 C 25.766626 49.984096 25.923851 50.02262 26.080852 50.02262 L 26.082667 50.02262 C 26.148947 50.0978 26.222867 50.168635 26.311021 50.22132 C 26.462876 50.31192 26.634053 50.357283 26.805855 50.357283 C 26.964145 50.357283 27.121128 50.318389 27.263975 50.241291 L 28.461421 49.592742 L 23.665787 48.88428 z " /><path
   id="polygon1"
   style="opacity:1;fill:url(#linearGradient12);fill-opacity:1;stroke-width:0.0450665"
   d="m 49.411859,26.733794 -12.144287,1.821613 v 8.986783 h 12.144287 z m -13.763525,2.023987 -9.310559,1.376437 v 7.529373 h 9.310559 z m -9.310559,10.525048 v 7.124625 l 9.310559,1.376316 v -8.500941 z m 10.929797,0 v 8.703316 l 12.144287,1.821733 V 39.282829 Z" /></svg>
