<?xml version="1.0" encoding="UTF-8" standalone="no"?>
<!-- Uploaded to: SVG Repo, www.svgrepo.com, Generator: SVG Repo Mixer Tools -->

<svg
   fill="#000000"
   version="1.1"
   id="Capa_1"
   width="500"
   height="500"
   viewBox="0 0 51.64125 51.641875"
   xml:space="preserve"
   sodipodi:docname="mtl.svg"
   inkscape:version="1.3.2 (091e20ef0f, 2023-11-25, custom)"
   xmlns:inkscape="http://www.inkscape.org/namespaces/inkscape"
   xmlns:sodipodi="http://sodipodi.sourceforge.net/DTD/sodipodi-0.dtd"
   xmlns="http://www.w3.org/2000/svg"
   xmlns:svg="http://www.w3.org/2000/svg"><defs
   id="defs1"><linearGradient
     id="swatch61"
     inkscape:swatch="solid"><stop
       style="stop-color:#5090d0;stop-opacity:1;"
       offset="0"
       id="stop61" /></linearGradient><linearGradient
     id="swatch30"
     inkscape:swatch="solid"><stop
       style="stop-color:#f9f9f9;stop-opacity:1;"
       offset="0"
       id="stop30" /></linearGradient><inkscape:perspective
     sodipodi:type="inkscape:persp3d"
     inkscape:vp_x="44.06818 : 315.96746 : 1"
     inkscape:vp_y="0 : 1000 : 0"
     inkscape:vp_z="480.74134 : 298.68846 : 1"
     inkscape:persp3d-origin="250 : 166.66667 : 1"
     id="perspective17" /></defs><sodipodi:namedview
   id="namedview1"
   pagecolor="#505050"
   bordercolor="#eeeeee"
   borderopacity="1"
   inkscape:showpageshadow="0"
   inkscape:pageopacity="0"
   inkscape:pagecheckerboard="0"
   inkscape:deskcolor="#505050"
   inkscape:zoom="0.834386"
   inkscape:cx="144.41757"
   inkscape:cy="278.64801"
   inkscape:window-width="1362"
   inkscape:window-height="744"
   inkscape:window-x="0"
   inkscape:window-y="20"
   inkscape:window-maximized="1"
   inkscape:current-layer="Capa_1"
   showgrid="false" />
<path
   id="rect53-0"
   style="fill:none;fill-opacity:0.313725;fill-rule:nonzero;stroke:#ffb839;stroke-width:2.27867;stroke-linecap:butt;stroke-linejoin:round;stroke-dasharray:none;stroke-opacity:1;paint-order:markers fill stroke"
   d="m 9.4714057,3.9687238 c -0.1703097,0 -0.3277443,0.061079 -0.4665925,0.159767 H 4.019355 c -0.6169054,0 -1.113528,0.5539793 -1.113528,1.2420274 V 20.02975 c 0,0.688049 0.4966226,1.241826 1.113528,1.241826 h 4.4815464 v 25.208698 c 0,0.694129 0.4328692,1.252921 0.9705043,1.252921 H 44.761769 c 0.537635,0 0.970302,-0.558792 0.970302,-1.252921 V 5.2216444 c 0,-0.6941286 -0.432667,-1.2529206 -0.970302,-1.2529206 z" /><g
   id="g1"
   transform="matrix(0.49490021,0,0,0.4941683,5.4797001,6.4749142)"
   style="display:inline;fill:#ffb839;fill-opacity:1;stroke:none;stroke-opacity:1">
	<path
   d="m 32.726034,41.15492 0.116719,25.086331 c 0.0018,0.32259 0.179477,0.6182 0.46277,0.770696 L 53.34186,77.503149 c 0.130795,0.0698 0.273907,0.104989 0.417019,0.104989 5.87e-4,0 0.0011,0 0.0018,0 0.06041,0.06862 0.127863,0.133141 0.208217,0.181236 0.138421,0.0827 0.294436,0.124344 0.451039,0.124344 0.144286,0 0.287398,-0.03578 0.417607,-0.106161 L 74.620493,67.078811 c 0.283878,-0.154256 0.461596,-0.451625 0.461596,-0.773629 V 40.204747 c 0,-0.0076 -0.0029,-0.01467 -0.0029,-0.02288 -5.87e-4,-0.0064 0.0018,-0.01232 0.0018,-0.01936 -0.0011,-0.02522 -0.01115,-0.0481 -0.0129,-0.07273 -0.0076,-0.0481 -0.0129,-0.09619 -0.02757,-0.142526 -0.01056,-0.03226 -0.02405,-0.061 -0.03754,-0.09209 -0.01818,-0.04106 -0.03637,-0.08153 -0.061,-0.119065 -0.01818,-0.02932 -0.03989,-0.05572 -0.06158,-0.0827 -0.02757,-0.03401 -0.05631,-0.06569 -0.08915,-0.0956 -0.0258,-0.02346 -0.05337,-0.04458 -0.0827,-0.0651 -0.01877,-0.0129 -0.0346,-0.03109 -0.05514,-0.04282 -0.01877,-0.01173 -0.04047,-0.01642 -0.061,-0.02639 -0.01701,-0.0088 -0.0305,-0.02111 -0.04751,-0.02874 l -20.386565,-9.87534 c -0.237543,-0.100297 -0.506758,-0.09091 -0.73785,0.02463 L 33.268571,40.049317 c -0.29561,0.148978 -0.482125,0.451626 -0.483884,0.78184 0,0.0053 0.0024,0.01 0.0024,0.01467 -0.03578,0.09795 -0.06158,0.201179 -0.061,0.309099 z M 72.169951,40.301524 54.409924,50.23142 35.602947,40.843474 53.848032,31.29834 Z M 55.299099,75.557054 V 51.750523 L 73.322476,41.678101 v 24.100381 z"
   id="path1"
   style="fill:#ffb839;fill-opacity:1;stroke:none;stroke-width:0.586526;stroke-opacity:1" />
</g>
</svg>
