<?xml version="1.0" encoding="UTF-8" standalone="no"?>
<!-- Uploaded to: SVG Repo, www.svgrepo.com, Generator: SVG Repo Mixer Tools -->

<svg
   fill="#000000"
   version="1.1"
   id="Capa_1"
   width="500"
   height="500"
   viewBox="0 0 51.64125 51.641875"
   xml:space="preserve"
   sodipodi:docname="mtl.svg"
   inkscape:version="1.3.2 (091e20ef0f, 2023-11-25, custom)"
   xmlns:inkscape="http://www.inkscape.org/namespaces/inkscape"
   xmlns:sodipodi="http://sodipodi.sourceforge.net/DTD/sodipodi-0.dtd"
   xmlns:xlink="http://www.w3.org/1999/xlink"
   xmlns="http://www.w3.org/2000/svg"
   xmlns:svg="http://www.w3.org/2000/svg"><defs
   id="defs1"><linearGradient
     id="linearGradient3"
     inkscape:collect="always"><stop
       style="stop-color:#ffcb29;stop-opacity:1;"
       offset="0"
       id="stop3" /><stop
       style="stop-color:#ff8029;stop-opacity:1;"
       offset="1"
       id="stop4" /></linearGradient><linearGradient
     id="swatch61"
     inkscape:swatch="solid"><stop
       style="stop-color:#5090d0;stop-opacity:1;"
       offset="0"
       id="stop61" /></linearGradient><linearGradient
     id="swatch30"
     inkscape:swatch="solid"><stop
       style="stop-color:#f9f9f9;stop-opacity:1;"
       offset="0"
       id="stop30" /></linearGradient><inkscape:perspective
     sodipodi:type="inkscape:persp3d"
     inkscape:vp_x="44.06818 : 315.96746 : 1"
     inkscape:vp_y="0 : 1000 : 0"
     inkscape:vp_z="480.74134 : 298.68846 : 1"
     inkscape:persp3d-origin="250 : 166.66667 : 1"
     id="perspective17" /><inkscape:perspective
     sodipodi:type="inkscape:persp3d"
     inkscape:vp_x="44.06818 : 315.96746 : 1"
     inkscape:vp_y="0 : 1000 : 0"
     inkscape:vp_z="480.74134 : 298.68846 : 1"
     inkscape:persp3d-origin="250 : 166.66667 : 1"
     id="perspective17-7" /><inkscape:perspective
     sodipodi:type="inkscape:persp3d"
     inkscape:vp_x="44.06818 : 315.96746 : 1"
     inkscape:vp_y="0 : 1000 : 0"
     inkscape:vp_z="480.74134 : 298.68846 : 1"
     inkscape:persp3d-origin="250 : 166.66667 : 1"
     id="perspective17-2" /><linearGradient
     inkscape:collect="always"
     xlink:href="#linearGradient3"
     id="linearGradient4"
     x1="-5.1550856"
     y1="4.901062"
     x2="56.890198"
     y2="51.785839"
     gradientUnits="userSpaceOnUse"
     gradientTransform="translate(0.74435942,-0.04613951)" /><linearGradient
     inkscape:collect="always"
     xlink:href="#linearGradient3"
     id="linearGradient6"
     x1="33.347469"
     y1="34.748856"
     x2="55.570492"
     y2="49.191864"
     gradientUnits="userSpaceOnUse"
     gradientTransform="matrix(1.0615215,0,0,1.0615215,-2.2091679,-2.4857009)" /></defs><sodipodi:namedview
   id="namedview1"
   pagecolor="#505050"
   bordercolor="#eeeeee"
   borderopacity="1"
   inkscape:showpageshadow="0"
   inkscape:pageopacity="0"
   inkscape:pagecheckerboard="0"
   inkscape:deskcolor="#505050"
   inkscape:zoom="0.834386"
   inkscape:cx="144.41757"
   inkscape:cy="278.64801"
   inkscape:window-width="1352"
   inkscape:window-height="734"
   inkscape:window-x="4"
   inkscape:window-y="24"
   inkscape:window-maximized="1"
   inkscape:current-layer="Capa_1"
   showgrid="false" />

<path
   id="path2"
   style="color:#000000;opacity:0.25130993;fill:url(#linearGradient4);stroke-linejoin:bevel;stroke-miterlimit:10;-inkscape-stroke:none"
   d="M 3.8244041,2.8425778 2.6935277,4.1608577 c 0.039509,0.2583018 0.099363,1.6079355 0.11337,3.2344759 0.014008,1.6265404 0.00506,3.6336774 -0.013717,5.6093964 -0.037568,3.951438 -0.1133701,7.683311 -0.1133701,8.285092 l 1.1445938,1.144593 h 4.4512875 v 25.318237 l 1.1443915,1.144593 H 46.650647 L 47.79504,47.752652 V 3.9869698 l -1.144393,-1.144392 z" /><path
   d="m 24.246467,28.099106 0.06131,13.159543 c 9.46e-4,0.169221 0.09428,0.32429 0.243115,0.404285 l 10.526033,5.503372 c 0.06871,0.03661 0.143897,0.05507 0.21908,0.05507 3.08e-4,0 5.78e-4,0 9.46e-4,0 0.03174,0.036 0.06717,0.06984 0.109386,0.09507 0.07273,0.04338 0.154681,0.06523 0.236953,0.06523 0.0758,0 0.150983,-0.01877 0.219387,-0.05569 L 46.255599,41.69801 c 0.149134,-0.08092 0.242498,-0.23691 0.242498,-0.405823 V 27.600673 c 0,-0.004 -0.0015,-0.0076 -0.0015,-0.01201 -3.09e-4,-0.0034 9.46e-4,-0.0065 9.46e-4,-0.01019 -5.79e-4,-0.01323 -0.0058,-0.02523 -0.0068,-0.03815 -0.004,-0.02523 -0.0068,-0.05045 -0.01448,-0.07476 -0.0055,-0.01692 -0.01263,-0.03199 -0.01972,-0.04831 -0.0096,-0.02154 -0.01911,-0.04277 -0.03205,-0.06246 -0.0096,-0.01538 -0.02095,-0.02922 -0.03236,-0.04338 -0.01449,-0.01784 -0.02958,-0.03446 -0.04683,-0.05015 -0.01356,-0.0123 -0.02804,-0.02339 -0.04345,-0.03415 -0.0099,-0.0068 -0.01817,-0.0163 -0.02897,-0.02246 -0.0099,-0.0062 -0.02126,-0.0086 -0.03205,-0.01384 -0.0089,-0.0046 -0.01602,-0.01107 -0.02496,-0.01507 l -10.710025,-5.18031 c -0.124793,-0.05261 -0.266224,-0.04768 -0.387628,0.01292 l -10.586721,5.51075 c -0.155297,0.07815 -0.253283,0.236909 -0.254207,0.410129 0,0.0028 0.0013,0.0052 0.0013,0.0076 -0.0188,0.05138 -0.03235,0.105537 -0.03205,0.162144 z m 20.721751,-0.447666 -9.33018,5.208928 -9.880193,-4.924637 9.585005,-5.007094 z M 36.105164,46.145443 V 33.657245 l 9.46853,-5.283694 v 12.642344 z"
   id="path1"
   style="display:inline;fill:url(#linearGradient6);fill-opacity:1;stroke:none;stroke-width:0.307902;stroke-opacity:1" /></svg>
