<?xml version="1.0" encoding="UTF-8" standalone="no"?>
<!-- Created with Inkscape (http://www.inkscape.org/) -->

<svg
   width="500"
   height="500"
   viewBox="0 0 500 500"
   version="1.1"
   id="svg1"
   inkscape:version="1.3.2 (091e20ef0f, 2023-11-25, custom)"
   sodipodi:docname="nextjs.svg"
   xml:space="preserve"
   xmlns:inkscape="http://www.inkscape.org/namespaces/inkscape"
   xmlns:sodipodi="http://sodipodi.sourceforge.net/DTD/sodipodi-0.dtd"
   xmlns="http://www.w3.org/2000/svg"
   xmlns:svg="http://www.w3.org/2000/svg"><sodipodi:namedview
     id="namedview1"
     pagecolor="#505050"
     bordercolor="#eeeeee"
     borderopacity="1"
     inkscape:showpageshadow="0"
     inkscape:pageopacity="0"
     inkscape:pagecheckerboard="0"
     inkscape:deskcolor="#505050"
     inkscape:document-units="px"
     inkscape:zoom="0.68158229"
     inkscape:cx="234.0143"
     inkscape:cy="198.80211"
     inkscape:window-width="1362"
     inkscape:window-height="744"
     inkscape:window-x="0"
     inkscape:window-y="20"
     inkscape:window-maximized="1"
     inkscape:current-layer="layer1"
     showguides="true"
     showgrid="false"><sodipodi:guide
       position="250.02518,350.60736"
       orientation="-0.99997769,0.0066803918"
       id="guide30"
       inkscape:locked="false" /><sodipodi:guide
       position="727.06956,247.62458"
       orientation="0,-1"
       id="guide53"
       inkscape:locked="false" /></sodipodi:namedview><defs
     id="defs1"><linearGradient
       id="swatch61"
       inkscape:swatch="solid"><stop
         style="stop-color:#5090d0;stop-opacity:1;"
         offset="0"
         id="stop61" /></linearGradient><linearGradient
       id="swatch30"
       inkscape:swatch="solid"><stop
         style="stop-color:#f9f9f9;stop-opacity:1;"
         offset="0"
         id="stop30" /></linearGradient><inkscape:perspective
       sodipodi:type="inkscape:persp3d"
       inkscape:vp_x="44.06818 : 315.96746 : 1"
       inkscape:vp_y="0 : 1000 : 0"
       inkscape:vp_z="480.74134 : 298.68846 : 1"
       inkscape:persp3d-origin="250 : 166.66667 : 1"
       id="perspective17" /><clipPath
       id="clip0"><rect
         width="24"
         height="24"
         fill="white"
         id="rect1" /></clipPath></defs><g
     inkscape:label="Layer 1"
     inkscape:groupmode="layer"
     id="layer1"><g
       style="fill:#ffffff;fill-opacity:1"
       id="g5"
       transform="matrix(20.503429,0,0,20.3076,7.035744,6.9056271)"><path
         d="M 11.2141,0.00645944 C 11.1625,0.0111515 10.9982,0.0275738 10.8504,0.039304 7.44164,0.346635 4.24868,2.18593 2.22639,5.01291 1.10029,6.58476 0.380059,8.36775 0.107918,10.2563 0.0117302,10.9156 0,11.1103 0,12.0041 c 0,0.8939 0.0117302,1.0886 0.107918,1.7478 0.652199,4.5068 3.859242,8.2933 8.208802,9.6962 0.77888,0.251 1.6,0.4223 2.53368,0.5255 0.3637,0.0399 1.9355,0.0399 2.2992,0 1.6117,-0.1783 2.9771,-0.5771 4.3237,-1.2645 0.2065,-0.1056 0.2463,-0.1337 0.2182,-0.1572 -0.0188,-0.0141 -0.8985,-1.1941 -1.9543,-2.6205 L 13.8182,17.339 11.4135,13.7801 C 10.0903,11.8235 9.00176,10.2235 8.99238,10.2235 8.98299,10.2211 8.97361,11.8024 8.96891,13.7331 8.96188,17.1138 8.95953,17.2499 8.9173,17.3296 8.85631,17.4446 8.80938,17.4915 8.71085,17.5431 8.63578,17.5807 8.57009,17.5877 8.21584,17.5877 H 7.80997 L 7.70205,17.5197 C 7.63167,17.4751 7.58006,17.4164 7.54487,17.3484 L 7.4956,17.2428 7.50029,12.539 7.50733,7.83285 7.58006,7.74136 C 7.6176,7.69209 7.69736,7.62875 7.75367,7.59825 7.84985,7.55133 7.88739,7.54664 8.29325,7.54664 c 0.4786,0 0.55836,0.01876 0.6827,0.15483 0.03519,0.03754 1.33725,1.99883 2.89505,4.36133 1.5577,2.3624 3.6879,5.5882 4.7343,7.1718 l 1.9003,2.8786 0.0962,-0.0633 c 0.8516,-0.5537 1.7525,-1.342 2.4656,-2.1631 1.5179,-1.7431 2.4962,-3.8686 2.8247,-6.1349 C 23.9883,13.0927 24,12.898 24,12.0041 24,11.1103 23.9883,10.9156 23.8921,10.2563 23.2399,5.74957 20.0328,1.96306 15.6833,0.560125 14.9161,0.311445 14.0997,0.140184 13.1848,0.036958 12.9595,0.0134976 11.4088,-0.0123089 11.2141,0.00645944 Z M 16.1267,7.26511 c 0.1126,0.05631 0.2041,0.16422 0.2369,0.27683 0.0188,0.061 0.0235,1.3654 0.0188,4.30496 l -0.007,4.2182 -0.7437,-1.1402 -0.7461,-1.1401 v -3.0663 c 0,-1.98242 0.0094,-3.09679 0.0235,-3.15075 0.0375,-0.13138 0.1196,-0.2346 0.2322,-0.2956 0.0962,-0.04927 0.1314,-0.05396 0.4998,-0.05396 0.3472,0 0.4082,0.00469 0.4856,0.04692 z"
         fill="#000000"
         id="path1-6"
         clip-path="url(#clipPath2)"
         style="fill:#ffffff;fill-opacity:1" /></g></g></svg>
