<?xml version="1.0" encoding="UTF-8" standalone="no"?>
<!-- Created with Inkscape (http://www.inkscape.org/) -->

<svg
   width="500"
   height="500"
   viewBox="0 0 500 500"
   version="1.1"
   id="svg1"
   inkscape:version="1.3.2 (091e20ef0f, 2023-11-25, custom)"
   sodipodi:docname="npy.svg"
   xml:space="preserve"
   xmlns:inkscape="http://www.inkscape.org/namespaces/inkscape"
   xmlns:sodipodi="http://sodipodi.sourceforge.net/DTD/sodipodi-0.dtd"
   xmlns="http://www.w3.org/2000/svg"
   xmlns:svg="http://www.w3.org/2000/svg"><sodipodi:namedview
     id="namedview1"
     pagecolor="#505050"
     bordercolor="#eeeeee"
     borderopacity="1"
     inkscape:showpageshadow="0"
     inkscape:pageopacity="0"
     inkscape:pagecheckerboard="0"
     inkscape:deskcolor="#505050"
     inkscape:document-units="px"
     inkscape:zoom="0.96390292"
     inkscape:cx="320.5717"
     inkscape:cy="261.95584"
     inkscape:window-width="1362"
     inkscape:window-height="744"
     inkscape:window-x="0"
     inkscape:window-y="20"
     inkscape:window-maximized="1"
     inkscape:current-layer="layer1"
     showguides="true"><sodipodi:guide
       position="250.02518,350.60736"
       orientation="-0.99997769,0.0066803918"
       id="guide30"
       inkscape:locked="false" /><sodipodi:guide
       position="66.396728,247.89992"
       orientation="0,-1"
       id="guide53"
       inkscape:locked="false" /></sodipodi:namedview><defs
     id="defs1"><linearGradient
       id="swatch61"
       inkscape:swatch="solid"><stop
         style="stop-color:#5090d0;stop-opacity:1;"
         offset="0"
         id="stop61" /></linearGradient><linearGradient
       id="swatch30"
       inkscape:swatch="solid"><stop
         style="stop-color:#f9f9f9;stop-opacity:1;"
         offset="0"
         id="stop30" /></linearGradient><inkscape:perspective
       sodipodi:type="inkscape:persp3d"
       inkscape:vp_x="44.06818 : 315.96746 : 1"
       inkscape:vp_y="0 : 1000 : 0"
       inkscape:vp_z="480.74134 : 298.68846 : 1"
       inkscape:persp3d-origin="250 : 166.66667 : 1"
       id="perspective17" /><inkscape:perspective
       sodipodi:type="inkscape:persp3d"
       inkscape:vp_x="44.06818 : 315.96746 : 1"
       inkscape:vp_y="0 : 1000 : 0"
       inkscape:vp_z="480.74134 : 298.68846 : 1"
       inkscape:persp3d-origin="250 : 166.66667 : 1"
       id="perspective17-3" /></defs><g
     inkscape:label="Layer 1"
     inkscape:groupmode="layer"
     id="layer1"><path
       id="path1"
       style="opacity:1;fill:#91d7e5;fill-opacity:1;stroke:none;stroke-width:2.58365;stroke-opacity:1"
       d="m 262.30746,13.748978 c -0.55494,0.01872 -1.10602,0.155894 -1.61538,0.410215 l -88.83387,46.24197 c -1.30313,0.655769 -2.12541,1.988702 -2.13317,3.442207 0,0.02324 0.009,0.04308 0.009,0.06383 -0.15765,0.431168 -0.2706,0.885089 -0.26801,1.360131 l 0.0784,16.634921 -15.41521,-7.455086 C 153.60567,74.22643 153.0469,74.1258 152.492,74.144518 c -0.55494,0.01859 -1.10602,0.155899 -1.61537,0.410205 L 62.042945,120.79666 c -1.30312,0.65576 -2.125381,1.98871 -2.133137,3.44221 0,0.0232 0.01077,0.0431 0.01077,0.0637 -0.157646,0.43115 -0.272434,0.88508 -0.269839,1.36012 l 0.515965,110.42429 c 0.0082,1.41995 0.789519,2.7199 2.038334,3.39117 l 17.344159,9.06862 -19.320513,10.0568 c -1.303106,0.65578 -2.12538,1.98691 -2.133137,3.4404 0,0.0232 0.01077,0.0431 0.01077,0.0638 -0.157647,0.43115 -0.272421,0.88691 -0.269853,1.36195 l 0.515991,110.42246 c 0.0082,1.41995 0.791346,2.72172 2.040146,3.39299 l 88.325229,46.17995 c 0.57658,0.30723 1.20692,0.46129 1.83781,0.46129 h 0.008 c 0.26632,0.30206 0.56285,0.58685 0.91706,0.79856 0.61021,0.36401 1.2988,0.54697 1.98912,0.54697 0.63607,0 1.26746,-0.157 1.84145,-0.46674 l 17.59394,-9.52809 0.0748,15.96035 c 0.008,1.41995 0.79138,2.71991 2.04019,3.39118 l 88.32521,46.17996 c 0.57658,0.30723 1.20692,0.46311 1.83779,0.46311 h 0.008 c 0.26631,0.30207 0.56466,0.58501 0.9189,0.79673 0.61019,0.36403 1.29696,0.54697 1.98728,0.54697 0.63604,0 1.26746,-0.15701 1.84143,-0.46674 l 87.20759,-47.22468 c 1.25141,-0.67899 2.0347,-1.98838 2.0347,-3.40576 v -20.98326 l 16.20468,8.47243 c 0.57654,0.30722 1.20691,0.4631 1.83777,0.4631 h 0.008 c 0.26629,0.30201 0.56282,0.58501 0.91706,0.79672 0.61019,0.36403 1.29878,0.54698 1.98911,0.54698 0.63606,0 1.26744,-0.15701 1.84145,-0.46674 l 87.20706,-47.22476 c 1.25142,-0.67894 2.03471,-1.98837 2.03471,-3.40575 V 254.82951 c 0,-0.0337 -0.0121,-0.0642 -0.0121,-0.10022 -0.002,-0.0283 0.008,-0.0548 0.008,-0.0857 -0.006,-0.11088 -0.0486,-0.21061 -0.0566,-0.31905 -0.0337,-0.21169 -0.0576,-0.42323 -0.12215,-0.62717 -0.0465,-0.14199 -0.10464,-0.26976 -0.16409,-0.40659 -0.0803,-0.18072 -0.16123,-0.35803 -0.26983,-0.52326 -0.0802,-0.12904 -0.17601,-0.24588 -0.27166,-0.36464 -0.12146,-0.14982 -0.24719,-0.28948 -0.39198,-0.42114 -0.11363,-0.1034 -0.23535,-0.1959 -0.36463,-0.28627 -0.0829,-0.0569 -0.15382,-0.13623 -0.24432,-0.18779 -0.0829,-0.0516 -0.17752,-0.0727 -0.26802,-0.11674 -0.0749,-0.0387 -0.13459,-0.0923 -0.20966,-0.1258 l -17.94764,-8.6821 15.05055,-8.14973 c 1.25144,-0.679 2.0347,-1.98658 2.0347,-3.40394 V 116.14205 c 0,-0.0336 -0.0121,-0.0641 -0.0121,-0.10022 -0.002,-0.0282 0.008,-0.0548 0.008,-0.0857 -0.007,-0.11099 -0.0486,-0.21246 -0.0565,-0.32089 -0.0336,-0.2117 -0.0576,-0.42324 -0.12215,-0.62719 -0.0465,-0.14198 -0.10645,-0.26793 -0.16592,-0.40474 -0.0802,-0.18074 -0.15941,-0.35985 -0.26802,-0.52509 -0.0801,-0.12904 -0.176,-0.24406 -0.27165,-0.36283 -0.12148,-0.14965 -0.24904,-0.28948 -0.39382,-0.42114 -0.11364,-0.1034 -0.23536,-0.19589 -0.36462,-0.28626 -0.0829,-0.0569 -0.15206,-0.13798 -0.24251,-0.1896 -0.0829,-0.0516 -0.17752,-0.071 -0.26802,-0.11486 -0.0749,-0.0387 -0.13457,-0.0942 -0.20965,-0.12756 L 375.75257,69.106964 c -0.52358,-0.220736 -1.08231,-0.319552 -1.63724,-0.300823 -0.55491,0.01871 -1.10599,0.155887 -1.61535,0.410227 l -16.31588,8.49248 V 61.084845 c 0,-0.03367 -0.0121,-0.06406 -0.0121,-0.100222 -0.002,-0.02823 0.008,-0.05295 0.008,-0.08378 -0.007,-0.110992 -0.0506,-0.212438 -0.0584,-0.320867 -0.0334,-0.211701 -0.0558,-0.423231 -0.12039,-0.627177 -0.0465,-0.141977 -0.10645,-0.267934 -0.16592,-0.404752 -0.0803,-0.180727 -0.15941,-0.359856 -0.26801,-0.525085 -0.0802,-0.129041 -0.176,-0.245882 -0.27165,-0.36464 -0.12147,-0.149663 -0.24902,-0.287672 -0.39382,-0.419331 -0.11377,-0.103283 -0.23537,-0.197711 -0.36463,-0.28808 -0.0829,-0.05691 -0.15206,-0.136229 -0.2425,-0.18779 -0.0829,-0.05159 -0.17934,-0.07267 -0.26982,-0.116751 -0.0749,-0.03866 -0.13283,-0.09229 -0.20785,-0.125799 L 263.94578,14.051683 c -0.5236,-0.220745 -1.08233,-0.32138 -1.63726,-0.302657 z m 0.26982,8.133331 80.76803,39.629191 -78.2921,43.70954 -82.90483,-41.322968 z m 85.84749,45.689522 V 81.74727 l -64.76028,33.71107 c -1.30312,0.65577 -2.1254,1.98687 -2.13316,3.44038 0,0.0232 0.0113,0.045 0.0113,0.0655 -0.15766,0.43114 -0.27242,0.88506 -0.26983,1.36011 l 0.10397,22.04256 -12.40328,-5.99836 v -24.46187 z m 25.9588,9.365823 80.76802,39.629196 -78.29027,43.70954 -82.90665,-41.32297 z m -221.62162,5.340154 80.76802,39.629222 -78.29028,43.7077 -82.90667,-41.32296 z M 460.23287,122.62718 V 228.71042 L 380.7812,271.75266 V 166.9639 Z m -221.62161,5.33836 v 19.54112 l -64.79129,33.72747 c -1.30311,0.65577 -2.12537,1.98688 -2.13316,3.4404 0,0.0232 0.0113,0.045 0.0113,0.0655 -0.15767,0.43116 -0.2706,0.88507 -0.26801,1.36012 l 0.39198,84.13365 -12.66217,6.8589 V 172.30216 Z m 25.92963,14.74791 80.76618,39.63102 -78.29028,43.70771 -82.90482,-41.32297 z m 85.84745,45.68954 v 106.08323 l -79.45165,43.04223 V 232.7397 Z m 91.79296,58.90412 16.20101,7.94918 -78.29028,43.70772 -21.94776,-10.93922 V 272.9961 l 14.0077,7.32382 c 0.57658,0.30723 1.20873,0.46127 1.83961,0.46127 h 0.008 c 0.26631,0.30206 0.56285,0.58686 0.91707,0.79857 0.61018,0.36402 1.29879,0.54694 1.98911,0.54694 0.63607,0 1.26565,-0.15685 1.83962,-0.46674 z m -354.179633,5.65924 62.530513,32.69191 c 0.57657,0.30723 1.20691,0.46309 1.83778,0.46309 h 0.008 c 0.26631,0.30207 0.56285,0.58503 0.91706,0.79674 0.6102,0.36402 1.29879,0.54697 1.98913,0.54697 0.63605,0 1.26744,-0.15703 1.84143,-0.46674 l 14.73698,-7.98018 0.0656,14.07333 -18.50189,10.33028 -82.906669,-41.32297 z m 375.461913,8.34847 v 106.08324 l -79.45166,43.04405 V 305.65154 Z m -288.63719,39.0403 14.95759,7.82157 -14.92843,7.77048 c -1.30311,0.65577 -2.12538,1.98876 -2.13316,3.44221 0,0.0232 0.0113,0.0431 0.0113,0.0637 -0.15767,0.43116 -0.27059,0.88508 -0.26802,1.36012 l 0.39928,85.67791 -15.51913,8.40681 V 310.1092 Z m 160.31997,11.20908 11.19629,5.49332 -78.29027,43.7077 -82.90483,-41.32295 13.09792,-6.84249 64.06381,33.49593 c 0.57656,0.30723 1.20695,0.46127 1.83777,0.46127 h 0.008 c 0.26631,0.30207 0.56466,0.58686 0.91891,0.79857 0.61018,0.36402 1.29697,0.54697 1.98729,0.54697 0.63605,0 1.26745,-0.15685 1.84142,-0.46676 z m 16.27757,11.55183 v 106.08324 l -79.45165,43.04407 V 367.45275 Z" /></g></svg>
