<?xml version="1.0" encoding="UTF-8" standalone="no"?>
<!-- Created with Inkscape (http://www.inkscape.org/) -->

<svg
   width="500"
   height="500"
   viewBox="0 0 500 500"
   version="1.1"
   id="svg1"
   inkscape:version="1.3.2 (091e20ef0f, 2023-11-25, custom)"
   sodipodi:docname="package.node.svg"
   xml:space="preserve"
   xmlns:inkscape="http://www.inkscape.org/namespaces/inkscape"
   xmlns:sodipodi="http://sodipodi.sourceforge.net/DTD/sodipodi-0.dtd"
   xmlns="http://www.w3.org/2000/svg"
   xmlns:svg="http://www.w3.org/2000/svg"><sodipodi:namedview
     id="namedview1"
     pagecolor="#505050"
     bordercolor="#eeeeee"
     borderopacity="1"
     inkscape:showpageshadow="0"
     inkscape:pageopacity="0"
     inkscape:pagecheckerboard="0"
     inkscape:deskcolor="#505050"
     inkscape:document-units="px"
     inkscape:zoom="0.68158229"
     inkscape:cx="388.06759"
     inkscape:cy="304.43866"
     inkscape:window-width="1362"
     inkscape:window-height="744"
     inkscape:window-x="0"
     inkscape:window-y="20"
     inkscape:window-maximized="1"
     inkscape:current-layer="layer1"
     showguides="true"><sodipodi:guide
       position="250.02518,350.60736"
       orientation="-0.99997769,0.0066803918"
       id="guide30"
       inkscape:locked="false" /><sodipodi:guide
       position="66.396728,247.89992"
       orientation="0,-1"
       id="guide53"
       inkscape:locked="false" /></sodipodi:namedview><defs
     id="defs1"><linearGradient
       id="swatch61"
       inkscape:swatch="solid"><stop
         style="stop-color:#5090d0;stop-opacity:1;"
         offset="0"
         id="stop61" /></linearGradient><linearGradient
       id="swatch30"
       inkscape:swatch="solid"><stop
         style="stop-color:#f9f9f9;stop-opacity:1;"
         offset="0"
         id="stop30" /></linearGradient><inkscape:perspective
       sodipodi:type="inkscape:persp3d"
       inkscape:vp_x="44.06818 : 315.96746 : 1"
       inkscape:vp_y="0 : 1000 : 0"
       inkscape:vp_z="480.74134 : 298.68846 : 1"
       inkscape:persp3d-origin="250 : 166.66667 : 1"
       id="perspective17" /><inkscape:perspective
       sodipodi:type="inkscape:persp3d"
       inkscape:vp_x="44.06818 : 315.96746 : 1"
       inkscape:vp_y="0 : 1000 : 0"
       inkscape:vp_z="480.74134 : 298.68846 : 1"
       inkscape:persp3d-origin="250 : 166.66667 : 1"
       id="perspective17-2" /><inkscape:perspective
       sodipodi:type="inkscape:persp3d"
       inkscape:vp_x="44.06818 : 315.96746 : 1"
       inkscape:vp_y="0 : 1000 : 0"
       inkscape:vp_z="480.74134 : 298.68846 : 1"
       inkscape:persp3d-origin="250 : 166.66667 : 1"
       id="perspective17-7" /></defs><g
     inkscape:label="Layer 1"
     inkscape:groupmode="layer"
     id="layer1"><path
       sodipodi:type="star"
       style="display:none;fill:none;fill-opacity:0.316096;stroke:#4dc433;stroke-width:34.878;stroke-linejoin:bevel;stroke-dasharray:none;stroke-opacity:1;paint-order:markers fill stroke"
       id="path2"
       inkscape:flatsided="true"
       sodipodi:sides="6"
       sodipodi:cx="247.71011"
       sodipodi:cy="254.74055"
       sodipodi:r1="216.56355"
       sodipodi:r2="205.51959"
       sodipodi:arg1="0"
       sodipodi:arg2="0.52359878"
       inkscape:rounded="0"
       inkscape:randomized="0"
       d="m 464.27367,254.74055 -108.28178,187.54954 -216.56355,0 L 31.146561,254.74055 139.42834,67.191017 l 216.56355,0 z"
       transform="matrix(1.0346284,0,0,1.0346284,-5.2959647,-13.762959)" /><path
       d="M 225.73903,150.98889 V 270.2133 c 0,21.77492 -6.54144,39.0694 -19.6243,51.88345 -12.99327,12.81405 -26.61821,17.61471 -51.67611,24.26181 -11.60616,3.07876 -36.82589,5.13686 -48.56819,4.9109 -11.932088,-1.10304 -30.596912,-2.7031 -38.661693,-8.16923 l 14.04557,-22.82311 c 9.26501,0.94401 22.355433,3.66695 33.423313,1.45899 8.89649,-2.01718 25.21045,-7.09377 31.91401,-9.3688 9.39463,-3.18834 19.15437,-6.89298 25.51659,-12.98638 6.45183,-6.183 9.67774,-15.72633 9.67774,-28.62997 v -87.50292 h -57.25998 v -32.25915 z m 95.70224,160.48923 c 7.07908,0 12.76923,-1.12011 17.07045,-3.36033 4.39083,-2.24022 6.58624,-5.60055 6.58624,-10.08098 0,-3.0467 -0.85128,-5.60055 -2.55385,-7.66155 -1.70256,-2.061 -4.97328,-4.03239 -9.81215,-5.91417 -4.83887,-1.88179 -12.00757,-4.12201 -21.50609,-6.72066 -13.08287,-3.49474 -23.74631,-8.51283 -31.99031,-15.05427 -8.1544,-6.54143 -12.2316,-16.12956 -12.2316,-28.76439 0,-12.72444 5.28692,-23.25346 15.86075,-31.58707 10.66344,-8.33361 26.03134,-12.50042 46.10368,-12.50042 12.72444,0 23.79112,1.65776 33.20004,4.97328 9.49852,3.22592 17.69772,7.34792 24.59758,12.36601 l -16.93604,25.00083 c -5.91418,-3.67395 -12.27639,-6.58624 -19.08665,-8.73685 -6.81027,-2.24022 -13.66533,-3.36033 -20.56521,-3.36033 -13.62052,0 -20.43078,3.67395 -20.43078,11.02187 0,2.41944 0.85128,4.52525 2.55384,6.31742 1.79218,1.70257 5.1077,3.49474 9.94657,5.37652 4.83887,1.79217 11.91796,4.03239 21.23727,6.72066 9.2297,2.59864 17.24967,5.60053 24.05994,9.00567 6.89987,3.40513 12.23159,7.97518 15.99516,13.71013 3.76356,5.64536 5.64534,13.12769 5.64534,22.44699 0,10.39461 -3.0915,19.13147 -9.2745,26.21055 -6.183,6.98948 -14.3822,12.23159 -24.5976,15.72633 -10.21539,3.49474 -21.41647,5.24211 -33.60326,5.24211 -13.79975,0 -25.98653,-1.97139 -36.56036,-5.91417 -10.57383,-3.94279 -19.5795,-9.1401 -27.01702,-15.59193 l 21.37167,-23.92552 c 5.55574,4.30122 11.82835,7.88557 18.81784,10.75305 7.07908,2.86748 14.78544,4.30122 23.11905,4.30122 z"
       id="text2"
       style="-inkscape-font-specification:'FiraCode Nerd Font Mono Bold';display:none;fill:#4dc433;stroke-width:36.0858;stroke-linejoin:bevel;paint-order:markers fill stroke"
       aria-label="Js"
       sodipodi:nodetypes="cscsccccscsccccscsssccscsccccsscccccscssscccs" /><path
       id="path4"
       style="color:#000000;fill:#4dc433;stroke-linejoin:bevel;-inkscape-stroke:none;paint-order:markers fill stroke;fill-opacity:1"
       d="M 139.42682 49.751096 L 124.32667 58.470636 L 16.04315 246.02099 L 16.04315 263.46007 L 67.031415 351.77492 C 75.047685 345.35122 84.056686 337.42883 92.223506 333.46558 C 109.48234 325.09011 140.32498 317.41365 146.80417 315.21476 C 155.88436 312.13314 165.31653 308.55253 171.4658 302.66308 C 177.70169 296.68703 180.81963 287.46223 180.81963 274.99048 L 180.81963 190.41716 L 125.47631 190.41716 L 125.47631 159.23711 L 223.30167 159.23711 L 223.30167 274.47135 C 223.30167 295.51745 216.98036 312.2344 204.33539 324.61956 C 191.77701 337.00472 178.60837 341.64463 154.38917 348.06925 C 143.17147 351.04497 125.80213 353.25144 112.498 358.79925 C 103.11149 362.71342 92.136363 373.42481 83.254782 379.87415 L 124.32667 451.01042 L 139.42682 459.72808 L 355.99197 459.72808 L 371.09401 451.01042 L 479.37753 263.46007 L 479.37753 246.02099 L 371.09401 58.470636 L 355.99197 49.751096 L 139.42682 49.751096 z M 323.07707 196.78267 C 335.37562 196.78267 346.07113 198.38435 355.16513 201.5889 C 364.34573 204.70685 372.2706 208.69203 378.93952 213.54216 L 362.5708 237.70543 C 356.85457 234.15445 350.70597 231.34013 344.12365 229.2615 C 337.54133 227.09626 330.91453 226.01456 324.24559 226.01456 C 311.08096 226.01456 304.49968 229.56518 304.49968 236.66716 C 304.49968 239.00562 305.3214 241.03998 306.96697 242.77216 C 308.69917 244.41775 311.9044 246.15036 316.58131 247.96915 C 321.25822 249.70134 328.09948 251.86663 337.10687 254.46492 C 346.02765 256.97658 353.7798 259.87819 360.36212 263.16936 C 367.03105 266.46052 372.18523 270.87651 375.82284 276.41951 C 379.46043 281.87592 381.27845 289.1081 381.27845 298.11548 C 381.27845 308.16218 378.28955 316.60701 372.3135 323.44915 C 366.33745 330.20469 358.4126 335.27159 348.53911 338.64935 C 338.66564 342.02712 327.84107 343.71609 316.06217 343.71609 C 302.72431 343.71609 290.94521 341.81078 280.72529 337.99997 C 270.50537 334.18914 261.80056 329.1659 254.61197 322.93002 L 275.26779 299.80502 C 280.63758 303.96228 286.70076 307.42749 293.45631 310.199 C 300.29845 312.9705 307.74698 314.35584 315.80166 314.35584 C 322.64381 314.35584 328.14339 313.27225 332.30064 311.10701 C 336.54451 308.94177 338.66615 305.69477 338.66615 301.3643 C 338.66615 298.41958 337.84444 295.95066 336.19886 293.95864 C 334.55328 291.96662 331.39169 290.06132 326.71478 288.24252 C 322.03787 286.42371 315.10931 284.25843 305.92871 281.74675 C 293.28372 278.36898 282.97724 273.51843 275.00917 267.19594 C 267.1277 260.87345 263.18616 251.60691 263.18616 239.39497 C 263.18616 227.09642 268.29669 216.91899 278.51661 208.86431 C 288.82315 200.80963 303.67656 196.78267 323.07707 196.78267 z "
       transform="matrix(1.0346284,0,0,1.0346284,-5.2959647,-13.762959)" /></g></svg>
