<?xml version="1.0" encoding="UTF-8" standalone="no"?>
<!-- Created with Inkscape (http://www.inkscape.org/) -->

<svg
   width="500"
   height="500"
   viewBox="0 0 500 500"
   version="1.1"
   id="svg1"
   inkscape:version="1.3.2 (091e20ef0f, 2023-11-25, custom)"
   sodipodi:docname="pdf.svg"
   xml:space="preserve"
   xmlns:inkscape="http://www.inkscape.org/namespaces/inkscape"
   xmlns:sodipodi="http://sodipodi.sourceforge.net/DTD/sodipodi-0.dtd"
   xmlns="http://www.w3.org/2000/svg"
   xmlns:svg="http://www.w3.org/2000/svg"><sodipodi:namedview
     id="namedview1"
     pagecolor="#505050"
     bordercolor="#eeeeee"
     borderopacity="1"
     inkscape:showpageshadow="0"
     inkscape:pageopacity="0"
     inkscape:pagecheckerboard="0"
     inkscape:deskcolor="#505050"
     inkscape:document-units="px"
     inkscape:zoom="1"
     inkscape:cx="201"
     inkscape:cy="253.5"
     inkscape:window-width="1362"
     inkscape:window-height="744"
     inkscape:window-x="0"
     inkscape:window-y="20"
     inkscape:window-maximized="0"
     inkscape:current-layer="svg1"
     showguides="true"><sodipodi:guide
       position="250.02518,350.60736"
       orientation="-0.99997769,0.0066803918"
       id="guide30"
       inkscape:locked="false" /><sodipodi:guide
       position="66.396728,247.89992"
       orientation="0,-1"
       id="guide53"
       inkscape:locked="false" /><sodipodi:guide
       position="221.35979,127.71308"
       orientation="0,-1"
       id="guide5"
       inkscape:locked="false" /><sodipodi:guide
       position="96.959247,117.65127"
       orientation="1,0"
       id="guide6"
       inkscape:locked="false" /><sodipodi:guide
       position="400.64293,118.56598"
       orientation="1,0"
       id="guide7"
       inkscape:locked="false" /></sodipodi:namedview><defs
     id="defs1"><linearGradient
       id="swatch61"
       inkscape:swatch="solid"><stop
         style="stop-color:#5090d0;stop-opacity:1;"
         offset="0"
         id="stop61" /></linearGradient><linearGradient
       id="swatch30"
       inkscape:swatch="solid"><stop
         style="stop-color:#f9f9f9;stop-opacity:1;"
         offset="0"
         id="stop30" /></linearGradient><inkscape:perspective
       sodipodi:type="inkscape:persp3d"
       inkscape:vp_x="44.06818 : 315.96746 : 1"
       inkscape:vp_y="0 : 1000 : 0"
       inkscape:vp_z="480.74134 : 298.68846 : 1"
       inkscape:persp3d-origin="250 : 166.66667 : 1"
       id="perspective17" /><inkscape:perspective
       sodipodi:type="inkscape:persp3d"
       inkscape:vp_x="44.06818 : 315.96746 : 1"
       inkscape:vp_y="0 : 1000 : 0"
       inkscape:vp_z="480.74134 : 298.68846 : 1"
       inkscape:persp3d-origin="250 : 166.66667 : 1"
       id="perspective17-2" /><inkscape:perspective
       sodipodi:type="inkscape:persp3d"
       inkscape:vp_x="44.06818 : 315.96746 : 1"
       inkscape:vp_y="0 : 1000 : 0"
       inkscape:vp_z="480.74134 : 298.68846 : 1"
       inkscape:persp3d-origin="250 : 166.66667 : 1"
       id="perspective17-0" /><inkscape:perspective
       sodipodi:type="inkscape:persp3d"
       inkscape:vp_x="44.06818 : 315.96746 : 1"
       inkscape:vp_y="0 : 1000 : 0"
       inkscape:vp_z="480.74134 : 298.68846 : 1"
       inkscape:persp3d-origin="250 : 166.66667 : 1"
       id="perspective17-3" /><inkscape:perspective
       sodipodi:type="inkscape:persp3d"
       inkscape:vp_x="44.06818 : 315.96746 : 1"
       inkscape:vp_y="0 : 1000 : 0"
       inkscape:vp_z="480.74134 : 298.68846 : 1"
       inkscape:persp3d-origin="250 : 166.66667 : 1"
       id="perspective17-1" /><radialGradient
       id="a"
       cx="767.179"
       cy="5169.543"
       r="14.989"
       gradientTransform="matrix(0.955,0,0,0.962,-718.112,-4953.917)"
       gradientUnits="userSpaceOnUse"><stop
         offset="0"
         stop-color="#36bac0"
         id="stop1" /><stop
         offset="1"
         stop-color="#2d9094"
         id="stop2" /></radialGradient><inkscape:perspective
       sodipodi:type="inkscape:persp3d"
       inkscape:vp_x="44.06818 : 315.96746 : 1"
       inkscape:vp_y="0 : 1000 : 0"
       inkscape:vp_z="480.74134 : 298.68846 : 1"
       inkscape:persp3d-origin="250 : 166.66667 : 1"
       id="perspective17-6" /></defs><path
     id="path5"
     style="color:#000000;fill:#fc2a39;stroke-linejoin:round;-inkscape-stroke:none;paint-order:markers fill stroke"
     d="M 101.93555 26.537109 C 99.370235 26.537109 97.073876 27.198274 94.960938 28.083984 L 49.148438 28.083984 C 36.571626 28.083984 27.335938 39.170882 27.335938 51.140625 L 27.335938 193.07227 C 27.335938 205.04199 36.574031 216.12695 49.148438 216.12695 L 81.507812 216.12695 L 81.507812 449.16797 C 81.507813 454.8213 83.195432 460.15852 86.564453 464.50781 C 89.933474 468.85712 95.51112 472.33008 101.93555 472.33008 L 443.61914 472.33008 C 450.04355 472.33008 455.6219 468.85751 458.99023 464.50781 C 462.35859 460.15813 464.04492 454.82023 464.04492 449.16797 L 464.04492 49.699219 C 464.04492 44.046952 462.35859 38.709066 458.99023 34.359375 C 455.6219 30.009684 450.04355 26.537109 443.61914 26.537109 L 101.93555 26.537109 z M 276.5918 78.755859 C 282.83546 78.77967 289.14173 80.100627 294.875 82.546875 C 302.51937 85.808539 309.14573 91.071084 313.24023 97.933594 C 321.42927 111.65862 321.9581 127.17351 319.98828 144.38672 C 317.9059 162.5834 312.2325 183.47865 303.50781 206.38086 C 310.32023 221.26452 317.08997 235.888 324.88086 253.47266 C 330.41388 265.9611 335.90692 277.28445 341.28906 287.55859 C 377.17164 291.56258 402.24696 299.83159 419.43945 312.0625 C 432.17785 321.12472 440.99904 333.71708 442.38281 347.70898 C 443.76659 361.70089 437.53768 374.65568 428.64062 383.69922 C 419.15603 393.33999 404.16003 398.46323 390.73438 395.98242 C 377.30871 393.50163 365.99422 385.82726 355.07812 375.23828 C 342.4724 363.0103 330.01673 346.08203 317.46289 324.43555 C 306.63258 323.6991 294.99816 323.21805 281.85547 323.31055 C 266.61195 323.41783 253.02216 324.21863 240.57617 325.41211 C 224.31305 348.91539 208.09046 367.7491 192.67188 381.35742 C 179.81277 392.70675 167.6718 400.82629 154.04297 404.33398 C 140.41413 407.84168 122.28429 403.39523 113.36523 390.92578 C 105.66229 380.15656 102.92557 365.38311 106.96484 351.84766 C 111.00412 338.31221 120.77579 326.49247 134.8125 316.86914 C 153.64102 303.96061 180.76864 294.26955 218.37109 289.05859 C 225.27042 278.28279 232.21261 266.59374 239.05273 253.875 C 247.84244 237.53113 255.2623 221.87192 261.42578 207.24219 C 251.89597 186.30474 243.76063 167.48526 238.63281 151.25391 C 233.77971 135.89206 230.50498 122.11074 234.78906 107.28516 C 239.07315 92.459565 254.70283 81.370798 270.39258 79.171875 C 272.43624 78.885455 274.51058 78.747922 276.5918 78.755859 z M 279.91406 116.60938 C 279.70286 116.60883 278.83329 116.90857 275.74219 117.3418 C 272.54241 117.79024 271.80114 117.69443 271.61328 117.61133 C 271.75098 117.65478 271.88601 117.74577 271.81641 117.98633 C 271.514 119.03285 271.47524 127.26751 275.38477 139.64258 C 276.54833 143.32568 278.05194 147.44073 279.71289 151.76758 C 280.58279 147.57141 281.28297 143.59005 281.69336 140.00391 C 283.15139 127.26292 281.06077 119.22906 280.13867 117.68359 C 279.67762 116.91086 280.1253 116.60986 279.91406 116.60938 z M 282.59375 253.64258 C 279.55858 259.71217 276.36261 265.87468 272.99805 272.13086 C 270.57449 276.63728 268.13164 280.92208 265.68945 285.21875 C 270.93159 285.04417 276.03374 284.80668 281.58398 284.76758 C 286.95594 284.72978 291.86128 284.86296 296.91016 284.94336 C 294.49447 279.81513 292.07326 274.58099 289.63867 269.08594 C 287.11145 263.3818 285.06237 259.07932 282.59375 253.64258 z M 368.58203 332.00195 C 373.34235 338.35525 377.83402 343.6126 381.91602 347.57227 C 389.5463 354.97391 395.5441 357.67463 397.73828 358.08008 C 399.93246 358.48552 398.86412 359.00578 401.16406 356.66797 C 404.0515 353.73293 404.10704 352.30781 404.02734 351.50195 C 403.94764 350.69609 403.56019 348.06961 397.0957 343.4707 C 393.86347 341.17126 389.17609 338.73248 382.93164 336.375 C 378.89421 334.85072 373.95027 333.3986 368.58203 332.00195 z M 183.00391 336.51562 C 171.48906 340.31213 162.64407 344.51958 156.60742 348.6582 C 147.84174 354.6678 144.75472 359.99974 143.89844 362.86914 C 143.27416 364.96104 143.47765 366.04197 144.04688 367.17773 C 144.22589 367.11845 144.19583 367.06951 144.43555 367.00781 C 148.23057 366.03106 157.00761 361.42839 167.16797 352.46094 C 172.11395 348.09565 177.43559 342.73851 183.00391 336.51562 z " /></svg>
