<?xml version="1.0" encoding="UTF-8" standalone="no"?>
<!-- Created with Inkscape (http://www.inkscape.org/) -->

<svg
   width="500"
   height="500"
   viewBox="0 0 500 500"
   version="1.1"
   id="svg1"
   inkscape:version="1.3.2 (091e20ef0f, 2023-11-25, custom)"
   sodipodi:docname="perl.svg"
   xml:space="preserve"
   xmlns:inkscape="http://www.inkscape.org/namespaces/inkscape"
   xmlns:sodipodi="http://sodipodi.sourceforge.net/DTD/sodipodi-0.dtd"
   xmlns="http://www.w3.org/2000/svg"
   xmlns:svg="http://www.w3.org/2000/svg"><sodipodi:namedview
     id="namedview1"
     pagecolor="#505050"
     bordercolor="#eeeeee"
     borderopacity="1"
     inkscape:showpageshadow="0"
     inkscape:pageopacity="0"
     inkscape:pagecheckerboard="0"
     inkscape:deskcolor="#505050"
     inkscape:document-units="px"
     inkscape:zoom="0.78975416"
     inkscape:cx="276.66837"
     inkscape:cy="222.22105"
     inkscape:window-width="1362"
     inkscape:window-height="744"
     inkscape:window-x="0"
     inkscape:window-y="20"
     inkscape:window-maximized="0"
     inkscape:current-layer="svg1"
     showguides="true"><sodipodi:guide
       position="250.02518,350.60736"
       orientation="-0.99997769,0.0066803918"
       id="guide30"
       inkscape:locked="false" /><sodipodi:guide
       position="66.396728,247.89992"
       orientation="0,-1"
       id="guide53"
       inkscape:locked="false" /></sodipodi:namedview><defs
     id="defs1"><linearGradient
       id="swatch61"
       inkscape:swatch="solid"><stop
         style="stop-color:#5090d0;stop-opacity:1;"
         offset="0"
         id="stop61" /></linearGradient><linearGradient
       id="swatch30"
       inkscape:swatch="solid"><stop
         style="stop-color:#f9f9f9;stop-opacity:1;"
         offset="0"
         id="stop30" /></linearGradient><inkscape:perspective
       sodipodi:type="inkscape:persp3d"
       inkscape:vp_x="44.06818 : 315.96746 : 1"
       inkscape:vp_y="0 : 1000 : 0"
       inkscape:vp_z="480.74134 : 298.68846 : 1"
       inkscape:persp3d-origin="250 : 166.66667 : 1"
       id="perspective17" /><inkscape:perspective
       sodipodi:type="inkscape:persp3d"
       inkscape:vp_x="44.06818 : 315.96746 : 1"
       inkscape:vp_y="0 : 1000 : 0"
       inkscape:vp_z="480.74134 : 298.68846 : 1"
       inkscape:persp3d-origin="250 : 166.66667 : 1"
       id="perspective17-0" /><inkscape:perspective
       sodipodi:type="inkscape:persp3d"
       inkscape:vp_x="44.06818 : 315.96746 : 1"
       inkscape:vp_y="0 : 1000 : 0"
       inkscape:vp_z="480.74134 : 298.68846 : 1"
       inkscape:persp3d-origin="250 : 166.66667 : 1"
       id="perspective17-5" /><inkscape:perspective
       sodipodi:type="inkscape:persp3d"
       inkscape:vp_x="44.06818 : 315.96746 : 1"
       inkscape:vp_y="0 : 1000 : 0"
       inkscape:vp_z="480.74134 : 298.68846 : 1"
       inkscape:persp3d-origin="250 : 166.66667 : 1"
       id="perspective17-2" /></defs><path
     d="m 311.0156,38.360886 c -8.54337,-1.01335 -14.98207,4.677033 -22.12235,7.888593 -5.73717,3.211562 -12.70595,2.3697 -18.4743,4.817335 -4.3964,9.026675 -14.67027,14.155825 -20.26712,22.496525 a 88.8636,88.8636 0 0 1 -30.27598,41.999751 85.184335,85.184335 0 0 0 -36.91737,52.91283 c -2.26075,4.67703 -1.902,11.63023 -4.31848,15.5901 -7.96652,2.22925 -3.72602,-8.0445 -4.67702,-12.86185 -1.1535,-7.32735 5.31622,-12.00437 5.8151,-19.11347 a 28.592255,28.592255 0 0 0 3.25835,-16.41636 c -0.873,-12.69035 2.94652,-28.17133 -6.1269,-38.616701 -5.44095,-3.118025 -3.72605,-9.71265 -5.706,-14.76385 A 65.696705,65.696705 0 0 0 150.9364,64.536664 c -6.53225,-0.63925 -12.56565,-8.449825 -19.20702,-5.0356 -4.14695,4.81735 -11.89525,4.755 -14.37408,11.11575 -1.559,8.0445 -10.726,5.8307 -16.65022,7.79505 -7.607978,2.884175 -17.429728,0.095 -23.665778,5.955425 -6.407525,6.39195 -16.120175,14.9821 -13.01775,25.037701 7.1247,13.75047 25.645725,6.82847 36.122278,15.18477 a 280.466,280.466 0 0 1 -11.334003,27.73479 156.69615,156.69615 0 0 0 -0.686,36.35612 c 1.9175,12.05118 -1.294,27.62568 9.4476,36.15348 5.924253,2.13575 5.565673,8.91752 7.795053,13.82842 2.089,4.52113 6.657,-1.7615 8.46542,3.00888 5.26948,2.8686 0.577,8.74605 3.42983,12.4721 4.10022,2.13575 9.9621,1.9955 12.81507,6.64137 a 106.69868,106.69868 0 0 1 15.20038,12.56565 c 3.5857,7.28058 8.27832,-7.07792 12.20702,-1.6995 2.65033,4.44318 7.8886,8.13803 12.7683,4.44318 a 46.661185,46.661185 0 0 0 20.6413,-8.6681 281.13637,281.13637 0 0 1 2.6659,42.3739 182.91871,182.91871 0 0 1 4.52115,31.1802 146.6873,146.6873 0 0 1 4.67703,31.64792 110.86124,110.86124 0 0 1 -11.05338,64.85485 15.777187,15.777187 0 0 1 -12.58122,12.47208 c -4.5367,2.0265 -14.0311,5.70597 -10.78835,12.09792 a 39.73918,39.73918 0 0 0 39.28705,3.33628 c 7.95097,-3.7884 1.13825,-13.3763 5.2071,-19.11345 5.34742,-20.26715 2.71267,-41.95298 8.96432,-62.1266 a 58.649975,58.649975 0 0 0 4.67705,-32.73923 c 1.23175,-6.85962 -1.637,-15.1068 2.91533,-20.71922 a 28.26486,28.26486 0 0 1 7.53002,-18.70815 230.14113,230.14113 0 0 0 2.245,-31.58553 50.1066,50.1066 0 0 1 19.75265,-1.98 c 0.28075,5.84628 -4.2405,12.65918 -2.9621,19.23818 a 30.369525,30.369525 0 0 1 -4.00667,21.32727 44.41621,44.41621 0 0 0 2.61915,35.98198 c 12.19145,13.08007 28.06217,22.32502 39.5365,36.27815 4.8953,3.196 3.11802,8.06007 0.59225,12.22265 a 23.821681,23.821681 0 0 1 -15.38743,16.12017 c -4.80175,1.88625 -12.5656,8.824 -6.89082,13.75048 a 60.894953,60.894953 0 0 0 33.95525,-2.245 c 7.42087,-2.6659 4.67702,-11.5055 7.60797,-16.962 4.67703,3.63247 6.5946,11.9264 11.08455,16.66582 4.67705,6.7505 12.58123,1.13825 18.02218,-0.9665 a 55.329282,55.329282 0 0 0 -5.79945,-28.71682 c -2.60355,-5.89308 -12.47208,-6.0022 -12.00438,-13.28278 a 183.35523,183.35523 0 0 1 26.69028,-46.77032 c 7.95095,-7.46765 2.02675,-18.56783 2.46325,-28.06218 a 105.46706,105.46706 0 0 1 16.89967,-68.84592 247.71118,247.71118 0 0 0 10.78835,33.36285 97.126358,97.126358 0 0 0 17.14913,35.01537 c 3.69485,12.64358 2.74385,26.65908 5.16032,39.77035 a 162.7607,162.7607 0 0 1 -3.77282,67.7702 c 0.62375,8.07565 -7.12468,14.03108 -6.46988,21.95085 2.1825,7.31178 10.91305,1.45 15.4342,4.52115 a 17.305017,17.305017 0 0 0 20.6413,-8.91757 96.845735,96.845735 0 0 1 -3.85075,-19.06668 116.20865,116.20865 0 0 1 -3.97547,-57.9796 c 0.71725,-10.42977 7.12465,-23.38517 -1.13825,-32.3027 -2.30725,-9.65027 1.559,-20.03327 -0.764,-29.85505 a 200.75379,200.75379 0 0 1 -1.902,-76.906 c 1.45,-3.53895 0.2025,-10.11797 3.85075,-12.08232 a 28.857285,28.857285 0 0 1 4.9109,19.207 57.68339,57.68339 0 0 1 1.23175,32.443 c -6.61023,8.27837 -2.5412,19.45647 -1.6995,28.84172 1.06,6.579 8.0445,1.83975 9.18257,-2.245 a 184.75834,184.75834 0 0 0 14.71715,-34.9374 c 4.19375,-5.55007 0.22,-12.0044 0,-17.80392 6.43873,-0.764 3.99108,-7.88858 0.5455,-10.91305 A 92.449325,92.449325 0 0 0 440.9744,189.72527 163.13486,163.13486 0 0 1 410.714,147.2734 C 402.48273,121.72119 378.87933,104.77474 370.86603,79.004289 A 55.438415,55.438415 0 0 0 345.11115,42.882019 122.86562,122.86562 0 0 0 327.089,36.334171 101.33568,101.33568 0 0 1 311.0156,38.360886 Z m 6.23603,228.550964 a 606.56422,606.56422 0 0 1 7.79505,66.89712 65.08869,65.08869 0 0 1 -11.84845,39.24033 c -1.87075,6.62577 -7.57683,0.1875 -11.70818,-0.25 -10.02445,-0.2805 -13.75047,-10.64805 -19.20702,-17.25823 -5.61245,-5.363 -1.559,-12.4721 2.0735,-17.63242 3.9287,-2.79063 5.45655,-9.02668 11.0378,-8.54338 6.23605,-0.1075 4.92645,-7.59237 4.0534,-11.58345 3.71045,-5.64362 1.43425,-13.90637 5.11357,-20.0021 6.53225,-2.8374 4.5835,-12.7839 6.89083,-18.39632 1.793,-3.99108 0.265,-11.67698 5.2071,-13.31398 0.577,-0.095 0.764,0.1875 0.65475,0.81075 z"
     style="display:inline;fill:#7c85f3;stroke-width:15.5901;fill-opacity:1"
     id="path2" /></svg>
