<?xml version="1.0" encoding="UTF-8" standalone="no"?>
<!-- Created with Inkscape (http://www.inkscape.org/) -->

<svg
   width="500"
   height="500"
   viewBox="0 0 500 500"
   version="1.1"
   id="svg1"
   inkscape:version="1.3.2 (091e20ef0f, 2023-11-25, custom)"
   sodipodi:docname="perl.svg"
   xml:space="preserve"
   xmlns:inkscape="http://www.inkscape.org/namespaces/inkscape"
   xmlns:sodipodi="http://sodipodi.sourceforge.net/DTD/sodipodi-0.dtd"
   xmlns:xlink="http://www.w3.org/1999/xlink"
   xmlns="http://www.w3.org/2000/svg"
   xmlns:svg="http://www.w3.org/2000/svg"><sodipodi:namedview
     id="namedview1"
     pagecolor="#505050"
     bordercolor="#eeeeee"
     borderopacity="1"
     inkscape:showpageshadow="0"
     inkscape:pageopacity="0"
     inkscape:pagecheckerboard="0"
     inkscape:deskcolor="#505050"
     inkscape:document-units="px"
     inkscape:zoom="0.78975416"
     inkscape:cx="275.40216"
     inkscape:cy="222.22105"
     inkscape:window-width="1352"
     inkscape:window-height="734"
     inkscape:window-x="4"
     inkscape:window-y="24"
     inkscape:window-maximized="0"
     inkscape:current-layer="svg1"
     showguides="true"><sodipodi:guide
       position="250.02518,350.60736"
       orientation="-0.99997769,0.0066803918"
       id="guide30"
       inkscape:locked="false" /><sodipodi:guide
       position="66.396728,247.89992"
       orientation="0,-1"
       id="guide53"
       inkscape:locked="false" /></sodipodi:namedview><defs
     id="defs1"><linearGradient
       id="linearGradient2"
       inkscape:collect="always"><stop
         style="stop-color:#475395;stop-opacity:1;"
         offset="0"
         id="stop2" /><stop
         style="stop-color:#7a4281;stop-opacity:1;"
         offset="1"
         id="stop3" /></linearGradient><inkscape:path-effect
       effect="mirror_symmetry"
       start_point="258.98449,16.48053"
       end_point="258.98449,485.28637"
       center_point="258.98449,250.88345"
       id="path-effect1"
       is_visible="true"
       lpeversion="1.2"
       lpesatellites=""
       mode="free"
       discard_orig_path="false"
       fuse_paths="true"
       oposite_fuse="false"
       split_items="false"
       split_open="false"
       link_styles="false" /><linearGradient
       id="swatch61"
       inkscape:swatch="solid"><stop
         style="stop-color:#5090d0;stop-opacity:1;"
         offset="0"
         id="stop61" /></linearGradient><linearGradient
       id="swatch30"
       inkscape:swatch="solid"><stop
         style="stop-color:#f9f9f9;stop-opacity:1;"
         offset="0"
         id="stop30" /></linearGradient><inkscape:perspective
       sodipodi:type="inkscape:persp3d"
       inkscape:vp_x="44.06818 : 315.96746 : 1"
       inkscape:vp_y="0 : 1000 : 0"
       inkscape:vp_z="480.74134 : 298.68846 : 1"
       inkscape:persp3d-origin="250 : 166.66667 : 1"
       id="perspective17" /><inkscape:perspective
       sodipodi:type="inkscape:persp3d"
       inkscape:vp_x="44.06818 : 315.96746 : 1"
       inkscape:vp_y="0 : 1000 : 0"
       inkscape:vp_z="480.74134 : 298.68846 : 1"
       inkscape:persp3d-origin="250 : 166.66667 : 1"
       id="perspective17-0" /><inkscape:perspective
       sodipodi:type="inkscape:persp3d"
       inkscape:vp_x="44.06818 : 315.96746 : 1"
       inkscape:vp_y="0 : 1000 : 0"
       inkscape:vp_z="480.74134 : 298.68846 : 1"
       inkscape:persp3d-origin="250 : 166.66667 : 1"
       id="perspective17-5" /><inkscape:perspective
       sodipodi:type="inkscape:persp3d"
       inkscape:vp_x="44.06818 : 315.96746 : 1"
       inkscape:vp_y="0 : 1000 : 0"
       inkscape:vp_z="480.74134 : 298.68846 : 1"
       inkscape:persp3d-origin="250 : 166.66667 : 1"
       id="perspective17-2" /><linearGradient
       inkscape:collect="always"
       xlink:href="#linearGradient2"
       id="linearGradient3"
       x1="1.3756003"
       y1="5.0433726"
       x2="31.230106"
       y2="27.097239"
       gradientUnits="userSpaceOnUse" /></defs><g
     id="g2"
     transform="matrix(16.776732,0,0,16.776732,-15.99367,-15.058839)"><path
       d="M 30,16 A 14,14 0 1 1 16,2 14,14 0 0 1 30,16"
       style="fill:url(#linearGradient3);stroke-width:1.00001597;stroke-dasharray:none;opacity:0.56991491"
       id="path1-3" /><path
       d="m 25.753,17.035 c -0.472,-2.976 -3.595,-4.9 -5.92,-6.359 -1.016,-0.635 -2.663,-1.463 -2.876,-2.8 a 13.561,13.561 0 0 1 -0.1,-1.68 C 16.85,5.977 16.846,5.757 16.827,5.539 16.802,5.257 16.515,5.604 16.358,5.359 c -0.389,-0.609 -0.239,0.184 -0.2,0.5 a 17.854,17.854 0 0 1 0.19,2.263 17.333,17.333 0 0 1 -0.608,4.241 c -0.848,3.276 -1.517,6.633 -0.678,9.986 a 11.806,11.806 0 0 0 0.7,2.032 c 0.09,0.2 0.262,0.747 0.509,0.813 a 4.507,4.507 0 0 1 2.275,0.969 c 0.442,0.411 0.773,0.187 1.295,-0.022 a 10.012,10.012 0 0 0 4.074,-2.734 7.6,7.6 0 0 0 1.845,-6.378 m -1.673,3 a 6.321,6.321 0 0 1 -1.692,3.23 6.026,6.026 0 0 1 -2.18,1.815 c -0.3,0.108 0.056,-0.5 0.1,-0.566 a 13.917,13.917 0 0 1 0.881,-1.1 6.6,6.6 0 0 0 1.083,-1.75 7.487,7.487 0 0 0 -0.607,-6.716 13.442,13.442 0 0 0 -2.6,-2.769 10.254,10.254 0 0 1 -1.319,-1.239 c -0.09,-0.109 -0.884,-1.149 -0.637,-1.3 0.08,-0.05 1.816,1.777 2,1.919 0.718,0.542 1.456,1.043 2.121,1.654 a 9.512,9.512 0 0 1 2.339,2.874 7.44,7.44 0 0 1 0.5,3.952"
       style="fill:#ffffff"
       id="path2" /><path
       d="m 15.484,2.377 c 0.261,0.174 0.318,1.187 0.318,2.114 a 42.189,42.189 0 0 1 -0.2,6 11.485,11.485 0 0 1 -1.68,3.3 9.787,9.787 0 0 0 -1.535,4.6 11.059,11.059 0 0 0 1.413,4.52 c 0.61,0.93 1.647,2.227 1.419,2.52 -0.405,0.521 -2.056,-1.274 -2.925,-2.317 a 8.934,8.934 0 0 1 -1.767,-4.808 7.247,7.247 0 0 1 1.573,-4.112 37.326,37.326 0 0 0 2.317,-3.244 7.586,7.586 0 0 0 0.84,-2.52 c 0.116,-1.014 0,-4.634 0,-4.634 0,0 -0.029,-1.593 0.232,-1.419"
       style="fill:#ffffff"
       id="path3" /><path
       d="m 14.789,4.086 c 0.261,0.116 0.29,0.434 0.29,0.753 0,0.319 -0.087,1.622 -0.174,2.9 a 5.334,5.334 0 0 1 -1.854,3.1 A 47.708,47.708 0 0 0 9.315,15.096 6.493,6.493 0 0 0 8.186,19.064 6.067,6.067 0 0 0 9.808,23 9.717,9.717 0 0 0 12.5,25.315 c 0.637,0.318 1.274,0.55 1.13,0.84 -0.144,0.29 -0.753,0.087 -1.419,-0.145 A 11.266,11.266 0 0 1 7.983,23.375 7.8,7.8 0 0 1 6.072,18.046 5.927,5.927 0 0 1 7.52,14.165 19.04,19.04 0 0 1 11.546,10.69 9.649,9.649 0 0 0 13.8,8.807 2.822,2.822 0 0 0 14.524,6.78 C 14.495,5.911 14.582,5.129 14.553,4.84 14.524,4.551 14.524,3.971 14.785,4.087"
       style="fill:#ffffff"
       id="path4" /></g></svg>
