<?xml version="1.0" encoding="UTF-8" standalone="no"?>
<!-- Created with Inkscape (http://www.inkscape.org/) -->

<svg
   width="500"
   height="500"
   viewBox="0 0 500 500"
   version="1.1"
   id="svg1"
   inkscape:version="1.3.2 (091e20ef0f, 2023-11-25, custom)"
   sodipodi:docname="php.svg"
   xml:space="preserve"
   xmlns:inkscape="http://www.inkscape.org/namespaces/inkscape"
   xmlns:sodipodi="http://sodipodi.sourceforge.net/DTD/sodipodi-0.dtd"
   xmlns="http://www.w3.org/2000/svg"
   xmlns:svg="http://www.w3.org/2000/svg"><sodipodi:namedview
     id="namedview1"
     pagecolor="#505050"
     bordercolor="#eeeeee"
     borderopacity="1"
     inkscape:showpageshadow="0"
     inkscape:pageopacity="0"
     inkscape:pagecheckerboard="0"
     inkscape:deskcolor="#505050"
     inkscape:document-units="px"
     inkscape:zoom="1"
     inkscape:cx="347.5"
     inkscape:cy="316.5"
     inkscape:window-width="1362"
     inkscape:window-height="744"
     inkscape:window-x="0"
     inkscape:window-y="20"
     inkscape:window-maximized="1"
     inkscape:current-layer="layer1"
     showguides="true"><sodipodi:guide
       position="250.02518,350.60736"
       orientation="-0.99997769,0.0066803918"
       id="guide30"
       inkscape:locked="false" /><sodipodi:guide
       position="66.396728,247.89992"
       orientation="0,-1"
       id="guide53"
       inkscape:locked="false" /><sodipodi:guide
       position="221.35979,127.71308"
       orientation="0,-1"
       id="guide5"
       inkscape:locked="false" /><sodipodi:guide
       position="96.959247,117.65127"
       orientation="1,0"
       id="guide6"
       inkscape:locked="false" /><sodipodi:guide
       position="400.64293,118.56598"
       orientation="1,0"
       id="guide7"
       inkscape:locked="false" /></sodipodi:namedview><defs
     id="defs1"><linearGradient
       id="swatch61"
       inkscape:swatch="solid"><stop
         style="stop-color:#5090d0;stop-opacity:1;"
         offset="0"
         id="stop61" /></linearGradient><linearGradient
       id="swatch30"
       inkscape:swatch="solid"><stop
         style="stop-color:#f9f9f9;stop-opacity:1;"
         offset="0"
         id="stop30" /></linearGradient><inkscape:perspective
       sodipodi:type="inkscape:persp3d"
       inkscape:vp_x="44.06818 : 315.96746 : 1"
       inkscape:vp_y="0 : 1000 : 0"
       inkscape:vp_z="480.74134 : 298.68846 : 1"
       inkscape:persp3d-origin="250 : 166.66667 : 1"
       id="perspective17" /><inkscape:perspective
       sodipodi:type="inkscape:persp3d"
       inkscape:vp_x="44.06818 : 315.96746 : 1"
       inkscape:vp_y="0 : 1000 : 0"
       inkscape:vp_z="480.74134 : 298.68846 : 1"
       inkscape:persp3d-origin="250 : 166.66667 : 1"
       id="perspective17-2" /><inkscape:perspective
       sodipodi:type="inkscape:persp3d"
       inkscape:vp_x="44.06818 : 315.96746 : 1"
       inkscape:vp_y="0 : 1000 : 0"
       inkscape:vp_z="480.74134 : 298.68846 : 1"
       inkscape:persp3d-origin="250 : 166.66667 : 1"
       id="perspective17-0" /></defs><g
     inkscape:label="Layer 1"
     inkscape:groupmode="layer"
     id="layer1"><path
       id="path1"
       style="fill:#777bb3;fill-opacity:1;stroke:none;stroke-width:20.5767;stroke-linecap:round;stroke-miterlimit:10;stroke-dasharray:none;stroke-opacity:1"
       d="M 164.10007,66.065472 C 159.90423,78.945088 147.4443,104.908 114.37368,108.98622 70.110865,114.44466 60.022903,138.98581 50.55895,169.1722 l -7.060476,239.70138 27.867875,2.21916 c 1.880042,-88.33074 39.074001,-98.25339 60.218311,-138.23621 2.82444,-9.22821 5.22316,-8.9775 6.48841,-19.33651 2.48523,-20.34743 2.53384,-30.03291 -3.42583,-37.90571 -3.00261,-3.96574 -1.98843,-9.44988 2.26526,-12.24928 2.04297,-1.34437 4.57516,-1.87699 7.03937,-1.48065 2.46397,0.39661 4.65805,1.68954 6.09952,3.59431 11.64298,15.38051 9.48562,27.67852 6.75563,50.02983 -2.16299,17.70903 -6.76208,24.29422 -12.69725,37.75871 7.09155,38.97025 -1.72935,78.47756 -7.86032,148.94584 l 54.88412,-0.005 c 1.97608,-52.4389 10.32883,-48.943 28.77513,-74.20646 34.56811,17.42634 104.32952,11.19993 141.57011,-1.33401 5.53813,24.09369 17.048,6.61547 16.20592,75.85161 l 50.95205,0.39163 c 0,0 25.29561,-117.69097 28.24957,-188.42073 2.94042,-70.40571 -4.7699,-145.85297 -122.52159,-149.07614 -54.40041,-1.4891 -105.86425,-18.950472 -137.2506,-32.062716 4.71827,4.937941 9.75375,10.364489 14.80188,16.067118 10.13106,11.444588 20.342,24.001488 28.26107,36.205998 7.91911,12.20452 13.92476,23.79564 14.19961,35.40488 0.49298,20.82322 -13.67024,35.86547 -26.63455,45.07556 -12.9643,9.21009 -25.97089,13.64587 -25.97089,13.64587 -4.88404,1.68368 -10.30732,-0.64299 -12.11271,-5.19655 -1.80597,-4.55336 0.68969,-9.60944 5.57396,-11.29258 0,0 10.62045,-3.70693 21.08167,-11.1388 10.46126,-7.43187 19.52345,-17.53159 19.21156,-30.70545 -0.12757,-5.38927 -4.32424,-15.66381 -11.48166,-26.69448 -7.15742,-11.03067 -16.89935,-23.07917 -26.66908,-34.11558 C 184.06016,85.56547 171.22536,72.911241 164.10007,66.065472 Z"
       sodipodi:nodetypes="csccccsccccscccccccsscsssscccssssc" /></g></svg>
