<svg width="500" height="500" xmlns:xlink="http://www.w3.org/1999/xlink" xmlns="http://www.w3.org/2000/svg"><defs><linearGradient id="prefix__c" x1="-7274.8" y1="2082.507" x2="-7243.872" y2="2046.343" gradientTransform="matrix(-.023 -.116 -.116 .023 79.68 -889.484)" gradientUnits="userSpaceOnUse"><stop offset="0" stop-color="#f69923"/><stop offset=".312" stop-color="#f79a23"/><stop offset=".838" stop-color="#e97826"/></linearGradient><linearGradient id="prefix__a" x1="-7503.689" y1="2086.595" x2="-7283.036" y2="2086.595" gradientTransform="matrix(-.023 -.116 -.116 .023 79.68 -889.484)" gradientUnits="userSpaceOnUse"><stop offset=".323" stop-color="#9e2064"/><stop offset=".63" stop-color="#c92037"/><stop offset=".751" stop-color="#cd2335"/><stop offset="1" stop-color="#e97826"/></linearGradient><linearGradient id="prefix__b" x1="-7477.053" y1="2064.42" x2="-7345.566" y2="2064.42" gradientTransform="matrix(-.023 -.116 -.116 .023 79.68 -889.484)" gradientUnits="userSpaceOnUse"><stop offset="0" stop-color="#282662"/><stop offset=".095" stop-color="#662e8d"/><stop offset=".788" stop-color="#9f2064"/><stop offset=".949" stop-color="#cd2032"/></linearGradient><linearGradient id="prefix__g" x1="-7491.296" y1="2088.633" x2="-7270.643" y2="2088.633" xlink:href="#prefix__a"/><linearGradient id="prefix__h" x1="-7475.203" y1="2085.61" x2="-7359.244" y2="2085.61" xlink:href="#prefix__b"/><linearGradient id="prefix__i" x1="-7491.296" y1="2065.799" x2="-7270.643" y2="2065.799" xlink:href="#prefix__a"/><linearGradient id="prefix__j" x1="-7504.984" y1="2066.905" x2="-7284.331" y2="2066.905" xlink:href="#prefix__a"/><linearGradient id="prefix__k" x1="-7491.296" y1="2058.959" x2="-7270.643" y2="2058.959" xlink:href="#prefix__a"/><linearGradient id="prefix__l" x1="-7491.296" y1="2059.762" x2="-7270.643" y2="2059.762" xlink:href="#prefix__a"/><linearGradient id="prefix__m" x1="-8307.632" y1="2040.008" x2="-8276.704" y2="2003.844" gradientTransform="matrix(.074 -.112 -.112 -.074 864.083 -775.51)" xlink:href="#prefix__c"/><linearGradient id="prefix__n" x1="-8536.521" y1="2044.096" x2="-8315.868" y2="2044.096" gradientTransform="matrix(.074 -.112 -.112 -.074 864.083 -775.51)" xlink:href="#prefix__a"/><linearGradient id="prefix__o" x1="-8509.885" y1="2021.921" x2="-8378.397" y2="2021.921" gradientTransform="matrix(.074 -.112 -.112 -.074 864.083 -775.51)" xlink:href="#prefix__b"/><linearGradient id="prefix__p" x1="-8524.128" y1="2046.134" x2="-8303.475" y2="2046.134" gradientTransform="matrix(.074 -.112 -.112 -.074 864.083 -775.51)" xlink:href="#prefix__a"/><linearGradient id="prefix__q" x1="-8508.035" y1="2043.111" x2="-8392.076" y2="2043.111" gradientTransform="matrix(.074 -.112 -.112 -.074 864.083 -775.51)" xlink:href="#prefix__b"/><linearGradient id="prefix__r" x1="-8524.128" y1="2023.3" x2="-8303.475" y2="2023.3" gradientTransform="matrix(.074 -.112 -.112 -.074 864.083 -775.51)" xlink:href="#prefix__a"/><linearGradient id="prefix__s" x1="-8537.816" y1="2024.407" x2="-8317.163" y2="2024.407" gradientTransform="matrix(.074 -.112 -.112 -.074 864.083 -775.51)" xlink:href="#prefix__a"/><linearGradient id="prefix__t" x1="-8524.128" y1="2016.46" x2="-8303.475" y2="2016.46" gradientTransform="matrix(.074 -.112 -.112 -.074 864.083 -775.51)" xlink:href="#prefix__a"/><linearGradient id="prefix__u" x1="-8524.128" y1="2017.263" x2="-8303.475" y2="2017.263" gradientTransform="matrix(.074 -.112 -.112 -.074 864.083 -775.51)" xlink:href="#prefix__a"/><linearGradient xlink:href="#prefix__c" id="prefix__d" gradientUnits="userSpaceOnUse" gradientTransform="matrix(-.023 -.116 -.116 .023 79.68 -889.484)" x1="-7274.8" y1="2082.507" x2="-7243.872" y2="2046.343"/><linearGradient xlink:href="#prefix__a" id="prefix__e" gradientUnits="userSpaceOnUse" gradientTransform="matrix(-.023 -.116 -.116 .023 79.68 -889.484)" x1="-7503.689" y1="2086.595" x2="-7283.036" y2="2086.595"/><linearGradient xlink:href="#prefix__b" id="prefix__f" gradientUnits="userSpaceOnUse" gradientTransform="matrix(-.023 -.116 -.116 .023 79.68 -889.484)" x1="-7477.053" y1="2064.42" x2="-7345.566" y2="2064.42"/></defs><path d="M5.976 2.533a9.539 9.539 0 00-.4 2.655l1.427.691a17.928 17.928 0 01.1-2.541 1.16 1.16 0 01.011-.092c0 .031-.009.061-.011.092A15.939 15.939 0 007.1 5.845a27.79 27.79 0 002.114-2 3.041 3.041 0 00-1.593-1.701s-1.264-.51-1.645.389z" fill="url(#prefix__d)" transform="matrix(17.32563 0 0 17.32563 -17.088 -28.682)"/><path d="M150.763 139.757a.312.312 0 00.208-.225l-1.386 1.23c0 .122-.156.225-.174.33zM165.905 182.517c-.658.797-1.438 1.577-2.217 2.356.762-.762 1.542-1.559 2.217-2.356zM151.681 313.95c0-.365-.243-.763-.312-1.127a8590.512 8590.512 0 01-6.15-22.523 2847.562 2847.562 0 01-6.22-24.1 1802.054 1802.054 0 01-5.822-23.979 1299.616 1299.616 0 01-5.388-23.667c-1.334-6.22-2.633-12.249-3.829-18.14-.416-1.992-.78-3.898-1.143-5.821-.728-3.846-1.49-7.554-2.183-11.21-.694-3.655-1.265-6.687-1.889-9.962-.19-1.109-.381-2.218-.589-3.223l-.104-.606-1.195 1.074-2.46-1.213c0 .26.086.555.173.815.814 4.938 1.732 9.927 2.633 14.952.52 2.841 1.092 5.752 1.611 8.663a945.037 945.037 0 004.886 24.134c1.75 8.091 3.465 16.286 5.336 24.256 1.872 7.97 3.708 15.836 5.614 23.702a1431.932 1431.932 0 005.856 23.32c2.062 8.074 4.158 16.026 6.324 23.805.45 1.733.953 3.57 1.473 5.198a1901.585 1901.585 0 005.197 18.59l3.968 1.993 1.317-1.178a1.195 1.195 0 00-.156-.503c-2.582-7.796-4.8-15.645-6.948-23.25z" fill="none"/><path d="M172.177 205.127c-1.16 1.265-2.356 2.46-3.569 3.656.624-.572 1.265-1.248 1.854-1.872a20.999 20.999 0 001.715-1.784z" fill="#be202e"/><path d="M172.177 205.127c-1.16 1.265-2.356 2.46-3.569 3.656.624-.572 1.265-1.248 1.854-1.872a20.999 20.999 0 001.715-1.784z" style="isolation:isolate" opacity=".35" fill="#be202e"/><path d="M163.099 185.393c.208-.156.363-.364.554-.52.78-.78 1.56-1.559 2.218-2.356-.867.953-1.854 1.871-2.79 2.876z" fill="#be202e"/><path d="M163.099 185.393c.208-.156.363-.364.554-.52.78-.78 1.56-1.559 2.218-2.356-.867.953-1.854 1.871-2.79 2.876z" style="isolation:isolate" opacity=".35" fill="#be202e"/><path d="M7.38 10.092q-.1-.712-.18-1.4c-.055-.477-.1-.945-.131-1.408 0-.028-.005-.056 0-.081A22.637 22.637 0 017 5.878l-1.425-.687c0 .086-.01.175-.013.269-.014.341-.025.7-.028 1.085 0 .43 0 .878.008 1.347.01.432.028.882.051 1.34.023.392.049.788.081 1.192v.046l1.906.965c-.063-.451-.133-.899-.2-1.343z" fill="url(#prefix__e)" transform="matrix(17.32563 0 0 17.32563 -17.088 -28.682)"/><path d="M10.2 21.362c.1.356.212.723.328 1.095v.015c.016.054.029.105.049.157.076.251.149.474.307.984a1.927 1.927 0 011.094.262 1.563 1.563 0 00-1.041-.566 3.349 3.349 0 001.827-2.977 4.338 4.338 0 00-.047-.326 1.347 1.347 0 01-.766 1.152 3.766 3.766 0 00.61-2.373c-.015-.193-.04-.4-.075-.619a3.056 3.056 0 01-1.772 2.462l-.578.532c.021.067.039.133.064.202z" fill="url(#prefix__f)" transform="matrix(17.32563 0 0 17.32563 -17.088 -28.682)"/><path d="M9.453 19.735l-.365-1.374a118.558 118.558 0 01-.662-2.714c-.106-.457-.21-.934-.308-1.4-.098-.466-.19-.931-.282-1.393a29.232 29.232 0 01-.093-.5c-.053-.286-.1-.574-.152-.863a.158.158 0 00-.01-.047l-1.895-.967a.679.679 0 01.007.091c.038.429.075.865.126 1.3.051.435.106.89.172 1.341.056.38.116.757.179 1.138l.041.228a27.47 27.47 0 00.639 2.707c.082.276.163.542.246.794.072.212.15.425.225.635.181.493.382.971.6 1.438l1.915.97c-.1-.352-.2-.71-.3-1.073l-.083-.311z" fill="url(#prefix__g)" transform="matrix(17.32563 0 0 17.32563 -17.088 -28.682)"/><path d="M7.947 20.208a14.86 14.86 0 00.881 1.627c.011.016.022.038.033.054a3.864 3.864 0 00-1.46-.113 5.37 5.37 0 012.353 1.371 2.468 2.468 0 01-1.112.558 2.46 2.46 0 001.22-.108 3 3 0 00-.742 1.447 3.084 3.084 0 011.205-1.276 139.477 139.477 0 002.034 6.14.577.577 0 00.09-.541 131.28 131.28 0 01-2.095-6.468c-.03-.1-.056-.2-.089-.3l-.025-.084q-.16-.55-.326-1.132c-.024-.09-.05-.174-.074-.265l-1.915-.97a.357.357 0 00.022.06z" fill="url(#prefix__h)" transform="matrix(17.32563 0 0 17.32563 -17.088 -28.682)"/><path d="M7.806 11.476l.034.186c.037.19.07.382.109.575.04.211.084.426.126.647.021.111.042.222.066.336.069.34.144.688.221 1.047.1.441.2.894.311 1.366.1.446.218.911.336 1.384.115.451.231.913.359 1.391.112.423.233.858.355 1.3 0 .021.014.044.018.065.123.439.252.892.386 1.353a.069.069 0 00.009.029l.578-.532c-.015 0-.026.013-.045.021a5.547 5.547 0 001.408-3.114 7.47 7.47 0 00-.018-1.737 11.925 11.925 0 00-.278-1.486 19.358 19.358 0 00-.425-1.456 2.891 2.891 0 01-.441.637l-.1.11c-.033.037-.07.069-.107.108a3.377 3.377 0 00.416-2.507 3.176 3.176 0 01-.572.991c-.038.046-.083.091-.128.136-.012.009-.021.021-.036.033a3.52 3.52 0 00.371-.814 1.509 1.509 0 00.043-.17c.02-.087.034-.175.047-.263.005-.058.014-.112.019-.171a2.461 2.461 0 000-.413c0-.046 0-.087-.011-.13-.011-.064-.019-.124-.031-.182-.046-.267-.1-.5-.149-.7-.026-.1-.05-.192-.076-.275-.012-.033-.018-.065-.03-.1-.031-.091-.056-.175-.084-.245a2.452 2.452 0 00-.105-.242.532.532 0 01-.042.115 3.749 3.749 0 01-.65.934l.533-.487-.536.484a.018.018 0 00-.009.013A1.082 1.082 0 009.6 9.8c0-.007.009-.013.01-.019l-1.82 1.665c.015.013.017.023.016.03z" fill="url(#prefix__i)" transform="matrix(17.32563 0 0 17.32563 -17.088 -28.682)"/><path d="M7.1 5.845c.022.4.057.848.1 1.344a.485.485 0 00.009.078c.041.433.094.9.162 1.409.058.439.122.9.2 1.4.065.433.145.886.227 1.367l1.82-1.667a2.987 2.987 0 00.457-1.647c0-.143-.011-.293-.022-.447a14.324 14.324 0 00-.158-1.432 12.46 12.46 0 00-.271-1.287 6.825 6.825 0 00-.209-.653 7.964 7.964 0 00-.2-.454A28.8 28.8 0 017.1 5.845z" fill="url(#prefix__j)" transform="matrix(17.32563 0 0 17.32563 -17.088 -28.682)"/><path d="M170.497 206.946c-.572.641-1.213 1.196-1.854 1.871a24.1 24.1 0 011.854-1.87z" fill="#be202e"/><path d="M170.497 206.946c-.572.641-1.213 1.196-1.854 1.871a24.1 24.1 0 011.854-1.87z" style="isolation:isolate" opacity=".35" fill="#be202e"/><path d="M10.827 13.6c-.033.037-.07.069-.107.108a1.391 1.391 0 01.107-.108z" fill="url(#prefix__k)" transform="matrix(17.32563 0 0 17.32563 -17.088 -28.682)"/><path d="M163.099 185.445c.208-.156.363-.364.623-.572-.208.156-.363.364-.623.572z" fill="#be202e"/><path d="M163.099 185.445c.208-.156.363-.364.623-.572-.208.156-.363.364-.623.572z" style="isolation:isolate" opacity=".35" fill="#be202e"/><path d="M10.4 12.359c.012-.009.021-.021.036-.033-.012.009-.021.021-.036.033z" fill="url(#prefix__l)" transform="matrix(17.32563 0 0 17.32563 -17.088 -28.682)"/><path d="M24.627 2.891A10.789 10.789 0 0022.2 4.713l.6 1.69a20.278 20.278 0 012.1-1.965l.082-.066c-.026.024-.056.042-.082.066a18.028 18.028 0 00-2 2.013 31.432 31.432 0 003.288.072 3.44 3.44 0 00.071-2.639s-.612-1.414-1.632-.993z" fill="url(#prefix__m)" transform="matrix(17.32563 0 0 17.32563 -17.088 -28.682)"/><path d="M362.343 172.763a.347.347 0 00.295 0l-2.097-.122c-.103 0-.294 0-.398.139zM340.6 219.213c-1.178.121-2.426.121-3.673.138 1.264-.017 2.512-.017 3.673-.138zM224.743 313.724c.243-.347.399-.797.641-1.16 4.418-7.901 8.663-15.594 12.994-23.061 4.782-8.334 9.53-16.46 14.138-24.256a2029.498 2029.498 0 0114.363-23.927c4.938-8.108 9.72-15.853 14.467-23.32 3.864-6.064 7.606-11.937 11.331-17.638a449.673 449.673 0 013.708-5.596c2.46-3.673 4.816-7.26 7.155-10.759 2.2-3.223 4.297-6.376 6.393-9.53.728-1.039 1.456-2.095 2.08-3.048l.363-.52h-1.732l-1.005-2.928c-.139.26-.364.52-.503.797a593.802 593.802 0 00-9.754 14.12c-1.836 2.703-3.69 5.51-5.63 8.3a870.05 870.05 0 00-15.23 23.32c-4.99 7.917-10.118 15.904-15.021 23.822-4.904 7.918-9.599 15.68-14.311 23.546a2118.692 2118.692 0 00-13.86 23.424c-4.748 8.143-9.391 16.2-13.861 24.256a126.774 126.774 0 00-2.998 5.423 1960.62 1960.62 0 00-10.586 19.058l1.612 4.747 2.01.104a1.351 1.351 0 00.277-.537c4.192-8.732 8.645-16.823 12.96-24.637z" fill="none"/><path d="M327.692 242.394c-1.94.104-3.864.104-5.787.104h2.98a23.753 23.753 0 002.807-.104z" fill="#be202e"/><path d="M327.692 242.394c-1.94.104-3.864.104-5.787.104h2.98a23.753 23.753 0 002.807-.104z" style="isolation:isolate" opacity=".35" fill="#be202e"/><path d="M336.078 219.317h.866c1.247 0 2.495 0 3.673-.139-1.455 0-2.98 0-4.522.104z" fill="#be202e"/><path d="M336.078 219.317h.866c1.247 0 2.495 0 3.673-.139-1.455 0-2.98 0-4.522.104z" style="isolation:isolate" opacity=".35" fill="#be202e"/><path d="M19.751 10.091q.486-.652.968-1.272a35.82 35.82 0 012.073-2.423l-.6-1.685c-.071.067-.147.134-.224.205-.283.263-.579.547-.884.851-.344.343-.7.707-1.064 1.091-.335.356-.678.732-1.023 1.119-.293.334-.587.673-.882 1.024l-.034.039.767 2.291c.305-.413.604-.831.903-1.24z" fill="url(#prefix__n)" transform="matrix(17.32563 0 0 17.32563 -17.088 -28.682)"/><path d="M13.063 21.4c-.2.37-.4.75-.605 1.142 0 .005-.007.01-.008.015-.03.057-.06.108-.085.165-.138.262-.256.5-.534 1.036a2.18 2.18 0 01.673 1.08 1.768 1.768 0 00-.388-1.282c1.558.3 2.973.1 3.836-.945.075-.094.15-.194.221-.3a1.524 1.524 0 01-1.532.318 4.26 4.26 0 002.376-1.429c.141-.168.284-.352.431-.558a3.456 3.456 0 01-3.383.574l-.888-.031c-.038.076-.077.143-.114.215z" fill="url(#prefix__o)" transform="matrix(17.32563 0 0 17.32563 -17.088 -28.682)"/><path d="M13.758 19.5c.262-.461.529-.926.8-1.4.26-.45.525-.9.8-1.352.275-.452.549-.906.826-1.359.277-.453.573-.919.867-1.375.294-.456.587-.9.879-1.346.107-.162.213-.318.325-.479.184-.272.374-.544.563-.815.008-.015.021-.03.029-.046l-.757-2.284a.768.768 0 01-.067.079c-.31.376-.626.756-.934 1.149-.308.393-.622.8-.927 1.217-.257.35-.508.7-.76 1.058-.049.07-.1.146-.148.217a29.335 29.335 0 00-2.069 3.522c-.111.228-.217.461-.323.69-.246.54-.464 1.085-.661 1.633l.771 2.3c.2-.365.406-.728.611-1.1.055-.099.117-.201.175-.309z" fill="url(#prefix__p)" transform="matrix(17.32563 0 0 17.32563 -17.088 -28.682)"/><path d="M12.17 18.686a16.808 16.808 0 00-.583 2.01c0 .022-.013.048-.016.07a4.37 4.37 0 00-1.086-1.251 6.074 6.074 0 01.805 2.973 2.792 2.792 0 01-1.339-.435 2.782 2.782 0 001.068.883 3.4 3.4 0 00-1.747.575 3.488 3.488 0 011.984-.069C10.2 25.432 9.12 27.645 8.015 30a.652.652 0 00.5-.364c.2-.426 1.51-3.226 3.453-6.872.054-.1.113-.205.168-.314l.046-.087q.308-.57.637-1.17l.151-.272v-.005l-.771-2.3a.4.4 0 00-.029.07z" fill="url(#prefix__q)" transform="matrix(17.32563 0 0 17.32563 -17.088 -28.682)"/><path d="M18.994 11.544l-.12.176c-.121.182-.247.363-.369.55-.122.187-.271.409-.413.621-.071.106-.142.212-.214.323-.215.329-.431.669-.654 1.018a109.502 109.502 0 00-1.664 2.727c-.266.454-.539.919-.816 1.4-.246.43-.494.875-.75 1.331-.014.02-.023.046-.037.067-.249.451-.506.918-.765 1.4a.078.078 0 00-.016.031l.888.031c-.015-.008-.032-.01-.053-.019a6.274 6.274 0 003.607-1.389 8.449 8.449 0 001.368-1.411 13.487 13.487 0 00.956-1.417c.272-.459.546-.962.815-1.51a3.269 3.269 0 01-.861.162l-.168.009h-.172a3.82 3.82 0 002.326-1.688 3.592 3.592 0 01-1.248.344c-.068.007-.14.007-.212.008h-.055a3.981 3.981 0 00.945-.36 1.707 1.707 0 00.17-.1c.086-.054.166-.114.247-.174l.151-.122a2.784 2.784 0 00.326-.335c.034-.039.066-.073.094-.114.042-.06.083-.115.119-.171a10.09 10.09 0 00.597-.966c.016-.036.037-.067.054-.1.048-.1.094-.186.127-.264a2.773 2.773 0 00.107-.278.6.6 0 01-.125.059 4.24 4.24 0 01-1.265.236l.816.031-.816-.031a.02.02 0 00-.017 0 1.224 1.224 0 00-.128 0c.006 0 .017 0 .023-.008l-2.79-.1c.005.018-.002.028-.008.033z" fill="url(#prefix__r)" transform="matrix(17.32563 0 0 17.32563 -17.088 -28.682)"/><path d="M22.9 6.452c-.3.339-.628.728-.986 1.164a.548.548 0 00-.055.07c-.311.381-.638.8-.989 1.263-.3.4-.62.824-.954 1.29-.292.4-.587.829-.9 1.281l2.79.1a3.379 3.379 0 001.677-.962c.111-.117.224-.244.338-.377A16.2 16.2 0 0024.828 9a14.093 14.093 0 00.8-1.251 7.72 7.72 0 00.351-.691c.077-.183.141-.356.2-.525a32.58 32.58 0 01-3.279-.081z" fill="url(#prefix__s)" transform="matrix(17.32563 0 0 17.32563 -17.088 -28.682)"/><path d="M324.885 242.55h-2.98a27.253 27.253 0 012.98 0z" fill="#be202e"/><path d="M324.885 242.55h-2.98a27.253 27.253 0 012.98 0z" style="isolation:isolate" opacity=".35" fill="#be202e"/><path d="M19.738 15.655h-.172a1.573 1.573 0 01.172 0z" fill="url(#prefix__t)" transform="matrix(17.32563 0 0 17.32563 -17.088 -28.682)"/><path d="M335.974 219.3h.953-.953z" fill="#be202e"/><path d="M335.974 219.3h.953-.953z" style="isolation:isolate" opacity=".35" fill="#be202e"/><path d="M20.378 14.313h.055-.055z" fill="url(#prefix__u)" transform="matrix(17.32563 0 0 17.32563 -17.088 -28.682)"/></svg>