<?xml version="1.0" encoding="UTF-8" standalone="no"?>
<!-- Created with Inkscape (http://www.inkscape.org/) -->

<svg
   width="500"
   height="500"
   viewBox="0 0 500 500"
   version="1.1"
   id="svg1"
   inkscape:version="1.3.2 (091e20ef0f, 2023-11-25, custom)"
   sodipodi:docname="prettier.svg"
   xml:space="preserve"
   xmlns:inkscape="http://www.inkscape.org/namespaces/inkscape"
   xmlns:sodipodi="http://sodipodi.sourceforge.net/DTD/sodipodi-0.dtd"
   xmlns="http://www.w3.org/2000/svg"
   xmlns:svg="http://www.w3.org/2000/svg"><sodipodi:namedview
     id="namedview1"
     pagecolor="#505050"
     bordercolor="#eeeeee"
     borderopacity="1"
     inkscape:showpageshadow="0"
     inkscape:pageopacity="0"
     inkscape:pagecheckerboard="0"
     inkscape:deskcolor="#505050"
     inkscape:document-units="px"
     inkscape:zoom="0.68158229"
     inkscape:cx="226.67842"
     inkscape:cy="316.17605"
     inkscape:window-width="1362"
     inkscape:window-height="744"
     inkscape:window-x="0"
     inkscape:window-y="20"
     inkscape:window-maximized="0"
     inkscape:current-layer="g4"
     showguides="true"><sodipodi:guide
       position="250.02518,350.60736"
       orientation="-0.99997769,0.0066803918"
       id="guide30"
       inkscape:locked="false" /><sodipodi:guide
       position="66.396728,247.89992"
       orientation="0,-1"
       id="guide53"
       inkscape:locked="false" /></sodipodi:namedview><defs
     id="defs1"><linearGradient
       id="swatch61"
       inkscape:swatch="solid"><stop
         style="stop-color:#5090d0;stop-opacity:1;"
         offset="0"
         id="stop61" /></linearGradient><linearGradient
       id="swatch30"
       inkscape:swatch="solid"><stop
         style="stop-color:#f9f9f9;stop-opacity:1;"
         offset="0"
         id="stop30" /></linearGradient><inkscape:perspective
       sodipodi:type="inkscape:persp3d"
       inkscape:vp_x="44.06818 : 315.96746 : 1"
       inkscape:vp_y="0 : 1000 : 0"
       inkscape:vp_z="480.74134 : 298.68846 : 1"
       inkscape:persp3d-origin="250 : 166.66667 : 1"
       id="perspective17" /><linearGradient
       id="a"
       x1="15.997"
       y1="993"
       x2="15.997"
       y2="1021"
       gradientTransform="matrix(1,0,0,-1,0,1023)"
       gradientUnits="userSpaceOnUse"><stop
         offset="0"
         stop-color="#537895"
         id="stop1" /><stop
         offset="1"
         stop-color="#09203f"
         id="stop2" /></linearGradient></defs><g
     id="g4"
     transform="matrix(20.154485,0,0,20.154485,-73.910644,-73.522828)"><path
       id="Rectangle"
       d="m 21.714,8.571 h 1.143 a 0.571,0.571 0 0 1 0.571,0.571 v 0 A 0.571,0.571 0 0 1 22.857,9.713 H 21.714 A 0.571,0.571 0 0 1 21.143,9.142 v 0 a 0.571,0.571 0 0 1 0.571,-0.571 z"
       style="fill:#56b3b4" /><path
       id="Rectangle-2"
       data-name="Rectangle"
       d="m 4.571,26.857 h 5.714 a 0.571,0.571 0 0 1 0.571,0.571 v 0 a 0.571,0.571 0 0 1 -0.571,0.571 H 4.571 A 0.571,0.571 0 0 1 4,27.429 v 0 a 0.571,0.571 0 0 1 0.571,-0.572 z"
       style="fill:#ea5e5e" /><path
       id="Rectangle-3"
       data-name="Rectangle"
       d="m 18.286,17.714 h 3.429 a 0.571,0.571 0 0 1 0.571,0.571 v 0 a 0.571,0.571 0 0 1 -0.571,0.571 h -3.429 a 0.571,0.571 0 0 1 -0.571,-0.571 v 0 a 0.571,0.571 0 0 1 0.571,-0.571 z"
       style="fill:#bf85bf" /><path
       id="Rectangle-4"
       data-name="Rectangle"
       d="M 11.429,17.714 H 16 a 0.571,0.571 0 0 1 0.571,0.571 v 0 A 0.571,0.571 0 0 1 16,18.856 h -4.571 a 0.571,0.571 0 0 1 -0.571,-0.571 v 0 a 0.571,0.571 0 0 1 0.571,-0.571 z"
       style="fill:#ea5e5e" /><path
       id="Rectangle-5"
       data-name="Rectangle"
       d="m 4.571,17.714 h 4.572 a 0.571,0.571 0 0 1 0.571,0.571 v 0 A 0.571,0.571 0 0 1 9.143,18.856 H 4.571 A 0.571,0.571 0 0 1 4,18.286 v 0 a 0.571,0.571 0 0 1 0.571,-0.572 z"
       style="fill:#56b3b4" /><path
       id="Rectangle-6"
       data-name="Rectangle"
       d="m 4.571,22.286 h 5.714 a 0.571,0.571 0 0 1 0.571,0.571 v 0 a 0.571,0.571 0 0 1 -0.571,0.571 H 4.571 A 0.571,0.571 0 0 1 4,22.857 v 0 a 0.571,0.571 0 0 1 0.571,-0.571 z"
       style="fill:#bf85bf" /><path
       id="Rectangle-7"
       data-name="Rectangle"
       d="m 4.571,13.143 h 5.714 a 0.571,0.571 0 0 1 0.571,0.571 v 0 a 0.571,0.571 0 0 1 -0.571,0.571 H 4.571 A 0.571,0.571 0 0 1 4,13.714 v 0 a 0.571,0.571 0 0 1 0.571,-0.571 z"
       style="fill:#bf85bf" /><path
       id="Rectangle-8"
       data-name="Rectangle"
       d="m 10.286,6.286 h 11.428 a 0.571,0.571 0 0 1 0.571,0.571 v 0 A 0.571,0.571 0 0 1 21.714,7.428 H 10.286 A 0.571,0.571 0 0 1 9.715,6.857 v 0 a 0.571,0.571 0 0 1 0.571,-0.571 z"
       style="fill:#f7ba3e" /><path
       id="Rectangle-9"
       data-name="Rectangle"
       d="M 4.571,6.286 H 8 a 0.571,0.571 0 0 1 0.571,0.571 v 0 A 0.571,0.571 0 0 1 8,7.429 H 4.571 A 0.571,0.571 0 0 1 4,6.857 v 0 A 0.571,0.571 0 0 1 4.571,6.286 Z"
       style="fill:#ea5e5e" /><path
       id="Rectangle-10"
       data-name="Rectangle"
       d="m 9.143,24.571 h 1.143 a 0.571,0.571 0 0 1 0.571,0.571 v 0 a 0.571,0.571 0 0 1 -0.571,0.571 H 9.143 A 0.571,0.571 0 0 1 8.572,25.142 v 0 a 0.571,0.571 0 0 1 0.571,-0.571 z"
       style="fill:#f7ba3e" /><path
       id="Rectangle-11"
       data-name="Rectangle"
       d="m 9.143,10.857 h 1.143 a 0.571,0.571 0 0 1 0.571,0.571 v 0 a 0.571,0.571 0 0 1 -0.571,0.571 H 9.143 A 0.571,0.571 0 0 1 8.572,11.428 v 0 a 0.571,0.571 0 0 1 0.571,-0.571 z"
       style="fill:#56b3b4" /><path
       id="Rectangle-12"
       data-name="Rectangle"
       d="m 4.571,24.571 h 2.286 a 0.571,0.571 0 0 1 0.571,0.571 v 0 A 0.571,0.571 0 0 1 6.857,25.713 H 4.571 A 0.571,0.571 0 0 1 4,25.143 v 0 a 0.571,0.571 0 0 1 0.571,-0.572 z"
       style="fill:#56b3b4" /><path
       id="Rectangle-13"
       data-name="Rectangle"
       d="m 4.571,10.857 h 2.286 a 0.571,0.571 0 0 1 0.571,0.571 v 0 A 0.571,0.571 0 0 1 6.857,12 H 4.571 A 0.571,0.571 0 0 1 4,11.429 v 0 a 0.571,0.571 0 0 1 0.571,-0.572 z"
       style="fill:#f7ba3e" /><path
       id="Rectangle-14"
       data-name="Rectangle"
       d="m 19.429,24.571 h 1.143 a 0.571,0.571 0 0 1 0.571,0.571 v 0 a 0.571,0.571 0 0 1 -0.571,0.571 h -1.143 a 0.571,0.571 0 0 1 -0.571,-0.571 v 0 a 0.571,0.571 0 0 1 0.571,-0.571 z"
       style="opacity:0.28137253;isolation:isolate;fill:#4d616e" /><path
       id="Rectangle-15"
       data-name="Rectangle"
       d="m 12.571,24.571 h 4.571 a 0.571,0.571 0 0 1 0.571,0.571 v 0 a 0.571,0.571 0 0 1 -0.571,0.571 H 12.571 A 0.571,0.571 0 0 1 12,25.143 v 0 a 0.571,0.571 0 0 1 0.571,-0.572 z"
       style="opacity:0.28137253;isolation:isolate;fill:#4d616e" /><path
       id="Rectangle-16"
       data-name="Rectangle"
       d="m 22.857,24.571 h 4.571 a 0.571,0.571 0 0 1 0.571,0.571 v 0 a 0.571,0.571 0 0 1 -0.571,0.571 h -4.571 a 0.571,0.571 0 0 1 -0.571,-0.571 v 0 a 0.571,0.571 0 0 1 0.571,-0.571 z"
       style="opacity:0.28137253;isolation:isolate;fill:#4d616e" /><path
       id="Rectangle-17"
       data-name="Rectangle"
       d="m 13.714,15.429 h 9.143 A 0.571,0.571 0 0 1 23.428,16 v 0 a 0.571,0.571 0 0 1 -0.571,0.571 H 13.714 A 0.571,0.571 0 0 1 13.143,16 v 0 a 0.571,0.571 0 0 1 0.571,-0.571 z"
       style="fill:#56b3b4" /><path
       id="Rectangle-18"
       data-name="Rectangle"
       d="m 8,15.429 h 3.429 A 0.571,0.571 0 0 1 12,16 v 0 a 0.571,0.571 0 0 1 -0.571,0.571 H 8 A 0.571,0.571 0 0 1 7.429,16 v 0 A 0.571,0.571 0 0 1 8,15.429 Z"
       style="fill:#f7ba3e" /><path
       id="Rectangle-19"
       data-name="Rectangle"
       d="M 4.571,15.429 H 5.714 A 0.571,0.571 0 0 1 6.286,16 v 0 A 0.571,0.571 0 0 1 5.715,16.571 H 4.571 A 0.571,0.571 0 0 1 4,16 v 0 a 0.571,0.571 0 0 1 0.571,-0.571 z"
       style="fill:#ea5e5e" /><path
       id="Rectangle-20"
       data-name="Rectangle"
       d="m 14.857,8.571 h 4.571 A 0.571,0.571 0 0 1 20,9.143 v 0 A 0.571,0.571 0 0 1 19.429,9.714 H 14.857 A 0.571,0.571 0 0 1 14.286,9.143 v 0 a 0.571,0.571 0 0 1 0.571,-0.572 z"
       style="fill:#bf85bf" /><path
       id="Rectangle-21"
       data-name="Rectangle"
       d="m 4.571,8.571 h 8 a 0.571,0.571 0 0 1 0.571,0.571 v 0 a 0.571,0.571 0 0 1 -0.571,0.571 h -8 A 0.571,0.571 0 0 1 4,9.143 v 0 A 0.571,0.571 0 0 1 4.571,8.571 Z"
       style="fill:#56b3b4" /><path
       id="Rectangle-22"
       data-name="Rectangle"
       d="m 8,20 h 10.286 a 0.571,0.571 0 0 1 0.571,0.571 v 0 a 0.571,0.571 0 0 1 -0.571,0.571 H 8 A 0.571,0.571 0 0 1 7.429,20.571 v 0 A 0.571,0.571 0 0 1 8,20 Z"
       style="fill:#f7ba3e" /><path
       id="Rectangle-23"
       data-name="Rectangle"
       d="m 4.571,20 h 1.143 a 0.571,0.571 0 0 1 0.571,0.571 v 0 A 0.571,0.571 0 0 1 5.714,21.142 H 4.571 A 0.571,0.571 0 0 1 4,20.571 v 0 A 0.571,0.571 0 0 1 4.571,20 Z"
       style="fill:#bf85bf" /><path
       id="Rectangle-24"
       data-name="Rectangle"
       d="M 18.286,10.857 H 24 a 0.571,0.571 0 0 1 0.571,0.571 v 0 A 0.571,0.571 0 0 1 24,12 h -5.714 a 0.571,0.571 0 0 1 -0.571,-0.571 v 0 a 0.571,0.571 0 0 1 0.571,-0.572 z"
       style="fill:#ea5e5e" /><path
       id="Rectangle-25"
       data-name="Rectangle"
       d="M 18.286,13.143 H 24 a 0.571,0.571 0 0 1 0.571,0.571 v 0 A 0.571,0.571 0 0 1 24,14.285 h -5.714 a 0.571,0.571 0 0 1 -0.571,-0.571 v 0 a 0.571,0.571 0 0 1 0.571,-0.571 z"
       style="fill:#f7ba3e" /><path
       id="Rectangle-26"
       data-name="Rectangle"
       d="m 4.571,4 h 13.715 a 0.571,0.571 0 0 1 0.571,0.571 v 0 A 0.571,0.571 0 0 1 18.286,5.142 H 4.571 A 0.571,0.571 0 0 1 4,4.571 v 0 A 0.571,0.571 0 0 1 4.571,4 Z"
       style="fill:#56b3b4" /><path
       id="Rectangle-27"
       data-name="Rectangle"
       d="m 20.571,4 h 6.857 A 0.571,0.571 0 0 1 28,4.571 v 0 A 0.571,0.571 0 0 1 27.429,5.142 H 20.571 A 0.571,0.571 0 0 1 20,4.571 v 0 A 0.571,0.571 0 0 1 20.571,4 Z"
       style="opacity:0.28137253;isolation:isolate;fill:#4d616e" /><path
       id="Rectangle-28"
       data-name="Rectangle"
       d="m 20.571,20 h 2.286 a 0.571,0.571 0 0 1 0.571,0.571 v 0 a 0.571,0.571 0 0 1 -0.571,0.571 H 20.571 A 0.571,0.571 0 0 1 20,20.571 v 0 A 0.571,0.571 0 0 1 20.571,20 Z"
       style="opacity:0.28137253;isolation:isolate;fill:#4d616e" /><path
       id="Rectangle-29"
       data-name="Rectangle"
       d="m 25.143,20 h 2.286 A 0.571,0.571 0 0 1 28,20.571 v 0 a 0.571,0.571 0 0 1 -0.571,0.571 h -2.286 a 0.571,0.571 0 0 1 -0.571,-0.571 v 0 A 0.571,0.571 0 0 1 25.143,20 Z"
       style="opacity:0.28137253;isolation:isolate;fill:#4d616e" /><path
       id="Rectangle-30"
       data-name="Rectangle"
       d="m 24,17.714 h 3.429 A 0.571,0.571 0 0 1 28,18.285 v 0 a 0.571,0.571 0 0 1 -0.571,0.571 H 24 a 0.571,0.571 0 0 1 -0.571,-0.571 v 0 A 0.571,0.571 0 0 1 24,17.714 Z"
       style="opacity:0.28137253;isolation:isolate;fill:#4d616e" /><path
       id="Rectangle-31"
       data-name="Rectangle"
       d="m 24,6.286 h 3.429 A 0.571,0.571 0 0 1 28,6.857 v 0 A 0.571,0.571 0 0 1 27.429,7.428 H 24 A 0.571,0.571 0 0 1 23.429,6.857 v 0 A 0.571,0.571 0 0 1 24,6.286 Z"
       style="opacity:0.28137253;isolation:isolate;fill:#4d616e" /><path
       id="Rectangle-32"
       data-name="Rectangle"
       d="m 25.143,15.429 h 2.286 A 0.571,0.571 0 0 1 28,16 v 0 a 0.571,0.571 0 0 1 -0.571,0.571 H 25.143 A 0.571,0.571 0 0 1 24.571,16 v 0 a 0.571,0.571 0 0 1 0.572,-0.571 z"
       style="opacity:0.28137253;isolation:isolate;fill:#4d616e" /><path
       id="Rectangle-33"
       data-name="Rectangle"
       d="m 25.143,8.571 h 2.286 A 0.571,0.571 0 0 1 28,9.143 v 0 A 0.571,0.571 0 0 1 27.429,9.714 H 25.143 A 0.571,0.571 0 0 1 24.572,9.143 v 0 a 0.571,0.571 0 0 1 0.571,-0.572 z"
       style="opacity:0.28137253;isolation:isolate;fill:#4d616e" /><path
       id="Rectangle-34"
       data-name="Rectangle"
       d="m 26.286,10.857 h 1.143 A 0.571,0.571 0 0 1 28,11.428 v 0 a 0.571,0.571 0 0 1 -0.571,0.571 h -1.143 a 0.571,0.571 0 0 1 -0.571,-0.571 v 0 a 0.571,0.571 0 0 1 0.571,-0.571 z"
       style="opacity:0.28137253;isolation:isolate;fill:#4d616e" /><path
       id="Rectangle-35"
       data-name="Rectangle"
       d="m 26.286,13.143 h 1.143 A 0.571,0.571 0 0 1 28,13.714 v 0 a 0.571,0.571 0 0 1 -0.571,0.571 h -1.143 a 0.571,0.571 0 0 1 -0.571,-0.571 v 0 a 0.571,0.571 0 0 1 0.571,-0.571 z"
       style="opacity:0.28137253;isolation:isolate;fill:#4d616e" /><path
       id="Rectangle-36"
       data-name="Rectangle"
       d="M 17.143,22.286 H 27.429 A 0.571,0.571 0 0 1 28,22.857 v 0 a 0.571,0.571 0 0 1 -0.571,0.571 H 17.143 a 0.571,0.571 0 0 1 -0.571,-0.571 v 0 a 0.571,0.571 0 0 1 0.571,-0.571 z"
       style="opacity:0.28137253;isolation:isolate;fill:#4d616e" /><path
       id="Rectangle-37"
       data-name="Rectangle"
       d="m 12.571,22.286 h 2.286 a 0.571,0.571 0 0 1 0.571,0.571 v 0 a 0.571,0.571 0 0 1 -0.571,0.571 H 12.571 A 0.571,0.571 0 0 1 12,22.857 v 0 a 0.571,0.571 0 0 1 0.571,-0.571 z"
       style="opacity:0.28137253;isolation:isolate;fill:#4d616e" /><path
       id="Rectangle-38"
       data-name="Rectangle"
       d="m 21.714,26.857 h 5.714 a 0.571,0.571 0 0 1 0.571,0.571 v 0 a 0.571,0.571 0 0 1 -0.571,0.571 h -5.714 a 0.571,0.571 0 0 1 -0.571,-0.571 v 0 a 0.571,0.571 0 0 1 0.571,-0.571 z"
       style="opacity:0.28137253;isolation:isolate;fill:#4d616e" /><path
       id="Rectangle-39"
       data-name="Rectangle"
       d="m 12.571,26.857 h 6.857 a 0.571,0.571 0 0 1 0.571,0.571 v 0 a 0.571,0.571 0 0 1 -0.571,0.571 H 12.571 A 0.571,0.571 0 0 1 12,27.429 v 0 a 0.571,0.571 0 0 1 0.571,-0.572 z"
       style="opacity:0.28137253;isolation:isolate;fill:#4d616e" /><path
       id="Rectangle-40"
       data-name="Rectangle"
       d="M 12.571,10.857 H 16 a 0.571,0.571 0 0 1 0.571,0.571 v 0 A 0.571,0.571 0 0 1 16,12 H 12.571 A 0.571,0.571 0 0 1 12,11.429 v 0 a 0.571,0.571 0 0 1 0.571,-0.572 z"
       style="opacity:0.28137253;isolation:isolate;fill:#4d616e" /><path
       id="Rectangle-41"
       data-name="Rectangle"
       d="M 12.571,13.143 H 16 a 0.571,0.571 0 0 1 0.571,0.571 v 0 A 0.571,0.571 0 0 1 16,14.285 H 12.571 A 0.571,0.571 0 0 1 12,13.714 v 0 a 0.571,0.571 0 0 1 0.571,-0.571 z"
       style="opacity:0.28137253;isolation:isolate;fill:#4d616e" /></g></svg>
