<?xml version="1.0" encoding="UTF-8" standalone="no"?>
<!-- Uploaded to: SVG Repo, www.svgrepo.com, Generator: SVG Repo Mixer Tools -->

<svg
   fill="#000000"
   version="1.1"
   id="Capa_1"
   width="500"
   height="500"
   viewBox="0 0 51.64125 51.641875"
   xml:space="preserve"
   sodipodi:docname="provider.js.svg"
   inkscape:version="1.3.2 (091e20ef0f, 2023-11-25, custom)"
   xmlns:inkscape="http://www.inkscape.org/namespaces/inkscape"
   xmlns:sodipodi="http://sodipodi.sourceforge.net/DTD/sodipodi-0.dtd"
   xmlns="http://www.w3.org/2000/svg"
   xmlns:svg="http://www.w3.org/2000/svg"><defs
   id="defs1"><linearGradient
     id="swatch61"
     inkscape:swatch="solid"><stop
       style="stop-color:#5090d0;stop-opacity:1;"
       offset="0"
       id="stop61" /></linearGradient><linearGradient
     id="swatch30"
     inkscape:swatch="solid"><stop
       style="stop-color:#f9f9f9;stop-opacity:1;"
       offset="0"
       id="stop30" /></linearGradient><inkscape:perspective
     sodipodi:type="inkscape:persp3d"
     inkscape:vp_x="44.06818 : 315.96746 : 1"
     inkscape:vp_y="0 : 1000 : 0"
     inkscape:vp_z="480.74134 : 298.68846 : 1"
     inkscape:persp3d-origin="250 : 166.66667 : 1"
     id="perspective17" /><inkscape:perspective
     sodipodi:type="inkscape:persp3d"
     inkscape:vp_x="44.06818 : 315.96746 : 1"
     inkscape:vp_y="0 : 1000 : 0"
     inkscape:vp_z="480.74134 : 298.68846 : 1"
     inkscape:persp3d-origin="250 : 166.66667 : 1"
     id="perspective17-9" /></defs><sodipodi:namedview
   id="namedview1"
   pagecolor="#505050"
   bordercolor="#eeeeee"
   borderopacity="1"
   inkscape:showpageshadow="0"
   inkscape:pageopacity="0"
   inkscape:pagecheckerboard="0"
   inkscape:deskcolor="#505050"
   inkscape:zoom="0.834386"
   inkscape:cx="272.65558"
   inkscape:cy="306.21319"
   inkscape:window-width="1352"
   inkscape:window-height="734"
   inkscape:window-x="4"
   inkscape:window-y="24"
   inkscape:window-maximized="1"
   inkscape:current-layer="Capa_1"
   showguides="true"><sodipodi:guide
     position="25.499223,37.901836"
     orientation="1,0"
     id="guide1"
     inkscape:locked="false" /></sodipodi:namedview>

<path
   id="path1-2"
   style="fill:#ffc340;fill-opacity:1;stroke:none;stroke-width:0.642978;stroke-opacity:1"
   d="M 26.111514 2.3658434 C 25.973413 2.3705012 25.836234 2.4048347 25.709474 2.4681185 L 3.6017083 13.975986 C 3.277408 14.139181 3.0726957 14.470584 3.0707653 14.832313 C 3.0707653 14.838013 3.0733877 14.843301 3.0733877 14.848451 C 3.0341367 14.955751 3.1121564 15.134078 3.0064146 15.186947 L 3.1345107 22.880982 C 3.1364407 23.234356 3.3314676 23.558154 3.6422552 23.725205 L 8.3574005 26.1905 L 3.6017083 28.666082 C 3.2774083 28.829278 3.0726957 29.160479 3.0707653 29.522208 C 3.0707653 29.527908 3.0735894 29.533146 3.0735894 29.538346 C 3.0343386 29.645644 3.1123572 29.823972 3.0066164 29.876842 L 3.1345107 37.571078 C 3.1364407 37.924454 3.3314678 38.248252 3.6422552 38.415301 L 25.623135 49.907636 C 25.766626 49.984096 25.923851 50.02262 26.080852 50.02262 L 26.082667 50.02262 C 26.148947 50.0978 26.222867 50.168635 26.311021 50.22132 C 26.462876 50.31192 26.634053 50.357283 26.805855 50.357283 C 26.964145 50.357283 27.121128 50.318389 27.263975 50.241291 L 35.346332 45.86444 L 33.734742 43.546002 L 33.734742 44.544748 L 27.770509 47.775795 L 27.770509 41.483959 L 31.035042 39.66217 L 30.941441 39.527417 A 1.8076464 1.8076464 0 0 1 30.939424 39.5254 C 30.546733 38.958993 30.48435 38.281811 30.65499 37.66488 L 26.795164 39.819718 L 6.1626208 29.535925 L 10.461202 27.29031 L 25.623337 35.217741 C 25.766828 35.294201 25.923849 35.332725 26.080852 35.332725 L 26.082667 35.332725 C 26.148947 35.407905 26.222867 35.478539 26.311021 35.531224 C 26.462876 35.621824 26.634053 35.667389 26.805855 35.667389 C 26.964145 35.667389 27.121128 35.628288 27.263975 35.551195 L 33.734742 32.047213 L 33.734742 35.879 L 34.851498 35.879 L 34.851498 23.548897 A 1.8076464 1.8076464 0 0 1 34.851498 23.544862 C 34.853593 22.285597 35.910671 21.228726 37.169936 21.226626 A 1.8076464 1.8076464 0 0 1 37.17397 21.226626 L 41.946002 21.226626 L 41.946002 18.883578 L 47.543094 15.760253 L 47.543094 22.374044 L 46.675067 22.844268 C 46.748108 23.066256 46.788839 23.3016 46.789244 23.544862 A 1.8076464 1.8076464 0 0 1 46.789244 23.545266 A 1.8076464 1.8076464 0 0 0 46.789244 23.545467 A 1.8076464 1.8076464 0 0 0 46.789244 23.545669 A 1.8076464 1.8076464 0 0 0 46.789244 23.545871 A 1.8076464 1.8076464 0 0 1 46.789244 23.546476 A 1.8076464 1.8076464 0 0 0 46.789244 23.546678 A 1.8076464 1.8076464 0 0 0 46.789244 23.546879 A 1.8076464 1.8076464 0 0 0 46.789244 23.547081 A 1.8076464 1.8076464 0 0 1 46.789244 23.547686 A 1.8076464 1.8076464 0 0 0 46.789244 23.547888 A 1.8076464 1.8076464 0 0 0 46.789244 23.54809 A 1.8076464 1.8076464 0 0 0 46.789244 23.548292 A 1.8076464 1.8076464 0 0 1 46.789244 23.548897 L 46.789244 24.977723 L 48.967078 23.798432 C 49.27851 23.629454 49.473612 23.303713 49.473612 22.950981 L 49.473612 14.146243 C 49.473612 14.137943 49.470183 14.130229 49.470183 14.121229 C 49.469539 14.114129 49.4722 14.107546 49.4722 14.099846 C 49.471 14.072226 49.459808 14.047154 49.457878 14.020164 C 49.449578 13.967484 49.443901 13.914992 49.427821 13.86423 C 49.416241 13.82889 49.401257 13.797223 49.386467 13.763165 C 49.366517 13.718185 49.346715 13.673978 49.319695 13.63285 C 49.299755 13.60073 49.275927 13.571835 49.252117 13.542275 C 49.221877 13.505015 49.19032 13.470344 49.15428 13.437579 C 49.12597 13.411879 49.095673 13.388658 49.063503 13.366168 C 49.042913 13.352028 49.025515 13.332206 49.002985 13.319368 C 48.982395 13.306508 48.958744 13.301239 48.936214 13.290319 C 48.917554 13.280619 48.902627 13.26719 48.883967 13.25885 L 26.519001 2.4410872 C 26.388701 2.386155 26.249615 2.3611856 26.111514 2.3658434 z M 26.178487 4.3897611 L 46.278877 14.252149 L 41.848569 16.725512 L 21.724577 6.7164696 L 26.178487 4.3897611 z M 13.844753 10.832892 L 32.800549 21.776935 L 26.794962 25.129824 L 6.1626208 14.845829 L 13.844753 10.832892 z M 33.734742 23.465584 L 33.734742 29.854854 L 27.770509 33.0859 L 27.770509 26.793862 L 33.734742 23.465584 z M 38.464815 24.839944 L 38.464815 37.685457 A 1.8076464 1.8076464 0 0 1 36.658157 39.492115 L 35.320309 39.492115 L 38.545102 44.13242 L 46.05718 40.064412 L 46.454983 39.492115 L 44.982383 39.492115 A 1.8076464 1.8076464 0 0 1 43.854533 39.062439 L 41.946002 40.096487 L 41.946002 33.573674 L 43.175724 32.887402 L 43.175724 30.674669 L 41.946002 31.361142 L 41.946002 27.600565 L 42.705904 27.189044 L 43.175724 27.419617 L 43.175724 24.839944 L 42.991145 24.839944 L 41.946002 25.406189 L 41.946002 24.839944 L 38.464815 24.839944 z M 46.789244 26.935474 L 46.789244 30.870948 L 47.543296 30.450147 L 47.543296 35.879 L 48.920076 35.879 C 49.11324 35.87855 49.297192 35.908294 49.473612 35.956261 L 49.473612 28.836137 C 49.473612 28.827837 49.470183 28.819911 49.470183 28.810921 C 49.469539 28.803821 49.4722 28.797652 49.4722 28.789942 C 49.471 28.762322 49.459818 28.73724 49.457878 28.71026 C 49.449578 28.65758 49.443911 28.604882 49.427821 28.554124 C 49.416241 28.518784 49.401257 28.487319 49.386467 28.453261 C 49.366517 28.408281 49.346725 28.363866 49.319695 28.322744 C 49.299755 28.290624 49.275917 28.261729 49.252117 28.232169 C 49.221877 28.194909 49.19032 28.160239 49.15428 28.127473 C 49.12597 28.101773 49.095663 28.078552 49.063503 28.056062 C 49.042913 28.041922 49.025515 28.022112 49.002985 28.009262 C 48.982395 27.996402 48.958542 27.991345 48.936012 27.980415 C 48.917352 27.970715 48.902829 27.957094 48.884169 27.948744 L 46.789244 26.935474 z " /><path
   id="path4"
   style="color:#000000;fill:#ffc340;stroke-linecap:round;stroke-linejoin:round;stroke-miterlimit:10;-inkscape-stroke:none;paint-order:stroke markers fill;fill-opacity:1"
   d="M 37.173768 23.033285 A 0.51647165 0.51647165 0 0 0 36.658157 23.548897 L 36.658157 37.685457 L 32.849568 37.685457 A 0.51647165 0.51647165 0 0 0 32.425742 38.496194 L 40.462912 50.058527 A 0.51647165 0.51647165 0 0 0 41.310565 50.058527 L 49.349551 38.496194 A 0.51647165 0.51647165 0 0 0 48.923909 37.685457 L 44.982383 37.685457 L 44.982383 23.548897 A 0.51647165 0.51647165 0 0 0 44.464754 23.033285 L 37.173768 23.033285 z " /></svg>
