<?xml version="1.0" encoding="UTF-8" standalone="no"?>
<!-- Created with Inkscape (http://www.inkscape.org/) -->

<svg
   width="500"
   height="500"
   viewBox="0 0 500 500"
   version="1.1"
   id="svg1"
   inkscape:version="1.3.2 (091e20ef0f, 2023-11-25, custom)"
   sodipodi:docname="pyc.svg"
   xml:space="preserve"
   xmlns:inkscape="http://www.inkscape.org/namespaces/inkscape"
   xmlns:sodipodi="http://sodipodi.sourceforge.net/DTD/sodipodi-0.dtd"
   xmlns="http://www.w3.org/2000/svg"
   xmlns:svg="http://www.w3.org/2000/svg"><sodipodi:namedview
     id="namedview1"
     pagecolor="#505050"
     bordercolor="#eeeeee"
     borderopacity="1"
     inkscape:showpageshadow="0"
     inkscape:pageopacity="0"
     inkscape:pagecheckerboard="0"
     inkscape:deskcolor="#505050"
     inkscape:document-units="px"
     inkscape:zoom="0.64175296"
     inkscape:cx="232.17657"
     inkscape:cy="153.48585"
     inkscape:window-width="1362"
     inkscape:window-height="744"
     inkscape:window-x="0"
     inkscape:window-y="20"
     inkscape:window-maximized="1"
     inkscape:current-layer="svg1"
     showguides="true"><sodipodi:guide
       position="250.02518,350.60736"
       orientation="-0.99997769,0.0066803918"
       id="guide30"
       inkscape:locked="false" /><sodipodi:guide
       position="66.396728,247.89992"
       orientation="0,-1"
       id="guide53"
       inkscape:locked="false" /></sodipodi:namedview><defs
     id="defs1"><linearGradient
       id="swatch61"
       inkscape:swatch="solid"><stop
         style="stop-color:#5090d0;stop-opacity:1;"
         offset="0"
         id="stop61" /></linearGradient><linearGradient
       id="swatch30"
       inkscape:swatch="solid"><stop
         style="stop-color:#f9f9f9;stop-opacity:1;"
         offset="0"
         id="stop30" /></linearGradient><inkscape:perspective
       sodipodi:type="inkscape:persp3d"
       inkscape:vp_x="44.06818 : 315.96746 : 1"
       inkscape:vp_y="0 : 1000 : 0"
       inkscape:vp_z="480.74134 : 298.68846 : 1"
       inkscape:persp3d-origin="250 : 166.66667 : 1"
       id="perspective17" /><inkscape:perspective
       sodipodi:type="inkscape:persp3d"
       inkscape:vp_x="44.06818 : 315.96746 : 1"
       inkscape:vp_y="0 : 1000 : 0"
       inkscape:vp_z="480.74134 : 298.68846 : 1"
       inkscape:persp3d-origin="250 : 166.66667 : 1"
       id="perspective17-0" /></defs><path
     id="rect53-0"
     style="fill:#9f9f9f;fill-opacity:0.31372502;fill-rule:nonzero;stroke:#9f9f9f;stroke-width:22.0622;stroke-linecap:butt;stroke-linejoin:round;stroke-dasharray:none;stroke-opacity:1;paint-order:markers fill stroke"
     d="m 92.275086,40.838043 c -1.64895,0 -3.17324,0.591372 -4.51758,1.546875 h -48.26953 c -5.972918,0 -10.78125,5.363663 -10.78125,12.02539 V 196.34195 c 0,6.66173 4.808332,12.02344 10.78125,12.02344 h 43.39063 v 244.07226 c 0,6.7206 4.19106,12.13086 9.39648,12.13086 H 433.95868 c 5.20542,0 9.39453,-5.41026 9.39453,-12.13086 V 52.968902 c 0,-6.720598 -4.18911,-12.130859 -9.39453,-12.130859 z" /><path
     id="rect14"
     style="fill:#615cd8;fill-opacity:1;stroke:none;stroke-width:42.0474;stroke-linejoin:round;stroke-dasharray:none;stroke-opacity:1;paint-order:markers fill stroke"
     d="m 306.23751,236.68048 c -11.92801,0 -21.53082,9.23766 -21.53082,20.71261 v 29.59326 h 69.47843 v 10.53446 h -69.47843 v 0.0302 h -39.45204 l -0.25324,0.47522 v 119.87889 l 0.005,0.25421 h 43.94206 v -34.44441 l 31.14421,-34.41773 h 54.71605 l 23.59313,-26.86711 v -4.16527 -81.54593 l -0.0673,-0.0384 z m -8.07522,12.55267 h 21.53894 v 21.53894 h -21.53894 z"
     sodipodi:nodetypes="sscccccccccccccccccsccccc" /><path
     id="use15"
     style="fill:#d6d85c;fill-opacity:1;stroke:none;stroke-width:42.0474;stroke-linejoin:round;stroke-dasharray:none;stroke-opacity:1;paint-order:markers fill stroke"
     d="m 396.24338,474.60062 c 11.92802,0 21.53081,-9.23766 21.53081,-20.71261 v -29.59328 h -69.47842 v -10.53444 h 69.47842 v -0.0301 h 39.45205 l 0.25324,-0.47522 V 293.376 l -0.005,-0.25422 h -43.94183 v 34.44444 l -31.14378,34.41773 h -54.71603 l -23.59315,26.8671 v 4.16528 81.54594 l 0.0673,0.0384 z m 8.07522,-12.55267 H 382.77965 V 440.509 h 21.53895 z"
     sodipodi:nodetypes="sscccccccccccccccccsccccc" /></svg>
