<?xml version="1.0" encoding="UTF-8" standalone="no"?>
<!-- Created with Inkscape (http://www.inkscape.org/) -->

<svg
   width="500"
   height="500"
   viewBox="0 0 500 500"
   version="1.1"
   id="svg1"
   inkscape:version="1.3.2 (091e20ef0f, 2023-11-25, custom)"
   sodipodi:docname="pyc.svg"
   xml:space="preserve"
   xmlns:inkscape="http://www.inkscape.org/namespaces/inkscape"
   xmlns:sodipodi="http://sodipodi.sourceforge.net/DTD/sodipodi-0.dtd"
   xmlns:xlink="http://www.w3.org/1999/xlink"
   xmlns="http://www.w3.org/2000/svg"
   xmlns:svg="http://www.w3.org/2000/svg"><sodipodi:namedview
     id="namedview1"
     pagecolor="#505050"
     bordercolor="#eeeeee"
     borderopacity="1"
     inkscape:showpageshadow="0"
     inkscape:pageopacity="0"
     inkscape:pagecheckerboard="0"
     inkscape:deskcolor="#505050"
     inkscape:document-units="px"
     inkscape:zoom="0.64175296"
     inkscape:cx="232.17657"
     inkscape:cy="153.48585"
     inkscape:window-width="1362"
     inkscape:window-height="744"
     inkscape:window-x="0"
     inkscape:window-y="20"
     inkscape:window-maximized="1"
     inkscape:current-layer="svg1"
     showguides="true"><sodipodi:guide
       position="250.02518,350.60736"
       orientation="-0.99997769,0.0066803918"
       id="guide30"
       inkscape:locked="false" /><sodipodi:guide
       position="66.396728,247.89992"
       orientation="0,-1"
       id="guide53"
       inkscape:locked="false" /></sodipodi:namedview><defs
     id="defs1"><linearGradient
       id="linearGradient1"
       inkscape:collect="always"><stop
         style="stop-color:#00559f;stop-opacity:1;"
         offset="0"
         id="stop1" /><stop
         style="stop-color:#55009f;stop-opacity:1;"
         offset="1"
         id="stop2" /></linearGradient><linearGradient
       id="swatch61"
       inkscape:swatch="solid"><stop
         style="stop-color:#5090d0;stop-opacity:1;"
         offset="0"
         id="stop61" /></linearGradient><linearGradient
       id="swatch30"
       inkscape:swatch="solid"><stop
         style="stop-color:#f9f9f9;stop-opacity:1;"
         offset="0"
         id="stop30" /></linearGradient><inkscape:perspective
       sodipodi:type="inkscape:persp3d"
       inkscape:vp_x="44.06818 : 315.96746 : 1"
       inkscape:vp_y="0 : 1000 : 0"
       inkscape:vp_z="480.74134 : 298.68846 : 1"
       inkscape:persp3d-origin="250 : 166.66667 : 1"
       id="perspective17" /><inkscape:perspective
       sodipodi:type="inkscape:persp3d"
       inkscape:vp_x="44.06818 : 315.96746 : 1"
       inkscape:vp_y="0 : 1000 : 0"
       inkscape:vp_z="480.74134 : 298.68846 : 1"
       inkscape:persp3d-origin="250 : 166.66667 : 1"
       id="perspective17-0" /><linearGradient
       inkscape:collect="always"
       xlink:href="#linearGradient1"
       id="linearGradient2"
       x1="17.675626"
       y1="252.70328"
       x2="454.38431"
       y2="252.70328"
       gradientUnits="userSpaceOnUse" /></defs><path
     id="path2"
     style="color:#000000;fill:url(#linearGradient2);fill-opacity:0.313725;stroke-linejoin:round;-inkscape-stroke:none;paint-order:markers fill stroke;opacity:1"
     d="M 92.275391 29.806641 C 89.710693 29.806641 87.413356 30.468164 85.300781 31.353516 L 39.488281 31.353516 C 26.911458 31.353516 17.675781 42.440401 17.675781 54.410156 L 17.675781 196.3418 C 17.675781 208.31154 26.913863 219.39648 39.488281 219.39648 L 71.847656 219.39648 L 71.847656 452.4375 C 71.847656 458.09083 73.535276 463.42998 76.904297 467.7793 C 80.273318 472.1286 85.850964 475.59961 92.275391 475.59961 L 433.95898 475.59961 C 440.38342 475.59961 445.96172 472.12704 449.33008 467.77734 C 452.69842 463.42765 454.38477 458.08977 454.38477 452.4375 L 454.38477 52.96875 C 454.38477 47.316479 452.69842 41.978601 449.33008 37.628906 C 445.96172 33.279212 440.38342 29.806641 433.95898 29.806641 L 92.275391 29.806641 z " /><path
     id="rect14"
     style="fill:#615cd8;fill-opacity:1;stroke:none;stroke-width:42.0474;stroke-linejoin:round;stroke-dasharray:none;stroke-opacity:1;paint-order:markers fill stroke"
     d="m 306.23751,236.68048 c -11.92801,0 -21.53082,9.23766 -21.53082,20.71261 v 29.59326 h 69.47843 v 10.53446 h -69.47843 v 0.0302 h -39.45204 l -0.25324,0.47522 v 119.87889 l 0.005,0.25421 h 43.94206 v -34.44441 l 31.14421,-34.41773 h 54.71605 l 23.59313,-26.86711 v -4.16527 -81.54593 l -0.0673,-0.0384 z m -8.07522,12.55267 h 21.53894 v 21.53894 h -21.53894 z"
     sodipodi:nodetypes="sscccccccccccccccccsccccc" /><path
     id="use15"
     style="fill:#d6d85c;fill-opacity:1;stroke:none;stroke-width:42.0474;stroke-linejoin:round;stroke-dasharray:none;stroke-opacity:1;paint-order:markers fill stroke"
     d="m 396.24338,474.60062 c 11.92802,0 21.53081,-9.23766 21.53081,-20.71261 v -29.59328 h -69.47842 v -10.53444 h 69.47842 v -0.0301 h 39.45205 l 0.25324,-0.47522 V 293.376 l -0.005,-0.25422 h -43.94183 v 34.44444 l -31.14378,34.41773 h -54.71603 l -23.59315,26.8671 v 4.16528 81.54594 l 0.0673,0.0384 z m 8.07522,-12.55267 H 382.77965 V 440.509 h 21.53895 z"
     sodipodi:nodetypes="sscccccccccccccccccsccccc" /></svg>
