<?xml version="1.0" encoding="UTF-8" standalone="no"?>
<!-- Created with Inkscape (http://www.inkscape.org/) -->

<svg
   width="500"
   height="500"
   viewBox="0 0 500 500"
   version="1.1"
   id="svg1"
   inkscape:version="1.3.2 (091e20ef0f, 2023-11-25, custom)"
   sodipodi:docname="readme.md.svg"
   xmlns:inkscape="http://www.inkscape.org/namespaces/inkscape"
   xmlns:sodipodi="http://sodipodi.sourceforge.net/DTD/sodipodi-0.dtd"
   xmlns="http://www.w3.org/2000/svg"
   xmlns:svg="http://www.w3.org/2000/svg">
  <sodipodi:namedview
     id="namedview1"
     pagecolor="#505050"
     bordercolor="#eeeeee"
     borderopacity="1"
     inkscape:showpageshadow="0"
     inkscape:pageopacity="0"
     inkscape:pagecheckerboard="0"
     inkscape:deskcolor="#505050"
     inkscape:document-units="px"
     inkscape:zoom="0.96390292"
     inkscape:cx="320.05298"
     inkscape:cy="198.67146"
     inkscape:window-width="1362"
     inkscape:window-height="744"
     inkscape:window-x="0"
     inkscape:window-y="20"
     inkscape:window-maximized="1"
     inkscape:current-layer="layer1"
     showguides="true">
    <sodipodi:guide
       position="250.02518,350.60736"
       orientation="-0.99997769,0.0066803918"
       id="guide30"
       inkscape:locked="false" />
    <sodipodi:guide
       position="66.396728,247.89992"
       orientation="0,-1"
       id="guide53"
       inkscape:locked="false" />
  </sodipodi:namedview>
  <defs
     id="defs1">
    <linearGradient
       id="swatch61"
       inkscape:swatch="solid">
      <stop
         style="stop-color:#5090d0;stop-opacity:1;"
         offset="0"
         id="stop61" />
    </linearGradient>
    <linearGradient
       id="swatch30"
       inkscape:swatch="solid">
      <stop
         style="stop-color:#f9f9f9;stop-opacity:1;"
         offset="0"
         id="stop30" />
    </linearGradient>
    <inkscape:perspective
       sodipodi:type="inkscape:persp3d"
       inkscape:vp_x="44.06818 : 315.96746 : 1"
       inkscape:vp_y="0 : 1000 : 0"
       inkscape:vp_z="480.74134 : 298.68846 : 1"
       inkscape:persp3d-origin="250 : 166.66667 : 1"
       id="perspective17" />
  </defs>
  <g
     inkscape:label="Layer 1"
     inkscape:groupmode="layer"
     id="layer1">
    <g
       id="rect53-0">
      <path
         id="path3"
         style="color:#000000;fill:#5092b9;stroke-linejoin:round;-inkscape-stroke:none;paint-order:markers fill stroke;fill-opacity:1"
         d="M 88.179688 12.058594 C 85.614248 12.058594 83.316147 12.719678 81.203125 13.605469 L 35.392578 13.605469 C 22.815755 13.605469 13.580078 24.692354 13.580078 36.662109 L 13.580078 178.59375 C 13.580078 190.56351 22.81816 201.64844 35.392578 201.64844 L 67.751953 201.64844 L 67.751953 434.68945 C 67.751953 440.3428 69.439571 445.68194 72.808594 450.03125 C 76.177616 454.38056 81.755261 457.85156 88.179688 457.85156 L 429.86328 457.85156 C 436.2877 457.85156 441.86603 454.37899 445.23438 450.0293 C 448.60273 445.6796 450.28906 440.34173 450.28906 434.68945 L 450.28906 35.220703 C 450.28906 29.568433 448.60273 24.230554 445.23438 19.880859 C 441.86603 15.531165 436.2877 12.058594 429.86328 12.058594 L 88.179688 12.058594 z M 258.01758 67.78125 C 269.23123 67.78125 278.3928 71.267842 285.50391 78.242188 C 292.615 85.216533 296.17187 93.899825 296.17188 104.29297 C 296.17188 114.68611 292.615 123.43969 285.50391 130.55078 C 278.3928 137.52512 269.23123 141.01172 258.01758 141.01172 C 246.66717 141.01172 237.36699 137.52512 230.11914 130.55078 C 223.00805 123.43969 219.45313 114.68611 219.45312 104.29297 C 219.45312 93.899825 223.00805 85.216533 230.11914 78.242188 C 237.36699 71.267842 246.66717 67.78125 258.01758 67.78125 z M 172.68359 181.83203 L 297.19727 181.83203 L 297.19727 355.37109 L 352.58203 355.37109 L 352.58203 399.67773 L 170.63281 399.67773 L 170.63281 355.37109 L 232.37695 355.37109 L 232.37695 226.14062 L 172.68359 226.14062 L 172.68359 181.83203 z " />
    </g>
  </g>
</svg>
