<?xml version="1.0" encoding="UTF-8" standalone="no"?>
<!-- Created with Inkscape (http://www.inkscape.org/) -->

<svg
   width="500"
   height="500"
   viewBox="0 0 500 500"
   version="1.1"
   id="svg1"
   inkscape:version="1.3.2 (091e20ef0f, 2023-11-25, custom)"
   sodipodi:docname="requirements.txt.svg"
   xml:space="preserve"
   xmlns:inkscape="http://www.inkscape.org/namespaces/inkscape"
   xmlns:sodipodi="http://sodipodi.sourceforge.net/DTD/sodipodi-0.dtd"
   xmlns:xlink="http://www.w3.org/1999/xlink"
   xmlns="http://www.w3.org/2000/svg"
   xmlns:svg="http://www.w3.org/2000/svg"><sodipodi:namedview
     id="namedview1"
     pagecolor="#505050"
     bordercolor="#eeeeee"
     borderopacity="1"
     inkscape:showpageshadow="0"
     inkscape:pageopacity="0"
     inkscape:pagecheckerboard="0"
     inkscape:deskcolor="#505050"
     inkscape:document-units="px"
     inkscape:zoom="0.68158229"
     inkscape:cx="130.57851"
     inkscape:cy="248.68604"
     inkscape:window-width="1362"
     inkscape:window-height="744"
     inkscape:window-x="0"
     inkscape:window-y="20"
     inkscape:window-maximized="1"
     inkscape:current-layer="svg1"
     showguides="true"><sodipodi:guide
       position="250.02518,350.60736"
       orientation="-0.99997769,0.0066803918"
       id="guide30"
       inkscape:locked="false" /><sodipodi:guide
       position="66.396728,247.89992"
       orientation="0,-1"
       id="guide53"
       inkscape:locked="false" /></sodipodi:namedview><defs
     id="defs1"><linearGradient
       id="swatch61"
       inkscape:swatch="solid"><stop
         style="stop-color:#5090d0;stop-opacity:1;"
         offset="0"
         id="stop61" /></linearGradient><linearGradient
       id="swatch30"
       inkscape:swatch="solid"><stop
         style="stop-color:#f9f9f9;stop-opacity:1;"
         offset="0"
         id="stop30" /></linearGradient><inkscape:perspective
       sodipodi:type="inkscape:persp3d"
       inkscape:vp_x="44.06818 : 315.96746 : 1"
       inkscape:vp_y="0 : 1000 : 0"
       inkscape:vp_z="480.74134 : 298.68846 : 1"
       inkscape:persp3d-origin="250 : 166.66667 : 1"
       id="perspective17" /><inkscape:perspective
       sodipodi:type="inkscape:persp3d"
       inkscape:vp_x="44.06818 : 315.96746 : 1"
       inkscape:vp_y="0 : 1000 : 0"
       inkscape:vp_z="480.74134 : 298.68846 : 1"
       inkscape:persp3d-origin="250 : 166.66667 : 1"
       id="perspective17-6" /><inkscape:perspective
       sodipodi:type="inkscape:persp3d"
       inkscape:vp_x="44.06818 : 315.96746 : 1"
       inkscape:vp_y="0 : 1000 : 0"
       inkscape:vp_z="480.74134 : 298.68846 : 1"
       inkscape:persp3d-origin="250 : 166.66667 : 1"
       id="perspective17-2" /><inkscape:perspective
       sodipodi:type="inkscape:persp3d"
       inkscape:vp_x="44.06818 : 315.96746 : 1"
       inkscape:vp_y="0 : 1000 : 0"
       inkscape:vp_z="480.74134 : 298.68846 : 1"
       inkscape:persp3d-origin="250 : 166.66667 : 1"
       id="perspective17-3" /><inkscape:perspective
       sodipodi:type="inkscape:persp3d"
       inkscape:vp_x="44.06818 : 315.96746 : 1"
       inkscape:vp_y="0 : 1000 : 0"
       inkscape:vp_z="480.74134 : 298.68846 : 1"
       inkscape:persp3d-origin="250 : 166.66667 : 1"
       id="perspective17-1" /><linearGradient
       id="linearGradient4"
       x1="-683.873"
       y1="-565.884"
       x2="-664.125"
       y2="-585.635"
       gradientTransform="matrix(0.999, 0, 0, -0.999, 688.969, -558.754)"
       gradientUnits="userSpaceOnUse"><stop
         offset="0"
         id="stop3"
         style="stop-color:#df6c00;stop-opacity:1;" /><stop
         offset="1"
         stop-color="#ffffff"
         id="stop4"
         style="stop-color:#959595;stop-opacity:1;" /></linearGradient><inkscape:perspective
       sodipodi:type="inkscape:persp3d"
       inkscape:vp_x="44.06818 : 315.96746 : 1"
       inkscape:vp_y="0 : 1000 : 0"
       inkscape:vp_z="480.74134 : 298.68846 : 1"
       inkscape:persp3d-origin="250 : 166.66667 : 1"
       id="perspective17-29" /><linearGradient
       id="a"
       x1="-683.873"
       y1="-565.884"
       x2="-664.125"
       y2="-585.635"
       gradientTransform="matrix(0.999, 0, 0, -0.999, 688.969, -558.754)"
       gradientUnits="userSpaceOnUse"><stop
         offset="0"
         id="stop1" /><stop
         offset="1"
         stop-color="#ffffff"
         id="stop2" /></linearGradient><linearGradient
       id="b"
       x1="-663.231"
       y1="-584.741"
       x2="-682.979"
       y2="-564.99"
       xlink:href="#linearGradient4" /><inkscape:perspective
       sodipodi:type="inkscape:persp3d"
       inkscape:vp_x="44.06818 : 315.96746 : 1"
       inkscape:vp_y="0 : 1000 : 0"
       inkscape:vp_z="480.74134 : 298.68846 : 1"
       inkscape:persp3d-origin="250 : 166.66667 : 1"
       id="perspective17-0" /><inkscape:perspective
       sodipodi:type="inkscape:persp3d"
       inkscape:vp_x="44.06818 : 315.96746 : 1"
       inkscape:vp_y="0 : 1000 : 0"
       inkscape:vp_z="480.74134 : 298.68846 : 1"
       inkscape:persp3d-origin="250 : 166.66667 : 1"
       id="perspective17-8" /><inkscape:perspective
       sodipodi:type="inkscape:persp3d"
       inkscape:vp_x="44.06818 : 315.96746 : 1"
       inkscape:vp_y="0 : 1000 : 0"
       inkscape:vp_z="480.74134 : 298.68846 : 1"
       inkscape:persp3d-origin="250 : 166.66667 : 1"
       id="perspective17-4" /><inkscape:perspective
       sodipodi:type="inkscape:persp3d"
       inkscape:vp_x="44.06818 : 315.96746 : 1"
       inkscape:vp_y="0 : 1000 : 0"
       inkscape:vp_z="480.74134 : 298.68846 : 1"
       inkscape:persp3d-origin="250 : 166.66667 : 1"
       id="perspective17-2-5" /></defs><path
     id="rect14"
     style="opacity:0.60747581;fill:#ff5971;fill-opacity:1;stroke:none;stroke-width:70.762;stroke-linejoin:round;stroke-dasharray:none;stroke-opacity:1;paint-order:markers fill stroke"
     d="m 175.47119,52.258181 c -20.07375,0 -36.23438,15.546134 -36.23438,34.857422 v 49.802737 h 116.92578 v 17.72851 H 139.23681 v 0.0508 H 72.842664 l -0.426174,0.79974 v 201.7451 l 0.0086,0.42782 h 73.95044 v -57.9668 l 52.41211,-57.92187 h 92.08203 l 39.70508,-45.21485 V 189.55701 52.322743 l -0.11333,-0.06456 z m -13.58985,21.125 h 36.24805 v 36.248039 h -36.24805 z"
     sodipodi:nodetypes="sscccccccccccccccccsccccc"
     transform="matrix(1.125315,0,0,1.125315,-28.765668,-35.818182)" /><path
     id="use15"
     style="fill:#ff5971;fill-opacity:1;stroke:none;stroke-width:70.762;stroke-linejoin:round;stroke-dasharray:none;stroke-opacity:1;paint-order:markers fill stroke;opacity:0.60747581"
     d="m 356.03924,147.24334 v 57.9664 L 329.7584,234.2537 h 69.4736 v 25.17871 l 17.80231,-17.80231 12.96338,12.96339 V 147.67204 l -0.009,-0.4287 z m -144.49427,115.88942 -39.70589,45.21477 v 7.01019 137.23415 l 0.11281,0.0642 h 100.22194 l -33.08275,-33.08101 17.80404,-17.80578 H 231.71467 V 318.3916 h 25.17872 l -17.80405,-17.80405 37.45479,-37.45479 z"
     transform="matrix(1.125315,0,0,1.125315,-28.765668,-35.818182)"
     sodipodi:nodetypes="cccccccccccccccccccccccc" /><path
     id="path7"
     style="color:#000000;fill:#ff5971;fill-opacity:1;stroke-width:0.777332;stroke-linejoin:round;-inkscape-stroke:none;paint-order:markers fill stroke;opacity:0.60747581"
     d="m 346.15731,247.27967 v 36.75318 c -4.70119,1.4848 -9.22907,3.36845 -13.56838,5.57795 l -25.95858,-25.95858 -38.78456,38.78455 25.69444,25.69441 c -2.32292,4.41155 -4.28969,9.0325 -5.85732,13.8295 h -36.20814 v 54.8504 h 36.16715 c 1.56492,4.81183 3.53433,9.44546 5.85881,13.87049 l -25.65342,25.65343 38.78455,38.78455 25.87963,-25.87964 c 4.36296,2.22697 8.91644,4.1252 13.64582,5.61895 v 36.63018 h 54.85037 v -37.15701 c 4.54236,-1.52732 8.92653,-3.40673 13.11899,-5.61439 l 26.40038,26.40039 38.78455,-38.78454 -26.66608,-26.66609 c 2.09703,-4.11834 3.8906,-8.41039 5.33656,-12.85632 h 37.70205 v -54.8504 h -37.74304 c -1.4482,-4.43132 -3.23974,-8.71032 -5.33505,-12.81533 l 26.7086,-26.70858 -38.78455,-38.78455 -26.48238,26.48238 c -4.1688,-2.18991 -8.52588,-4.05713 -13.04003,-5.57492 v -37.28001 z m 26.65392,80.56002 a 44.886659,41.606632 0 0 1 44.88629,41.6054 44.886659,41.606632 0 0 1 -44.88629,41.60693 44.886659,41.606632 0 0 1 -44.88629,-41.60693 44.886659,41.606632 0 0 1 44.88629,-41.6054 z" /></svg>
