<?xml version="1.0" encoding="UTF-8" standalone="no"?>
<!-- Created with Inkscape (http://www.inkscape.org/) -->

<svg
   width="500"
   height="500"
   viewBox="0 0 500 500"
   version="1.1"
   id="svg1"
   inkscape:version="1.3.2 (091e20ef0f, 2023-11-25, custom)"
   sodipodi:docname="resource.svg"
   xml:space="preserve"
   xmlns:inkscape="http://www.inkscape.org/namespaces/inkscape"
   xmlns:sodipodi="http://sodipodi.sourceforge.net/DTD/sodipodi-0.dtd"
   xmlns="http://www.w3.org/2000/svg"
   xmlns:svg="http://www.w3.org/2000/svg"><sodipodi:namedview
     id="namedview1"
     pagecolor="#505050"
     bordercolor="#eeeeee"
     borderopacity="1"
     inkscape:showpageshadow="0"
     inkscape:pageopacity="0"
     inkscape:pagecheckerboard="0"
     inkscape:deskcolor="#505050"
     inkscape:document-units="px"
     inkscape:zoom="0.96390292"
     inkscape:cx="231.3511"
     inkscape:cy="197.63401"
     inkscape:window-width="1352"
     inkscape:window-height="734"
     inkscape:window-x="4"
     inkscape:window-y="24"
     inkscape:window-maximized="0"
     inkscape:current-layer="svg1"
     showguides="true"><sodipodi:guide
       position="250.02518,350.60736"
       orientation="-0.99997769,0.0066803918"
       id="guide30"
       inkscape:locked="false" /><sodipodi:guide
       position="419.20185,248.30647"
       orientation="0,-1"
       id="guide53"
       inkscape:locked="false" /></sodipodi:namedview><defs
     id="defs1"><inkscape:path-effect
       effect="mirror_symmetry"
       start_point="341.76098,28.008646"
       end_point="341.76098,211.38431"
       center_point="341.76098,119.69648"
       id="path-effect3"
       is_visible="true"
       lpeversion="1.2"
       lpesatellites=""
       mode="free"
       discard_orig_path="false"
       fuse_paths="true"
       oposite_fuse="false"
       split_items="false"
       split_open="false"
       link_styles="false" /><inkscape:path-effect
       effect="mirror_symmetry"
       start_point="216.08168,129.12039"
       end_point="216.08168,402.6937"
       center_point="216.08168,265.90704"
       id="path-effect2"
       is_visible="true"
       lpeversion="1.2"
       lpesatellites=""
       mode="free"
       discard_orig_path="false"
       fuse_paths="true"
       oposite_fuse="false"
       split_items="false"
       split_open="false"
       link_styles="false" /><linearGradient
       id="swatch61"
       inkscape:swatch="solid"><stop
         style="stop-color:#5090d0;stop-opacity:1;"
         offset="0"
         id="stop61" /></linearGradient><linearGradient
       id="swatch30"
       inkscape:swatch="solid"><stop
         style="stop-color:#f9f9f9;stop-opacity:1;"
         offset="0"
         id="stop30" /></linearGradient><inkscape:perspective
       sodipodi:type="inkscape:persp3d"
       inkscape:vp_x="44.06818 : 315.96746 : 1"
       inkscape:vp_y="0 : 1000 : 0"
       inkscape:vp_z="480.74134 : 298.68846 : 1"
       inkscape:persp3d-origin="250 : 166.66667 : 1"
       id="perspective17" /></defs><path
     id="path12"
     style="display:none;fill:#ffc464;fill-opacity:1;stroke:none;stroke-width:4.29924;stroke-opacity:1"
     d="m 407.46875,151.65039 11.42187,5.52539 -0.36718,-0.16992 c 2.65792,1.18977 2.88512,1.49094 0.98828,0.51172 l -0.30469,-0.15235 c -1.52309,-0.73876 -0.45031,-0.34398 1.4375,0.75586 1.55152,0.96332 2.58697,1.75318 1.07227,0.71289 l 0.0469,0.0332 0.0449,0.0312 c 0.49706,0.34742 1.15314,0.83364 1.88086,1.49414 l 0.004,0.006 0.006,0.004 c 0.82487,0.75018 1.49376,1.50329 1.98242,2.10547 l 0.0156,0.0176 0.0156,0.0195 c 0.0705,0.0876 0.59347,0.72252 1.24023,1.72461 0.84124,1.31552 1.26007,2.2979 1.38868,2.58789 l 0.0195,0.0469 0.0215,0.0469 c -0.0128,-0.0294 0.29966,0.58028 0.68946,1.76758 l 0.0215,0.0644 0.0195,0.0664 c 0.63289,1.99496 0.66699,3.01957 0.64649,2.89062 l 0.0918,0.58204 0.0332,0.48242 6.58398,2.42383 -6.45117,2.70312 V 190.75 l 16.21094,-6.78711 v 152.91016 l -16.54883,6.72656 c -1.02793,5.71029 -4.57378,10.72894 -9.74219,13.5332 l -0.004,0.002 -23.21679,12.57226 60.50195,-24.58398 c 2.40396,-0.97871 3.91016,-2.86517 3.91016,-4.90821 V 174.61328 c 0,-0.0484 -0.0254,-0.0924 -0.0254,-0.14453 -0.005,-0.0409 0.0156,-0.0784 0.0156,-0.12305 -0.009,-0.16003 -0.0944,-0.30463 -0.10937,-0.46093 -0.0647,-0.30515 -0.11006,-0.61031 -0.23438,-0.9043 -0.0895,-0.20469 -0.20411,-0.38676 -0.31836,-0.58399 -0.15397,-0.2605 -0.30702,-0.5177 -0.51562,-0.75586 -0.15398,-0.18607 -0.3377,-0.35421 -0.52149,-0.52539 -0.23343,-0.21584 -0.47774,-0.41566 -0.75586,-0.60546 -0.21856,-0.14884 -0.45085,-0.28381 -0.69922,-0.41407 -0.15893,-0.0819 -0.29296,-0.19705 -0.46679,-0.27148 -0.15896,-0.0745 -0.34374,-0.1047 -0.51758,-0.16797 -0.14405,-0.0558 -0.25832,-0.13326 -0.40235,-0.18164 z m -244.19922,0.0156 -56.22851,21.96093 c -2.5033,0.94523 -4.08277,2.86581 -4.09766,4.96094 0,0.0335 0.0195,0.064 0.0195,0.0937 -0.30297,0.62147 -0.52059,1.27621 -0.51562,1.96094 l 0.98828,159.16601 c 0.0149,2.04675 1.51895,3.92308 3.91797,4.89063 l 56.32617,22.09766 -19.17774,-10.02735 -0.0684,-0.0371 c -6.18668,-3.32534 -10.09636,-9.82181 -10.13476,-16.84765 v -0.006 l -0.74024,-158.6875 -6.75,-2.52539 7.48243,-2.93164 c 0.0402,-0.13956 0.0683,-0.31492 0.10937,-0.44922 1.0561,-5.89216 4.66373,-11.11309 10.125,-13.86133 l -0.16797,0.0859 z m -2.33789,39.99023 0.66797,143.2207 98.4082,51.45117 -91.16797,-190.73046 z m 8.34961,4.16016 90.79687,190.54882 16.91211,8.8418 V 249.50195 Z" /><path
     id="path1-5"
     style="fill:#ffc464;fill-opacity:1;stroke:none;stroke-width:4.36969;stroke-opacity:1"
     d="m 246.94896,19.937101 c -8.03525,0.26961 -15.99269,2.249569 -23.27444,5.885068 -0.25086,0.124693 -0.50067,0.251505 -0.74939,0.380421 l -150.24342,78.2086 0.605016,-0.31166 c -15.961204,8.03203 -26.925776,23.21901 -30.007431,40.45068 -0.797282,3.48009 -1.419794,7.52851 -1.395635,12.42327 l -0.0021,-0.0118 v 0.0366 0.002 0.002 l 0.87085,186.71801 v 0.039 c 0.112291,20.51652 11.550968,39.53505 29.622422,49.24848 0.166783,0.0895 0.334086,0.17819 0.501886,0.26583 l 149.040272,77.92216 c 2.09766,1.11771 4.2654,2.08534 6.48091,2.92649 7.84624,3.88346 16.38442,5.96757 24.92903,5.96757 9.28035,0 18.55225,-2.34331 26.72344,-6.75361 l 0.0596,-0.0344 147.49567,-79.8701 0.0343,-0.0206 c 18.00926,-9.77145 29.44368,-28.73498 29.44368,-49.44786 v -194.30809 -0.15354 c -2.6e-4,-0.11789 -0.01,-0.0398 -0.01,-0.16042 -0.002,-0.0916 -0.004,-0.18334 -0.007,-0.275 0.007,0.11064 0.01,0.16312 0.0161,0.27042 -7e-4,-11.62371 -0.0214,-10.84848 -0.0229,-0.57522 -0.003,-0.53105 -0.0144,-1.06203 -0.0344,-1.59273 -0.52709,-12.04998 -0.96836,-12.97166 -0.17646,-1.92044 -0.10157,-1.42337 -0.26447,-2.84172 -0.48813,-4.25108 0.19411,1.22126 0.15669,-1.75334 -1.91586,-8.28677 -0.0503,-0.15837 -0.10158,-0.3165 -0.15355,-0.47438 -1.25249,-3.81511 -2.17814,-5.58895 -1.92043,-4.99589 -0.0485,-0.11252 -0.0974,-0.22476 -0.14667,-0.33687 -0.19549,-0.44091 -1.33653,-3.24407 -3.99441,-7.41363 -2.10404,-3.27079 -3.70461,-5.18658 -3.65067,-5.11964 -0.0367,-0.0459 -0.0732,-0.0917 -0.10994,-0.13751 -1.34613,-1.65885 -3.33201,-3.90319 -5.81862,-6.16465 l -0.0366,-0.0344 c -2.24341,-2.0361 -4.19916,-3.47544 -5.54819,-4.41838 -0.11124,-0.0784 -0.22274,-0.15628 -0.3346,-0.23375 6.63081,4.55398 5.31013,2.91763 -2.92878,-1.89753 -1.554,-0.95276 -1.87854,-1.0536 -2.9792,-1.670633 5.33672,2.727143 4.59868,2.129273 -0.54084,-0.302513 -4.10338,-2.256126 -5.08086,-2.5601 -1.27189,-0.632499 0.1137,0.05952 0.0264,0.03103 0.18563,0.109939 -0.76137,-0.351552 -0.58331,-0.310774 -1.5171,-0.728755 l 1.31543,0.611878 -151.97592,-73.508341 c -0.76845,-0.372135 -1.54636,-0.724408 -2.33295,-1.056471 -7.59086,-3.200323 -15.70217,-4.639869 -23.73736,-4.370259 z m 0.77229,23.095685 c 4.73499,-0.158953 9.51364,0.687906 13.98621,2.573571 0.4211,0.177915 0.83758,0.366661 1.24896,0.566048 L 414.9484,119.68991 c -2.13228,-1.12015 -1.24208,-0.95102 2.77296,1.48961 3.24182,1.98009 5.04594,3.40151 1.92501,1.25814 0.0597,0.0411 0.11933,0.0823 0.17874,0.12374 0.82338,0.57552 1.9646,1.41914 3.25422,2.58962 l 0.0183,0.0183 c 1.44413,1.31336 2.60811,2.62255 3.42379,3.62775 0.0199,0.0244 0.0398,0.0488 0.0596,0.0733 0.0393,0.0488 0.96028,1.17607 2.10377,2.93794 1.51495,2.37192 2.2437,4.09478 2.40857,4.46651 0.027,0.0603 0.0537,0.12059 0.0803,0.18105 -0.0912,-0.20965 0.45059,0.83804 1.15731,2.99066 0.028,0.0846 0.0554,0.16945 0.0825,0.25438 1.1596,3.65551 1.19797,5.41397 1.12064,4.92713 0.11966,0.75368 0.20683,1.51218 0.26125,2.27336 -0.41752,-5.82667 -0.14829,-5.25484 0.13751,1.27877 0.008,0.2291 0.0136,0.45829 0.0161,0.68752 -0.006,-0.0801 -0.007,-0.10596 -0.0138,-0.19022 0.006,0.21537 0.0106,0.4308 0.0118,0.64626 -1e-5,-0.0327 -3e-5,-0.0687 0,-0.17417 0.002,0.12901 0.0106,0.0655 0.0138,0.18792 0.003,0.48862 0.007,-2.27956 0.007,0.31854 V 343.9641 c 0,12.19535 -6.73191,23.37061 -17.35041,29.13201 l -0.0183,0.01 -147.49566,79.87239 -0.0322,0.0161 c -4.8227,2.603 -10.27906,3.98297 -15.74393,3.98297 -5.87449,0 -11.77506,-1.57466 -16.98375,-4.68193 l -0.0183,-0.0118 c -0.14943,-0.0893 -0.2216,-0.17837 -0.36667,-0.26814 -1.05184,-0.42821 -2.16583,-0.68321 -3.17171,-1.21918 L 83.586081,372.78906 c -0.0896,-0.0468 -0.179017,-0.0943 -0.268123,-0.14207 -10.649784,-5.72429 -17.385064,-16.9205 -17.45124,-29.01285 v -0.0207 L 64.995869,156.87485 v -0.0207 l 0.0021,0.01 c -0.01377,-2.73051 0.320169,-5.05762 0.767721,-7.07216 1.493065,-10.65679 8.128426,-20.12041 17.911883,-25.04363 l -0.323135,0.165 150.242872,-78.206433 c 0.1331,-0.06911 0.2668,-0.137106 0.40104,-0.20396 4.29604,-2.144859 8.98767,-3.310674 13.72266,-3.469623 z m 167.22715,76.657124 -0.71272,-0.33228 c 3.16686,1.41753 1.39785,0.64477 1.04959,0.53166 -0.31216,-0.15279 -0.10115,-0.0769 -0.33457,-0.19938 z M 248.60814,69.59809 c -0.93854,0.03168 -1.87023,0.264285 -2.7317,0.694387 L 95.630745,148.49879 c -2.203953,1.10908 -3.594006,3.36259 -3.607128,5.82091 0,0.0393 0.01832,0.0751 0.01832,0.10994 -0.266746,0.72919 -0.460421,1.49743 -0.456047,2.30086 l 0.87085,186.75695 c 0.01313,2.40154 1.336863,4.60313 3.448999,5.7384 l 149.384021,78.1032 c 0.97517,0.5196 2.04288,0.78147 3.10982,0.78147 h 0.0138 c 0.45041,0.5109 0.95239,0.99176 1.55148,1.3498 1.03202,0.61567 2.19433,0.92585 3.3619,0.92585 1.07575,0 2.14363,-0.26667 3.11442,-0.79064 l 147.49338,-79.87238 c 2.11646,-1.14837 3.44212,-3.36183 3.44212,-5.75903 V 149.65609 c 0,-0.0568 -0.0206,-0.10841 -0.0206,-0.16958 -0.004,-0.048 0.0118,-0.092 0.0118,-0.14438 -0.008,-0.18777 -0.083,-0.35744 -0.0962,-0.54083 -0.0569,-0.35805 -0.0946,-0.7161 -0.20395,-1.06105 -0.0788,-0.24019 -0.179,-0.45381 -0.27958,-0.68523 -0.13556,-0.30566 -0.2724,-0.60744 -0.45606,-0.88688 -0.13557,-0.2183 -0.29653,-0.41562 -0.45833,-0.61647 -0.20551,-0.25326 -0.41972,-0.48771 -0.66459,-0.71042 -0.19242,-0.17464 -0.39781,-0.333 -0.61647,-0.48584 -0.13992,-0.0961 -0.25947,-0.23121 -0.4125,-0.31855 -0.13995,-0.0874 -0.3007,-0.12285 -0.45376,-0.19708 -0.12682,-0.0655 -0.2284,-0.15636 -0.35521,-0.21312 L 251.3765,70.109141 c -0.88551,-0.373336 -1.82982,-0.542708 -2.76836,-0.511051 z m 0.45605,13.754751 136.60095,67.025139 -132.41174,73.92315 -140.21725,-69.88977 z m 207.76033,61.295899 c 0.25766,2.63472 0.12289,2.51167 0.23604,4.29235 -4e-5,0.33204 0,0.19383 0,0.54542 -3e-5,-1.61546 -0.0789,-3.22998 -0.23604,-4.83777 z m -62.56553,15.9777 V 340.0431 l -134.37573,72.79793 v -177.2304 z"
     sodipodi:nodetypes="sccccccccccccscccsccccscccccccccccccccccccccccccccccssccccccccsccccccccccccccssccccsccccccccccccccccscccccsccccccccsccsccsscccccccccccccscccccccccccccc" /></svg>
