<?xml version="1.0" encoding="UTF-8" standalone="no"?>
<!-- Created with Inkscape (http://www.inkscape.org/) -->

<svg
   width="500"
   height="500"
   viewBox="0 0 500 500"
   version="1.1"
   id="svg1"
   inkscape:version="1.3.2 (091e20ef0f, 2023-11-25, custom)"
   sodipodi:docname="robots.txt.svg"
   xml:space="preserve"
   xmlns:inkscape="http://www.inkscape.org/namespaces/inkscape"
   xmlns:sodipodi="http://sodipodi.sourceforge.net/DTD/sodipodi-0.dtd"
   xmlns:xlink="http://www.w3.org/1999/xlink"
   xmlns="http://www.w3.org/2000/svg"
   xmlns:svg="http://www.w3.org/2000/svg"><sodipodi:namedview
     id="namedview1"
     pagecolor="#505050"
     bordercolor="#eeeeee"
     borderopacity="1"
     inkscape:showpageshadow="0"
     inkscape:pageopacity="0"
     inkscape:pagecheckerboard="0"
     inkscape:deskcolor="#505050"
     inkscape:document-units="px"
     inkscape:zoom="0.68158229"
     inkscape:cx="279.4967"
     inkscape:cy="241.35017"
     inkscape:window-width="1352"
     inkscape:window-height="734"
     inkscape:window-x="4"
     inkscape:window-y="24"
     inkscape:window-maximized="0"
     inkscape:current-layer="svg1"
     showguides="true"><sodipodi:guide
       position="249.39593,481.60855"
       orientation="-0.99997769,0.0066803918"
       id="guide30"
       inkscape:locked="false" /><sodipodi:guide
       position="-87.521246,250.03545"
       orientation="0,-1"
       id="guide53"
       inkscape:locked="false" /></sodipodi:namedview><defs
     id="defs1"><linearGradient
       id="linearGradient4"
       inkscape:collect="always"><stop
         style="stop-color:#ff5f5f;stop-opacity:1;"
         offset="0"
         id="stop4" /><stop
         style="stop-color:#7075ff;stop-opacity:1;"
         offset="1"
         id="stop5" /></linearGradient><inkscape:path-effect
       effect="mirror_symmetry"
       start_point="257.71526,23.7754"
       end_point="257.71526,472.68164"
       center_point="257.71526,248.22852"
       id="path-effect4"
       is_visible="true"
       lpeversion="1.2"
       lpesatellites=""
       mode="free"
       discard_orig_path="false"
       fuse_paths="false"
       oposite_fuse="false"
       split_items="true"
       split_open="false"
       link_styles="false" /><linearGradient
       id="swatch61"
       inkscape:swatch="solid"><stop
         style="stop-color:#5090d0;stop-opacity:1;"
         offset="0"
         id="stop61" /></linearGradient><linearGradient
       id="swatch30"
       inkscape:swatch="solid"><stop
         style="stop-color:#f9f9f9;stop-opacity:1;"
         offset="0"
         id="stop30" /></linearGradient><inkscape:perspective
       sodipodi:type="inkscape:persp3d"
       inkscape:vp_x="44.06818 : 315.96746 : 1"
       inkscape:vp_y="0 : 1000 : 0"
       inkscape:vp_z="480.74134 : 298.68846 : 1"
       inkscape:persp3d-origin="250 : 166.66667 : 1"
       id="perspective17" /><inkscape:perspective
       sodipodi:type="inkscape:persp3d"
       inkscape:vp_x="44.06818 : 315.96746 : 1"
       inkscape:vp_y="0 : 1000 : 0"
       inkscape:vp_z="480.74134 : 298.68846 : 1"
       inkscape:persp3d-origin="250 : 166.66667 : 1"
       id="perspective17-4" /><inkscape:perspective
       sodipodi:type="inkscape:persp3d"
       inkscape:vp_x="44.06818 : 315.96746 : 1"
       inkscape:vp_y="0 : 1000 : 0"
       inkscape:vp_z="480.74134 : 298.68846 : 1"
       inkscape:persp3d-origin="250 : 166.66667 : 1"
       id="perspective17-1" /><inkscape:perspective
       sodipodi:type="inkscape:persp3d"
       inkscape:vp_x="44.06818 : 315.96746 : 1"
       inkscape:vp_y="0 : 1000 : 0"
       inkscape:vp_z="480.74134 : 298.68846 : 1"
       inkscape:persp3d-origin="250 : 166.66667 : 1"
       id="perspective17-3" /><inkscape:perspective
       sodipodi:type="inkscape:persp3d"
       inkscape:vp_x="44.06818 : 315.96746 : 1"
       inkscape:vp_y="0 : 1000 : 0"
       inkscape:vp_z="480.74134 : 298.68846 : 1"
       inkscape:persp3d-origin="250 : 166.66667 : 1"
       id="perspective17-8" /><linearGradient
       id="paint0_linear"
       x1="6.0002"
       y1="32.9999"
       x2="235"
       y2="344"
       gradientUnits="userSpaceOnUse"
       gradientTransform="matrix(0.07142,0,0,0.07142,1.3398,1.8944)"><stop
         stop-color="#41D1FF"
         id="stop38" /><stop
         stop-color="#41D1FF"
         id="stop9"
         offset="0.43069324"
         style="stop-color:#4ac4fe;stop-opacity:1;" /><stop
         stop-color="#41D1FF"
         id="stop10"
         offset="0.43209678"
         style="stop-color:#b340fe;stop-opacity:1;" /><stop
         offset="1"
         stop-color="#BD34FE"
         id="stop40" /></linearGradient><linearGradient
       id="paint1_linear"
       x1="194.651"
       y1="8.8182"
       x2="236.076"
       y2="292.989"
       gradientUnits="userSpaceOnUse"
       gradientTransform="matrix(1.5133251,0,0,1.5133251,-91.219303,1.6510683)"><stop
         stop-color="#FFEA83"
         id="stop43" /><stop
         stop-color="#FFEA83"
         id="stop11"
         offset="0.31571853"
         style="stop-color:#ffe97d;stop-opacity:1;" /><stop
         offset="0.31571853"
         stop-color="#FFDD35"
         id="stop45" /><stop
         offset="1"
         stop-color="#FFA800"
         id="stop47" /></linearGradient><inkscape:perspective
       sodipodi:type="inkscape:persp3d"
       inkscape:vp_x="44.06818 : 315.96746 : 1"
       inkscape:vp_y="0 : 1000 : 0"
       inkscape:vp_z="480.74134 : 298.68846 : 1"
       inkscape:persp3d-origin="250 : 166.66667 : 1"
       id="perspective17-5" /><linearGradient
       inkscape:collect="always"
       xlink:href="#linearGradient4"
       id="linearGradient5"
       x1="-65.745605"
       y1="-27.984592"
       x2="602.75012"
       y2="556.51642"
       gradientUnits="userSpaceOnUse" /></defs><path
     id="rect1"
     style="fill:url(#linearGradient5);stroke-width:23.787;stroke-linecap:round;stroke-linejoin:round;stroke-miterlimit:10;paint-order:stroke markers fill;fill-opacity:1"
     d="M 154.45533 23.775391 A 25 25 0 0 0 129.45533 48.775391 L 129.45533 121.03711 L 89.177985 121.03711 C 57.536546 121.03711 32.062751 146.51094 32.062751 178.15234 L 32.062751 415.56641 C 32.062751 447.20781 57.536546 472.68164 89.177985 472.68164 L 239.88892 472.68164 L 275.54127 472.68164 L 426.2522 472.68164 C 457.89364 472.68164 483.36744 447.20781 483.36744 415.56641 L 483.36744 178.15234 C 483.36744 146.51094 457.89364 121.03711 426.2522 121.03711 L 385.97486 121.03711 L 385.97486 48.775391 A 25 25 0 0 0 360.97486 23.775391 A 25 25 0 0 0 335.97486 48.775391 L 335.97486 121.03711 L 275.54127 121.03711 L 239.88892 121.03711 L 179.45533 121.03711 L 179.45533 48.775391 A 25 25 0 0 0 154.45533 23.775391 z M 143.20533 172.77148 A 77.581451 77.581451 0 0 1 220.78736 250.35156 A 77.581451 77.581451 0 0 1 143.20533 327.93359 A 77.581451 77.581451 0 0 1 65.623298 250.35156 A 77.581451 77.581451 0 0 1 143.20533 172.77148 z M 372.22486 172.77148 A 77.581451 77.581451 0 0 1 449.80689 250.35156 A 77.581451 77.581451 0 0 1 372.22486 327.93359 A 77.581451 77.581451 0 0 1 294.64283 250.35156 A 77.581451 77.581451 0 0 1 372.22486 172.77148 z M 100.1565 381.25977 L 239.88892 381.25977 L 275.54127 381.25977 L 415.27369 381.25977 A 25 25 0 0 1 440.27369 406.25977 A 25 25 0 0 1 415.27369 431.25977 L 275.54127 431.25977 L 239.88892 431.25977 L 100.1565 431.25977 A 25 25 0 0 1 75.156501 406.25977 A 25 25 0 0 1 100.1565 381.25977 z "
     transform="translate(-3.7834542)" /></svg>
