<?xml version="1.0" encoding="UTF-8" standalone="no"?>
<!-- Created with Inkscape (http://www.inkscape.org/) -->

<svg
   width="500"
   height="500"
   viewBox="0 0 500 500"
   version="1.1"
   id="svg1"
   inkscape:version="1.3.2 (091e20ef0f, 2023-11-25, custom)"
   sodipodi:docname="router.jsx.svg"
   xml:space="preserve"
   xmlns:inkscape="http://www.inkscape.org/namespaces/inkscape"
   xmlns:sodipodi="http://sodipodi.sourceforge.net/DTD/sodipodi-0.dtd"
   xmlns="http://www.w3.org/2000/svg"
   xmlns:svg="http://www.w3.org/2000/svg"><sodipodi:namedview
     id="namedview1"
     pagecolor="#505050"
     bordercolor="#eeeeee"
     borderopacity="1"
     inkscape:showpageshadow="0"
     inkscape:pageopacity="0"
     inkscape:pagecheckerboard="0"
     inkscape:deskcolor="#505050"
     inkscape:document-units="px"
     inkscape:zoom="0.96390292"
     inkscape:cx="279.07375"
     inkscape:cy="243.28176"
     inkscape:window-width="1352"
     inkscape:window-height="734"
     inkscape:window-x="4"
     inkscape:window-y="24"
     inkscape:window-maximized="0"
     inkscape:current-layer="svg1"
     showguides="true"><sodipodi:guide
       position="250.02518,350.60736"
       orientation="-0.99997769,0.0066803918"
       id="guide30"
       inkscape:locked="false" /><sodipodi:guide
       position="66.396728,247.89992"
       orientation="0,-1"
       id="guide53"
       inkscape:locked="false" /></sodipodi:namedview><defs
     id="defs1"><linearGradient
       id="swatch61"
       inkscape:swatch="solid"><stop
         style="stop-color:#5090d0;stop-opacity:1;"
         offset="0"
         id="stop61" /></linearGradient><linearGradient
       id="swatch30"
       inkscape:swatch="solid"><stop
         style="stop-color:#f9f9f9;stop-opacity:1;"
         offset="0"
         id="stop30" /></linearGradient><inkscape:perspective
       sodipodi:type="inkscape:persp3d"
       inkscape:vp_x="44.06818 : 315.96746 : 1"
       inkscape:vp_y="0 : 1000 : 0"
       inkscape:vp_z="480.74134 : 298.68846 : 1"
       inkscape:persp3d-origin="250 : 166.66667 : 1"
       id="perspective17" /><inkscape:perspective
       sodipodi:type="inkscape:persp3d"
       inkscape:vp_x="44.06818 : 315.96746 : 1"
       inkscape:vp_y="0 : 1000 : 0"
       inkscape:vp_z="480.74134 : 298.68846 : 1"
       inkscape:persp3d-origin="250 : 166.66667 : 1"
       id="perspective17-4" /><inkscape:perspective
       sodipodi:type="inkscape:persp3d"
       inkscape:vp_x="44.06818 : 315.96746 : 1"
       inkscape:vp_y="0 : 1000 : 0"
       inkscape:vp_z="480.74134 : 298.68846 : 1"
       inkscape:persp3d-origin="250 : 166.66667 : 1"
       id="perspective17-6" /><inkscape:perspective
       sodipodi:type="inkscape:persp3d"
       inkscape:vp_x="44.06818 : 315.96746 : 1"
       inkscape:vp_y="0 : 1000 : 0"
       inkscape:vp_z="480.74134 : 298.68846 : 1"
       inkscape:persp3d-origin="250 : 166.66667 : 1"
       id="perspective17-3" /><inkscape:perspective
       sodipodi:type="inkscape:persp3d"
       inkscape:vp_x="44.06818 : 315.96746 : 1"
       inkscape:vp_y="0 : 1000 : 0"
       inkscape:vp_z="480.74134 : 298.68846 : 1"
       inkscape:persp3d-origin="250 : 166.66667 : 1"
       id="perspective17-5" /><inkscape:perspective
       sodipodi:type="inkscape:persp3d"
       inkscape:vp_x="44.06818 : 315.96746 : 1"
       inkscape:vp_y="0 : 1000 : 0"
       inkscape:vp_z="480.74134 : 298.68846 : 1"
       inkscape:persp3d-origin="250 : 166.66667 : 1"
       id="perspective17-2" /><inkscape:perspective
       sodipodi:type="inkscape:persp3d"
       inkscape:vp_x="44.06818 : 315.96746 : 1"
       inkscape:vp_y="0 : 1000 : 0"
       inkscape:vp_z="480.74134 : 298.68846 : 1"
       inkscape:persp3d-origin="250 : 166.66667 : 1"
       id="perspective17-61" /><inkscape:perspective
       sodipodi:type="inkscape:persp3d"
       inkscape:vp_x="44.06818 : 315.96746 : 1"
       inkscape:vp_y="0 : 1000 : 0"
       inkscape:vp_z="480.74134 : 298.68846 : 1"
       inkscape:persp3d-origin="250 : 166.66667 : 1"
       id="perspective17-8" /><inkscape:perspective
       sodipodi:type="inkscape:persp3d"
       inkscape:vp_x="44.06818 : 315.96746 : 1"
       inkscape:vp_y="0 : 1000 : 0"
       inkscape:vp_z="480.74134 : 298.68846 : 1"
       inkscape:persp3d-origin="250 : 166.66667 : 1"
       id="perspective17-65" /><inkscape:perspective
       sodipodi:type="inkscape:persp3d"
       inkscape:vp_x="44.06818 : 315.96746 : 1"
       inkscape:vp_y="0 : 1000 : 0"
       inkscape:vp_z="480.74134 : 298.68846 : 1"
       inkscape:persp3d-origin="250 : 166.66667 : 1"
       id="perspective17-2-6" /></defs><path
     id="path2"
     style="color:#000000;fill:#ffc340;stroke-width:1.45385;stroke-linejoin:round;-inkscape-stroke:none;paint-order:markers fill stroke;fill-opacity:1"
     d="M 344.73828 52.402344 C 337.92169 52.815974 330.84741 54.866641 323.88086 57.984375 C 309.94777 64.219857 295.24175 74.98046 279.7793 89.390625 C 270.41355 98.119005 260.77956 108.35297 251.07422 119.62695 C 241.36827 108.35214 231.73352 98.117576 222.36719 89.388672 C 206.90473 74.978493 192.20067 64.219857 178.26758 57.984375 C 171.30104 54.866641 164.22738 52.817261 157.41016 52.404297 C 150.59291 51.991345 144.03263 53.214064 138.09766 56.640625 C 126.22772 63.493745 120.74421 76.915461 119.17773 92.099609 C 117.61128 107.28378 119.57587 125.39818 124.32422 145.99414 C 127.20043 158.46965 131.24714 171.93017 136.1582 185.97266 C 121.54227 188.74071 107.86276 191.96617 95.621094 195.71289 C 75.410293 201.89869 58.737728 209.2525 46.371094 218.20117 C 34.004473 227.14986 25.123047 238.61408 25.123047 252.32031 C 25.123047 266.02656 34.004473 277.48491 46.371094 286.43359 C 58.737728 295.38226 75.410293 302.74 95.621094 308.92578 C 107.8628 312.67251 121.54221 315.8999 136.1582 318.66797 C 131.24742 332.70982 127.20031 346.16953 124.32422 358.64453 C 119.57587 379.24051 117.6113 397.35294 119.17773 412.53711 C 120.74421 427.72125 126.22772 441.14296 138.09766 447.99609 C 149.9676 454.84922 164.33448 452.88976 178.26758 446.6543 C 192.20067 440.4188 206.90473 429.66018 222.36719 415.25 C 231.09678 407.1145 240.06922 397.57178 249.10547 387.19727 A 141.99498 141.99498 0 0 1 248.15625 373.9375 A 141.99498 141.99498 0 0 1 250.21289 350.91992 C 244.71356 343.78732 239.21375 336.29401 233.73047 328.4375 C 239.46991 328.57456 245.2193 328.70312 251.07422 328.70312 C 252.69883 328.70312 254.27632 328.64614 255.88672 328.62891 A 141.99498 141.99498 0 0 1 264.95508 307.68359 C 260.37542 307.79918 255.75497 307.86914 251.07422 307.86914 C 240.30135 307.86914 229.80199 307.54314 219.46484 307.06641 C 213.88354 298.35268 208.35118 289.42315 202.96484 280.09375 C 197.57892 270.76506 192.61071 261.50989 187.85547 252.32031 C 192.61101 243.13008 197.57863 233.87411 202.96484 224.54492 C 208.35108 215.21568 213.88364 206.28584 219.46484 197.57227 C 229.80199 197.0957 240.30135 196.76953 251.07422 196.76953 C 261.84709 196.76953 272.34644 197.0957 282.68359 197.57227 C 288.26443 206.28528 293.79569 215.21422 299.18164 224.54297 C 303.51611 232.05048 307.53191 239.49935 311.43164 246.91602 A 22.50225 22.50225 0 0 1 320.31445 250.69727 A 141.99498 141.99498 0 0 1 343.48828 240.17578 C 348.99291 228.49301 354.12659 216.96507 358.56641 205.80469 C 373.91712 208.5758 388.08029 211.85253 400.43164 215.63281 C 419.22466 221.38468 434.11793 228.24442 443.56445 235.08008 C 450.08334 239.79726 453.57123 244.05145 455.13672 247.72656 A 141.99498 141.99498 0 0 1 475.79883 260.71484 C 476.54686 258.01174 477.02344 255.22829 477.02344 252.32031 C 477.02344 238.61408 468.14203 227.14986 455.77539 218.20117 C 443.40877 209.2525 426.74009 201.89869 406.5293 195.71289 C 394.28657 191.96584 380.60567 188.74086 365.98828 185.97266 C 370.89911 171.9307 374.94616 158.47118 377.82227 145.99609 C 382.57062 125.40014 384.53718 107.28376 382.9707 92.099609 C 381.40423 76.915461 375.91879 63.491792 364.04883 56.638672 C 358.11385 53.212111 351.55487 51.988713 344.73828 52.402344 z M 154.14453 73.167969 C 157.99471 72.979856 163.10393 74.021119 169.75586 76.998047 C 180.39896 81.761173 193.78822 91.231545 208.16602 104.63086 C 217.61549 113.43727 227.53597 124.06469 237.61133 135.97266 C 227.58736 148.6623 217.56724 162.39911 207.73633 177.25 C 189.95806 178.33833 173.04974 180.14803 157.04688 182.48438 C 151.77218 167.80536 147.52676 153.90271 144.625 141.31641 C 140.20974 122.16523 138.70382 105.83508 139.90039 94.236328 C 141.09699 82.637587 144.60792 76.93666 148.51367 74.681641 C 149.97833 73.836023 151.83442 73.280832 154.14453 73.167969 z M 348 73.167969 C 350.31011 73.280832 352.16619 73.836023 353.63086 74.681641 C 357.53663 76.936645 361.0495 82.637573 362.24609 94.236328 C 363.44267 105.83508 361.9387 122.16327 357.52344 141.31445 C 354.62169 153.90076 350.37646 167.80501 345.10156 182.48438 C 329.09894 180.1481 312.19006 178.33831 294.41211 177.25 C 284.58129 162.39913 274.561 148.66232 264.53711 135.97266 C 274.61267 124.06435 284.53295 113.43532 293.98242 104.62891 C 308.36022 91.229586 321.74557 81.761158 332.38867 76.998047 C 339.04062 74.021119 344.14984 72.979856 348 73.167969 z M 251.07422 152.57617 C 256.8605 160.03814 262.64847 167.93454 268.41797 176.20117 C 262.6785 176.06412 256.92912 175.93555 251.07422 175.93555 C 245.2193 175.93555 239.46991 176.06412 233.73047 176.20117 C 239.50008 167.93441 245.28779 160.0383 251.07422 152.57617 z M 193.82617 199.24023 C 190.83767 204.14237 187.85138 209.05826 184.92383 214.12891 C 181.99613 219.19985 179.2337 224.24372 176.48242 229.2832 C 172.2072 220.15162 168.26112 211.19091 164.69141 202.44727 C 174.04769 201.1673 183.78135 200.1033 193.82617 199.24023 z M 308.32227 199.24023 C 318.36689 200.10325 328.09897 201.16736 337.45508 202.44727 C 333.88575 211.18985 329.94063 220.15086 325.66602 229.28125 C 322.91471 224.24171 320.15039 219.19797 317.22266 214.12695 C 314.29545 209.05687 311.31044 204.14186 308.32227 199.24023 z M 143.58398 205.80469 C 149.56199 220.83142 156.44809 236.38006 164.39453 252.32031 C 156.44872 268.25942 149.56166 283.8063 143.58398 298.83203 C 128.23253 296.0604 114.06864 292.78435 101.7168 289.00391 C 82.923773 283.25205 68.030508 276.39425 58.583984 269.55859 C 49.137476 262.72295 45.957031 256.83031 45.957031 252.32031 C 45.957031 247.81032 49.137476 241.91574 58.583984 235.08008 C 68.030508 228.24442 82.923773 221.38468 101.7168 215.63281 C 114.06864 211.85238 128.23253 208.57587 143.58398 205.80469 z M 251.07422 226.65039 C 237.38164 226.65039 224.7832 237.67562 224.7832 252.32031 C 224.7832 266.96503 237.38164 277.98828 251.07422 277.98828 C 264.76681 277.98828 277.36523 266.96503 277.36523 252.32031 C 277.36523 237.67562 264.76681 226.65039 251.07422 226.65039 z M 176.48242 275.35742 C 179.23333 280.3962 181.99653 285.43952 184.92383 290.50977 C 187.85151 295.58062 190.83752 300.49608 193.82617 305.39844 C 183.78205 304.5352 174.04904 303.46956 164.69336 302.18945 C 168.26256 293.44742 172.20806 284.48719 176.48242 275.35742 z M 157.04492 322.15234 C 173.04844 324.48886 189.95724 326.30029 207.73633 327.38867 C 217.56724 342.23955 227.58736 355.97639 237.61133 368.66602 C 227.53526 380.57505 217.61595 391.20291 208.16602 400.00977 C 193.78823 413.40908 180.39896 422.87752 169.75586 427.64062 C 159.11275 432.40373 152.41945 432.21202 148.51367 429.95703 C 144.6079 427.70202 141.09503 422.0011 139.89844 410.40234 C 138.70186 398.80361 140.20778 382.47539 144.62305 363.32422 C 147.52502 350.7369 151.76943 336.83301 157.04492 322.15234 z " /><path
     id="path33"
     style="color:#000000;fill:#31c660;fill-opacity:1;stroke-width:0.513692;stroke-linejoin:round;-inkscape-stroke:none;paint-order:markers fill stroke"
     d="m 307.86592,269.12263 -17.88192,17.88193 42.45589,42.45589 v 131.06888 h 25.28833 V 324.2222 a 12.645552,12.645552 0 0 0 -3.70321,-8.94047 z m 71.42836,0.0441 v 221.8831 H 404.5826 V 269.16678 Z m 82.35035,43.57959 a 12.645552,12.645552 0 0 0 -8.94146,3.7042 l -26.42909,26.43009 a 12.645552,12.645552 0 0 0 -3.70421,8.94046 v 109.17975 h 25.28934 v -103.9425 l 19.02268,-19.02268 h 27.97618 v -25.28932 z" /></svg>
