<?xml version="1.0" encoding="UTF-8" standalone="no"?>
<!-- Created with Inkscape (http://www.inkscape.org/) -->

<svg
   width="500"
   height="500"
   viewBox="0 0 500 500"
   version="1.1"
   id="svg1"
   inkscape:version="1.3.2 (091e20ef0f, 2023-11-25, custom)"
   sodipodi:docname="rs.svg"
   xml:space="preserve"
   xmlns:inkscape="http://www.inkscape.org/namespaces/inkscape"
   xmlns:sodipodi="http://sodipodi.sourceforge.net/DTD/sodipodi-0.dtd"
   xmlns:xlink="http://www.w3.org/1999/xlink"
   xmlns="http://www.w3.org/2000/svg"
   xmlns:svg="http://www.w3.org/2000/svg"><sodipodi:namedview
     id="namedview1"
     pagecolor="#505050"
     bordercolor="#eeeeee"
     borderopacity="1"
     inkscape:showpageshadow="0"
     inkscape:pageopacity="0"
     inkscape:pagecheckerboard="0"
     inkscape:deskcolor="#505050"
     inkscape:document-units="px"
     inkscape:zoom="1.082"
     inkscape:cx="245.37893"
     inkscape:cy="252.77264"
     inkscape:window-width="1362"
     inkscape:window-height="744"
     inkscape:window-x="0"
     inkscape:window-y="20"
     inkscape:window-maximized="1"
     inkscape:current-layer="svg1"
     showguides="true"><sodipodi:guide
       position="250.02518,350.60736"
       orientation="-0.99997769,0.0066803918"
       id="guide30"
       inkscape:locked="false" /><sodipodi:guide
       position="66.396728,247.89992"
       orientation="0,-1"
       id="guide53"
       inkscape:locked="false" /></sodipodi:namedview><defs
     id="defs1"><linearGradient
       id="swatch61"
       inkscape:swatch="solid"><stop
         style="stop-color:#5090d0;stop-opacity:1;"
         offset="0"
         id="stop61" /></linearGradient><linearGradient
       id="swatch30"
       inkscape:swatch="solid"><stop
         style="stop-color:#f9f9f9;stop-opacity:1;"
         offset="0"
         id="stop30" /></linearGradient><inkscape:perspective
       sodipodi:type="inkscape:persp3d"
       inkscape:vp_x="44.06818 : 315.96746 : 1"
       inkscape:vp_y="0 : 1000 : 0"
       inkscape:vp_z="480.74134 : 298.68846 : 1"
       inkscape:persp3d-origin="250 : 166.66667 : 1"
       id="perspective17" /><inkscape:perspective
       sodipodi:type="inkscape:persp3d"
       inkscape:vp_x="44.06818 : 315.96746 : 1"
       inkscape:vp_y="0 : 1000 : 0"
       inkscape:vp_z="480.74134 : 298.68846 : 1"
       inkscape:persp3d-origin="250 : 166.66667 : 1"
       id="perspective17-8" /><inkscape:perspective
       sodipodi:type="inkscape:persp3d"
       inkscape:vp_x="44.06818 : 315.96746 : 1"
       inkscape:vp_y="0 : 1000 : 0"
       inkscape:vp_z="480.74134 : 298.68846 : 1"
       inkscape:persp3d-origin="250 : 166.66667 : 1"
       id="perspective17-3" /><inkscape:perspective
       sodipodi:type="inkscape:persp3d"
       inkscape:vp_x="44.06818 : 315.96746 : 1"
       inkscape:vp_y="0 : 1000 : 0"
       inkscape:vp_z="480.74134 : 298.68846 : 1"
       inkscape:persp3d-origin="250 : 166.66667 : 1"
       id="perspective17-4" /></defs><path
     style="fill:#c91400;fill-opacity:1;stroke:none;stroke-width:32.0594;stroke-linecap:round;stroke-miterlimit:10;stroke-dasharray:none;stroke-opacity:1"
     d="m 146.40922,440.93733 -45.1976,-82.57634 143.65868,-40.60355 118.96941,33.6254 -46.81467,85.53074 20.46794,-80.5752 h -205.0887 z"
     id="path16" /><path
     style="fill:#cc2b18;fill-opacity:1;stroke:none;stroke-width:32.0594;stroke-linecap:round;stroke-miterlimit:10;stroke-dasharray:none;stroke-opacity:1"
     d="M 95.579563,27.477745 49.066563,40.624133 59.977595,83.577086 -4.0827992,122.59002 59.117146,189.25478 94.848399,167.49436 33.638663,130.21749 88.454052,96.834784 h 29.082088 z"
     id="path17" /><path
     style="fill:#cc2b18;fill-opacity:1;stroke:none;stroke-width:32.0594;stroke-linecap:round;stroke-miterlimit:10;stroke-dasharray:none;stroke-opacity:1"
     d="m 396.94153,181.20143 44.8925,-47.35363 -24.5344,-44.824513 h -38.47307 v -63.81488 l 86.05628,24.32286 -9.4556,37.223415 36.29934,66.319158 -77.8825,47.43063 z"
     id="path18" /><path
     id="path14"
     style="fill:#ff331d;fill-opacity:1;stroke-width:32.0594;stroke-linecap:round;stroke-miterlimit:10"
     d="m 501.38801,322.37365 c 0,16.29576 -112.1814,56.04767 -250.56415,56.04768 -138.38277,0 -250.56415919,-35.94802 -250.56415919,-56.04768 0,-72.98466 112.18139919,-194.24991 250.56415919,-194.24991 138.38275,0 250.56415,121.26525 250.56415,194.24991 z"
     sodipodi:nodetypes="sssss" /><path
     style="fill:#ff331d;fill-opacity:1;stroke:none;stroke-width:32.0594;stroke-linecap:round;stroke-miterlimit:10;stroke-dasharray:none;stroke-opacity:1"
     d="M 102.25772,456.30573 24.055225,373.81593 106.99292,323.30667 H 379.51669 L 445.0939,392.47903 338.64249,457.30817 399.54568,393.06609 247.48804,350.08867 87.497681,395.30818 Z"
     id="path15" /><path
     sodipodi:type="star"
     style="fill:#ff331d;fill-opacity:1;stroke:none;stroke-width:30;stroke-linecap:round;stroke-miterlimit:10;stroke-dasharray:none;stroke-opacity:1"
     id="path19"
     inkscape:flatsided="false"
     sodipodi:sides="16"
     sodipodi:cx="247.94934"
     sodipodi:cy="197.81641"
     sodipodi:r1="175.83089"
     sodipodi:r2="140.6647"
     sodipodi:arg1="0"
     sodipodi:arg2="0.19634954"
     inkscape:rounded="0"
     inkscape:randomized="0"
     d="m 423.78023,197.81641 -37.86902,27.44232 24.48469,39.84524 -45.48813,10.86156 7.37278,46.18209 -46.18209,-7.37279 -10.86155,45.48813 -39.84525,-24.48468 -27.44232,37.86901 -27.44232,-37.86901 -39.84525,24.48468 -10.86155,-45.48813 -46.18209,7.37279 7.37278,-46.18209 -45.488127,-10.86156 24.484687,-39.84524 -37.869016,-27.44232 37.869016,-27.44233 -24.484687,-39.84524 45.488127,-10.86156 -7.37278,-46.182086 46.18209,7.372786 10.86155,-45.488131 39.84525,24.484687 27.44232,-37.869017 27.44232,37.869017 39.84525,-24.484687 10.86155,45.488131 46.18209,-7.372786 -7.37278,46.182086 45.48813,10.86156 -24.48469,39.84524 z"
     transform="matrix(1.3784976,0,0,0.64293094,-94.127274,96.387154)" /><ellipse
     style="fill:#000000;fill-opacity:1;stroke:none;stroke-width:43.4736;stroke-linecap:round;stroke-miterlimit:10;stroke-dasharray:none;stroke-opacity:1"
     id="path21"
     cx="97.304451"
     cy="291.58524"
     rx="47.219151"
     ry="49.80785" /><use
     x="0"
     y="0"
     xlink:href="#path21"
     id="use21"
     transform="translate(314.88958,0.45326016)" /></svg>
