<?xml version="1.0" encoding="UTF-8" standalone="no"?>
<!-- Created with Inkscape (http://www.inkscape.org/) -->

<svg
   width="500"
   height="500"
   viewBox="0 0 500 500"
   version="1.1"
   id="svg1"
   inkscape:version="1.3.2 (091e20ef0f, 2023-11-25, custom)"
   sodipodi:docname="rs.svg"
   xml:space="preserve"
   xmlns:inkscape="http://www.inkscape.org/namespaces/inkscape"
   xmlns:sodipodi="http://sodipodi.sourceforge.net/DTD/sodipodi-0.dtd"
   xmlns:xlink="http://www.w3.org/1999/xlink"
   xmlns="http://www.w3.org/2000/svg"
   xmlns:svg="http://www.w3.org/2000/svg"><sodipodi:namedview
     id="namedview1"
     pagecolor="#505050"
     bordercolor="#eeeeee"
     borderopacity="1"
     inkscape:showpageshadow="0"
     inkscape:pageopacity="0"
     inkscape:pagecheckerboard="0"
     inkscape:deskcolor="#505050"
     inkscape:document-units="px"
     inkscape:zoom="0.76508954"
     inkscape:cx="194.09493"
     inkscape:cy="280.35934"
     inkscape:window-width="1362"
     inkscape:window-height="744"
     inkscape:window-x="0"
     inkscape:window-y="20"
     inkscape:window-maximized="1"
     inkscape:current-layer="svg1"
     showguides="true"><sodipodi:guide
       position="250.02518,350.60736"
       orientation="-0.99997769,0.0066803918"
       id="guide30"
       inkscape:locked="false" /><sodipodi:guide
       position="66.396728,247.89992"
       orientation="0,-1"
       id="guide53"
       inkscape:locked="false" /></sodipodi:namedview><defs
     id="defs1"><linearGradient
       id="swatch61"
       inkscape:swatch="solid"><stop
         style="stop-color:#5090d0;stop-opacity:1;"
         offset="0"
         id="stop61" /></linearGradient><linearGradient
       id="swatch30"
       inkscape:swatch="solid"><stop
         style="stop-color:#f9f9f9;stop-opacity:1;"
         offset="0"
         id="stop30" /></linearGradient><inkscape:perspective
       sodipodi:type="inkscape:persp3d"
       inkscape:vp_x="44.06818 : 315.96746 : 1"
       inkscape:vp_y="0 : 1000 : 0"
       inkscape:vp_z="480.74134 : 298.68846 : 1"
       inkscape:persp3d-origin="250 : 166.66667 : 1"
       id="perspective17" /><inkscape:perspective
       sodipodi:type="inkscape:persp3d"
       inkscape:vp_x="44.06818 : 315.96746 : 1"
       inkscape:vp_y="0 : 1000 : 0"
       inkscape:vp_z="480.74134 : 298.68846 : 1"
       inkscape:persp3d-origin="250 : 166.66667 : 1"
       id="perspective17-8" /><inkscape:perspective
       sodipodi:type="inkscape:persp3d"
       inkscape:vp_x="44.06818 : 315.96746 : 1"
       inkscape:vp_y="0 : 1000 : 0"
       inkscape:vp_z="480.74134 : 298.68846 : 1"
       inkscape:persp3d-origin="250 : 166.66667 : 1"
       id="perspective17-3" /><inkscape:perspective
       sodipodi:type="inkscape:persp3d"
       inkscape:vp_x="44.06818 : 315.96746 : 1"
       inkscape:vp_y="0 : 1000 : 0"
       inkscape:vp_z="480.74134 : 298.68846 : 1"
       inkscape:persp3d-origin="250 : 166.66667 : 1"
       id="perspective17-4" /></defs><path
     style="fill:#d50021;fill-opacity:1;stroke:none;stroke-width:33.0533;stroke-linecap:round;stroke-miterlimit:10;stroke-dasharray:none;stroke-opacity:1"
     d="m 92.071828,428.93368 -44.556749,-89.03793 197.439631,-43.78077 204.74614,36.25658 -46.15089,92.22351 20.17773,-86.8802 H 78.265463 Z"
     id="path16"
     sodipodi:nodetypes="cccccccc" /><path
     id="path14"
     style="fill:#ff1d40;fill-opacity:1;stroke-width:33.0533;stroke-linecap:round;stroke-miterlimit:10"
     d="m 497.8353,275.96305 c 0,17.5709 -110.59079,60.43339 -247.01144,60.4334 -136.42067,0 -247.0114504,-38.76095 -247.0114504,-60.4334 0,-78.6957 110.5907904,-209.449941 247.0114504,-209.449941 136.42065,0 247.01144,130.754241 247.01144,209.449941 z"
     sodipodi:nodetypes="sssss" /><path
     style="fill:#ff1d40;fill-opacity:1;stroke:none;stroke-width:33.0533;stroke-linecap:round;stroke-miterlimit:10;stroke-dasharray:none;stroke-opacity:1"
     d="M 82.168361,443.12575 5.0746867,354.18114 38.852326,223.15028 H 460.63354 L 496.11758,374.30462 391.17551,444.20663 451.21517,374.93762 247.53534,147.92494 67.617603,377.35515 Z"
     id="path15"
     sodipodi:nodetypes="cccccccccc" /><path
     sodipodi:type="star"
     style="fill:#ff1d40;fill-opacity:1;stroke:none;stroke-width:30;stroke-linecap:round;stroke-miterlimit:10;stroke-dasharray:none;stroke-opacity:1"
     id="path19"
     inkscape:flatsided="false"
     sodipodi:sides="16"
     sodipodi:cx="247.94934"
     sodipodi:cy="197.81641"
     sodipodi:r1="175.83089"
     sodipodi:r2="140.6647"
     sodipodi:arg1="0"
     sodipodi:arg2="0.19634954"
     inkscape:rounded="0"
     inkscape:randomized="0"
     d="m 423.78023,197.81641 -37.86902,27.44232 24.48469,39.84524 -45.48813,10.86156 7.37278,46.18209 -46.18209,-7.37279 -10.86155,45.48813 -39.84525,-24.48468 -27.44232,37.86901 -27.44232,-37.86901 -39.84525,24.48468 -10.86155,-45.48813 -46.18209,7.37279 7.37278,-46.18209 -45.488127,-10.86156 24.484687,-39.84524 -37.869016,-27.44232 37.869016,-27.44233 -24.484687,-39.84524 45.488127,-10.86156 -7.37278,-46.182086 46.18209,7.372786 10.86155,-45.488131 39.84525,24.484687 27.44232,-37.869017 27.44232,37.869017 39.84525,-24.484687 10.86155,45.488131 46.18209,-7.372786 -7.37278,46.182086 45.48813,10.86156 -24.48469,39.84524 z"
     transform="matrix(1.3589521,0,0,0.69324019,-89.236268,32.293133)" /><circle
     style="fill:#131313;fill-opacity:1;stroke:none;stroke-width:40.3642;stroke-linecap:round;stroke-miterlimit:10;stroke-dasharray:none;stroke-opacity:1"
     id="path21"
     cx="99.481186"
     cy="241.54814"
     r="49.373268" /><use
     x="0"
     y="0"
     xlink:href="#path21"
     id="use21"
     transform="translate(310.42481,0.48872781)" /><path
     style="fill:#ff1d40;fill-opacity:1;stroke:none;stroke-width:33.0529;stroke-linecap:round;stroke-miterlimit:10;stroke-dasharray:none;stroke-opacity:1"
     d="m 281.48276,347.80751 -24.76203,52.56381 59.03455,7.04869 -50.87501,43.40713 74.46717,-15.7496 9.15641,-38.44133 54.04157,19.73315 2.41525,-99.01376 -40.07634,-10.65189 16.68315,75.08992 -36.78299,-0.63804 -26.68518,-34.13322 z"
     id="path17"
     sodipodi:nodetypes="ccccccccccccc" /><path
     style="fill:#ff1d40;fill-opacity:1;stroke:none;stroke-width:33.0533;stroke-linecap:round;stroke-miterlimit:10;stroke-dasharray:none;stroke-opacity:1"
     d="m 131.13228,303.78744 1.71559,70.33193 27.40906,25.86884 33.72212,-48.73251 47.24339,-3.1841 -61.86055,70.11751 66.53001,-23.50945 -23.54052,59.27612 -48.20651,-8.92371 -17.94485,-24.64314 -71.533381,-22.88825 21.227421,-95.54348 z"
     id="path18"
     sodipodi:nodetypes="ccccccccccccc" /></svg>
