<?xml version="1.0" encoding="UTF-8" standalone="no"?>
<!-- Created with Inkscape (http://www.inkscape.org/) -->

<svg
   width="500"
   height="500"
   viewBox="0 0 500 500"
   version="1.1"
   id="svg1"
   inkscape:version="1.3.2 (091e20ef0f, 2023-11-25, custom)"
   sodipodi:docname="rs.tmp.svg"
   xml:space="preserve"
   xmlns:inkscape="http://www.inkscape.org/namespaces/inkscape"
   xmlns:sodipodi="http://sodipodi.sourceforge.net/DTD/sodipodi-0.dtd"
   xmlns="http://www.w3.org/2000/svg"
   xmlns:svg="http://www.w3.org/2000/svg"><sodipodi:namedview
     id="namedview1"
     pagecolor="#505050"
     bordercolor="#eeeeee"
     borderopacity="1"
     inkscape:showpageshadow="0"
     inkscape:pageopacity="0"
     inkscape:pagecheckerboard="0"
     inkscape:deskcolor="#505050"
     inkscape:document-units="px"
     inkscape:zoom="1.082"
     inkscape:cx="245.84104"
     inkscape:cy="252.77264"
     inkscape:window-width="1362"
     inkscape:window-height="744"
     inkscape:window-x="0"
     inkscape:window-y="20"
     inkscape:window-maximized="1"
     inkscape:current-layer="layer2"
     showguides="true"><sodipodi:guide
       position="250.02518,350.60736"
       orientation="-0.99997769,0.0066803918"
       id="guide30"
       inkscape:locked="false" /><sodipodi:guide
       position="66.396728,247.89992"
       orientation="0,-1"
       id="guide53"
       inkscape:locked="false" /></sodipodi:namedview><defs
     id="defs1"><linearGradient
       id="swatch61"
       inkscape:swatch="solid"><stop
         style="stop-color:#5090d0;stop-opacity:1;"
         offset="0"
         id="stop61" /></linearGradient><linearGradient
       id="swatch30"
       inkscape:swatch="solid"><stop
         style="stop-color:#f9f9f9;stop-opacity:1;"
         offset="0"
         id="stop30" /></linearGradient><inkscape:perspective
       sodipodi:type="inkscape:persp3d"
       inkscape:vp_x="44.06818 : 315.96746 : 1"
       inkscape:vp_y="0 : 1000 : 0"
       inkscape:vp_z="480.74134 : 298.68846 : 1"
       inkscape:persp3d-origin="250 : 166.66667 : 1"
       id="perspective17" /><inkscape:perspective
       sodipodi:type="inkscape:persp3d"
       inkscape:vp_x="44.06818 : 315.96746 : 1"
       inkscape:vp_y="0 : 1000 : 0"
       inkscape:vp_z="480.74134 : 298.68846 : 1"
       inkscape:persp3d-origin="250 : 166.66667 : 1"
       id="perspective17-8" /><inkscape:perspective
       sodipodi:type="inkscape:persp3d"
       inkscape:vp_x="44.06818 : 315.96746 : 1"
       inkscape:vp_y="0 : 1000 : 0"
       inkscape:vp_z="480.74134 : 298.68846 : 1"
       inkscape:persp3d-origin="250 : 166.66667 : 1"
       id="perspective17-3" /><inkscape:perspective
       sodipodi:type="inkscape:persp3d"
       inkscape:vp_x="44.06818 : 315.96746 : 1"
       inkscape:vp_y="0 : 1000 : 0"
       inkscape:vp_z="480.74134 : 298.68846 : 1"
       inkscape:persp3d-origin="250 : 166.66667 : 1"
       id="perspective17-4" /></defs><g
     inkscape:groupmode="layer"
     id="layer2"
     inkscape:label="Layer 2"
     style="display:inline"><path
       style="fill:#ff2d2d;fill-opacity:1;stroke:none;stroke-width:33.3478;stroke-linecap:round;stroke-miterlimit:10;stroke-dasharray:none;stroke-opacity:1"
       d="M 139.50542,339.0497 281.74457,200.91213 v -38.70757 l 33.98156,-33.00169 30.84123,2.99904 -40.47403,37.06626 29.46921,28.61943 41.49846,-38.06113 9.14328,22.65363 -42.16779,40.95185 -29.42969,2.39262 -147.32638,143.07812 -22.07405,-4.22512 z"
       id="path13"
       sodipodi:nodetypes="cccccccccccccc" /><path
       style="fill:#ff2d2d;fill-opacity:1;stroke:none;stroke-width:33.3478;stroke-linecap:round;stroke-miterlimit:10;stroke-dasharray:none;stroke-opacity:1"
       d="m 125.68853,200.74178 64.45901,-62.60028 34.50379,-10.79144 38.2402,11.03175 -57.81202,35.99377 158.86411,150.59599 v 34.41658 h -37.67773 l -150.71869,-146.3726 -21.90701,21.2753 11.48728,11.15604 -20.41965,19.83082 -56.714446,-55.07905 24.863776,-24.14681 z"
       id="path14"
       sodipodi:nodetypes="ccccccccccccccc" /></g><g
     inkscape:groupmode="layer"
     id="layer3"
     inkscape:label="Layer 3"><path
       id="path5"
       style="color:#000000;display:inline;fill:#ff2d2d;stroke-width:1.06255;stroke-linecap:round;stroke-miterlimit:10;-inkscape-stroke:none"
       d="M 250.403,4.0527802 A 16.068439,15.809203 0 0 0 234.33456,19.861983 v 74.07682 a 169.33298,158.15994 0 0 1 15.56212,-1.03954 169.33298,158.15994 0 0 1 16.57476,0.75958 V 19.861983 A 16.068439,15.809203 0 0 0 250.403,4.0527802 Z M 414.97898,72.275253 a 16.068439,15.809203 0 0 0 -7.2036,4.092279 l -52.08435,51.244048 a 169.33298,158.15994 0 0 1 23.60471,21.49063 l 51.20351,-50.377424 a 16.068439,15.809203 0 0 0 0,-22.357254 16.068439,15.809203 0 0 0 -15.52027,-4.092279 z M 78.284493,73.038954 a 16.068439,15.809203 0 0 0 -7.203598,4.092277 16.068439,15.809203 0 0 0 0,22.357255 L 121.0165,148.61641 a 169.33298,158.15994 0 0 1 23.88716,-21.21068 L 93.804768,77.131231 A 16.068439,15.809203 0 0 0 78.284493,73.038954 Z M 12.872554,237.74903 a 16.068439,15.809203 0 0 0 -16.0684392,15.8092 16.068439,15.809203 0 0 0 16.0684392,15.8092 h 69.092197 a 169.33298,158.15994 0 0 1 -1.401804,-18.30821 169.33298,158.15994 0 0 1 1.018923,-13.31019 z m 405.715546,0 a 169.33298,158.15994 0 0 1 0.64232,13.31019 169.33298,158.15994 0 0 1 -1.40181,18.30821 h 71.20118 a 16.068439,15.809203 0 0 0 16.06844,-15.8092 16.068439,15.809203 0 0 0 -16.06844,-15.8092 z m -41.75075,117.84648 a 169.33298,158.15994 0 0 1 -24.32862,20.78046 l 55.26665,54.37501 a 16.068439,15.809203 0 0 0 22.72387,0 16.068439,15.809203 0 0 0 0,-22.35726 z m -253.36247,0.48581 -52.393985,51.5487 a 16.068439,15.809203 0 0 0 0,22.35727 16.068439,15.809203 0 0 0 22.723873,0 l 54.071972,-53.19963 a 169.33298,158.15994 0 0 1 -24.40186,-20.70634 z m 142.99656,52.03039 a 169.33298,158.15994 0 0 1 -16.57476,1.10747 169.33298,158.15994 0 0 1 -15.56212,-1.03954 v 80.1576 a 16.068439,15.809203 0 0 0 16.06844,15.8092 16.068439,15.809203 0 0 0 16.06844,-15.8092 z" /><path
       id="use8"
       style="color:#000000;fill:#ff2d2d;stroke-width:1.06255;stroke-linecap:round;stroke-miterlimit:10;-inkscape-stroke:none"
       d="m 156.98638,20.979743 a 16.068439,15.809203 0 0 0 -4.05269,1.068356 16.068439,15.809203 0 0 0 -8.69537,20.654889 l 14.91771,35.434845 A 194.84086,198.41216 0 0 1 188.50394,65.220809 L 173.92937,30.603184 a 16.068439,15.809203 0 0 0 -12.74805,-9.623441 16.068439,15.809203 0 0 0 -4.19494,0 z m 182.63621,0 a 16.068439,15.809203 0 0 0 -12.74804,9.623441 l -14.50972,34.465297 a 194.84086,198.41216 0 0 1 29.37511,12.851152 l 14.82565,-35.216645 a 16.068439,15.809203 0 0 0 -8.69537,-20.654889 16.068439,15.809203 0 0 0 -8.24763,-1.068356 z M 27.842565,148.04003 a 16.068439,15.809203 0 0 0 -12.748047,9.62344 16.068439,15.809203 0 0 0 8.695369,20.65695 l 40.28408,16.41646 a 194.84086,198.41216 0 0 1 11.693556,-29.457 L 36.088101,149.10839 a 16.068439,15.809203 0 0 0 -8.245536,-1.06836 z m 445.118785,0 a 16.068439,15.809203 0 0 0 -8.24554,1.06836 l -39.84889,16.23942 a 194.84086,198.41216 0 0 1 11.54291,29.52081 l 40.6042,-16.5482 a 16.068439,15.809203 0 0 0 8.69537,-20.65695 16.068439,15.809203 0 0 0 -12.74805,-9.62344 z m -37.01599,164.02254 a 194.84086,198.41216 0 0 1 -11.79608,29.41582 l 39.5518,16.11798 a 16.068439,15.809203 0 0 0 20.99567,-8.55509 16.068439,15.809203 0 0 0 -8.69746,-20.65489 z m -371.536634,0.1832 -39.6041,16.14062 a 16.068439,15.809203 0 0 0 -8.697462,20.65489 16.068439,15.809203 0 0 0 20.995677,8.55509 L 76.229908,341.6513 A 194.84086,198.41216 0 0 1 64.408726,312.24577 Z M 341.19178,427.8938 a 194.84086,198.41216 0 0 1 -29.34373,12.92731 l 14.60805,34.69585 a 16.068439,15.809203 0 0 0 20.99358,8.55714 16.068439,15.809203 0 0 0 8.69746,-20.65695 z m -181.67589,0.23466 -14.85703,35.28869 a 16.068439,15.809203 0 0 0 8.69537,20.65695 16.068439,15.809203 0 0 0 20.99359,-8.55714 l 14.53482,-34.52705 a 194.84086,198.41216 0 0 1 -29.36675,-12.86145 z" /><ellipse
       style="fill:none;fill-opacity:1;stroke:#ff2d2d;stroke-width:31.8766;stroke-linecap:round;stroke-miterlimit:10;stroke-dasharray:none;stroke-opacity:1"
       id="path4"
       cx="250.58865"
       cy="253.01588"
       rx="206.49493"
       ry="203.1635" /></g></svg>
