<?xml version="1.0" encoding="UTF-8" standalone="no"?>
<!-- Created with Inkscape (http://www.inkscape.org/) -->

<svg
   width="500"
   height="500"
   viewBox="0 0 500 500"
   version="1.1"
   id="svg1"
   inkscape:version="1.3.2 (091e20ef0f, 2023-11-25, custom)"
   sodipodi:docname="security.java.svg"
   xml:space="preserve"
   xmlns:inkscape="http://www.inkscape.org/namespaces/inkscape"
   xmlns:sodipodi="http://sodipodi.sourceforge.net/DTD/sodipodi-0.dtd"
   xmlns="http://www.w3.org/2000/svg"
   xmlns:svg="http://www.w3.org/2000/svg"><sodipodi:namedview
     id="namedview1"
     pagecolor="#505050"
     bordercolor="#eeeeee"
     borderopacity="1"
     inkscape:showpageshadow="0"
     inkscape:pageopacity="0"
     inkscape:pagecheckerboard="0"
     inkscape:deskcolor="#505050"
     inkscape:document-units="px"
     inkscape:zoom="1"
     inkscape:cx="279"
     inkscape:cy="254.5"
     inkscape:window-width="1362"
     inkscape:window-height="744"
     inkscape:window-x="0"
     inkscape:window-y="20"
     inkscape:window-maximized="1"
     inkscape:current-layer="layer1"
     showguides="true"><sodipodi:guide
       position="250.02518,350.60736"
       orientation="-0.99997769,0.0066803918"
       id="guide30"
       inkscape:locked="false" /><sodipodi:guide
       position="66.396728,247.89992"
       orientation="0,-1"
       id="guide53"
       inkscape:locked="false" /></sodipodi:namedview><defs
     id="defs1"><linearGradient
       id="swatch61"
       inkscape:swatch="solid"><stop
         style="stop-color:#5090d0;stop-opacity:1;"
         offset="0"
         id="stop61" /></linearGradient><linearGradient
       id="swatch30"
       inkscape:swatch="solid"><stop
         style="stop-color:#f9f9f9;stop-opacity:1;"
         offset="0"
         id="stop30" /></linearGradient><inkscape:perspective
       sodipodi:type="inkscape:persp3d"
       inkscape:vp_x="44.06818 : 315.96746 : 1"
       inkscape:vp_y="0 : 1000 : 0"
       inkscape:vp_z="480.74134 : 298.68846 : 1"
       inkscape:persp3d-origin="250 : 166.66667 : 1"
       id="perspective17" /><inkscape:perspective
       sodipodi:type="inkscape:persp3d"
       inkscape:vp_x="44.06818 : 315.96746 : 1"
       inkscape:vp_y="0 : 1000 : 0"
       inkscape:vp_z="480.74134 : 298.68846 : 1"
       inkscape:persp3d-origin="250 : 166.66667 : 1"
       id="perspective17-291" /><inkscape:perspective
       sodipodi:type="inkscape:persp3d"
       inkscape:vp_x="44.06818 : 315.96746 : 1"
       inkscape:vp_y="0 : 1000 : 0"
       inkscape:vp_z="480.74134 : 298.68846 : 1"
       inkscape:persp3d-origin="250 : 166.66667 : 1"
       id="perspective17-2" /><inkscape:path-effect
       effect="mirror_symmetry"
       start_point="216.08168,129.12038"
       end_point="216.08168,402.69369"
       center_point="216.08168,265.90704"
       id="path-effect2"
       is_visible="true"
       lpeversion="1.2"
       lpesatellites=""
       mode="free"
       discard_orig_path="false"
       fuse_paths="true"
       oposite_fuse="false"
       split_items="false"
       split_open="false"
       link_styles="false" /><inkscape:perspective
       sodipodi:type="inkscape:persp3d"
       inkscape:vp_x="44.06818 : 315.96746 : 1"
       inkscape:vp_y="0 : 1000 : 0"
       inkscape:vp_z="480.74134 : 298.68846 : 1"
       inkscape:persp3d-origin="250 : 166.66667 : 1"
       id="perspective17-8" /><inkscape:perspective
       sodipodi:type="inkscape:persp3d"
       inkscape:vp_x="44.06818 : 315.96746 : 1"
       inkscape:vp_y="0 : 1000 : 0"
       inkscape:vp_z="480.74134 : 298.68846 : 1"
       inkscape:persp3d-origin="250 : 166.66667 : 1"
       id="perspective17-29" /><inkscape:perspective
       sodipodi:type="inkscape:persp3d"
       inkscape:vp_x="44.06818 : 315.96746 : 1"
       inkscape:vp_y="0 : 1000 : 0"
       inkscape:vp_z="480.74134 : 298.68846 : 1"
       inkscape:persp3d-origin="250 : 166.66667 : 1"
       id="perspective17-4" /><inkscape:perspective
       sodipodi:type="inkscape:persp3d"
       inkscape:vp_x="44.06818 : 315.96746 : 1"
       inkscape:vp_y="0 : 1000 : 0"
       inkscape:vp_z="480.74134 : 298.68846 : 1"
       inkscape:persp3d-origin="250 : 166.66667 : 1"
       id="perspective17-26" /><inkscape:perspective
       sodipodi:type="inkscape:persp3d"
       inkscape:vp_x="44.06818 : 315.96746 : 1"
       inkscape:vp_y="0 : 1000 : 0"
       inkscape:vp_z="480.74134 : 298.68846 : 1"
       inkscape:persp3d-origin="250 : 166.66667 : 1"
       id="perspective17-2-1" /><inkscape:path-effect
       effect="mirror_symmetry"
       start_point="216.08168,129.12038"
       end_point="216.08168,402.69369"
       center_point="216.08168,265.90704"
       id="path-effect2-8"
       is_visible="true"
       lpeversion="1.2"
       lpesatellites=""
       mode="free"
       discard_orig_path="false"
       fuse_paths="true"
       oposite_fuse="false"
       split_items="false"
       split_open="false"
       link_styles="false" /><inkscape:perspective
       sodipodi:type="inkscape:persp3d"
       inkscape:vp_x="44.06818 : 315.96746 : 1"
       inkscape:vp_y="0 : 1000 : 0"
       inkscape:vp_z="480.74134 : 298.68846 : 1"
       inkscape:persp3d-origin="250 : 166.66667 : 1"
       id="perspective17-8-7" /><inkscape:perspective
       sodipodi:type="inkscape:persp3d"
       inkscape:vp_x="44.06818 : 315.96746 : 1"
       inkscape:vp_y="0 : 1000 : 0"
       inkscape:vp_z="480.74134 : 298.68846 : 1"
       inkscape:persp3d-origin="250 : 166.66667 : 1"
       id="perspective17-29-9" /><inkscape:perspective
       sodipodi:type="inkscape:persp3d"
       inkscape:vp_x="44.06818 : 315.96746 : 1"
       inkscape:vp_y="0 : 1000 : 0"
       inkscape:vp_z="480.74134 : 298.68846 : 1"
       inkscape:persp3d-origin="250 : 166.66667 : 1"
       id="perspective17-4-2" /></defs><g
     inkscape:label="Layer 1"
     inkscape:groupmode="layer"
     id="layer1"><rect
       style="fill:#ff1c3c;stroke-width:22.062;stroke-linejoin:round;paint-order:markers fill stroke;fill-opacity:1"
       id="rect1"
       width="400.10913"
       height="48.591976"
       x="50.107121"
       y="432.68134"
       rx="20.283075"
       ry="13.298325" /><path
       id="rect5"
       style="display:none;fill:#ff1c3c;fill-opacity:1;stroke-width:15.842;stroke-linejoin:round;paint-order:markers fill stroke"
       d="m 92.695312,93.429688 c -10.050509,0 -18.142578,3.420846 -18.142578,7.667972 v 80.55468 c 0,4.24713 8.092069,7.66602 18.142578,7.66602 h 5.853516 c -0.02072,0.66525 -0.0625,1.32671 -0.0625,1.99609 v 148.30078 c 0,43.28068 43.560772,78.12305 97.669922,78.12305 h 109.20898 c 54.10915,0 97.66993,-34.84237 97.66993,-78.12305 V 191.31445 c 0,-0.66938 -0.0418,-1.33084 -0.0625,-1.99609 h 5.89062 c 10.05051,0 18.14258,-3.41889 18.14258,-7.66602 v -80.55468 c 0,-4.247126 -8.09207,-7.667972 -18.14258,-7.667972 z" /><path
       id="rect2"
       style="display:none;opacity:1;mix-blend-mode:luminosity;fill:#ffffff;fill-opacity:1;stroke:none;stroke-width:45.2617;stroke-linecap:round;stroke-linejoin:round;stroke-miterlimit:10"
       d="m 248.82844,128.63756 c -39.32813,0.3437 -64.349,15.54192 -76.28603,32.15267 -11.81138,16.43583 -11.54779,33.35494 -11.54779,33.35494 v 13.38017 34.11398 c -9.91474,4.55453 -17.56677,13.48256 -17.56677,24.73792 v 76.56734 c 0,16.79393 16.60297,28.18932 33.39794,28.18932 h 148.42263 c 16.79498,0 33.39797,-11.39569 33.39795,-28.18932 v -76.56734 c 0,-11.71777 -8.269,-20.88893 -18.79507,-25.27027 v -47.53746 l -0.0171,-0.39481 -0.003,-0.0179 c -0.002,-0.0541 -0.7629,-17.01575 -13.27197,-33.2887 -12.64828,-16.45411 -38.24549,-31.55574 -77.66823,-31.22806 -0.0218,0 -0.0411,-0.003 -0.0628,-0.003 z m 0.40184,36.80887 c 28.73266,-0.25114 37.43826,7.53034 43.38398,15.26506 5.59522,7.27877 6.06478,14.15666 6.05602,14.00424 v 43.47221 h -96.4918 v -30.6626 -13.64254 -0.003 c 0,0 -0.041,-6.16263 5.01582,-13.19933 5.27888,-7.34575 13.16244,-14.98215 42.03598,-15.2345 z"
       sodipodi:nodetypes="cscccssssssccccsccssccccccss" /><path
       id="path3"
       style="fill:#ff1c3c;fill-opacity:1;stroke:none;stroke-width:29.7007;stroke-linecap:round;stroke-linejoin:round;stroke-miterlimit:10;stroke-dasharray:none;stroke-opacity:1"
       inkscape:transform-center-x="-4.3141065"
       inkscape:transform-center-y="-20.361487"
       d="M 257.87387,19.556069 45.474281,40.464084 100.46433,299.67573 247.53931,420.70078 404.64439,305.5386 469.97111,51.686629 Z m -8.4,21.548642 c 0.0221,-2.17e-4 0.0413,0.0022 0.0634,0.0022 40.08726,-0.372794 66.11496,16.810216 78.97645,35.530312 12.71995,18.513998 13.49534,37.809207 13.4975,37.870797 l 0.002,0.0211 0.019,0.44823 v 54.08514 c 10.7035,4.98474 19.11088,15.41835 19.11088,28.74984 v 87.11218 c 10e-6,19.10638 -16.88343,32.07135 -33.96152,32.07135 H 176.25669 c -17.07809,0 -33.96152,-12.96463 -33.96152,-32.07136 v -87.11217 c 0,-12.80541 7.78372,-22.9634 17.86558,-28.14516 V 130.8555 115.63275 c 0,0 -0.26992,-19.249711 11.74055,-37.949038 12.13824,-18.89832 37.58152,-36.187935 77.57257,-36.57899 z m 0.40806,41.87735 c -29.36024,0.287092 -37.37634,8.975417 -42.7442,17.332789 -5.14206,8.0058 -5.09963,15.01555 -5.09963,15.01555 v 0.004 15.52085 34.88757 h 98.11694 v -49.46123 c 0.01,0.17342 -0.4672,-7.64985 -6.15676,-15.93103 -6.04592,-8.799914 -14.89936,-17.654437 -44.11635,-17.368732 z" /></g></svg>
