<?xml version="1.0" encoding="UTF-8" standalone="no"?>
<!-- Created with Inkscape (http://www.inkscape.org/) -->

<svg
   width="500"
   height="500"
   viewBox="0 0 500 500"
   version="1.1"
   id="svg1"
   inkscape:version="1.3.2 (091e20ef0f, 2023-11-25, custom)"
   sodipodi:docname="sequelice.svg"
   xml:space="preserve"
   xmlns:inkscape="http://www.inkscape.org/namespaces/inkscape"
   xmlns:sodipodi="http://sodipodi.sourceforge.net/DTD/sodipodi-0.dtd"
   xmlns:xlink="http://www.w3.org/1999/xlink"
   xmlns="http://www.w3.org/2000/svg"
   xmlns:svg="http://www.w3.org/2000/svg"><sodipodi:namedview
     id="namedview1"
     pagecolor="#505050"
     bordercolor="#eeeeee"
     borderopacity="1"
     inkscape:showpageshadow="0"
     inkscape:pageopacity="0"
     inkscape:pagecheckerboard="0"
     inkscape:deskcolor="#505050"
     inkscape:document-units="px"
     inkscape:zoom="0.68158229"
     inkscape:cx="244.28452"
     inkscape:cy="141.58232"
     inkscape:window-width="1362"
     inkscape:window-height="744"
     inkscape:window-x="0"
     inkscape:window-y="20"
     inkscape:window-maximized="0"
     inkscape:current-layer="svg1"
     showguides="true"><sodipodi:guide
       position="250.02518,350.60736"
       orientation="-0.99997769,0.0066803918"
       id="guide30"
       inkscape:locked="false" /><sodipodi:guide
       position="663.22921,249.35225"
       orientation="0,-1"
       id="guide53"
       inkscape:locked="false" /></sodipodi:namedview><defs
     id="defs1"><linearGradient
       id="linearGradient5"
       inkscape:collect="always"><stop
         style="stop-color:#0ccafc;stop-opacity:1;"
         offset="0"
         id="stop5" /><stop
         style="stop-color:#ae66fc;stop-opacity:1;"
         offset="1"
         id="stop6" /></linearGradient><linearGradient
       id="swatch61"
       inkscape:swatch="solid"><stop
         style="stop-color:#5090d0;stop-opacity:1;"
         offset="0"
         id="stop61" /></linearGradient><linearGradient
       id="swatch30"
       inkscape:swatch="solid"><stop
         style="stop-color:#f9f9f9;stop-opacity:1;"
         offset="0"
         id="stop30" /></linearGradient><inkscape:perspective
       sodipodi:type="inkscape:persp3d"
       inkscape:vp_x="44.06818 : 315.96746 : 1"
       inkscape:vp_y="0 : 1000 : 0"
       inkscape:vp_z="480.74134 : 298.68846 : 1"
       inkscape:persp3d-origin="250 : 166.66667 : 1"
       id="perspective17" /><inkscape:perspective
       sodipodi:type="inkscape:persp3d"
       inkscape:vp_x="44.06818 : 315.96746 : 1"
       inkscape:vp_y="0 : 1000 : 0"
       inkscape:vp_z="480.74134 : 298.68846 : 1"
       inkscape:persp3d-origin="250 : 166.66667 : 1"
       id="perspective17-4" /><inkscape:perspective
       sodipodi:type="inkscape:persp3d"
       inkscape:vp_x="44.06818 : 315.96746 : 1"
       inkscape:vp_y="0 : 1000 : 0"
       inkscape:vp_z="480.74134 : 298.68846 : 1"
       inkscape:persp3d-origin="250 : 166.66667 : 1"
       id="perspective17-1" /><inkscape:perspective
       sodipodi:type="inkscape:persp3d"
       inkscape:vp_x="44.06818 : 315.96746 : 1"
       inkscape:vp_y="0 : 1000 : 0"
       inkscape:vp_z="480.74134 : 298.68846 : 1"
       inkscape:persp3d-origin="250 : 166.66667 : 1"
       id="perspective17-3" /><inkscape:perspective
       sodipodi:type="inkscape:persp3d"
       inkscape:vp_x="44.06818 : 315.96746 : 1"
       inkscape:vp_y="0 : 1000 : 0"
       inkscape:vp_z="480.74134 : 298.68846 : 1"
       inkscape:persp3d-origin="250 : 166.66667 : 1"
       id="perspective17-31" /><inkscape:perspective
       sodipodi:type="inkscape:persp3d"
       inkscape:vp_x="44.06818 : 315.96746 : 1"
       inkscape:vp_y="0 : 1000 : 0"
       inkscape:vp_z="480.74134 : 298.68846 : 1"
       inkscape:persp3d-origin="250 : 166.66667 : 1"
       id="perspective17-5" /><inkscape:perspective
       sodipodi:type="inkscape:persp3d"
       inkscape:vp_x="44.06818 : 315.96746 : 1"
       inkscape:vp_y="0 : 1000 : 0"
       inkscape:vp_z="480.74134 : 298.68846 : 1"
       inkscape:persp3d-origin="250 : 166.66667 : 1"
       id="perspective17-2" /><linearGradient
       inkscape:collect="always"
       xlink:href="#linearGradient5"
       id="linearGradient6"
       x1="0.65247005"
       y1="0.47064278"
       x2="31.569197"
       y2="31.601044"
       gradientUnits="userSpaceOnUse" /></defs><g
     id="g5"
     transform="matrix(16.153768,0,0,16.153768,-6.4526147,-7.0986922)"
     style="opacity:0.7846206"><path
       id="path1"
       style="fill:url(#linearGradient6);fill-opacity:1"
       d="M 16.014034 2.0000087 L 3.8880174 8.9999961 L 3.8880174 22.999971 L 16.037853 29.997056 L 16.040997 30.000079 L 16.041964 29.999475 L 16.042931 30.000079 L 16.042931 29.99887 L 28.112 23.028022 L 28.112 8.9731544 L 28.114055 8.9720662 L 16.014034 2.0000087 z M 16.014034 6.0229913 L 24.613155 10.928484 L 24.611946 10.928967 L 24.611946 21.015986 L 16.041117 26.087002 L 7.4429639 21.100017 L 7.4429639 11.067045 L 16.014034 6.0229913 z M 15.837991 6.6559464 L 12.469002 8.6489992 L 15.894093 10.642052 L 19.263082 8.6770499 L 15.837991 6.6559464 z M 11.645012 9.1259825 L 8.2760222 11.120003 L 8.2760222 15.172003 L 11.69797 17.048984 L 11.69797 13.118013 L 11.695068 13.110275 L 11.699904 13.113055 L 15.069015 11.148053 L 11.645012 9.1259825 z M 20.329977 9.2200492 L 16.960988 11.212981 L 20.385958 13.206034 L 20.386321 13.205792 L 20.385958 13.207001 L 20.29298 13.255002 L 20.29298 17.037014 L 20.385958 17.137005 L 20.387046 17.135071 L 23.756036 15.142139 L 23.756036 11.24212 L 23.75398 11.241636 L 23.754948 11.241032 L 20.329977 9.2200492 z M 16.136998 11.689964 L 16.136998 11.690932 L 12.768008 13.683985 L 12.768008 13.8431 L 12.469002 14.019989 L 12.470695 14.020956 L 12.469002 14.020956 L 12.469002 18.072957 L 12.465979 18.078035 L 15.89107 19.949937 L 15.89107 19.941716 L 15.894093 19.94498 L 15.894939 19.941957 L 19.26405 17.948905 L 19.26405 17.788822 L 19.563056 17.611933 L 19.563056 13.711914 L 19.561363 13.711552 L 16.136998 11.689964 z M 8.2760222 16.490992 L 8.2760222 20.54396 L 11.69797 22.419974 L 11.69797 18.489002 L 11.669919 18.413072 L 8.369968 16.490992 L 8.2760222 16.490992 z M 23.656045 16.590983 L 20.409052 18.485012 L 20.385958 18.577991 L 20.29298 18.625991 L 20.29298 22.408971 L 20.385958 22.508962 L 20.387046 22.505939 L 23.755915 20.513007 L 23.755915 16.612989 L 23.656045 16.590983 z M 12.861954 19.055941 L 12.768008 19.056062 L 12.768008 23.108063 L 12.764986 23.108063 L 16.190077 24.979965 L 16.190077 24.976701 L 16.192978 24.979965 L 19.563056 22.987034 L 19.563056 19.087015 L 19.463065 19.065009 L 16.215951 20.958917 L 16.192978 21.052017 L 16.189835 21.053589 L 16.162026 20.978021 L 12.861954 19.055941 z " /></g></svg>
