<?xml version="1.0" encoding="UTF-8" standalone="no"?>
<!-- Created with Inkscape (http://www.inkscape.org/) -->

<svg
   width="500"
   height="500"
   viewBox="0 0 500 500"
   version="1.1"
   id="svg1"
   inkscape:version="1.3.2 (091e20ef0f, 2023-11-25, custom)"
   sodipodi:docname="service.ts.svg"
   xml:space="preserve"
   xmlns:inkscape="http://www.inkscape.org/namespaces/inkscape"
   xmlns:sodipodi="http://sodipodi.sourceforge.net/DTD/sodipodi-0.dtd"
   xmlns:xlink="http://www.w3.org/1999/xlink"
   xmlns="http://www.w3.org/2000/svg"
   xmlns:svg="http://www.w3.org/2000/svg"><sodipodi:namedview
     id="namedview1"
     pagecolor="#505050"
     bordercolor="#eeeeee"
     borderopacity="1"
     inkscape:showpageshadow="0"
     inkscape:pageopacity="0"
     inkscape:pagecheckerboard="0"
     inkscape:deskcolor="#505050"
     inkscape:document-units="px"
     inkscape:zoom="0.68158229"
     inkscape:cx="101.96861"
     inkscape:cy="222.2769"
     inkscape:window-width="1352"
     inkscape:window-height="734"
     inkscape:window-x="4"
     inkscape:window-y="24"
     inkscape:window-maximized="1"
     inkscape:current-layer="svg1"
     showguides="true"><sodipodi:guide
       position="250.02518,350.60736"
       orientation="-0.99997769,0.0066803918"
       id="guide30"
       inkscape:locked="false" /><sodipodi:guide
       position="66.396728,247.89992"
       orientation="0,-1"
       id="guide53"
       inkscape:locked="false" /></sodipodi:namedview><defs
     id="defs1"><linearGradient
       id="linearGradient3"
       inkscape:collect="always"><stop
         style="stop-color:#f5b439;stop-opacity:1;"
         offset="0"
         id="stop3" /><stop
         style="stop-color:#ec69a6;stop-opacity:1;"
         offset="0.7900908"
         id="stop4" /><stop
         style="stop-color:#9669ec;stop-opacity:1;"
         offset="1"
         id="stop5" /></linearGradient><inkscape:path-effect
       effect="mirror_symmetry"
       start_point="250.54403,261.72003"
       end_point="250.54403,442.67653"
       center_point="250.54403,352.19828"
       id="path-effect3"
       is_visible="true"
       lpeversion="1.2"
       lpesatellites=""
       mode="free"
       discard_orig_path="false"
       fuse_paths="true"
       oposite_fuse="false"
       split_items="false"
       split_open="false"
       link_styles="false" /><linearGradient
       id="swatch61"
       inkscape:swatch="solid"><stop
         style="stop-color:#5090d0;stop-opacity:1;"
         offset="0"
         id="stop61" /></linearGradient><linearGradient
       id="swatch30"
       inkscape:swatch="solid"><stop
         style="stop-color:#f9f9f9;stop-opacity:1;"
         offset="0"
         id="stop30" /></linearGradient><inkscape:perspective
       sodipodi:type="inkscape:persp3d"
       inkscape:vp_x="44.06818 : 315.96746 : 1"
       inkscape:vp_y="0 : 1000 : 0"
       inkscape:vp_z="480.74134 : 298.68846 : 1"
       inkscape:persp3d-origin="250 : 166.66667 : 1"
       id="perspective17" /><inkscape:perspective
       sodipodi:type="inkscape:persp3d"
       inkscape:vp_x="44.06818 : 315.96746 : 1"
       inkscape:vp_y="0 : 1000 : 0"
       inkscape:vp_z="480.74134 : 298.68846 : 1"
       inkscape:persp3d-origin="250 : 166.66667 : 1"
       id="perspective17-7" /><inkscape:perspective
       sodipodi:type="inkscape:persp3d"
       inkscape:vp_x="44.06818 : 315.96746 : 1"
       inkscape:vp_y="0 : 1000 : 0"
       inkscape:vp_z="480.74134 : 298.68846 : 1"
       inkscape:persp3d-origin="250 : 166.66667 : 1"
       id="perspective17-29" /><inkscape:perspective
       sodipodi:type="inkscape:persp3d"
       inkscape:vp_x="44.06818 : 315.96746 : 1"
       inkscape:vp_y="0 : 1000 : 0"
       inkscape:vp_z="480.74134 : 298.68846 : 1"
       inkscape:persp3d-origin="250 : 166.66667 : 1"
       id="perspective17-59" /><inkscape:perspective
       sodipodi:type="inkscape:persp3d"
       inkscape:vp_x="44.06818 : 315.96746 : 1"
       inkscape:vp_y="0 : 1000 : 0"
       inkscape:vp_z="480.74134 : 298.68846 : 1"
       inkscape:persp3d-origin="250 : 166.66667 : 1"
       id="perspective17-5" /><inkscape:perspective
       sodipodi:type="inkscape:persp3d"
       inkscape:vp_x="44.06818 : 315.96746 : 1"
       inkscape:vp_y="0 : 1000 : 0"
       inkscape:vp_z="480.74134 : 298.68846 : 1"
       inkscape:persp3d-origin="250 : 166.66667 : 1"
       id="perspective17-2" /><radialGradient
       inkscape:collect="always"
       xlink:href="#linearGradient3"
       id="radialGradient4"
       cx="627.29584"
       cy="157.50539"
       fx="627.29584"
       fy="157.50539"
       r="157.67773"
       gradientTransform="matrix(1.2776636,-2.6741597,1.7620055,0.84185327,-988.04173,1700.5543)"
       gradientUnits="userSpaceOnUse" /><inkscape:perspective
       sodipodi:type="inkscape:persp3d"
       inkscape:vp_x="44.06818 : 315.96746 : 1"
       inkscape:vp_y="0 : 1000 : 0"
       inkscape:vp_z="480.74134 : 298.68846 : 1"
       inkscape:persp3d-origin="250 : 166.66667 : 1"
       id="perspective17-6" /><inkscape:perspective
       sodipodi:type="inkscape:persp3d"
       inkscape:vp_x="44.06818 : 315.96746 : 1"
       inkscape:vp_y="0 : 1000 : 0"
       inkscape:vp_z="480.74134 : 298.68846 : 1"
       inkscape:persp3d-origin="250 : 166.66667 : 1"
       id="perspective17-2-1" /><inkscape:perspective
       sodipodi:type="inkscape:persp3d"
       inkscape:vp_x="44.06818 : 315.96746 : 1"
       inkscape:vp_y="0 : 1000 : 0"
       inkscape:vp_z="480.74134 : 298.68846 : 1"
       inkscape:persp3d-origin="250 : 166.66667 : 1"
       id="perspective17-9" /><inkscape:perspective
       sodipodi:type="inkscape:persp3d"
       inkscape:vp_x="44.06818 : 315.96746 : 1"
       inkscape:vp_y="0 : 1000 : 0"
       inkscape:vp_z="480.74134 : 298.68846 : 1"
       inkscape:persp3d-origin="250 : 166.66667 : 1"
       id="perspective17-7-3" /><inkscape:perspective
       sodipodi:type="inkscape:persp3d"
       inkscape:vp_x="44.06818 : 315.96746 : 1"
       inkscape:vp_y="0 : 1000 : 0"
       inkscape:vp_z="480.74134 : 298.68846 : 1"
       inkscape:persp3d-origin="250 : 166.66667 : 1"
       id="perspective17-4" /><inkscape:perspective
       sodipodi:type="inkscape:persp3d"
       inkscape:vp_x="44.06818 : 315.96746 : 1"
       inkscape:vp_y="0 : 1000 : 0"
       inkscape:vp_z="480.74134 : 298.68846 : 1"
       inkscape:persp3d-origin="250 : 166.66667 : 1"
       id="perspective17-26" /><inkscape:perspective
       sodipodi:type="inkscape:persp3d"
       inkscape:vp_x="44.06818 : 315.96746 : 1"
       inkscape:vp_y="0 : 1000 : 0"
       inkscape:vp_z="480.74134 : 298.68846 : 1"
       inkscape:persp3d-origin="250 : 166.66667 : 1"
       id="perspective17-59-7" /><inkscape:perspective
       sodipodi:type="inkscape:persp3d"
       inkscape:vp_x="44.06818 : 315.96746 : 1"
       inkscape:vp_y="0 : 1000 : 0"
       inkscape:vp_z="480.74134 : 298.68846 : 1"
       inkscape:persp3d-origin="250 : 166.66667 : 1"
       id="perspective17-5-4" /><inkscape:perspective
       sodipodi:type="inkscape:persp3d"
       inkscape:vp_x="44.06818 : 315.96746 : 1"
       inkscape:vp_y="0 : 1000 : 0"
       inkscape:vp_z="480.74134 : 298.68846 : 1"
       inkscape:persp3d-origin="250 : 166.66667 : 1"
       id="perspective17-2-5" /></defs><path
     id="path2"
     style="opacity:1;fill:url(#radialGradient4);stroke:none;stroke-width:37.4607;stroke-linecap:round;stroke-linejoin:round;stroke-miterlimit:10;stroke-opacity:0.807843;paint-order:stroke markers fill"
     d="M 223.88867 12.482422 C 130.68284 12.482849 55.124268 88.042231 55.125 181.24805 C 55.253159 240.65961 86.612198 295.62888 137.68945 325.97461 C 147.82181 339.70784 156.73047 337.33466 156.73047 362.28906 C 158.97214 400.02529 146.56227 414.78125 173.7793 414.78125 L 223.56836 414.78125 L 254.57031 414.78125 L 254.57031 345.95508 L 220.76953 345.95508 A 17.50175 17.50175 0 0 0 220.76758 345.95508 C 208.37707 345.95383 197.95803 335.53309 197.95703 323.14258 A 17.50175 17.50175 0 0 0 197.95703 323.14062 L 197.95703 294.32617 A 17.50175 17.50175 0 0 0 197.95703 294.32422 C 197.95828 281.93371 208.37707 271.51467 220.76758 271.51367 A 17.50175 17.50175 0 0 0 220.76953 271.51367 L 366.13672 271.51367 C 383.05828 244.96455 392.57319 213.79871 392.65234 181.24805 C 392.65307 88.042231 317.0945 12.482848 223.88867 12.482422 z M 232.95703 306.51367 L 232.95703 310.95508 L 272.07031 310.95508 A 17.50175 17.50175 0 0 1 289.57031 328.45508 L 289.57031 409.08008 C 293.6751 401.75434 288.93892 386.95734 290.4043 362.28906 C 290.4043 347.92961 293.40177 342.84697 297.83789 338.36328 L 297.83789 328.45508 A 17.50175 17.50175 0 0 1 315.33789 310.95508 L 331.23047 310.95508 C 333.00395 309.49214 334.78965 308.04263 336.49609 306.51367 L 232.95703 306.51367 z M 173.77734 440.84375 C 146.56033 440.84375 157.32613 466.50203 156.73047 476.5293 C 156.73047 484.64046 219.72119 487.97509 259.2207 484.90234 C 256.32508 481.07691 254.57072 476.36434 254.57031 471.30859 A 17.50175 17.50175 0 0 0 254.57031 471.30664 L 254.57031 440.84375 L 223.56641 440.84375 L 173.77734 440.84375 z M 289.57031 447 L 289.57031 459.11914 L 292.17383 459.11914 C 292.36713 454.61544 291.8868 450.30185 289.57031 447 z " /><path
     id="path9"
     style="color:#000000;-inkscape-font-specification:'System-ui Bold';fill:#3178c6;stroke-width:1.06257;stroke-linejoin:round;-inkscape-stroke:none;paint-order:markers fill stroke"
     d="m 220.77031,289.01271 a 5.3133637,5.3133637 0 0 0 -5.31283,5.31283 v 28.81589 a 5.3133637,5.3133637 0 0 0 5.31283,5.31283 h 51.29997 V 471.3072 a 5.3133637,5.3133637 0 0 0 5.31283,5.31283 h 32.64279 a 5.3133637,5.3133637 0 0 0 5.31284,-5.31283 V 328.45426 h 51.81047 a 5.3133637,5.3133637 0 0 0 5.31284,-5.31283 v -28.81589 a 5.3133637,5.3133637 0 0 0 -5.31284,-5.31283 z m 216.25303,50.49266 c -18.44978,0 -33.5559,3.71611 -44.41403,11.39976 -10.85814,7.68368 -17.00314,19.62278 -17.00314,33.69498 0,12.8701 5.26848,22.3975 12.83381,28.44233 7.56533,6.04484 16.96296,8.97807 25.90836,11.14866 8.9454,2.17057 17.60433,3.59274 23.35155,5.59299 2.87362,1.00013 4.93048,2.14833 5.96656,3.12129 1.0361,0.97298 1.30332,1.46923 1.30332,2.9532 0,2.06753 -0.61855,3.20838 -3.27901,4.72551 -2.66046,1.51712 -7.4475,2.71245 -13.84866,2.71245 -11.00605,0 -27.0452,-3.21367 -39.37306,-8.04812 a 5.3133637,5.3133637 0 0 0 -7.02082,3.39524 l -7.39647,24.22527 a 5.3133637,5.3133637 0 0 0 3.06318,6.46672 c 15.03984,6.17706 33.65538,9.83288 51.23771,9.83288 17.85257,0 32.55589,-3.81019 43.1128,-11.54711 10.55689,-7.7369 16.5175,-19.62428 16.5175,-33.54763 0,-12.94114 -5.29971,-22.5873 -12.9085,-28.80343 -7.6088,-6.21617 -17.09821,-9.35943 -26.15741,-11.66541 -9.0592,-2.30599 -17.84926,-3.78472 -23.74378,-5.74243 -2.94728,-0.97884 -5.09719,-2.09999 -6.14297,-3.00506 -1.04577,-0.90508 -1.17672,-1.16827 -1.17672,-2.29738 0,-1.81818 0.474,-2.77346 3.37033,-4.26689 2.89632,-1.4934 8.16974,-2.66055 15.28892,-2.66055 9.49224,0 21.37524,1.94988 32.44149,5.1468 a 5.3133637,5.3133637 0 0 0 6.60368,-3.71483 l 6.63067,-24.48261 a 5.3133637,5.3133637 0 0 0 -3.34957,-6.39408 c -12.21747,-4.34397 -27.2103,-6.68255 -41.81574,-6.68255 z" /></svg>
