<?xml version="1.0" encoding="UTF-8" standalone="no"?>
<!-- Created with Inkscape (http://www.inkscape.org/) -->

<svg
   width="500"
   height="500"
   viewBox="0 0 500 500"
   version="1.1"
   id="svg1"
   inkscape:version="1.3.2 (091e20ef0f, 2023-11-25, custom)"
   sodipodi:docname="service.js.svg"
   xmlns:inkscape="http://www.inkscape.org/namespaces/inkscape"
   xmlns:sodipodi="http://sodipodi.sourceforge.net/DTD/sodipodi-0.dtd"
   xmlns="http://www.w3.org/2000/svg"
   xmlns:svg="http://www.w3.org/2000/svg">
  <sodipodi:namedview
     id="namedview1"
     pagecolor="#505050"
     bordercolor="#eeeeee"
     borderopacity="1"
     inkscape:showpageshadow="0"
     inkscape:pageopacity="0"
     inkscape:pagecheckerboard="0"
     inkscape:deskcolor="#505050"
     inkscape:document-units="px"
     inkscape:zoom="0.96390292"
     inkscape:cx="200.22763"
     inkscape:cy="280.62992"
     inkscape:window-width="1362"
     inkscape:window-height="744"
     inkscape:window-x="0"
     inkscape:window-y="20"
     inkscape:window-maximized="1"
     inkscape:current-layer="layer1"
     showguides="true">
    <sodipodi:guide
       position="250.02518,350.60736"
       orientation="-0.99997769,0.0066803918"
       id="guide30"
       inkscape:locked="false" />
    <sodipodi:guide
       position="66.396728,247.89992"
       orientation="0,-1"
       id="guide53"
       inkscape:locked="false" />
  </sodipodi:namedview>
  <defs
     id="defs1">
    <linearGradient
       id="swatch61"
       inkscape:swatch="solid">
      <stop
         style="stop-color:#5090d0;stop-opacity:1;"
         offset="0"
         id="stop61" />
    </linearGradient>
    <linearGradient
       id="swatch30"
       inkscape:swatch="solid">
      <stop
         style="stop-color:#f9f9f9;stop-opacity:1;"
         offset="0"
         id="stop30" />
    </linearGradient>
    <inkscape:perspective
       sodipodi:type="inkscape:persp3d"
       inkscape:vp_x="44.06818 : 315.96746 : 1"
       inkscape:vp_y="0 : 1000 : 0"
       inkscape:vp_z="480.74134 : 298.68846 : 1"
       inkscape:persp3d-origin="250 : 166.66667 : 1"
       id="perspective17" />
  </defs>
  <g
     inkscape:label="Layer 1"
     inkscape:groupmode="layer"
     id="layer1">
    <path
       id="path1"
       style="color:#000000;fill:#ffc340;stroke-width:1.4313;stroke-linejoin:round;-inkscape-stroke:none;paint-order:markers fill stroke;fill-opacity:1"
       d="M 194.46289 37.644531 L 194.46289 90.140625 C 188.74261 92.144775 183.15298 94.431991 177.71484 97.001953 L 140.64844 59.935547 L 59.679688 140.90234 L 95.6875 176.91211 C 92.770556 182.68139 90.131905 188.61131 87.861328 194.7168 L 37.390625 194.7168 L 37.390625 309.2207 L 85.939453 309.2207 C 88.186181 315.95702 90.815648 322.52202 93.839844 328.875 L 59.679688 363.03711 L 140.64844 444.00195 L 173.97656 410.67578 C 175.80798 411.59545 177.69827 412.40588 179.56445 413.26172 A 65.0065 65.0065 0 0 1 182.63672 402.12695 L 188.39648 387.24609 A 65.0065 65.0065 0 0 1 232.49414 348.37695 L 232.49414 334.95703 A 85.682545 82.248721 0 0 1 165.71094 254.75195 A 85.682545 82.248721 0 0 1 251.39258 172.50586 A 85.682545 82.248721 0 0 1 314.54492 199.79102 L 317.41406 199.79102 A 65.0065 65.0065 0 0 1 379.95508 249.27344 C 386.17089 248.56967 392.37991 248.27148 398.53516 248.27148 C 418.42218 248.27148 438.00146 251.47955 457.26953 259.46875 A 65.0065 65.0065 0 0 1 466.04102 263.93945 L 466.04102 194.7168 L 414.92383 194.7168 C 412.70921 188.76174 410.14456 182.97171 407.31445 177.33594 L 443.75 140.90234 L 362.7832 59.935547 L 325.51562 97.203125 C 320.14173 94.6451 314.61813 92.366322 308.9668 90.361328 L 308.9668 37.644531 L 194.46289 37.644531 z " />
    <g
       id="text1" />
    <path
       d="m 273.01425,433.75138 c 28.32,0 44.4,-18 44.4,-50.4 v -118.56 h -19.92 v 120.72 c 0,19.68 -8.88,30.72 -24.96,30.72 -7.2,0 -16.8,-2.16 -23.52,-5.52 l -5.76,14.88 c 9.6,5.76 19.68,8.16 29.76,8.16 z m 118.56017,0 c 28.56,0 46.08,-13.44 46.08,-34.8 0,-42.48 -69.12,-26.64 -69.12,-52.8 0,-10.08 10.8,-16.56 28.08,-16.56 9.84,0 21.36,2.16 31.2,5.52 l 4.56,-15.6 c -9.84,-4.08 -21.6,-6.24 -33.84,-6.24 -30,0 -49.2,13.2 -49.2,35.04 0,41.52 68.88,24.24 68.88,52.56 0,10.56 -9.36,16.56 -25.2,16.56 -12.24,0 -28.56,-3.36 -40.8,-8.64 l -4.56,15.6 c 13.2,6 29.28,9.36 43.92,9.36 z"
       id="path6"
       style="font-size:240px;font-family:System-ui;-inkscape-font-specification:System-ui;display:inline;fill:#ff9340;fill-opacity:0.313725;stroke:#ffc340;stroke-width:23.529;stroke-linejoin:round;paint-order:markers fill stroke"
       aria-label="Js" />
  </g>
</svg>
