<?xml version="1.0" encoding="UTF-8" standalone="no"?>
<!-- Created with Inkscape (http://www.inkscape.org/) -->

<svg
   width="500"
   height="500"
   viewBox="0 0 500 500"
   version="1.1"
   id="svg1"
   inkscape:version="1.3.2 (091e20ef0f, 2023-11-25, custom)"
   sodipodi:docname="service.ts.svg"
   xmlns:inkscape="http://www.inkscape.org/namespaces/inkscape"
   xmlns:sodipodi="http://sodipodi.sourceforge.net/DTD/sodipodi-0.dtd"
   xmlns="http://www.w3.org/2000/svg"
   xmlns:svg="http://www.w3.org/2000/svg">
  <sodipodi:namedview
     id="namedview1"
     pagecolor="#505050"
     bordercolor="#eeeeee"
     borderopacity="1"
     inkscape:showpageshadow="0"
     inkscape:pageopacity="0"
     inkscape:pagecheckerboard="0"
     inkscape:deskcolor="#505050"
     inkscape:document-units="px"
     inkscape:zoom="0.96390292"
     inkscape:cx="200.22763"
     inkscape:cy="280.62992"
     inkscape:window-width="1362"
     inkscape:window-height="744"
     inkscape:window-x="0"
     inkscape:window-y="20"
     inkscape:window-maximized="1"
     inkscape:current-layer="layer1"
     showguides="true">
    <sodipodi:guide
       position="250.02518,350.60736"
       orientation="-0.99997769,0.0066803918"
       id="guide30"
       inkscape:locked="false" />
    <sodipodi:guide
       position="66.396728,247.89992"
       orientation="0,-1"
       id="guide53"
       inkscape:locked="false" />
  </sodipodi:namedview>
  <defs
     id="defs1">
    <linearGradient
       id="swatch61"
       inkscape:swatch="solid">
      <stop
         style="stop-color:#5090d0;stop-opacity:1;"
         offset="0"
         id="stop61" />
    </linearGradient>
    <linearGradient
       id="swatch30"
       inkscape:swatch="solid">
      <stop
         style="stop-color:#f9f9f9;stop-opacity:1;"
         offset="0"
         id="stop30" />
    </linearGradient>
    <inkscape:perspective
       sodipodi:type="inkscape:persp3d"
       inkscape:vp_x="44.06818 : 315.96746 : 1"
       inkscape:vp_y="0 : 1000 : 0"
       inkscape:vp_z="480.74134 : 298.68846 : 1"
       inkscape:persp3d-origin="250 : 166.66667 : 1"
       id="perspective17" />
  </defs>
  <g
     inkscape:label="Layer 1"
     inkscape:groupmode="layer"
     id="layer1">
    <path
       id="path1"
       style="color:#000000;fill:#3178c6;stroke-width:1.4313;stroke-linejoin:round;-inkscape-stroke:none;paint-order:markers fill stroke;fill-opacity:1"
       d="M 194.46289 37.644531 L 194.46289 90.140625 C 188.74261 92.144775 183.15298 94.431991 177.71484 97.001953 L 140.64844 59.935547 L 59.679688 140.90234 L 95.6875 176.91211 C 92.770556 182.68139 90.131905 188.61131 87.861328 194.7168 L 37.390625 194.7168 L 37.390625 309.2207 L 85.939453 309.2207 C 88.186181 315.95702 90.815648 322.52202 93.839844 328.875 L 59.679688 363.03711 L 140.64844 444.00195 L 173.97656 410.67578 C 175.80798 411.59545 177.69827 412.40588 179.56445 413.26172 A 65.0065 65.0065 0 0 1 182.63672 402.12695 L 188.39648 387.24609 A 65.0065 65.0065 0 0 1 232.49414 348.37695 L 232.49414 334.95703 A 85.682545 82.248721 0 0 1 165.71094 254.75195 A 85.682545 82.248721 0 0 1 251.39258 172.50586 A 85.682545 82.248721 0 0 1 314.54492 199.79102 L 317.41406 199.79102 A 65.0065 65.0065 0 0 1 379.95508 249.27344 C 386.17089 248.56967 392.37991 248.27148 398.53516 248.27148 C 418.42218 248.27148 438.00146 251.47955 457.26953 259.46875 A 65.0065 65.0065 0 0 1 466.04102 263.93945 L 466.04102 194.7168 L 414.92383 194.7168 C 412.70921 188.76174 410.14456 182.97171 407.31445 177.33594 L 443.75 140.90234 L 362.7832 59.935547 L 325.51562 97.203125 C 320.14173 94.6451 314.61813 92.366322 308.9668 90.361328 L 308.9668 37.644531 L 194.46289 37.644531 z " />
    <g
       id="text1" />
    <g
       id="text9">
      <path
         style="color:#000000;-inkscape-font-specification:'System-ui Bold';fill:#3178c6;stroke-linejoin:round;-inkscape-stroke:none;paint-order:markers fill stroke"
         d="m 259.32004,431.05762 h 30.72 v -139.44 h 53.76 v -27.12 h -137.76 v 27.12 h 53.28 z m 142.07991,2.4 c 32.16,0 51.12,-13.92 51.12,-37.44 0,-43.68 -66,-28.8 -66,-48.48 0,-7.2 8.16,-11.52 22.56,-11.52 9.6,0 21.12,1.92 31.92,5.04 l 6.24,-23.04 c -10.8,-3.84 -24.48,-6 -37.68,-6 -33.36,0 -52.8,13.68 -52.8,37.44 0,43.44 65.28,26.88 65.28,48.24 0,7.44 -7.92,12 -21.12,12 -11.28,0 -26.64,-3.12 -38.88,-7.92 l -6.96,22.8 c 13.44,5.52 30.48,8.88 46.32,8.88 z"
         id="path9" />
      <path
         style="color:#000000;-inkscape-font-specification:'System-ui Bold';fill:#3178c6;stroke-linejoin:round;-inkscape-stroke:none;paint-order:markers fill stroke"
         d="m 206.04102,259.49805 a 5.0005,5.0005 0 0 0 -5,5 v 27.11914 a 5.0005,5.0005 0 0 0 5,5 h 48.27929 v 134.4414 a 5.0005,5.0005 0 0 0 5,5 h 30.72071 a 5.0005,5.0005 0 0 0 5,-5 v -134.4414 h 48.75976 a 5.0005,5.0005 0 0 0 5,-5 v -27.11914 a 5.0005,5.0005 0 0 0 -5,-5 z m 5,10 h 127.75976 v 17.11914 h -48.75976 a 5.0005,5.0005 0 0 0 -5,5 v 134.4414 h -20.72071 v -134.4414 a 5.0005,5.0005 0 0 0 -5,-5 h -48.27929 z m 198.51953,37.51953 c -17.36344,0 -31.58004,3.49727 -41.79883,10.72851 -10.2188,7.23124 -16.00195,18.46732 -16.00195,31.71094 0,12.11229 4.95825,21.07867 12.07812,26.76758 7.11987,5.68891 15.96414,8.44942 24.38281,10.49219 8.41868,2.04276 16.56774,3.38119 21.97657,5.26367 2.70441,0.94124 4.64014,2.02182 5.61523,2.9375 0.97509,0.91568 1.22656,1.38271 1.22656,2.7793 0,1.9458 -0.58213,3.01947 -3.08594,4.44726 -2.5038,1.42779 -7.00896,2.55274 -13.0332,2.55274 -10.358,0 -25.45272,-3.02443 -37.05469,-7.57422 a 5.0005,5.0005 0 0 0 -6.60742,3.19531 l -6.96094,22.79883 a 5.0005,5.0005 0 0 0 2.88282,6.08593 c 14.15426,5.81336 31.67365,9.25391 48.2207,9.25391 16.80138,0 30.63892,-3.58584 40.57422,-10.86719 9.93529,-7.28134 15.54492,-18.46874 15.54492,-31.57226 0,-12.17915 -4.98766,-21.25729 -12.14844,-27.10742 -7.16077,-5.85014 -16.0914,-8.80832 -24.61718,-10.97852 -8.52579,-2.1702 -16.79826,-3.56187 -22.34571,-5.4043 -2.77372,-0.92121 -4.79704,-1.97634 -5.78125,-2.82812 -0.9842,-0.85178 -1.10742,-1.09947 -1.10742,-2.16211 0,-1.71111 0.4461,-2.61015 3.17188,-4.01563 2.72578,-1.40548 7.68867,-2.5039 14.38867,-2.5039 8.93332,0 20.1166,1.83507 30.53125,4.84375 a 5.0005,5.0005 0 0 0 6.21484,-3.4961 l 6.24024,-23.04101 a 5.0005,5.0005 0 0 0 -3.15235,-6.01758 c -11.49808,-4.0882 -25.60807,-6.28906 -39.35351,-6.28906 z m 0,10 c 10.92824,0 22.17497,1.65201 31.58007,4.39648 l -3.67773,13.57227 c -9.68701,-2.44376 -19.60677,-3.96875 -28.38281,-3.96875 -7.69999,0 -14.01649,1.06072 -18.97071,3.61523 -4.95421,2.55452 -8.58984,7.41542 -8.58984,12.9043 0,3.85735 1.93929,7.45069 4.56445,9.72266 2.62517,2.27196 5.75811,3.62402 9.17188,4.75781 6.82754,2.26757 15.05705,3.57567 23.03125,5.60547 7.9742,2.02979 15.5436,4.77139 20.75781,9.03125 5.21422,4.25985 8.47461,9.70245 8.47461,19.36328 0,10.41645 -3.87039,17.94917 -11.45508,23.50781 -7.58468,5.55864 -19.30547,8.93164 -34.66406,8.93164 -13.54047,0 -28.07797,-2.72099 -40.13477,-7.01758 l 4.05274,-13.27539 c 11.76867,3.98553 24.94458,6.53321 35.60156,6.53321 7.17575,0 13.23015,-1.15499 17.98633,-3.86719 4.75618,-2.71221 8.13281,-7.63863 8.13281,-13.13281 0,-3.94341 -1.78595,-7.63155 -4.38086,-10.06836 -2.59491,-2.43682 -5.75824,-3.905 -9.17383,-5.09375 -6.83116,-2.37752 -15.00494,-3.61988 -22.90625,-5.53711 -7.9013,-1.91723 -15.37597,-4.49486 -20.49609,-8.58594 -5.12012,-4.09108 -8.32226,-9.34739 -8.32226,-18.95508 0,-10.51635 3.93811,-18.00008 11.77929,-23.54883 7.84119,-5.54874 20.02496,-8.89062 36.02149,-8.89062 z"
         id="path10" />
    </g>
  </g>
</svg>
