<?xml version="1.0" encoding="UTF-8" standalone="no"?>
<!-- Created with Inkscape (http://www.inkscape.org/) -->

<svg
   width="500"
   height="500"
   viewBox="0 0 500 500"
   version="1.1"
   id="svg1"
   inkscape:version="1.3.2 (091e20ef0f, 2023-11-25, custom)"
   sodipodi:docname="service.js.svg"
   xml:space="preserve"
   xmlns:inkscape="http://www.inkscape.org/namespaces/inkscape"
   xmlns:sodipodi="http://sodipodi.sourceforge.net/DTD/sodipodi-0.dtd"
   xmlns:xlink="http://www.w3.org/1999/xlink"
   xmlns="http://www.w3.org/2000/svg"
   xmlns:svg="http://www.w3.org/2000/svg"><sodipodi:namedview
     id="namedview1"
     pagecolor="#505050"
     bordercolor="#eeeeee"
     borderopacity="1"
     inkscape:showpageshadow="0"
     inkscape:pageopacity="0"
     inkscape:pagecheckerboard="0"
     inkscape:deskcolor="#505050"
     inkscape:document-units="px"
     inkscape:zoom="0.68158229"
     inkscape:cx="101.96861"
     inkscape:cy="222.2769"
     inkscape:window-width="1352"
     inkscape:window-height="734"
     inkscape:window-x="4"
     inkscape:window-y="24"
     inkscape:window-maximized="1"
     inkscape:current-layer="svg1"
     showguides="true"><sodipodi:guide
       position="250.02518,350.60736"
       orientation="-0.99997769,0.0066803918"
       id="guide30"
       inkscape:locked="false" /><sodipodi:guide
       position="66.396728,247.89992"
       orientation="0,-1"
       id="guide53"
       inkscape:locked="false" /></sodipodi:namedview><defs
     id="defs1"><linearGradient
       id="linearGradient3"
       inkscape:collect="always"><stop
         style="stop-color:#f5b439;stop-opacity:1;"
         offset="0"
         id="stop3" /><stop
         style="stop-color:#ec69a6;stop-opacity:1;"
         offset="0.7900908"
         id="stop4" /><stop
         style="stop-color:#9669ec;stop-opacity:1;"
         offset="1"
         id="stop5" /></linearGradient><inkscape:path-effect
       effect="mirror_symmetry"
       start_point="250.54403,261.72003"
       end_point="250.54403,442.67653"
       center_point="250.54403,352.19828"
       id="path-effect3"
       is_visible="true"
       lpeversion="1.2"
       lpesatellites=""
       mode="free"
       discard_orig_path="false"
       fuse_paths="true"
       oposite_fuse="false"
       split_items="false"
       split_open="false"
       link_styles="false" /><linearGradient
       id="swatch61"
       inkscape:swatch="solid"><stop
         style="stop-color:#5090d0;stop-opacity:1;"
         offset="0"
         id="stop61" /></linearGradient><linearGradient
       id="swatch30"
       inkscape:swatch="solid"><stop
         style="stop-color:#f9f9f9;stop-opacity:1;"
         offset="0"
         id="stop30" /></linearGradient><inkscape:perspective
       sodipodi:type="inkscape:persp3d"
       inkscape:vp_x="44.06818 : 315.96746 : 1"
       inkscape:vp_y="0 : 1000 : 0"
       inkscape:vp_z="480.74134 : 298.68846 : 1"
       inkscape:persp3d-origin="250 : 166.66667 : 1"
       id="perspective17" /><inkscape:perspective
       sodipodi:type="inkscape:persp3d"
       inkscape:vp_x="44.06818 : 315.96746 : 1"
       inkscape:vp_y="0 : 1000 : 0"
       inkscape:vp_z="480.74134 : 298.68846 : 1"
       inkscape:persp3d-origin="250 : 166.66667 : 1"
       id="perspective17-7" /><inkscape:perspective
       sodipodi:type="inkscape:persp3d"
       inkscape:vp_x="44.06818 : 315.96746 : 1"
       inkscape:vp_y="0 : 1000 : 0"
       inkscape:vp_z="480.74134 : 298.68846 : 1"
       inkscape:persp3d-origin="250 : 166.66667 : 1"
       id="perspective17-29" /><inkscape:perspective
       sodipodi:type="inkscape:persp3d"
       inkscape:vp_x="44.06818 : 315.96746 : 1"
       inkscape:vp_y="0 : 1000 : 0"
       inkscape:vp_z="480.74134 : 298.68846 : 1"
       inkscape:persp3d-origin="250 : 166.66667 : 1"
       id="perspective17-59" /><inkscape:perspective
       sodipodi:type="inkscape:persp3d"
       inkscape:vp_x="44.06818 : 315.96746 : 1"
       inkscape:vp_y="0 : 1000 : 0"
       inkscape:vp_z="480.74134 : 298.68846 : 1"
       inkscape:persp3d-origin="250 : 166.66667 : 1"
       id="perspective17-5" /><inkscape:perspective
       sodipodi:type="inkscape:persp3d"
       inkscape:vp_x="44.06818 : 315.96746 : 1"
       inkscape:vp_y="0 : 1000 : 0"
       inkscape:vp_z="480.74134 : 298.68846 : 1"
       inkscape:persp3d-origin="250 : 166.66667 : 1"
       id="perspective17-2" /><radialGradient
       inkscape:collect="always"
       xlink:href="#linearGradient3"
       id="radialGradient4"
       cx="627.29584"
       cy="157.50539"
       fx="627.29584"
       fy="157.50539"
       r="157.67773"
       gradientTransform="matrix(1.2776636,-2.6741597,1.7620055,0.84185327,-988.04173,1700.5543)"
       gradientUnits="userSpaceOnUse" /><inkscape:perspective
       sodipodi:type="inkscape:persp3d"
       inkscape:vp_x="44.06818 : 315.96746 : 1"
       inkscape:vp_y="0 : 1000 : 0"
       inkscape:vp_z="480.74134 : 298.68846 : 1"
       inkscape:persp3d-origin="250 : 166.66667 : 1"
       id="perspective17-6" /><inkscape:perspective
       sodipodi:type="inkscape:persp3d"
       inkscape:vp_x="44.06818 : 315.96746 : 1"
       inkscape:vp_y="0 : 1000 : 0"
       inkscape:vp_z="480.74134 : 298.68846 : 1"
       inkscape:persp3d-origin="250 : 166.66667 : 1"
       id="perspective17-2-1" /></defs><path
     id="path2"
     style="opacity:1;fill:url(#radialGradient4);stroke:none;stroke-width:37.4607;stroke-linecap:round;stroke-linejoin:round;stroke-miterlimit:10;stroke-opacity:0.807843;paint-order:stroke markers fill"
     d="M 223.88867 12.482422 C 130.68284 12.482849 55.124268 88.042231 55.125 181.24805 C 55.253159 240.65961 86.612198 295.62888 137.68945 325.97461 C 147.82181 339.70784 156.73047 337.33466 156.73047 362.28906 C 158.97214 400.02529 146.56227 414.78125 173.7793 414.78125 L 223.56836 414.78125 L 273.01758 414.78125 C 275.22301 414.38563 277.47522 414.2503 279.73242 414.36523 C 298.34311 411.86754 288.36614 396.5995 290.4043 362.28906 C 290.4043 348.67139 293.11025 343.40736 297.16797 339.07227 L 297.16797 297.5625 A 17.50175 17.50175 0 0 1 297.16797 297.55859 C 297.17069 281.60481 310.47981 268.2989 326.43359 268.29883 L 346.35352 268.29883 A 17.50175 17.50175 0 0 1 346.35742 268.29883 C 353.04591 268.29997 359.25227 270.66181 364.22461 274.55469 C 382.37712 247.3681 392.57018 215.03718 392.65234 181.24805 C 392.65307 88.042231 317.0945 12.482848 223.88867 12.482422 z M 332.16797 303.29883 L 332.16797 310.17578 C 334.81855 307.95691 337.39122 305.66476 339.88867 303.29883 L 332.16797 303.29883 z M 173.77734 440.84375 C 146.56033 440.84375 157.32613 466.50203 156.73047 476.5293 C 156.73047 484.67274 220.21409 487.99949 259.68164 484.86328 C 258.83344 484.39266 257.97654 483.96092 257.13672 483.45703 A 17.50175 17.50175 0 0 0 257.13477 483.45703 C 245.02581 476.19021 239.80418 460.96662 244.90234 447.79688 L 247.59375 440.84375 L 223.56641 440.84375 L 173.77734 440.84375 z M 281.14062 451.13867 L 279.41016 455.61328 C 283.59458 457.62479 287.87459 458.95923 292.18555 459.79102 C 292.29911 457.8236 292.29448 455.88429 292.07422 454.04102 C 288.3626 453.4755 284.80846 452.56283 281.14062 451.13867 z " /><path
     id="path3"
     style="color:#000000;-inkscape-font-specification:System-ui;fill:#ffc340;fill-opacity:1;stroke-linejoin:round;-inkscape-stroke:none;paint-order:markers fill stroke"
     d="M 326.43359 285.79883 A 11.765676 11.765676 0 0 0 314.66797 297.5625 L 314.66797 418.2832 C 314.66797 426.35374 312.7878 431.2162 310.84375 433.61523 C 308.8997 436.01428 306.82027 437.23828 301.47266 437.23828 C 296.62556 437.23828 287.73013 435.21858 283.21484 432.96094 A 11.765676 11.765676 0 0 0 266.98242 439.23633 L 261.22266 454.11523 A 11.765676 11.765676 0 0 0 266.14062 468.45117 C 277.61974 475.33863 290.00578 478.28711 301.95312 478.28711 C 318.60558 478.28711 333.59757 472.56199 343.58594 461.26562 C 353.5743 449.96927 358.11719 434.26923 358.11719 416.12305 L 358.11719 297.5625 A 11.765676 11.765676 0 0 0 346.35352 285.79883 L 326.43359 285.79883 z M 427.47266 334.27734 C 410.74722 334.27734 396.08445 337.83017 384.84375 345.75781 C 373.60305 353.68546 366.50977 366.71459 366.50977 381.08203 C 366.50977 394.71481 373.36372 406.02465 382.15039 412.36719 C 390.93706 418.70971 400.84334 421.41651 409.79492 423.70898 C 418.7465 426.00147 426.96994 427.91019 431.41797 429.98438 C 433.64198 431.02147 434.74684 431.98441 435.0625 432.37305 C 435.37816 432.76169 435.38867 432.48705 435.38867 433.64258 C 435.38867 435.4467 435.59752 435.02922 434.0625 436.03125 C 432.52748 437.03328 428.3877 438.4375 421.95312 438.4375 C 411.86614 438.4375 396.227 435.25229 385.8125 430.75977 A 11.765676 11.765676 0 0 0 369.86133 438.26172 L 365.30078 453.86133 A 11.765676 11.765676 0 0 0 371.72461 467.87305 C 386.6949 474.67773 404.07368 478.28711 420.51367 478.28711 C 436.63906 478.28711 450.73975 474.57111 461.37305 466.50586 C 472.00635 458.4406 478.35742 445.61913 478.35742 431.72266 C 478.35742 417.91231 471.64666 406.46636 462.88672 399.8457 C 454.12677 393.22505 444.12966 390.25949 435.07227 387.83789 C 426.01487 385.41629 417.63595 383.50641 413.01953 381.4707 C 410.71132 380.45285 409.52764 379.47551 409.28516 379.19922 C 409.22997 379.13634 409.20282 379.13186 409.18555 379.14062 C 409.20723 379.14722 409.23828 379.17931 409.23828 378.92188 C 409.23828 378.08349 408.78111 378.31779 411.03125 376.98438 C 413.28139 375.65097 418.38331 374.12695 425.55273 374.12695 C 433.67109 374.12695 444.30934 376.06476 452.95117 379.01562 A 11.765676 11.765676 0 0 0 468.04492 371.18359 L 472.60547 355.58398 A 11.765676 11.765676 0 0 0 465.82031 341.41602 C 454.27392 336.62848 441.09668 334.27734 427.47266 334.27734 z " /></svg>
