<?xml version="1.0" encoding="UTF-8" standalone="no"?>
<!-- Created with Inkscape (http://www.inkscape.org/) -->

<svg
   width="500"
   height="500"
   viewBox="0 0 500 500"
   version="1.1"
   id="svg1"
   inkscape:version="1.3.2 (091e20ef0f, 2023-11-25, custom)"
   sodipodi:docname="service.ts.svg"
   xml:space="preserve"
   xmlns:inkscape="http://www.inkscape.org/namespaces/inkscape"
   xmlns:sodipodi="http://sodipodi.sourceforge.net/DTD/sodipodi-0.dtd"
   xmlns="http://www.w3.org/2000/svg"
   xmlns:svg="http://www.w3.org/2000/svg"><sodipodi:namedview
     id="namedview1"
     pagecolor="#505050"
     bordercolor="#eeeeee"
     borderopacity="1"
     inkscape:showpageshadow="0"
     inkscape:pageopacity="0"
     inkscape:pagecheckerboard="0"
     inkscape:deskcolor="#505050"
     inkscape:document-units="px"
     inkscape:zoom="0.96390292"
     inkscape:cx="195.04039"
     inkscape:cy="280.62992"
     inkscape:window-width="1362"
     inkscape:window-height="744"
     inkscape:window-x="0"
     inkscape:window-y="20"
     inkscape:window-maximized="1"
     inkscape:current-layer="layer1"
     showguides="true"><sodipodi:guide
       position="250.02518,350.60736"
       orientation="-0.99997769,0.0066803918"
       id="guide30"
       inkscape:locked="false" /><sodipodi:guide
       position="460.89553,247.89992"
       orientation="0,-1"
       id="guide53"
       inkscape:locked="false" /></sodipodi:namedview><defs
     id="defs1"><linearGradient
       id="swatch61"
       inkscape:swatch="solid"><stop
         style="stop-color:#5090d0;stop-opacity:1;"
         offset="0"
         id="stop61" /></linearGradient><linearGradient
       id="swatch30"
       inkscape:swatch="solid"><stop
         style="stop-color:#f9f9f9;stop-opacity:1;"
         offset="0"
         id="stop30" /></linearGradient><inkscape:perspective
       sodipodi:type="inkscape:persp3d"
       inkscape:vp_x="44.06818 : 315.96746 : 1"
       inkscape:vp_y="0 : 1000 : 0"
       inkscape:vp_z="480.74134 : 298.68846 : 1"
       inkscape:persp3d-origin="250 : 166.66667 : 1"
       id="perspective17" /><inkscape:perspective
       sodipodi:type="inkscape:persp3d"
       inkscape:vp_x="44.06818 : 315.96746 : 1"
       inkscape:vp_y="0 : 1000 : 0"
       inkscape:vp_z="480.74134 : 298.68846 : 1"
       inkscape:persp3d-origin="250 : 166.66667 : 1"
       id="perspective17-7" /><inkscape:perspective
       sodipodi:type="inkscape:persp3d"
       inkscape:vp_x="44.06818 : 315.96746 : 1"
       inkscape:vp_y="0 : 1000 : 0"
       inkscape:vp_z="480.74134 : 298.68846 : 1"
       inkscape:persp3d-origin="250 : 166.66667 : 1"
       id="perspective17-4" /></defs><g
     inkscape:label="Layer 1"
     inkscape:groupmode="layer"
     id="layer1"><path
       id="path1"
       style="color:#000000;display:inline;fill:#3178c6;stroke-linecap:round;stroke-linejoin:bevel;-inkscape-stroke:none;paint-order:markers fill stroke;fill-opacity:1"
       d="M 248.19922 13.128906 C 148.17015 13.129839 66.543884 94.75608 66.542969 194.78516 L 66.542969 194.81836 C 66.632659 265.56167 107.78906 328.08442 168.83008 357.83789 L 168.83008 460.29297 L 193.83008 485.29297 L 304.96094 485.29297 L 321.25 469.00391 C 317.06682 466.83636 313.32341 464.05153 310.08398 460.79492 C 301.83575 472.81082 288.01846 480.87886 272.7207 480.88086 A 40.004 40.004 0 0 1 272.7168 480.88086 L 240.07422 480.88086 A 40.004 40.004 0 0 1 240.07031 480.88086 C 215.52156 480.87839 194.76372 460.12102 194.76172 435.57227 A 40.004 40.004 0 0 1 194.76172 435.56836 L 194.76172 332.71484 L 183.46094 332.71484 A 40.004 40.004 0 0 1 183.45703 332.71484 C 158.90828 332.71238 138.15044 311.95502 138.14844 287.40625 A 40.004 40.004 0 0 1 138.14844 287.40234 L 138.14844 258.58594 A 40.004 40.004 0 0 1 138.14844 258.58203 C 138.1509 234.03328 158.90828 213.27544 183.45703 213.27344 A 40.004 40.004 0 0 1 183.46094 213.27344 L 329.83984 213.27344 A 40.004 40.004 0 0 1 329.84375 213.27344 C 354.39255 213.27586 375.15034 234.03325 375.15234 258.58203 A 40.004 40.004 0 0 0 375.15234 258.58398 A 40.004 40.004 0 0 0 375.15234 258.58594 L 375.15234 265.65625 C 383.22212 264.35544 391.44599 263.76562 399.71484 263.76562 C 405.06602 263.76563 410.39621 264.00979 415.69531 264.46484 C 424.74883 242.91413 429.82622 219.38615 429.85742 194.81836 L 429.85742 194.78516 C 429.85651 94.755199 348.22917 13.128581 248.19922 13.128906 z " /><path
       id="path9"
       style="color:#000000;-inkscape-font-specification:'System-ui Bold';fill:#3178c6;stroke-width:1.06257;stroke-linejoin:round;-inkscape-stroke:none;paint-order:markers fill stroke"
       d="m 183.46156,253.27331 a 5.3133637,5.3133637 0 0 0 -5.31283,5.31283 v 28.81589 a 5.3133637,5.3133637 0 0 0 5.31283,5.31283 h 51.29997 V 435.5678 a 5.3133637,5.3133637 0 0 0 5.31283,5.31283 h 32.64279 a 5.3133637,5.3133637 0 0 0 5.31284,-5.31283 V 292.71486 h 51.81047 a 5.3133637,5.3133637 0 0 0 5.31284,-5.31283 v -28.81589 a 5.3133637,5.3133637 0 0 0 -5.31284,-5.31283 z m 216.25303,50.49266 c -18.44978,0 -33.5559,3.71611 -44.41403,11.39976 -10.85814,7.68368 -17.00314,19.62278 -17.00314,33.69498 0,12.8701 5.26848,22.3975 12.83381,28.44233 7.56533,6.04484 16.96296,8.97807 25.90836,11.14866 8.9454,2.17057 17.60433,3.59274 23.35155,5.59299 2.87362,1.00013 4.93048,2.14833 5.96656,3.12129 1.0361,0.97298 1.30332,1.46923 1.30332,2.9532 0,2.06753 -0.61855,3.20838 -3.27901,4.72551 -2.66046,1.51712 -7.4475,2.71245 -13.84866,2.71245 -11.00605,0 -27.0452,-3.21367 -39.37306,-8.04812 a 5.3133637,5.3133637 0 0 0 -7.02082,3.39524 l -7.39647,24.22527 a 5.3133637,5.3133637 0 0 0 3.06318,6.46672 c 15.03984,6.17706 33.65538,9.83288 51.23771,9.83288 17.85257,0 32.55589,-3.81019 43.1128,-11.54711 10.55689,-7.7369 16.5175,-19.62428 16.5175,-33.54763 0,-12.94114 -5.29971,-22.5873 -12.9085,-28.80343 -7.6088,-6.21617 -17.09821,-9.35943 -26.15741,-11.66541 -9.0592,-2.30599 -17.84926,-3.78472 -23.74378,-5.74243 -2.94728,-0.97884 -5.09719,-2.09999 -6.14297,-3.00506 -1.04577,-0.90508 -1.17672,-1.16827 -1.17672,-2.29738 0,-1.81818 0.474,-2.77346 3.37033,-4.26689 2.89632,-1.4934 8.16974,-2.66055 15.28892,-2.66055 9.49224,0 21.37524,1.94988 32.44149,5.1468 a 5.3133637,5.3133637 0 0 0 6.60368,-3.71483 l 6.63067,-24.48261 a 5.3133637,5.3133637 0 0 0 -3.34957,-6.39408 c -12.21747,-4.34397 -27.2103,-6.68255 -41.81574,-6.68255 z" /></g></svg>
