<?xml version="1.0" encoding="UTF-8" standalone="no"?>
<!-- Created with Inkscape (http://www.inkscape.org/) -->

<svg
   width="500"
   height="500"
   viewBox="0 0 500 500"
   version="1.1"
   id="svg1"
   inkscape:version="1.3.2 (091e20ef0f, 2023-11-25, custom)"
   sodipodi:docname="settings.py.svg"
   xml:space="preserve"
   xmlns:inkscape="http://www.inkscape.org/namespaces/inkscape"
   xmlns:sodipodi="http://sodipodi.sourceforge.net/DTD/sodipodi-0.dtd"
   xmlns:xlink="http://www.w3.org/1999/xlink"
   xmlns="http://www.w3.org/2000/svg"
   xmlns:svg="http://www.w3.org/2000/svg"><sodipodi:namedview
     id="namedview1"
     pagecolor="#505050"
     bordercolor="#eeeeee"
     borderopacity="1"
     inkscape:showpageshadow="0"
     inkscape:pageopacity="0"
     inkscape:pagecheckerboard="0"
     inkscape:deskcolor="#505050"
     inkscape:document-units="px"
     inkscape:zoom="0.64175296"
     inkscape:cx="232.95568"
     inkscape:cy="153.48585"
     inkscape:window-width="1352"
     inkscape:window-height="734"
     inkscape:window-x="4"
     inkscape:window-y="24"
     inkscape:window-maximized="1"
     inkscape:current-layer="g2"
     showguides="true"><sodipodi:guide
       position="250.02518,350.60736"
       orientation="-0.99997769,0.0066803918"
       id="guide30"
       inkscape:locked="false" /><sodipodi:guide
       position="66.396728,247.89992"
       orientation="0,-1"
       id="guide53"
       inkscape:locked="false" /></sodipodi:namedview><defs
     id="defs1"><linearGradient
       id="linearGradient5"
       inkscape:collect="always"><stop
         style="stop-color:#d447d4;stop-opacity:1;"
         offset="0"
         id="stop5" /><stop
         style="stop-color:#d48d47;stop-opacity:1;"
         offset="1"
         id="stop6" /></linearGradient><linearGradient
       id="linearGradient3"
       inkscape:collect="always"><stop
         style="stop-color:#d447d4;stop-opacity:1;"
         offset="0"
         id="stop3" /><stop
         style="stop-color:#d47b47;stop-opacity:1;"
         offset="0.9982453"
         id="stop4" /></linearGradient><linearGradient
       id="swatch61"
       inkscape:swatch="solid"><stop
         style="stop-color:#5090d0;stop-opacity:1;"
         offset="0"
         id="stop61" /></linearGradient><linearGradient
       id="swatch30"
       inkscape:swatch="solid"><stop
         style="stop-color:#f9f9f9;stop-opacity:1;"
         offset="0"
         id="stop30" /></linearGradient><inkscape:perspective
       sodipodi:type="inkscape:persp3d"
       inkscape:vp_x="44.06818 : 315.96746 : 1"
       inkscape:vp_y="0 : 1000 : 0"
       inkscape:vp_z="480.74134 : 298.68846 : 1"
       inkscape:persp3d-origin="250 : 166.66667 : 1"
       id="perspective17" /><inkscape:perspective
       sodipodi:type="inkscape:persp3d"
       inkscape:vp_x="44.06818 : 315.96746 : 1"
       inkscape:vp_y="0 : 1000 : 0"
       inkscape:vp_z="480.74134 : 298.68846 : 1"
       inkscape:persp3d-origin="250 : 166.66667 : 1"
       id="perspective17-1" /><inkscape:perspective
       sodipodi:type="inkscape:persp3d"
       inkscape:vp_x="44.06818 : 315.96746 : 1"
       inkscape:vp_y="0 : 1000 : 0"
       inkscape:vp_z="480.74134 : 298.68846 : 1"
       inkscape:persp3d-origin="250 : 166.66667 : 1"
       id="perspective17-4" /><inkscape:perspective
       sodipodi:type="inkscape:persp3d"
       inkscape:vp_x="44.06818 : 315.96746 : 1"
       inkscape:vp_y="0 : 1000 : 0"
       inkscape:vp_z="480.74134 : 298.68846 : 1"
       inkscape:persp3d-origin="250 : 166.66667 : 1"
       id="perspective17-6" /><inkscape:perspective
       sodipodi:type="inkscape:persp3d"
       inkscape:vp_x="44.06818 : 315.96746 : 1"
       inkscape:vp_y="0 : 1000 : 0"
       inkscape:vp_z="480.74134 : 298.68846 : 1"
       inkscape:persp3d-origin="250 : 166.66667 : 1"
       id="perspective17-3" /><inkscape:perspective
       sodipodi:type="inkscape:persp3d"
       inkscape:vp_x="44.06818 : 315.96746 : 1"
       inkscape:vp_y="0 : 1000 : 0"
       inkscape:vp_z="480.74134 : 298.68846 : 1"
       inkscape:persp3d-origin="250 : 166.66667 : 1"
       id="perspective17-5" /><inkscape:perspective
       sodipodi:type="inkscape:persp3d"
       inkscape:vp_x="44.06818 : 315.96746 : 1"
       inkscape:vp_y="0 : 1000 : 0"
       inkscape:vp_z="480.74134 : 298.68846 : 1"
       inkscape:persp3d-origin="250 : 166.66667 : 1"
       id="perspective17-2" /><inkscape:perspective
       sodipodi:type="inkscape:persp3d"
       inkscape:vp_x="44.06818 : 315.96746 : 1"
       inkscape:vp_y="0 : 1000 : 0"
       inkscape:vp_z="480.74134 : 298.68846 : 1"
       inkscape:persp3d-origin="250 : 166.66667 : 1"
       id="perspective17-9" /><linearGradient
       inkscape:collect="always"
       xlink:href="#linearGradient3"
       id="linearGradient4"
       x1="82.567172"
       y1="250.26548"
       x2="418.02225"
       y2="250.26548"
       gradientUnits="userSpaceOnUse" /><linearGradient
       inkscape:collect="always"
       xlink:href="#linearGradient5"
       id="linearGradient6"
       x1="27.580844"
       y1="250.66001"
       x2="477.32108"
       y2="250.66001"
       gradientUnits="userSpaceOnUse" /></defs><g
     id="g2"
     transform="translate(-15.352328,-15.426618)"><path
       id="rect6"
       style="display:inline;fill:url(#linearGradient6);fill-opacity:1;stroke:none;stroke-width:10.457;stroke-linejoin:round;stroke-dasharray:none;stroke-opacity:1;paint-order:markers fill stroke;opacity:0.19431339"
       d="M 171.81522 25.789899 C 91.909742 25.789899 27.580844 77.244469 27.580844 141.15904 L 27.580844 360.16099 C 27.580844 424.07556 91.909742 475.53013 171.81522 475.53013 L 309.19217 475.53013 L 309.19217 443.50865 L 265.28983 443.50865 A 24.259925 24.259925 0 0 1 241.03787 419.73521 L 241.03202 419.44224 A 24.259925 24.259925 0 0 1 241.02616 418.95787 L 241.02616 280.63951 A 24.259925 24.259925 0 0 1 243.85233 269.27623 L 244.14334 268.7274 A 24.259925 24.259925 0 0 1 265.57498 255.83287 L 286.83866 255.83287 L 286.83866 233.75474 C 286.83866 206.98025 309.65357 185.59849 335.94022 185.59849 L 442.20194 185.59849 A 24.259925 24.259925 0 0 1 454.29373 188.82701 L 454.37186 188.87193 A 24.259925 24.259925 0 0 1 466.53787 209.90123 L 466.53787 250.72154 L 477.32108 250.72154 L 477.32108 141.15904 C 477.32108 77.244469 412.99218 25.789899 333.0867 25.789899 L 171.81522 25.789899 z M 375.73123 234.11412 L 375.73123 243.64341 L 391.26248 243.64341 A 24.259925 24.259925 0 0 1 415.5203 267.90123 L 415.5203 280.05552 A 24.259925 24.259925 0 0 1 391.26248 304.31334 L 311.22733 304.31334 A 24.259925 24.259925 0 0 1 311.09647 304.34849 L 289.54178 304.34849 L 289.54178 394.99302 L 291.73319 394.99302 L 291.73319 379.50865 A 24.259925 24.259925 0 0 1 298.00467 363.23326 L 333.93827 323.52037 A 24.259925 24.259925 0 0 1 351.92459 315.53795 L 404.07694 315.53795 L 418.02225 299.65709 L 418.02225 234.11412 L 375.73123 234.11412 z M 477.32108 331.44615 L 441.78983 370.70982 A 24.259925 24.259925 0 0 1 423.8035 378.69224 L 371.65311 378.69224 L 357.7078 394.5731 L 357.7078 460.11607 L 399.99686 460.11607 L 399.99686 450.58873 L 384.46756 450.58873 A 24.259925 24.259925 0 0 1 360.20975 426.33091 L 360.20975 414.17466 A 24.259925 24.259925 0 0 1 384.46756 389.91685 L 464.51053 389.91685 A 24.259925 24.259925 0 0 1 464.63358 389.88365 L 472.50467 389.88365 C 475.63415 380.40485 477.32108 370.44789 477.32108 360.16099 L 477.32108 331.44615 z " /><path
       id="path7"
       style="color:#000000;fill:url(#linearGradient4);fill-opacity:1;stroke-width:1.08444;stroke-linejoin:round;-inkscape-stroke:none;paint-order:markers fill stroke"
       d="M 214.65702 79.918806 L 214.65702 131.19224 C 208.09846 133.26366 201.78103 135.89107 195.72733 138.97349 L 159.51248 102.7606 L 105.40506 156.86802 L 141.25077 192.71373 C 138.01011 198.86819 135.26589 205.31448 133.07889 212.0067 L 82.567172 212.0067 L 82.567172 288.52818 L 133.02225 288.52818 C 135.20543 295.2411 137.95323 301.70452 141.19608 307.87779 L 105.40702 343.66685 L 159.51444 397.77427 L 195.61991 361.67076 C 201.70659 364.77756 208.05914 367.42477 214.65702 369.50865 L 214.65702 420.61216 L 241.19412 420.61216 A 24.259925 24.259925 0 0 1 241.03787 419.73521 L 241.03202 419.44224 A 24.259925 24.259925 0 0 1 241.02616 418.95787 L 241.02616 307.26646 A 62.620737 58.044817 0 0 1 189.22147 250.35045 A 62.620737 58.044817 0 0 1 251.84061 192.30748 A 62.620737 58.044817 0 0 1 294.46952 208.29185 C 303.31547 194.64159 318.87349 185.59849 335.94022 185.59849 L 371.69022 185.59849 L 400.42264 156.86802 L 346.31522 102.7606 L 309.36991 139.70591 C 303.55405 136.6508 297.47612 134.04604 291.1785 131.92857 L 291.1785 79.918806 L 214.65702 79.918806 z M 375.73123 234.11412 L 375.73123 243.64341 L 391.26248 243.64341 A 24.259925 24.259925 0 0 1 415.5203 267.90123 L 415.5203 280.05552 A 24.259925 24.259925 0 0 1 413.83475 288.52818 L 418.02225 288.52818 L 418.02225 234.11412 L 375.73123 234.11412 z M 311.22733 304.31334 A 24.259925 24.259925 0 0 1 311.09647 304.34849 L 289.54178 304.34849 L 289.54178 394.99302 L 291.1785 394.99302 L 291.1785 368.77427 C 292.69412 368.26466 294.15361 367.6365 295.64334 367.07115 A 24.259925 24.259925 0 0 1 298.00467 363.23326 L 333.93827 323.52037 A 24.259925 24.259925 0 0 1 351.92459 315.53795 L 372.29178 315.53795 L 363.21756 306.46373 C 363.57508 305.7616 363.86499 305.02265 364.20975 304.31334 L 311.22733 304.31334 z " /></g><path
     id="use15"
     style="fill:#d6d85c;fill-opacity:1;stroke:none;stroke-width:48.5153;stroke-linejoin:round;stroke-dasharray:none;stroke-opacity:1;paint-order:markers fill stroke"
     d="m 424.43773,468.94786 c 13.76281,0 24.84273,-10.65862 24.84273,-23.89868 V 410.9038 h -80.16575 v -12.15488 h 80.16575 v -0.0348 h 45.52065 l 0.29219,-0.5483 V 259.84684 l -0.006,-0.29331 h -50.70106 v 39.74275 l -35.93438,39.71195 h -63.13258 l -27.2223,30.99986 v 4.80599 94.08951 l 0.0777,0.0443 z m 9.31737,-14.48356 h -24.85212 v -24.85211 h 24.85212 z"
     sodipodi:nodetypes="sscccccccccccccccccsccccc" /><path
     id="rect14"
     style="fill:#615cd8;fill-opacity:1;stroke:none;stroke-width:48.515;stroke-linejoin:round;stroke-dasharray:none;stroke-opacity:1;paint-order:markers fill stroke"
     d="m 320.58695,194.43028 c -13.76281,0 -24.84274,10.65862 -24.84274,23.89868 v 34.14537 h 80.16576 v 12.15489 h -80.16576 v 0.0348 h -45.52065 l -0.29219,0.54831 v 138.31894 l 0.006,0.29332 h 50.70134 v -39.74275 l 35.93439,-39.71195 h 63.13258 l 27.2223,-30.99986 v -4.80599 -94.08952 l -0.0777,-0.0443 z m -9.31737,14.48356 h 24.85211 v 24.85211 h -24.85211 z"
     sodipodi:nodetypes="sscccccccccccccccccsccccc" /></svg>
