<?xml version="1.0" encoding="UTF-8" standalone="no"?>
<!-- Created with Inkscape (http://www.inkscape.org/) -->

<svg
   width="500"
   height="500"
   viewBox="0 0 500 500"
   version="1.1"
   id="svg1"
   inkscape:version="1.3.2 (091e20ef0f, 2023-11-25, custom)"
   sodipodi:docname="slice.ts.svg"
   xml:space="preserve"
   xmlns:inkscape="http://www.inkscape.org/namespaces/inkscape"
   xmlns:sodipodi="http://sodipodi.sourceforge.net/DTD/sodipodi-0.dtd"
   xmlns:xlink="http://www.w3.org/1999/xlink"
   xmlns="http://www.w3.org/2000/svg"
   xmlns:svg="http://www.w3.org/2000/svg"><sodipodi:namedview
     id="namedview1"
     pagecolor="#505050"
     bordercolor="#eeeeee"
     borderopacity="1"
     inkscape:showpageshadow="0"
     inkscape:pageopacity="0"
     inkscape:pagecheckerboard="0"
     inkscape:deskcolor="#505050"
     inkscape:document-units="px"
     inkscape:zoom="0.96390292"
     inkscape:cx="308.64104"
     inkscape:cy="249.50645"
     inkscape:window-width="1352"
     inkscape:window-height="734"
     inkscape:window-x="4"
     inkscape:window-y="24"
     inkscape:window-maximized="1"
     inkscape:current-layer="layer1"
     showguides="true"
     showgrid="false"><sodipodi:guide
       position="248.38276,380.03529"
       orientation="-0.99997769,0.0066803918"
       id="guide30"
       inkscape:locked="false" /><sodipodi:guide
       position="66.396728,247.89992"
       orientation="0,-1"
       id="guide53"
       inkscape:locked="false" /></sodipodi:namedview><defs
     id="defs1"><linearGradient
       id="linearGradient6"
       inkscape:collect="always"><stop
         style="stop-color:#7845b9;stop-opacity:1;"
         offset="0"
         id="stop6" /><stop
         style="stop-color:#576ad9;stop-opacity:1;"
         offset="1"
         id="stop7" /></linearGradient><inkscape:path-effect
       effect="offset"
       id="path-effect6"
       is_visible="true"
       lpeversion="1.2"
       linejoin_type="miter"
       unit="mm"
       offset="1.2"
       miter_limit="4"
       attempt_force_join="false"
       update_on_knot_move="true" /><linearGradient
       id="swatch61"
       inkscape:swatch="solid"><stop
         style="stop-color:#5090d0;stop-opacity:1;"
         offset="0"
         id="stop61" /></linearGradient><linearGradient
       id="swatch30"
       inkscape:swatch="solid"><stop
         style="stop-color:#f9f9f9;stop-opacity:1;"
         offset="0"
         id="stop30" /></linearGradient><inkscape:perspective
       sodipodi:type="inkscape:persp3d"
       inkscape:vp_x="44.06818 : 315.96746 : 1"
       inkscape:vp_y="0 : 1000 : 0"
       inkscape:vp_z="480.74134 : 298.68846 : 1"
       inkscape:persp3d-origin="250 : 166.66667 : 1"
       id="perspective17" /><inkscape:perspective
       sodipodi:type="inkscape:persp3d"
       inkscape:vp_x="44.06818 : 315.96746 : 1"
       inkscape:vp_y="0 : 1000 : 0"
       inkscape:vp_z="480.74134 : 298.68846 : 1"
       inkscape:persp3d-origin="250 : 166.66667 : 1"
       id="perspective17-9" /><inkscape:perspective
       sodipodi:type="inkscape:persp3d"
       inkscape:vp_x="44.06818 : 315.96746 : 1"
       inkscape:vp_y="0 : 1000 : 0"
       inkscape:vp_z="480.74134 : 298.68846 : 1"
       inkscape:persp3d-origin="250 : 166.66667 : 1"
       id="perspective17-0" /><inkscape:perspective
       sodipodi:type="inkscape:persp3d"
       inkscape:vp_x="44.06818 : 315.96746 : 1"
       inkscape:vp_y="0 : 1000 : 0"
       inkscape:vp_z="480.74134 : 298.68846 : 1"
       inkscape:persp3d-origin="250 : 166.66667 : 1"
       id="perspective17-2" /><inkscape:perspective
       sodipodi:type="inkscape:persp3d"
       inkscape:vp_x="44.06818 : 315.96746 : 1"
       inkscape:vp_y="0 : 1000 : 0"
       inkscape:vp_z="480.74134 : 298.68846 : 1"
       inkscape:persp3d-origin="250 : 166.66667 : 1"
       id="perspective17-29" /><inkscape:perspective
       sodipodi:type="inkscape:persp3d"
       inkscape:vp_x="44.06818 : 315.96746 : 1"
       inkscape:vp_y="0 : 1000 : 0"
       inkscape:vp_z="480.74134 : 298.68846 : 1"
       inkscape:persp3d-origin="250 : 166.66667 : 1"
       id="perspective17-4" /><inkscape:perspective
       sodipodi:type="inkscape:persp3d"
       inkscape:vp_x="44.06818 : 315.96746 : 1"
       inkscape:vp_y="0 : 1000 : 0"
       inkscape:vp_z="480.74134 : 298.68846 : 1"
       inkscape:persp3d-origin="250 : 166.66667 : 1"
       id="perspective17-1" /><inkscape:perspective
       sodipodi:type="inkscape:persp3d"
       inkscape:vp_x="44.06818 : 315.96746 : 1"
       inkscape:vp_y="0 : 1000 : 0"
       inkscape:vp_z="480.74134 : 298.68846 : 1"
       inkscape:persp3d-origin="250 : 166.66667 : 1"
       id="perspective17-3" /><inkscape:perspective
       sodipodi:type="inkscape:persp3d"
       inkscape:vp_x="44.06818 : 315.96746 : 1"
       inkscape:vp_y="0 : 1000 : 0"
       inkscape:vp_z="480.74134 : 298.68846 : 1"
       inkscape:persp3d-origin="250 : 166.66667 : 1"
       id="perspective17-26" /><inkscape:perspective
       sodipodi:type="inkscape:persp3d"
       inkscape:vp_x="44.06818 : 315.96746 : 1"
       inkscape:vp_y="0 : 1000 : 0"
       inkscape:vp_z="480.74134 : 298.68846 : 1"
       inkscape:persp3d-origin="250 : 166.66667 : 1"
       id="perspective17-2-18" /><inkscape:perspective
       sodipodi:type="inkscape:persp3d"
       inkscape:vp_x="44.06818 : 315.96746 : 1"
       inkscape:vp_y="0 : 1000 : 0"
       inkscape:vp_z="480.74134 : 298.68846 : 1"
       inkscape:persp3d-origin="250 : 166.66667 : 1"
       id="perspective17-7" /><inkscape:perspective
       sodipodi:type="inkscape:persp3d"
       inkscape:vp_x="44.06818 : 315.96746 : 1"
       inkscape:vp_y="0 : 1000 : 0"
       inkscape:vp_z="480.74134 : 298.68846 : 1"
       inkscape:persp3d-origin="250 : 166.66667 : 1"
       id="perspective17-3-7" /><inkscape:perspective
       sodipodi:type="inkscape:persp3d"
       inkscape:vp_x="44.06818 : 315.96746 : 1"
       inkscape:vp_y="0 : 1000 : 0"
       inkscape:vp_z="480.74134 : 298.68846 : 1"
       inkscape:persp3d-origin="250 : 166.66667 : 1"
       id="perspective17-2-6" /><inkscape:perspective
       sodipodi:type="inkscape:persp3d"
       inkscape:vp_x="44.06818 : 315.96746 : 1"
       inkscape:vp_y="0 : 1000 : 0"
       inkscape:vp_z="480.74134 : 298.68846 : 1"
       inkscape:persp3d-origin="250 : 166.66667 : 1"
       id="perspective17-5" /><inkscape:perspective
       sodipodi:type="inkscape:persp3d"
       inkscape:vp_x="44.06818 : 315.96746 : 1"
       inkscape:vp_y="0 : 1000 : 0"
       inkscape:vp_z="480.74134 : 298.68846 : 1"
       inkscape:persp3d-origin="250 : 166.66667 : 1"
       id="perspective17-2-5" /><inkscape:perspective
       sodipodi:type="inkscape:persp3d"
       inkscape:vp_x="44.06818 : 315.96746 : 1"
       inkscape:vp_y="0 : 1000 : 0"
       inkscape:vp_z="480.74134 : 298.68846 : 1"
       inkscape:persp3d-origin="250 : 166.66667 : 1"
       id="perspective17-29-9" /><inkscape:perspective
       sodipodi:type="inkscape:persp3d"
       inkscape:vp_x="44.06818 : 315.96746 : 1"
       inkscape:vp_y="0 : 1000 : 0"
       inkscape:vp_z="480.74134 : 298.68846 : 1"
       inkscape:persp3d-origin="250 : 166.66667 : 1"
       id="perspective17-2-1" /><linearGradient
       id="linearGradient4"
       x1="-683.873"
       y1="-565.884"
       x2="-664.125"
       y2="-585.635"
       gradientTransform="matrix(0.999, 0, 0, -0.999, 688.969, -558.754)"
       gradientUnits="userSpaceOnUse"><stop
         offset="0"
         id="stop3"
         style="stop-color:#df6c00;stop-opacity:1;" /><stop
         offset="1"
         stop-color="#ffffff"
         id="stop4"
         style="stop-color:#959595;stop-opacity:1;" /></linearGradient><inkscape:perspective
       sodipodi:type="inkscape:persp3d"
       inkscape:vp_x="44.06818 : 315.96746 : 1"
       inkscape:vp_y="0 : 1000 : 0"
       inkscape:vp_z="480.74134 : 298.68846 : 1"
       inkscape:persp3d-origin="250 : 166.66667 : 1"
       id="perspective17-6" /><linearGradient
       id="a"
       x1="-683.873"
       y1="-565.884"
       x2="-664.125"
       y2="-585.635"
       gradientTransform="matrix(0.999, 0, 0, -0.999, 688.969, -558.754)"
       gradientUnits="userSpaceOnUse"><stop
         offset="0"
         id="stop1" /><stop
         offset="1"
         stop-color="#ffffff"
         id="stop2" /></linearGradient><linearGradient
       id="b"
       x1="-663.231"
       y1="-584.741"
       x2="-682.979"
       y2="-564.99"
       xlink:href="#linearGradient4" /><inkscape:perspective
       sodipodi:type="inkscape:persp3d"
       inkscape:vp_x="44.06818 : 315.96746 : 1"
       inkscape:vp_y="0 : 1000 : 0"
       inkscape:vp_z="480.74134 : 298.68846 : 1"
       inkscape:persp3d-origin="250 : 166.66667 : 1"
       id="perspective17-291" /><inkscape:perspective
       sodipodi:type="inkscape:persp3d"
       inkscape:vp_x="44.06818 : 315.96746 : 1"
       inkscape:vp_y="0 : 1000 : 0"
       inkscape:vp_z="480.74134 : 298.68846 : 1"
       inkscape:persp3d-origin="250 : 166.66667 : 1"
       id="perspective17-62" /><inkscape:perspective
       sodipodi:type="inkscape:persp3d"
       inkscape:vp_x="44.06818 : 315.96746 : 1"
       inkscape:vp_y="0 : 1000 : 0"
       inkscape:vp_z="480.74134 : 298.68846 : 1"
       inkscape:persp3d-origin="250 : 166.66667 : 1"
       id="perspective17-22" /><inkscape:perspective
       sodipodi:type="inkscape:persp3d"
       inkscape:vp_x="44.06818 : 315.96746 : 1"
       inkscape:vp_y="0 : 1000 : 0"
       inkscape:vp_z="480.74134 : 298.68846 : 1"
       inkscape:persp3d-origin="250 : 166.66667 : 1"
       id="perspective17-2912" /><inkscape:perspective
       sodipodi:type="inkscape:persp3d"
       inkscape:vp_x="44.06818 : 315.96746 : 1"
       inkscape:vp_y="0 : 1000 : 0"
       inkscape:vp_z="480.74134 : 298.68846 : 1"
       inkscape:persp3d-origin="250 : 166.66667 : 1"
       id="perspective17-2-7" /><inkscape:perspective
       sodipodi:type="inkscape:persp3d"
       inkscape:vp_x="44.06818 : 315.96746 : 1"
       inkscape:vp_y="0 : 1000 : 0"
       inkscape:vp_z="480.74134 : 298.68846 : 1"
       inkscape:persp3d-origin="250 : 166.66667 : 1"
       id="perspective17-02" /><inkscape:perspective
       sodipodi:type="inkscape:persp3d"
       inkscape:vp_x="44.06818 : 315.96746 : 1"
       inkscape:vp_y="0 : 1000 : 0"
       inkscape:vp_z="480.74134 : 298.68846 : 1"
       inkscape:persp3d-origin="250 : 166.66667 : 1"
       id="perspective17-9-3" /><linearGradient
       inkscape:collect="always"
       xlink:href="#linearGradient6"
       id="linearGradient7"
       x1="30.195101"
       y1="28.070581"
       x2="-5.5037217"
       y2="-2.0669622"
       gradientUnits="userSpaceOnUse"
       gradientTransform="matrix(14.416979,0,0,14.416979,7.9451318,-10.120968)" /><inkscape:perspective
       sodipodi:type="inkscape:persp3d"
       inkscape:vp_x="44.06818 : 315.96746 : 1"
       inkscape:vp_y="0 : 1000 : 0"
       inkscape:vp_z="480.74134 : 298.68846 : 1"
       inkscape:persp3d-origin="250 : 166.66667 : 1"
       id="perspective17-31" /><inkscape:perspective
       sodipodi:type="inkscape:persp3d"
       inkscape:vp_x="44.06818 : 315.96746 : 1"
       inkscape:vp_y="0 : 1000 : 0"
       inkscape:vp_z="480.74134 : 298.68846 : 1"
       inkscape:persp3d-origin="250 : 166.66667 : 1"
       id="perspective17-9-9" /><inkscape:perspective
       sodipodi:type="inkscape:persp3d"
       inkscape:vp_x="44.06818 : 315.96746 : 1"
       inkscape:vp_y="0 : 1000 : 0"
       inkscape:vp_z="480.74134 : 298.68846 : 1"
       inkscape:persp3d-origin="250 : 166.66667 : 1"
       id="perspective17-0-7" /><inkscape:perspective
       sodipodi:type="inkscape:persp3d"
       inkscape:vp_x="44.06818 : 315.96746 : 1"
       inkscape:vp_y="0 : 1000 : 0"
       inkscape:vp_z="480.74134 : 298.68846 : 1"
       inkscape:persp3d-origin="250 : 166.66667 : 1"
       id="perspective17-2-8" /></defs><g
     inkscape:label="Layer 1"
     inkscape:groupmode="layer"
     id="layer1"><path
       d="m 284.92666,468.38234 c 30.20401,0 47.35374,-19.19747 47.35374,-53.7529 V 288.18215 h -21.24519 v 128.75099 c 0,20.98922 -9.47075,32.76367 -26.62048,32.76367 -7.67899,0 -17.91763,-2.3037 -25.08469,-5.88722 l -6.14319,15.8699 c 10.23865,6.14319 20.98923,8.70285 31.73981,8.70285 z m 126.44747,0 c 30.45998,0 49.14551,-14.33411 49.14551,-37.1151 0,-45.30601 -73.71826,-28.41224 -73.71826,-56.31256 0,-10.75058 11.51848,-17.66166 29.94804,-17.66166 10.49462,0 22.78099,2.30369 33.2756,5.88722 l 4.86336,-16.6378 c -10.49461,-4.35143 -23.03695,-6.65512 -36.09123,-6.65512 -31.99577,0 -52.47306,14.07814 -52.47306,37.37106 0,44.28215 73.46229,25.85258 73.46229,56.05659 0,11.26251 -9.98268,17.66167 -26.87645,17.66167 -13.05428,0 -30.45998,-3.58353 -43.51425,-9.21478 l -4.86336,16.6378 c 14.07814,6.39915 31.22788,9.98268 46.84181,9.98268 z"
       id="text1"
       style="font-size:240px;font-family:System-ui;-inkscape-font-specification:System-ui;display:none;fill:none;fill-opacity:0.313725;stroke:#ffc340;stroke-width:25.0943;stroke-linejoin:round;stroke-opacity:1;paint-order:markers fill stroke"
       aria-label="Js"
       transform="translate(-6.1160809,8.5499398)" /><path
       d="m 228.53617,10.181066 c -51.65005,0 -98.93993,36.609688 -117.6448,90.106114 -25.52366,69.82806 -9.42617,136.84639 21.06231,189.87049 -2.41624,4.55522 -3.68633,10.34946 -3.15372,16.10646 0.78586,18.5967 16.52482,33.33928 35.33849,33.33927 h 1.239 c 19.55473,-0.61806 34.76197,-16.7518 34.12768,-36.07061 -0.63377,-18.73355 -16.46344,-33.59268 -35.36665,-33.59268 h -1.09814 c -0.30636,0 -0.94258,0.0577 -1.46423,0.0851 -20.9011,-35.21412 -29.62318,-73.48344 -26.46872,-114.82957 2.13918,-31.57374 12.80628,-58.81929 31.48082,-81.377088 14.96429,-18.772945 44.31396,-28.066484 64.22877,-28.580533 55.08092,-1.02251 78.59514,67.967811 80.13813,94.752211 l 0.19708,3.40715 3.32267,0.76021 c 6.95352,1.5776 18.91842,5.30086 27.14446,7.99691 l 6.44822,2.11187 -0.5069,-6.75796 C 340.80521,57.861636 284.29888,10.181066 228.53617,10.181066 Z M 201.98302,134.10513 c -19.5535,0.62123 -34.7603,16.75027 -34.12768,36.07061 0.6355,18.73155 16.46195,33.5927 35.36665,33.5927 h 1.21074 0.0851 c 12.71212,-0.5676 23.83585,-7.96631 29.50975,-18.38729 h 7.15216 c 40.91683,0 79.72601,11.64354 114.77268,34.43744 26.79997,17.39113 45.97538,39.96147 56.62606,67.18537 8.88471,21.58066 8.2595,42.49246 -0.90106,60.00504 -14.56554,27.10615 -39.01982,41.95567 -71.4091,41.95567 -21.34891,0 -41.5499,-6.27721 -52.12076,-10.95353 l -2.67554,-1.18264 -2.16819,1.9429 c -5.9333,5.30312 -16.75191,13.80492 -24.3568,19.14755 l -6.44821,4.56164 7.18031,3.26634 c 24.14614,11.03983 49.00543,17.17647 72.87333,17.17647 54.27277,0 95.14336,-29.56328 110.83053,-59.83608 C 460.2728,329.87221 458.66143,273.72121 416.35116,226.57655 373.55881,177.30796 310.6419,150.35239 238.9829,150.35239 h -6.22296 c -6.16398,-9.86457 -17.31422,-16.24726 -29.53791,-16.24726 z M 83.606114,194.7015 77.861849,198.8126 C -3.8503079,256.98668 3.5985804,336.35556 29.373493,374.94189 c 19.123977,28.48954 57.720251,45.8415 99.539107,45.8415 11.23817,0 22.53161,-1.12265 33.87426,-3.88582 l 0.22534,-0.0562 c 70.91158,-13.68382 124.89452,-54.83773 155.96807,-116.03979 17.07983,-2.95584 29.71895,-17.88798 29.11553,-35.67638 -0.63391,-18.73064 -16.45649,-33.62084 -35.36665,-33.62084 h -1.23899 c -19.5569,0.61964 -34.73346,16.76209 -34.09953,36.0706 v 0.0851 0.0851 c 0.5304,7.81751 3.44701,14.75608 7.85613,20.18941 -18.17673,33.83633 -45.7126,59.17844 -86.86794,80.44787 -28.37825,14.73891 -57.74728,19.9681 -87.03687,16.30358 C 87.685025,381.58356 69.589011,371.28805 58.3764,354.7525 41.718125,329.6731 40.177996,302.61694 54.265308,275.43096 c 10.108126,-19.87513 25.92286,-34.36348 36.01429,-41.67408 l 2.646866,-1.91476 -0.957376,-3.0974 c -2.176476,-6.95463 -5.421472,-18.60138 -7.039542,-27.08815 z"
       fill="#764abc"
       id="path1"
       style="fill:url(#linearGradient7);stroke-width:14.417" /><path
       d="m 295.76003,470.17923 h 20.33645 V 317.77832 h 56.84407 V 300.13705 H 239.16097 v 17.64127 h 56.59906 z m 135.73971,2.45018 c 29.15709,0 47.04337,-13.72099 47.04337,-35.52755 0,-43.3681 -70.56506,-27.19695 -70.56506,-53.90386 0,-10.29074 11.02579,-16.90621 28.66706,-16.90621 10.04572,0 21.80656,2.20516 31.85228,5.6354 l 4.65533,-15.92614 c -10.04572,-4.16529 -22.05158,-6.37045 -34.54747,-6.37045 -30.6272,0 -50.2286,13.47596 -50.2286,35.77256 0,42.38804 70.32003,24.74677 70.32003,53.65884 0,10.78077 -9.55568,16.90621 -25.72684,16.90621 -12.49589,0 -29.15709,-3.43024 -41.65298,-8.82063 l -4.65533,15.92614 c 13.47596,6.12544 29.89214,9.55569 44.83821,9.55569 z"
       id="text1-5"
       style="font-size:240px;font-family:System-ui;-inkscape-font-specification:System-ui;fill:#40b2ff;fill-opacity:0.313725;stroke:#3178c6;stroke-width:24.0209;stroke-linejoin:round;paint-order:markers fill stroke"
       aria-label="Ts" /></g></svg>
