<?xml version="1.0" encoding="UTF-8" standalone="no"?>
<!-- Uploaded to: SVG Repo, www.svgrepo.com, Generator: SVG Repo Mixer Tools -->

<svg
   fill="#000000"
   version="1.1"
   id="Capa_1"
   width="500"
   height="500"
   viewBox="0 0 51.64125 51.641875"
   xml:space="preserve"
   sodipodi:docname="spec.jsx.svg"
   inkscape:version="1.3.2 (091e20ef0f, 2023-11-25, custom)"
   xmlns:inkscape="http://www.inkscape.org/namespaces/inkscape"
   xmlns:sodipodi="http://sodipodi.sourceforge.net/DTD/sodipodi-0.dtd"
   xmlns:xlink="http://www.w3.org/1999/xlink"
   xmlns="http://www.w3.org/2000/svg"
   xmlns:svg="http://www.w3.org/2000/svg"><defs
   id="defs1"><inkscape:path-effect
     effect="offset"
     id="path-effect6"
     is_visible="true"
     lpeversion="1.2"
     linejoin_type="miter"
     unit="mm"
     offset="0.7"
     miter_limit="4"
     attempt_force_join="false"
     update_on_knot_move="true" /><inkscape:path-effect
     effect="offset"
     id="path-effect3"
     is_visible="true"
     lpeversion="1.2"
     linejoin_type="miter"
     unit="mm"
     offset="-0.8"
     miter_limit="4"
     attempt_force_join="false"
     update_on_knot_move="true" /><inkscape:path-effect
     effect="offset"
     id="path-effect2"
     is_visible="true"
     lpeversion="1.2"
     linejoin_type="miter"
     unit="mm"
     offset="2.8"
     miter_limit="4"
     attempt_force_join="false"
     update_on_knot_move="true" /><linearGradient
     id="swatch61"
     inkscape:swatch="solid"><stop
       style="stop-color:#5090d0;stop-opacity:1;"
       offset="0"
       id="stop61" /></linearGradient><linearGradient
     id="swatch30"
     inkscape:swatch="solid"><stop
       style="stop-color:#f9f9f9;stop-opacity:1;"
       offset="0"
       id="stop30" /></linearGradient><inkscape:perspective
     sodipodi:type="inkscape:persp3d"
     inkscape:vp_x="44.06818 : 315.96746 : 1"
     inkscape:vp_y="0 : 1000 : 0"
     inkscape:vp_z="480.74134 : 298.68846 : 1"
     inkscape:persp3d-origin="250 : 166.66667 : 1"
     id="perspective17" /><inkscape:perspective
     sodipodi:type="inkscape:persp3d"
     inkscape:vp_x="44.06818 : 315.96746 : 1"
     inkscape:vp_y="0 : 1000 : 0"
     inkscape:vp_z="480.74134 : 298.68846 : 1"
     inkscape:persp3d-origin="250 : 166.66667 : 1"
     id="perspective17-9" /><inkscape:perspective
     sodipodi:type="inkscape:persp3d"
     inkscape:vp_x="44.06818 : 315.96746 : 1"
     inkscape:vp_y="0 : 1000 : 0"
     inkscape:vp_z="480.74134 : 298.68846 : 1"
     inkscape:persp3d-origin="250 : 166.66667 : 1"
     id="perspective17-6" /><inkscape:perspective
     sodipodi:type="inkscape:persp3d"
     inkscape:vp_x="44.06818 : 315.96746 : 1"
     inkscape:vp_y="0 : 1000 : 0"
     inkscape:vp_z="480.74134 : 298.68846 : 1"
     inkscape:persp3d-origin="250 : 166.66667 : 1"
     id="perspective17-9-9" /><inkscape:perspective
     sodipodi:type="inkscape:persp3d"
     inkscape:vp_x="44.06818 : 315.96746 : 1"
     inkscape:vp_y="0 : 1000 : 0"
     inkscape:vp_z="480.74134 : 298.68846 : 1"
     inkscape:persp3d-origin="250 : 166.66667 : 1"
     id="perspective17-0" /><inkscape:perspective
     sodipodi:type="inkscape:persp3d"
     inkscape:vp_x="44.06818 : 315.96746 : 1"
     inkscape:vp_y="0 : 1000 : 0"
     inkscape:vp_z="480.74134 : 298.68846 : 1"
     inkscape:persp3d-origin="250 : 166.66667 : 1"
     id="perspective17-2" /><inkscape:path-effect
     effect="mirror_symmetry"
     start_point="251.8258,19.235391"
     end_point="251.8258,476.11943"
     center_point="251.8258,247.67741"
     id="path-effect4"
     is_visible="true"
     lpeversion="1.2"
     lpesatellites=""
     mode="free"
     discard_orig_path="false"
     fuse_paths="true"
     oposite_fuse="false"
     split_items="false"
     split_open="false"
     link_styles="false" /><inkscape:path-effect
     effect="mirror_symmetry"
     start_point="251.8258,19.235392"
     end_point="251.8258,476.11943"
     center_point="251.8258,247.67741"
     id="path-effect2-7"
     is_visible="true"
     lpeversion="1.2"
     lpesatellites=""
     mode="free"
     discard_orig_path="false"
     fuse_paths="true"
     oposite_fuse="false"
     split_items="false"
     split_open="false"
     link_styles="false" /><inkscape:perspective
     sodipodi:type="inkscape:persp3d"
     inkscape:vp_x="44.06818 : 315.96746 : 1"
     inkscape:vp_y="0 : 1000 : 0"
     inkscape:vp_z="480.74134 : 298.68846 : 1"
     inkscape:persp3d-origin="250 : 166.66667 : 1"
     id="perspective17-5" /><inkscape:perspective
     sodipodi:type="inkscape:persp3d"
     inkscape:vp_x="44.06818 : 315.96746 : 1"
     inkscape:vp_y="0 : 1000 : 0"
     inkscape:vp_z="480.74134 : 298.68846 : 1"
     inkscape:persp3d-origin="250 : 166.66667 : 1"
     id="perspective17-2-6" /><inkscape:perspective
     sodipodi:type="inkscape:persp3d"
     inkscape:vp_x="44.06818 : 315.96746 : 1"
     inkscape:vp_y="0 : 1000 : 0"
     inkscape:vp_z="480.74134 : 298.68846 : 1"
     inkscape:persp3d-origin="250 : 166.66667 : 1"
     id="perspective17-0-2" /><inkscape:perspective
     sodipodi:type="inkscape:persp3d"
     inkscape:vp_x="44.06818 : 315.96746 : 1"
     inkscape:vp_y="0 : 1000 : 0"
     inkscape:vp_z="480.74134 : 298.68846 : 1"
     inkscape:persp3d-origin="250 : 166.66667 : 1"
     id="perspective17-1" /><inkscape:perspective
     sodipodi:type="inkscape:persp3d"
     inkscape:vp_x="44.06818 : 315.96746 : 1"
     inkscape:vp_y="0 : 1000 : 0"
     inkscape:vp_z="480.74134 : 298.68846 : 1"
     inkscape:persp3d-origin="250 : 166.66667 : 1"
     id="perspective17-2-0" /><inkscape:perspective
     sodipodi:type="inkscape:persp3d"
     inkscape:vp_x="44.06818 : 315.96746 : 1"
     inkscape:vp_y="0 : 1000 : 0"
     inkscape:vp_z="480.74134 : 298.68846 : 1"
     inkscape:persp3d-origin="250 : 166.66667 : 1"
     id="perspective17-93" /><inkscape:path-effect
     effect="mirror_symmetry"
     start_point="786.32922,33.787332"
     end_point="786.32922,392.54013"
     center_point="786.32922,213.16373"
     id="path-effect14"
     is_visible="true"
     lpeversion="1.2"
     lpesatellites=""
     mode="free"
     discard_orig_path="false"
     fuse_paths="false"
     oposite_fuse="false"
     split_items="false"
     split_open="false"
     link_styles="false" /><inkscape:path-effect
     effect="mirror_symmetry"
     start_point="786.32922,33.787333"
     end_point="786.32922,392.54013"
     center_point="786.32922,213.16373"
     id="path-effect12"
     is_visible="true"
     lpeversion="1.2"
     lpesatellites=""
     mode="free"
     discard_orig_path="false"
     fuse_paths="false"
     oposite_fuse="false"
     split_items="false"
     split_open="false"
     link_styles="false" /><inkscape:path-effect
     effect="mirror_symmetry"
     start_point="786.32922,33.787333"
     end_point="786.32922,392.54013"
     center_point="786.32922,213.16373"
     id="path-effect10"
     is_visible="true"
     lpeversion="1.2"
     lpesatellites=""
     mode="free"
     discard_orig_path="false"
     fuse_paths="true"
     oposite_fuse="false"
     split_items="false"
     split_open="false"
     link_styles="false" /><inkscape:path-effect
     effect="mirror_symmetry"
     start_point="786.32922,33.787333"
     end_point="786.32922,392.54013"
     center_point="786.32922,213.16373"
     id="path-effect8"
     is_visible="true"
     lpeversion="1.2"
     lpesatellites=""
     mode="free"
     discard_orig_path="false"
     fuse_paths="false"
     oposite_fuse="false"
     split_items="false"
     split_open="false"
     link_styles="false" /><inkscape:path-effect
     effect="mirror_symmetry"
     start_point="786.32922,33.787336"
     end_point="786.32922,392.54013"
     center_point="786.32922,213.16373"
     id="path-effect6-8"
     is_visible="true"
     lpeversion="1.2"
     lpesatellites=""
     mode="free"
     discard_orig_path="false"
     fuse_paths="false"
     oposite_fuse="false"
     split_items="false"
     split_open="false"
     link_styles="false" /><inkscape:path-effect
     effect="mirror_symmetry"
     start_point="935.55975,33.787336"
     end_point="935.55975,392.54013"
     center_point="935.55975,213.16373"
     id="path-effect5"
     is_visible="true"
     lpeversion="1.2"
     lpesatellites=""
     mode="free"
     discard_orig_path="false"
     fuse_paths="false"
     oposite_fuse="false"
     split_items="false"
     split_open="false"
     link_styles="false" /><inkscape:path-effect
     effect="mirror_symmetry"
     start_point="786.32922,33.787336"
     end_point="786.32922,392.54013"
     center_point="786.32922,213.16373"
     id="path-effect3-1"
     is_visible="true"
     lpeversion="1.2"
     lpesatellites=""
     mode="free"
     discard_orig_path="false"
     fuse_paths="false"
     oposite_fuse="false"
     split_items="false"
     split_open="false"
     link_styles="false" /><inkscape:path-effect
     effect="mirror_symmetry"
     start_point="251.8258,19.235391"
     end_point="251.8258,476.11943"
     center_point="251.8258,247.67741"
     id="path-effect4-2"
     is_visible="true"
     lpeversion="1.2"
     lpesatellites=""
     mode="free"
     discard_orig_path="false"
     fuse_paths="true"
     oposite_fuse="false"
     split_items="false"
     split_open="false"
     link_styles="false" /><inkscape:path-effect
     effect="mirror_symmetry"
     start_point="251.8258,19.235394"
     end_point="251.8258,476.11943"
     center_point="251.8258,247.67741"
     id="path-effect2-9"
     is_visible="true"
     lpeversion="1.2"
     lpesatellites=""
     mode="free"
     discard_orig_path="false"
     fuse_paths="true"
     oposite_fuse="false"
     split_items="false"
     split_open="false"
     link_styles="false" /><inkscape:perspective
     sodipodi:type="inkscape:persp3d"
     inkscape:vp_x="44.06818 : 315.96746 : 1"
     inkscape:vp_y="0 : 1000 : 0"
     inkscape:vp_z="480.74134 : 298.68846 : 1"
     inkscape:persp3d-origin="250 : 166.66667 : 1"
     id="perspective17-08" /><inkscape:perspective
     sodipodi:type="inkscape:persp3d"
     inkscape:vp_x="44.06818 : 315.96746 : 1"
     inkscape:vp_y="0 : 1000 : 0"
     inkscape:vp_z="480.74134 : 298.68846 : 1"
     inkscape:persp3d-origin="250 : 166.66667 : 1"
     id="perspective17-2-8" /><inkscape:perspective
     sodipodi:type="inkscape:persp3d"
     inkscape:vp_x="44.06818 : 315.96746 : 1"
     inkscape:vp_y="0 : 1000 : 0"
     inkscape:vp_z="480.74134 : 298.68846 : 1"
     inkscape:persp3d-origin="250 : 166.66667 : 1"
     id="perspective17-0-5" /><inkscape:perspective
     sodipodi:type="inkscape:persp3d"
     inkscape:vp_x="44.06818 : 315.96746 : 1"
     inkscape:vp_y="0 : 1000 : 0"
     inkscape:vp_z="480.74134 : 298.68846 : 1"
     inkscape:persp3d-origin="250 : 166.66667 : 1"
     id="perspective17-1-0" /><inkscape:perspective
     sodipodi:type="inkscape:persp3d"
     inkscape:vp_x="44.06818 : 315.96746 : 1"
     inkscape:vp_y="0 : 1000 : 0"
     inkscape:vp_z="480.74134 : 298.68846 : 1"
     inkscape:persp3d-origin="250 : 166.66667 : 1"
     id="perspective17-2-0-9" /><inkscape:perspective
     sodipodi:type="inkscape:persp3d"
     inkscape:vp_x="44.06818 : 315.96746 : 1"
     inkscape:vp_y="0 : 1000 : 0"
     inkscape:vp_z="480.74134 : 298.68846 : 1"
     inkscape:persp3d-origin="250 : 166.66667 : 1"
     id="perspective17-6-6" /><inkscape:perspective
     sodipodi:type="inkscape:persp3d"
     inkscape:vp_x="44.06818 : 315.96746 : 1"
     inkscape:vp_y="0 : 1000 : 0"
     inkscape:vp_z="480.74134 : 298.68846 : 1"
     inkscape:persp3d-origin="250 : 166.66667 : 1"
     id="perspective17-2-9" /><inkscape:perspective
     sodipodi:type="inkscape:persp3d"
     inkscape:vp_x="44.06818 : 315.96746 : 1"
     inkscape:vp_y="0 : 1000 : 0"
     inkscape:vp_z="480.74134 : 298.68846 : 1"
     inkscape:persp3d-origin="250 : 166.66667 : 1"
     id="perspective17-0-3" /><linearGradient
     inkscape:collect="always"
     xlink:href="#linearGradient15-7"
     id="linearGradient16"
     x1="470.1965"
     y1="390.53561"
     x2="998.06964"
     y2="75.913155"
     gradientUnits="userSpaceOnUse"
     gradientTransform="matrix(0.12558826,0,0,0.12558826,-73.148504,-0.46148066)" /><inkscape:perspective
     sodipodi:type="inkscape:persp3d"
     inkscape:vp_x="44.06818 : 315.96746 : 1"
     inkscape:vp_y="0 : 1000 : 0"
     inkscape:vp_z="480.74134 : 298.68846 : 1"
     inkscape:persp3d-origin="250 : 166.66667 : 1"
     id="perspective17-11" /><inkscape:perspective
     sodipodi:type="inkscape:persp3d"
     inkscape:vp_x="44.06818 : 315.96746 : 1"
     inkscape:vp_y="0 : 1000 : 0"
     inkscape:vp_z="480.74134 : 298.68846 : 1"
     inkscape:persp3d-origin="250 : 166.66667 : 1"
     id="perspective17-2-5" /><linearGradient
     id="linearGradient15-7"
     inkscape:collect="always"><stop
       style="stop-color:#b7b7b7;stop-opacity:1;"
       offset="0.10616561"
       id="stop15-5" /><stop
       style="stop-color:#00fc2e;stop-opacity:1;"
       offset="0.99929684"
       id="stop16-3" /></linearGradient></defs><sodipodi:namedview
   id="namedview1"
   pagecolor="#505050"
   bordercolor="#eeeeee"
   borderopacity="1"
   inkscape:showpageshadow="0"
   inkscape:pageopacity="0"
   inkscape:pagecheckerboard="0"
   inkscape:deskcolor="#505050"
   inkscape:zoom="0.834386"
   inkscape:cx="273.25482"
   inkscape:cy="306.21319"
   inkscape:window-width="1352"
   inkscape:window-height="734"
   inkscape:window-x="4"
   inkscape:window-y="24"
   inkscape:window-maximized="1"
   inkscape:current-layer="Capa_1"
   showguides="true"><sodipodi:guide
     position="25.499223,37.901836"
     orientation="1,0"
     id="guide1"
     inkscape:locked="false" /></sodipodi:namedview>

<path
   id="path2"
   style="color:#000000;display:inline;fill:url(#linearGradient16);stroke-width:0.125589;stroke-linecap:round;stroke-miterlimit:10;-inkscape-stroke:none;paint-order:stroke markers fill"
   d="M 21.146228 1.7981862 C 19.391503 1.7981862 17.835304 2.4963243 16.870443 3.6143261 C 15.905584 4.7323281 15.528967 6.1448496 15.588675 7.4874667 C 15.648385 8.8300837 16.132258 10.158362 17.077615 11.216777 C 17.635528 11.841405 18.390019 12.327838 19.243548 12.64177 L 19.168506 18.703638 C 18.072647 21.736349 15.461193 22.858832 12.249302 24.81735 C 8.9594892 26.823382 5.3514859 30.022289 4.9829267 36.469654 L 4.9801025 36.523313 L 4.9801025 36.577174 C 4.9801025 38.889554 4.9864729 42.680643 7.8651889 45.727468 C 10.743905 48.774294 16.014481 50.720794 25.605383 50.720794 C 35.196285 50.720794 40.466861 48.774294 43.345578 45.727468 C 46.224291 42.680643 46.230866 38.889554 46.230866 36.577174 L 46.230866 36.523313 L 46.227638 36.469654 C 45.858999 30.022289 42.251077 26.823382 38.961263 24.81735 C 35.749559 22.858945 33.138234 21.736554 32.042261 18.704243 L 31.967017 12.64177 C 32.820545 12.327838 33.575041 11.841405 34.13295 11.216777 C 35.078316 10.158362 35.562386 8.8300837 35.622091 7.4874667 C 35.6818 6.1448496 35.30498 4.7323281 34.340122 3.6143261 C 33.375262 2.4963243 31.819058 1.7981862 30.064336 1.7981862 L 30.04134 1.7981862 L 25.867627 1.8984441 A 1.8838239 1.8838239 0 0 0 25.700598 1.9474635 A 1.8838239 1.8838239 0 0 0 25.343139 1.8984441 L 21.169225 1.7981862 L 21.146228 1.7981862 z M 20.287077 23.062535 C 20.949142 23.102638 21.538206 23.287155 22.070336 23.525295 C 23.115762 23.993155 24.058865 24.709098 25.003836 25.589759 C 25.123738 25.701501 25.239952 25.847232 25.359277 25.964768 C 25.478535 25.847294 25.595072 25.701452 25.714921 25.589759 C 26.659886 24.709101 27.600847 23.993214 28.646404 23.525295 C 29.710779 23.048977 31.17902 22.765769 32.511677 23.535179 C 33.844346 24.304597 34.331392 25.716814 34.451072 26.876973 C 34.568622 28.016415 34.421115 29.190477 34.130932 30.449139 C 34.094219 30.60838 34.026267 30.781736 33.984277 30.943368 C 34.145597 30.987902 34.32977 31.016473 34.486374 31.064403 C 35.721616 31.442464 36.812403 31.900922 37.740215 32.572306 C 38.684991 33.255955 39.66206 34.384897 39.66206 35.923783 C 39.66206 37.462669 38.684895 38.591878 37.740215 39.275461 C 36.812591 39.946707 35.721804 40.405045 34.486374 40.783162 C 34.329737 40.831106 34.145615 40.859668 33.984277 40.904198 C 34.026265 41.065831 34.094222 41.239186 34.130932 41.398427 C 34.421115 42.657079 34.568629 43.831338 34.451072 44.970794 C 34.331386 46.13094 33.84435 47.541151 32.511677 48.310571 C 31.179018 49.079966 29.710769 48.798604 28.646404 48.322271 C 27.600966 47.854404 26.659941 47.138515 25.714921 46.257806 C 25.595051 46.146094 25.478545 46.000288 25.359277 45.882797 C 25.23994 46.000359 25.123775 46.14603 25.003836 46.257806 C 24.058757 47.138571 23.115592 47.854488 22.070336 48.322271 C 21.005857 48.798667 19.539873 49.080054 18.20708 48.310571 C 16.8744 47.541146 16.385309 46.130714 16.265668 44.970794 C 16.148134 43.83151 16.297624 42.657162 16.587824 41.398427 C 16.624551 41.239121 16.692267 41.065885 16.734277 40.904198 C 16.57294 40.859664 16.389018 40.831102 16.232383 40.783162 C 14.997014 40.405061 13.9063 39.946798 12.978541 39.275461 C 12.033804 38.591831 11.05468 37.462511 11.05468 35.923783 C 11.054679 34.385054 12.033705 33.256004 12.978541 32.572306 C 13.906486 31.900835 14.997202 31.442448 16.232383 31.064403 C 16.389093 31.016439 16.572843 30.987928 16.734277 30.943368 C 16.692269 30.781681 16.624554 30.608444 16.587824 30.449139 C 16.297599 29.190318 16.148145 28.016105 16.265668 26.876973 C 16.385324 25.717112 16.874271 24.304679 18.20708 23.535179 C 18.873487 23.150434 19.625229 23.022455 20.287077 23.062535 z M 21.148447 28.632797 C 21.185677 28.918056 21.153106 29.035208 21.232365 29.378982 C 21.281777 29.593308 21.387531 29.875226 21.455071 30.113265 C 21.628121 30.095635 21.796526 30.073917 21.9727 30.058597 C 22.074108 29.913589 22.175452 29.777933 22.277307 29.636788 C 22.10543 29.459822 21.914282 29.227744 21.753827 29.078208 C 21.495399 28.837367 21.377108 28.807799 21.148447 28.632797 z M 29.568292 28.632797 C 29.339895 28.807664 29.223058 28.837646 28.964929 29.078208 C 28.804289 29.227916 28.611514 29.459596 28.439433 29.636788 C 28.541792 29.778613 28.644146 29.914883 28.746057 30.060614 C 28.921487 30.075874 29.089337 30.095705 29.261668 30.113265 C 29.329223 29.87524 29.434974 29.593257 29.484374 29.378982 C 29.563654 29.035239 29.531072 28.918016 29.568292 28.632797 z M 18.3731 35.447306 C 18.133653 35.507729 17.836857 35.558749 17.626915 35.623009 C 17.289243 35.726358 17.205227 35.813307 16.939433 35.923783 C 17.20518 36.034203 17.289298 36.121224 17.626915 36.224556 C 17.836821 36.2888 18.13373 36.338024 18.3731 36.398444 C 18.444333 36.239819 18.511121 36.083952 18.585921 35.923783 C 18.510865 35.763073 18.44457 35.606467 18.3731 35.447306 z M 32.343841 35.447306 C 32.272375 35.60647 32.205868 35.763066 32.130818 35.923783 C 32.205615 36.083952 32.272611 36.239819 32.343841 36.398444 C 32.583208 36.338027 32.879907 36.288806 33.089824 36.224556 C 33.427145 36.121315 33.511722 36.034109 33.777307 35.923783 C 33.511675 35.813401 33.4272 35.726268 33.089824 35.623009 C 32.879874 35.558751 32.583293 35.507726 32.343841 35.447306 z M 25.359277 35.535057 C 25.146331 35.535057 25.005853 35.697117 25.005853 35.923783 C 25.005853 36.150452 25.146331 36.310492 25.359277 36.310492 C 25.572231 36.310492 25.712903 36.150459 25.712903 35.923783 C 25.712903 35.697109 25.572231 35.535057 25.359277 35.535057 z M 21.455071 41.734301 C 21.387588 41.97212 21.281725 42.254678 21.232365 42.468785 C 21.152986 42.812933 21.185687 42.92936 21.148447 43.214768 C 21.37708 43.039788 21.495401 43.010399 21.753827 42.769559 C 21.914286 42.62002 22.105431 42.387943 22.277307 42.210979 C 22.175497 42.069907 22.074064 41.9339 21.9727 41.788968 C 21.796541 41.773658 21.628113 41.751921 21.455071 41.734301 z M 29.261668 41.734301 C 29.089273 41.751861 28.921546 41.773708 28.746057 41.788968 C 28.644521 41.93416 28.541419 42.069656 28.439433 42.210979 C 28.611501 42.38816 28.804305 42.619867 28.964929 42.769559 C 29.223017 43.010083 29.339901 43.039927 29.568292 43.214768 C 29.531072 42.929367 29.563704 42.812868 29.484374 42.468785 C 29.435018 42.254705 29.329148 41.972104 29.261668 41.734301 z " /><path
   id="path4"
   style="color:#000000;fill:#ffc340;stroke-width:0.080407;stroke-linejoin:round;-inkscape-stroke:none;paint-order:markers fill stroke"
   d="m 20.178638,24.86705 c -0.377038,-0.02283 -0.739847,0.04481 -1.068091,0.234317 -0.656486,0.379023 -0.959717,1.121392 -1.046352,1.961173 -0.08664,0.839786 0.02198,1.841489 0.284604,2.98058 0.159072,0.689977 0.382844,1.434475 0.654457,2.211116 -0.808348,0.15309 -1.56493,0.331538 -2.24197,0.538753 -1.117789,0.342115 -2.039866,0.748884 -2.723825,1.243803 -0.683953,0.49492 -1.175079,1.128798 -1.175079,1.886841 0,0.758045 0.491126,1.39182 1.175079,1.886742 0.683959,0.49492 1.606036,0.901889 2.723825,1.244004 0.677066,0.207223 1.433685,0.385559 2.242071,0.538653 -0.271617,0.776648 -0.495385,1.521133 -0.654459,2.211116 -0.262616,1.13909 -0.371339,2.140896 -0.284703,2.980677 0.08662,0.839783 0.389866,1.582052 1.046352,1.961075 0.656488,0.379021 1.451143,0.270531 2.221735,-0.07434 0.770592,-0.344862 1.583846,-0.939797 2.439019,-1.736774 0.518026,-0.482773 1.050802,-1.048882 1.587612,-1.672463 0.536776,0.623538 1.069515,1.189618 1.587511,1.672361 0.855174,0.796977 1.668528,1.392113 2.43912,1.736977 0.770592,0.344862 1.565048,0.453354 2.221533,0.07434 0.656487,-0.379023 0.959918,-1.121392 1.046554,-1.961177 0.08664,-0.839782 -0.02219,-1.841686 -0.284804,-2.980778 -0.159066,-0.689945 -0.382762,-1.434413 -0.654358,-2.211014 0.808386,-0.153098 1.565003,-0.33143 2.242068,-0.538655 1.117792,-0.342113 2.039669,-0.749081 2.723623,-1.244002 0.683958,-0.494921 1.175183,-1.128698 1.175183,-1.886743 0,-0.758044 -0.491225,-1.391921 -1.175183,-1.88684 -0.683954,-0.494922 -1.605831,-0.90169 -2.723623,-1.243803 -0.677065,-0.207225 -1.433682,-0.385659 -2.242068,-0.538753 0.271596,-0.776605 0.495292,-1.52107 0.654358,-2.211015 0.262616,-1.139094 0.37144,-2.140996 0.284804,-2.980779 -0.08663,-0.839783 -0.390066,-1.582152 -1.046554,-1.961176 -0.656485,-0.379022 -1.450941,-0.270532 -2.221533,0.07434 -0.770592,0.344864 -1.583945,0.9401 -2.43912,1.737078 -0.517987,0.482739 -1.05074,1.048734 -1.587511,1.672263 C 24.822112,27.961376 24.28922,27.395351 23.7712,26.912585 22.916026,26.11561 22.102874,25.520575 21.332282,25.175711 20.946984,25.003282 20.555676,24.889903 20.178638,24.867065 Z m -0.180519,1.148338 c 0.212939,-0.01038 0.495434,0.04723 0.86333,0.211875 0.588631,0.263431 1.329175,0.787135 2.124361,1.528205 0.522633,0.487066 1.071235,1.074861 1.628484,1.733472 -0.554395,0.701822 -1.108509,1.461585 -1.652226,2.282942 -0.983294,0.06019 -1.91847,0.160291 -2.803564,0.289512 -0.291732,-0.811859 -0.52643,-1.580814 -0.686918,-2.276933 -0.244191,-1.059185 -0.327541,-1.962423 -0.261362,-2.603909 0.06619,-0.641486 0.260327,-0.9567 0.476343,-1.081417 0.08101,-0.04678 0.183789,-0.0775 0.311552,-0.08375 z m 10.721387,0 c 0.127762,0.0063 0.230445,0.03698 0.311452,0.08375 0.216013,0.124716 0.410363,0.440026 0.476543,1.081514 0.06618,0.641487 -0.01707,1.544626 -0.261262,2.60381 -0.160489,0.696119 -0.395273,1.465053 -0.687018,2.276934 -0.885065,-0.129217 -1.820205,-0.229323 -2.803464,-0.289512 -0.543725,-0.821376 -1.097922,-1.581105 -1.652325,-2.282943 0.557261,-0.658631 1.105851,-1.246405 1.628483,-1.733472 0.795186,-0.741071 1.535528,-1.264774 2.124161,-1.528204 0.367898,-0.164645 0.65049,-0.222282 0.86343,-0.21188 z m -5.360593,4.391775 c 0.320045,0.41273 0.64008,0.849476 0.959198,1.306716 -0.317428,-0.0076 -0.635385,-0.01473 -0.959198,-0.01473 -0.323845,0 -0.64184,0.0071 -0.959299,0.01473 0.319122,-0.457247 0.639249,-0.893981 0.959299,-1.306716 z m 0,2.44423 c 0.595791,0 1.176499,0.01812 1.748195,0.04448 0.308638,0.481859 0.614657,0.975631 0.912517,1.49154 0.297903,0.51598 0.572559,1.027925 0.835581,1.53622 -0.263022,0.508294 -0.537678,1.02024 -0.835581,1.536221 -0.297875,0.515932 -0.603859,1.009753 -0.912517,1.49164 -0.571694,0.02636 -1.152405,0.04448 -1.748195,0.04448 -0.59581,0 -1.176484,-0.01812 -1.748197,-0.04448 -0.308682,-0.481925 -0.614719,-0.975769 -0.912618,-1.491742 -0.297885,-0.515957 -0.572575,-1.02786 -0.835579,-1.536123 0.26301,-0.508267 0.537694,-1.020164 0.835579,-1.536121 0.297884,-0.515949 0.603951,-1.00974 0.912618,-1.49164 0.571714,-0.02635 1.152387,-0.04448 1.748197,-0.04448 z m -3.166109,0.136641 c -0.165298,0.271144 -0.330444,0.542996 -0.49237,0.823457 -0.161915,0.280444 -0.31477,0.55938 -0.466926,0.838085 -0.236451,-0.505037 -0.454628,-1.000646 -0.652057,-1.484228 0.517494,-0.0708 1.055776,-0.129581 1.611353,-0.177314 z m 6.332216,0 c 0.555536,0.04773 1.093797,0.106528 1.611253,0.177316 -0.19742,0.483556 -0.415522,0.97922 -0.651954,1.484228 -0.152178,-0.278744 -0.30509,-0.557701 -0.467029,-0.838184 -0.161901,-0.280425 -0.326997,-0.552254 -0.49227,-0.82336 z m -9.111136,0.363043 c 0.330623,0.831083 0.711647,1.690948 1.151138,2.572556 -0.439488,0.8816 -0.820415,1.741477 -1.151038,2.572557 -0.849022,-0.153289 -1.632372,-0.334585 -2.315501,-0.543664 -1.039376,-0.318114 -1.863069,-0.697347 -2.385524,-1.075407 -0.522454,-0.378054 -0.698336,-0.704054 -0.698336,-0.953488 0,-0.249431 0.175882,-0.575331 0.698336,-0.95339 0.522455,-0.378055 1.346148,-0.757489 2.385524,-1.075604 0.683101,-0.209072 1.466419,-0.390302 2.315401,-0.54356 z m 11.889957,0 c 0.849044,0.153267 1.632357,0.334479 2.3155,0.543563 1.039379,0.318116 1.863069,0.697548 2.385523,1.075604 0.522455,0.378059 0.698438,0.703959 0.698438,0.953389 0,0.249432 -0.175983,0.575434 -0.698438,0.953488 -0.522454,0.378058 -1.346144,0.757291 -2.385523,1.075406 -0.683144,0.209083 -1.466453,0.390374 -2.3155,0.543665 -0.330618,-0.831081 -0.711552,-1.690955 -1.151039,-2.572558 0.439485,-0.881601 0.820422,-1.741478 1.151039,-2.572557 z m -5.944928,1.15284 c -0.757288,0 -1.454076,0.609765 -1.454076,1.419714 0,0.80995 0.696788,1.419715 1.454076,1.419715 0.757291,0 1.454074,-0.609765 1.454074,-1.419715 0,-0.809949 -0.696783,-1.419714 -1.454074,-1.419714 z m -4.125406,2.693769 c 0.152164,0.278723 0.304901,0.557625 0.466826,0.838086 0.161927,0.280467 0.327171,0.552311 0.49247,0.823456 -0.555576,-0.04774 -1.09386,-0.106503 -1.611352,-0.177312 0.197426,-0.483568 0.415613,-0.979209 0.652056,-1.48423 z m 8.250812,0 c 0.236432,0.505011 0.454534,1.000674 0.651954,1.484232 -0.517456,0.0708 -1.055717,0.129573 -1.611253,0.177313 0.165276,-0.271109 0.330465,-0.542932 0.492371,-0.823356 0.161948,-0.280502 0.314742,-0.559426 0.466928,-0.838189 z m -9.325817,2.588288 c 0.885063,0.129215 1.820207,0.22922 2.803465,0.289411 0.543715,0.821358 1.09793,1.581219 1.652326,2.283043 -0.557261,0.65863 -1.105852,1.246405 -1.628484,1.733471 -0.795186,0.74107 -1.535631,1.264675 -2.124263,1.528104 -0.588632,0.263433 -0.958864,0.252846 -1.174881,0.128127 -0.216015,-0.124717 -0.410364,-0.440028 -0.476544,-1.081517 -0.06619,-0.641488 0.01719,-1.544424 0.261363,-2.603609 0.160491,-0.696125 0.395269,-1.465143 0.687018,-2.27703 z m 10.400718,0 c 0.291735,0.811859 0.526534,1.580831 0.687019,2.276932 0.244191,1.059186 0.327441,1.962225 0.261262,2.60371 -0.06619,0.641487 -0.26053,0.956801 -0.476544,1.081517 -0.216015,0.124716 -0.586147,0.135204 -1.174781,-0.128227 -0.588633,-0.263433 -1.329075,-0.787037 -2.124262,-1.528107 -0.522603,-0.487037 -1.071153,-1.074784 -1.628384,-1.73337 0.554392,-0.701825 1.108513,-1.461686 1.652226,-2.283042 0.983255,-0.06019 1.9184,-0.1602 2.803464,-0.289413 z m -6.159506,0.347515 c 0.317425,0.0076 0.635385,0.01472 0.959198,0.01472 0.323814,0 0.641771,-0.0071 0.959198,-0.01472 -0.319119,0.457244 -0.639149,0.89398 -0.959198,1.306714 -0.320052,-0.412734 -0.640075,-0.84947 -0.959198,-1.306714 z" /></svg>
