<?xml version="1.0" encoding="UTF-8" standalone="no"?>
<!-- Uploaded to: SVG Repo, www.svgrepo.com, Generator: SVG Repo Mixer Tools -->

<svg
   fill="#000000"
   version="1.1"
   id="Capa_1"
   width="500"
   height="500"
   viewBox="0 0 51.64125 51.641875"
   xml:space="preserve"
   sodipodi:docname="spec.tsx.svg"
   inkscape:version="1.3.2 (091e20ef0f, 2023-11-25, custom)"
   xmlns:inkscape="http://www.inkscape.org/namespaces/inkscape"
   xmlns:sodipodi="http://sodipodi.sourceforge.net/DTD/sodipodi-0.dtd"
   xmlns="http://www.w3.org/2000/svg"
   xmlns:svg="http://www.w3.org/2000/svg"><defs
   id="defs1"><inkscape:path-effect
     effect="offset"
     id="path-effect6"
     is_visible="true"
     lpeversion="1.2"
     linejoin_type="miter"
     unit="mm"
     offset="0.7"
     miter_limit="4"
     attempt_force_join="false"
     update_on_knot_move="true" /><inkscape:path-effect
     effect="offset"
     id="path-effect3"
     is_visible="true"
     lpeversion="1.2"
     linejoin_type="miter"
     unit="mm"
     offset="-0.8"
     miter_limit="4"
     attempt_force_join="false"
     update_on_knot_move="true" /><inkscape:path-effect
     effect="offset"
     id="path-effect2"
     is_visible="true"
     lpeversion="1.2"
     linejoin_type="miter"
     unit="mm"
     offset="2.8"
     miter_limit="4"
     attempt_force_join="false"
     update_on_knot_move="true" /><linearGradient
     id="swatch61"
     inkscape:swatch="solid"><stop
       style="stop-color:#5090d0;stop-opacity:1;"
       offset="0"
       id="stop61" /></linearGradient><linearGradient
     id="swatch30"
     inkscape:swatch="solid"><stop
       style="stop-color:#f9f9f9;stop-opacity:1;"
       offset="0"
       id="stop30" /></linearGradient><inkscape:perspective
     sodipodi:type="inkscape:persp3d"
     inkscape:vp_x="44.06818 : 315.96746 : 1"
     inkscape:vp_y="0 : 1000 : 0"
     inkscape:vp_z="480.74134 : 298.68846 : 1"
     inkscape:persp3d-origin="250 : 166.66667 : 1"
     id="perspective17" /><inkscape:perspective
     sodipodi:type="inkscape:persp3d"
     inkscape:vp_x="44.06818 : 315.96746 : 1"
     inkscape:vp_y="0 : 1000 : 0"
     inkscape:vp_z="480.74134 : 298.68846 : 1"
     inkscape:persp3d-origin="250 : 166.66667 : 1"
     id="perspective17-9" /><inkscape:perspective
     sodipodi:type="inkscape:persp3d"
     inkscape:vp_x="44.06818 : 315.96746 : 1"
     inkscape:vp_y="0 : 1000 : 0"
     inkscape:vp_z="480.74134 : 298.68846 : 1"
     inkscape:persp3d-origin="250 : 166.66667 : 1"
     id="perspective17-6" /><inkscape:perspective
     sodipodi:type="inkscape:persp3d"
     inkscape:vp_x="44.06818 : 315.96746 : 1"
     inkscape:vp_y="0 : 1000 : 0"
     inkscape:vp_z="480.74134 : 298.68846 : 1"
     inkscape:persp3d-origin="250 : 166.66667 : 1"
     id="perspective17-9-9" /><inkscape:perspective
     sodipodi:type="inkscape:persp3d"
     inkscape:vp_x="44.06818 : 315.96746 : 1"
     inkscape:vp_y="0 : 1000 : 0"
     inkscape:vp_z="480.74134 : 298.68846 : 1"
     inkscape:persp3d-origin="250 : 166.66667 : 1"
     id="perspective17-0" /><inkscape:perspective
     sodipodi:type="inkscape:persp3d"
     inkscape:vp_x="44.06818 : 315.96746 : 1"
     inkscape:vp_y="0 : 1000 : 0"
     inkscape:vp_z="480.74134 : 298.68846 : 1"
     inkscape:persp3d-origin="250 : 166.66667 : 1"
     id="perspective17-2" /><inkscape:path-effect
     effect="mirror_symmetry"
     start_point="251.8258,19.235391"
     end_point="251.8258,476.11943"
     center_point="251.8258,247.67741"
     id="path-effect4"
     is_visible="true"
     lpeversion="1.2"
     lpesatellites=""
     mode="free"
     discard_orig_path="false"
     fuse_paths="true"
     oposite_fuse="false"
     split_items="false"
     split_open="false"
     link_styles="false" /><inkscape:path-effect
     effect="mirror_symmetry"
     start_point="251.8258,19.235392"
     end_point="251.8258,476.11943"
     center_point="251.8258,247.67741"
     id="path-effect2-7"
     is_visible="true"
     lpeversion="1.2"
     lpesatellites=""
     mode="free"
     discard_orig_path="false"
     fuse_paths="true"
     oposite_fuse="false"
     split_items="false"
     split_open="false"
     link_styles="false" /><inkscape:perspective
     sodipodi:type="inkscape:persp3d"
     inkscape:vp_x="44.06818 : 315.96746 : 1"
     inkscape:vp_y="0 : 1000 : 0"
     inkscape:vp_z="480.74134 : 298.68846 : 1"
     inkscape:persp3d-origin="250 : 166.66667 : 1"
     id="perspective17-5" /><inkscape:perspective
     sodipodi:type="inkscape:persp3d"
     inkscape:vp_x="44.06818 : 315.96746 : 1"
     inkscape:vp_y="0 : 1000 : 0"
     inkscape:vp_z="480.74134 : 298.68846 : 1"
     inkscape:persp3d-origin="250 : 166.66667 : 1"
     id="perspective17-2-6" /><inkscape:perspective
     sodipodi:type="inkscape:persp3d"
     inkscape:vp_x="44.06818 : 315.96746 : 1"
     inkscape:vp_y="0 : 1000 : 0"
     inkscape:vp_z="480.74134 : 298.68846 : 1"
     inkscape:persp3d-origin="250 : 166.66667 : 1"
     id="perspective17-0-2" /><inkscape:perspective
     sodipodi:type="inkscape:persp3d"
     inkscape:vp_x="44.06818 : 315.96746 : 1"
     inkscape:vp_y="0 : 1000 : 0"
     inkscape:vp_z="480.74134 : 298.68846 : 1"
     inkscape:persp3d-origin="250 : 166.66667 : 1"
     id="perspective17-1" /><inkscape:perspective
     sodipodi:type="inkscape:persp3d"
     inkscape:vp_x="44.06818 : 315.96746 : 1"
     inkscape:vp_y="0 : 1000 : 0"
     inkscape:vp_z="480.74134 : 298.68846 : 1"
     inkscape:persp3d-origin="250 : 166.66667 : 1"
     id="perspective17-2-0" /><inkscape:perspective
     sodipodi:type="inkscape:persp3d"
     inkscape:vp_x="44.06818 : 315.96746 : 1"
     inkscape:vp_y="0 : 1000 : 0"
     inkscape:vp_z="480.74134 : 298.68846 : 1"
     inkscape:persp3d-origin="250 : 166.66667 : 1"
     id="perspective17-93" /><inkscape:perspective
     sodipodi:type="inkscape:persp3d"
     inkscape:vp_x="44.06818 : 315.96746 : 1"
     inkscape:vp_y="0 : 1000 : 0"
     inkscape:vp_z="480.74134 : 298.68846 : 1"
     inkscape:persp3d-origin="250 : 166.66667 : 1"
     id="perspective17-18" /><inkscape:perspective
     sodipodi:type="inkscape:persp3d"
     inkscape:vp_x="44.06818 : 315.96746 : 1"
     inkscape:vp_y="0 : 1000 : 0"
     inkscape:vp_z="480.74134 : 298.68846 : 1"
     inkscape:persp3d-origin="250 : 166.66667 : 1"
     id="perspective17-2-7" /></defs><sodipodi:namedview
   id="namedview1"
   pagecolor="#505050"
   bordercolor="#eeeeee"
   borderopacity="1"
   inkscape:showpageshadow="0"
   inkscape:pageopacity="0"
   inkscape:pagecheckerboard="0"
   inkscape:deskcolor="#505050"
   inkscape:zoom="0.834386"
   inkscape:cx="272.65558"
   inkscape:cy="306.21319"
   inkscape:window-width="1352"
   inkscape:window-height="734"
   inkscape:window-x="4"
   inkscape:window-y="24"
   inkscape:window-maximized="1"
   inkscape:current-layer="Capa_1"
   showguides="true"><sodipodi:guide
     position="25.499223,37.901836"
     orientation="1,0"
     id="guide1"
     inkscape:locked="false" /></sodipodi:namedview>

<path
   id="path3"
   style="display:inline;fill:#3178c6;fill-opacity:1;stroke:none;stroke-width:0.538775;stroke-linecap:round;stroke-linejoin:round;stroke-miterlimit:10;stroke-dasharray:none;paint-order:stroke markers fill"
   d="M 19.038594 1.3128333 L 19.038594 17.535241 L 13.647667 24.602109 L 3.5284817 37.504105 L 3.6011031 37.772199 L 3.4134979 38.017901 L 5.7329443 45.653636 L 7.0558639 50.544082 L 9.7773503 50.544082 L 43.871074 50.913442 L 45.441713 44.892726 L 47.440415 37.504105 L 47.386958 37.435921 L 47.448283 37.201314 L 31.930303 16.963146 L 31.930303 1.3128333 L 25.484348 1.3128333 L 19.038594 1.3128333 z M 19.418041 21.656303 C 19.911362 21.686187 20.415236 21.8346 20.898509 22.050879 C 21.860156 22.481246 22.863614 23.219456 23.902412 24.187561 C 24.465995 24.712791 25.043809 25.325797 25.623135 25.986353 C 26.202461 25.325796 26.780074 24.712791 27.343657 24.187561 C 28.382345 23.219559 29.383982 22.481297 30.345744 22.050879 C 31.316101 21.616622 32.369451 21.459488 33.261695 21.974626 C 34.153968 22.489781 34.543304 23.481542 34.652394 24.538968 C 34.760481 25.586685 34.625685 26.823083 34.306636 28.206954 C 34.133406 28.95834 33.89025 29.765363 33.607453 30.597609 C 34.469352 30.768943 35.290522 30.960123 36.027359 31.185641 C 37.385211 31.601231 38.523615 32.103238 39.377021 32.720776 C 40.238258 33.34398 40.902271 34.176713 40.902271 35.20705 C 40.902271 36.237387 40.238259 37.070119 39.377021 37.693324 C 38.523616 38.310863 37.385211 38.812871 36.027359 39.228459 C 35.290522 39.453978 34.469352 39.645158 33.607453 39.816491 C 33.89025 40.648736 34.133406 41.455557 34.306636 42.206945 C 34.62568 43.590816 34.760481 44.827214 34.652394 45.87493 C 34.543304 46.932359 34.153967 47.924319 33.261695 48.439474 C 32.369452 48.954616 31.316101 48.797484 30.345744 48.363221 C 29.383981 47.932803 28.382345 47.19454 27.343657 46.226539 C 26.780105 45.70134 26.202444 45.088278 25.623135 44.427747 C 25.043817 45.088292 24.465982 45.701322 23.902412 46.226539 C 22.863614 47.194643 21.860159 47.932854 20.898509 48.363221 C 19.927856 48.797628 18.874299 48.952419 17.982357 48.437456 C 17.088786 47.921554 16.701031 46.933149 16.591859 45.87493 C 16.483741 44.82691 16.620432 43.590604 16.939433 42.206945 C 17.112584 41.455904 17.354273 40.64893 17.6368 39.816491 C 16.775246 39.645148 15.955363 39.45392 15.218709 39.228459 C 13.86092 38.812888 12.720787 38.310967 11.867232 37.693324 C 11.00521 37.069551 10.343797 36.238833 10.343797 35.20705 C 10.343797 34.17527 11.00521 33.344549 11.867232 32.720776 C 12.720787 32.103132 13.860921 31.60121 15.218709 31.185641 C 15.955363 30.960178 16.775246 30.768951 17.6368 30.597609 C 17.354284 29.76519 17.112576 28.957964 16.939433 28.206954 C 16.620437 26.823295 16.48374 25.586989 16.591859 24.538968 C 16.70095 23.48154 17.090084 22.489781 17.982357 21.974626 C 18.430979 21.715613 18.919571 21.626102 19.418041 21.656303 z M 19.199168 23.58198 C 19.084583 23.587578 19.001977 23.614907 18.947212 23.646532 C 18.792646 23.735771 18.586825 24.007952 18.511686 24.736256 C 18.43601 25.469802 18.528545 26.51659 18.81831 27.773444 C 18.994074 28.535823 19.253882 29.380971 19.56631 30.269603 C 20.52919 30.134761 21.537098 30.029034 22.593815 29.960962 C 23.180921 29.080493 23.777254 28.259646 24.375056 27.494054 C 23.761453 26.778586 23.160369 26.131078 22.587965 25.597627 C 21.64437 24.718249 20.784403 24.115571 20.111374 23.814368 C 19.691934 23.626661 19.40067 23.572137 19.199168 23.58198 z M 32.044883 23.58198 C 31.843153 23.572125 31.554374 23.626549 31.134695 23.814368 C 30.461668 24.11557 29.601699 24.718248 28.658104 25.597627 C 28.085519 26.131246 27.482925 26.778719 26.869197 27.494054 C 27.467 28.259648 28.063332 29.080492 28.650438 29.960962 C 29.707158 30.029034 30.71486 30.13476 31.677742 30.269603 C 31.990178 29.380955 32.249977 28.535824 32.425742 27.773444 C 32.715555 26.516396 32.810027 25.46946 32.734383 24.736256 C 32.65929 24.008376 32.451866 23.736037 32.296839 23.646532 C 32.241928 23.614829 32.159245 23.587496 32.044883 23.58198 z M 25.623135 29.037056 C 25.418133 29.307288 25.212867 29.585122 25.007871 29.871194 C 25.212737 29.867571 25.414742 29.861309 25.623135 29.861309 C 25.831193 29.861309 26.03232 29.867576 26.236382 29.871194 C 26.031862 29.585218 25.827612 29.307018 25.623135 29.037056 z M 25.623135 31.791021 C 24.96189 31.791021 24.31549 31.809879 23.677689 31.837821 C 23.334688 32.376125 22.99458 32.927487 22.664015 33.500044 C 22.333304 34.072851 22.027164 34.640728 21.732444 35.20705 C 22.027161 35.773366 22.333305 36.341248 22.664015 36.914056 C 22.994466 37.486414 23.334571 38.036006 23.677689 38.574262 C 24.315907 38.602461 24.962259 38.623079 25.623135 38.623079 C 26.283974 38.623079 26.930183 38.602461 27.56838 38.574262 C 27.911024 38.036376 28.24947 37.486612 28.580036 36.914056 C 28.910802 36.341153 29.217067 35.773426 29.511809 35.20705 C 29.216931 34.640179 28.910788 34.070903 28.580036 33.498027 C 28.249455 32.925441 27.911031 32.375713 27.56838 31.837821 C 26.9306 31.809879 26.284342 31.791021 25.623135 31.791021 z M 21.308618 32.005859 C 20.958909 32.040389 20.61539 32.078582 20.27921 32.121045 C 20.410293 32.433681 20.54884 32.750174 20.693353 33.070367 C 20.792303 32.891295 20.888229 32.713098 20.99211 32.533171 C 21.096159 32.352953 21.203027 32.181087 21.308618 32.005859 z M 29.935635 32.005859 C 30.041239 32.181109 30.147919 32.353 30.251942 32.533171 C 30.355823 32.713099 30.451748 32.891295 30.550698 33.070367 C 30.69561 32.750207 30.833556 32.433387 30.964842 32.121045 C 30.628627 32.078637 30.285472 32.040352 29.935635 32.005859 z M 18.320248 32.429685 C 17.393801 32.603349 16.531292 32.802249 15.783139 33.031233 C 14.549876 33.408689 13.597424 33.850785 12.999924 34.283145 C 12.406919 34.712254 12.273509 35.028699 12.273509 35.20705 C 12.273509 35.385406 12.406919 35.701851 12.999924 36.130955 C 13.597198 36.563154 14.549689 37.003336 15.783139 37.38085 C 16.531288 37.609831 17.393794 37.808715 18.320248 37.982397 C 18.684419 37.081434 19.095133 36.156559 19.564494 35.20705 C 19.095037 34.257231 18.684404 33.330854 18.320248 32.429685 z M 32.925821 32.429685 C 32.561343 33.3311 32.149269 34.257393 31.679759 35.20705 C 32.14915 36.156353 32.561335 37.081218 32.925821 37.982397 C 33.852052 37.80872 34.712574 37.609889 35.460912 37.38085 C 36.694419 37.003319 37.649034 36.563035 38.246144 36.130955 C 38.837793 35.702832 38.970744 35.382517 38.970744 35.20705 C 38.970744 35.031587 38.837793 34.711273 38.246144 34.283145 C 37.648808 33.850904 36.694232 33.408706 35.460912 33.031233 C 34.712634 32.802212 33.851992 32.60334 32.925821 32.429685 z M 25.623135 33.228521 C 26.678074 33.228521 27.642615 34.078975 27.642615 35.20705 C 27.642615 36.335128 26.678073 37.185579 25.623135 37.185579 C 24.568198 37.185579 23.603454 36.335128 23.603454 35.20705 C 23.603454 34.078975 24.568198 33.228521 25.623135 33.228521 z M 20.693353 37.343733 C 20.54884 37.663927 20.410295 37.980418 20.27921 38.293055 C 20.615385 38.335515 20.9589 38.37371 21.308618 38.408241 C 21.202914 38.232315 21.096304 38.059381 20.99211 37.878912 C 20.888325 37.699151 20.792147 37.522001 20.693353 37.343733 z M 30.550698 37.343733 C 30.451748 37.522805 30.355822 37.701002 30.251942 37.880929 C 30.147919 38.061101 30.041239 38.232991 29.935635 38.408241 C 30.285476 38.373749 30.628633 38.335463 30.964842 38.293055 C 30.833556 37.980713 30.69561 37.663893 30.550698 37.343733 z M 19.568327 40.14248 C 19.25543 41.031669 18.994209 41.875673 18.81831 42.638639 C 18.528512 43.895643 18.434028 44.944475 18.509669 45.677642 C 18.584761 46.405521 18.792181 46.678061 18.947212 46.767568 C 19.101748 46.85679 19.443474 46.898435 20.111374 46.59953 C 20.784401 46.298329 21.64437 45.695853 22.587965 44.816473 C 23.16037 44.283022 23.761444 43.635328 24.375056 42.919845 C 23.777286 42.15429 23.18088 41.333532 22.593815 40.453138 C 21.537087 40.384927 20.530611 40.277485 19.568327 40.14248 z M 31.677742 40.14248 C 30.715058 40.277522 29.707483 40.384921 28.650438 40.453138 C 28.063373 41.333532 27.466967 42.15429 26.869197 42.919845 C 27.482925 43.63518 28.085519 44.282854 28.658104 44.816473 C 29.601699 45.695853 30.461666 46.298329 31.134695 46.59953 C 31.802755 46.898507 32.141816 46.85707 32.296839 46.767568 C 32.451866 46.678062 32.659288 46.40552 32.734383 45.677642 C 32.810019 44.944474 32.71554 43.895643 32.425742 42.638639 C 32.249977 41.876259 31.990178 41.031128 31.677742 40.14248 z M 25.007871 40.542906 C 25.212866 40.828977 25.418133 41.106812 25.623135 41.377044 C 25.828141 41.106811 26.03321 40.828968 26.238198 40.542906 C 26.033336 40.546529 25.831538 40.552791 25.623135 40.552791 C 25.414734 40.552791 25.212731 40.546533 25.007871 40.542906 z " /></svg>
