<?xml version="1.0" encoding="UTF-8" standalone="no"?>
<!-- Uploaded to: SVG Repo, www.svgrepo.com, Generator: SVG Repo Mixer Tools -->

<svg
   fill="#000000"
   version="1.1"
   id="Capa_1"
   width="500"
   height="500"
   viewBox="0 0 51.64125 51.641875"
   xml:space="preserve"
   sodipodi:docname="spec.tsx.svg"
   inkscape:version="1.3.2 (091e20ef0f, 2023-11-25, custom)"
   xmlns:inkscape="http://www.inkscape.org/namespaces/inkscape"
   xmlns:sodipodi="http://sodipodi.sourceforge.net/DTD/sodipodi-0.dtd"
   xmlns:xlink="http://www.w3.org/1999/xlink"
   xmlns="http://www.w3.org/2000/svg"
   xmlns:svg="http://www.w3.org/2000/svg"><defs
   id="defs1"><inkscape:path-effect
     effect="offset"
     id="path-effect6"
     is_visible="true"
     lpeversion="1.2"
     linejoin_type="miter"
     unit="mm"
     offset="0.7"
     miter_limit="4"
     attempt_force_join="false"
     update_on_knot_move="true" /><inkscape:path-effect
     effect="offset"
     id="path-effect3"
     is_visible="true"
     lpeversion="1.2"
     linejoin_type="miter"
     unit="mm"
     offset="-0.8"
     miter_limit="4"
     attempt_force_join="false"
     update_on_knot_move="true" /><inkscape:path-effect
     effect="offset"
     id="path-effect2"
     is_visible="true"
     lpeversion="1.2"
     linejoin_type="miter"
     unit="mm"
     offset="2.8"
     miter_limit="4"
     attempt_force_join="false"
     update_on_knot_move="true" /><linearGradient
     id="swatch61"
     inkscape:swatch="solid"><stop
       style="stop-color:#5090d0;stop-opacity:1;"
       offset="0"
       id="stop61" /></linearGradient><linearGradient
     id="swatch30"
     inkscape:swatch="solid"><stop
       style="stop-color:#f9f9f9;stop-opacity:1;"
       offset="0"
       id="stop30" /></linearGradient><inkscape:perspective
     sodipodi:type="inkscape:persp3d"
     inkscape:vp_x="44.06818 : 315.96746 : 1"
     inkscape:vp_y="0 : 1000 : 0"
     inkscape:vp_z="480.74134 : 298.68846 : 1"
     inkscape:persp3d-origin="250 : 166.66667 : 1"
     id="perspective17" /><inkscape:perspective
     sodipodi:type="inkscape:persp3d"
     inkscape:vp_x="44.06818 : 315.96746 : 1"
     inkscape:vp_y="0 : 1000 : 0"
     inkscape:vp_z="480.74134 : 298.68846 : 1"
     inkscape:persp3d-origin="250 : 166.66667 : 1"
     id="perspective17-9" /><inkscape:perspective
     sodipodi:type="inkscape:persp3d"
     inkscape:vp_x="44.06818 : 315.96746 : 1"
     inkscape:vp_y="0 : 1000 : 0"
     inkscape:vp_z="480.74134 : 298.68846 : 1"
     inkscape:persp3d-origin="250 : 166.66667 : 1"
     id="perspective17-6" /><inkscape:perspective
     sodipodi:type="inkscape:persp3d"
     inkscape:vp_x="44.06818 : 315.96746 : 1"
     inkscape:vp_y="0 : 1000 : 0"
     inkscape:vp_z="480.74134 : 298.68846 : 1"
     inkscape:persp3d-origin="250 : 166.66667 : 1"
     id="perspective17-9-9" /><inkscape:perspective
     sodipodi:type="inkscape:persp3d"
     inkscape:vp_x="44.06818 : 315.96746 : 1"
     inkscape:vp_y="0 : 1000 : 0"
     inkscape:vp_z="480.74134 : 298.68846 : 1"
     inkscape:persp3d-origin="250 : 166.66667 : 1"
     id="perspective17-0" /><inkscape:perspective
     sodipodi:type="inkscape:persp3d"
     inkscape:vp_x="44.06818 : 315.96746 : 1"
     inkscape:vp_y="0 : 1000 : 0"
     inkscape:vp_z="480.74134 : 298.68846 : 1"
     inkscape:persp3d-origin="250 : 166.66667 : 1"
     id="perspective17-2" /><inkscape:path-effect
     effect="mirror_symmetry"
     start_point="251.8258,19.235391"
     end_point="251.8258,476.11943"
     center_point="251.8258,247.67741"
     id="path-effect4"
     is_visible="true"
     lpeversion="1.2"
     lpesatellites=""
     mode="free"
     discard_orig_path="false"
     fuse_paths="true"
     oposite_fuse="false"
     split_items="false"
     split_open="false"
     link_styles="false" /><inkscape:path-effect
     effect="mirror_symmetry"
     start_point="251.8258,19.235392"
     end_point="251.8258,476.11943"
     center_point="251.8258,247.67741"
     id="path-effect2-7"
     is_visible="true"
     lpeversion="1.2"
     lpesatellites=""
     mode="free"
     discard_orig_path="false"
     fuse_paths="true"
     oposite_fuse="false"
     split_items="false"
     split_open="false"
     link_styles="false" /><inkscape:perspective
     sodipodi:type="inkscape:persp3d"
     inkscape:vp_x="44.06818 : 315.96746 : 1"
     inkscape:vp_y="0 : 1000 : 0"
     inkscape:vp_z="480.74134 : 298.68846 : 1"
     inkscape:persp3d-origin="250 : 166.66667 : 1"
     id="perspective17-5" /><inkscape:perspective
     sodipodi:type="inkscape:persp3d"
     inkscape:vp_x="44.06818 : 315.96746 : 1"
     inkscape:vp_y="0 : 1000 : 0"
     inkscape:vp_z="480.74134 : 298.68846 : 1"
     inkscape:persp3d-origin="250 : 166.66667 : 1"
     id="perspective17-2-6" /><inkscape:perspective
     sodipodi:type="inkscape:persp3d"
     inkscape:vp_x="44.06818 : 315.96746 : 1"
     inkscape:vp_y="0 : 1000 : 0"
     inkscape:vp_z="480.74134 : 298.68846 : 1"
     inkscape:persp3d-origin="250 : 166.66667 : 1"
     id="perspective17-0-2" /><inkscape:perspective
     sodipodi:type="inkscape:persp3d"
     inkscape:vp_x="44.06818 : 315.96746 : 1"
     inkscape:vp_y="0 : 1000 : 0"
     inkscape:vp_z="480.74134 : 298.68846 : 1"
     inkscape:persp3d-origin="250 : 166.66667 : 1"
     id="perspective17-1" /><inkscape:perspective
     sodipodi:type="inkscape:persp3d"
     inkscape:vp_x="44.06818 : 315.96746 : 1"
     inkscape:vp_y="0 : 1000 : 0"
     inkscape:vp_z="480.74134 : 298.68846 : 1"
     inkscape:persp3d-origin="250 : 166.66667 : 1"
     id="perspective17-2-0" /><inkscape:perspective
     sodipodi:type="inkscape:persp3d"
     inkscape:vp_x="44.06818 : 315.96746 : 1"
     inkscape:vp_y="0 : 1000 : 0"
     inkscape:vp_z="480.74134 : 298.68846 : 1"
     inkscape:persp3d-origin="250 : 166.66667 : 1"
     id="perspective17-93" /><inkscape:perspective
     sodipodi:type="inkscape:persp3d"
     inkscape:vp_x="44.06818 : 315.96746 : 1"
     inkscape:vp_y="0 : 1000 : 0"
     inkscape:vp_z="480.74134 : 298.68846 : 1"
     inkscape:persp3d-origin="250 : 166.66667 : 1"
     id="perspective17-18" /><inkscape:perspective
     sodipodi:type="inkscape:persp3d"
     inkscape:vp_x="44.06818 : 315.96746 : 1"
     inkscape:vp_y="0 : 1000 : 0"
     inkscape:vp_z="480.74134 : 298.68846 : 1"
     inkscape:persp3d-origin="250 : 166.66667 : 1"
     id="perspective17-2-7" /><linearGradient
     inkscape:collect="always"
     xlink:href="#linearGradient15"
     id="linearGradient16"
     x1="470.1965"
     y1="390.53561"
     x2="998.06964"
     y2="75.913155"
     gradientUnits="userSpaceOnUse"
     gradientTransform="matrix(0.12558826,0,0,0.12558826,-73.160513,-0.59643242)" /><linearGradient
     id="linearGradient15"
     inkscape:collect="always"><stop
       style="stop-color:#b7b7b7;stop-opacity:1;"
       offset="0.10616561"
       id="stop15" /><stop
       style="stop-color:#00fc2e;stop-opacity:1;"
       offset="0.99929684"
       id="stop16" /></linearGradient></defs><sodipodi:namedview
   id="namedview1"
   pagecolor="#505050"
   bordercolor="#eeeeee"
   borderopacity="1"
   inkscape:showpageshadow="0"
   inkscape:pageopacity="0"
   inkscape:pagecheckerboard="0"
   inkscape:deskcolor="#505050"
   inkscape:zoom="0.834386"
   inkscape:cx="272.65558"
   inkscape:cy="306.21319"
   inkscape:window-width="1352"
   inkscape:window-height="734"
   inkscape:window-x="4"
   inkscape:window-y="24"
   inkscape:window-maximized="1"
   inkscape:current-layer="Capa_1"
   showguides="true"><sodipodi:guide
     position="25.499223,37.901836"
     orientation="1,0"
     id="guide1"
     inkscape:locked="false" /></sodipodi:namedview>

<path
   id="path2"
   style="color:#000000;display:inline;fill:url(#linearGradient16);stroke-width:0.125589;stroke-linecap:round;stroke-miterlimit:10;-inkscape-stroke:none;paint-order:stroke markers fill"
   d="m 21.134219,1.6632345 c -1.754724,0 -3.310923,0.6981381 -4.275784,1.8161399 -0.964859,1.118002 -1.341476,2.5305235 -1.281768,3.8731411 0.05971,1.342617 0.543583,2.6708965 1.48894,3.7293115 0.557913,0.624628 1.312404,1.111061 2.165933,1.424993 l -0.07504,6.061868 c -1.09586,3.032711 -3.707313,4.155194 -6.919205,6.113712 -3.2898129,2.006032 -6.8978162,5.204939 -7.2663754,11.652304 l -0.00282,0.05366 v 0.05386 c 0,2.31238 0.00637,6.103469 2.8850864,9.150294 2.878716,3.046826 8.149293,4.993326 17.740194,4.993326 9.590902,0 14.861478,-1.9465 17.740195,-4.993326 2.878713,-3.046825 2.885289,-6.837914 2.885289,-9.150294 v -0.05386 l -0.0032,-0.05366 C 45.84699,29.887339 42.239068,26.688432 38.949254,24.6824 35.73755,22.723995 33.126225,21.601604 32.030253,18.569293 l -0.07524,-6.062473 c 0.853527,-0.313932 1.608024,-0.800365 2.165933,-1.424993 0.945365,-1.058415 1.429435,-2.3866955 1.48914,-3.7293115 C 35.669792,6.0098979 35.292971,4.5973764 34.328113,3.4793744 33.363253,2.3613726 31.807049,1.6632345 30.052327,1.6632345 h -0.023 l -4.173713,0.1002579 a 1.8838239,1.8838239 0 0 0 -0.167029,0.049019 1.8838239,1.8838239 0 0 0 -0.357458,-0.049019 L 21.157216,1.6632345 Z M 20.275068,22.927585 c 0.662064,0.0401 1.251128,0.22462 1.783259,0.46276 1.045426,0.46786 1.988529,1.183803 2.9335,2.064464 0.119902,0.111742 0.236116,0.257473 0.355441,0.375009 0.119258,-0.117474 0.235795,-0.263316 0.355644,-0.375009 0.944965,-0.880658 1.885926,-1.596545 2.931483,-2.064464 1.064375,-0.476318 2.532616,-0.759526 3.865273,0.0099 1.332669,0.769418 1.819715,2.181635 1.939395,3.341794 0.11755,1.139442 -0.02996,2.313504 -0.32014,3.572166 -0.03671,0.159241 -0.104665,0.332597 -0.146656,0.494229 0.161321,0.04453 0.345493,0.07311 0.502097,0.121035 1.235242,0.378061 2.326029,0.836519 3.253842,1.507903 0.944775,0.683649 1.921844,1.812591 1.921844,3.351477 0,1.538886 -0.977165,2.668095 -1.921844,3.351678 -0.927625,0.671246 -2.018412,1.129584 -3.253842,1.507701 -0.156637,0.04794 -0.340758,0.07651 -0.502097,0.121035 0.04199,0.161634 0.109946,0.334989 0.146656,0.494228 0.290183,1.258651 0.437697,2.43291 0.32014,3.572367 -0.119686,1.160145 -0.606722,2.570358 -1.939395,3.339779 -1.332659,0.769395 -2.800908,0.488033 -3.865273,0.0117 -1.045438,-0.467867 -1.986463,-1.183758 -2.931483,-2.064465 -0.11987,-0.111712 -0.236376,-0.257518 -0.355644,-0.375009 -0.119337,0.117562 -0.235502,0.263233 -0.355441,0.375009 -0.945079,0.880764 -1.888244,1.596682 -2.9335,2.064465 -1.064479,0.476397 -2.530463,0.757784 -3.863256,-0.0117 -1.33268,-0.769425 -1.82177,-2.179859 -1.941412,-3.339779 -0.117534,-1.139283 0.03196,-2.313631 0.322156,-3.572367 0.03673,-0.159306 0.104443,-0.332541 0.146453,-0.494228 -0.161336,-0.04453 -0.345258,-0.0731 -0.501894,-0.121035 -1.235369,-0.378101 -2.326083,-0.836365 -3.253842,-1.507701 -0.944737,-0.68363 -1.923861,-1.81295 -1.923861,-3.351678 -1e-6,-1.538729 0.979025,-2.667779 1.923861,-3.351477 0.927945,-0.671471 2.018661,-1.129858 3.253842,-1.507903 0.156711,-0.04796 0.34046,-0.07647 0.501894,-0.121035 -0.04201,-0.161687 -0.109722,-0.334924 -0.146453,-0.494229 -0.290225,-1.258821 -0.439679,-2.433034 -0.322156,-3.572166 0.119656,-1.159861 0.608603,-2.572294 1.941412,-3.341794 0.666407,-0.384745 1.418149,-0.512724 2.079997,-0.472644 z m 0.86137,5.570262 c 0.03723,0.285259 0.0047,0.402411 0.08392,0.746185 0.04941,0.214326 0.155166,0.496244 0.222705,0.734283 0.17305,-0.01763 0.341455,-0.03935 0.517629,-0.05467 0.101408,-0.145008 0.202752,-0.280664 0.304607,-0.421809 -0.171876,-0.176966 -0.363025,-0.409044 -0.523479,-0.55858 -0.258428,-0.240841 -0.37672,-0.270409 -0.60538,-0.445411 z m 8.419845,0 c -0.228397,0.174867 -0.345234,0.204849 -0.603363,0.445411 -0.16064,0.149708 -0.353415,0.381388 -0.525496,0.55858 0.102359,0.141825 0.204713,0.278095 0.306624,0.423826 0.17543,0.01526 0.34328,0.03509 0.515611,0.05265 0.06755,-0.238025 0.173306,-0.520008 0.222706,-0.734283 0.07928,-0.343743 0.0467,-0.460966 0.08392,-0.746185 z m -11.195191,6.814509 c -0.239447,0.06042 -0.536243,0.111443 -0.746185,0.175703 -0.337672,0.103349 -0.421688,0.190298 -0.687482,0.300774 0.265747,0.11042 0.349865,0.197441 0.687482,0.300773 0.209906,0.06424 0.506815,0.113468 0.746185,0.173888 0.07123,-0.158625 0.138021,-0.314493 0.212821,-0.474661 -0.07506,-0.16071 -0.141351,-0.317316 -0.212821,-0.476477 z m 13.97074,0 c -0.07147,0.159164 -0.137973,0.31576 -0.213023,0.476477 0.0748,0.160169 0.141793,0.316036 0.213023,0.474661 0.239367,-0.06042 0.536066,-0.109638 0.745983,-0.173888 0.337322,-0.103241 0.421898,-0.190447 0.687483,-0.300773 -0.265631,-0.110382 -0.350107,-0.197515 -0.687483,-0.300774 -0.20995,-0.06426 -0.506531,-0.115283 -0.745983,-0.175703 z m -6.984564,0.08775 c -0.212946,0 -0.353424,0.16206 -0.353424,0.388726 0,0.226669 0.140478,0.386709 0.353424,0.386709 0.212954,0 0.353626,-0.160033 0.353626,-0.386709 0,-0.226674 -0.140672,-0.388726 -0.353626,-0.388726 z m -3.904206,6.199244 c -0.06748,0.237819 -0.173346,0.520377 -0.222706,0.734484 -0.07938,0.344148 -0.04668,0.460575 -0.08392,0.745983 0.228633,-0.17498 0.346955,-0.204369 0.605381,-0.445209 0.160458,-0.149539 0.351603,-0.381616 0.523479,-0.55858 -0.10181,-0.141072 -0.203243,-0.277079 -0.304607,-0.422011 -0.176158,-0.01531 -0.344587,-0.03705 -0.517629,-0.05467 z m 7.806597,0 c -0.172395,0.01756 -0.340122,0.03941 -0.515611,0.05467 -0.101536,0.145192 -0.204638,0.280688 -0.306624,0.422011 0.172068,0.177181 0.364872,0.408888 0.525496,0.55858 0.258088,0.240524 0.374972,0.270368 0.603364,0.445209 -0.03722,-0.285401 -0.0046,-0.4019 -0.08392,-0.745983 -0.04936,-0.214081 -0.155226,-0.496682 -0.222706,-0.734484 z" /><path
   id="path4"
   style="color:#000000;fill:#3178c6;stroke-width:0.080407;stroke-linejoin:round;-inkscape-stroke:none;paint-order:markers fill stroke;fill-opacity:1"
   d="m 20.166629,24.7321 c -0.377038,-0.02283 -0.739848,0.04481 -1.068091,0.234317 -0.656486,0.379023 -0.959717,1.121392 -1.046352,1.961173 -0.08664,0.839786 0.02198,1.841489 0.284605,2.98058 0.159071,0.689977 0.382844,1.434475 0.654457,2.211116 -0.808348,0.15309 -1.56493,0.331538 -2.24197,0.538753 -1.117789,0.342115 -2.039866,0.748883 -2.723825,1.243803 -0.683954,0.49492 -1.17508,1.128798 -1.17508,1.88684 0,0.758046 0.491126,1.391821 1.17508,1.886741 0.683959,0.49492 1.606036,0.901888 2.723825,1.244003 0.677066,0.207223 1.433685,0.385559 2.242071,0.538653 -0.271617,0.776649 -0.495385,1.521133 -0.654459,2.211116 -0.262616,1.13909 -0.371339,2.140896 -0.284703,2.980677 0.08662,0.839783 0.389866,1.582052 1.046352,1.961075 0.656488,0.379021 1.451143,0.270531 2.221735,-0.07434 0.770592,-0.344862 1.583846,-0.939797 2.439018,-1.736773 0.518026,-0.482774 1.050802,-1.048882 1.587612,-1.672463 0.536776,0.623538 1.069515,1.189618 1.587511,1.672361 0.855174,0.796977 1.668528,1.392113 2.43912,1.736977 0.770592,0.344862 1.565048,0.453354 2.221533,0.07434 0.656487,-0.379022 0.959918,-1.121392 1.046554,-1.961177 0.08664,-0.839782 -0.02219,-1.841686 -0.284804,-2.980778 -0.159066,-0.689945 -0.382762,-1.434413 -0.654358,-2.211014 0.808386,-0.153097 1.565003,-0.331429 2.242068,-0.538654 1.117792,-0.342112 2.039669,-0.74908 2.723623,-1.244003 0.683958,-0.49492 1.175183,-1.128698 1.175183,-1.886743 0,-0.758044 -0.491225,-1.39192 -1.175183,-1.88684 -0.683954,-0.494922 -1.605831,-0.90169 -2.723623,-1.243803 -0.677065,-0.207225 -1.433682,-0.385658 -2.242068,-0.538753 0.271596,-0.776605 0.495292,-1.52107 0.654358,-2.211015 0.262616,-1.139094 0.37144,-2.140996 0.284804,-2.980779 -0.08663,-0.839783 -0.390066,-1.582152 -1.046554,-1.961176 -0.656485,-0.379022 -1.450941,-0.270532 -2.221533,0.07434 -0.770592,0.344864 -1.583945,0.9401 -2.43912,1.737078 -0.517987,0.482738 -1.05074,1.048734 -1.587511,1.672263 -0.536801,-0.623571 -1.069693,-1.189596 -1.587713,-1.672362 -0.855175,-0.796975 -1.668326,-1.39201 -2.438918,-1.736874 -0.385298,-0.172429 -0.776607,-0.285808 -1.153644,-0.308646 z m -0.180519,1.148338 c 0.212938,-0.01038 0.495433,0.04723 0.86333,0.211875 0.588631,0.263431 1.329175,0.787135 2.124361,1.528205 0.522633,0.487066 1.071235,1.074861 1.628484,1.733472 -0.554395,0.701822 -1.108509,1.461585 -1.652226,2.282942 -0.983294,0.06019 -1.918469,0.160291 -2.803564,0.289512 -0.291731,-0.811859 -0.526429,-1.580814 -0.686917,-2.276933 -0.244192,-1.059185 -0.327541,-1.962423 -0.261362,-2.603909 0.06619,-0.641486 0.260327,-0.9567 0.476343,-1.081418 0.08101,-0.04678 0.183789,-0.0775 0.311552,-0.08375 z m 10.721387,0 c 0.127762,0.0063 0.230445,0.03698 0.311452,0.08375 0.216013,0.124716 0.410363,0.440026 0.476543,1.081514 0.06618,0.641487 -0.01707,1.544626 -0.261262,2.60381 -0.160489,0.696119 -0.395273,1.465053 -0.687018,2.276933 -0.885065,-0.129216 -1.820205,-0.229324 -2.803463,-0.289513 -0.543725,-0.821376 -1.097923,-1.581105 -1.652326,-2.282943 0.557261,-0.658631 1.105852,-1.246405 1.628483,-1.733471 0.795186,-0.741072 1.535528,-1.264774 2.124161,-1.528204 0.367898,-0.164645 0.650491,-0.222282 0.863431,-0.21188 z m -5.360593,4.391775 c 0.320045,0.41273 0.64008,0.849476 0.959198,1.306716 -0.317428,-0.0076 -0.635385,-0.01473 -0.959198,-0.01473 -0.323845,0 -0.641839,0.0071 -0.959299,0.01473 0.319122,-0.457247 0.639249,-0.893981 0.959299,-1.306716 z m 0,2.44423 c 0.595791,0 1.176499,0.01812 1.748195,0.04448 0.308637,0.481859 0.614657,0.975631 0.912517,1.49154 0.297904,0.51598 0.57256,1.027925 0.835582,1.53622 -0.263022,0.508294 -0.537678,1.02024 -0.835582,1.536221 -0.297875,0.515932 -0.603859,1.009752 -0.912517,1.491639 -0.571694,0.02636 -1.152405,0.04448 -1.748195,0.04448 -0.59581,0 -1.176484,-0.01812 -1.748198,-0.04448 -0.308682,-0.481924 -0.614719,-0.975768 -0.912618,-1.491742 -0.297885,-0.515957 -0.572575,-1.027859 -0.835579,-1.536122 0.263011,-0.508268 0.537694,-1.020164 0.835579,-1.536122 0.297884,-0.515948 0.603951,-1.00974 0.912618,-1.491639 0.571714,-0.02635 1.152388,-0.04448 1.748198,-0.04448 z m -3.16611,0.136641 c -0.165298,0.271144 -0.330444,0.542996 -0.49237,0.823456 -0.161915,0.280445 -0.31477,0.559379 -0.466926,0.838085 -0.236451,-0.505037 -0.454628,-1.000647 -0.652057,-1.484228 0.517494,-0.0708 1.055777,-0.129582 1.611353,-0.177313 z m 6.332217,0 c 0.555536,0.04773 1.093797,0.106527 1.611254,0.177315 -0.197421,0.483556 -0.415522,0.97922 -0.651954,1.484229 -0.152178,-0.278745 -0.30509,-0.557702 -0.467029,-0.838184 -0.161903,-0.280425 -0.326997,-0.552254 -0.492271,-0.82336 z m -9.111136,0.363042 c 0.330623,0.831083 0.711646,1.690948 1.151138,2.572556 -0.439489,0.881599 -0.820415,1.741478 -1.151038,2.572558 -0.849022,-0.153289 -1.632372,-0.334585 -2.315501,-0.543664 -1.039376,-0.318114 -1.863068,-0.697347 -2.385524,-1.075407 -0.522453,-0.378054 -0.698335,-0.704054 -0.698335,-0.953488 0,-0.249431 0.175882,-0.575331 0.698335,-0.95339 0.522456,-0.378055 1.346148,-0.757489 2.385524,-1.075604 0.683101,-0.209072 1.466419,-0.390302 2.315401,-0.543561 z m 11.889958,0 c 0.849044,0.153267 1.632357,0.33448 2.3155,0.543563 1.039378,0.318117 1.863069,0.697547 2.385523,1.075603 0.522455,0.37806 0.698438,0.703959 0.698438,0.95339 0,0.249431 -0.175983,0.575434 -0.698438,0.953488 -0.522455,0.378059 -1.346145,0.757292 -2.385523,1.075406 -0.683144,0.209083 -1.466453,0.390375 -2.3155,0.543664 -0.330618,-0.83108 -0.711552,-1.690956 -1.151039,-2.572558 0.439485,-0.881602 0.820422,-1.741478 1.151039,-2.572556 z m -5.944928,1.15284 c -0.757288,0 -1.454077,0.609766 -1.454077,1.419713 0,0.80995 0.696789,1.419716 1.454077,1.419716 0.757291,0 1.454074,-0.609766 1.454074,-1.419716 0,-0.809949 -0.696783,-1.419713 -1.454074,-1.419713 z m -4.125407,2.69377 c 0.152163,0.278722 0.304901,0.557625 0.466826,0.838085 0.161927,0.280467 0.327171,0.552312 0.49247,0.823456 -0.555575,-0.04774 -1.093859,-0.106502 -1.611352,-0.177313 0.197426,-0.483567 0.415614,-0.979208 0.652056,-1.484228 z m 8.250813,0 c 0.236432,0.505011 0.454533,1.000673 0.651954,1.484231 -0.517456,0.0708 -1.055718,0.129573 -1.611254,0.177312 0.165276,-0.271109 0.330465,-0.542932 0.492371,-0.823354 0.161947,-0.280502 0.314741,-0.559427 0.466929,-0.838189 z m -9.325819,2.588287 c 0.885063,0.129216 1.820207,0.229219 2.803465,0.289412 0.543715,0.821356 1.097931,1.581218 1.652326,2.283042 -0.557261,0.658631 -1.105852,1.246406 -1.628484,1.733472 -0.795186,0.74107 -1.535631,1.264674 -2.124263,1.528104 -0.588632,0.263432 -0.958863,0.252845 -1.17488,0.128126 -0.216015,-0.124716 -0.410364,-0.440027 -0.476544,-1.081516 -0.06619,-0.641489 0.01719,-1.544424 0.261363,-2.603609 0.160491,-0.696125 0.395269,-1.465143 0.687017,-2.277031 z m 10.40072,0 c 0.291735,0.811859 0.526534,1.580832 0.687019,2.276933 0.244191,1.059185 0.327441,1.962224 0.261261,2.60371 -0.06619,0.641486 -0.26053,0.9568 -0.476544,1.081516 -0.216015,0.124716 -0.586147,0.135205 -1.174781,-0.128228 -0.588633,-0.263433 -1.329075,-0.787036 -2.124261,-1.528106 -0.522603,-0.487038 -1.071153,-1.074785 -1.628384,-1.733371 0.554392,-0.701824 1.108512,-1.461686 1.652225,-2.283042 0.983255,-0.06019 1.918401,-0.160201 2.803465,-0.289412 z m -6.159506,0.347516 c 0.317425,0.0076 0.635383,0.01472 0.959198,0.01472 0.323813,0 0.64177,-0.0071 0.959198,-0.01472 -0.319119,0.457244 -0.639149,0.893979 -0.959198,1.306713 -0.320052,-0.412734 -0.640075,-0.849469 -0.959198,-1.306713 z" /></svg>
