<?xml version="1.0" encoding="UTF-8" standalone="no"?>
<!-- Created with Inkscape (http://www.inkscape.org/) -->

<svg
   width="500"
   height="500"
   viewBox="0 0 500 500"
   version="1.1"
   id="svg1"
   inkscape:version="1.3.2 (091e20ef0f, 2023-11-25, custom)"
   sodipodi:docname="spec.ts.svg"
   xml:space="preserve"
   xmlns:inkscape="http://www.inkscape.org/namespaces/inkscape"
   xmlns:sodipodi="http://sodipodi.sourceforge.net/DTD/sodipodi-0.dtd"
   xmlns="http://www.w3.org/2000/svg"
   xmlns:svg="http://www.w3.org/2000/svg"><sodipodi:namedview
     id="namedview1"
     pagecolor="#505050"
     bordercolor="#eeeeee"
     borderopacity="1"
     inkscape:showpageshadow="0"
     inkscape:pageopacity="0"
     inkscape:pagecheckerboard="0"
     inkscape:deskcolor="#505050"
     inkscape:document-units="px"
     inkscape:zoom="0.7730394"
     inkscape:cx="134.53389"
     inkscape:cy="280.06334"
     inkscape:window-width="1362"
     inkscape:window-height="744"
     inkscape:window-x="0"
     inkscape:window-y="20"
     inkscape:window-maximized="1"
     inkscape:current-layer="layer1"
     showguides="true"><sodipodi:guide
       position="250.02518,350.60736"
       orientation="-0.99997769,0.0066803918"
       id="guide30"
       inkscape:locked="false" /><sodipodi:guide
       position="66.396728,247.89992"
       orientation="0,-1"
       id="guide53"
       inkscape:locked="false" /><sodipodi:guide
       position="221.35979,127.71308"
       orientation="0,-1"
       id="guide5"
       inkscape:locked="false" /><sodipodi:guide
       position="96.959247,117.65127"
       orientation="1,0"
       id="guide6"
       inkscape:locked="false" /><sodipodi:guide
       position="400.64293,118.56598"
       orientation="1,0"
       id="guide7"
       inkscape:locked="false" /></sodipodi:namedview><defs
     id="defs1"><linearGradient
       id="swatch61"
       inkscape:swatch="solid"><stop
         style="stop-color:#5090d0;stop-opacity:1;"
         offset="0"
         id="stop61" /></linearGradient><linearGradient
       id="swatch30"
       inkscape:swatch="solid"><stop
         style="stop-color:#f9f9f9;stop-opacity:1;"
         offset="0"
         id="stop30" /></linearGradient><inkscape:perspective
       sodipodi:type="inkscape:persp3d"
       inkscape:vp_x="44.06818 : 315.96746 : 1"
       inkscape:vp_y="0 : 1000 : 0"
       inkscape:vp_z="480.74134 : 298.68846 : 1"
       inkscape:persp3d-origin="250 : 166.66667 : 1"
       id="perspective17" /><inkscape:perspective
       sodipodi:type="inkscape:persp3d"
       inkscape:vp_x="44.06818 : 315.96746 : 1"
       inkscape:vp_y="0 : 1000 : 0"
       inkscape:vp_z="480.74134 : 298.68846 : 1"
       inkscape:persp3d-origin="250 : 166.66667 : 1"
       id="perspective17-2" /><inkscape:perspective
       sodipodi:type="inkscape:persp3d"
       inkscape:vp_x="44.06818 : 315.96746 : 1"
       inkscape:vp_y="0 : 1000 : 0"
       inkscape:vp_z="480.74134 : 298.68846 : 1"
       inkscape:persp3d-origin="250 : 166.66667 : 1"
       id="perspective17-0" /></defs><g
     inkscape:label="Layer 1"
     inkscape:groupmode="layer"
     id="layer1"><path
       id="path1"
       style="opacity:1;fill:#3178c6;stroke-width:33.2;stroke-linejoin:bevel;paint-order:markers fill stroke;fill-opacity:1"
       d="M 187.34766 18.539062 C 179.12913 18.539062 172.51172 25.156484 172.51172 33.375 L 172.51172 61.216797 C 172.51172 69.435313 179.12913 76.052734 187.34766 76.052734 L 191.16406 76.052734 L 109.17773 240.02539 A 218.62701 140.39372 0 0 0 30.035156 347.80859 A 218.62701 140.39372 0 0 0 248.66211 488.20312 A 218.62701 140.39372 0 0 0 467.28906 347.80859 A 218.62701 140.39372 0 0 0 397.13281 244.79688 L 312.75977 76.052734 L 314.5332 76.052734 C 322.75172 76.052734 329.36914 69.435313 329.36914 61.216797 L 329.36914 33.375 C 329.36914 25.156484 322.75172 18.539063 314.5332 18.539062 L 187.34766 18.539062 z M 213.79883 76.052734 L 287.76562 76.052734 L 376.75781 270.96484 C 415.33203 291.86107 437.26906 321.23368 437.28516 352.00391 C 437.28576 413.00162 352.83622 462.4492 248.66211 462.44922 C 144.488 462.44921 60.038461 413.00162 60.039062 352.00391 C 60.168795 319.20565 85.187309 288.13626 128.32031 267.21094 L 213.79883 76.052734 z M 244.93164 100.83203 A 30.610434 31.245031 0 0 0 214.32031 132.07812 A 30.610434 31.245031 0 0 0 244.93164 163.32227 A 30.610434 31.245031 0 0 0 275.54102 132.07812 A 30.610434 31.245031 0 0 0 244.93164 100.83203 z M 289.92188 203.47461 A 35.638016 33.588135 0 0 0 254.2832 237.0625 A 35.638016 33.588135 0 0 0 289.92188 270.65039 A 35.638016 33.588135 0 0 0 325.55859 237.0625 A 35.638016 33.588135 0 0 0 289.92188 203.47461 z M 181.54102 263.97266 A 26.406879 26.57983 0 0 0 155.13281 290.55273 A 26.406879 26.57983 0 0 0 181.54102 317.13281 A 26.406879 26.57983 0 0 0 207.94727 290.55273 A 26.406879 26.57983 0 0 0 181.54102 263.97266 z M 81.910156 360.83789 C 91.544998 408.38034 162.50497 445.30273 248.66211 445.30273 C 334.81925 445.30272 405.77922 408.38034 415.41406 360.83789 L 81.910156 360.83789 z " /></g></svg>
