<?xml version="1.0" encoding="UTF-8" standalone="no"?>
<!-- Created with Inkscape (http://www.inkscape.org/) -->

<svg
   width="500"
   height="500"
   viewBox="0 0 500 500"
   version="1.1"
   id="svg1"
   inkscape:version="1.3.2 (091e20ef0f, 2023-11-25, custom)"
   sodipodi:docname="store.js.svg"
   xml:space="preserve"
   xmlns:inkscape="http://www.inkscape.org/namespaces/inkscape"
   xmlns:sodipodi="http://sodipodi.sourceforge.net/DTD/sodipodi-0.dtd"
   xmlns:xlink="http://www.w3.org/1999/xlink"
   xmlns="http://www.w3.org/2000/svg"
   xmlns:svg="http://www.w3.org/2000/svg"><sodipodi:namedview
     id="namedview1"
     pagecolor="#505050"
     bordercolor="#eeeeee"
     borderopacity="1"
     inkscape:showpageshadow="0"
     inkscape:pageopacity="0"
     inkscape:pagecheckerboard="0"
     inkscape:deskcolor="#505050"
     inkscape:document-units="px"
     inkscape:zoom="0.96390292"
     inkscape:cx="255.73115"
     inkscape:cy="265.06819"
     inkscape:window-width="1352"
     inkscape:window-height="734"
     inkscape:window-x="4"
     inkscape:window-y="24"
     inkscape:window-maximized="1"
     inkscape:current-layer="layer1"
     showguides="true"
     showgrid="false"><sodipodi:guide
       position="248.38276,380.03529"
       orientation="-0.99997769,0.0066803918"
       id="guide30"
       inkscape:locked="false" /><sodipodi:guide
       position="66.396728,247.89992"
       orientation="0,-1"
       id="guide53"
       inkscape:locked="false" /></sodipodi:namedview><defs
     id="defs1"><linearGradient
       id="swatch61"
       inkscape:swatch="solid"><stop
         style="stop-color:#5090d0;stop-opacity:1;"
         offset="0"
         id="stop61" /></linearGradient><linearGradient
       id="swatch30"
       inkscape:swatch="solid"><stop
         style="stop-color:#f9f9f9;stop-opacity:1;"
         offset="0"
         id="stop30" /></linearGradient><inkscape:perspective
       sodipodi:type="inkscape:persp3d"
       inkscape:vp_x="44.06818 : 315.96746 : 1"
       inkscape:vp_y="0 : 1000 : 0"
       inkscape:vp_z="480.74134 : 298.68846 : 1"
       inkscape:persp3d-origin="250 : 166.66667 : 1"
       id="perspective17" /><inkscape:perspective
       sodipodi:type="inkscape:persp3d"
       inkscape:vp_x="44.06818 : 315.96746 : 1"
       inkscape:vp_y="0 : 1000 : 0"
       inkscape:vp_z="480.74134 : 298.68846 : 1"
       inkscape:persp3d-origin="250 : 166.66667 : 1"
       id="perspective17-9" /><inkscape:perspective
       sodipodi:type="inkscape:persp3d"
       inkscape:vp_x="44.06818 : 315.96746 : 1"
       inkscape:vp_y="0 : 1000 : 0"
       inkscape:vp_z="480.74134 : 298.68846 : 1"
       inkscape:persp3d-origin="250 : 166.66667 : 1"
       id="perspective17-0" /><inkscape:perspective
       sodipodi:type="inkscape:persp3d"
       inkscape:vp_x="44.06818 : 315.96746 : 1"
       inkscape:vp_y="0 : 1000 : 0"
       inkscape:vp_z="480.74134 : 298.68846 : 1"
       inkscape:persp3d-origin="250 : 166.66667 : 1"
       id="perspective17-2" /><inkscape:perspective
       sodipodi:type="inkscape:persp3d"
       inkscape:vp_x="44.06818 : 315.96746 : 1"
       inkscape:vp_y="0 : 1000 : 0"
       inkscape:vp_z="480.74134 : 298.68846 : 1"
       inkscape:persp3d-origin="250 : 166.66667 : 1"
       id="perspective17-29" /><inkscape:perspective
       sodipodi:type="inkscape:persp3d"
       inkscape:vp_x="44.06818 : 315.96746 : 1"
       inkscape:vp_y="0 : 1000 : 0"
       inkscape:vp_z="480.74134 : 298.68846 : 1"
       inkscape:persp3d-origin="250 : 166.66667 : 1"
       id="perspective17-4" /><inkscape:perspective
       sodipodi:type="inkscape:persp3d"
       inkscape:vp_x="44.06818 : 315.96746 : 1"
       inkscape:vp_y="0 : 1000 : 0"
       inkscape:vp_z="480.74134 : 298.68846 : 1"
       inkscape:persp3d-origin="250 : 166.66667 : 1"
       id="perspective17-1" /><inkscape:perspective
       sodipodi:type="inkscape:persp3d"
       inkscape:vp_x="44.06818 : 315.96746 : 1"
       inkscape:vp_y="0 : 1000 : 0"
       inkscape:vp_z="480.74134 : 298.68846 : 1"
       inkscape:persp3d-origin="250 : 166.66667 : 1"
       id="perspective17-3" /><inkscape:perspective
       sodipodi:type="inkscape:persp3d"
       inkscape:vp_x="44.06818 : 315.96746 : 1"
       inkscape:vp_y="0 : 1000 : 0"
       inkscape:vp_z="480.74134 : 298.68846 : 1"
       inkscape:persp3d-origin="250 : 166.66667 : 1"
       id="perspective17-26" /><inkscape:perspective
       sodipodi:type="inkscape:persp3d"
       inkscape:vp_x="44.06818 : 315.96746 : 1"
       inkscape:vp_y="0 : 1000 : 0"
       inkscape:vp_z="480.74134 : 298.68846 : 1"
       inkscape:persp3d-origin="250 : 166.66667 : 1"
       id="perspective17-2-18" /><inkscape:perspective
       sodipodi:type="inkscape:persp3d"
       inkscape:vp_x="44.06818 : 315.96746 : 1"
       inkscape:vp_y="0 : 1000 : 0"
       inkscape:vp_z="480.74134 : 298.68846 : 1"
       inkscape:persp3d-origin="250 : 166.66667 : 1"
       id="perspective17-7" /><inkscape:perspective
       sodipodi:type="inkscape:persp3d"
       inkscape:vp_x="44.06818 : 315.96746 : 1"
       inkscape:vp_y="0 : 1000 : 0"
       inkscape:vp_z="480.74134 : 298.68846 : 1"
       inkscape:persp3d-origin="250 : 166.66667 : 1"
       id="perspective17-3-7" /><inkscape:perspective
       sodipodi:type="inkscape:persp3d"
       inkscape:vp_x="44.06818 : 315.96746 : 1"
       inkscape:vp_y="0 : 1000 : 0"
       inkscape:vp_z="480.74134 : 298.68846 : 1"
       inkscape:persp3d-origin="250 : 166.66667 : 1"
       id="perspective17-2-6" /><inkscape:perspective
       sodipodi:type="inkscape:persp3d"
       inkscape:vp_x="44.06818 : 315.96746 : 1"
       inkscape:vp_y="0 : 1000 : 0"
       inkscape:vp_z="480.74134 : 298.68846 : 1"
       inkscape:persp3d-origin="250 : 166.66667 : 1"
       id="perspective17-5" /><inkscape:perspective
       sodipodi:type="inkscape:persp3d"
       inkscape:vp_x="44.06818 : 315.96746 : 1"
       inkscape:vp_y="0 : 1000 : 0"
       inkscape:vp_z="480.74134 : 298.68846 : 1"
       inkscape:persp3d-origin="250 : 166.66667 : 1"
       id="perspective17-2-5" /><inkscape:perspective
       sodipodi:type="inkscape:persp3d"
       inkscape:vp_x="44.06818 : 315.96746 : 1"
       inkscape:vp_y="0 : 1000 : 0"
       inkscape:vp_z="480.74134 : 298.68846 : 1"
       inkscape:persp3d-origin="250 : 166.66667 : 1"
       id="perspective17-29-9" /><inkscape:perspective
       sodipodi:type="inkscape:persp3d"
       inkscape:vp_x="44.06818 : 315.96746 : 1"
       inkscape:vp_y="0 : 1000 : 0"
       inkscape:vp_z="480.74134 : 298.68846 : 1"
       inkscape:persp3d-origin="250 : 166.66667 : 1"
       id="perspective17-2-1" /><linearGradient
       id="linearGradient4"
       x1="-683.873"
       y1="-565.884"
       x2="-664.125"
       y2="-585.635"
       gradientTransform="matrix(0.999, 0, 0, -0.999, 688.969, -558.754)"
       gradientUnits="userSpaceOnUse"><stop
         offset="0"
         id="stop3"
         style="stop-color:#df6c00;stop-opacity:1;" /><stop
         offset="1"
         stop-color="#ffffff"
         id="stop4"
         style="stop-color:#959595;stop-opacity:1;" /></linearGradient><inkscape:perspective
       sodipodi:type="inkscape:persp3d"
       inkscape:vp_x="44.06818 : 315.96746 : 1"
       inkscape:vp_y="0 : 1000 : 0"
       inkscape:vp_z="480.74134 : 298.68846 : 1"
       inkscape:persp3d-origin="250 : 166.66667 : 1"
       id="perspective17-6" /><linearGradient
       id="a"
       x1="-683.873"
       y1="-565.884"
       x2="-664.125"
       y2="-585.635"
       gradientTransform="matrix(0.999, 0, 0, -0.999, 688.969, -558.754)"
       gradientUnits="userSpaceOnUse"><stop
         offset="0"
         id="stop1" /><stop
         offset="1"
         stop-color="#ffffff"
         id="stop2" /></linearGradient><linearGradient
       id="b"
       x1="-663.231"
       y1="-584.741"
       x2="-682.979"
       y2="-564.99"
       xlink:href="#linearGradient4" /><inkscape:perspective
       sodipodi:type="inkscape:persp3d"
       inkscape:vp_x="44.06818 : 315.96746 : 1"
       inkscape:vp_y="0 : 1000 : 0"
       inkscape:vp_z="480.74134 : 298.68846 : 1"
       inkscape:persp3d-origin="250 : 166.66667 : 1"
       id="perspective17-291" /><inkscape:perspective
       sodipodi:type="inkscape:persp3d"
       inkscape:vp_x="44.06818 : 315.96746 : 1"
       inkscape:vp_y="0 : 1000 : 0"
       inkscape:vp_z="480.74134 : 298.68846 : 1"
       inkscape:persp3d-origin="250 : 166.66667 : 1"
       id="perspective17-62" /><inkscape:perspective
       sodipodi:type="inkscape:persp3d"
       inkscape:vp_x="44.06818 : 315.96746 : 1"
       inkscape:vp_y="0 : 1000 : 0"
       inkscape:vp_z="480.74134 : 298.68846 : 1"
       inkscape:persp3d-origin="250 : 166.66667 : 1"
       id="perspective17-22" /></defs><g
     inkscape:label="Layer 1"
     inkscape:groupmode="layer"
     id="layer1"><path
       d="m 284.92666,468.38234 c 30.20401,0 47.35374,-19.19747 47.35374,-53.7529 V 288.18215 h -21.24519 v 128.75099 c 0,20.98922 -9.47075,32.76367 -26.62048,32.76367 -7.67899,0 -17.91763,-2.3037 -25.08469,-5.88722 l -6.14319,15.8699 c 10.23865,6.14319 20.98923,8.70285 31.73981,8.70285 z m 126.44747,0 c 30.45998,0 49.14551,-14.33411 49.14551,-37.1151 0,-45.30601 -73.71826,-28.41224 -73.71826,-56.31256 0,-10.75058 11.51848,-17.66166 29.94804,-17.66166 10.49462,0 22.78099,2.30369 33.2756,5.88722 l 4.86336,-16.6378 c -10.49461,-4.35143 -23.03695,-6.65512 -36.09123,-6.65512 -31.99577,0 -52.47306,14.07814 -52.47306,37.37106 0,44.28215 73.46229,25.85258 73.46229,56.05659 0,11.26251 -9.98268,17.66167 -26.87645,17.66167 -13.05428,0 -30.45998,-3.58353 -43.51425,-9.21478 l -4.86336,16.6378 c 14.07814,6.39915 31.22788,9.98268 46.84181,9.98268 z"
       id="text1"
       style="font-size:240px;font-family:System-ui;-inkscape-font-specification:System-ui;display:none;fill:none;fill-opacity:0.313725;stroke:#ffc340;stroke-width:25.0943;stroke-linejoin:round;stroke-opacity:1;paint-order:markers fill stroke"
       aria-label="Js"
       transform="translate(-6.1160809,8.5499398)" /><path
       id="rect2"
       style="opacity:1;fill:#ffc340;fill-opacity:1;stroke:none;stroke-width:11.8228;stroke-linejoin:round;stroke-miterlimit:10;stroke-opacity:1"
       d="m 10.561814,54.43179 c -0.04749,0.676931 -0.102539,1.352523 -0.102539,2.041946 V 175.28304 c 0,15.84667 12.757743,28.60441 28.604399,28.60441 h 23.13072 c 13.998192,0 25.56887,-9.95866 28.081709,-23.20399 2.51288,13.24533 14.085927,23.20399 28.084127,23.20399 h 23.12827 c 13.99821,0 25.56887,-9.95866 28.08171,-23.20399 2.51287,13.24533 14.08596,23.20399 28.08415,23.20399 h 23.12825 c 13.99821,0 25.5713,-9.95866 28.08416,-23.20399 2.51288,13.24533 14.08351,23.20399 28.08172,23.20399 h 23.13069 c 13.99819,0 25.56887,-9.95866 28.08171,-23.20399 2.51289,13.24533 14.08595,23.20399 28.08416,23.20399 h 23.12826 c 13.99818,0 25.57128,-9.95866 28.08415,-23.20399 2.51287,13.24533 14.08349,23.20399 28.0817,23.20399 h 23.12827 c 15.84668,0 28.60442,-12.75774 28.60442,-28.60441 V 56.473736 c 0,-0.689413 -0.055,-1.365028 -0.1026,-2.041946 z m 79.714249,154.90738 c -7.666072,6.32871 -17.465595,10.14379 -28.081716,10.14379 H 39.063628 c -1.119548,0 -2.219476,-0.0872 -3.319381,-0.17097 v 213.12983 c 0,9.69181 7.803985,17.49337 17.495795,17.49335 H 66.588446 V 332.71353 c 0,-25.91975 21.45548,-47.37276 47.375184,-47.37276 h 76.17015 c 25.91973,0 47.37276,21.45301 47.37276,47.37276 V 449.93517 H 440.92 c 9.69183,0 17.49338,-7.80154 17.49338,-17.49335 V 219.48296 h -22.87425 c -10.61612,0 -20.41558,-3.81508 -28.08171,-10.14379 -7.66607,6.32871 -17.46803,10.14379 -28.08415,10.14379 h -23.12828 c -10.6161,0 -20.41799,-3.81508 -28.08414,-10.14379 -7.66607,6.32871 -17.4656,10.14379 -28.0817,10.14379 h -23.13071 c -10.61611,0 -20.4156,-3.81508 -28.08171,-10.14379 -7.66606,6.32871 -17.46805,10.14379 -28.08415,10.14379 h -23.12826 c -10.61611,0 -20.41804,-3.81508 -28.08415,-10.14379 -7.66606,6.32871 -17.4656,10.14379 -28.08171,10.14379 h -23.12828 c -10.6161,0 -20.417998,-3.81508 -28.084117,-10.14379 z m 211.212417,51.80839 h 100.67843 c 15.84668,0 28.60441,12.76019 28.60441,28.60685 v 64.52417 c 0,15.84669 -12.75773,28.60442 -28.60441,28.60442 H 301.48848 c -15.84667,0 -28.60686,-12.75773 -28.60686,-28.60442 v -64.52417 c 0,-15.84666 12.76019,-28.60685 28.60686,-28.60685 z m -187.52485,42.96156 c -15.846657,0 -28.606829,12.75772 -28.606829,28.60441 V 450.58977 H 218.73818 V 332.71353 c 0,-15.84669 -12.75773,-28.60441 -28.6044,-28.60441 z" /></g></svg>
