<?xml version="1.0" encoding="UTF-8" standalone="no"?>
<!-- Created with Inkscape (http://www.inkscape.org/) -->

<svg
   width="500"
   height="500"
   viewBox="0 0 500 500"
   version="1.1"
   id="svg1"
   inkscape:version="1.3.2 (091e20ef0f, 2023-11-25, custom)"
   sodipodi:docname="svelte.config.js.svg"
   xml:space="preserve"
   xmlns:inkscape="http://www.inkscape.org/namespaces/inkscape"
   xmlns:sodipodi="http://sodipodi.sourceforge.net/DTD/sodipodi-0.dtd"
   xmlns:xlink="http://www.w3.org/1999/xlink"
   xmlns="http://www.w3.org/2000/svg"
   xmlns:svg="http://www.w3.org/2000/svg"><sodipodi:namedview
     id="namedview1"
     pagecolor="#505050"
     bordercolor="#eeeeee"
     borderopacity="1"
     inkscape:showpageshadow="0"
     inkscape:pageopacity="0"
     inkscape:pagecheckerboard="0"
     inkscape:deskcolor="#505050"
     inkscape:document-units="px"
     inkscape:zoom="0.48195147"
     inkscape:cx="346.50792"
     inkscape:cy="243.80048"
     inkscape:window-width="1362"
     inkscape:window-height="744"
     inkscape:window-x="0"
     inkscape:window-y="20"
     inkscape:window-maximized="0"
     inkscape:current-layer="svg1"
     showguides="true"><sodipodi:guide
       position="250.02518,350.60736"
       orientation="-0.99997769,0.0066803918"
       id="guide30"
       inkscape:locked="false" /><sodipodi:guide
       position="66.396728,247.89992"
       orientation="0,-1"
       id="guide53"
       inkscape:locked="false" /></sodipodi:namedview><defs
     id="defs1"><linearGradient
       id="linearGradient6"
       inkscape:collect="always"><stop
         style="stop-color:#ff1b56;stop-opacity:1;"
         offset="0"
         id="stop6" /><stop
         style="stop-color:#ffaa00;stop-opacity:1;"
         offset="1"
         id="stop5" /></linearGradient><linearGradient
       id="linearGradient1"
       inkscape:collect="always"><stop
         style="stop-color:#ffaa00;stop-opacity:1;"
         offset="0"
         id="stop1" /><stop
         style="stop-color:#ff1b56;stop-opacity:1;"
         offset="1"
         id="stop2" /></linearGradient><linearGradient
       id="swatch61"
       inkscape:swatch="solid"><stop
         style="stop-color:#5090d0;stop-opacity:1;"
         offset="0"
         id="stop61" /></linearGradient><linearGradient
       id="swatch30"
       inkscape:swatch="solid"><stop
         style="stop-color:#f9f9f9;stop-opacity:1;"
         offset="0"
         id="stop30" /></linearGradient><inkscape:perspective
       sodipodi:type="inkscape:persp3d"
       inkscape:vp_x="44.06818 : 315.96746 : 1"
       inkscape:vp_y="0 : 1000 : 0"
       inkscape:vp_z="480.74134 : 298.68846 : 1"
       inkscape:persp3d-origin="250 : 166.66667 : 1"
       id="perspective17" /><inkscape:perspective
       sodipodi:type="inkscape:persp3d"
       inkscape:vp_x="44.06818 : 315.96746 : 1"
       inkscape:vp_y="0 : 1000 : 0"
       inkscape:vp_z="480.74134 : 298.68846 : 1"
       inkscape:persp3d-origin="250 : 166.66667 : 1"
       id="perspective17-4" /><linearGradient
       inkscape:collect="always"
       xlink:href="#linearGradient1"
       id="linearGradient2"
       x1="8.7740755"
       y1="4.3723431"
       x2="21.219891"
       y2="28.774965"
       gradientUnits="userSpaceOnUse" /><linearGradient
       id="linearGradient4"
       x1="-683.873"
       y1="-565.884"
       x2="-664.125"
       y2="-585.635"
       gradientTransform="matrix(0.999, 0, 0, -0.999, 688.969, -558.754)"
       gradientUnits="userSpaceOnUse"><stop
         offset="0"
         id="stop3"
         style="stop-color:#df6c00;stop-opacity:1;" /><stop
         offset="1"
         stop-color="#ffffff"
         id="stop4"
         style="stop-color:#959595;stop-opacity:1;" /></linearGradient><inkscape:perspective
       sodipodi:type="inkscape:persp3d"
       inkscape:vp_x="44.06818 : 315.96746 : 1"
       inkscape:vp_y="0 : 1000 : 0"
       inkscape:vp_z="480.74134 : 298.68846 : 1"
       inkscape:persp3d-origin="250 : 166.66667 : 1"
       id="perspective17-1" /><linearGradient
       id="a"
       x1="-683.873"
       y1="-565.884"
       x2="-664.125"
       y2="-585.635"
       gradientTransform="matrix(0.999, 0, 0, -0.999, 688.969, -558.754)"
       gradientUnits="userSpaceOnUse"><stop
         offset="0"
         id="stop1-2" /><stop
         offset="1"
         stop-color="#ffffff"
         id="stop2-7" /></linearGradient><linearGradient
       id="b"
       x1="-663.231"
       y1="-584.741"
       x2="-682.979"
       y2="-564.99"
       xlink:href="#linearGradient4" /><inkscape:perspective
       sodipodi:type="inkscape:persp3d"
       inkscape:vp_x="44.06818 : 315.96746 : 1"
       inkscape:vp_y="0 : 1000 : 0"
       inkscape:vp_z="480.74134 : 298.68846 : 1"
       inkscape:persp3d-origin="250 : 166.66667 : 1"
       id="perspective17-0" /><inkscape:perspective
       sodipodi:type="inkscape:persp3d"
       inkscape:vp_x="44.06818 : 315.96746 : 1"
       inkscape:vp_y="0 : 1000 : 0"
       inkscape:vp_z="480.74134 : 298.68846 : 1"
       inkscape:persp3d-origin="250 : 166.66667 : 1"
       id="perspective17-8" /><linearGradient
       inkscape:collect="always"
       xlink:href="#linearGradient6"
       id="linearGradient22"
       x1="489.9733"
       y1="433.98581"
       x2="209.0641"
       y2="309.83896"
       gradientUnits="userSpaceOnUse"
       gradientTransform="translate(0.90894162,-10.652876)" /></defs><g
     id="g1"
     transform="matrix(17.313422,0,0,17.313422,-24.667516,-25.881439)"><path
       id="path1-3"
       style="fill:url(#linearGradient2);stroke-width:0.99997563;stroke-dasharray:none"
       d="M 18.858514 2.0191047 A 8.973 8.973 0 0 0 14.67699 3.2460249 L 7.9599516 7.400023 A 7.461 7.461 0 0 0 4.4789772 12.409007 A 7.686 7.686 0 0 0 5.2790248 17.466951 A 7.358 7.358 0 0 0 4.1280257 20.267005 A 7.789 7.789 0 0 0 5.5279962 26.295 A 8.977 8.977 0 0 0 15.743269 29.463943 L 12.380632 26.101419 L 13.634288 24.847763 L 11.861256 24.847763 L 11.861256 18.204502 L 13.634176 18.204502 L 12.380519 16.950846 L 17.078035 12.253442 L 18.331804 13.507211 L 18.331804 13.181529 L 18.331804 11.734066 L 24.975065 11.734066 L 24.975065 13.506986 L 26.228609 12.253442 L 27.348134 13.372855 A 7.348 7.348 0 0 0 27.873038 11.728989 A 7.785 7.785 0 0 0 26.470022 5.6999781 A 8.973 8.973 0 0 0 18.858514 2.0191047 z " /><path
       id="path2-6"
       style="fill:#ffffff"
       d="M 19.035061 5.1916568 A 5.413 5.413 0 0 0 17.972054 5.3550055 A 4.932 4.932 0 0 0 16.607957 5.9359764 L 9.9000558 10.089974 A 4.507 4.507 0 0 0 7.8110425 13.099968 A 4.678 4.678 0 0 0 8.6420001 16.728046 A 5.415 5.415 0 0 0 11.861256 18.80747 L 11.861256 18.204502 L 13.634176 18.204502 L 12.380519 16.950846 L 14.387971 14.943394 L 13.692047 15.373989 A 1.538 1.538 0 0 1 13.27905 15.548957 A 1.634 1.634 0 0 1 11.552946 14.928052 A 1.394 1.394 0 0 1 11.309051 13.836052 A 1.353 1.353 0 0 1 11.939997 12.928045 L 18.661999 8.7880357 A 1.484 1.484 0 0 1 19.072965 8.6120523 A 1.629 1.629 0 0 1 20.798054 9.2339731 A 1.438 1.438 0 0 1 21.070039 10.201995 L 21.044995 10.439008 L 21.290018 10.513012 A 8.713 8.713 0 0 1 23.834332 11.734066 L 24.360251 11.734066 L 24.389018 11.649007 A 4.272 4.272 0 0 0 24.547967 11.039044 A 4.679 4.679 0 0 0 23.699975 7.4140114 A 5.413 5.413 0 0 0 19.035061 5.1916568 z M 18.331804 13.098614 A 5.417 5.417 0 0 0 17.977469 13.152875 L 18.331804 13.507211 L 18.331804 13.181529 L 18.331804 13.098614 z M 7.7380545 19.970992 L 7.6110306 20.345972 A 4.307 4.307 0 0 0 7.4519687 20.956047 A 4.678 4.678 0 0 0 8.2999605 24.580967 A 5.413 5.413 0 0 0 13.065388 26.786175 L 12.380632 26.101419 L 13.634288 24.847763 L 11.861256 24.847763 L 11.861256 23.289858 A 1.63 1.63 0 0 1 11.200979 22.761005 A 1.441 1.441 0 0 1 10.93001 21.792984 L 10.955054 21.55597 L 10.710031 21.482982 A 8.76 8.76 0 0 1 8.0820118 20.20902 L 7.7380545 19.970992 z " /></g><path
     id="path7"
     style="color:#000000;display:inline;fill:url(#linearGradient22);stroke-width:0.919726;stroke-linejoin:round;-inkscape-stroke:none;paint-order:markers fill stroke"
     d="m 317.77914,202.33563 v 43.48575 c -5.56237,1.75679 -10.91967,3.9855 -16.05387,6.59974 l -30.71377,-30.71377 -45.88925,45.88924 30.40124,30.4012 c -2.74844,5.21967 -5.07549,10.6871 -6.93029,16.36284 h -42.84086 v 64.89808 h 42.79236 c 1.85159,5.69328 4.18177,11.17571 6.93206,16.41133 l -30.35271,30.35272 45.88924,45.88923 30.62035,-30.62036 c 5.16217,2.63491 10.54978,4.88087 16.1455,6.64824 v 43.34023 h 64.89805 v -43.96356 c 5.37445,-1.8071 10.56173,-4.03079 15.52217,-6.64285 l 31.2365,31.23651 45.88924,-45.88923 -31.55087,-31.55087 c 2.48117,-4.87276 4.60329,-9.95104 6.31413,-15.21139 h 44.60844 v -64.89808 h -44.65694 c -1.71348,-5.24307 -3.83321,-10.30592 -6.31234,-15.16289 l 31.60117,-31.60115 -45.88923,-45.88924 -31.33351,31.33352 c -4.93246,-2.59107 -10.08769,-4.80033 -15.42876,-6.59616 v -44.10908 z m 31.53648,95.31727 a 53.109151,49.228277 0 0 1 53.10871,49.22683 53.109151,49.228277 0 0 1 -53.10871,49.22863 53.109151,49.228277 0 0 1 -53.10871,-49.22863 53.109151,49.228277 0 0 1 53.10871,-49.22683 z" /></svg>
