<?xml version="1.0" encoding="UTF-8" standalone="no"?>
<!-- Created with Inkscape (http://www.inkscape.org/) -->

<svg
   width="500"
   height="500"
   viewBox="0 0 500 500"
   version="1.1"
   id="svg1"
   inkscape:version="1.3.2 (091e20ef0f, 2023-11-25, custom)"
   sodipodi:docname="svelte.svg"
   xml:space="preserve"
   xmlns:inkscape="http://www.inkscape.org/namespaces/inkscape"
   xmlns:sodipodi="http://sodipodi.sourceforge.net/DTD/sodipodi-0.dtd"
   xmlns:xlink="http://www.w3.org/1999/xlink"
   xmlns="http://www.w3.org/2000/svg"
   xmlns:svg="http://www.w3.org/2000/svg"><sodipodi:namedview
     id="namedview1"
     pagecolor="#505050"
     bordercolor="#eeeeee"
     borderopacity="1"
     inkscape:showpageshadow="0"
     inkscape:pageopacity="0"
     inkscape:pagecheckerboard="0"
     inkscape:deskcolor="#505050"
     inkscape:document-units="px"
     inkscape:zoom="0.6815823"
     inkscape:cx="301.50431"
     inkscape:cy="256.02191"
     inkscape:window-width="1362"
     inkscape:window-height="744"
     inkscape:window-x="0"
     inkscape:window-y="20"
     inkscape:window-maximized="0"
     inkscape:current-layer="svg1"
     showguides="true"><sodipodi:guide
       position="250.02518,350.60736"
       orientation="-0.99997769,0.0066803918"
       id="guide30"
       inkscape:locked="false" /><sodipodi:guide
       position="66.396728,247.89992"
       orientation="0,-1"
       id="guide53"
       inkscape:locked="false" /></sodipodi:namedview><defs
     id="defs1"><linearGradient
       id="linearGradient1"
       inkscape:collect="always"><stop
         style="stop-color:#ffaa00;stop-opacity:1;"
         offset="0"
         id="stop1" /><stop
         style="stop-color:#ff1b56;stop-opacity:1;"
         offset="1"
         id="stop2" /></linearGradient><linearGradient
       id="swatch61"
       inkscape:swatch="solid"><stop
         style="stop-color:#5090d0;stop-opacity:1;"
         offset="0"
         id="stop61" /></linearGradient><linearGradient
       id="swatch30"
       inkscape:swatch="solid"><stop
         style="stop-color:#f9f9f9;stop-opacity:1;"
         offset="0"
         id="stop30" /></linearGradient><inkscape:perspective
       sodipodi:type="inkscape:persp3d"
       inkscape:vp_x="44.06818 : 315.96746 : 1"
       inkscape:vp_y="0 : 1000 : 0"
       inkscape:vp_z="480.74134 : 298.68846 : 1"
       inkscape:persp3d-origin="250 : 166.66667 : 1"
       id="perspective17" /><inkscape:perspective
       sodipodi:type="inkscape:persp3d"
       inkscape:vp_x="44.06818 : 315.96746 : 1"
       inkscape:vp_y="0 : 1000 : 0"
       inkscape:vp_z="480.74134 : 298.68846 : 1"
       inkscape:persp3d-origin="250 : 166.66667 : 1"
       id="perspective17-4" /><linearGradient
       inkscape:collect="always"
       xlink:href="#linearGradient1"
       id="linearGradient2"
       x1="8.7740755"
       y1="4.3723431"
       x2="21.219891"
       y2="28.774965"
       gradientUnits="userSpaceOnUse" /></defs><g
     id="g1"
     transform="matrix(17.313422,0,0,17.313422,-24.667516,-25.881439)"><path
       d="M 26.47,5.7 A 8.973,8.973 0 0 0 14.677,3.246 L 7.96,7.4 a 7.461,7.461 0 0 0 -3.481,5.009 7.686,7.686 0 0 0 0.8,5.058 7.358,7.358 0 0 0 -1.151,2.8 7.789,7.789 0 0 0 1.4,6.028 8.977,8.977 0 0 0 11.794,2.458 L 24.04,24.6 a 7.468,7.468 0 0 0 3.481,-5.009 7.673,7.673 0 0 0 -0.8,-5.062 7.348,7.348 0 0 0 1.152,-2.8 A 7.785,7.785 0 0 0 26.47,5.7"
       style="fill:url(#linearGradient2);stroke-width:0.99997563;stroke-dasharray:none"
       id="path1-3" /><path
       d="M 14.022,26.64 A 5.413,5.413 0 0 1 8.3,24.581 4.678,4.678 0 0 1 7.452,20.956 4.307,4.307 0 0 1 7.611,20.346 l 0.127,-0.375 0.344,0.238 a 8.76,8.76 0 0 0 2.628,1.274 l 0.245,0.073 -0.025,0.237 a 1.441,1.441 0 0 0 0.271,0.968 1.63,1.63 0 0 0 1.743,0.636 1.512,1.512 0 0 0 0.411,-0.175 l 6.7,-4.154 a 1.366,1.366 0 0 0 0.633,-0.909 1.407,1.407 0 0 0 -0.244,-1.091 1.634,1.634 0 0 0 -1.726,-0.622 1.509,1.509 0 0 0 -0.413,0.176 l -2.572,1.584 A 4.934,4.934 0 0 1 14.369,18.788 5.415,5.415 0 0 1 8.642,16.728 4.678,4.678 0 0 1 7.811,13.1 4.507,4.507 0 0 1 9.9,10.09 l 6.708,-4.154 a 4.932,4.932 0 0 1 1.364,-0.581 5.413,5.413 0 0 1 5.728,2.059 4.679,4.679 0 0 1 0.848,3.625 4.272,4.272 0 0 1 -0.159,0.61 l -0.127,0.375 -0.344,-0.237 A 8.713,8.713 0 0 0 21.29,10.513 L 21.045,10.439 21.07,10.202 A 1.438,1.438 0 0 0 20.798,9.234 1.629,1.629 0 0 0 19.073,8.612 1.484,1.484 0 0 0 18.662,8.788 l -6.722,4.14 a 1.353,1.353 0 0 0 -0.631,0.908 1.394,1.394 0 0 0 0.244,1.092 1.634,1.634 0 0 0 1.726,0.621 1.538,1.538 0 0 0 0.413,-0.175 l 2.562,-1.585 a 4.9,4.9 0 0 1 1.364,-0.581 5.417,5.417 0 0 1 5.728,2.059 4.681,4.681 0 0 1 0.843,3.625 4.5,4.5 0 0 1 -2.089,3.013 l -6.707,4.154 a 4.9,4.9 0 0 1 -1.364,0.581"
       style="fill:#ffffff"
       id="path2-6" /></g></svg>
