<?xml version="1.0" encoding="UTF-8" standalone="no"?>
<!-- Created with Inkscape (http://www.inkscape.org/) -->

<svg
   width="500"
   height="500"
   viewBox="0 0 500 500"
   version="1.1"
   id="svg1"
   inkscape:version="1.3.2 (091e20ef0f, 2023-11-25, custom)"
   sodipodi:docname="theme.ts.svg"
   xml:space="preserve"
   xmlns:inkscape="http://www.inkscape.org/namespaces/inkscape"
   xmlns:sodipodi="http://sodipodi.sourceforge.net/DTD/sodipodi-0.dtd"
   xmlns:xlink="http://www.w3.org/1999/xlink"
   xmlns="http://www.w3.org/2000/svg"
   xmlns:svg="http://www.w3.org/2000/svg"><sodipodi:namedview
     id="namedview1"
     pagecolor="#505050"
     bordercolor="#eeeeee"
     borderopacity="1"
     inkscape:showpageshadow="0"
     inkscape:pageopacity="0"
     inkscape:pagecheckerboard="0"
     inkscape:deskcolor="#505050"
     inkscape:document-units="px"
     inkscape:zoom="0.96390292"
     inkscape:cx="216.30809"
     inkscape:cy="268.18053"
     inkscape:window-width="1352"
     inkscape:window-height="734"
     inkscape:window-x="4"
     inkscape:window-y="24"
     inkscape:window-maximized="1"
     inkscape:current-layer="layer1"
     showguides="true"
     showgrid="false"><sodipodi:guide
       position="248.38276,380.03529"
       orientation="-0.99997769,0.0066803918"
       id="guide30"
       inkscape:locked="false" /><sodipodi:guide
       position="66.396728,247.89992"
       orientation="0,-1"
       id="guide53"
       inkscape:locked="false" /></sodipodi:namedview><defs
     id="defs1"><linearGradient
       id="swatch61"
       inkscape:swatch="solid"><stop
         style="stop-color:#5090d0;stop-opacity:1;"
         offset="0"
         id="stop61" /></linearGradient><linearGradient
       id="swatch30"
       inkscape:swatch="solid"><stop
         style="stop-color:#f9f9f9;stop-opacity:1;"
         offset="0"
         id="stop30" /></linearGradient><inkscape:perspective
       sodipodi:type="inkscape:persp3d"
       inkscape:vp_x="44.06818 : 315.96746 : 1"
       inkscape:vp_y="0 : 1000 : 0"
       inkscape:vp_z="480.74134 : 298.68846 : 1"
       inkscape:persp3d-origin="250 : 166.66667 : 1"
       id="perspective17" /><inkscape:perspective
       sodipodi:type="inkscape:persp3d"
       inkscape:vp_x="44.06818 : 315.96746 : 1"
       inkscape:vp_y="0 : 1000 : 0"
       inkscape:vp_z="480.74134 : 298.68846 : 1"
       inkscape:persp3d-origin="250 : 166.66667 : 1"
       id="perspective17-9" /><inkscape:perspective
       sodipodi:type="inkscape:persp3d"
       inkscape:vp_x="44.06818 : 315.96746 : 1"
       inkscape:vp_y="0 : 1000 : 0"
       inkscape:vp_z="480.74134 : 298.68846 : 1"
       inkscape:persp3d-origin="250 : 166.66667 : 1"
       id="perspective17-0" /><inkscape:perspective
       sodipodi:type="inkscape:persp3d"
       inkscape:vp_x="44.06818 : 315.96746 : 1"
       inkscape:vp_y="0 : 1000 : 0"
       inkscape:vp_z="480.74134 : 298.68846 : 1"
       inkscape:persp3d-origin="250 : 166.66667 : 1"
       id="perspective17-2" /><linearGradient
       id="linearGradient5"
       inkscape:collect="always"><stop
         style="stop-color:#3178c6;stop-opacity:1;"
         offset="0"
         id="stop5" /><stop
         style="stop-color:#b031c6;stop-opacity:1;"
         offset="0.4714545"
         id="stop7" /><stop
         style="stop-color:#ff5f96;stop-opacity:1;"
         offset="1"
         id="stop6" /></linearGradient><inkscape:perspective
       sodipodi:type="inkscape:persp3d"
       inkscape:vp_x="44.06818 : 315.96746 : 1"
       inkscape:vp_y="0 : 1000 : 0"
       inkscape:vp_z="480.74134 : 298.68846 : 1"
       inkscape:persp3d-origin="250 : 166.66667 : 1"
       id="perspective17-29" /><inkscape:perspective
       sodipodi:type="inkscape:persp3d"
       inkscape:vp_x="44.06818 : 315.96746 : 1"
       inkscape:vp_y="0 : 1000 : 0"
       inkscape:vp_z="480.74134 : 298.68846 : 1"
       inkscape:persp3d-origin="250 : 166.66667 : 1"
       id="perspective17-4" /><inkscape:perspective
       sodipodi:type="inkscape:persp3d"
       inkscape:vp_x="44.06818 : 315.96746 : 1"
       inkscape:vp_y="0 : 1000 : 0"
       inkscape:vp_z="480.74134 : 298.68846 : 1"
       inkscape:persp3d-origin="250 : 166.66667 : 1"
       id="perspective17-1" /><inkscape:perspective
       sodipodi:type="inkscape:persp3d"
       inkscape:vp_x="44.06818 : 315.96746 : 1"
       inkscape:vp_y="0 : 1000 : 0"
       inkscape:vp_z="480.74134 : 298.68846 : 1"
       inkscape:persp3d-origin="250 : 166.66667 : 1"
       id="perspective17-3" /><linearGradient
       inkscape:collect="always"
       xlink:href="#linearGradient5"
       id="linearGradient6"
       x1="16.455326"
       y1="15.579727"
       x2="-6.1990542"
       y2="-5.7236266"
       gradientUnits="userSpaceOnUse"
       gradientTransform="matrix(18.834596,0,0,18.834596,8.2023287,3.6377632)" /></defs><g
     inkscape:label="Layer 1"
     inkscape:groupmode="layer"
     id="layer1"><path
       d="m 291.47281,476.03695 h 20.33645 V 323.63604 h 56.84407 V 305.99477 H 234.87375 v 17.64127 h 56.59906 z m 135.73971,2.45018 c 29.15709,0 47.04337,-13.72099 47.04337,-35.52755 0,-43.3681 -70.56506,-27.19695 -70.56506,-53.90386 0,-10.29074 11.02579,-16.90621 28.66706,-16.90621 10.04572,0 21.80656,2.20516 31.85228,5.6354 l 4.65533,-15.92614 c -10.04572,-4.16529 -22.05158,-6.37045 -34.54747,-6.37045 -30.6272,0 -50.2286,13.47596 -50.2286,35.77256 0,42.38804 70.32003,24.74677 70.32003,53.65884 0,10.78077 -9.55568,16.90621 -25.72684,16.90621 -12.49589,0 -29.15709,-3.43024 -41.65298,-8.82063 l -4.65533,15.92614 c 13.47596,6.12544 29.89214,9.55569 44.83821,9.55569 z"
       id="text1-5"
       style="font-size:240px;font-family:System-ui;-inkscape-font-specification:System-ui;fill:#40b2ff;fill-opacity:0.313725;stroke:#3178c6;stroke-width:24.0209;stroke-linejoin:round;paint-order:markers fill stroke"
       aria-label="Ts" /><path
       id="path1-4"
       style="fill:url(#linearGradient6);fill-opacity:1;stroke-width:18.8346"
       d="M 178.08984 22.472656 C 78.888129 22.472656 27.037109 126.70255 27.037109 229.65234 A 207.61375 207.61375 0 0 0 234.63086 436.83398 A 208.17878 208.17878 0 0 0 261.96289 434.82227 L 261.96289 396.32422 A 169.96339 169.96339 0 0 1 64.707031 229.65234 C 64.707031 161.50885 94.842144 60.140625 178.01562 60.140625 C 195.13625 60.140625 196.84961 60.140795 196.84961 116.64453 A 74.227139 74.227139 0 0 0 217.98242 176.3125 C 239.88703 195.14707 271.54811 190.26932 302.1543 185.61719 C 348.92054 178.47888 378.64052 176.5392 396.0625 209.65039 A 72.400184 72.400184 0 0 1 402.90039 252.83789 A 169.96339 169.96339 0 0 1 392.87891 289.33398 C 396.19475 294.10066 398.16292 299.84781 398.16406 305.99219 A 17.50175 17.50175 0 0 0 398.16406 305.99414 L 398.16406 323.63672 A 17.50175 17.50175 0 0 0 398.16406 323.63867 C 398.16358 326.72794 397.53472 329.66429 396.62109 332.48047 C 403.09303 329.95342 409.926 328.25514 416.97656 327.2207 A 208.17878 208.17878 0 0 0 440.32422 257.9043 A 110.23888 110.23888 0 0 0 429.45703 191.98438 C 398.28581 132.7308 339.48456 141.67674 296.56055 148.25 C 274.33576 151.60256 251.35768 155.14252 242.59961 147.58984 A 45.504382 45.504382 0 0 1 234.59375 116.64453 C 234.59375 66.111356 234.59358 22.472656 178.08984 22.472656 z M 119.81641 118.79492 A 28.251892 28.251892 0 0 0 102.375 144.89648 A 28.251892 28.251892 0 0 0 130.62695 173.14844 A 28.251892 28.251892 0 1 0 119.81641 118.79492 z M 100.98047 203.55078 A 28.251892 28.251892 0 0 0 83.541016 229.65234 A 28.251892 28.251892 0 0 0 111.79297 257.9043 A 28.251892 28.251892 0 1 0 100.98047 203.55078 z M 300.13867 210.81836 A 65.921082 65.921082 0 0 0 234.31055 276.51367 C 234.49878 276.50995 234.6821 276.48441 234.87109 276.48438 A 17.50175 17.50175 0 0 0 234.87305 276.48438 L 271.9375 276.48438 A 28.251892 28.251892 0 0 1 300.13867 248.48828 A 28.251892 28.251892 0 0 1 324.14062 276.48438 L 365.95508 276.48438 A 65.921082 65.921082 0 0 0 300.13867 210.81836 z M 149.46094 286.15625 A 28.251892 28.251892 0 0 0 121.20898 314.4082 A 28.251892 28.251892 0 1 0 149.46094 286.15625 z M 244.41797 311.48438 A 65.921082 65.921082 0 0 0 249.5293 318.14648 L 279.46289 318.14648 A 17.50175 17.50175 0 0 1 296.96289 335.64648 L 296.96289 342.24219 A 65.921082 65.921082 0 0 0 300.13867 342.66016 A 65.921082 65.921082 0 0 0 306.32031 340.09961 L 306.32031 335.64648 A 17.50175 17.50175 0 0 1 323.82031 318.14648 L 348.9082 318.14648 A 65.921082 65.921082 0 0 0 351.66797 311.48438 L 244.41797 311.48438 z M 349.6875 353.14648 A 169.96339 169.96339 0 0 1 341.32031 360.47461 L 341.32031 406.73828 A 208.17878 208.17878 0 0 0 354.95703 397.66211 C 354.72739 395.56683 354.57813 393.44017 354.57812 391.26172 C 354.57813 377.04336 359.55988 363.75864 367.93945 353.14648 L 349.6875 353.14648 z M 306.32031 382.28906 A 169.96339 169.96339 0 0 1 296.96289 386.28906 L 296.96289 426.89453 A 208.17878 208.17878 0 0 0 306.32031 423.38281 L 306.32031 382.28906 z " /></g></svg>
