<?xml version="1.0" encoding="UTF-8" standalone="no"?>
<!-- Created with Inkscape (http://www.inkscape.org/) -->

<svg
   width="500"
   height="500"
   viewBox="0 0 500 500"
   version="1.1"
   id="svg1"
   inkscape:version="1.3.2 (091e20ef0f, 2023-11-25, custom)"
   sodipodi:docname="theme.js.svg"
   xml:space="preserve"
   xmlns:inkscape="http://www.inkscape.org/namespaces/inkscape"
   xmlns:sodipodi="http://sodipodi.sourceforge.net/DTD/sodipodi-0.dtd"
   xmlns:xlink="http://www.w3.org/1999/xlink"
   xmlns="http://www.w3.org/2000/svg"
   xmlns:svg="http://www.w3.org/2000/svg"><sodipodi:namedview
     id="namedview1"
     pagecolor="#505050"
     bordercolor="#eeeeee"
     borderopacity="1"
     inkscape:showpageshadow="0"
     inkscape:pageopacity="0"
     inkscape:pagecheckerboard="0"
     inkscape:deskcolor="#505050"
     inkscape:document-units="px"
     inkscape:zoom="0.96390292"
     inkscape:cx="210.0834"
     inkscape:cy="302.41635"
     inkscape:window-width="1352"
     inkscape:window-height="734"
     inkscape:window-x="4"
     inkscape:window-y="24"
     inkscape:window-maximized="1"
     inkscape:current-layer="layer1"
     showguides="true"
     showgrid="false"><sodipodi:guide
       position="248.38276,380.03529"
       orientation="-0.99997769,0.0066803918"
       id="guide30"
       inkscape:locked="false" /><sodipodi:guide
       position="66.396728,247.89992"
       orientation="0,-1"
       id="guide53"
       inkscape:locked="false" /></sodipodi:namedview><defs
     id="defs1"><linearGradient
       id="swatch61"
       inkscape:swatch="solid"><stop
         style="stop-color:#5090d0;stop-opacity:1;"
         offset="0"
         id="stop61" /></linearGradient><linearGradient
       id="swatch30"
       inkscape:swatch="solid"><stop
         style="stop-color:#f9f9f9;stop-opacity:1;"
         offset="0"
         id="stop30" /></linearGradient><inkscape:perspective
       sodipodi:type="inkscape:persp3d"
       inkscape:vp_x="44.06818 : 315.96746 : 1"
       inkscape:vp_y="0 : 1000 : 0"
       inkscape:vp_z="480.74134 : 298.68846 : 1"
       inkscape:persp3d-origin="250 : 166.66667 : 1"
       id="perspective17" /><inkscape:perspective
       sodipodi:type="inkscape:persp3d"
       inkscape:vp_x="44.06818 : 315.96746 : 1"
       inkscape:vp_y="0 : 1000 : 0"
       inkscape:vp_z="480.74134 : 298.68846 : 1"
       inkscape:persp3d-origin="250 : 166.66667 : 1"
       id="perspective17-9" /><inkscape:perspective
       sodipodi:type="inkscape:persp3d"
       inkscape:vp_x="44.06818 : 315.96746 : 1"
       inkscape:vp_y="0 : 1000 : 0"
       inkscape:vp_z="480.74134 : 298.68846 : 1"
       inkscape:persp3d-origin="250 : 166.66667 : 1"
       id="perspective17-0" /><inkscape:perspective
       sodipodi:type="inkscape:persp3d"
       inkscape:vp_x="44.06818 : 315.96746 : 1"
       inkscape:vp_y="0 : 1000 : 0"
       inkscape:vp_z="480.74134 : 298.68846 : 1"
       inkscape:persp3d-origin="250 : 166.66667 : 1"
       id="perspective17-2" /><linearGradient
       id="linearGradient5"
       inkscape:collect="always"><stop
         style="stop-color:#ffc340;stop-opacity:1;"
         offset="0"
         id="stop5" /><stop
         style="stop-color:#ff7440;stop-opacity:1;"
         offset="0.40147313"
         id="stop7" /><stop
         style="stop-color:#ff4066;stop-opacity:1;"
         offset="1"
         id="stop6" /></linearGradient><inkscape:perspective
       sodipodi:type="inkscape:persp3d"
       inkscape:vp_x="44.06818 : 315.96746 : 1"
       inkscape:vp_y="0 : 1000 : 0"
       inkscape:vp_z="480.74134 : 298.68846 : 1"
       inkscape:persp3d-origin="250 : 166.66667 : 1"
       id="perspective17-29" /><inkscape:perspective
       sodipodi:type="inkscape:persp3d"
       inkscape:vp_x="44.06818 : 315.96746 : 1"
       inkscape:vp_y="0 : 1000 : 0"
       inkscape:vp_z="480.74134 : 298.68846 : 1"
       inkscape:persp3d-origin="250 : 166.66667 : 1"
       id="perspective17-4" /><inkscape:perspective
       sodipodi:type="inkscape:persp3d"
       inkscape:vp_x="44.06818 : 315.96746 : 1"
       inkscape:vp_y="0 : 1000 : 0"
       inkscape:vp_z="480.74134 : 298.68846 : 1"
       inkscape:persp3d-origin="250 : 166.66667 : 1"
       id="perspective17-1" /><inkscape:perspective
       sodipodi:type="inkscape:persp3d"
       inkscape:vp_x="44.06818 : 315.96746 : 1"
       inkscape:vp_y="0 : 1000 : 0"
       inkscape:vp_z="480.74134 : 298.68846 : 1"
       inkscape:persp3d-origin="250 : 166.66667 : 1"
       id="perspective17-3" /><linearGradient
       inkscape:collect="always"
       xlink:href="#linearGradient5"
       id="linearGradient6"
       x1="18.869989"
       y1="17.925848"
       x2="0.14027499"
       y2="-0.97718555"
       gradientUnits="userSpaceOnUse"
       gradientTransform="matrix(18.834596,0,0,18.834596,8.2023287,3.6377632)" /><inkscape:perspective
       sodipodi:type="inkscape:persp3d"
       inkscape:vp_x="44.06818 : 315.96746 : 1"
       inkscape:vp_y="0 : 1000 : 0"
       inkscape:vp_z="480.74134 : 298.68846 : 1"
       inkscape:persp3d-origin="250 : 166.66667 : 1"
       id="perspective17-26" /><inkscape:perspective
       sodipodi:type="inkscape:persp3d"
       inkscape:vp_x="44.06818 : 315.96746 : 1"
       inkscape:vp_y="0 : 1000 : 0"
       inkscape:vp_z="480.74134 : 298.68846 : 1"
       inkscape:persp3d-origin="250 : 166.66667 : 1"
       id="perspective17-2-18" /><inkscape:perspective
       sodipodi:type="inkscape:persp3d"
       inkscape:vp_x="44.06818 : 315.96746 : 1"
       inkscape:vp_y="0 : 1000 : 0"
       inkscape:vp_z="480.74134 : 298.68846 : 1"
       inkscape:persp3d-origin="250 : 166.66667 : 1"
       id="perspective17-7" /><inkscape:perspective
       sodipodi:type="inkscape:persp3d"
       inkscape:vp_x="44.06818 : 315.96746 : 1"
       inkscape:vp_y="0 : 1000 : 0"
       inkscape:vp_z="480.74134 : 298.68846 : 1"
       inkscape:persp3d-origin="250 : 166.66667 : 1"
       id="perspective17-3-7" /><inkscape:perspective
       sodipodi:type="inkscape:persp3d"
       inkscape:vp_x="44.06818 : 315.96746 : 1"
       inkscape:vp_y="0 : 1000 : 0"
       inkscape:vp_z="480.74134 : 298.68846 : 1"
       inkscape:persp3d-origin="250 : 166.66667 : 1"
       id="perspective17-2-6" /><inkscape:perspective
       sodipodi:type="inkscape:persp3d"
       inkscape:vp_x="44.06818 : 315.96746 : 1"
       inkscape:vp_y="0 : 1000 : 0"
       inkscape:vp_z="480.74134 : 298.68846 : 1"
       inkscape:persp3d-origin="250 : 166.66667 : 1"
       id="perspective17-5" /><inkscape:perspective
       sodipodi:type="inkscape:persp3d"
       inkscape:vp_x="44.06818 : 315.96746 : 1"
       inkscape:vp_y="0 : 1000 : 0"
       inkscape:vp_z="480.74134 : 298.68846 : 1"
       inkscape:persp3d-origin="250 : 166.66667 : 1"
       id="perspective17-2-5" /><inkscape:perspective
       sodipodi:type="inkscape:persp3d"
       inkscape:vp_x="44.06818 : 315.96746 : 1"
       inkscape:vp_y="0 : 1000 : 0"
       inkscape:vp_z="480.74134 : 298.68846 : 1"
       inkscape:persp3d-origin="250 : 166.66667 : 1"
       id="perspective17-29-9" /><inkscape:perspective
       sodipodi:type="inkscape:persp3d"
       inkscape:vp_x="44.06818 : 315.96746 : 1"
       inkscape:vp_y="0 : 1000 : 0"
       inkscape:vp_z="480.74134 : 298.68846 : 1"
       inkscape:persp3d-origin="250 : 166.66667 : 1"
       id="perspective17-2-1" /><linearGradient
       id="linearGradient4"
       x1="-683.873"
       y1="-565.884"
       x2="-664.125"
       y2="-585.635"
       gradientTransform="matrix(0.999, 0, 0, -0.999, 688.969, -558.754)"
       gradientUnits="userSpaceOnUse"><stop
         offset="0"
         id="stop3"
         style="stop-color:#df6c00;stop-opacity:1;" /><stop
         offset="1"
         stop-color="#ffffff"
         id="stop4"
         style="stop-color:#959595;stop-opacity:1;" /></linearGradient><inkscape:perspective
       sodipodi:type="inkscape:persp3d"
       inkscape:vp_x="44.06818 : 315.96746 : 1"
       inkscape:vp_y="0 : 1000 : 0"
       inkscape:vp_z="480.74134 : 298.68846 : 1"
       inkscape:persp3d-origin="250 : 166.66667 : 1"
       id="perspective17-6" /><linearGradient
       id="a"
       x1="-683.873"
       y1="-565.884"
       x2="-664.125"
       y2="-585.635"
       gradientTransform="matrix(0.999, 0, 0, -0.999, 688.969, -558.754)"
       gradientUnits="userSpaceOnUse"><stop
         offset="0"
         id="stop1" /><stop
         offset="1"
         stop-color="#ffffff"
         id="stop2" /></linearGradient><linearGradient
       id="b"
       x1="-663.231"
       y1="-584.741"
       x2="-682.979"
       y2="-564.99"
       xlink:href="#linearGradient4" /><inkscape:perspective
       sodipodi:type="inkscape:persp3d"
       inkscape:vp_x="44.06818 : 315.96746 : 1"
       inkscape:vp_y="0 : 1000 : 0"
       inkscape:vp_z="480.74134 : 298.68846 : 1"
       inkscape:persp3d-origin="250 : 166.66667 : 1"
       id="perspective17-291" /><inkscape:perspective
       sodipodi:type="inkscape:persp3d"
       inkscape:vp_x="44.06818 : 315.96746 : 1"
       inkscape:vp_y="0 : 1000 : 0"
       inkscape:vp_z="480.74134 : 298.68846 : 1"
       inkscape:persp3d-origin="250 : 166.66667 : 1"
       id="perspective17-62" /></defs><g
     inkscape:label="Layer 1"
     inkscape:groupmode="layer"
     id="layer1"><path
       id="path1-4"
       style="fill:url(#linearGradient6);fill-opacity:1;stroke-width:18.835;stroke-dasharray:none"
       d="M 178.08984 22.472656 C 78.888129 22.472656 27.037109 126.70255 27.037109 229.65234 A 207.61375 207.61375 0 0 0 227.28516 436.30859 C 235.41418 423.33968 252.73052 417.9677 266.875 425.03906 C 266.8082 425.00566 266.84932 425.02786 266.88672 425.03906 C 266.92416 425.05026 266.98229 425.06684 267.05469 425.08594 C 267.19947 425.1242 267.40369 425.17368 267.6543 425.23438 C 268.15551 425.35574 268.84073 425.5169 269.625 425.69727 C 271.02329 426.01886 272.72828 426.40164 274.27734 426.75195 C 274.32004 426.35426 274.37305 425.98553 274.37305 425.48438 L 274.37305 393.37891 A 169.96339 169.96339 0 0 1 64.707031 229.65234 C 64.707031 161.50885 94.842144 60.140625 178.01562 60.140625 C 195.13625 60.140625 196.84961 60.140795 196.84961 116.64453 A 74.227139 74.227139 0 0 0 217.98242 176.3125 C 239.88703 195.14707 271.54811 190.26932 302.1543 185.61719 C 348.92054 178.47888 378.64052 176.5392 396.0625 209.65039 A 72.400184 72.400184 0 0 1 402.90039 252.83789 A 169.96339 169.96339 0 0 1 375.10742 323.98047 C 386.79426 319.70738 399.54889 317.89062 412.68164 317.89062 C 415.75807 317.89062 418.81888 318.02161 421.86914 318.21875 A 208.17878 208.17878 0 0 0 440.32422 257.9043 A 110.23888 110.23888 0 0 0 429.45703 191.98438 C 398.28581 132.7308 339.48456 141.67674 296.56055 148.25 C 274.33576 151.60256 251.35768 155.14252 242.59961 147.58984 A 45.504382 45.504382 0 0 1 234.59375 116.64453 C 234.59375 66.111356 234.59358 22.472656 178.08984 22.472656 z M 119.81641 118.79492 A 28.251892 28.251892 0 0 0 102.375 144.89648 A 28.251892 28.251892 0 0 0 130.62695 173.14844 A 28.251892 28.251892 0 1 0 119.81641 118.79492 z M 100.98047 203.55078 A 28.251892 28.251892 0 0 0 83.541016 229.65234 A 28.251892 28.251892 0 0 0 111.79297 257.9043 A 28.251892 28.251892 0 1 0 100.98047 203.55078 z M 300.13867 210.81836 A 65.921082 65.921082 0 0 0 234.2168 276.74023 A 65.921082 65.921082 0 0 0 274.37305 336.80859 L 274.37305 296.73242 L 274.37305 296.73047 C 274.37358 292.37686 275.33976 288.22301 277.03711 284.44727 A 28.251892 28.251892 0 0 1 271.88672 276.74023 A 28.251892 28.251892 0 0 1 300.13867 248.48828 A 28.251892 28.251892 0 0 1 326.18945 266.1875 C 342.84281 266.20161 356.71089 280.07469 356.71289 296.73047 L 356.71289 296.73242 L 356.71289 299.30664 A 65.921082 65.921082 0 0 0 300.13867 210.81836 z M 149.46094 286.15625 A 28.251892 28.251892 0 0 0 121.20898 314.4082 A 28.251892 28.251892 0 1 0 149.46094 286.15625 z M 310.37305 302.18555 L 310.37305 338.42188 A 65.921082 65.921082 0 0 0 320.71289 334.13867 L 320.71289 302.18555 L 310.37305 302.18555 z M 399.08594 354.91406 C 390.2561 356.28458 383.03814 358.99989 377.58789 362.84375 C 370.27431 368.00176 365.66211 376.40825 365.66211 385.80859 C 365.66211 387.04445 365.78041 388.23365 365.95703 389.39453 A 208.17878 208.17878 0 0 0 375.26562 381.2832 C 375.38745 379.58278 375.85577 377.47862 377.25 375.08789 C 377.77776 373.76903 378.37512 372.51934 379.12891 371.55859 C 381.66626 368.32461 383.04897 367.09218 384.05469 366.55469 C 384.55755 366.28594 384.97157 366.2068 385.27344 366.1582 C 385.57531 366.1096 385.73429 366.09207 385.96875 365.95312 C 388.42667 364.49658 390.852 363.42336 393.35352 362.60156 A 208.17878 208.17878 0 0 0 399.08594 354.91406 z M 320.71289 374.69727 A 169.96339 169.96339 0 0 1 310.37305 380.55469 L 310.37305 421.86328 A 208.17878 208.17878 0 0 0 320.71289 417.98242 L 320.71289 374.69727 z " /><path
       d="m 284.92666,468.38234 c 30.20401,0 47.35374,-19.19747 47.35374,-53.7529 V 288.18215 h -21.24519 v 128.75099 c 0,20.98922 -9.47075,32.76367 -26.62048,32.76367 -7.67899,0 -17.91763,-2.3037 -25.08469,-5.88722 l -6.14319,15.8699 c 10.23865,6.14319 20.98923,8.70285 31.73981,8.70285 z m 126.44747,0 c 30.45998,0 49.14551,-14.33411 49.14551,-37.1151 0,-45.30601 -73.71826,-28.41224 -73.71826,-56.31256 0,-10.75058 11.51848,-17.66166 29.94804,-17.66166 10.49462,0 22.78099,2.30369 33.2756,5.88722 l 4.86336,-16.6378 c -10.49461,-4.35143 -23.03695,-6.65512 -36.09123,-6.65512 -31.99577,0 -52.47306,14.07814 -52.47306,37.37106 0,44.28215 73.46229,25.85258 73.46229,56.05659 0,11.26251 -9.98268,17.66167 -26.87645,17.66167 -13.05428,0 -30.45998,-3.58353 -43.51425,-9.21478 l -4.86336,16.6378 c 14.07814,6.39915 31.22788,9.98268 46.84181,9.98268 z"
       id="text1"
       style="font-size:240px;font-family:System-ui;-inkscape-font-specification:System-ui;fill:none;fill-opacity:0.313725;stroke:#ffc340;stroke-width:25.0943;stroke-linejoin:round;stroke-opacity:1;paint-order:markers fill stroke"
       aria-label="Js"
       transform="translate(-6.1160809,8.5499398)" /></g></svg>
