<?xml version="1.0" encoding="UTF-8" standalone="no"?>
<!-- Created with Inkscape (http://www.inkscape.org/) -->

<svg
   width="500"
   height="500"
   viewBox="0 0 500 500"
   version="1.1"
   id="svg1"
   inkscape:version="1.3.2 (091e20ef0f, 2023-11-25, custom)"
   sodipodi:docname="ts.svg"
   xmlns:inkscape="http://www.inkscape.org/namespaces/inkscape"
   xmlns:sodipodi="http://sodipodi.sourceforge.net/DTD/sodipodi-0.dtd"
   xmlns="http://www.w3.org/2000/svg"
   xmlns:svg="http://www.w3.org/2000/svg">
  <sodipodi:namedview
     id="namedview1"
     pagecolor="#505050"
     bordercolor="#eeeeee"
     borderopacity="1"
     inkscape:showpageshadow="0"
     inkscape:pageopacity="0"
     inkscape:pagecheckerboard="0"
     inkscape:deskcolor="#505050"
     inkscape:document-units="px"
     inkscape:zoom="0.96390292"
     inkscape:cx="279.59247"
     inkscape:cy="234.98217"
     inkscape:window-width="1362"
     inkscape:window-height="744"
     inkscape:window-x="0"
     inkscape:window-y="20"
     inkscape:window-maximized="1"
     inkscape:current-layer="layer1"
     showguides="true">
    <sodipodi:guide
       position="250.02518,350.60736"
       orientation="-0.99997769,0.0066803918"
       id="guide30"
       inkscape:locked="false" />
    <sodipodi:guide
       position="66.396728,247.89992"
       orientation="0,-1"
       id="guide53"
       inkscape:locked="false" />
  </sodipodi:namedview>
  <defs
     id="defs1">
    <linearGradient
       id="swatch61"
       inkscape:swatch="solid">
      <stop
         style="stop-color:#5090d0;stop-opacity:1;"
         offset="0"
         id="stop61" />
    </linearGradient>
    <linearGradient
       id="swatch30"
       inkscape:swatch="solid">
      <stop
         style="stop-color:#f9f9f9;stop-opacity:1;"
         offset="0"
         id="stop30" />
    </linearGradient>
    <inkscape:perspective
       sodipodi:type="inkscape:persp3d"
       inkscape:vp_x="44.06818 : 315.96746 : 1"
       inkscape:vp_y="0 : 1000 : 0"
       inkscape:vp_z="480.74134 : 298.68846 : 1"
       inkscape:persp3d-origin="250 : 166.66667 : 1"
       id="perspective17" />
  </defs>
  <g
     inkscape:label="Layer 1"
     inkscape:groupmode="layer"
     id="layer1">
    <path
       id="rect53-0"
       style="fill:none;fill-opacity:0.3137255;fill-rule:nonzero;stroke:#3178c6;stroke-width:22.0622;stroke-linecap:butt;stroke-linejoin:round;stroke-dasharray:none;stroke-opacity:1;paint-order:markers fill stroke"
       d="M 88.179688 23.089844 C 86.530739 23.089844 85.006447 23.681216 83.662109 24.636719 L 35.392578 24.636719 C 29.41966 24.636719 24.611328 30.000382 24.611328 36.662109 L 24.611328 178.59375 C 24.611328 185.25548 29.41966 190.61719 35.392578 190.61719 L 78.783203 190.61719 L 78.783203 434.68945 C 78.783203 441.41005 82.97427 446.82031 88.179688 446.82031 L 429.86328 446.82031 C 435.0687 446.82031 439.25781 441.41005 439.25781 434.68945 L 439.25781 35.220703 C 439.25781 28.500105 435.0687 23.089844 429.86328 23.089844 L 88.179688 23.089844 z " />
    <path
       d="m 177.5109,332.42667 h 19.92 v -149.28 h 55.68 v -17.28 h -131.04 v 17.28 h 55.44 z m 132.95999,2.4 c 28.56,0 46.08,-13.44 46.08,-34.8 0,-42.48 -69.12,-26.64 -69.12,-52.8 0,-10.08 10.8,-16.56 28.08,-16.56 9.84,0 21.36,2.16 31.2,5.52 l 4.56,-15.6 c -9.84,-4.08 -21.6,-6.24 -33.84,-6.24 -30,0 -49.2,13.2 -49.2,35.04 0,41.52 68.88,24.24 68.88,52.56 0,10.56 -9.36,16.56 -25.2,16.56 -12.24,0 -28.56,-3.36 -40.8,-8.64 l -4.56,15.6 c 13.2,6 29.28,9.36 43.92,9.36 z"
       id="text1-5"
       style="font-size:240px;font-family:System-ui;-inkscape-font-specification:System-ui;fill:#40b2ff;fill-opacity:0.313725;stroke:#3178c6;stroke-width:23.529;stroke-linejoin:round;paint-order:markers fill stroke"
       aria-label="Ts" />
  </g>
</svg>
