<?xml version="1.0" encoding="UTF-8" standalone="no"?>
<!-- Created with Inkscape (http://www.inkscape.org/) -->

<svg
   width="500"
   height="500"
   viewBox="0 0 500 500"
   version="1.1"
   id="svg1"
   inkscape:version="1.3.2 (091e20ef0f, 2023-11-25, custom)"
   sodipodi:docname="tsconfig.json.svg"
   xml:space="preserve"
   xmlns:inkscape="http://www.inkscape.org/namespaces/inkscape"
   xmlns:sodipodi="http://sodipodi.sourceforge.net/DTD/sodipodi-0.dtd"
   xmlns:xlink="http://www.w3.org/1999/xlink"
   xmlns="http://www.w3.org/2000/svg"
   xmlns:svg="http://www.w3.org/2000/svg"><sodipodi:namedview
     id="namedview1"
     pagecolor="#505050"
     bordercolor="#eeeeee"
     borderopacity="1"
     inkscape:showpageshadow="0"
     inkscape:pageopacity="0"
     inkscape:pagecheckerboard="0"
     inkscape:deskcolor="#505050"
     inkscape:document-units="px"
     inkscape:zoom="0.48195146"
     inkscape:cx="376.59394"
     inkscape:cy="142.1305"
     inkscape:window-width="1362"
     inkscape:window-height="744"
     inkscape:window-x="0"
     inkscape:window-y="20"
     inkscape:window-maximized="1"
     inkscape:current-layer="layer1"
     showguides="true"><sodipodi:guide
       position="250.02518,350.60736"
       orientation="-0.99997769,0.0066803918"
       id="guide30"
       inkscape:locked="false" /></sodipodi:namedview><defs
     id="defs1"><linearGradient
       id="linearGradient28"
       inkscape:collect="always"><stop
         style="stop-color:#d240f4;stop-opacity:1;"
         offset="0"
         id="stop28" /><stop
         style="stop-color:#3178c6;stop-opacity:1;"
         offset="1"
         id="stop27" /></linearGradient><linearGradient
       id="linearGradient26"
       inkscape:collect="always"><stop
         style="stop-color:#3178c6;stop-opacity:1;"
         offset="0"
         id="stop26" /><stop
         style="stop-color:#d240f4;stop-opacity:1;"
         offset="1"
         id="stop25" /></linearGradient><linearGradient
       id="linearGradient24"
       inkscape:collect="always"><stop
         style="stop-color:#c811f3;stop-opacity:1;"
         offset="0"
         id="stop24" /><stop
         style="stop-color:#3178c6;stop-opacity:1;"
         offset="1"
         id="stop23" /></linearGradient><linearGradient
       id="swatch61"
       inkscape:swatch="solid"><stop
         style="stop-color:#5090d0;stop-opacity:1;"
         offset="0"
         id="stop61" /></linearGradient><linearGradient
       id="swatch30"
       inkscape:swatch="solid"><stop
         style="stop-color:#f9f9f9;stop-opacity:1;"
         offset="0"
         id="stop30" /></linearGradient><inkscape:perspective
       sodipodi:type="inkscape:persp3d"
       inkscape:vp_x="44.06818 : 315.96746 : 1"
       inkscape:vp_y="0 : 1000 : 0"
       inkscape:vp_z="480.74134 : 298.68846 : 1"
       inkscape:persp3d-origin="250 : 166.66667 : 1"
       id="perspective17" /><inkscape:perspective
       sodipodi:type="inkscape:persp3d"
       inkscape:vp_x="44.06818 : 315.96746 : 1"
       inkscape:vp_y="0 : 1000 : 0"
       inkscape:vp_z="480.74134 : 298.68846 : 1"
       inkscape:persp3d-origin="250 : 166.66667 : 1"
       id="perspective17-2" /><inkscape:perspective
       sodipodi:type="inkscape:persp3d"
       inkscape:vp_x="44.06818 : 315.96746 : 1"
       inkscape:vp_y="0 : 1000 : 0"
       inkscape:vp_z="480.74134 : 298.68846 : 1"
       inkscape:persp3d-origin="250 : 166.66667 : 1"
       id="perspective17-29" /><inkscape:perspective
       sodipodi:type="inkscape:persp3d"
       inkscape:vp_x="44.06818 : 315.96746 : 1"
       inkscape:vp_y="0 : 1000 : 0"
       inkscape:vp_z="480.74134 : 298.68846 : 1"
       inkscape:persp3d-origin="250 : 166.66667 : 1"
       id="perspective17-2-1" /><linearGradient
       id="linearGradient4"
       x1="-683.873"
       y1="-565.884"
       x2="-664.125"
       y2="-585.635"
       gradientTransform="matrix(0.999, 0, 0, -0.999, 688.969, -558.754)"
       gradientUnits="userSpaceOnUse"><stop
         offset="0"
         id="stop3"
         style="stop-color:#df6c00;stop-opacity:1;" /><stop
         offset="1"
         stop-color="#ffffff"
         id="stop4"
         style="stop-color:#959595;stop-opacity:1;" /></linearGradient><inkscape:perspective
       sodipodi:type="inkscape:persp3d"
       inkscape:vp_x="44.06818 : 315.96746 : 1"
       inkscape:vp_y="0 : 1000 : 0"
       inkscape:vp_z="480.74134 : 298.68846 : 1"
       inkscape:persp3d-origin="250 : 166.66667 : 1"
       id="perspective17-6" /><linearGradient
       id="a"
       x1="-683.873"
       y1="-565.884"
       x2="-664.125"
       y2="-585.635"
       gradientTransform="matrix(0.999, 0, 0, -0.999, 688.969, -558.754)"
       gradientUnits="userSpaceOnUse"><stop
         offset="0"
         id="stop1" /><stop
         offset="1"
         stop-color="#ffffff"
         id="stop2" /></linearGradient><linearGradient
       id="b"
       x1="-663.231"
       y1="-584.741"
       x2="-682.979"
       y2="-564.99"
       xlink:href="#linearGradient4" /><linearGradient
       inkscape:collect="always"
       xlink:href="#linearGradient28"
       id="linearGradient7"
       x1="10.269234"
       y1="6.7126727"
       x2="24.669367"
       y2="23.302303"
       gradientUnits="userSpaceOnUse" /><linearGradient
       inkscape:collect="always"
       xlink:href="#linearGradient26"
       id="linearGradient9"
       x1="2"
       y1="16.008499"
       x2="25.209816"
       y2="18.863724"
       gradientUnits="userSpaceOnUse" /><linearGradient
       inkscape:collect="always"
       xlink:href="#linearGradient24"
       id="linearGradient23"
       x1="243.30807"
       y1="361.51486"
       x2="493.77493"
       y2="361.51486"
       gradientUnits="userSpaceOnUse" /><inkscape:perspective
       sodipodi:type="inkscape:persp3d"
       inkscape:vp_x="44.06818 : 315.96746 : 1"
       inkscape:vp_y="0 : 1000 : 0"
       inkscape:vp_z="480.74134 : 298.68846 : 1"
       inkscape:persp3d-origin="250 : 166.66667 : 1"
       id="perspective17-23" /><inkscape:perspective
       sodipodi:type="inkscape:persp3d"
       inkscape:vp_x="44.06818 : 315.96746 : 1"
       inkscape:vp_y="0 : 1000 : 0"
       inkscape:vp_z="480.74134 : 298.68846 : 1"
       inkscape:persp3d-origin="250 : 166.66667 : 1"
       id="perspective17-2-7" /><inkscape:perspective
       sodipodi:type="inkscape:persp3d"
       inkscape:vp_x="44.06818 : 315.96746 : 1"
       inkscape:vp_y="0 : 1000 : 0"
       inkscape:vp_z="480.74134 : 298.68846 : 1"
       inkscape:persp3d-origin="250 : 166.66667 : 1"
       id="perspective17-7" /><inkscape:perspective
       sodipodi:type="inkscape:persp3d"
       inkscape:vp_x="44.06818 : 315.96746 : 1"
       inkscape:vp_y="0 : 1000 : 0"
       inkscape:vp_z="480.74134 : 298.68846 : 1"
       inkscape:persp3d-origin="250 : 166.66667 : 1"
       id="perspective17-61" /><inkscape:perspective
       sodipodi:type="inkscape:persp3d"
       inkscape:vp_x="44.06818 : 315.96746 : 1"
       inkscape:vp_y="0 : 1000 : 0"
       inkscape:vp_z="480.74134 : 298.68846 : 1"
       inkscape:persp3d-origin="250 : 166.66667 : 1"
       id="perspective17-2-2" /><inkscape:perspective
       sodipodi:type="inkscape:persp3d"
       inkscape:vp_x="44.06818 : 315.96746 : 1"
       inkscape:vp_y="0 : 1000 : 0"
       inkscape:vp_z="480.74134 : 298.68846 : 1"
       inkscape:persp3d-origin="250 : 166.66667 : 1"
       id="perspective17-7-9" /></defs><g
     id="g1"
     transform="translate(-1.859571,1.741554)"
     style="display:inline"><path
       id="path14"
       style="display:inline;opacity:1;fill:url(#linearGradient9);fill-opacity:1;stroke:none;stroke-opacity:1"
       d="M 15.97107,2.0170237 A 14.116,14.116 0 0 0 2.0000184,16.024069 c 0,8.993982 7.8120634,13.976008 13.9710516,13.976008 -0.0079,-0.0011 -0.01882,-0.0033 -0.02691,-0.0045 -1.245828,-0.04256 -9.0821805,-1.215387 -9.0831605,-12.030553 0,-6.756986 5.0150685,-10.1310287 9.1080605,-8.7200315 a 7.17,7.17 0 0 0 -0.009,0.00543 c 6.37e-4,2.169e-4 0.0013,3.73e-4 0.0019,5.901e-4 a 7.106,7.106 0 0 1 3.708934,4.0613224 l 5.9e-4,-0.08591 h 5.532128 C 24.870902,5.5791984 20.184104,2.8259203 17.513863,2.1679632 16.970789,2.0696853 16.450941,2.0170237 15.97107,2.0170237 Z"
       transform="matrix(16.549986,0,0,16.549986,-12.385236,-13.556862)" /><path
       id="path15"
       style="display:inline;opacity:1;fill:url(#linearGradient7);fill-opacity:1"
       d="m 16.413385,2.0013279 c -0.148564,-0.00478 -0.277746,9.458e-4 -0.384371,0.015696 0.305508,0 0.615927,0.015722 0.928414,0.040125 -0.199943,-0.031018 -0.384646,-0.050688 -0.544043,-0.05582 z m 0.544043,0.05582 c 2.508612,0.3891765 7.889284,2.9532684 8.246561,11.1692891 h 1.389139 v 0.968892 l 0.684952,-0.684952 2.70452,2.704519 c 0.0064,-0.07359 0.01215,-0.147236 0.01735,-0.220921 0,-8.5478571 -7.055313,-13.4692733 -13.04252,-13.9368271 z m -2.951876,6.8715839 c -3.574273,0.042258 -7.1445495,3.3350952 -7.1445495,9.0363082 9.999e-4,11.034989 8.1770125,12.034919 9.1680115,12.034919 0.416301,-0.01525 0.831722,-0.04891 1.245045,-0.100902 l -3.192389,-3.19227 0.68507,-0.68507 h -0.968893 v -4.763504 c -1.321925,-1.407264 -2.0143,-3.291858 -1.91784,-5.220218 -0.126847,-2.88051 1.484094,-5.556778 4.088938,-6.7929865 C 15.329415,9.02454 14.667454,8.9209062 14.005552,8.9287318 Z"
       transform="matrix(16.549986,0,0,16.549986,-12.385236,-13.556862)"
       sodipodi:nodetypes="sccsssccccccssscccccccccs" /></g><g
     inkscape:label="Layer 1"
     inkscape:groupmode="layer"
     id="layer1"
     style="display:inline"><path
       id="path7"
       style="color:#000000;display:inline;fill:url(#linearGradient23);stroke-width:0.797249;stroke-linejoin:round;-inkscape-stroke:none;paint-order:markers fill stroke"
       d="m 340.4167,236.28143 v 37.69492 c -4.82165,1.52284 -9.46554,3.45477 -13.91604,5.72088 l -26.62374,-26.62374 -39.77836,39.77835 26.35282,26.3528 c -2.38244,4.52458 -4.3996,9.26394 -6.00741,14.18386 h -37.1359 v 56.25586 h 37.09387 c 1.60501,4.93513 3.62489,9.68749 6.00894,14.2259 l -26.31076,26.31077 39.77835,39.77835 26.54277,-26.54277 c 4.47474,2.28402 9.1449,4.2309 13.99546,5.76291 v 37.56879 h 56.25584 V 448.6392 c 4.65875,-1.56646 9.15526,-3.49402 13.45514,-5.75825 l 27.07686,27.07687 39.77835,-39.77835 -27.34936,-27.34936 c 2.15076,-4.22387 3.99028,-8.6259 5.4733,-13.18575 h 38.66811 V 333.3885 h -38.71015 c -1.4853,-4.54487 -3.32276,-8.93352 -5.47175,-13.1437 l 27.39297,-27.39296 -39.77835,-39.77835 -27.16095,27.16096 c -4.27563,-2.24603 -8.74435,-4.16109 -13.37417,-5.71778 v -38.23524 z m 27.33689,82.62424 a 46.036817,42.672743 0 0 1 46.03644,42.67149 46.036817,42.672743 0 0 1 -46.03644,42.67305 46.036817,42.672743 0 0 1 -46.03643,-42.67305 46.036817,42.672743 0 0 1 46.03643,-42.67149 z" /></g></svg>
