<?xml version="1.0" encoding="UTF-8" standalone="no"?>
<!-- Created with Inkscape (http://www.inkscape.org/) -->

<svg
   width="500"
   height="500"
   viewBox="0 0 500 500"
   version="1.1"
   id="svg1"
   inkscape:version="1.3.2 (091e20ef0f, 2023-11-25, custom)"
   sodipodi:docname="urls.py.svg"
   xml:space="preserve"
   xmlns:inkscape="http://www.inkscape.org/namespaces/inkscape"
   xmlns:sodipodi="http://sodipodi.sourceforge.net/DTD/sodipodi-0.dtd"
   xmlns="http://www.w3.org/2000/svg"
   xmlns:svg="http://www.w3.org/2000/svg"><sodipodi:namedview
     id="namedview1"
     pagecolor="#505050"
     bordercolor="#eeeeee"
     borderopacity="1"
     inkscape:showpageshadow="0"
     inkscape:pageopacity="0"
     inkscape:pagecheckerboard="0"
     inkscape:deskcolor="#505050"
     inkscape:document-units="px"
     inkscape:zoom="0.64175296"
     inkscape:cx="232.95568"
     inkscape:cy="153.48585"
     inkscape:window-width="1352"
     inkscape:window-height="734"
     inkscape:window-x="4"
     inkscape:window-y="24"
     inkscape:window-maximized="1"
     inkscape:current-layer="svg1"
     showguides="true"><sodipodi:guide
       position="250.02518,350.60736"
       orientation="-0.99997769,0.0066803918"
       id="guide30"
       inkscape:locked="false" /><sodipodi:guide
       position="66.396728,247.89992"
       orientation="0,-1"
       id="guide53"
       inkscape:locked="false" /></sodipodi:namedview><defs
     id="defs1"><linearGradient
       id="swatch61"
       inkscape:swatch="solid"><stop
         style="stop-color:#5090d0;stop-opacity:1;"
         offset="0"
         id="stop61" /></linearGradient><linearGradient
       id="swatch30"
       inkscape:swatch="solid"><stop
         style="stop-color:#f9f9f9;stop-opacity:1;"
         offset="0"
         id="stop30" /></linearGradient><inkscape:perspective
       sodipodi:type="inkscape:persp3d"
       inkscape:vp_x="44.06818 : 315.96746 : 1"
       inkscape:vp_y="0 : 1000 : 0"
       inkscape:vp_z="480.74134 : 298.68846 : 1"
       inkscape:persp3d-origin="250 : 166.66667 : 1"
       id="perspective17" /><inkscape:perspective
       sodipodi:type="inkscape:persp3d"
       inkscape:vp_x="44.06818 : 315.96746 : 1"
       inkscape:vp_y="0 : 1000 : 0"
       inkscape:vp_z="480.74134 : 298.68846 : 1"
       inkscape:persp3d-origin="250 : 166.66667 : 1"
       id="perspective17-1" /><inkscape:perspective
       sodipodi:type="inkscape:persp3d"
       inkscape:vp_x="44.06818 : 315.96746 : 1"
       inkscape:vp_y="0 : 1000 : 0"
       inkscape:vp_z="480.74134 : 298.68846 : 1"
       inkscape:persp3d-origin="250 : 166.66667 : 1"
       id="perspective17-4" /><inkscape:perspective
       sodipodi:type="inkscape:persp3d"
       inkscape:vp_x="44.06818 : 315.96746 : 1"
       inkscape:vp_y="0 : 1000 : 0"
       inkscape:vp_z="480.74134 : 298.68846 : 1"
       inkscape:persp3d-origin="250 : 166.66667 : 1"
       id="perspective17-6" /><inkscape:perspective
       sodipodi:type="inkscape:persp3d"
       inkscape:vp_x="44.06818 : 315.96746 : 1"
       inkscape:vp_y="0 : 1000 : 0"
       inkscape:vp_z="480.74134 : 298.68846 : 1"
       inkscape:persp3d-origin="250 : 166.66667 : 1"
       id="perspective17-3" /><inkscape:perspective
       sodipodi:type="inkscape:persp3d"
       inkscape:vp_x="44.06818 : 315.96746 : 1"
       inkscape:vp_y="0 : 1000 : 0"
       inkscape:vp_z="480.74134 : 298.68846 : 1"
       inkscape:persp3d-origin="250 : 166.66667 : 1"
       id="perspective17-5" /><inkscape:perspective
       sodipodi:type="inkscape:persp3d"
       inkscape:vp_x="44.06818 : 315.96746 : 1"
       inkscape:vp_y="0 : 1000 : 0"
       inkscape:vp_z="480.74134 : 298.68846 : 1"
       inkscape:persp3d-origin="250 : 166.66667 : 1"
       id="perspective17-2" /></defs><path
     id="path33"
     style="color:#000000;fill:#31c660;fill-opacity:1;stroke-width:1.01859;stroke-linejoin:round;-inkscape-stroke:none;paint-order:markers fill stroke"
     d="M 54.587891 16.511719 L 19.130859 51.96875 L 103.31445 136.1543 L 103.31445 396.04883 L 153.45898 396.04883 L 153.45898 125.76758 A 25.074616 25.074616 0 0 0 146.11523 108.03906 L 54.587891 16.511719 z M 196.22266 16.599609 L 196.22266 456.56641 L 246.36523 456.56641 L 246.36523 430.22266 A 26.960196 26.960196 0 0 1 222.98438 404.37695 L 222.97852 404.08398 A 26.960196 26.960196 0 0 1 222.97266 403.53125 L 222.97266 265.21289 A 26.960196 26.960196 0 0 1 226.14844 252.51758 L 226.44141 251.96875 A 26.960196 26.960196 0 0 1 246.36523 238.41016 L 246.36523 16.599609 L 196.22266 16.599609 z M 359.51172 103.01172 A 25.074616 25.074616 0 0 0 341.7832 110.35742 L 289.37695 162.76562 A 25.074616 25.074616 0 0 0 282.03125 180.49219 L 282.03125 184.71484 C 291.66863 174.13919 305.58665 167.47266 320.58789 167.47266 L 355.58203 167.47266 L 369.89648 153.1582 L 425.37109 153.1582 L 425.37109 103.01172 L 359.51172 103.01172 z M 322.70312 221.38672 L 322.70312 222.45117 L 323.69531 223.44531 L 325.75391 221.38672 L 322.70312 221.38672 z M 295.87695 291.58594 A 26.960196 26.960196 0 0 1 295.74609 291.62109 L 282.03125 291.62109 L 282.03125 344.4668 L 316.58398 306.28125 A 26.960196 26.960196 0 0 1 332.17773 298.02734 L 332.17773 291.58594 L 295.87695 291.58594 z " /><path
     id="use15"
     style="fill:#d6d85c;fill-opacity:1;stroke:none;stroke-width:48.5153;stroke-linejoin:round;stroke-dasharray:none;stroke-opacity:1;paint-order:markers fill stroke"
     d="m 424.43773,468.94786 c 13.76281,0 24.84273,-10.65862 24.84273,-23.89868 V 410.9038 h -80.16575 v -12.15488 h 80.16575 v -0.0348 h 45.52065 l 0.29219,-0.5483 V 259.84684 l -0.006,-0.29331 h -50.70106 v 39.74275 l -35.93438,39.71195 h -63.13258 l -27.2223,30.99986 v 4.80599 94.08951 l 0.0777,0.0443 z m 9.31737,-14.48356 h -24.85212 v -24.85211 h 24.85212 z"
     sodipodi:nodetypes="sscccccccccccccccccsccccc" /><path
     id="rect14"
     style="fill:#615cd8;fill-opacity:1;stroke:none;stroke-width:48.5153;stroke-linejoin:round;stroke-dasharray:none;stroke-opacity:1;paint-order:markers fill stroke"
     d="m 320.58695,194.43028 c -13.76281,0 -24.84274,10.65862 -24.84274,23.89868 v 34.14537 h 80.16576 v 12.15489 h -80.16576 v 0.0348 h -45.52065 l -0.29219,0.54831 v 138.31894 l 0.006,0.29332 h 50.70134 v -39.74275 l 35.93439,-39.71195 h 63.13258 l 27.2223,-30.99986 v -4.80599 -94.08952 l -0.0777,-0.0443 z m -9.31737,14.48356 h 24.85211 v 24.85211 h -24.85211 z"
     sodipodi:nodetypes="sscccccccccccccccccsccccc" /></svg>
