<?xml version="1.0" encoding="UTF-8" standalone="no"?>
<!-- Created with Inkscape (http://www.inkscape.org/) -->

<svg
   width="500"
   height="500"
   viewBox="0 0 500 500"
   version="1.1"
   id="svg1"
   inkscape:version="1.3.2 (091e20ef0f, 2023-11-25, custom)"
   sodipodi:docname="video.svg"
   xml:space="preserve"
   xmlns:inkscape="http://www.inkscape.org/namespaces/inkscape"
   xmlns:sodipodi="http://sodipodi.sourceforge.net/DTD/sodipodi-0.dtd"
   xmlns:xlink="http://www.w3.org/1999/xlink"
   xmlns="http://www.w3.org/2000/svg"
   xmlns:svg="http://www.w3.org/2000/svg"><sodipodi:namedview
     id="namedview1"
     pagecolor="#505050"
     bordercolor="#eeeeee"
     borderopacity="1"
     inkscape:showpageshadow="0"
     inkscape:pageopacity="0"
     inkscape:pagecheckerboard="0"
     inkscape:deskcolor="#505050"
     inkscape:document-units="px"
     inkscape:zoom="0.64175296"
     inkscape:cx="231.39745"
     inkscape:cy="153.48585"
     inkscape:window-width="1362"
     inkscape:window-height="744"
     inkscape:window-x="0"
     inkscape:window-y="20"
     inkscape:window-maximized="1"
     inkscape:current-layer="svg1"
     showguides="true"><sodipodi:guide
       position="250.02518,350.60736"
       orientation="-0.99997769,0.0066803918"
       id="guide30"
       inkscape:locked="false" /><sodipodi:guide
       position="66.396728,247.89992"
       orientation="0,-1"
       id="guide53"
       inkscape:locked="false" /></sodipodi:namedview><defs
     id="defs1"><linearGradient
       id="linearGradient7"
       inkscape:collect="always"><stop
         style="stop-color:#ffeb34;stop-opacity:1;"
         offset="0"
         id="stop7" /><stop
         style="stop-color:#cb34ff;stop-opacity:1;"
         offset="1"
         id="stop8" /></linearGradient><linearGradient
       id="swatch61"
       inkscape:swatch="solid"><stop
         style="stop-color:#5090d0;stop-opacity:1;"
         offset="0"
         id="stop61" /></linearGradient><linearGradient
       id="swatch30"
       inkscape:swatch="solid"><stop
         style="stop-color:#f9f9f9;stop-opacity:1;"
         offset="0"
         id="stop30" /></linearGradient><inkscape:perspective
       sodipodi:type="inkscape:persp3d"
       inkscape:vp_x="44.06818 : 315.96746 : 1"
       inkscape:vp_y="0 : 1000 : 0"
       inkscape:vp_z="480.74134 : 298.68846 : 1"
       inkscape:persp3d-origin="250 : 166.66667 : 1"
       id="perspective17" /><inkscape:perspective
       sodipodi:type="inkscape:persp3d"
       inkscape:vp_x="44.06818 : 315.96746 : 1"
       inkscape:vp_y="0 : 1000 : 0"
       inkscape:vp_z="480.74134 : 298.68846 : 1"
       inkscape:persp3d-origin="250 : 166.66667 : 1"
       id="perspective17-4" /><linearGradient
       inkscape:collect="always"
       xlink:href="#linearGradient7"
       id="linearGradient8"
       x1="-38.518929"
       y1="54.68454"
       x2="826.34546"
       y2="572.98889"
       gradientUnits="userSpaceOnUse" /></defs><path
     id="path4"
     style="color:#000000;fill:url(#linearGradient8);stroke-linejoin:round;-inkscape-stroke:none;paint-order:markers fill stroke;fill-opacity:1"
     d="M 103.11328 34.552734 C 100.54689 34.552734 98.24836 35.213257 96.134766 36.099609 L 50.326172 36.099609 C 37.74936 36.099609 28.513672 47.186507 28.513672 59.15625 L 28.513672 201.08789 C 28.513672 213.05764 37.751764 224.14062 50.326172 224.14062 L 82.685547 224.14062 L 82.685547 457.18359 C 82.685547 462.83694 84.373167 468.17413 87.742188 472.52344 C 91.111208 476.87273 96.688865 480.34375 103.11328 480.34375 L 444.79688 480.34375 C 451.2213 480.34375 456.79961 476.87118 460.16797 472.52148 C 463.53633 468.17181 465.22266 462.83587 465.22266 457.18359 L 465.22266 57.714844 C 465.22266 52.062577 463.53633 46.724691 460.16797 42.375 C 456.79961 38.025309 451.2213 34.552734 444.79688 34.552734 L 103.11328 34.552734 z M 105.87305 86.335938 L 154.22461 86.335938 L 154.22461 150.4668 L 105.87305 150.4668 L 105.87305 86.335938 z M 393.02344 86.335938 L 441.375 86.335938 L 441.375 150.4668 L 393.02344 150.4668 L 393.02344 86.335938 z M 224.99609 136.45508 L 345.63281 253.59375 L 224.99609 370.73047 L 224.99609 136.45508 z M 105.87305 176.59766 L 154.22461 176.59766 L 154.22461 240.72852 L 105.87305 240.72852 L 105.87305 176.59766 z M 393.02344 176.59766 L 441.375 176.59766 L 441.375 240.72852 L 393.02344 240.72852 L 393.02344 176.59766 z M 105.87305 263.09961 L 154.22461 263.09961 L 154.22461 327.23242 L 105.87305 327.23242 L 105.87305 263.09961 z M 393.02344 263.09961 L 441.375 263.09961 L 441.375 327.23242 L 393.02344 327.23242 L 393.02344 263.09961 z M 105.87305 353.05859 L 154.22461 353.05859 L 154.22461 417.18945 L 105.87305 417.18945 L 105.87305 353.05859 z M 393.02344 353.05859 L 441.375 353.05859 L 441.375 417.18945 L 393.02344 417.18945 L 393.02344 353.05859 z " /></svg>
