<?xml version="1.0" encoding="UTF-8" standalone="no"?>
<!-- Created with Inkscape (http://www.inkscape.org/) -->

<svg
   width="500"
   height="500"
   viewBox="0 0 500 500"
   version="1.1"
   id="svg1"
   inkscape:version="1.3.2 (091e20ef0f, 2023-11-25, custom)"
   sodipodi:docname="video.svg"
   xml:space="preserve"
   xmlns:inkscape="http://www.inkscape.org/namespaces/inkscape"
   xmlns:sodipodi="http://sodipodi.sourceforge.net/DTD/sodipodi-0.dtd"
   xmlns="http://www.w3.org/2000/svg"
   xmlns:svg="http://www.w3.org/2000/svg"><sodipodi:namedview
     id="namedview1"
     pagecolor="#505050"
     bordercolor="#eeeeee"
     borderopacity="1"
     inkscape:showpageshadow="0"
     inkscape:pageopacity="0"
     inkscape:pagecheckerboard="0"
     inkscape:deskcolor="#505050"
     inkscape:document-units="px"
     inkscape:zoom="0.64175296"
     inkscape:cx="231.39745"
     inkscape:cy="153.48585"
     inkscape:window-width="1362"
     inkscape:window-height="744"
     inkscape:window-x="0"
     inkscape:window-y="20"
     inkscape:window-maximized="1"
     inkscape:current-layer="rect53-0"
     showguides="true"><sodipodi:guide
       position="250.02518,350.60736"
       orientation="-0.99997769,0.0066803918"
       id="guide30"
       inkscape:locked="false" /><sodipodi:guide
       position="66.396728,247.89992"
       orientation="0,-1"
       id="guide53"
       inkscape:locked="false" /></sodipodi:namedview><defs
     id="defs1"><linearGradient
       id="swatch61"
       inkscape:swatch="solid"><stop
         style="stop-color:#5090d0;stop-opacity:1;"
         offset="0"
         id="stop61" /></linearGradient><linearGradient
       id="swatch30"
       inkscape:swatch="solid"><stop
         style="stop-color:#f9f9f9;stop-opacity:1;"
         offset="0"
         id="stop30" /></linearGradient><inkscape:perspective
       sodipodi:type="inkscape:persp3d"
       inkscape:vp_x="44.06818 : 315.96746 : 1"
       inkscape:vp_y="0 : 1000 : 0"
       inkscape:vp_z="480.74134 : 298.68846 : 1"
       inkscape:persp3d-origin="250 : 166.66667 : 1"
       id="perspective17" /><inkscape:perspective
       sodipodi:type="inkscape:persp3d"
       inkscape:vp_x="44.06818 : 315.96746 : 1"
       inkscape:vp_y="0 : 1000 : 0"
       inkscape:vp_z="480.74134 : 298.68846 : 1"
       inkscape:persp3d-origin="250 : 166.66667 : 1"
       id="perspective17-4" /></defs><g
     id="rect53-0"><path
       id="path4"
       style="color:#000000;fill:#e4cb5d;stroke-linejoin:round;-inkscape-stroke:none;paint-order:markers fill stroke"
       d="M 103.11328 45.583984 C 101.46433 45.583984 99.94004 46.175357 98.595703 47.130859 L 50.326172 47.130859 C 44.35326 47.130859 39.544922 52.49453 39.544922 59.15625 L 39.544922 201.08789 C 39.544922 207.74961 44.35326 213.11133 50.326172 213.11133 L 93.716797 213.11133 L 93.716797 457.18359 C 93.716797 463.90419 97.907863 469.31445 103.11328 469.31445 L 444.79688 469.31445 C 450.00229 469.31445 454.19141 463.90419 454.19141 457.18359 L 454.19141 57.714844 C 454.19141 50.994252 450.00229 45.583984 444.79688 45.583984 L 103.11328 45.583984 z M 178.92188 136.45508 L 381.81055 253.59375 L 178.92188 370.73047 L 178.92188 136.45508 z " /><path
       style="color:#000000;fill:#e4cb5d;stroke-linejoin:round;-inkscape-stroke:none;paint-order:markers fill stroke"
       d="m 103.11328,34.552734 c -2.56639,0 -4.864916,0.660521 -6.978514,1.546875 H 50.326172 c -12.576836,0 -21.8125,11.086874 -21.8125,23.056641 v 141.93164 c 0,11.96977 9.238068,23.05273 21.8125,23.05273 h 32.359375 v 233.04297 c 0,5.65335 1.687613,10.99054 5.05664,15.33985 3.369028,4.34931 8.946662,7.82031 15.371093,7.82031 h 341.68359 c 6.42444,0 12.00274,-3.47257 15.3711,-7.82227 3.36836,-4.34969 5.05469,-9.68561 5.05469,-15.33789 V 57.714844 c 0,-5.652277 -1.68633,-10.990145 -5.05469,-15.339844 -3.36836,-4.349699 -8.94666,-7.822266 -15.3711,-7.822266 z m 0.33008,22.060547 h 339.45508 c 0.1237,0.319672 0.26172,0.459229 0.26172,1.101563 V 457.18359 c 0,0.64191 -0.13807,0.77989 -0.26172,1.09961 H 105.00977 c -0.12365,-0.31955 -0.26172,-0.45835 -0.26172,-1.09961 V 213.11133 A 11.032203,11.032203 0 0 0 93.716797,202.08008 h -43.03125 c -0.01772,-0.0819 -0.109375,-0.3233 -0.109375,-0.99219 V 59.15625 c 0,-0.670201 0.09161,-0.914199 0.109375,-0.996094 h 47.910156 a 11.032203,11.032203 0 0 0 4.847657,-1.546875 z"
       id="path5" /></g></svg>
