<?xml version="1.0" encoding="UTF-8" standalone="no"?>
<!-- Created with Inkscape (http://www.inkscape.org/) -->

<svg
   width="500"
   height="500"
   viewBox="0 0 500 500"
   version="1.1"
   id="svg1"
   inkscape:version="1.3.2 (091e20ef0f, 2023-11-25, custom)"
   sodipodi:docname="vsconfig.svg"
   xml:space="preserve"
   xmlns:inkscape="http://www.inkscape.org/namespaces/inkscape"
   xmlns:sodipodi="http://sodipodi.sourceforge.net/DTD/sodipodi-0.dtd"
   xmlns:xlink="http://www.w3.org/1999/xlink"
   xmlns="http://www.w3.org/2000/svg"
   xmlns:svg="http://www.w3.org/2000/svg"><sodipodi:namedview
     id="namedview1"
     pagecolor="#505050"
     bordercolor="#eeeeee"
     borderopacity="1"
     inkscape:showpageshadow="0"
     inkscape:pageopacity="0"
     inkscape:pagecheckerboard="0"
     inkscape:deskcolor="#505050"
     inkscape:document-units="px"
     inkscape:zoom="0.70710678"
     inkscape:cx="357.08893"
     inkscape:cy="225.56706"
     inkscape:window-width="1352"
     inkscape:window-height="734"
     inkscape:window-x="4"
     inkscape:window-y="24"
     inkscape:window-maximized="0"
     inkscape:current-layer="svg1"
     showguides="true"><sodipodi:guide
       position="250.02518,350.60736"
       orientation="-0.99997769,0.0066803918"
       id="guide30"
       inkscape:locked="false" /><sodipodi:guide
       position="66.396728,247.89992"
       orientation="0,-1"
       id="guide53"
       inkscape:locked="false" /><sodipodi:guide
       position="221.35979,127.71308"
       orientation="0,-1"
       id="guide5"
       inkscape:locked="false" /><sodipodi:guide
       position="96.959247,117.65127"
       orientation="1,0"
       id="guide6"
       inkscape:locked="false" /><sodipodi:guide
       position="400.64293,118.56598"
       orientation="1,0"
       id="guide7"
       inkscape:locked="false" /></sodipodi:namedview><defs
     id="defs1"><linearGradient
       id="linearGradient4"
       inkscape:collect="always"><stop
         style="stop-color:#ff6e2d;stop-opacity:1;"
         offset="0"
         id="stop3" /><stop
         style="stop-color:#2b6fff;stop-opacity:1;"
         offset="1"
         id="stop4" /></linearGradient><linearGradient
       id="linearGradient6"
       inkscape:collect="always"><stop
         style="stop-color:#ff302d;stop-opacity:1;"
         offset="0"
         id="stop5" /><stop
         style="stop-color:#fff22b;stop-opacity:0.86899406;"
         offset="1"
         id="stop6" /></linearGradient><linearGradient
       id="swatch61"
       inkscape:swatch="solid"><stop
         style="stop-color:#5090d0;stop-opacity:1;"
         offset="0"
         id="stop61" /></linearGradient><linearGradient
       id="swatch30"
       inkscape:swatch="solid"><stop
         style="stop-color:#f9f9f9;stop-opacity:1;"
         offset="0"
         id="stop30" /></linearGradient><inkscape:perspective
       sodipodi:type="inkscape:persp3d"
       inkscape:vp_x="44.06818 : 315.96746 : 1"
       inkscape:vp_y="0 : 1000 : 0"
       inkscape:vp_z="480.74134 : 298.68846 : 1"
       inkscape:persp3d-origin="250 : 166.66667 : 1"
       id="perspective17" /><inkscape:perspective
       sodipodi:type="inkscape:persp3d"
       inkscape:vp_x="44.06818 : 315.96746 : 1"
       inkscape:vp_y="0 : 1000 : 0"
       inkscape:vp_z="480.74134 : 298.68846 : 1"
       inkscape:persp3d-origin="250 : 166.66667 : 1"
       id="perspective17-2" /><inkscape:perspective
       sodipodi:type="inkscape:persp3d"
       inkscape:vp_x="44.06818 : 315.96746 : 1"
       inkscape:vp_y="0 : 1000 : 0"
       inkscape:vp_z="480.74134 : 298.68846 : 1"
       inkscape:persp3d-origin="250 : 166.66667 : 1"
       id="perspective17-0" /><inkscape:perspective
       sodipodi:type="inkscape:persp3d"
       inkscape:vp_x="44.06818 : 315.96746 : 1"
       inkscape:vp_y="0 : 1000 : 0"
       inkscape:vp_z="480.74134 : 298.68846 : 1"
       inkscape:persp3d-origin="250 : 166.66667 : 1"
       id="perspective17-3" /><inkscape:perspective
       sodipodi:type="inkscape:persp3d"
       inkscape:vp_x="44.06818 : 315.96746 : 1"
       inkscape:vp_y="0 : 1000 : 0"
       inkscape:vp_z="480.74134 : 298.68846 : 1"
       inkscape:persp3d-origin="250 : 166.66667 : 1"
       id="perspective17-1" /><radialGradient
       id="a"
       cx="767.179"
       cy="5169.543"
       r="14.989"
       gradientTransform="matrix(0.955,0,0,0.962,-718.112,-4953.917)"
       gradientUnits="userSpaceOnUse"><stop
         offset="0"
         stop-color="#36bac0"
         id="stop1" /><stop
         offset="1"
         stop-color="#2d9094"
         id="stop2" /></radialGradient><inkscape:perspective
       sodipodi:type="inkscape:persp3d"
       inkscape:vp_x="44.06818 : 315.96746 : 1"
       inkscape:vp_y="0 : 1000 : 0"
       inkscape:vp_z="480.74134 : 298.68846 : 1"
       inkscape:persp3d-origin="250 : 166.66667 : 1"
       id="perspective17-6" /><linearGradient
       id="swatch13"
       inkscape:swatch="solid"><stop
         style="stop-color:#ff405c;stop-opacity:1;"
         offset="0"
         id="stop13" /></linearGradient><inkscape:perspective
       sodipodi:type="inkscape:persp3d"
       inkscape:vp_x="44.06818 : 315.96746 : 1"
       inkscape:vp_y="0 : 1000 : 0"
       inkscape:vp_z="480.74134 : 298.68846 : 1"
       inkscape:persp3d-origin="250 : 166.66667 : 1"
       id="perspective17-291" /><inkscape:perspective
       sodipodi:type="inkscape:persp3d"
       inkscape:vp_x="44.06818 : 315.96746 : 1"
       inkscape:vp_y="0 : 1000 : 0"
       inkscape:vp_z="480.74134 : 298.68846 : 1"
       inkscape:persp3d-origin="250 : 166.66667 : 1"
       id="perspective17-2-2" /><inkscape:perspective
       sodipodi:type="inkscape:persp3d"
       inkscape:vp_x="44.06818 : 315.96746 : 1"
       inkscape:vp_y="0 : 1000 : 0"
       inkscape:vp_z="480.74134 : 298.68846 : 1"
       inkscape:persp3d-origin="250 : 166.66667 : 1"
       id="perspective17-6-7" /><inkscape:perspective
       sodipodi:type="inkscape:persp3d"
       inkscape:vp_x="44.06818 : 315.96746 : 1"
       inkscape:vp_y="0 : 1000 : 0"
       inkscape:vp_z="480.74134 : 298.68846 : 1"
       inkscape:persp3d-origin="250 : 166.66667 : 1"
       id="perspective17-2-0" /><inkscape:perspective
       sodipodi:type="inkscape:persp3d"
       inkscape:vp_x="44.06818 : 315.96746 : 1"
       inkscape:vp_y="0 : 1000 : 0"
       inkscape:vp_z="480.74134 : 298.68846 : 1"
       inkscape:persp3d-origin="250 : 166.66667 : 1"
       id="perspective17-3-0" /><inkscape:perspective
       sodipodi:type="inkscape:persp3d"
       inkscape:vp_x="44.06818 : 315.96746 : 1"
       inkscape:vp_y="0 : 1000 : 0"
       inkscape:vp_z="480.74134 : 298.68846 : 1"
       inkscape:persp3d-origin="250 : 166.66667 : 1"
       id="perspective17-2-7" /><inkscape:perspective
       sodipodi:type="inkscape:persp3d"
       inkscape:vp_x="44.06818 : 315.96746 : 1"
       inkscape:vp_y="0 : 1000 : 0"
       inkscape:vp_z="480.74134 : 298.68846 : 1"
       inkscape:persp3d-origin="250 : 166.66667 : 1"
       id="perspective17-1-9" /><inkscape:perspective
       sodipodi:type="inkscape:persp3d"
       inkscape:vp_x="44.06818 : 315.96746 : 1"
       inkscape:vp_y="0 : 1000 : 0"
       inkscape:vp_z="480.74134 : 298.68846 : 1"
       inkscape:persp3d-origin="250 : 166.66667 : 1"
       id="perspective17-29" /><linearGradient
       inkscape:collect="always"
       xlink:href="#linearGradient6"
       id="linearGradient5"
       gradientUnits="userSpaceOnUse"
       x1="-5.978694"
       y1="4.6080413"
       x2="25.598848"
       y2="22.407961"
       gradientTransform="matrix(0.55848459,0,0,0.55848459,6.1793043,4.6866339)" /><linearGradient
       id="linearGradient4-2"
       x1="-683.873"
       y1="-565.884"
       x2="-664.125"
       y2="-585.635"
       gradientTransform="matrix(0.999, 0, 0, -0.999, 688.969, -558.754)"
       gradientUnits="userSpaceOnUse"><stop
         offset="0"
         id="stop3-5"
         style="stop-color:#df6c00;stop-opacity:1;" /><stop
         offset="1"
         stop-color="#ffffff"
         id="stop4-4"
         style="stop-color:#959595;stop-opacity:1;" /></linearGradient><inkscape:perspective
       sodipodi:type="inkscape:persp3d"
       inkscape:vp_x="44.06818 : 315.96746 : 1"
       inkscape:vp_y="0 : 1000 : 0"
       inkscape:vp_z="480.74134 : 298.68846 : 1"
       inkscape:persp3d-origin="250 : 166.66667 : 1"
       id="perspective17-9" /><linearGradient
       id="a-4"
       x1="-683.873"
       y1="-565.884"
       x2="-664.125"
       y2="-585.635"
       gradientTransform="matrix(0.999, 0, 0, -0.999, 688.969, -558.754)"
       gradientUnits="userSpaceOnUse"><stop
         offset="0"
         id="stop1-6" /><stop
         offset="1"
         stop-color="#ffffff"
         id="stop2-9" /></linearGradient><linearGradient
       id="b"
       x1="-663.231"
       y1="-584.741"
       x2="-682.979"
       y2="-564.99"
       xlink:href="#linearGradient4-2" /><inkscape:perspective
       sodipodi:type="inkscape:persp3d"
       inkscape:vp_x="44.06818 : 315.96746 : 1"
       inkscape:vp_y="0 : 1000 : 0"
       inkscape:vp_z="480.74134 : 298.68846 : 1"
       inkscape:persp3d-origin="250 : 166.66667 : 1"
       id="perspective17-0-2" /><inkscape:perspective
       sodipodi:type="inkscape:persp3d"
       inkscape:vp_x="44.06818 : 315.96746 : 1"
       inkscape:vp_y="0 : 1000 : 0"
       inkscape:vp_z="480.74134 : 298.68846 : 1"
       inkscape:persp3d-origin="250 : 166.66667 : 1"
       id="perspective17-8" /><linearGradient
       inkscape:collect="always"
       xlink:href="#linearGradient4"
       id="linearGradient22"
       x1="499.6615"
       y1="279.3765"
       x2="247.31035"
       y2="425.0715"
       gradientUnits="userSpaceOnUse" /></defs><path
     id="path1-6"
     style="fill:url(#linearGradient5);fill-opacity:1;stroke-width:0.558485;opacity:0.6302804"
     d="M 16.148818 4.6866609 L 10.705282 9.9883406 L 7.4269621 7.4924812 L 6.1793254 8.1184968 L 6.1793254 14.663419 L 7.4196965 15.286095 L 10.69579 12.792462 L 10.811396 12.904669 A 0.52505251 0.52505251 0 0 1 11.265732 12.626466 L 11.982275 12.626466 L 11.475614 12.119747 A 0.52505251 0.52505251 0 0 1 11.475614 11.377305 L 12.852275 10.000645 A 0.52505251 0.52505251 0 0 1 13.594716 10.000645 L 14.010907 10.416837 L 14.101552 10.348985 L 14.101552 9.7907039 A 0.52505251 0.52505251 0 0 1 14.626552 9.2657039 L 15.549345 9.2657039 L 15.838271 9.0494929 L 15.838329 9.2657039 L 16.573447 9.2657039 A 0.52505251 0.52505251 0 0 1 17.098447 9.7907039 L 17.098447 10.507305 L 17.605107 10.000645 A 0.52505251 0.52505251 0 0 1 18.347548 10.000645 L 19.269052 10.922091 L 19.269052 5.9370515 L 16.148818 4.6866609 z M 7.7363371 9.9905672 L 9.2928801 11.381759 L 7.7363371 12.791934 L 7.7363371 9.9905672 z M 15.83874 10.315704 L 15.839384 12.143243 C 16.862995 12.267621 17.69086 13.093885 17.690888 14.126993 A 0.52505251 0.52505251 0 0 0 17.690888 14.127052 C 17.690897 15.248788 16.715543 16.128898 15.572607 16.128907 C 14.429671 16.128898 13.454375 15.248788 13.454384 14.127052 A 0.52505251 0.52505251 0 0 0 13.454384 14.126993 C 13.454404 13.478968 13.780998 12.912918 14.276279 12.549298 L 12.857197 11.480665 L 12.589306 11.748555 L 13.130068 12.289317 A 0.52505251 0.52505251 0 0 1 13.223407 12.905196 C 13.154453 13.036151 13.096263 13.172875 13.04997 13.314532 A 0.52505251 0.52505251 0 0 1 12.550927 13.676466 L 11.790732 13.676466 L 11.790732 13.855235 L 12.530654 14.573419 L 12.549521 14.573419 A 0.52505251 0.52505251 0 0 1 13.04874 14.936056 C 13.073293 15.011553 13.101833 15.085437 13.133056 15.158126 L 14.614716 16.596251 C 14.670854 16.618521 14.727219 16.640108 14.784638 16.658243 A 0.52505251 0.52505251 0 0 1 15.140361 17.106485 L 15.992958 17.934063 L 16.048447 17.934063 L 16.048447 17.140118 A 0.52505251 0.52505251 0 0 1 16.406161 16.64254 C 16.540802 16.597269 16.670529 16.541601 16.794521 16.476309 A 0.52505251 0.52505251 0 0 1 17.410341 16.569649 L 17.976181 17.135489 L 18.6104 16.50127 L 18.035126 15.925997 A 0.52505251 0.52505251 0 0 1 17.938564 15.316505 C 18.000998 15.193892 18.053963 15.066944 18.096533 14.936056 A 0.52505251 0.52505251 0 0 1 18.59581 14.573419 L 19.269052 14.573419 L 19.269052 13.676466 L 18.594345 13.676466 A 0.52505251 0.52505251 0 0 1 18.095302 13.314532 C 18.052613 13.183907 17.999694 13.057313 17.937392 12.935255 A 0.52505251 0.52505251 0 0 1 18.03372 12.325352 L 18.610576 11.748555 L 17.976357 11.114337 L 17.407587 11.683106 A 0.52505251 0.52505251 0 0 1 16.792177 11.776622 C 16.668763 11.711791 16.539835 11.656567 16.406161 11.611622 A 0.52505251 0.52505251 0 0 1 16.048447 11.113985 L 16.048447 10.315704 L 15.83874 10.315704 z M 19.269052 12.574962 L 19.217548 12.626466 L 19.269052 12.626466 L 19.269052 12.574962 z M 15.839794 13.20543 L 15.83997 13.726798 L 15.190224 13.23754 C 14.778323 13.375891 14.504397 13.73058 14.504384 14.127052 C 14.50438 14.636592 14.955665 15.078902 15.572607 15.078907 C 16.189548 15.078902 16.640892 14.636592 16.640888 14.127052 C 16.640874 13.694642 16.315256 13.311755 15.839794 13.20543 z M 19.217548 15.623419 L 19.269052 15.674923 L 19.269052 15.623419 L 19.217548 15.623419 z "
     transform="matrix(33.333333,0,0,33.333333,-174.92087,-120.82359)" /><path
     id="path7"
     style="color:#000000;fill:url(#linearGradient22);fill-opacity:1;stroke-width:0.919726;stroke-linejoin:round;-inkscape-stroke:none;paint-order:markers fill stroke"
     d="m 316.8702,212.98851 v 43.48575 c -5.56237,1.75679 -10.91967,3.9855 -16.05387,6.59974 l -30.71377,-30.71377 -45.88925,45.88924 30.40124,30.4012 c -2.74844,5.21967 -5.07549,10.6871 -6.93029,16.36284 H 204.8434 v 64.89808 h 42.79236 c 1.85159,5.69328 4.18177,11.17571 6.93206,16.41133 l -30.35271,30.35272 45.88924,45.88923 30.62035,-30.62036 c 5.16217,2.63491 10.54978,4.88087 16.1455,6.64824 v 43.34023 h 64.89805 v -43.96356 c 5.37445,-1.8071 10.56173,-4.03079 15.52217,-6.64285 l 31.2365,31.23651 45.88924,-45.88923 -31.55087,-31.55087 c 2.48117,-4.87276 4.60329,-9.95104 6.31413,-15.21139 h 44.60844 v -64.89808 h -44.65694 c -1.71348,-5.24307 -3.83321,-10.30592 -6.31234,-15.16289 l 31.60117,-31.60115 -45.88923,-45.88924 -31.33351,31.33352 c -4.93246,-2.59107 -10.08769,-4.80033 -15.42876,-6.59616 v -44.10908 z m 31.53648,95.31727 a 53.109151,49.228277 0 0 1 53.10871,49.22683 53.109151,49.228277 0 0 1 -53.10871,49.22863 53.109151,49.228277 0 0 1 -53.10871,-49.22863 53.109151,49.228277 0 0 1 53.10871,-49.22683 z"
     transform="translate(-4.2395792,-7.455854)" /></svg>
