<?xml version="1.0" encoding="UTF-8" standalone="no"?>
<!-- Created with Inkscape (http://www.inkscape.org/) -->

<svg
   width="500"
   height="500"
   viewBox="0 0 500 500"
   version="1.1"
   id="svg1"
   inkscape:version="1.3.2 (091e20ef0f, 2023-11-25, custom)"
   sodipodi:docname="vscode.svg"
   xml:space="preserve"
   xmlns:inkscape="http://www.inkscape.org/namespaces/inkscape"
   xmlns:sodipodi="http://sodipodi.sourceforge.net/DTD/sodipodi-0.dtd"
   xmlns="http://www.w3.org/2000/svg"
   xmlns:svg="http://www.w3.org/2000/svg"><sodipodi:namedview
     id="namedview1"
     pagecolor="#505050"
     bordercolor="#eeeeee"
     borderopacity="1"
     inkscape:showpageshadow="0"
     inkscape:pageopacity="0"
     inkscape:pagecheckerboard="0"
     inkscape:deskcolor="#505050"
     inkscape:document-units="px"
     inkscape:zoom="0.48195146"
     inkscape:cx="72.621421"
     inkscape:cy="445.06557"
     inkscape:window-width="1362"
     inkscape:window-height="744"
     inkscape:window-x="0"
     inkscape:window-y="20"
     inkscape:window-maximized="0"
     inkscape:current-layer="svg1"
     showguides="true"><sodipodi:guide
       position="250.02518,350.60736"
       orientation="-0.99997769,0.0066803918"
       id="guide30"
       inkscape:locked="false" /><sodipodi:guide
       position="66.396728,247.89992"
       orientation="0,-1"
       id="guide53"
       inkscape:locked="false" /></sodipodi:namedview><defs
     id="defs1"><linearGradient
       id="swatch13"
       inkscape:swatch="solid"><stop
         style="stop-color:#ff405c;stop-opacity:1;"
         offset="0"
         id="stop13" /></linearGradient><linearGradient
       id="swatch61"
       inkscape:swatch="solid"><stop
         style="stop-color:#5090d0;stop-opacity:1;"
         offset="0"
         id="stop61" /></linearGradient><linearGradient
       id="swatch30"
       inkscape:swatch="solid"><stop
         style="stop-color:#f9f9f9;stop-opacity:1;"
         offset="0"
         id="stop30" /></linearGradient><inkscape:perspective
       sodipodi:type="inkscape:persp3d"
       inkscape:vp_x="44.06818 : 315.96746 : 1"
       inkscape:vp_y="0 : 1000 : 0"
       inkscape:vp_z="480.74134 : 298.68846 : 1"
       inkscape:persp3d-origin="250 : 166.66667 : 1"
       id="perspective17" /><inkscape:perspective
       sodipodi:type="inkscape:persp3d"
       inkscape:vp_x="44.06818 : 315.96746 : 1"
       inkscape:vp_y="0 : 1000 : 0"
       inkscape:vp_z="480.74134 : 298.68846 : 1"
       inkscape:persp3d-origin="250 : 166.66667 : 1"
       id="perspective17-2" /><inkscape:perspective
       sodipodi:type="inkscape:persp3d"
       inkscape:vp_x="44.06818 : 315.96746 : 1"
       inkscape:vp_y="0 : 1000 : 0"
       inkscape:vp_z="480.74134 : 298.68846 : 1"
       inkscape:persp3d-origin="250 : 166.66667 : 1"
       id="perspective17-6" /><inkscape:perspective
       sodipodi:type="inkscape:persp3d"
       inkscape:vp_x="44.06818 : 315.96746 : 1"
       inkscape:vp_y="0 : 1000 : 0"
       inkscape:vp_z="480.74134 : 298.68846 : 1"
       inkscape:persp3d-origin="250 : 166.66667 : 1"
       id="perspective17-2-0" /><inkscape:perspective
       sodipodi:type="inkscape:persp3d"
       inkscape:vp_x="44.06818 : 315.96746 : 1"
       inkscape:vp_y="0 : 1000 : 0"
       inkscape:vp_z="480.74134 : 298.68846 : 1"
       inkscape:persp3d-origin="250 : 166.66667 : 1"
       id="perspective17-3" /><inkscape:perspective
       sodipodi:type="inkscape:persp3d"
       inkscape:vp_x="44.06818 : 315.96746 : 1"
       inkscape:vp_y="0 : 1000 : 0"
       inkscape:vp_z="480.74134 : 298.68846 : 1"
       inkscape:persp3d-origin="250 : 166.66667 : 1"
       id="perspective17-2-7" /><inkscape:perspective
       sodipodi:type="inkscape:persp3d"
       inkscape:vp_x="44.06818 : 315.96746 : 1"
       inkscape:vp_y="0 : 1000 : 0"
       inkscape:vp_z="480.74134 : 298.68846 : 1"
       inkscape:persp3d-origin="250 : 166.66667 : 1"
       id="perspective17-1" /><inkscape:perspective
       sodipodi:type="inkscape:persp3d"
       inkscape:vp_x="44.06818 : 315.96746 : 1"
       inkscape:vp_y="0 : 1000 : 0"
       inkscape:vp_z="480.74134 : 298.68846 : 1"
       inkscape:persp3d-origin="250 : 166.66667 : 1"
       id="perspective17-29" /></defs><g
     style="fill:#ebcc85;fill-opacity:1"
     id="g2"
     transform="matrix(9.6820652,0,0,9.6820652,-1.0283828,-2.4671367)"><path
       id="path1-2"
       style="fill:#ebcc85;fill-opacity:1;stroke:none;stroke-width:0.642978;stroke-opacity:1"
       d="M 26.11153 2.3658785 C 25.973429 2.3705363 25.83625 2.4048698 25.70949 2.4681536 L 3.6017246 13.976021 C 3.2774245 14.139216 3.072712 14.470619 3.0707816 14.832348 C 3.0707816 14.838048 3.0734041 14.843336 3.0734041 14.848486 C 3.0341531 14.955786 3.1121728 15.134112 3.006431 15.186983 L 3.1345271 22.881017 C 3.1364571 23.234391 3.331484 23.558191 3.6422716 23.72524 L 8.3574168 26.190535 L 3.6017246 28.665915 C 3.2774248 28.829111 3.072712 29.160514 3.0707816 29.522243 C 3.0707816 29.527943 3.0734041 29.533181 3.0734041 29.538381 C 3.0341531 29.645681 3.1123735 29.824007 3.0066327 29.876877 L 3.1345271 37.570911 C 3.1364571 37.924287 3.3314842 38.248286 3.6422716 38.415337 L 25.623151 49.907671 C 25.766642 49.984131 25.923867 50.022655 26.080868 50.022655 L 26.082683 50.022655 C 26.148963 50.097835 26.222883 50.168468 26.311037 50.221153 C 26.462892 50.311753 26.634071 50.357318 26.805871 50.357318 C 26.964161 50.357318 27.121146 50.318222 27.263991 50.241124 L 33.936081 46.628008 L 32.428784 45.252438 L 27.770526 47.77583 L 27.770526 44.64262 L 26.927311 45.282697 C 25.443395 46.417916 23.311779 46.31581 21.937414 45.076331 L 21.932371 45.071087 L 20.38715 43.663644 C 20.386172 43.662763 20.386514 43.661095 20.385536 43.660214 C 18.702957 42.138974 18.695892 39.408074 20.370003 37.880561 L 21.265868 37.063772 L 6.1626371 29.53596 L 10.461218 27.290345 L 19.147946 31.832006 C 19.009273 30.618669 19.420274 29.348192 20.385536 28.475486 C 20.386512 28.474596 20.386172 28.472938 20.38715 28.472057 L 21.927126 27.068043 C 23.312141 25.805751 25.439848 25.7116 26.93074 26.854617 L 27.770526 27.491668 L 27.770526 26.793897 L 33.734557 23.465821 L 33.734557 25.686825 L 39.374616 20.539784 L 39.28505 20.627535 C 39.95493 19.957655 40.808928 19.534577 41.709394 19.381876 C 41.787843 19.368573 41.866969 19.360009 41.946018 19.35081 L 41.946018 18.883411 L 47.54311 15.760086 L 47.54311 21.265594 L 48.459552 21.706366 L 48.461367 21.704752 L 49.473629 22.19192 L 49.473629 14.146278 C 49.473629 14.137978 49.470199 14.130062 49.470199 14.121062 C 49.469555 14.113962 49.472217 14.107581 49.472217 14.099881 C 49.471017 14.072261 49.459824 14.047189 49.457894 14.020199 C 49.449594 13.967519 49.443715 13.914825 49.427635 13.864063 C 49.416055 13.828723 49.401273 13.797258 49.386483 13.7632 C 49.366533 13.71822 49.346732 13.674013 49.319712 13.632885 C 49.299772 13.600765 49.275943 13.57187 49.252133 13.54231 C 49.221893 13.50505 49.190336 13.470177 49.154296 13.437412 C 49.125986 13.411712 49.09569 13.388693 49.06352 13.366203 C 49.04293 13.352063 49.025532 13.332041 49.003002 13.319201 C 48.982412 13.306341 48.95876 13.301274 48.93623 13.290354 C 48.91757 13.280654 48.902643 13.267225 48.883983 13.258885 L 26.519017 2.4411223 C 26.388717 2.3861901 26.249631 2.3612206 26.11153 2.3658785 z M 26.178503 4.3897962 L 46.278691 14.252184 L 41.848585 16.725547 L 21.724593 6.7165047 L 26.178503 4.3897962 z M 13.844769 10.832927 L 32.800363 21.77697 L 26.794978 25.129859 L 6.1626371 14.845864 L 13.844769 10.832927 z M 42.694624 25.000754 L 42.458201 25.12885 L 33.734557 33.086541 L 33.734557 33.251754 L 43.865442 25.56236 L 42.694624 25.000754 z M 45.711639 26.451972 L 45.711639 28.663696 L 46.278893 28.942078 L 45.711639 29.258788 L 45.711639 31.472127 L 47.28954 30.591592 L 47.28954 27.210865 L 45.711639 26.451972 z M 40.245266 35.174002 L 39.066581 36.068657 L 40.245266 36.963514 L 40.245266 35.174002 z M 47.28954 37.201752 L 45.711639 38.056466 L 45.711639 40.251447 L 47.28954 39.397137 L 47.28954 37.201752 z M 32.70878 38.105889 L 33.132001 38.492194 L 33.181424 38.464558 L 32.70878 38.105889 z M 33.734557 38.884551 L 33.734557 39.041898 L 39.027244 43.87122 L 39.77242 43.467768 L 33.734557 38.884551 z " /></g><g
     style="fill:#23a8f2;fill-opacity:1"
     id="g1"
     transform="matrix(8.5296463,0,0,8.5296463,210.33869,210.27793)"><path
       d="M 30.865,3.448 24.282,0.281 C 23.516,-0.089 22.605,0.067 22.006,0.666 L 9.397,12.171 3.902,8.004 C 3.392,7.613 2.673,7.645 2.199,8.077 l -1.76,1.604 c -0.583,0.526 -0.583,1.443 -0.005,1.969 L 5.2,15.999 0.434,20.348 c -0.578,0.526 -0.578,1.443 0.005,1.969 l 1.76,1.604 c 0.479,0.432 1.193,0.464 1.703,0.073 l 5.495,-4.172 12.615,11.51 c 0.594,0.599 1.505,0.755 2.271,0.385 l 6.589,-3.172 c 0.693,-0.333 1.13,-1.031 1.13,-1.802 V 5.248 c 0,-0.766 -0.443,-1.469 -1.135,-1.802 z M 24.005,23.266 14.432,16 24.005,8.734 Z"
       id="path1"
       style="fill:#23a8f2;fill-opacity:1" /></g></svg>
