<?xml version="1.0" encoding="UTF-8" standalone="no"?>
<!-- Created with Inkscape (http://www.inkscape.org/) -->

<svg
   width="500"
   height="500"
   viewBox="0 0 500 500"
   version="1.1"
   id="svg1"
   inkscape:version="1.3.2 (091e20ef0f, 2023-11-25, custom)"
   sodipodi:docname="wasm.svg"
   xml:space="preserve"
   xmlns:inkscape="http://www.inkscape.org/namespaces/inkscape"
   xmlns:sodipodi="http://sodipodi.sourceforge.net/DTD/sodipodi-0.dtd"
   xmlns:xlink="http://www.w3.org/1999/xlink"
   xmlns="http://www.w3.org/2000/svg"
   xmlns:svg="http://www.w3.org/2000/svg"><sodipodi:namedview
     id="namedview1"
     pagecolor="#505050"
     bordercolor="#eeeeee"
     borderopacity="1"
     inkscape:showpageshadow="0"
     inkscape:pageopacity="0"
     inkscape:pagecheckerboard="0"
     inkscape:deskcolor="#505050"
     inkscape:document-units="px"
     inkscape:zoom="0.5"
     inkscape:cx="343"
     inkscape:cy="299"
     inkscape:window-width="1362"
     inkscape:window-height="744"
     inkscape:window-x="0"
     inkscape:window-y="20"
     inkscape:window-maximized="1"
     inkscape:current-layer="svg1"
     showguides="true"><sodipodi:guide
       position="249.31924,284.34741"
       orientation="-0.99997769,0.0066803918"
       id="guide30"
       inkscape:locked="false" /><sodipodi:guide
       position="66.396728,247.89992"
       orientation="0,-1"
       id="guide53"
       inkscape:locked="false" /></sodipodi:namedview><defs
     id="defs1"><linearGradient
       id="linearGradient1"
       inkscape:collect="always"><stop
         style="stop-color:#b340ff;stop-opacity:1;"
         offset="0"
         id="stop1" /><stop
         style="stop-color:#58d6fb;stop-opacity:1;"
         offset="1"
         id="stop2" /></linearGradient><linearGradient
       id="swatch61"
       inkscape:swatch="solid"><stop
         style="stop-color:#5090d0;stop-opacity:1;"
         offset="0"
         id="stop61" /></linearGradient><linearGradient
       id="swatch30"
       inkscape:swatch="solid"><stop
         style="stop-color:#f9f9f9;stop-opacity:1;"
         offset="0"
         id="stop30" /></linearGradient><inkscape:perspective
       sodipodi:type="inkscape:persp3d"
       inkscape:vp_x="44.06818 : 315.96746 : 1"
       inkscape:vp_y="0 : 1000 : 0"
       inkscape:vp_z="480.74134 : 298.68846 : 1"
       inkscape:persp3d-origin="250 : 166.66667 : 1"
       id="perspective17" /><inkscape:perspective
       sodipodi:type="inkscape:persp3d"
       inkscape:vp_x="44.06818 : 315.96746 : 1"
       inkscape:vp_y="0 : 1000 : 0"
       inkscape:vp_z="480.74134 : 298.68846 : 1"
       inkscape:persp3d-origin="250 : 166.66667 : 1"
       id="perspective17-1" /><inkscape:perspective
       sodipodi:type="inkscape:persp3d"
       inkscape:vp_x="44.06818 : 315.96746 : 1"
       inkscape:vp_y="0 : 1000 : 0"
       inkscape:vp_z="480.74134 : 298.68846 : 1"
       inkscape:persp3d-origin="250 : 166.66667 : 1"
       id="perspective17-6" /><inkscape:perspective
       sodipodi:type="inkscape:persp3d"
       inkscape:vp_x="44.06818 : 315.96746 : 1"
       inkscape:vp_y="0 : 1000 : 0"
       inkscape:vp_z="480.74134 : 298.68846 : 1"
       inkscape:persp3d-origin="250 : 166.66667 : 1"
       id="perspective17-4" /><inkscape:perspective
       sodipodi:type="inkscape:persp3d"
       inkscape:vp_x="44.06818 : 315.96746 : 1"
       inkscape:vp_y="0 : 1000 : 0"
       inkscape:vp_z="480.74134 : 298.68846 : 1"
       inkscape:persp3d-origin="250 : 166.66667 : 1"
       id="perspective17-5" /><linearGradient
       inkscape:collect="always"
       xlink:href="#linearGradient1"
       id="linearGradient2"
       x1="8.0359631"
       y1="204.11765"
       x2="247.44565"
       y2="465.47977"
       gradientUnits="userSpaceOnUse"
       gradientTransform="translate(94.224304,-2.3008592)" /><linearGradient
       id="linearGradient1-5"
       inkscape:collect="always"><stop
         style="stop-color:#a850f9;stop-opacity:1;"
         offset="0"
         id="stop1-6" /><stop
         style="stop-color:#4ff189;stop-opacity:1;"
         offset="1"
         id="stop2-2" /></linearGradient><inkscape:path-effect
       effect="transform_2pts"
       start="390.39269,41.772151"
       end="167.97988,418.13643"
       id="path-effect3"
       is_visible="true"
       lpeversion="1"
       first_knot="1"
       last_knot="2"
       helper_size="17"
       stretch="1.2"
       offset="0"
       elastic="false"
       from_original_width="false"
       flip_vertical="false"
       flip_horizontal="false"
       lock_length="false"
       lock_angle="false" /><inkscape:perspective
       sodipodi:type="inkscape:persp3d"
       inkscape:vp_x="44.06818 : 315.96746 : 1"
       inkscape:vp_y="0 : 1000 : 0"
       inkscape:vp_z="480.74134 : 298.68846 : 1"
       inkscape:persp3d-origin="250 : 166.66667 : 1"
       id="perspective17-27" /><inkscape:perspective
       sodipodi:type="inkscape:persp3d"
       inkscape:vp_x="44.06818 : 315.96746 : 1"
       inkscape:vp_y="0 : 1000 : 0"
       inkscape:vp_z="480.74134 : 298.68846 : 1"
       inkscape:persp3d-origin="250 : 166.66667 : 1"
       id="perspective17-6-0" /><inkscape:perspective
       sodipodi:type="inkscape:persp3d"
       inkscape:vp_x="44.06818 : 315.96746 : 1"
       inkscape:vp_y="0 : 1000 : 0"
       inkscape:vp_z="480.74134 : 298.68846 : 1"
       inkscape:persp3d-origin="250 : 166.66667 : 1"
       id="perspective17-2" /><inkscape:perspective
       sodipodi:type="inkscape:persp3d"
       inkscape:vp_x="44.06818 : 315.96746 : 1"
       inkscape:vp_y="0 : 1000 : 0"
       inkscape:vp_z="480.74134 : 298.68846 : 1"
       inkscape:persp3d-origin="250 : 166.66667 : 1"
       id="perspective17-5-9" /><inkscape:path-effect
       effect="transform_2pts"
       start="390.39269,41.772151"
       end="167.97988,418.13643"
       id="path-effect3-3"
       is_visible="true"
       lpeversion="1"
       first_knot="1"
       last_knot="2"
       helper_size="17"
       stretch="1.2"
       offset="0"
       elastic="false"
       from_original_width="false"
       flip_vertical="false"
       flip_horizontal="false"
       lock_length="false"
       lock_angle="false" /><inkscape:perspective
       sodipodi:type="inkscape:persp3d"
       inkscape:vp_x="44.06818 : 315.96746 : 1"
       inkscape:vp_y="0 : 1000 : 0"
       inkscape:vp_z="480.74134 : 298.68846 : 1"
       inkscape:persp3d-origin="250 : 166.66667 : 1"
       id="perspective17-52" /><inkscape:perspective
       sodipodi:type="inkscape:persp3d"
       inkscape:vp_x="44.06818 : 315.96746 : 1"
       inkscape:vp_y="0 : 1000 : 0"
       inkscape:vp_z="480.74134 : 298.68846 : 1"
       inkscape:persp3d-origin="250 : 166.66667 : 1"
       id="perspective17-6-5" /><inkscape:perspective
       sodipodi:type="inkscape:persp3d"
       inkscape:vp_x="44.06818 : 315.96746 : 1"
       inkscape:vp_y="0 : 1000 : 0"
       inkscape:vp_z="480.74134 : 298.68846 : 1"
       inkscape:persp3d-origin="250 : 166.66667 : 1"
       id="perspective17-2-4" /><linearGradient
       inkscape:collect="always"
       xlink:href="#linearGradient1-5"
       id="linearGradient2-3"
       x1="9.8125"
       y1="250.24023"
       x2="488.23828"
       y2="250.24023"
       gradientUnits="userSpaceOnUse"
       gradientTransform="matrix(0.92340402,-0.26284274,0.26284274,0.92340402,-44.879234,82.203722)" /></defs><path
     id="path1-7"
     style="opacity:1;fill:url(#linearGradient2-3);stroke:none;stroke-width:19.2017;stroke-linecap:round;stroke-miterlimit:10"
     d="M 255.25586 18.210938 A 229.66452 229.66452 0 0 0 187.9707 26.931641 A 229.66452 229.66452 0 0 0 119.58203 59.994141 C 121.04808 100.25156 126.6063 145.96027 136.41797 194.5625 C 167.22518 188.7937 199.21329 181.41077 231.91797 172.10156 C 239.23623 170.01846 246.49412 167.85141 253.69727 165.62109 A 20.002 20.002 0 0 1 268.08398 159.39453 L 272.60938 159.39453 L 269.4082 156.19336 A 20.002 20.002 0 0 1 269.4082 127.9082 L 296.31445 101.00391 C 283.24725 70.481171 269.39969 42.579802 255.25586 18.210938 z M 295.89453 22.679688 C 306.43629 42.418969 316.59846 63.931682 326.34961 86.630859 A 20.002 20.002 0 0 1 334.33984 91.265625 L 337.54297 94.46875 L 337.54297 89.9375 A 20.002 20.002 0 0 1 357.54297 69.9375 L 395.45898 69.9375 A 229.66452 229.66452 0 0 0 295.89453 22.679688 z M 87.716797 86.955078 A 229.66452 229.66452 0 0 0 24.955078 208.14062 C 49.535007 206.83114 75.790312 204.21193 103.51953 200.00586 C 95.510782 160.18901 90.288847 122.18401 87.716797 86.955078 z M 377.54297 109.9375 L 377.54297 118.46484 C 381.52177 116.6272 385.48421 114.78909 389.36719 112.92188 L 389.36719 109.9375 L 377.54297 109.9375 z M 446.70898 133.69141 L 435.83008 144.57031 A 20.002 20.002 0 0 1 412.38672 148.13281 C 409.38252 146.55469 406.24664 145.21078 402.99414 144.11719 A 20.002 20.002 0 0 1 402.33594 143.73047 C 399.88107 144.90718 397.33429 146.04535 394.8457 147.20898 C 422.86947 152.57068 445.13618 176.10701 445.13672 205.36328 C 445.13611 238.05975 417.31396 263.5575 384.73633 264.57812 C 386.34033 271.43798 387.98225 278.30836 389.45898 285.12891 A 20.002 20.002 0 0 1 402.99219 266.60938 C 406.27018 265.50719 409.42692 264.15286 412.44336 262.56445 A 20.002 20.002 0 0 1 435.9043 266.11914 L 436.08008 266.29492 C 439.87992 264.45491 443.51278 262.57461 447.21484 260.70898 L 444.01562 257.50977 A 20.002 20.002 0 0 1 440.33398 234.29297 C 441.85585 231.30418 443.14369 228.21261 444.17773 225.0332 A 20.002 20.002 0 0 1 463.19727 211.21875 L 477.24414 211.21875 A 229.66452 229.66452 0 0 0 474.76562 199.39453 L 463.16016 199.39453 A 20.002 20.002 0 0 1 444.15039 185.60742 C 443.11461 182.43806 441.82544 179.35826 440.30469 176.37891 A 20.002 20.002 0 0 1 443.97656 153.14648 L 454.39453 142.72656 A 229.66452 229.66452 0 0 0 452.74805 139.72852 L 446.70898 133.69141 z M 312.5293 141.35742 L 311.83594 142.05078 L 313.38867 143.60352 C 313.10581 142.84632 312.81325 142.11211 312.5293 141.35742 z M 325.0332 176.68555 C 323.58269 179.56193 322.31069 182.52904 321.30469 185.60742 A 20.002 20.002 0 0 1 302.29492 199.39453 L 288.08398 199.39453 L 288.08398 211.21875 L 302.25586 211.21875 A 20.002 20.002 0 0 1 321.27539 225.0332 C 322.39593 228.4787 323.81074 231.81508 325.49609 235.02344 A 20.002 20.002 0 0 1 321.93359 258.4668 L 298.26953 282.13086 A 20.002 20.002 0 0 1 297.75 282.76367 L 288.29883 292.21289 A 20.002 20.002 0 0 1 264.85742 295.77344 C 261.16135 293.83185 257.302 292.17804 253.29883 290.83203 A 20.002 20.002 0 0 1 239.67188 271.875 L 239.67188 250.45898 L 218.73633 250.45898 L 218.73633 271.29102 A 20.002 20.002 0 0 1 204.75977 290.36328 C 200.65314 291.66029 196.6402 293.32276 192.73633 295.31055 A 20.002 20.002 0 0 1 169.51953 291.63086 L 157.04297 279.15234 C 161.72556 295.41027 166.90003 311.26166 172.25977 326.92188 C 185.16625 310.48598 205.77895 299.95694 228.34766 299.95703 C 249.90198 299.95773 269.69049 309.54866 282.67188 324.72656 C 287.58179 323.29051 292.49819 321.86311 297.35547 320.36133 A 20.002 20.002 0 0 1 302.85352 307.26562 L 320.84961 289.26953 A 20.002 20.002 0 0 1 326.0293 271.0918 L 330.51172 266.61133 A 20.002 20.002 0 0 1 349.97461 261.92969 C 349.37977 259.48851 348.73559 257.0387 348.12109 254.59375 C 331.56151 244.04712 320.31679 226.15038 320.31641 205.36328 C 320.31657 196.34865 322.48749 187.9089 326.23242 180.34375 C 325.82645 179.13306 325.44128 177.89304 325.0332 176.68555 z M 382.72656 186.05273 C 375.33597 186.05276 369.36218 188.91986 365.41797 193.13086 C 367.8276 200.82587 370.19951 208.57976 372.45508 216.50391 C 373.09829 218.76359 373.68804 221.01593 374.3125 223.27344 C 376.86231 224.14046 379.66193 224.67382 382.72656 224.67383 C 396.12993 224.67379 405.13653 215.41319 405.13672 205.36328 C 405.13653 195.31337 396.12993 186.05278 382.72656 186.05273 z M 248.08398 202.05469 C 245.72928 202.7435 243.4056 203.47091 241.03906 204.14453 C 233.25305 206.36078 225.51627 208.44971 217.81445 210.45898 L 248.08398 210.45898 L 248.08398 202.05469 z M 182.85547 218.92188 C 169.62802 221.91375 156.51702 224.69063 143.63281 227.12109 C 143.99317 228.66623 144.39795 230.22977 144.76367 231.77734 A 20.002 20.002 0 0 1 168.9668 234.50586 L 178.73633 244.27539 L 178.73633 230.45898 A 20.002 20.002 0 0 1 182.85547 218.92188 z M 110.69922 232.6543 C 79.273009 237.50154 49.486874 240.38644 21.53125 241.64062 A 229.66452 229.66452 0 0 0 29.955078 310.69727 A 229.66452 229.66452 0 0 0 52.904297 363.44727 C 59.624773 363.26216 66.529306 362.94029 73.548828 362.52734 L 73.548828 335.64648 A 20.002 20.002 0 0 1 93.548828 315.64648 L 107.36133 315.64648 L 97.59375 305.87891 A 20.002 20.002 0 0 1 97.59375 277.59375 L 116.89844 258.28906 C 114.72439 249.68898 112.66818 241.14648 110.69922 232.6543 z M 472.10547 308.0918 L 460.84961 319.34961 A 20.002 20.002 0 0 1 432.56445 319.34961 L 429.36719 316.15234 L 429.36719 320.67383 A 20.002 20.002 0 0 1 409.36719 340.67383 L 400.02148 340.67383 C 404.06677 365.80861 407.03681 390.30148 408.8125 413.76562 A 229.66452 229.66452 0 0 0 472.10547 308.0918 z M 310.7832 351.00977 C 306.27073 352.4295 301.72551 353.80968 297.16406 355.17383 C 297.7995 358.75326 298.21286 362.41103 298.21289 366.17969 C 298.21258 403.36769 265.9062 432.40134 228.34766 432.40234 C 223.41677 432.40236 218.58706 431.87345 213.89844 430.91992 C 221.55311 446.99229 229.45221 462.24628 237.50391 476.56641 A 229.66452 229.66452 0 0 0 239.67188 476.58594 L 239.67188 460.48438 A 20.002 20.002 0 0 1 253.29688 441.52734 C 257.33212 440.17054 261.21736 438.5046 264.92773 436.55078 A 20.002 20.002 0 0 1 288.38867 440.10547 L 303.57617 455.29297 L 318.37891 440.49023 L 302.89648 425.00781 A 20.002 20.002 0 0 1 299.2168 401.79102 C 301.09011 398.11204 302.67701 394.30814 303.94922 390.39648 A 20.002 20.002 0 0 1 322.96875 376.58203 L 344.85352 376.58203 L 344.85352 355.64648 L 322.92188 355.64648 A 20.002 20.002 0 0 1 310.7832 351.00977 z M 145.39062 351.38672 A 20.002 20.002 0 0 1 133.77344 355.64648 L 113.54883 355.64648 L 113.54883 359.02734 C 124.33183 357.82261 135.27625 356.46445 146.54492 354.76758 C 146.14775 353.65511 145.78558 352.50201 145.39062 351.38672 z M 258.19336 366.00391 C 239.23861 370.86982 220.59193 375.08297 202.25781 378.79102 C 207.16283 386.71619 216.51936 392.4024 228.34766 392.40234 C 245.86887 392.40178 258.21277 380.04657 258.21289 366.17969 C 258.21289 366.12003 258.19382 366.06351 258.19336 366.00391 z M 158.46094 386.72266 C 156.02367 387.10844 153.65262 387.4146 151.23438 387.77734 A 20.002 20.002 0 0 1 152.74805 390.39648 C 154.12904 394.64283 155.87069 398.74947 157.94141 402.69141 A 20.002 20.002 0 0 1 154.37891 426.13477 L 140.02148 440.49023 L 154.82422 455.29492 L 169.43359 440.68555 A 20.002 20.002 0 0 1 179.32031 435.69531 C 172.09714 419.94446 165.1075 403.63251 158.46094 386.72266 z M 375.19727 413.25977 A 20.002 20.002 0 0 1 364.85352 416.58203 L 351.04102 416.58203 L 360.80664 426.34766 A 20.002 20.002 0 0 1 365.83594 446.04102 A 229.66452 229.66452 0 0 0 376.78125 439.56836 C 376.43057 430.99421 375.89172 422.20726 375.19727 413.25977 z M 95.337891 416.58203 A 229.66452 229.66452 0 0 0 101.99414 421.94727 L 107.35938 416.58203 L 95.337891 416.58203 z " /><path
     id="path7"
     style="color:#000000;opacity:1;fill:url(#linearGradient2);fill-opacity:1;stroke-width:0.863576;stroke-linejoin:round;-inkscape-stroke:none;paint-order:markers fill stroke"
     d="M 357.54297 89.9375 L 357.54297 124.66406 C 353.10115 126.06694 348.82255 127.84601 344.72266 129.93359 L 320.19727 105.40625 L 283.55078 142.05078 L 307.82812 166.32812 C 305.63338 170.49629 303.77608 174.86219 302.29492 179.39453 L 268.08398 179.39453 L 268.08398 231.21875 L 302.25586 231.21875 C 303.73443 235.76513 305.59478 240.14332 307.79102 244.32422 L 283.55273 268.5625 L 283.60938 268.61914 L 274.1582 278.06836 C 269.52684 275.63546 264.68688 273.56121 259.67188 271.875 L 259.67188 230.45898 L 198.73633 230.45898 L 198.73633 271.29102 C 193.51354 272.94055 188.48286 275.03364 183.66211 277.48828 L 154.82422 248.64844 L 111.73633 291.73633 L 140.28125 320.28125 C 137.7006 325.18227 135.51502 330.31726 133.77344 335.64648 L 93.548828 335.64648 L 93.548828 396.58203 L 133.72852 396.58203 C 135.46705 401.92776 137.65394 407.0762 140.23633 411.99219 L 111.73633 440.49023 L 154.82422 483.57812 L 183.57617 454.82812 C 188.42319 457.30217 193.48222 459.41085 198.73633 461.07031 L 198.73633 501.76367 L 259.67188 501.76367 L 259.67188 460.48438 C 264.71821 458.7876 269.58849 456.70065 274.24609 454.24805 L 303.57617 483.57617 L 346.66406 440.49023 L 317.03906 410.86523 C 319.36877 406.28995 321.36234 401.52125 322.96875 396.58203 L 364.85352 396.58203 L 364.85352 335.64648 L 322.92188 335.64648 C 321.31301 330.72351 319.32387 325.96867 316.99609 321.4082 L 346.66797 291.73633 L 340.16797 285.23633 L 344.65039 280.75586 C 348.77263 282.85996 353.07451 284.65313 357.54297 286.06445 L 357.54297 320.67383 L 409.36719 320.67383 L 409.36719 285.56641 C 413.65894 284.12335 417.80057 282.34759 421.76172 280.26172 L 446.70703 305.20703 L 483.35156 268.56055 L 458.15625 243.36719 C 460.13759 239.47605 461.83107 235.41941 463.19727 231.21875 L 498.82031 231.21875 L 498.82031 179.39453 L 463.16016 179.39453 C 461.79186 175.2077 460.09885 171.16564 458.11914 167.28711 L 483.35352 142.05078 L 446.70898 105.40625 L 421.6875 130.42773 C 417.74867 128.35864 413.63229 126.59422 409.36719 125.16016 L 409.36719 89.9375 L 357.54297 89.9375 z M 382.72656 166.05273 A 42.410301 39.311229 0 0 1 425.13672 205.36328 A 42.410301 39.311229 0 0 1 382.72656 244.67383 A 42.410301 39.311229 0 0 1 340.31641 205.36328 A 42.410301 39.311229 0 0 1 382.72656 166.05273 z M 228.34766 319.95703 A 49.866967 46.22301 0 0 1 278.21289 366.17969 A 49.866967 46.22301 0 0 1 228.34766 412.40234 A 49.866967 46.22301 0 0 1 178.48047 366.17969 A 49.866967 46.22301 0 0 1 228.34766 319.95703 z " /></svg>
