<?xml version="1.0" encoding="UTF-8" standalone="no"?>
<!-- Created with Inkscape (http://www.inkscape.org/) -->

<svg
   width="500"
   height="500"
   viewBox="0 0 500 500"
   version="1.1"
   id="svg1"
   inkscape:version="1.3.2 (091e20ef0f, 2023-11-25, custom)"
   sodipodi:docname="web.svg"
   xml:space="preserve"
   xmlns:inkscape="http://www.inkscape.org/namespaces/inkscape"
   xmlns:sodipodi="http://sodipodi.sourceforge.net/DTD/sodipodi-0.dtd"
   xmlns:xlink="http://www.w3.org/1999/xlink"
   xmlns="http://www.w3.org/2000/svg"
   xmlns:svg="http://www.w3.org/2000/svg"><sodipodi:namedview
     id="namedview1"
     pagecolor="#505050"
     bordercolor="#eeeeee"
     borderopacity="1"
     inkscape:showpageshadow="0"
     inkscape:pageopacity="0"
     inkscape:pagecheckerboard="0"
     inkscape:deskcolor="#505050"
     inkscape:document-units="px"
     inkscape:zoom="0.68158229"
     inkscape:cx="255.28832"
     inkscape:cy="185.59755"
     inkscape:window-width="1352"
     inkscape:window-height="734"
     inkscape:window-x="4"
     inkscape:window-y="24"
     inkscape:window-maximized="1"
     inkscape:current-layer="svg1"
     showguides="true"><sodipodi:guide
       position="250.02518,350.60736"
       orientation="-0.99997769,0.0066803918"
       id="guide30"
       inkscape:locked="false" /><sodipodi:guide
       position="66.396728,247.89992"
       orientation="0,-1"
       id="guide53"
       inkscape:locked="false" /></sodipodi:namedview><defs
     id="defs1"><inkscape:path-effect
       effect="transform_2pts"
       start="390.39269,41.772151"
       end="167.97988,418.13643"
       id="path-effect3"
       is_visible="true"
       lpeversion="1"
       first_knot="1"
       last_knot="2"
       helper_size="17"
       stretch="1.2"
       offset="0"
       elastic="false"
       from_original_width="false"
       flip_vertical="false"
       flip_horizontal="false"
       lock_length="false"
       lock_angle="false" /><linearGradient
       id="swatch61"
       inkscape:swatch="solid"><stop
         style="stop-color:#5090d0;stop-opacity:1;"
         offset="0"
         id="stop61" /></linearGradient><linearGradient
       id="swatch30"
       inkscape:swatch="solid"><stop
         style="stop-color:#f9f9f9;stop-opacity:1;"
         offset="0"
         id="stop30" /></linearGradient><inkscape:perspective
       sodipodi:type="inkscape:persp3d"
       inkscape:vp_x="44.06818 : 315.96746 : 1"
       inkscape:vp_y="0 : 1000 : 0"
       inkscape:vp_z="480.74134 : 298.68846 : 1"
       inkscape:persp3d-origin="250 : 166.66667 : 1"
       id="perspective17" /><inkscape:perspective
       sodipodi:type="inkscape:persp3d"
       inkscape:vp_x="44.06818 : 315.96746 : 1"
       inkscape:vp_y="0 : 1000 : 0"
       inkscape:vp_z="480.74134 : 298.68846 : 1"
       inkscape:persp3d-origin="250 : 166.66667 : 1"
       id="perspective17-6" /><inkscape:perspective
       sodipodi:type="inkscape:persp3d"
       inkscape:vp_x="44.06818 : 315.96746 : 1"
       inkscape:vp_y="0 : 1000 : 0"
       inkscape:vp_z="480.74134 : 298.68846 : 1"
       inkscape:persp3d-origin="250 : 166.66667 : 1"
       id="perspective17-2" /><linearGradient
       id="linearGradient1"
       inkscape:collect="always"><stop
         style="stop-color:#a850f9;stop-opacity:1;"
         offset="0"
         id="stop1" /><stop
         style="stop-color:#4ff189;stop-opacity:1;"
         offset="1"
         id="stop2" /></linearGradient><inkscape:path-effect
       effect="transform_2pts"
       start="390.39269,41.772151"
       end="167.97988,418.13643"
       id="path-effect3-0"
       is_visible="true"
       lpeversion="1"
       first_knot="1"
       last_knot="2"
       helper_size="17"
       stretch="1.2"
       offset="0"
       elastic="false"
       from_original_width="false"
       flip_vertical="false"
       flip_horizontal="false"
       lock_length="false"
       lock_angle="false" /><inkscape:perspective
       sodipodi:type="inkscape:persp3d"
       inkscape:vp_x="44.06818 : 315.96746 : 1"
       inkscape:vp_y="0 : 1000 : 0"
       inkscape:vp_z="480.74134 : 298.68846 : 1"
       inkscape:persp3d-origin="250 : 166.66667 : 1"
       id="perspective17-1" /><inkscape:perspective
       sodipodi:type="inkscape:persp3d"
       inkscape:vp_x="44.06818 : 315.96746 : 1"
       inkscape:vp_y="0 : 1000 : 0"
       inkscape:vp_z="480.74134 : 298.68846 : 1"
       inkscape:persp3d-origin="250 : 166.66667 : 1"
       id="perspective17-6-0" /><inkscape:perspective
       sodipodi:type="inkscape:persp3d"
       inkscape:vp_x="44.06818 : 315.96746 : 1"
       inkscape:vp_y="0 : 1000 : 0"
       inkscape:vp_z="480.74134 : 298.68846 : 1"
       inkscape:persp3d-origin="250 : 166.66667 : 1"
       id="perspective17-2-6" /><inkscape:perspective
       sodipodi:type="inkscape:persp3d"
       inkscape:vp_x="44.06818 : 315.96746 : 1"
       inkscape:vp_y="0 : 1000 : 0"
       inkscape:vp_z="480.74134 : 298.68846 : 1"
       inkscape:persp3d-origin="250 : 166.66667 : 1"
       id="perspective17-5" /><inkscape:path-effect
       effect="transform_2pts"
       start="390.39269,41.772151"
       end="167.97988,418.13643"
       id="path-effect3-3"
       is_visible="true"
       lpeversion="1"
       first_knot="1"
       last_knot="2"
       helper_size="17"
       stretch="1.2"
       offset="0"
       elastic="false"
       from_original_width="false"
       flip_vertical="false"
       flip_horizontal="false"
       lock_length="false"
       lock_angle="false" /><inkscape:perspective
       sodipodi:type="inkscape:persp3d"
       inkscape:vp_x="44.06818 : 315.96746 : 1"
       inkscape:vp_y="0 : 1000 : 0"
       inkscape:vp_z="480.74134 : 298.68846 : 1"
       inkscape:persp3d-origin="250 : 166.66667 : 1"
       id="perspective17-52" /><inkscape:perspective
       sodipodi:type="inkscape:persp3d"
       inkscape:vp_x="44.06818 : 315.96746 : 1"
       inkscape:vp_y="0 : 1000 : 0"
       inkscape:vp_z="480.74134 : 298.68846 : 1"
       inkscape:persp3d-origin="250 : 166.66667 : 1"
       id="perspective17-6-5" /><inkscape:perspective
       sodipodi:type="inkscape:persp3d"
       inkscape:vp_x="44.06818 : 315.96746 : 1"
       inkscape:vp_y="0 : 1000 : 0"
       inkscape:vp_z="480.74134 : 298.68846 : 1"
       inkscape:persp3d-origin="250 : 166.66667 : 1"
       id="perspective17-2-4" /><linearGradient
       inkscape:collect="always"
       xlink:href="#linearGradient1"
       id="linearGradient2"
       x1="9.8125"
       y1="250.24023"
       x2="488.23828"
       y2="250.24023"
       gradientUnits="userSpaceOnUse"
       gradientTransform="matrix(0.90142553,-0.25658666,0.25658666,0.90142553,-38.978825,90.574708)" /></defs><path
     id="path1-7"
     style="opacity:1;fill:url(#linearGradient2);stroke:none;stroke-width:18.7447;stroke-linecap:round;stroke-miterlimit:10"
     d="m 188.32849,36.618419 a 224.19813,224.19813 0 0 0 -66.75986,32.276126 c 1.43116,39.299285 6.85557,83.918845 16.43371,131.364325 30.07398,-5.63152 61.30205,-12.83781 93.22834,-21.92546 27.56135,-7.84518 54.31296,-16.81898 80.05042,-26.46496 C 293.83401,104.95573 274.21389,62.910498 254.01307,28.105868 a 224.19813,224.19813 0 0 0 -65.68458,8.512551 z M 293.6832,32.46814 c 17.03739,31.902222 33.21885,68.09545 47.87613,107.48342 27.43426,-11.32617 52.91055,-23.49596 76.19524,-36.07716 A 224.19813,224.19813 0 0 0 293.6832,32.46814 Z M 90.460476,95.213538 A 224.19813,224.19813 0 0 0 29.19259,213.51376 c 23.994911,-1.27833 49.62647,-3.83526 76.69572,-7.94121 C 98.070179,166.70336 92.971309,129.60399 90.460476,95.213538 Z M 25.850518,246.2169 a 224.19813,224.19813 0 0 0 8.224196,67.41296 224.19813,224.19813 0 0 0 22.401708,51.49354 c 27.984922,-0.77078 58.717958,-3.549 91.412708,-8.47227 -7.83289,-21.93943 -15.23206,-44.43889 -21.81755,-67.57475 -4.97591,-17.48114 -9.23758,-34.65305 -13.17436,-51.63253 -30.678251,4.73188 -59.75644,7.54871 -87.046702,8.77305 z M 437.65003,130.05444 c -26.0614,14.36106 -54.56243,28.06694 -85.26003,40.66536 5.61092,16.54802 11.04459,33.43211 16.03318,50.9577 6.57459,23.09735 12.12876,46.08488 17.01928,68.82446 32.1917,-13.33083 61.81529,-27.78791 88.05337,-42.76036 a 224.19813,224.19813 0 0 0 -8.15591,-56.8694 224.19813,224.19813 0 0 0 -27.68989,-60.81776 z m -292.603,101.98751 c 3.70328,15.87904 7.67882,31.88453 12.30332,48.13107 6.94231,24.38946 14.81894,48.09445 23.19698,71.1104 30.20351,-5.64249 61.57426,-12.87533 93.64908,-22.00526 27.73878,-7.89569 54.66088,-16.93244 80.55174,-26.64953 -4.97247,-23.77779 -10.72127,-47.8688 -17.60373,-72.04777 -4.68474,-16.45818 -9.80223,-32.35951 -15.08992,-47.9983 -26.35307,9.84558 -53.70909,18.9994 -81.92046,27.0296 -32.52756,9.2588 -64.34513,16.63067 -95.08701,22.42979 z M 78.379553,396.73863 a 224.19813,224.19813 0 0 0 117.858707,72.69503 c -13.00512,-25.2305 -25.33218,-52.62152 -36.71753,-81.58757 -28.42266,4.49883 -55.52713,7.38292 -81.141177,8.89254 z M 471.31153,286.17703 c -24.49361,13.04064 -51.00145,25.49224 -79.32536,36.98907 5.73609,31.48548 9.73353,62.06904 11.92895,91.07968 a 224.19813,224.19813 0 0 0 67.39641,-128.06875 z m -279.0591,95.96448 c 13.73076,34.19494 28.79202,65.5942 44.43144,93.40925 a 224.19813,224.19813 0 0 0 74.40228,-7.66713 224.19813,224.19813 0 0 0 61.5585,-28.45078 c -1.32339,-32.35694 -5.13047,-67.58919 -11.60588,-104.52101 -25.15621,9.28773 -51.11476,18.00971 -77.939,25.64508 -31.04833,8.83774 -61.41654,15.9096 -90.84734,21.58459 z" /></svg>
