<?xml version="1.0" encoding="UTF-8" standalone="no"?>
<!-- Created with Inkscape (http://www.inkscape.org/) -->

<svg
   width="500"
   height="500"
   viewBox="0 0 500 500"
   version="1.1"
   id="svg1"
   inkscape:version="1.3.2 (091e20ef0f, 2023-11-25, custom)"
   sodipodi:docname="web.svg"
   xml:space="preserve"
   xmlns:inkscape="http://www.inkscape.org/namespaces/inkscape"
   xmlns:sodipodi="http://sodipodi.sourceforge.net/DTD/sodipodi-0.dtd"
   xmlns="http://www.w3.org/2000/svg"
   xmlns:svg="http://www.w3.org/2000/svg"><sodipodi:namedview
     id="namedview1"
     pagecolor="#505050"
     bordercolor="#eeeeee"
     borderopacity="1"
     inkscape:showpageshadow="0"
     inkscape:pageopacity="0"
     inkscape:pagecheckerboard="0"
     inkscape:deskcolor="#505050"
     inkscape:document-units="px"
     inkscape:zoom="0.68158229"
     inkscape:cx="255.28832"
     inkscape:cy="185.59755"
     inkscape:window-width="1362"
     inkscape:window-height="744"
     inkscape:window-x="0"
     inkscape:window-y="20"
     inkscape:window-maximized="1"
     inkscape:current-layer="layer1"
     showguides="true"><sodipodi:guide
       position="250.02518,350.60736"
       orientation="-0.99997769,0.0066803918"
       id="guide30"
       inkscape:locked="false" /><sodipodi:guide
       position="66.396728,247.89992"
       orientation="0,-1"
       id="guide53"
       inkscape:locked="false" /></sodipodi:namedview><defs
     id="defs1"><inkscape:path-effect
       effect="transform_2pts"
       start="390.39269,41.772151"
       end="167.97988,418.13643"
       id="path-effect3"
       is_visible="true"
       lpeversion="1"
       first_knot="1"
       last_knot="2"
       helper_size="17"
       stretch="1.2"
       offset="0"
       elastic="false"
       from_original_width="false"
       flip_vertical="false"
       flip_horizontal="false"
       lock_length="false"
       lock_angle="false" /><linearGradient
       id="swatch61"
       inkscape:swatch="solid"><stop
         style="stop-color:#5090d0;stop-opacity:1;"
         offset="0"
         id="stop61" /></linearGradient><linearGradient
       id="swatch30"
       inkscape:swatch="solid"><stop
         style="stop-color:#f9f9f9;stop-opacity:1;"
         offset="0"
         id="stop30" /></linearGradient><inkscape:perspective
       sodipodi:type="inkscape:persp3d"
       inkscape:vp_x="44.06818 : 315.96746 : 1"
       inkscape:vp_y="0 : 1000 : 0"
       inkscape:vp_z="480.74134 : 298.68846 : 1"
       inkscape:persp3d-origin="250 : 166.66667 : 1"
       id="perspective17" /><inkscape:perspective
       sodipodi:type="inkscape:persp3d"
       inkscape:vp_x="44.06818 : 315.96746 : 1"
       inkscape:vp_y="0 : 1000 : 0"
       inkscape:vp_z="480.74134 : 298.68846 : 1"
       inkscape:persp3d-origin="250 : 166.66667 : 1"
       id="perspective17-6" /><inkscape:perspective
       sodipodi:type="inkscape:persp3d"
       inkscape:vp_x="44.06818 : 315.96746 : 1"
       inkscape:vp_y="0 : 1000 : 0"
       inkscape:vp_z="480.74134 : 298.68846 : 1"
       inkscape:persp3d-origin="250 : 166.66667 : 1"
       id="perspective17-2" /></defs><g
     inkscape:label="Layer 1"
     inkscape:groupmode="layer"
     id="layer1"><path
       id="path4"
       style="display:none;opacity:0.797329;fill:#a8bcd2;fill-opacity:1;stroke:none;stroke-width:20;stroke-linecap:round;stroke-miterlimit:10;stroke-dasharray:none;stroke-opacity:1"
       d="m 369.52249,56.609323 -49.21484,85.242607 c 24.79861,13.85364 49.64915,25.75286 73.95492,35.43366 16.02593,-17.94657 32.46209,-33.77398 48.9528,-47.60904 A 226.09821,226.09821 0 0 0 369.52249,56.609323 Z M 351.77522,47.348489 A 226.09821,226.09821 0 0 0 257.48994,23.85071 c -3.77476,21.033318 -9.25092,42.980699 -16.74417,65.622831 19.07728,14.778939 39.95352,28.998729 62.24918,42.364859 z M 453.16599,147.43765 c -12.94492,11.08226 -25.93034,23.47447 -38.74171,37.39949 19.94344,7.07922 39.3277,12.58921 57.93538,16.71938 A 226.09821,226.09821 0 0 0 453.16599,147.43765 Z M 237.17732,23.857411 a 226.09821,226.09821 0 0 0 -56.98959,11.025276 c 13.03613,13.8589 27.70615,27.67605 43.85138,41.172181 5.68312,-18.029898 9.9664,-35.454781 13.13821,-52.197457 z M 475.85851,222.62915 c -24.24169,-4.87641 -49.57857,-11.90417 -75.68451,-21.59027 -22.37166,26.37536 -43.9141,56.74877 -63.37449,90.34207 L 450.16595,356.8331 A 226.09821,226.09821 0 0 0 475.85851,222.62915 Z M 160.59391,42.827982 A 226.09821,226.09821 0 0 0 59.074288,131.03622 L 170.89474,195.59579 C 190.09839,162.22202 205.53821,128.65813 217.16168,96.341924 195.83926,79.002112 177.07901,60.994679 160.59391,42.827982 Z M 380.4694,193.27762 c -23.16996,-9.54603 -46.69174,-20.9689 -70.16761,-34.09503 l -50.61914,87.67492 59.79465,34.52246 c 18.77767,-32.42053 39.40229,-62.01381 60.9921,-88.10235 z M 233.76683,109.38173 c -11.76483,31.53615 -26.99029,63.96604 -45.54988,96.21504 l 54.14519,31.26074 50.62402,-87.68338 c -21.03917,-12.59166 -40.87866,-25.9153 -59.21933,-39.7924 z m -184.230774,39.2416 a 226.09821,226.09821 0 0 0 -23.043842,119.5967 c 24.768786,5.14914 50.648206,12.52175 77.290376,22.63696 19.84135,-23.02445 38.98862,-49.35895 56.75018,-78.14968 z m 128.345984,74.10059 c -17.05629,27.72178 -35.36416,53.27744 -54.45656,75.98949 21.45811,9.02214 43.1968,19.65647 64.9015,31.73574 l 44.03516,-76.27113 z m 71.80061,41.4541 -44.0293,76.26098 c 23.38778,13.93518 45.28974,28.78246 65.3406,44.27598 10.16014,-28.10032 23.21968,-56.9594 38.82165,-85.81919 z m 77.48052,44.7334 c -16.20648,30.05996 -29.5429,60.09348 -39.59862,89.03994 22.01512,18.30151 41.2225,37.29511 57.81875,56.40577 a 226.09821,226.09821 0 0 0 94.06547,-80.61759 z m -131.51666,48.85993 -51.93457,89.95332 a 226.09821,226.09821 0 0 0 103.71094,27.05877 c 3.40844,-22.25875 9.00466,-45.76347 16.73314,-70.00217 -20.76331,-16.45113 -43.7752,-32.2571 -68.50951,-47.00992 z m -17.32734,-9.98816 c -23.05967,-12.81328 -46.1508,-23.9235 -68.80579,-33.13738 -17.107326,18.8432 -34.649736,35.4609 -52.210268,49.5871 a 226.09821,226.09821 0 0 0 69.375428,72.99447 z M 89.391102,306.88924 C 68.592159,299.32636 48.376105,293.4677 28.987065,289.09414 a 226.09821,226.09821 0 0 0 18.560429,57.16099 C 61.497124,334.78704 75.53484,321.69705 89.391102,306.88924 Z M 280.87792,418.58762 c -5.84825,19.38735 -10.12986,38.07458 -13.03873,55.8611 a 226.09821,226.09821 0 0 0 58.21384,-11.81371 c -13.29562,-14.78943 -28.28839,-29.58087 -45.17511,-44.04739 z" /><path
       id="path1"
       style="opacity:1;fill:#a8bbd2;stroke:none;stroke-width:20;stroke-linecap:round;stroke-miterlimit:10"
       d="M 249.02539 11.027344 A 239.21294 239.21294 0 0 0 171.08789 24.648438 C 161.07703 65.39569 153.60999 112.76913 149.58008 164.25586 C 182.08722 167.26153 216.2387 168.98825 251.65625 168.98828 C 282.23154 168.98831 312.30553 167.59362 341.53516 165.21289 C 337.33427 111.97432 329.48158 63.096051 318.91797 21.478516 A 239.21294 239.21294 0 0 0 249.02539 11.027344 z M 358.35352 37.542969 C 366.5186 75.257974 372.55191 117.12641 376.08789 161.82812 C 407.54957 158.21881 437.2484 153.17184 464.81836 147.0625 A 239.21294 239.21294 0 0 0 358.35352 37.542969 z M 131.47656 42.570312 A 239.21294 239.21294 0 0 0 34.046875 146.07422 C 59.044038 151.77144 86.094238 156.63461 115.07227 160.32812 C 118.40314 118.15655 124.00756 78.595492 131.47656 42.570312 z M 21.064453 178.6582 A 239.21294 239.21294 0 0 0 9.8125 250.24023 A 239.21294 239.21294 0 0 0 17.759766 309.62695 C 46.703253 317.01051 79.053248 323.13676 114.04297 327.63477 C 112.41342 302.83233 111.39255 277.58188 111.39258 251.91602 C 111.3926 232.52326 112.03525 213.65646 112.95508 195.08203 C 80.090629 190.97664 49.427564 185.3734 21.064453 178.6582 z M 477.58789 179.74023 C 446.64854 186.86498 413.39701 192.60476 378.21484 196.56641 C 379.13905 215.1871 379.78319 234.10089 379.7832 253.54297 C 379.78323 279.16612 378.76818 304.3785 377.14453 329.14258 C 414.0739 324.86575 448.69684 318.68299 479.99609 310.98242 A 239.21294 239.21294 0 0 0 488.23828 250.24023 A 239.21294 239.21294 0 0 0 477.58789 179.74023 z M 147.52539 198.92969 C 146.68737 216.30663 146.09181 233.89286 146.0918 251.91602 C 146.09177 278.97256 147.25048 305.5996 149.125 331.66602 C 181.76827 334.69825 216.07392 336.43943 251.65625 336.43945 C 282.42837 336.43948 312.69571 335.02999 342.10352 332.62109 C 343.94636 306.76766 345.08401 280.36603 345.08398 253.54297 C 345.08398 235.28503 344.47724 217.47212 343.61914 199.87891 C 313.69948 202.28465 282.95264 203.68753 251.65625 203.6875 C 215.57168 203.68747 180.76689 201.95846 147.52539 198.92969 z M 31.001953 348.46875 A 239.21294 239.21294 0 0 0 130.71484 457.49609 C 124.73885 427.8055 120.08979 396.09583 116.86719 363.04492 C 86.38551 359.35925 57.728243 354.40156 31.001953 348.46875 z M 466.52734 349.78711 C 437.58258 356.01481 406.74286 361.04965 374.31836 364.57422 C 371.0077 398.5604 366.17628 431.11315 359.95508 461.52539 A 239.21294 239.21294 0 0 0 466.52734 349.78711 z M 152.12305 366.75195 C 156.22514 405.85388 162.50923 442.47551 170.43359 475.58789 A 239.21294 239.21294 0 0 0 249.02539 489.45312 A 239.21294 239.21294 0 0 0 320.50781 478.23828 C 328.60137 444.64677 334.98605 407.3791 339.12891 367.58789 C 310.60042 369.77077 281.41382 371.1387 251.65625 371.13867 C 217.21267 371.13864 183.98286 369.52512 152.12305 366.75195 z " /></g></svg>
