<?xml version="1.0" encoding="UTF-8" standalone="no"?>
<!-- Created with Inkscape (http://www.inkscape.org/) -->

<svg
   width="500"
   height="500"
   viewBox="0 0 500 500"
   version="1.1"
   id="svg1"
   inkscape:version="1.3.2 (091e20ef0f, 2023-11-25, custom)"
   sodipodi:docname="yaml.svg"
   xml:space="preserve"
   xmlns:inkscape="http://www.inkscape.org/namespaces/inkscape"
   xmlns:sodipodi="http://sodipodi.sourceforge.net/DTD/sodipodi-0.dtd"
   xmlns:xlink="http://www.w3.org/1999/xlink"
   xmlns="http://www.w3.org/2000/svg"
   xmlns:svg="http://www.w3.org/2000/svg"><sodipodi:namedview
     id="namedview1"
     pagecolor="#505050"
     bordercolor="#eeeeee"
     borderopacity="1"
     inkscape:showpageshadow="0"
     inkscape:pageopacity="0"
     inkscape:pagecheckerboard="0"
     inkscape:deskcolor="#505050"
     inkscape:document-units="px"
     inkscape:zoom="0.68158229"
     inkscape:cx="148.91819"
     inkscape:cy="275.09518"
     inkscape:window-width="1362"
     inkscape:window-height="744"
     inkscape:window-x="0"
     inkscape:window-y="20"
     inkscape:window-maximized="1"
     inkscape:current-layer="svg1"
     showguides="true"><sodipodi:guide
       position="250.02518,350.60736"
       orientation="-0.99997769,0.0066803918"
       id="guide30"
       inkscape:locked="false" /><sodipodi:guide
       position="66.396728,247.89992"
       orientation="0,-1"
       id="guide53"
       inkscape:locked="false" /></sodipodi:namedview><defs
     id="defs1"><linearGradient
       id="linearGradient10"
       inkscape:collect="always"><stop
         style="stop-color:#fbc02d;stop-opacity:1;"
         offset="0"
         id="stop10" /><stop
         style="stop-color:#fb712d;stop-opacity:1;"
         offset="1"
         id="stop11" /></linearGradient><linearGradient
       id="linearGradient1"><stop
         style="stop-color:#01ff52;stop-opacity:1;"
         offset="0"
         id="stop7" /><stop
         style="stop-color:#3effbf;stop-opacity:1;"
         offset="1"
         id="stop8" /></linearGradient><linearGradient
       id="linearGradient1-1"><stop
         style="stop-color:#01ff52;stop-opacity:1;"
         offset="0"
         id="stop1" /><stop
         style="stop-color:#3effbf;stop-opacity:1;"
         offset="1"
         id="stop2" /></linearGradient><inkscape:path-effect
       effect="tiling"
       id="path-effect10"
       is_visible="true"
       lpeversion="1"
       unit="px"
       seed="1;1"
       lpesatellites=""
       num_rows="3"
       num_cols="2"
       gapx="40"
       gapy="42"
       offset="0"
       offset_type="false"
       scale="0"
       rotate="0"
       mirrorrowsx="false"
       mirrorrowsy="false"
       mirrorcolsx="false"
       mirrorcolsy="false"
       mirrortrans="false"
       shrink_interp="false"
       split_items="false"
       link_styles="false"
       interpolate_scalex="false"
       interpolate_scaley="true"
       interpolate_rotatex="false"
       interpolate_rotatey="true"
       random_scale="false"
       random_rotate="false"
       random_gap_y="false"
       random_gap_x="false"
       transformorigin="" /><inkscape:path-effect
       effect="tiling"
       id="path-effect9"
       is_visible="true"
       lpeversion="1"
       unit="px"
       seed="1;1"
       lpesatellites=""
       num_rows="5"
       num_cols="2"
       gapx="10"
       gapy="0"
       offset="0"
       offset_type="false"
       scale="0"
       rotate="0"
       mirrorrowsx="false"
       mirrorrowsy="false"
       mirrorcolsx="false"
       mirrorcolsy="false"
       mirrortrans="false"
       shrink_interp="false"
       split_items="false"
       link_styles="false"
       interpolate_scalex="false"
       interpolate_scaley="true"
       interpolate_rotatex="false"
       interpolate_rotatey="true"
       random_scale="false"
       random_rotate="false"
       random_gap_y="false"
       random_gap_x="false"
       transformorigin="" /><inkscape:path-effect
       effect="clone_original"
       css_properties=""
       attributes="style,clip-path,mask"
       linkeditem="#rect1"
       is_visible="true"
       method="d"
       allow_transforms="true"
       id="path-effect8"
       lpeversion="1" /><inkscape:path-effect
       effect="vonkoch"
       id="path-effect7"
       is_visible="true"
       lpeversion="1"
       ref_path="M 131.56824,151.8197 330.69366,65.099542"
       generator="M 38.325813,161.77531 106.84048,349.1628 m 191.31825,-14.66406 96.57885,-144.56316"
       similar_only="false"
       nbgenerations="4"
       drawall="true"
       maxComplexity="983"
       generator-nodetypes="cccc"
       ref_path-nodetypes="cc" /><inkscape:path-effect
       effect="clone_original"
       css_properties=""
       attributes="style,clip-path,mask"
       linkeditem="#rect1"
       is_visible="true"
       method="d"
       allow_transforms="true"
       id="path-effect6"
       lpeversion="1" /><inkscape:path-effect
       effect="offset"
       id="path-effect5"
       is_visible="true"
       lpeversion="1.2"
       linejoin_type="miter"
       unit="mm"
       offset="0"
       miter_limit="4"
       attempt_force_join="false"
       update_on_knot_move="true" /><inkscape:path-effect
       effect="rough_hatches"
       id="path-effect4"
       is_visible="true"
       lpeversion="1.2"
       direction="263.15291,146.8197 , 65.792335,0"
       dist_rdm="75;1"
       growth="0"
       do_bend="true"
       bender="263.15291,151.8197 , 5,0"
       bottom_edge_variation="7.623175;1"
       top_edge_variation="7.623175;1"
       bottom_tgt_variation="0;1"
       top_tgt_variation="0;1"
       scale_bf="1"
       scale_bb="1"
       scale_tf="1"
       scale_tb="1"
       top_smth_variation="0;1"
       bottom_smth_variation="0;1"
       fat_output="true"
       stroke_width_top="1"
       stroke_width_bottom="1"
       front_thickness="1"
       back_thickness="0.25" /><inkscape:path-effect
       effect="clone_original"
       css_properties=""
       attributes="style,clip-path,mask"
       linkeditem="#rect1"
       is_visible="true"
       method="d"
       allow_transforms="true"
       id="path-effect3"
       lpeversion="1" /><inkscape:path-effect
       effect="clone_original"
       css_properties=""
       attributes="style,clip-path,mask"
       linkeditem="#rect1"
       is_visible="true"
       method="d"
       allow_transforms="true"
       id="path-effect2"
       lpeversion="1" /><linearGradient
       id="swatch61"
       inkscape:swatch="solid"><stop
         style="stop-color:#5090d0;stop-opacity:1;"
         offset="0"
         id="stop61" /></linearGradient><linearGradient
       id="swatch30"
       inkscape:swatch="solid"><stop
         style="stop-color:#f9f9f9;stop-opacity:1;"
         offset="0"
         id="stop30" /></linearGradient><inkscape:perspective
       sodipodi:type="inkscape:persp3d"
       inkscape:vp_x="44.06818 : 315.96746 : 1"
       inkscape:vp_y="0 : 1000 : 0"
       inkscape:vp_z="480.74134 : 298.68846 : 1"
       inkscape:persp3d-origin="250 : 166.66667 : 1"
       id="perspective17" /><inkscape:perspective
       sodipodi:type="inkscape:persp3d"
       inkscape:vp_x="44.06818 : 315.96746 : 1"
       inkscape:vp_y="0 : 1000 : 0"
       inkscape:vp_z="480.74134 : 298.68846 : 1"
       inkscape:persp3d-origin="250 : 166.66667 : 1"
       id="perspective17-3" /><inkscape:perspective
       sodipodi:type="inkscape:persp3d"
       inkscape:vp_x="44.06818 : 315.96746 : 1"
       inkscape:vp_y="0 : 1000 : 0"
       inkscape:vp_z="480.74134 : 298.68846 : 1"
       inkscape:persp3d-origin="250 : 166.66667 : 1"
       id="perspective17-2" /><inkscape:perspective
       sodipodi:type="inkscape:persp3d"
       inkscape:vp_x="44.06818 : 315.96746 : 1"
       inkscape:vp_y="0 : 1000 : 0"
       inkscape:vp_z="480.74134 : 298.68846 : 1"
       inkscape:persp3d-origin="250 : 166.66667 : 1"
       id="perspective17-29" /><inkscape:perspective
       sodipodi:type="inkscape:persp3d"
       inkscape:vp_x="44.06818 : 315.96746 : 1"
       inkscape:vp_y="0 : 1000 : 0"
       inkscape:vp_z="480.74134 : 298.68846 : 1"
       inkscape:persp3d-origin="250 : 166.66667 : 1"
       id="perspective17-0" /><inkscape:perspective
       sodipodi:type="inkscape:persp3d"
       inkscape:vp_x="44.06818 : 315.96746 : 1"
       inkscape:vp_y="0 : 1000 : 0"
       inkscape:vp_z="480.74134 : 298.68846 : 1"
       inkscape:persp3d-origin="250 : 166.66667 : 1"
       id="perspective17-2-6" /><inkscape:perspective
       sodipodi:type="inkscape:persp3d"
       inkscape:vp_x="44.06818 : 315.96746 : 1"
       inkscape:vp_y="0 : 1000 : 0"
       inkscape:vp_z="480.74134 : 298.68846 : 1"
       inkscape:persp3d-origin="250 : 166.66667 : 1"
       id="perspective17-02" /><linearGradient
       inkscape:collect="always"
       xlink:href="#linearGradient10"
       id="linearGradient11"
       x1="1.0446296"
       y1="4.8695011"
       x2="33.413197"
       y2="36.772449"
       gradientUnits="userSpaceOnUse" /><linearGradient
       inkscape:collect="always"
       xlink:href="#linearGradient10"
       id="linearGradient13"
       x1="153.733"
       y1="174.02194"
       x2="515.20825"
       y2="537.20953"
       gradientUnits="userSpaceOnUse"
       gradientTransform="translate(0,8)" /><linearGradient
       inkscape:collect="always"
       xlink:href="#linearGradient10"
       id="linearGradient15"
       x1="-7.8696651"
       y1="-0.083822682"
       x2="494.14999"
       y2="449.67062"
       gradientUnits="userSpaceOnUse" /><linearGradient
       inkscape:collect="always"
       xlink:href="#linearGradient10"
       id="linearGradient16"
       gradientUnits="userSpaceOnUse"
       x1="1.0446296"
       y1="4.8695011"
       x2="33.413197"
       y2="36.772449" /><linearGradient
       inkscape:collect="always"
       xlink:href="#linearGradient10"
       id="linearGradient17"
       gradientUnits="userSpaceOnUse"
       x1="1.0446296"
       y1="4.8695011"
       x2="33.413197"
       y2="36.772449" /><linearGradient
       inkscape:collect="always"
       xlink:href="#linearGradient10"
       id="linearGradient18"
       gradientUnits="userSpaceOnUse"
       x1="1.0446296"
       y1="4.8695011"
       x2="33.413197"
       y2="36.772449" /><linearGradient
       inkscape:collect="always"
       xlink:href="#linearGradient10"
       id="linearGradient19"
       gradientUnits="userSpaceOnUse"
       x1="1.0446296"
       y1="4.8695011"
       x2="33.413197"
       y2="36.772449" /></defs><path
     id="path13"
     style="opacity:0.274789;color:#000000;fill:url(#linearGradient15);stroke-linejoin:bevel;stroke-miterlimit:10;-inkscape-stroke:none"
     d="M 42.949219 34.003906 L 31.996094 46.761719 C 32.378616 49.262609 32.963987 62.335716 33.099609 78.083984 C 33.235233 93.832254 33.144758 113.25768 32.962891 132.38672 C 32.599151 170.64479 31.869141 206.7868 31.869141 212.61328 L 42.949219 223.69336 L 86.041016 223.69336 L 86.041016 468.81641 L 97.121094 479.89648 L 457.59766 479.89648 L 468.67773 468.81641 L 468.67773 45.085938 L 457.59766 34.005859 L 42.949219 34.003906 z " /><g
     id="g8"
     transform="matrix(12.375026,0,0,12.375026,81.751635,-81.567677)"
     style="fill:url(#linearGradient11)"><path
       d="m 2,12.218 c 0.755,0 1.51,-0.008 2.264,0 l 0.053,0.038 q 1.383,1.382 2.761,2.758 c 0.891,-0.906 1.8,-1.794 2.7,-2.7 0.053,-0.052 0.11,-0.113 0.192,-0.1 0.608,0 1.215,0 1.823,0 a 1.4,1.4 0 0 1 0.353,0.019 c -0.7,0.67 -1.377,1.369 -2.069,2.05 L 5.545,18.8 C 5.214,19.124 4.897,19.463 4.556,19.775 3.802,19.797 3.045,19.782 2.29,19.782 3.513,18.573 4.721,17.349 5.948,16.145 4.627,14.841 3.318,13.525 2,12.218 Z"
       style="fill:url(#linearGradient16);fill-opacity:1"
       id="path1" /><path
       d="m 12.7,12.218 c 0.613,0 1.226,0 1.839,0 q 0,3.783 0,7.566 c -0.611,0 -1.222,0.012 -1.832,-0.008 0,-1.664 0,-3.329 0,-4.994 -1.6,1.607 -3.209,3.2 -4.811,4.8 -0.089,0.08 -0.166,0.217 -0.305,0.194 -0.824,-0.006 -1.649,0 -2.474,0 Q 8.916,16 12.7,12.218 Z"
       style="fill:url(#linearGradient17);fill-opacity:1"
       id="path2" /><path
       d="m 14.958,12.22 c 0.47,-0.009 0.939,0 1.409,0 0.836,0.853 1.69,1.689 2.536,2.532 q 1.268,-1.267 2.539,-2.532 0.7,0 1.4,0 -0.008,3.784 0,7.567 c -0.471,0 -0.943,0.006 -1.414,0 q 0.008,-2.387 0,-4.773 c -0.844,0.843 -1.676,1.7 -2.526,2.536 -0.856,-0.835 -1.687,-1.695 -2.532,-2.541 0,1.594 -0.006,3.188 0.006,4.781 -0.472,0 -0.943,0.005 -1.415,0 Q 14.958,16 14.958,12.22 Z"
       style="fill:url(#linearGradient18);fill-opacity:1"
       id="path3" /><path
       d="m 23.259,12.217 c 0.472,0 0.944,-0.007 1.416,0 q -0.007,3.083 0,6.166 c 1.26,0 2.521,0 3.782,0 0.063,0.006 0.144,-0.012 0.191,0.045 0.448,0.454 0.907,0.9 1.353,1.354 q -3.371,0.007 -6.741,0 Q 23.267,16 23.259,12.217 Z"
       style="fill:url(#linearGradient19);fill-opacity:1"
       id="path4" /></g><path
     id="path7"
     style="color:#000000;fill:url(#linearGradient13);stroke-width:0.809634;stroke-linejoin:round;-inkscape-stroke:none;paint-order:markers fill stroke"
     d="m 244.5602,196.41919 v 38.2806 c -4.89657,1.54651 -9.61262,3.50845 -14.13227,5.80977 l -27.03742,-27.0374 -40.39642,40.39641 26.76228,26.76227 c -2.41946,4.59487 -4.46796,9.40789 -6.10076,14.40424 h -37.71289 v 57.12995 h 37.67022 c 1.62995,5.01182 3.68121,9.83802 6.1023,14.44694 l -26.71956,26.71959 40.39641,40.39642 26.95518,-26.9552 c 4.54427,2.31952 9.287,4.29665 14.21293,5.85246 v 38.15253 h 57.12992 v -38.70124 c 4.73115,-1.5908 9.29752,-3.54831 13.66421,-5.84772 l 27.49758,27.49758 40.39641,-40.39641 -27.77431,-27.77432 c 2.18418,-4.2895 4.05229,-8.75993 5.55835,-13.39063 h 39.26893 v -57.12995 h -39.31162 c -1.50838,-4.61549 -3.37439,-9.07232 -5.55677,-13.34793 l 27.8186,-27.81858 -40.39643,-40.39641 -27.58296,27.58297 c -4.34207,-2.28092 -8.88022,-4.22573 -13.58199,-5.80663 v -38.82931 z m 27.76164,83.90803 a 46.752129,43.335784 0 0 1 46.75175,43.33451 46.752129,43.335784 0 0 1 -46.75175,43.3361 46.752129,43.335784 0 0 1 -46.75173,-43.3361 46.752129,43.335784 0 0 1 46.75173,-43.33451 z" /></svg>
