<?xml version="1.0" encoding="UTF-8" standalone="no"?>
<!-- Created with Inkscape (http://www.inkscape.org/) -->

<svg
   width="500"
   height="500"
   viewBox="0 0 500 500"
   version="1.1"
   id="svg1"
   inkscape:version="1.3.2 (091e20ef0f, 2023-11-25, custom)"
   sodipodi:docname="yy.svg"
   xml:space="preserve"
   xmlns:inkscape="http://www.inkscape.org/namespaces/inkscape"
   xmlns:sodipodi="http://sodipodi.sourceforge.net/DTD/sodipodi-0.dtd"
   xmlns="http://www.w3.org/2000/svg"
   xmlns:svg="http://www.w3.org/2000/svg"><sodipodi:namedview
     id="namedview1"
     pagecolor="#505050"
     bordercolor="#eeeeee"
     borderopacity="1"
     inkscape:showpageshadow="0"
     inkscape:pageopacity="0"
     inkscape:pagecheckerboard="0"
     inkscape:deskcolor="#505050"
     inkscape:document-units="px"
     inkscape:zoom="0.96390292"
     inkscape:cx="145.76157"
     inkscape:cy="259.88094"
     inkscape:window-width="1362"
     inkscape:window-height="744"
     inkscape:window-x="0"
     inkscape:window-y="20"
     inkscape:window-maximized="1"
     inkscape:current-layer="layer1"
     showguides="true"><sodipodi:guide
       position="250.02518,350.60736"
       orientation="-0.99997769,0.0066803918"
       id="guide30"
       inkscape:locked="false" /><sodipodi:guide
       position="66.396728,247.89992"
       orientation="0,-1"
       id="guide53"
       inkscape:locked="false" /></sodipodi:namedview><defs
     id="defs1"><linearGradient
       id="swatch61"
       inkscape:swatch="solid"><stop
         style="stop-color:#5090d0;stop-opacity:1;"
         offset="0"
         id="stop61" /></linearGradient><linearGradient
       id="swatch30"
       inkscape:swatch="solid"><stop
         style="stop-color:#f9f9f9;stop-opacity:1;"
         offset="0"
         id="stop30" /></linearGradient><inkscape:perspective
       sodipodi:type="inkscape:persp3d"
       inkscape:vp_x="44.06818 : 315.96746 : 1"
       inkscape:vp_y="0 : 1000 : 0"
       inkscape:vp_z="480.74134 : 298.68846 : 1"
       inkscape:persp3d-origin="250 : 166.66667 : 1"
       id="perspective17" /><inkscape:perspective
       sodipodi:type="inkscape:persp3d"
       inkscape:vp_x="44.06818 : 315.96746 : 1"
       inkscape:vp_y="0 : 1000 : 0"
       inkscape:vp_z="480.74134 : 298.68846 : 1"
       inkscape:persp3d-origin="250 : 166.66667 : 1"
       id="perspective17-7" /></defs><g
     inkscape:label="Layer 1"
     inkscape:groupmode="layer"
     id="layer1"><path
       id="path1"
       style="fill:#0869d2;fill-opacity:1;stroke-width:17.658"
       d="M 249.74609 2.7578125 L 2.3398438 250.11133 L 249.99414 497.18359 C 256.10138 491.04827 262.24185 484.93565 268.35938 478.80859 L 227.76758 438.21875 A 17.50175 17.50175 0 0 1 227.76758 413.46875 L 242.05859 399.17773 L 221.84766 399.17773 A 17.50175 17.50175 0 0 1 204.34766 381.67773 L 204.34766 320.38672 A 17.50175 17.50175 0 0 1 207.11914 311.53711 L 145.72266 250.11133 C 180.37955 215.3838 215.05388 180.68044 249.74609 146 C 270.31483 166.62126 290.94187 187.19608 311.54297 207.79883 A 17.50175 17.50175 0 0 1 327.64844 197.08789 L 388.93945 197.08789 A 17.50175 17.50175 0 0 1 406.43945 214.58789 L 406.43945 234.79688 L 420.72852 220.50781 A 17.50175 17.50175 0 0 1 445.47656 220.50781 L 474.93945 249.9707 C 482.21941 249.96753 489.48123 249.9707 496.76562 249.9707 L 249.74609 2.7578125 z M 353.91211 322.26758 C 336.82131 323.82336 324.77585 336.60298 324.77539 351.09961 C 324.77528 365.59663 336.82089 378.3759 353.91211 379.93164 L 353.91211 322.26758 z " /><path
       id="path7"
       style="color:#000000;fill:#0869d2;fill-opacity:1;stroke-width:0.86861;stroke-linejoin:round;-inkscape-stroke:none;paint-order:markers fill stroke"
       d="m 327.64809,214.58785 v 41.06899 c -5.25324,1.65915 -10.31281,3.76401 -15.16167,6.23296 l -29.00683,-29.00683 -43.33892,43.33891 28.71166,28.71164 c -2.59569,4.92957 -4.79341,10.09315 -6.54514,15.45346 h -40.45993 v 61.29132 h 40.41415 c 1.74867,5.37687 3.94935,10.55461 6.5468,15.49926 l -28.66584,28.66585 43.33891,43.3389 28.91861,-28.91861 c 4.87528,2.48846 9.96346,4.60961 15.2482,6.27875 v 40.93157 h 61.2913 v -41.52025 c 5.07575,-1.70668 9.97474,-3.80677 14.65951,-6.27368 l 29.5005,29.50052 43.33891,-43.33891 -29.79739,-29.7974 c 2.34327,-4.60194 4.34744,-9.398 5.96321,-14.366 h 42.12929 v -61.29132 h -42.1751 c -1.61824,-4.95169 -3.62017,-9.73316 -5.96152,-14.3202 l 29.84491,-29.8449 -43.3389,-43.33891 -29.59214,29.59213 c -4.65833,-2.44706 -9.52705,-4.53354 -14.57128,-6.22958 v -41.65767 z m 29.78381,90.01994 a 50.157572,46.49238 0 0 1 50.15716,46.49101 50.157572,46.49238 0 0 1 -50.15716,46.49272 50.157572,46.49238 0 0 1 -50.15715,-46.49272 50.157572,46.49238 0 0 1 50.15715,-46.49101 z" /></g></svg>
